<?xml version="1.0" encoding="UTF-8"?>
<svg width="32px" height="32px" viewBox="0 0 32 32" version="1.1" xmlns="http://www.w3.org/2000/svg" xmlns:xlink="http://www.w3.org/1999/xlink">
    <title>bell</title>
    <g id="bell" stroke="none" stroke-width="1" fill="none" fill-rule="evenodd">
        <g id="iconfinder_1907650_alert_bell_set_sound_time_icon" transform="translate(3.000000, 5.000000)">
            <path d="M10.5191558,19.7977202 C10.7105654,21.0655628 11.7631987,22 13,22 C14.2368013,22 15.2894346,21.0655628 15.4808442,19.7977202" id="_Path_" stroke-opacity="0.85" stroke="#000000" stroke-width="1.4" stroke-linecap="round" stroke-linejoin="round"></path>
            <g id="_Group_" transform="translate(4.427977, 0.000000)" stroke="#000000" stroke-linecap="round" stroke-linejoin="round" stroke-opacity="0.85" stroke-width="1.4">
                <g id="_Group_2">
                    <path d="M2.01694651,8.89432462 C2.01694651,5.1379365 4.95175408,2.09278226 8.57202268,2.09278226 C12.1922913,2.09278226 15.1270989,5.1379365 15.1270989,8.89432462 L15.1270989,10.4639113 C15.1270989,16.05164 17.1440454,16.1876708 17.1440454,17.7886492 C17.1440454,19.3896277 11.7587982,19.8814315 8.57202268,19.8814315 C5.38524719,19.8814315 0,19.3896277 0,17.7886492 C0,16.1876708 2.01694651,16.05164 2.01694651,10.4639113 L2.01694651,8.89432462 Z" id="_Path_2"></path>
                    <path d="M10.0847326,2.28113267 L10.0847326,1.5695867 C10.0847326,0.702727901 9.40746928,0 8.57202268,0 C7.73657608,0 7.0593128,0.702727901 7.0593128,1.5695867 L7.0593128,2.28113267" id="_Path_3"></path>
                </g>
            </g>
            <path d="M25.2044309,14.628548 C25.9813175,12.2535027 25.9813175,9.67885538 25.2044309,7.3038101" id="_Path_4"></path>
            <path d="M22.0762593,13.9588577 C22.7034196,12.0275448 22.7034196,9.93620508 22.0762593,8.00489216" id="_Path_5"></path>
            <path d="M0.795569121,7.34566574 C0.0186824735,9.72071102 0.0186824735,12.2953584 0.795569121,14.6704037" id="_Path_6"></path>
            <path d="M3.92374069,8.01535607 C3.29658042,9.94666899 3.29658042,12.0380087 3.92374069,13.9693216" id="_Path_7"></path>
        </g>
    </g>
</svg>