<?xml version="1.0" encoding="UTF-8"?>
<svg width="32px" height="32px" viewBox="0 0 32 32" version="1.1" xmlns="http://www.w3.org/2000/svg" xmlns:xlink="http://www.w3.org/1999/xlink">
    <title>8</title>
    <g id="8" stroke="none" stroke-width="1" fill="none" fill-rule="evenodd" fill-opacity="0.85" stroke-opacity="0.85">
        <g id="iconfinder_4103873_chip_electronics_equipment_hardware_iot_icon" transform="translate(3.000000, 4.000000)" fill="#000000" fill-rule="nonzero" stroke="#000000" stroke-width="0.4">
            <path d="M19.5,5 L5.5,5 C5.224,5 5,5.224 5,5.5 L5,19.5 C5,19.7765 5.224,20 5.5,20 L19.5,20 C19.7765,20 20,19.7765 20,19.5 L20,5.5 C20,5.224 19.7765,5 19.5,5 Z M19,19 L6,19 L6,6 L19,6 L19,19 Z" id="Shape"></path>
            <path d="M12.5,4 C12.776,4 13,3.776 13,3.5 L13,0.5 C13,0.224 12.776,0 12.5,0 C12.224,0 12,0.224 12,0.5 L12,3.5 C12,3.776 12.224,4 12.5,4 Z" id="Path"></path>
            <path d="M7.5,4 C7.776,4 8,3.776 8,3.5 L8,0.5 C8,0.224 7.776,0 7.5,0 C7.224,0 7,0.224 7,0.5 L7,3.5 C7,3.776 7.224,4 7.5,4 Z" id="Path"></path>
            <path d="M17.5,4 C17.7765,4 18,3.776 18,3.5 L18,0.5 C18,0.224 17.7765,0 17.5,0 C17.2235,0 17,0.224 17,0.5 L17,3.5 C17,3.776 17.2235,4 17.5,4 Z" id="Path"></path>
            <path d="M12.5,21 C12.224,21 12,21.2235 12,21.5 L12,24.5 C12,24.7765 12.224,25 12.5,25 C12.776,25 13,24.7765 13,24.5 L13,21.5 C13,21.2235 12.776,21 12.5,21 Z" id="Path"></path>
            <path d="M7.5,21 C7.224,21 7,21.2235 7,21.5 L7,24.5 C7,24.7765 7.224,25 7.5,25 C7.776,25 8,24.7765 8,24.5 L8,21.5 C8,21.2235 7.776,21 7.5,21 Z" id="Path"></path>
            <path d="M17.5,21 C17.2235,21 17,21.2235 17,21.5 L17,24.5 C17,24.7765 17.2235,25 17.5,25 C17.7765,25 18,24.7765 18,24.5 L18,21.5 C18,21.2235 17.7765,21 17.5,21 Z" id="Path"></path>
            <path d="M24.5,12 L21.5,12 C21.2235,12 21,12.224 21,12.5 C21,12.776 21.2235,13 21.5,13 L24.5,13 C24.7765,13 25,12.776 25,12.5 C25,12.224 24.7765,12 24.5,12 Z" id="Path"></path>
            <path d="M21.5,8 L24.5,8 C24.7765,8 25,7.776 25,7.5 C25,7.224 24.7765,7 24.5,7 L21.5,7 C21.2235,7 21,7.224 21,7.5 C21,7.776 21.2235,8 21.5,8 Z" id="Path"></path>
            <path d="M24.5,17 L21.5,17 C21.2235,17 21,17.2235 21,17.5 C21,17.7765 21.2235,18 21.5,18 L24.5,18 C24.7765,18 25,17.7765 25,17.5 C25,17.2235 24.7765,17 24.5,17 Z" id="Path"></path>
            <path d="M3.5,12 L0.5,12 C0.224,12 0,12.224 0,12.5 C0,12.776 0.224,13 0.5,13 L3.5,13 C3.776,13 4,12.776 4,12.5 C4,12.224 3.776,12 3.5,12 Z" id="Path"></path>
            <path d="M3.5,7 L0.5,7 C0.224,7 0,7.224 0,7.5 C0,7.776 0.224,8 0.5,8 L3.5,8 C3.776,8 4,7.776 4,7.5 C4,7.224 3.776,7 3.5,7 Z" id="Path"></path>
            <path d="M3.5,17 L0.5,17 C0.224,17 0,17.2235 0,17.5 C0,17.7765 0.224,18 0.5,18 L3.5,18 C3.776,18 4,17.7765 4,17.5 C4,17.2235 3.776,17 3.5,17 Z" id="Path"></path>
        </g>
    </g>
</svg>