<?xml version="1.0" encoding="UTF-8"?>
<svg width="32px" height="32px" viewBox="0 0 32 32" version="1.1" xmlns="http://www.w3.org/2000/svg" xmlns:xlink="http://www.w3.org/1999/xlink">
    <title>2</title>
    <g id="2" stroke="none" stroke-width="1" fill="none" fill-rule="evenodd">
        <g id="iconfinder_1-31_970784" transform="translate(2.000000, 3.000000)" fill="#0B0B0B" fill-rule="nonzero" stroke="#EAF7F7" stroke-width="0.4">
            <path d="M25.312826,0.232146664 C24.9203231,-0.105521211 24.3164726,-0.0748241313 23.9843548,0.324237902 L18.6402775,6.58644212 C17.0098811,5.91110637 15.3794846,5.5734385 13.6887031,5.5734385 C5.86883863,5.5734385 0.403991263,13.0021317 0.192643575,13.3091025 C-0.0790891672,13.6467704 -0.0488966403,14.1072266 0.192643575,14.4448945 C2.30612046,17.1155404 4.54036745,19.0801535 6.80480697,20.3694308 L2.51746815,25.4037519 C2.18535035,25.8028139 2.21554288,26.4167555 2.60804573,26.7544234 C2.78920089,26.9079088 3.00054858,27 3.21189627,27 C3.48362901,27 3.72516922,26.8772117 3.90632438,26.6623321 L25.373211,1.58281816 C25.7355213,1.18375613 25.7053288,0.569814538 25.312826,0.232146664 Z M2.15515782,13.8309529 C3.54401406,12.1733106 7.98231552,7.44596035 13.6887031,7.44596035 C14.9265967,7.44596035 16.1342978,7.66083991 17.3118063,8.09059902 L15.862565,9.80963547 C15.1681369,9.37987636 14.3831312,9.1649968 13.5075479,9.1649968 C10.9713757,9.1649968 8.88809132,11.2830953 8.88809132,13.86165 C8.88809132,14.9667448 9.28059417,15.9797485 9.88444471,16.7778725 L8.0728931,18.895971 C6.04999379,17.8215732 4.08747955,16.1332339 2.15515782,13.8309529 Z M11.1525308,15.3044127 C10.9109906,14.8746536 10.760028,14.3835003 10.760028,13.86165 C10.760028,12.326796 11.9979216,11.0682157 13.5075479,11.0682157 C13.9000508,11.0682157 14.2623611,11.160307 14.5944789,11.2830953 L11.1525308,15.3044127 Z" id="Shape"></path>
            <path d="M26.8224523,14.4141974 C27.0639925,14.0765295 27.0639925,13.5853763 26.7922598,13.2477084 C25.2222484,11.2830953 23.6220445,9.68684715 21.9614555,8.48966105 L20.7235619,9.93242379 C22.1124181,10.9454274 23.5012743,12.2347048 24.8599381,13.86165 C23.4710818,15.5192923 19.0327804,20.2466425 13.3263928,20.2466425 C12.8735049,20.2466425 12.420617,20.2159454 11.9677291,20.1545513 L10.5184878,21.8428906 C11.4544561,22.0577702 12.3602319,22.1805585 13.2962003,22.1805585 C21.1764498,22.1498614 26.6111046,14.7211682 26.8224523,14.4141974 Z" id="Path"></path>
        </g>
    </g>
</svg>