<?xml version="1.0" encoding="UTF-8"?>
<svg width="32px" height="32px" viewBox="0 0 32 32" version="1.1" xmlns="http://www.w3.org/2000/svg" xmlns:xlink="http://www.w3.org/1999/xlink">
    <title>hand</title>
    <g id="hand" stroke="none" stroke-width="1" fill="none" fill-rule="evenodd" opacity="0.85">
        <g id="iconfinder_3043041_bye_gesture_goodbye_hand_hello_icon" transform="translate(4.000000, 4.000000)" fill="#000000" fill-rule="nonzero" stroke="#000000" stroke-width="0.72">
            <path d="M12.5755991,24 L12.5755991,24 C9.50684276,24 7.74006967,21.7526395 7.15948448,19.8281518 C6.52850686,17.7422278 6.45541939,16.0644885 6.45541939,14.9837455 C6.45506257,13.6315042 6.62375214,6.47467524 6.6309,6.1705522 C6.6309,5.25162061 7.25991196,4.55168761 8.0940676,4.55168761 L8.19342289,4.55168761 C8.50042362,4.55168761 8.78812511,4.64749949 9.03043767,4.81193594 L9.03043767,4.14012776 C9.03079507,3.24275853 9.72663955,2.51263823 10.5818814,2.51263823 L10.681058,2.51226323 C10.9885948,2.51226323 11.2766537,2.60788761 11.5191449,2.77232406 L11.5191449,2.42957626 C11.5191449,1.53183204 12.2149894,0.801524235 13.0702313,0.801524235 L13.1708374,0.801524235 C14.0800456,0.801524235 14.6786792,1.39664541 14.7197794,2.32720192 C14.9576245,2.15845301 15.2433604,2.06357862 15.5585811,2.06357862 L15.6591873,2.06395361 C16.513893,2.06395361 17.2099162,2.79426142 17.2099162,3.69200564 L17.2077719,15.0392451 L18.5537145,11.9505775 C18.7717243,11.2613319 19.3805436,10.8000849 20.0762094,10.8000849 C20.2345345,10.8000849 20.3896432,10.8242723 20.5393909,10.8720845 L20.6285605,10.8927093 C20.6389249,10.8951468 20.6489319,10.8979593 20.6589389,10.9011468 C21.065831,11.0355834 21.3991001,11.329394 21.5969173,11.7285789 C21.7947344,12.1275764 21.8329754,12.5824484 21.70485,13.0091957 C21.7021695,13.0180081 21.6993104,13.0268206 21.6959152,13.0354455 L19.0917699,19.886839 C18.9841946,20.2817114 17.8303508,24 12.5755991,24 Z M8.0940676,5.30168279 C7.602652,5.30168279 7.34568632,5.74342994 7.34568632,6.17992714 C7.34389935,6.2635516 7.16984888,13.6406916 7.17038374,14.983558 C7.17038374,16.0144264 7.23989794,17.6145411 7.84103324,19.6014658 C8.34888892,21.2846425 9.89336346,23.2500048 12.5757778,23.2500048 C17.5390753,23.2500048 18.3968189,19.7152776 18.4048603,19.6796528 C18.4089703,19.6616529 18.4143312,19.644403 18.4207643,19.6273406 L21.0266965,12.7714472 C21.0933503,12.5391362 21.0708345,12.2922003 20.9630805,12.0747017 C20.8555052,11.8579531 20.6764512,11.6972666 20.4582627,11.6211421 L20.3712374,11.6010798 C20.360873,11.5986423 20.3506873,11.5958298 20.3405016,11.5924548 C20.255442,11.56433 20.1671659,11.5498926 20.078175,11.5498926 C19.6923691,11.5498926 19.3437321,11.8170784 19.2284728,12.1997634 C19.2241841,12.2143883 19.2186445,12.2286382 19.2127475,12.2427006 L17.1750704,16.9177956 C17.1048426,17.078107 16.9372252,17.165669 16.7738966,17.1281692 C16.6096744,17.0906694 16.4926282,16.9380454 16.4926282,16.7617966 L16.4951299,3.69181814 C16.4951299,3.20769626 16.1198671,2.81394879 15.6586512,2.81394879 L15.5573303,2.81357379 C15.0732412,2.81357379 14.7290716,3.24200854 14.7219237,3.85550459 L14.721745,10.6375235 C14.721745,10.8445221 14.5616329,11.012521 14.3643519,11.012521 L14.3643519,11.012521 C14.1670709,11.012521 14.0069587,10.8445221 14.0069587,10.6375235 L14.0071374,2.42957626 C14.00678,1.70395593 13.5523546,1.55151941 13.1711948,1.55151941 L13.07041,1.55151941 C12.8481114,1.55151941 12.6383216,1.64320632 12.4796391,1.80970525 C12.3209565,1.97620418 12.2337526,2.19632776 12.2337526,2.42938876 L12.2337526,10.5943987 C12.2337526,10.8013974 12.0736404,10.9693963 11.8763594,10.9693963 L11.8763594,10.9693963 C11.6790784,10.9693963 11.5189662,10.8013974 11.5189662,10.5943987 L11.5189662,4.1181904 C11.5112823,3.64906842 11.1358408,3.2622584 10.6821302,3.2622584 L10.5836683,3.2626334 C10.1206655,3.2626334 9.74540269,3.65638087 9.74522399,4.14031526 L9.74540269,11.0560208 C9.74540269,11.2630194 9.58529056,11.4310184 9.38800953,11.4310184 C9.19072851,11.4310184 9.03061637,11.2630194 9.03061637,11.0560208 L9.03043767,6.15817728 C9.02257503,5.68905529 8.64695481,5.30187028 8.1932442,5.30187028 L8.0940676,5.30187028 L8.0940676,5.30168279 Z" id="Shape"></path>
            <path d="M0.608996569,10.9643339 C0.457640566,10.9643339 0.317363751,10.8627095 0.268936978,10.703523 C0.248029478,10.634711 -0.238025219,8.98622158 0.149388966,6.09592768 C0.536445758,3.20563377 1.43654043,1.76151806 1.4747815,1.70133095 C1.58414381,1.52901955 1.80608496,1.48233235 1.97030712,1.59708162 C2.13452927,1.71183088 2.17902472,1.94470438 2.06966241,2.11701577 C2.06179976,2.12957819 1.21942409,3.4960694 0.857206119,6.20017701 C0.494809455,8.90428461 0.945839622,10.4612746 0.950307037,10.4766495 C1.00909821,10.6738982 0.904918106,10.8844594 0.716929304,10.946709 C0.681189988,10.9587089 0.644735885,10.9643339 0.608996569,10.9643339 Z" id="Path"></path>
            <path d="M3.58376223,9.51553068 C3.42472227,9.51553068 3.27979934,9.4035939 3.23834174,9.23446999 C3.22815603,9.19265775 2.9897748,8.18935171 3.22511819,6.43248801 C3.46046159,4.67599931 3.95294936,3.78050507 3.97385686,3.74319281 C4.07374825,3.56450646 4.29247286,3.50469435 4.4629494,3.60969367 C4.63324724,3.7145055 4.69007275,3.94437902 4.59018137,4.12287787 C4.58642874,4.12981532 4.14647776,4.94299759 3.93293534,6.53673734 C3.71957163,8.13103958 3.92882532,9.04003374 3.93096968,9.04884618 C3.97868167,9.24928239 3.86306498,9.45309358 3.67203834,9.50371825 C3.6425534,9.5117807 3.61288977,9.51553068 3.58376223,9.51553068 Z" id="Path"></path>
            <path d="M23.3906809,9.43078122 C23.3545842,9.43078122 23.3181301,9.42496876 23.2820334,9.41296884 C23.0942233,9.35015674 22.9904006,9.1395956 23.0497278,8.94253436 C23.0559822,8.9215345 23.5046893,7.36529451 23.1428288,4.66606187 C22.7782877,1.94339189 21.9389499,0.596213055 21.9305512,0.582900641 C21.8210102,0.410589249 21.8655056,0.177715747 22.0299065,0.0629664856 C22.1941286,-0.051970275 22.4158911,-0.00509557651 22.5252534,0.167215815 C22.5634944,0.227215429 23.4637678,1.67151864 23.8506459,4.56181254 C24.2380601,7.45229395 23.7518267,9.10078335 23.7309192,9.1695954 C23.6824924,9.32896938 23.5418582,9.43078122 23.3906809,9.43078122 Z" id="Path"></path>
            <path d="M20.4157366,7.98216554 C20.3864303,7.98216554 20.3564093,7.97822807 20.326567,7.97035312 C20.1358977,7.91897845 20.0206384,7.71516726 20.0692439,7.51491855 C20.0729965,7.49841865 20.2797485,6.590362 20.0670995,5.00299721 C19.8514128,3.39219507 19.4143209,2.59701268 19.4098535,2.58913773 C19.3097834,2.41045138 19.3669663,2.18076536 19.5370855,2.07595354 C19.707562,1.97057921 19.9264653,2.03095383 20.026178,2.20945268 C20.0470855,2.24676494 20.5395733,3.14225918 20.774738,4.89874788 C21.0099027,6.65579907 20.7717001,7.65891762 20.7615144,7.70072985 C20.7202355,7.86966627 20.5749552,7.98216554 20.4157366,7.98216554 Z" id="Path"></path>
        </g>
    </g>
</svg>