<?xml version="1.0" encoding="UTF-8"?>
<svg width="32px" height="32px" viewBox="0 0 32 32" version="1.1" xmlns="http://www.w3.org/2000/svg" xmlns:xlink="http://www.w3.org/1999/xlink">
    <title>4</title>
    <g id="4" stroke="none" stroke-width="1" fill="none" fill-rule="evenodd" stroke-linecap="round" stroke-linejoin="round">
        <g id="iconfinder_aami17-13_853373" transform="translate(4.000000, 3.000000)" stroke="#0F0F0F" stroke-width="1.201824">
            <g id="Group-12" transform="translate(6.765840, 6.655492)">
                <path d="M10.4242424,10.2752278 C10.4242424,10.8292842 9.95515152,11.282603 9.38181818,11.282603 L1.04242424,11.282603 C0.469090909,11.282603 0,10.8292842 0,10.2752278 L0,5.23835141 C0,4.68429501 0.469090909,4.23097614 1.04242424,4.23097614 L9.38181818,4.23097614 C9.95515152,4.23097614 10.4242424,4.68429501 10.4242424,5.23835141 L10.4242424,10.2752278 Z" id="Path"></path>
                <path d="M1.98060606,4.13023861 L1.98060606,3.12286334 C1.98060606,1.35995662 3.44,0 5.21212121,0 C6.98424242,0 8.44363636,1.41032538 8.44363636,3.12286334 L8.44363636,4.13023861" id="Path"></path>
                <ellipse id="Oval" cx="5.21212121" cy="7.35383948" rx="1" ry="1"></ellipse>
                <line x1="5.21212121" y1="8.21010846" x2="5.21212121" y2="9.41895879" id="Path"></line>
            </g>
            <path d="M24,4.15835141 C18.5454545,4.15835141 12,0 12,0 C12,0 5.45454545,4.21691974 0,4.21691974 C1.63636364,8.25813449 0.848484848,16.867679 0.848484848,16.867679 C0.848484848,22.3145336 10.5454545,26.5314534 12.0606061,27 C13.5151515,26.5314534 23.2727273,22.2559653 23.2727273,16.867679 C23.2727273,16.867679 22.8484848,12.2407809 23.2727273,8.14099783 L24,4.15835141 Z" id="Path"></path>
        </g>
    </g>
</svg>