<?xml version="1.0" encoding="UTF-8"?>
<svg width="32px" height="32px" viewBox="0 0 32 32" version="1.1" xmlns="http://www.w3.org/2000/svg" xmlns:xlink="http://www.w3.org/1999/xlink">
    <title>3</title>
    <g id="3" stroke="none" stroke-width="1" fill="none" fill-rule="evenodd">
        <g id="iconfinder_07.Wallet_290143" transform="translate(3.000000, 5.000000)" fill="#000000" fill-rule="nonzero">
            <path d="M25,20.1947107 L25,20.1947107 C25,21.7443525 23.7836957,23 22.2826087,23 L22.2826087,23 L2.7173913,23 L2.7173913,23 C1.21630435,23 0,21.7443525 0,20.1947107 L0,3.92403292 C0,2.68465612 0.973369565,1.6798015 2.17391304,1.6798015 L2.17391304,1.6798015 L13.136413,1.6798015 L17.5380435,0.0336577543 C17.8168478,-0.0712600646 18.1255435,0.077420267 18.2271739,0.364120831 L18.6907609,1.6798015 L20.6521739,1.6798015 C21.8527174,1.6798015 22.826087,2.68465612 22.826087,3.92403292 L22.826087,5.04614863 L22.826087,5.04614863 C24.0266304,5.04614863 25,6.05100325 25,7.29038005 L25,20.1947107 Z M2.17391304,2.80191721 L2.17391304,2.80191721 C1.57391304,2.80191721 1.08695652,3.30462505 1.08695652,3.92403292 C1.08695652,4.54344079 1.57391304,5.04614863 2.17391304,5.04614863 L4.04619565,5.04614863 L4.04619565,5.04614863 L4.14891304,5.04614863 C4.15597826,5.04334334 4.16032609,5.03717171 4.1673913,5.03436642 L10.1358696,2.80191721 L2.17391304,2.80191721 Z M17.9771739,2.90346868 L17.4,1.26293552 L17.3994565,1.26293552 L17.3994565,1.26293552 L16.2847826,1.6798015 L16.286413,1.6798015 L13.2896739,2.80191721 L13.2842391,2.80191721 L7.28478261,5.04614863 L18.7315217,5.04614863 L17.9771739,2.90346868 Z M21.7391304,3.92403292 C21.7391304,3.30462505 21.2521739,2.80191721 20.6521739,2.80191721 L19.0853261,2.80191721 L19.8755435,5.04614863 L21.7391304,5.04614863 L21.7391304,5.04614863 L21.7391304,3.92403292 Z M22.826087,6.16826434 L2.17391304,6.16826434 L2.17391304,6.16826434 C1.77608696,6.16826434 1.4076087,6.04988114 1.08695652,5.85687723 L1.08695652,20.1947107 C1.08695652,21.1243836 1.8173913,21.8778843 2.7173913,21.8778843 L22.2826087,21.8778843 C23.1831522,21.8778843 23.9130435,21.1243836 23.9130435,20.1947107 L23.9130435,16.2673057 L21.7391304,16.2673057 C20.538587,16.2673057 19.5652174,15.2624511 19.5652174,14.0230743 C19.5652174,12.7836975 20.538587,11.7788429 21.7391304,11.7788429 L23.9130435,11.7788429 L23.9130435,7.29038005 C23.9130435,6.67097218 23.426087,6.16826434 22.826087,6.16826434 Z M23.9130435,15.14519 L23.9130435,12.9009586 L21.7391304,12.9009586 C21.1391304,12.9009586 20.6521739,13.4036664 20.6521739,14.0230743 C20.6521739,14.6424822 21.1391304,15.14519 21.7391304,15.14519 L23.9130435,15.14519 Z M21.7391304,13.4620165 L22.826087,13.4620165 L22.826087,14.5841322 L21.7391304,14.5841322 L21.7391304,13.4620165 Z" id="Shape"></path>
        </g>
    </g>
</svg>