<?xml version="1.0" encoding="UTF-8"?>
<svg width="32px" height="32px" viewBox="0 0 32 32" version="1.1" xmlns="http://www.w3.org/2000/svg" xmlns:xlink="http://www.w3.org/1999/xlink">
    <title>1</title>
    <g id="1" stroke="none" stroke-width="1" fill="none" fill-rule="evenodd" fill-opacity="0.85">
        <g id="iconfinder_09_roof_5749462" transform="translate(1.000000, 8.000000)" fill="#000000" fill-rule="nonzero">
            <path d="M30,10.4032258 C30,10.3787723 29.9886069,10.3582173 29.9862817,10.3343545 C29.9815152,10.2850932 29.9723309,10.2391397 29.9580312,10.1918866 C29.944313,10.1467601 29.9281531,10.1052954 29.906413,10.0644217 C29.8853703,10.0244928 29.8610726,9.9889349 29.8325895,9.95314084 C29.8014326,9.9141571 29.7684154,9.88025303 29.7300505,9.84847548 C29.7120307,9.83347258 29.7016836,9.81268123 29.6819198,9.79933239 L24.2857143,6.14383819 L24.2857143,0.725806452 C24.2857143,0.32510071 23.9657737,0 23.5714286,0 L19.7619048,0 C19.3675594,0 19.047619,0.325100903 19.047619,0.725806452 L19.047619,2.59549045 L15.3962053,0.121912839 C15.3953916,0.121440194 15.3944615,0.121322129 15.3936476,0.120849677 C15.3586543,0.0976956774 15.3173829,0.0901350968 15.2792503,0.0737146452 C15.1886859,0.0344947742 15.0963773,0.0150029032 15.0003488,0.0153572903 C14.8874629,0.0150029032 14.7775994,0.0387474194 14.6735491,0.0932065161 C14.6521577,0.104429032 14.6273949,0.107146065 14.6069337,0.120613355 C14.6060036,0.121204065 14.6047248,0.121204065 14.6037947,0.121912839 L0.318080381,9.79933219 C0.298316571,9.81268123 0.287969714,9.83347258 0.269949714,9.84847529 C0.231584762,9.88025303 0.198567619,9.9141569 0.167410667,9.95314065 C0.138927619,9.9889349 0.114629714,10.0244926 0.0935872381,10.0644215 C0.0718470476,10.1052954 0.0556872381,10.1467599 0.0419689524,10.1918865 C0.0276693333,10.2391395 0.0184849524,10.285093 0.0137184762,10.3343543 C0.0113931429,10.3582173 0,10.3787723 0,10.4032258 L0,14.2741935 C0,14.2969932 0.010812,14.3162487 0.012788381,14.3385759 C0.0169737143,14.3880734 0.027088,14.4347357 0.041504,14.483052 C0.0553386667,14.5290056 0.0713820952,14.5712971 0.0934710476,14.6128796 C0.104283048,14.633671 0.106026857,14.656825 0.119047619,14.6767893 C0.130208381,14.6939185 0.149507048,14.7001796 0.161830286,14.7160094 C0.209844571,14.7779108 0.266461905,14.8278809 0.331682476,14.8712355 C0.358072952,14.8887192 0.379929333,14.9101012 0.40817981,14.9236864 C0.501767048,14.9695217 0.603492381,15 0.714285714,15 C0.845656571,15 0.961914095,14.9542827 1.06770838,14.8913181 C1.08119429,14.8834032 1.09747029,14.8869472 1.11049105,14.8780874 L15,5.46906503 L28.889509,14.8780872 C28.9025297,14.886947 28.9188059,14.8834032 28.9322916,14.8913179 C29.0380859,14.9542827 29.1543434,15 29.2857143,15 C29.3965076,15 29.498233,14.9695217 29.5918202,14.9236864 C29.6200707,14.9101012 29.6419272,14.8887192 29.6683175,14.8712355 C29.7335379,14.8278809 29.7901552,14.7779108 29.8381697,14.7160094 C29.850493,14.7001796 29.8697918,14.6939185 29.8809524,14.6767893 C29.8939731,14.656825 29.8957171,14.633671 29.906529,14.6128796 C29.9286179,14.5712969 29.9446613,14.5290054 29.958496,14.483052 C29.972912,14.4347357 29.9830263,14.3880734 29.9872116,14.3385759 C29.989188,14.3162487 30,14.2969932 30,14.2741935 L30,10.4032258 Z M15.3962053,3.99288058 C15.3958566,3.99264426 15.3953916,3.99264426 15.3950429,3.99240794 C15.3258695,3.94621819 15.2484421,3.91786645 15.1692709,3.89813826 C15.1132349,3.88419871 15.0575474,3.88467116 15.0003488,3.88490748 C14.9452427,3.88467116 14.891648,3.88278097 14.8373558,3.89565735 C14.7559756,3.91503116 14.6764556,3.94491871 14.6055385,3.99217181 C14.6049571,3.99252619 14.604376,3.99252619 14.6037947,3.99288058 L1.42857143,12.9180317 L1.42857143,10.7916457 L15,1.59809729 L28.5714286,10.7916457 L28.5714286,12.9180317 L15.3962053,3.99288058 Z M20.4761905,1.4516129 L22.8571429,1.4516129 L22.8571429,5.17609626 L20.4761905,3.56323239 L20.4761905,1.4516129 Z" id="Shape"></path>
        </g>
    </g>
</svg>