<?xml version="1.0" encoding="UTF-8"?>
<svg width="32px" height="32px" viewBox="0 0 32 32" version="1.1" xmlns="http://www.w3.org/2000/svg" xmlns:xlink="http://www.w3.org/1999/xlink">
    <title>4</title>
    <g id="4" stroke="none" stroke-width="1" fill="none" fill-rule="evenodd" stroke-opacity="0.85">
        <g id="iconfinder_2830642_construction_engineer_hard_hat_worker_icon" transform="translate(4.000000, 2.000000)" stroke="#000000" stroke-width="1.4">
            <path d="M10.3438257,24.539968 C11.4042421,24.969439 12.5957579,24.969439 13.6561743,24.539968" id="Path" stroke-linecap="round" stroke-linejoin="round"></path>
            <path d="M7.15513801,2.36459577 C4.91854722,3.52594384 2.6466247,5.56308499 2.35327845,9.0840191 C2.27703632,9.99806835 2.1533753,10.5864847 0.98231477,11.1434763 L0,11.1434763 L0,14.3164615 C0.20083293,14.3629154 1.86421308,14.1137948 3.52619855,14.6694202 C7.27693947,15.9236761 9.83012107,15.8585495 12.0002324,15.8585495 C14.5371429,15.8585495 16.7235254,15.9236761 20.4738015,14.6694202 C22.1362518,14.1133394 23.7991671,14.36246 24,14.3164615 L24,11.1434763 L23.0176852,11.1434763 C21.8470896,10.5860293 21.7229637,9.99761292 21.6471864,9.0840191 C21.2427312,4.22912871 17.0773075,2.19563101 14.4283584,1.38815252" id="Path" stroke-linecap="round" stroke-linejoin="round"></path>
            <polyline id="Path" stroke-linejoin="round" points="9.17137046 11.1074973 9.65020823 0 14.3493269 0 14.8281646 11.1074973"></polyline>
            <ellipse id="Oval" fill-opacity="0.85" fill="#000000" fill-rule="nonzero" cx="8.09375303" cy="18.5064231" rx="1" ry="1"></ellipse>
            <ellipse id="Oval" fill-opacity="0.85" fill="#000000" fill-rule="nonzero" cx="15.902063" cy="18.5064231" rx="1" ry="1"></ellipse>
            <path d="M2.14919128,14.509564 C2.14919128,14.509564 -0.56251816,17.8683648 3.06409685,20.1937936 L3.07014044,20.1874176 C3.07014044,20.1874176 4.48480387,29 11.9811719,29 C19.4770751,29 20.8926683,20.1874176 20.8926683,20.1874176 L20.898247,20.1937936 C24.5257918,17.8683648 21.8136174,14.509564 21.8136174,14.509564" id="Path" stroke-linecap="round" stroke-linejoin="round"></path>
        </g>
    </g>
</svg>