<?xml version="1.0" encoding="UTF-8"?>
<svg width="32px" height="32px" viewBox="0 0 32 32" version="1.1" xmlns="http://www.w3.org/2000/svg" xmlns:xlink="http://www.w3.org/1999/xlink">
    <title>7</title>
    <g id="7" stroke="none" stroke-width="1" fill="none" fill-rule="evenodd">
        <g id="iconfinder_1749122_protect_safe_secured_shield_icon" transform="translate(6.000000, 5.000000)" fill="#000000" fill-opacity="0.85" fill-rule="nonzero" stroke="#EAF7F7" stroke-width="0.1">
            <path d="M9.5,1.9363125 C12.2259038,4.0494375 15.6140411,4.39371875 17.5281281,4.39371875 C17.5346633,4.39371875 17.5411985,4.39371875 17.5484598,4.39371875 L17.5484598,12.9375 C17.5484598,16.7202812 12.1932279,20.1041563 9.49927387,21.4137188 C6.80386761,20.1084688 1.4522663,16.7325 1.4522663,12.9375 L1.4522663,4.39371875 C1.4588015,4.39371875 1.4653367,4.39371875 1.47259803,4.39371875 C3.38595888,4.39371875 6.77409616,4.0494375 9.5,1.9363125 M9.5,0 C7.04058702,2.55803125 3.46147673,2.95621875 1.47187189,2.95621875 C0.573645188,2.95621875 0,2.875 0,2.875 C0,2.875 0,7.0078125 0,12.9375 C0,18.8671875 9.5,23 9.5,23 C9.5,23 19,18.8671875 19,12.9375 C19,7.0078125 19,2.875 19,2.875 C19,2.875 18.4256287,2.95621875 17.527402,2.95621875 C15.5385233,2.95621875 11.959413,2.55803125 9.5,0 L9.5,0 Z" id="Shape"></path>
        </g>
        <polygon id="Path-47" stroke="#000000" stroke-width="0.2" fill="#000000" fill-rule="nonzero" opacity="0.85" points="11.7048933 16.2729066 11 17.0609034 14.0063669 20 20 12.7028372 19.217029 12 13.9248331 18.4431731"></polygon>
    </g>
</svg>