<?xml version="1.0" encoding="UTF-8"?>
<svg width="110px" height="90px" viewBox="0 0 110 90" version="1.1" xmlns="http://www.w3.org/2000/svg" xmlns:xlink="http://www.w3.org/1999/xlink">
    <title>intel</title>
    <g id="intel" stroke="none" stroke-width="1" fill="none" fill-rule="evenodd" fill-opacity="0.85">
        <g id="iconfinder_intel_294676" transform="translate(5.000000, 13.000000)" fill="#000000">
            <path d="M70.0811743,52.7869021 C69.1883547,53.1153206 68.3121007,53.3301958 67.428532,53.6763956 C66.1067287,54.1939815 63.4416085,54.9050194 61.9681334,55.219727 C60.0710532,55.6248407 58.2666971,56.1385704 56.2788289,56.5349007 C54.228786,56.9434421 52.4024859,57.163459 50.2739179,57.5355809 C48.305197,57.8800669 45.9744,57.9991802 43.8737999,58.1431445 C41.6800454,58.2935357 39.4032479,58.3897261 37.0292083,58.3897261 L36.5343926,58.3897261 C28.083156,58.3897261 20.0204573,57.0661974 14.3776224,54.2558947 C8.94992473,51.5524941 3.87612783,46.542023 3.87612783,38.515586 L3.87612783,37.7764837 C3.87612783,34.0006349 5.0408809,31.0997118 6.1359295,28.3652475 C6.61654612,27.1649025 7.52291935,25.6350678 8.2139402,24.6037523 C8.64572066,23.9593407 8.99639438,23.4903857 9.44968856,22.8778948 C9.85500714,22.3305306 10.486435,21.7407484 10.8035473,21.2694367 L10.8035473,18.641446 C9.4886284,19.5182998 8.10658671,21.2433004 6.99110007,22.4005846 C5.72544763,23.713616 4.78701895,25.1781097 3.74403356,26.7225122 C2.19569077,29.0145864 0,34.3485486 0,38.104688 L0,40.732893 C0,45.369314 1.84673815,49.4909342 3.72725285,52.2963095 C5.8558208,55.4725214 8.69176003,57.3515552 11.9416233,59.3916918 C14.5056291,61.0014352 19.6833373,62.7870636 23.1808235,63.4749643 C27.4923892,64.3226826 31.8437552,64.959596 37.0294234,64.959596 L39.5858994,64.959596 C55.5230517,64.959596 71.7153568,60.3516679 82.1409079,54.8585309 L82.1409079,47.3852424 C79.3200283,48.8715879 75.8468526,50.8341723 72.59032,51.8357095 C71.8977932,52.0490851 70.8064019,52.5197541 70.0811743,52.7869021 Z M98.5195219,18.5105499 C98.3641928,17.6514773 98.0515984,16.5548208 97.753203,15.8240736 C97.0081827,13.9996691 96.389448,12.7663323 95.2756825,11.3106221 C93.2159584,8.61729038 90.7623181,6.6709876 87.6942458,4.98112118 C82.0619526,1.87924799 73.4891634,0 64.7393164,0 L63.9970928,0 C54.968643,0 47.5016593,1.49512902 40.4440819,3.48235022 C38.5801327,4.00721998 37.0640605,4.54901412 35.3279029,5.12187197 C33.890571,5.59596862 31.7863135,6.38991448 30.4853786,7.03389755 C28.9432748,7.79720815 27.4052586,8.452974 25.8956405,9.19764637 C25.0959753,9.59247698 22.0253214,11.4631557 21.5249121,11.5794839 L21.5249121,13.5502092 C22.2053912,13.3925341 24.7117402,12.0137333 25.6751248,11.6056203 C27.0117725,11.0396179 28.6896279,10.1993978 30.0357417,9.78892823 C30.6460861,9.60276014 31.6548647,9.22249735 32.260476,8.96563251 C32.9956,8.65349568 33.7638551,8.46261447 34.5450185,8.20210768 C36.0339834,7.70508815 37.6985003,7.14422731 39.273305,6.7513248 C42.6658042,5.90424927 45.6551363,5.21656277 49.3662539,4.56508156 C52.5283412,4.01021924 56.9756584,3.4493584 60.5340285,3.4493584 L64.2451461,3.4493584 C71.4705306,3.4493584 79.292921,5.10151988 83.9271925,7.66588359 C86.7390364,9.22206888 88.6285868,10.531244 90.567834,12.9610697 C92.0294765,14.7923296 93.8519041,18.4449947 93.8519041,21.6809775 L93.8519041,23.077131 C93.8519041,26.4879276 92.0725039,30.1558032 90.5871964,32.1447383 C89.6864167,33.3506533 88.7940274,34.4252438 87.6884371,35.4173548 C87.1510242,35.8998065 84.6412331,37.8836 84.0375579,38.0234939 L84.0375579,43.4435776 C85.2001596,43.3476014 88.6982913,41.1045865 89.5973499,40.4393944 C91.2536916,39.2124846 92.7377083,37.8013347 94.0018548,36.2023029 C95.439617,34.3843254 96.2149717,33.0517989 97.2605387,30.8242088 C97.7340558,29.8160304 98.0077104,28.780216 98.3525754,27.6411414 C98.4924146,27.1788276 98.95539,23.9137092 98.9650712,23.8984987 L98.9650712,21.5168753 C98.936673,21.4725292 98.5810512,18.8518223 98.5195219,18.5105499 Z M72.4913569,35.0666561 L72.4913569,32.8491349 C72.4913569,30.2372116 71.5533585,27.7216929 70.4071072,26.2197084 C69.318943,24.7939908 67.1116348,23.1587537 64.6567036,23.1587537 L63.0898591,23.1587537 C60.4959492,23.1587537 58.1488018,24.7800656 56.882504,26.1753623 C55.5895291,27.6000088 54.5129823,30.3130499 54.5129823,33.0134513 L54.5129823,33.9991353 C54.5129823,39.6452343 57.9917516,43.7715676 63.6670723,43.7715676 L64.7391012,43.7715676 C66.4569722,43.7715676 67.6838999,43.3572418 68.9131941,42.8370852 C70.2519932,42.2704401 70.9326875,41.3057509 71.9350119,40.6289902 L68.6974115,37.6123816 C68.0597447,38.5607891 66.2930376,39.50127 64.6564885,39.50127 L63.7492547,39.50127 C61.6026153,39.50127 59.6259342,37.6839353 59.6259342,35.6414421 L59.6259342,35.0664419 L72.4913569,35.0664419 L72.4913569,35.0666561 Z M59.6261493,31.0425118 C59.6261493,29.1915425 61.4384655,27.3470001 63.3370518,27.3470001 L63.7494699,27.3470001 C65.9057905,27.3470001 67.378405,29.1679769 67.378405,31.2068281 L67.378405,31.6175119 L59.6261493,31.6175119 L59.6261493,31.0425118 Z M40.5753156,43.4431491 L40.5753156,29.3999907 C40.5753156,26.0678175 38.2980878,23.4869579 34.9673329,23.4869579 L24.0811729,23.4869579 L24.0811729,43.4429349 L29.1119424,43.4429349 L29.1119424,27.5931534 L33.647681,27.5931534 C34.6472087,27.5931534 35.4621486,28.3637479 35.4621486,29.3179397 L35.4621486,43.4431491 L40.5753156,43.4431491 L40.5753156,43.4431491 Z M44.2864331,17.9848232 L44.2864331,37.5301163 C44.2864331,40.9027794 46.488578,43.4431491 49.8120183,43.4431491 L53.2759431,43.4431491 L53.2759431,39.1726373 L50.7192521,39.1726373 C49.9619689,39.1726373 49.3998153,38.3000681 49.3998153,37.5301163 L49.3998153,27.5931534 L53.2759431,27.5931534 L53.2759431,23.4869579 L49.3998153,23.4869579 L49.3998153,17.9848232 L44.2864331,17.9848232 L44.2864331,17.9848232 Z M80.5736331,43.2790469 L80.5736331,15.1929445 L75.4604661,15.1929445 L75.4604661,38.5980656 C75.4604661,39.9612273 76.289605,41.1975634 77.0053667,41.9049593 C77.3898169,42.2845794 77.9969342,42.5980017 78.5599484,42.8208035 C79.3475659,43.1329403 79.7548207,43.0890227 80.5736331,43.2790469 Z M19.5454343,43.6895165 L19.5454343,23.4869579 L14.4511993,23.4876006 L14.3296468,28.1677251 L14.3496546,38.1051165 C14.3496546,41.4715669 16.3314989,43.6181771 19.5454343,43.6895165 Z M19.5454343,15.8495673 L14.4322673,15.8495673 L14.4322673,20.6950792 L19.5454343,20.6950792 L19.5454343,15.8495673 Z M85.5476063,17.4048956 L85.7560743,17.4048956 C85.881069,17.4048956 85.9763748,17.4297466 86.0413463,17.4805197 C86.1355764,17.5488599 86.2590652,17.719389 86.4126732,17.9906074 L86.6082329,18.3363788 L87.0428102,18.3363788 L86.7741038,17.907271 C86.6452365,17.7037501 86.5368074,17.5589288 86.4481708,17.4721647 C86.4017012,17.4271758 86.3384508,17.3881855 86.2610014,17.3560506 C86.4507525,17.3412686 86.6037151,17.2748565 86.7185983,17.1559574 C86.8334816,17.0368441 86.8907081,16.8975929 86.8907081,16.7371328 C86.8907081,16.6238037 86.8565013,16.5169017 86.7876574,16.4153555 C86.7185983,16.3146662 86.6267347,16.2437552 86.5109909,16.2032652 C86.3952471,16.1627753 86.2080776,16.1432801 85.9490524,16.1432801 L85.1921996,16.1432801 L85.1921996,18.3363788 L85.5476063,18.3363788 L85.5476063,17.4048956 Z M85.5476063,16.4402064 L85.951634,16.4402064 C86.1256801,16.4402064 86.2442207,16.4522035 86.308977,16.4781256 C86.3730879,16.5029766 86.4229998,16.5417527 86.4589277,16.5923115 C86.4950707,16.6439416 86.5137877,16.7019986 86.5137877,16.7664826 C86.5137877,16.8680288 86.4757084,16.949223 86.4006255,17.010065 C86.3255426,17.0709071 86.185058,17.1023993 85.9793868,17.1023993 L85.5476063,17.1023993 L85.5476063,16.4402064 L85.5476063,16.4402064 Z M85.0717227,18.9782195 C85.3959345,19.1579606 85.7356362,19.2475099 86.0903976,19.2475099 C86.4449438,19.2475099 86.7840001,19.1579606 87.1090725,18.9782195 C87.4332843,18.7993353 87.6862857,18.5473979 87.8657102,18.2228355 C88.0462103,17.8991301 88.1363528,17.5617139 88.1363528,17.2101582 C88.1363528,16.8553891 88.0444892,16.5139024 87.862268,16.1876262 C87.6796164,15.8602789 87.4242485,15.6094126 87.0970248,15.4333134 C86.7693707,15.2582854 86.4339718,15.1704501 86.0903976,15.1704501 C85.7466082,15.1704501 85.4105639,15.2580712 85.0837704,15.4333134 C84.7559012,15.6094126 84.500103,15.8602789 84.3168061,16.1876262 C84.133294,16.5139024 84.0418607,16.8553891 84.0418607,17.2101582 C84.0418607,17.5617139 84.1317881,17.8991301 84.3131488,18.2228355 C84.493864,18.5473979 84.7464352,18.7993353 85.0717227,18.9782195 Z M84.380917,17.2101582 C84.380917,16.9143031 84.4575058,16.6302307 84.611329,16.3572984 C84.7651521,16.0852231 84.9779229,15.8750609 85.2505017,15.7283116 C85.5226504,15.5815623 85.8021137,15.5078663 86.0903976,15.5078663 C86.3756696,15.5078663 86.655348,15.5817766 86.9285723,15.7283116 C87.2017966,15.8748467 87.4147825,16.0852231 87.5677451,16.3572984 C87.7204925,16.6302307 87.796436,16.9145173 87.796436,17.2101582 C87.796436,17.5034426 87.7213531,17.7849442 87.5714024,18.0540203 C87.4214517,18.3230964 87.2110475,18.5334727 86.9397594,18.683864 C86.6684714,18.834041 86.3851356,18.9098793 86.0906127,18.9098793 C85.7952293,18.9098793 85.5127541,18.834041 85.241466,18.683864 C84.9699628,18.5334727 84.7591283,18.3230964 84.6078868,18.0540203 C84.4566453,17.78473 84.380917,17.5034426 84.380917,17.2101582 Z" id="Shape"></path>
        </g>
    </g>
</svg>