<?xml version="1.0" encoding="UTF-8"?>
<svg width="84px" height="90px" viewBox="0 0 84 90" version="1.1" xmlns="http://www.w3.org/2000/svg" xmlns:xlink="http://www.w3.org/1999/xlink">
    <title>jio</title>
    <g id="jio" stroke="none" stroke-width="1" fill="none" fill-rule="evenodd" fill-opacity="0.85">
        <g id="Reliance_Jio_Logo_(October_2015)" transform="translate(5.000000, 8.000000)" fill="#000000" fill-rule="nonzero">
            <g id="Group" transform="translate(37.386805, 37.434343) scale(-1, 1) rotate(-180.000000) translate(-37.386805, -37.434343) ">
                <path d="M33.3371796,74.7445403 C33.0813138,74.6761092 32.6548708,74.6247858 32.399005,74.6162319 C32.1431392,74.6162319 31.7166963,74.5563547 31.4608305,74.4879236 C31.2049647,74.4194925 30.880868,74.3596153 30.7444063,74.3596153 C30.1303284,74.3596153 25.9170718,73.2476097 25.0044838,72.8541308 C24.8594932,72.7856997 24.6633295,72.7343763 24.569512,72.7343763 C24.4671657,72.7343763 24.3733482,72.7001608 24.3392328,72.6573913 C24.3136462,72.6146219 24.1686556,72.5461908 24.023665,72.5119752 C23.8701455,72.4863135 23.6910395,72.4264363 23.6142797,72.3922208 C23.5460489,72.3580052 23.3328274,72.2639124 23.1451925,72.1869274 C22.9575576,72.1013885 22.6931629,71.9816341 22.56523,71.913203 C22.4287683,71.8447718 22.2496622,71.7934485 22.1643736,71.7934485 C22.0876139,71.7934485 21.9682099,71.7335713 21.9085078,71.6651402 C21.8488058,71.5967091 21.7379307,71.5368318 21.6526421,71.5368318 C21.5673535,71.5368318 21.4564783,71.4769546 21.3967763,71.4085235 C21.3370743,71.3400924 21.2176702,71.2802152 21.1323816,71.2802152 C21.0556219,71.2802152 20.927689,71.2203379 20.8509293,71.1519068 C20.7826984,71.0834757 20.6718232,71.0235985 20.5950635,71.0235985 C20.5268326,71.0235985 20.4500729,70.9893829 20.4159574,70.9466135 C20.3903709,70.8952902 20.1686205,70.7669818 19.9212836,70.6386735 C19.6824755,70.518919 19.4180809,70.3906107 19.34985,70.3392874 C19.2816191,70.2965179 18.8807627,70.0655629 18.4543197,69.8175001 C18.0364056,69.5694373 17.6781935,69.3384823 17.6611358,69.2957129 C17.6440781,69.2614973 17.5929049,69.2272818 17.5417318,69.2272818 C17.4308566,69.2272818 15.8103733,68.1494917 15.5118632,67.8843212 C15.3924592,67.7731206 15.2730552,67.6875817 15.2389397,67.6875817 C15.1451223,67.6875817 14.368996,67.0888095 14.3348806,66.9947167 C14.3178229,66.9519472 14.249592,66.9177317 14.1813611,66.9177317 C14.1131303,66.9177317 14.0619571,66.8835161 14.0619571,66.8493006 C14.0619571,66.8065311 13.8913799,66.6525611 13.6866873,66.507145 C13.0640805,66.0537889 12.7229262,65.737295 11.034212,64.0521788 C9.15786289,62.1617693 8.68877562,61.6570899 8.68877562,61.5458893 C8.68877562,61.494566 8.66318904,61.4432426 8.62054474,61.4261349 C8.5864293,61.417581 8.40732325,61.2122876 8.21968834,60.9727787 C8.03205344,60.7418237 7.82736081,60.5108687 7.77618765,60.4766532 C7.71648563,60.4424376 7.66531248,60.3740065 7.66531248,60.3226831 C7.66531248,60.2799137 7.62266818,60.1943748 7.58002388,60.1344976 C7.34974468,59.869327 6.64184934,58.8770759 6.64184934,58.8343064 C6.64184934,58.8086448 6.57361846,58.7059981 6.48832987,58.6119053 C6.39451241,58.5263664 6.27510838,58.3381809 6.2068775,58.2098725 C6.14717549,58.0815642 5.99365601,57.8420553 5.87425198,57.6795314 C5.6183862,57.3202681 5.48192444,57.0978669 5.36252041,56.8669119 C5.31134725,56.7728191 5.20047208,56.5846336 5.10665463,56.4392175 C5.01283717,56.3023552 4.901962,56.0970619 4.8593177,55.9944152 C4.8166734,55.9003225 4.73138481,55.7891219 4.68874051,55.7549063 C4.63756735,55.7292447 4.59492306,55.626598 4.59492306,55.5325052 C4.59492306,55.4469663 4.56080762,55.3699813 4.50963446,55.3699813 C4.46699016,55.3699813 4.40728815,55.2758885 4.37317271,55.1561341 C4.34758613,55.0449335 4.2708264,54.9080713 4.20259552,54.8481941 C4.13436464,54.7968708 4.08319149,54.6856702 4.08319149,54.6001313 C4.08319149,54.5145924 4.02348947,54.4033918 3.95525859,54.3435146 C3.88702772,54.2836374 3.8273257,54.1809907 3.8273257,54.1125596 C3.8273257,54.0441285 3.76762368,53.9329279 3.69939281,53.8644968 C3.63116193,53.7875118 3.57145992,53.6592035 3.57145992,53.5822185 C3.57145992,53.4966796 3.5117579,53.3769252 3.44352702,53.3170479 C3.37529615,53.2571707 3.31559413,53.1203085 3.31559413,53.0091079 C3.31559413,52.8979074 3.28147869,52.8038146 3.23030554,52.8038146 C3.18766124,52.8038146 3.11943036,52.7011679 3.09384378,52.5728596 C3.05972835,52.4359973 2.98296861,52.2563657 2.92326659,52.1622729 C2.85503572,52.0681801 2.80386256,51.9142101 2.80386256,51.8115634 C2.80386256,51.7089168 2.76121826,51.6062701 2.71004511,51.5891623 C2.65887195,51.5720545 2.59916993,51.460854 2.59064107,51.3496534 C2.57358335,51.229899 2.50535248,51.0246056 2.42859274,50.8791895 C2.35183301,50.7423273 2.29213099,50.5712495 2.29213099,50.5113723 C2.29213099,50.4514951 2.25801555,50.3402945 2.21537126,50.2547556 C1.95950547,49.7671839 1.16632154,46.9700622 0.884869173,45.5757782 C0.808109438,45.1994071 0.688705405,44.669066 0.620474529,44.4038954 C0.552243653,44.130171 0.501070496,43.7623537 0.501070496,43.591276 C0.501070496,43.4116443 0.458426198,43.1293659 0.407253041,42.966842 C0.356079884,42.8043181 0.279320149,42.2483154 0.245204711,41.7265281 C0.202560413,41.2132948 0.125800678,40.5204297 0.0831563801,40.1868281 C-0.0277187934,39.4511936 -0.0277187934,35.4137579 0.0831563801,34.712339 C0.125800678,34.4300607 0.194031554,33.7799651 0.236675851,33.2581778 C0.279320149,32.7449445 0.356079884,32.2060495 0.407253041,32.0777411 C0.458426198,31.9408789 0.501070496,31.6671545 0.501070496,31.4533072 C0.501070496,31.23946 0.552243653,30.8288733 0.620474529,30.5380411 C0.688705405,30.2472089 0.808109438,29.69976 0.884869173,29.3233888 C1.14926382,28.0916288 1.78039942,25.8162943 2.01067863,25.2859531 C2.07038064,25.140537 2.1215538,24.9609054 2.1215538,24.8924742 C2.1215538,24.8240431 2.18125582,24.6529653 2.24948669,24.524657 C2.31771757,24.3877948 2.37741959,24.2081631 2.37741959,24.1311781 C2.37741959,24.0456392 2.42006388,23.9772081 2.46270818,23.9772081 C2.51388134,23.9772081 2.54799678,23.8660075 2.54799678,23.7291453 C2.54799678,23.5922831 2.60769879,23.4383131 2.67592967,23.3784359 C2.74416054,23.3185586 2.82092028,23.1474809 2.85503572,22.984957 C2.8806223,22.8224331 2.94032431,22.6941247 2.98296861,22.6941247 C3.02561291,22.6941247 3.05972835,22.600032 3.05972835,22.4888314 C3.05972835,22.3776308 3.11943036,22.2407686 3.18766124,22.1808914 C3.25589211,22.1210142 3.31559413,22.0012597 3.31559413,21.9157208 C3.31559413,21.8387358 3.37529615,21.7104275 3.44352702,21.6334425 C3.5117579,21.5650114 3.57145992,21.436703 3.57145992,21.3426102 C3.57145992,21.2485175 3.63116193,21.128763 3.69939281,21.0688858 C3.76762368,21.0090086 3.8273257,20.897808 3.8273257,20.8122691 C3.8273257,20.7267302 3.88702772,20.6155297 3.95525859,20.5556524 C4.02348947,20.4957752 4.08319149,20.3760208 4.08319149,20.281928 C4.08319149,20.1963891 4.1428935,20.1022963 4.21112438,20.0766346 C4.27935525,20.0424191 4.33905727,19.9568802 4.33905727,19.8713413 C4.33905727,19.7772485 4.38170157,19.6831557 4.43287473,19.6574941 C4.47551902,19.6232785 4.56080762,19.512078 4.60345192,19.4179852 C4.64609621,19.3153385 4.75697139,19.1185991 4.85078884,18.9731829 C4.9446063,18.8363207 5.05548147,18.6395813 5.09812577,18.5454885 C5.14077006,18.4513957 5.26870296,18.2375485 5.37957813,18.0750246 C5.4904533,17.9125007 5.60985734,17.7157612 5.64397278,17.6473301 C5.78043453,17.3736057 6.71008021,15.9451062 6.81242653,15.8510134 C6.83801311,15.8253517 7.00006144,15.5858428 7.18769634,15.3206723 C7.36680239,15.0469478 7.54590844,14.8245467 7.58855274,14.8245467 C7.63119704,14.8245467 7.66531248,14.7732234 7.66531248,14.7219 C7.66531248,14.6620228 7.79324537,14.4652834 7.94676484,14.2942056 C8.09175545,14.1231278 8.27939036,13.9007267 8.34762124,13.79808 C8.73141991,13.2420772 13.0214362,8.83682429 13.1834846,8.83682429 C13.2346577,8.83682429 13.2943597,8.77694707 13.3284752,8.70851595 C13.3540618,8.64008484 13.4308215,8.58020762 13.4990524,8.58020762 C13.5672833,8.58020762 13.6355141,8.54599206 13.6525718,8.50322261 C13.7122739,8.34069872 17.2688083,5.75742419 17.4393855,5.75742419 C17.4564432,5.75742419 17.6355492,5.64622363 17.831713,5.50080752 C18.0193479,5.36394529 18.2325694,5.24419084 18.3008003,5.24419084 C18.3605023,5.24419084 18.4116754,5.20997529 18.4116754,5.17575973 C18.4116754,5.14154417 18.6248969,5.00468195 18.8807627,4.86781972 C19.1366285,4.73951138 19.3669077,4.59409527 19.3924943,4.55132582 C19.4266097,4.50855638 19.5204272,4.47434082 19.6142446,4.47434082 C19.6995332,4.47434082 19.776293,4.44012526 19.776293,4.40590971 C19.776293,4.36314026 19.9895145,4.24338581 20.2453802,4.12363136 C20.501246,4.0124308 20.7144675,3.89267636 20.7144675,3.8584608 C20.7144675,3.81569135 20.7571118,3.79002969 20.808285,3.79002969 C20.9021024,3.79002969 21.9937964,3.29390411 22.445826,3.05439522 C22.5737589,2.9859641 22.7102206,2.94319466 22.7528649,2.96885633 C22.7955092,2.99451799 22.872269,2.96030244 22.931971,2.89187132 C22.991673,2.82344021 23.0769616,2.76356299 23.1366636,2.76356299 C23.2219522,2.76356299 23.7848569,2.55826965 24.4245214,2.29309908 C25.2262342,1.95949741 28.4416142,1.02712349 29.2859713,0.881707371 C29.5247794,0.847491814 29.8232895,0.770506812 29.9512224,0.719183477 C30.0876841,0.667860142 30.3776653,0.625090696 30.5994157,0.625090696 C30.821166,0.625090696 31.0429164,0.58232125 31.0940895,0.530997915 C31.1452627,0.47967458 31.5034748,0.419797356 31.8958023,0.394135689 C32.2881299,0.368474021 32.6889863,0.308596797 32.7742748,0.257273462 C32.9874963,0.146072903 35.7337891,-0.0078971019 37.3883878,0.000315295924 C39.2562081,0.00921067642 41.7125196,0.146072903 41.9257411,0.265827351 C42.0280874,0.325704575 42.3521841,0.368474021 42.6506942,0.368474021 C42.9492042,0.37702791 43.3415318,0.428351245 43.5291667,0.496782359 C43.7168016,0.565213472 44.0323694,0.625090696 44.237062,0.625090696 C44.4332258,0.625090696 44.7402647,0.68496792 44.9108419,0.753399033 C45.0728903,0.821830147 45.3116983,0.881707371 45.4311023,0.881707371 C45.5505064,0.881707371 45.8404876,0.933030706 46.0792957,1.00146182 C46.3181037,1.06989293 47.0174702,1.26663238 47.6230192,1.44626406 C49.0217522,1.83974296 50.1987348,2.22466797 50.4972449,2.38719186 C50.6166489,2.45562298 50.7872261,2.50694631 50.8810436,2.50694631 C50.9663322,2.50694631 51.1113228,2.56682354 51.1966114,2.63525465 C51.2904288,2.70368576 51.4439483,2.76356299 51.5377658,2.76356299 C51.6401121,2.76356299 51.7936315,2.82344021 51.8789201,2.89187132 C51.9727376,2.96030244 52.1177282,3.02017966 52.2030168,3.02017966 C52.2883054,3.02017966 52.3565363,3.06294911 52.3565363,3.10571855 C52.3565363,3.15704189 52.3991806,3.19125744 52.4503537,3.19125744 C52.5953443,3.19125744 54.9066653,4.26904748 55.0004827,4.38024804 C55.0260693,4.40590971 55.2137042,4.51711026 55.4269257,4.62831082 C55.6401472,4.73951138 55.9301284,4.90203528 56.0665901,4.98757417 C56.2115808,5.08166695 56.3992157,5.19286751 56.4930331,5.24419084 C56.5868506,5.29551418 56.7830143,5.40671474 56.9194761,5.50080752 C57.0644667,5.5949003 57.2606305,5.71465475 57.3715057,5.76597808 C57.473852,5.82585531 57.5591406,5.90284031 57.5591406,5.94560975 C57.5591406,5.97982531 57.593256,6.01404087 57.6444292,6.01404087 C57.7211889,6.01404087 58.1646896,6.3048731 59.2649125,7.08327701 C60.2201447,7.75048037 60.6721743,8.09263593 60.7574629,8.1952826 C60.808636,8.24660594 61.0133287,8.42623761 61.2265501,8.5887615 C61.8576857,9.07633319 62.0367918,9.23885708 63.7340348,10.9496349 C65.7639034,12.9854605 66.0880001,13.33617 66.0880001,13.4388167 C66.0880001,13.49014 66.1135866,13.5414633 66.1562309,13.5585711 C66.2074041,13.5756789 66.4206256,13.8408494 66.9664726,14.5251606 C67.000588,14.56793 67.2820404,14.9614089 67.5805505,15.3805495 C67.8790606,15.808244 68.2458015,16.3129234 68.3822633,16.5096629 C68.5272539,16.7064023 68.6466579,16.9116957 68.6466579,16.963019 C68.6466579,17.0057884 68.6807734,17.0485579 68.7319465,17.0485579 C68.7745908,17.0485579 68.8342928,17.1426507 68.8684083,17.2624051 C68.8939948,17.3821596 68.9536969,17.4762523 68.9963412,17.4762523 C69.0389854,17.4762523 69.1157452,17.5617912 69.1583895,17.6729918 C69.2095626,17.7756385 69.3204378,17.9809318 69.4142553,18.117794 C69.5080727,18.2632101 69.6189479,18.4599496 69.6615922,18.5625963 C69.7042365,18.656689 69.7895251,18.7678896 69.8321694,18.8021052 C69.8833425,18.8277668 69.9259868,18.9218596 69.9259868,19.0159524 C69.9259868,19.1014913 69.9856889,19.1870302 70.0539197,19.2212457 C70.1221506,19.2469074 70.1818526,19.3410002 70.1818526,19.435093 C70.1818526,19.5206319 70.2415546,19.6147246 70.3097855,19.6489402 C70.3780164,19.6746019 70.4377184,19.7686946 70.4377184,19.8542335 C70.4377184,19.9483263 70.4974204,20.0680808 70.5656513,20.127958 C70.6338822,20.1878352 70.6935842,20.2990358 70.6935842,20.3845747 C70.6935842,20.4701135 70.7532862,20.5813141 70.8215171,20.6411913 C70.889748,20.7010686 70.94945,20.7866074 70.94945,20.8379308 C70.94945,20.8892541 71.068854,21.1800863 71.2138446,21.4880264 C71.4867681,22.0782447 71.5123547,22.129568 71.8023359,22.8224331 C71.9046822,23.061942 72.0155574,23.3271125 72.0582017,23.4212053 C72.3055386,24.0199776 73.0390206,26.2354348 73.3887038,27.4415332 C73.4654635,27.7238116 73.5848676,28.1258443 73.6445696,28.3311377 C73.7128005,28.5449849 73.7639736,28.8187094 73.7639736,28.9470177 C73.7639736,29.0667722 73.8236756,29.3148349 73.8919065,29.4773588 C73.9601374,29.6484366 74.0198394,29.9563766 74.0198394,30.1702239 C74.0198394,30.3755172 74.0795414,30.6577955 74.1477723,30.7861039 C74.2160032,30.93152 74.2757052,31.2565678 74.2757052,31.5559539 C74.2757052,31.8382322 74.3183495,32.1119567 74.3695226,32.16328 C74.4206958,32.2146034 74.4974555,32.7534984 74.5400998,33.3608245 C74.5827441,33.9595968 74.650975,34.6695696 74.6936193,34.9261862 C74.8044945,35.5420663 74.7959656,39.4597475 74.6936193,40.0585197 C74.6424461,40.3151364 74.5827441,40.9908936 74.5400998,41.5554503 C74.5059844,42.120007 74.4292247,42.6674559 74.3780515,42.7701026 C74.3183495,42.8727493 74.2757052,43.1721354 74.2757052,43.4373059 C74.2757052,43.6939226 74.2160032,44.053186 74.1477723,44.2242637 C74.0795414,44.3867876 74.0198394,44.6776199 74.0198394,44.8658054 C74.0198394,45.0454371 73.9601374,45.3362693 73.8919065,45.5073471 C73.8236756,45.669871 73.7639736,45.9093799 73.7639736,46.0205805 C73.7639736,46.1403349 73.7042716,46.4140594 73.6445696,46.6364605 C73.5763387,46.8503077 73.4569347,47.2437866 73.3887038,47.5004033 C72.8428568,49.4335822 71.9132111,52.0596262 71.5038258,52.8209224 C71.435595,52.9406768 71.375893,53.1032007 71.375893,53.1801857 C71.375893,53.2571707 71.3417775,53.3170479 71.2906044,53.3170479 C71.2479601,53.3170479 71.2053158,53.3940329 71.2053158,53.4795718 C71.2053158,53.5736646 71.1541426,53.7019729 71.0944406,53.7618502 C71.0262097,53.8217274 70.94945,53.9842513 70.9153345,54.1125596 C70.889748,54.240868 70.8215171,54.3435146 70.7788728,54.3435146 C70.7276996,54.3435146 70.6935842,54.4204996 70.6935842,54.5060385 C70.6935842,54.6001313 70.6338822,54.7284396 70.5656513,54.8054246 C70.4974204,54.8738558 70.4377184,54.9850563 70.4377184,55.0449335 C70.4377184,55.1133647 70.3950741,55.2074574 70.343901,55.2587808 C70.2244969,55.3785352 70.0453909,55.6864752 69.917458,55.9944152 C69.8662848,56.1227236 69.7895251,56.2253702 69.7468808,56.2253702 C69.7042365,56.2253702 69.6701211,56.3023552 69.6701211,56.396448 C69.6701211,56.4905408 69.6189479,56.5931875 69.550717,56.6188491 C69.4824861,56.6445108 69.4057264,56.7300497 69.3801398,56.8070347 C69.3545533,56.8840197 69.2522069,57.0722053 69.1583895,57.2090675 C69.064572,57.3544836 68.945168,57.5512231 68.8939948,57.6624236 C68.8342928,57.7650703 68.7575331,57.8506092 68.7148888,57.8506092 C68.6807734,57.8506092 68.6466579,57.9019325 68.6466579,57.9618097 C68.6466579,58.0131331 68.399321,58.4151659 68.092282,58.8343064 C67.793772,59.2620009 67.4952619,59.6725876 67.4355599,59.7581265 C67.3246847,59.9120965 67.1285209,60.177267 66.940886,60.3911143 C66.8982417,60.4509915 66.8555974,60.5365304 66.8555974,60.5792998 C66.8555974,60.6306232 66.8044243,60.6990543 66.7532511,60.7332698 C66.6935491,60.7674854 66.4888565,60.9984404 66.3012215,61.2293954 C66.1135866,61.4689043 65.9344806,61.6741976 65.9003652,61.6827515 C65.8577209,61.6998593 65.8321343,61.7511826 65.8321343,61.802506 C65.8321343,61.8452754 65.6700859,62.0591226 65.4739222,62.2729699 C64.697796,63.0855893 62.3608885,65.4036933 62.0026764,65.7030794 C61.8065126,65.8741572 61.4397716,66.1906511 61.1924347,66.3873906 C60.9536266,66.5926839 60.6551166,66.8578545 60.5271837,66.969055 C60.4077796,67.0802556 60.2798467,67.1743484 60.2542602,67.1743484 C60.2286736,67.1743484 59.8960481,67.3967495 59.5293071,67.6704739 C58.5826037,68.3547851 57.8832372,68.825249 57.1326976,69.2957129 C56.7744855,69.518114 56.4162734,69.749069 56.3224559,69.8089462 C56.2286385,69.8602696 56.075119,69.9543623 55.9813016,69.9971318 C55.8874841,70.0484551 55.6998492,70.1596557 55.5548586,70.2537485 C55.4183968,70.3392874 54.9919539,70.5787963 54.616684,70.7669818 C54.2414142,70.9637213 53.8746733,71.1519068 53.8064424,71.1861224 C53.286182,71.4684007 53.1241336,71.5368318 53.0047296,71.5368318 C52.9279699,71.5368318 52.8682678,71.5710474 52.8682678,71.6223707 C52.8682678,71.6651402 52.7659215,71.7335713 52.6379886,71.759233 C52.5015269,71.7934485 52.3650651,71.8447718 52.313892,71.8789874 C52.2712477,71.913203 52.1177282,71.9645263 51.9727376,71.9987419 C51.8362758,72.0329574 51.6912852,72.1013885 51.6656986,72.144158 C51.6401121,72.1954813 51.5121792,72.2382508 51.3842463,72.2553585 C51.2563134,72.2639124 51.1113228,72.3237896 51.0601496,72.375113 C51.0004476,72.4349902 50.9066301,72.4777596 50.8383993,72.4777596 C50.7701684,72.4777596 50.5995912,72.529083 50.4546006,72.5975141 C50.3010811,72.6659452 50.1049174,72.7343763 50.0110999,72.760038 C49.9172824,72.7856997 49.5761281,72.9054541 49.2435025,73.0166547 C47.2562783,73.7180736 44.0494271,74.453708 42.2924821,74.6247858 C41.8916257,74.6590014 41.3969518,74.7274325 41.1837303,74.7787558 C40.5696524,74.9156181 33.917142,74.8899564 33.3371796,74.7445403 Z M37.1666375,57.1577442 C37.806302,56.9524508 38.1730429,56.781373 38.590957,56.473433 C39.2988524,55.9516458 39.6911799,55.395643 39.9555745,54.5231463 C40.1176229,53.9842513 40.109094,52.2050423 39.9470457,51.6661473 C39.5888336,50.4857106 38.6933033,49.5447828 37.4736764,49.0828728 C37.1069355,48.9460106 36.8169543,48.9203489 35.4267502,48.9203489 L33.8062668,48.9203489 L33.1666024,49.2282889 C32.7231017,49.4335822 32.3819473,49.6730911 32.0749084,49.9981389 C31.6314077,50.4514951 31.5461191,50.5712495 31.2561379,51.1358062 C30.701762,52.1964884 30.7444063,54.1211135 31.3499553,55.2844424 C31.5972922,55.7634602 32.6719285,56.8241425 32.9022077,56.8241425 C32.9789675,56.8241425 33.0898427,56.8669119 33.1324869,56.9096814 C33.1836601,56.9610047 33.4139393,57.0550975 33.6442185,57.1149747 C34.1815367,57.2603908 36.7401945,57.2946064 37.1666375,57.1577442 Z M24.9106664,53.7875118 C25.9938315,53.616434 26.9149484,53.1374163 27.5546128,52.4188896 C28.0578155,51.8543329 28.1431041,51.7345784 28.3648545,51.2726684 L28.6036626,50.7936506 L28.6292491,42.4108392 C28.637778,36.6369641 28.6207203,33.8398423 28.5524894,33.4292556 C28.3392679,32.0349717 28.1004598,31.0170589 27.9554692,30.8716428 C27.9128249,30.8203194 27.8787095,30.7091189 27.8787095,30.62358 C27.8787095,30.5380411 27.8275363,30.3584094 27.7593055,30.238655 C27.6996034,30.1103466 27.5034397,29.7168677 27.3328625,29.3661583 C26.940535,28.5706466 26.9234772,28.5278771 26.3264571,27.7409193 C25.3029939,26.3551893 23.6142797,25.0892137 22.079085,24.5332109 C20.3647843,23.9258848 19.6057158,23.7804687 17.5587895,23.6692681 C14.3348806,23.4896364 10.7868751,24.5417648 9.00434342,26.1926654 C7.22181178,27.8521199 6.73566679,29.6484366 7.58002388,31.470415 C7.73354335,31.7954628 7.88706282,32.0777411 7.92970712,32.086295 C7.97235142,32.1034028 8.00646686,32.1547261 8.00646686,32.2060495 C8.00646686,32.3343578 8.87641053,33.3950401 9.39667096,33.9168273 C10.2324992,34.7294468 10.3689609,34.7465546 10.8721636,34.0536895 C11.460655,33.249624 12.6376376,32.4284506 13.7208027,32.0691873 C13.9340242,32.0007561 14.4201692,31.8981095 14.8124967,31.8382322 C15.4265746,31.7441395 15.6312673,31.7441395 16.2624029,31.8638939 C17.3796834,32.0777411 17.6270204,32.1889417 18.1558097,32.702175 C18.8125318,33.3437167 18.9916379,33.7714112 19.0939842,35.0031712 C19.1366285,35.5506201 19.1878017,39.3228853 19.2219171,43.3945365 C19.2730903,51.7174707 19.2219171,51.1700217 19.9298124,52.076734 C20.5865346,52.923569 21.7123441,53.5480029 23.0172596,53.7875118 C23.7763281,53.9329279 24.0577804,53.9329279 24.9106664,53.7875118 Z M56.0665901,47.3464333 C56.3992157,47.3036638 56.8000721,47.2266788 56.9621204,47.1839094 C57.1241687,47.1325861 57.4909097,47.0213855 57.772362,46.9444005 C60.808636,46.0804577 63.6402174,43.7195843 64.9707195,40.9566781 C65.1327678,40.6316303 65.3118738,40.2552592 65.3715759,40.1269508 C65.4398067,40.0071964 65.4909799,39.8275647 65.4909799,39.7420258 C65.4909799,39.6564869 65.5250953,39.5452864 65.5762685,39.493963 C65.6189128,39.4511936 65.6956725,39.2373464 65.7383168,39.032053 C65.78949,38.8182058 65.8662497,38.4760502 65.9174229,38.262203 C66.1562309,37.3127213 66.1903464,37.0475507 66.2329907,36.0381918 C66.2585773,35.3709885 66.2415195,34.7380007 66.1732887,34.3701834 C66.1221155,34.0451356 66.0453558,33.5746717 66.0027115,33.326609 C65.968596,33.0871001 65.8918363,32.7620523 65.8406631,32.5995284 C65.3971624,31.2223522 65.2265853,30.77755 64.876902,30.0932389 C64.1093047,28.5963083 62.5655811,26.919746 60.8939246,25.7649709 C60.3139622,25.3629381 58.804354,24.5759803 58.6081903,24.5759803 C58.5484883,24.5759803 58.3779111,24.524657 58.2243916,24.4562259 C57.8917661,24.3108098 57.1753419,24.1226242 56.2542251,23.9429925 C55.3501659,23.754807 52.859739,23.754807 51.9556799,23.9429925 C50.3778409,24.2594864 49.456724,24.5674265 48.3479723,25.1661987 C46.2584017,26.2782043 44.1944177,28.382461 43.2221277,30.392625 C42.6677519,31.5388461 42.5483478,31.8296784 42.5483478,32.0264178 C42.5483478,32.1205106 42.5057035,32.2830345 42.4460015,32.3856812 C42.3948284,32.4883278 42.3180686,32.7706062 42.2754243,33.0015612 C42.2413089,33.2410701 42.173078,33.6003334 42.1304337,33.8141806 C41.9854431,34.4557223 42.0195585,37.0133352 42.173078,37.7489697 C42.3351264,38.5530352 42.5312901,39.2459003 42.6848096,39.6137175 C42.7530405,39.7676875 42.8042136,39.9302114 42.8042136,39.9729808 C42.8042136,40.1098431 43.3756472,41.2817259 43.6059264,41.6238814 C43.7253304,41.8035131 43.8276768,41.9745909 43.8276768,42.0002526 C43.8276768,42.0259142 44.117658,42.4108392 44.4758701,42.8470876 C46.1304688,44.900021 48.1688662,46.3028588 50.3948986,46.9272927 C50.6507644,47.0042777 51.0686785,47.1240322 51.3245443,47.1924633 C51.5718812,47.2694483 51.9556799,47.3378794 52.1774302,47.3378794 C52.3906517,47.3464333 52.6891618,47.3806488 52.8256235,47.4148644 C53.1326625,47.5004033 55.2222331,47.4576339 56.0665901,47.3464333 Z M37.0898778,46.8759694 C38.4374376,46.5680294 39.5376604,45.5330088 39.9555745,44.1729404 C40.049392,43.8478926 40.0749907,42.3851776 40.0749907,35.6532668 C40.0749907,26.9710693 40.0835074,27.1335932 39.6485356,26.2867582 C39.4353141,25.8676176 38.6250725,24.9780131 38.2924469,24.7898276 C37.3713301,24.293702 36.7913677,24.1996092 35.0429515,24.2594864 C33.5333433,24.3108098 33.2348333,24.3963487 32.4672359,24.9780131 C31.7252251,25.5425698 31.1793781,26.3894048 30.9576278,27.3388865 C30.8893969,27.6211649 30.8638002,30.084685 30.8638002,35.6104974 C30.8638002,44.130171 30.8552815,43.9334315 31.3328976,44.8914671 C31.5717057,45.3790388 32.0237352,45.900826 32.5269379,46.2686433 C33.2604198,46.8160922 33.8830266,46.9700622 35.4267502,46.9700622 C36.0834723,46.9786161 36.834012,46.9272927 37.0898778,46.8759694 Z" id="Shape"></path>
                <path d="M53.2520665,40.272367 C52.6465175,40.1355047 52.1347859,39.9558731 51.9983242,39.8190108 C51.9386221,39.7591336 51.8448047,39.7163642 51.7851027,39.7163642 C51.6315832,39.7163642 50.5057738,38.6043586 50.3948986,38.339188 C50.3522543,38.2279874 50.2754945,38.0740174 50.2328502,38.0055863 C49.704061,37.1416435 49.5249549,35.4736351 49.8319939,34.327414 C50.2925523,32.6080823 51.2819,31.5901695 52.9962007,31.0598283 C54.2925874,30.6663494 55.9983593,31.0598283 57.0132936,32.0007561 C57.8661795,32.7877139 58.3267379,33.711534 58.5143728,34.9946173 C58.5996614,35.5933896 58.5996614,35.8328985 58.4802574,36.5001018 C58.2926225,37.6121074 57.9344104,38.3220802 57.1753419,39.0748225 C56.4845043,39.7676875 55.8277821,40.1269508 54.9578384,40.2809208 C54.2243565,40.4177831 53.9087887,40.4177831 53.2520665,40.272367 Z" id="Path"></path>
            </g>
        </g>
    </g>
</svg>