<?xml version="1.0" encoding="UTF-8"?>
<svg width="32px" height="32px" viewBox="0 0 32 32" version="1.1" xmlns="http://www.w3.org/2000/svg" xmlns:xlink="http://www.w3.org/1999/xlink">
    <title>6</title>
    <g id="6" stroke="none" stroke-width="1" fill="none" fill-rule="evenodd" fill-opacity="0.85">
        <g id="iconfinder_2824269_lock_secure_security_icon" transform="translate(6.000000, 4.000000)" fill="#000000" fill-rule="nonzero" stroke="#EAF7F7" stroke-width="0.2">
            <path d="M16.625,10.9375 L15.8333333,10.9375 L15.8333333,6.25 C15.8333333,2.8125 12.9833333,0 9.5,0 C6.01666667,0 3.16666667,2.8125 3.16666667,6.25 L3.16666667,10.9375 L2.375,10.9375 C1.10833333,10.9375 0,12.03125 0,13.28125 L0,22.65625 C0,23.90625 1.10833333,25 2.375,25 L16.625,25 C17.8916667,25 19,23.90625 19,22.65625 L19,13.28125 C19,12.03125 17.8916667,10.9375 16.625,10.9375 Z M4.75,6.25 C4.75,3.59375 6.80833333,1.5625 9.5,1.5625 C12.1916667,1.5625 14.25,3.59375 14.25,6.25 L14.25,10.9375 L4.75,10.9375 L4.75,6.25 Z M17.4166667,22.65625 C17.4166667,23.125 17.1,23.4375 16.625,23.4375 L2.375,23.4375 C1.9,23.4375 1.58333333,23.125 1.58333333,22.65625 L1.58333333,13.28125 C1.58333333,12.8125 1.9,12.5 2.375,12.5 L16.625,12.5 C17.1,12.5 17.4166667,12.8125 17.4166667,13.28125 L17.4166667,22.65625 Z" id="Shape"></path>
        </g>
    </g>
</svg>