<?xml version="1.0" encoding="UTF-8"?>
<svg width="24px" height="24px" viewBox="0 0 24 24" version="1.1" xmlns="http://www.w3.org/2000/svg" xmlns:xlink="http://www.w3.org/1999/xlink">
    <title>6</title>
    <g id="6" stroke="none" stroke-width="1" fill="none" fill-rule="evenodd">
        <rect id="Rectangle" stroke="#979797" fill="#D8D8D8" opacity="0" x="0.5" y="0.5" width="23" height="23"></rect>
        <g id="iconfinder_contact_book_notebook_user_info_address_4925208" opacity="0.85" transform="translate(3.000000, 1.000000)" fill="#000000" fill-rule="nonzero" stroke="#000000" stroke-width="0.3">
            <path d="M16.2,0 L2.7,0 C1.70629873,0.00101058802 0.900992214,0.821230187 0.9,1.83333333 L0.9,3.66666667 L0.45,3.66666667 C0.201471863,3.66666667 0,3.87186949 0,4.125 C0,4.37813051 0.201471863,4.58333333 0.45,4.58333333 L0.9,4.58333333 L0.9,8.25 L0.45,8.25 C0.201471863,8.25 0,8.45520282 0,8.70833333 C0,8.96146384 0.201471863,9.16666667 0.45,9.16666667 L0.9,9.16666667 L0.9,12.8333333 L0.45,12.8333333 C0.201471863,12.8333333 0,13.0385362 0,13.2916667 C0,13.5447972 0.201471863,13.75 0.45,13.75 L0.9,13.75 L0.9,17.4166667 L0.45,17.4166667 C0.201471863,17.4166667 0,17.6218695 0,17.875 C0,18.1281305 0.201471863,18.3333333 0.45,18.3333333 L0.9,18.3333333 L0.9,20.1666667 C0.900992214,21.1787698 1.70629873,21.9989894 2.7,22 L16.2,22 C17.1937013,21.9989894 17.9990078,21.1787698 18,20.1666667 L18,1.83333333 C17.9990078,0.821230187 17.1937013,0.00101058802 16.2,0 Z M17.1,20.1666667 C17.0993554,20.6726555 16.696789,21.0826768 16.2,21.0833333 L2.7,21.0833333 C2.20321096,21.0826768 1.80064457,20.6726555 1.8,20.1666667 L1.8,18.3333333 L2.25,18.3333333 C2.49852814,18.3333333 2.7,18.1281305 2.7,17.875 C2.7,17.6218695 2.49852814,17.4166667 2.25,17.4166667 L1.8,17.4166667 L1.8,13.75 L2.25,13.75 C2.49852814,13.75 2.7,13.5447972 2.7,13.2916667 C2.7,13.0385362 2.49852814,12.8333333 2.25,12.8333333 L1.8,12.8333333 L1.8,9.16666667 L2.25,9.16666667 C2.49852814,9.16666667 2.7,8.96146384 2.7,8.70833333 C2.7,8.45520282 2.49852814,8.25 2.25,8.25 L1.8,8.25 L1.8,4.58333333 L2.25,4.58333333 C2.49852814,4.58333333 2.7,4.37813051 2.7,4.125 C2.7,3.87186949 2.49852814,3.66666667 2.25,3.66666667 L1.8,3.66666667 L1.8,1.83333333 C1.80064457,1.3273445 2.20321096,0.917323173 2.7,0.916666667 L16.2,0.916666667 C16.696789,0.917323173 17.0993554,1.3273445 17.1,1.83333333 L17.1,20.1666667 Z" id="Shape"></path>
            <path d="M9.9,11 C11.3911688,11 12.6,9.76878306 12.6,8.25 C12.6,6.73121694 11.3911688,5.5 9.9,5.5 C8.40883118,5.5 7.2,6.73121694 7.2,8.25 C7.20162694,9.76809615 8.4095056,10.9983429 9.9,11 Z M9.9,6.41666667 C10.8941125,6.41666667 11.7,7.23747796 11.7,8.25 C11.7,9.26252204 10.8941125,10.0833333 9.9,10.0833333 C8.90588745,10.0833333 8.1,9.26252204 8.1,8.25 C8.10099221,7.23789685 8.90629873,6.41767725 9.9,6.41666667 Z" id="Shape"></path>
            <path d="M13.665231,12.734865 C11.422963,11.0644509 8.37703697,11.0644509 6.134769,12.734865 C5.67495462,13.0853345 5.40298516,13.6350373 5.39999992,14.219975 L5.39999992,16.0416667 C5.39999992,16.1632458 5.44731903,16.2798657 5.53172543,16.3658352 C5.61613182,16.4518047 5.73063135,16.5000706 5.85,16.5000001 L13.95,16.5000001 C14.0693686,16.5000706 14.1838682,16.4518047 14.2682746,16.3658352 C14.352681,16.2798657 14.3999999,16.1632458 14.3999999,16.0416667 L14.3999999,14.219975 C14.3970148,13.6350373 14.1250454,13.0853345 13.665231,12.734865 L13.665231,12.734865 Z M13.5,15.5833333 L6.3,15.5833333 L6.3,14.219975 C6.30215138,13.9236478 6.44078453,13.645544 6.6744,13.4689133 C8.59517935,12.0375034 11.2048207,12.0375034 13.1256,13.4689133 C13.3592155,13.645544 13.4978486,13.9236478 13.5,14.219975 L13.5,15.5833333 Z" id="Shape"></path>
        </g>
    </g>
</svg>