<?xml version="1.0" encoding="UTF-8"?>
<svg width="24px" height="24px" viewBox="0 0 24 24" version="1.1" xmlns="http://www.w3.org/2000/svg" xmlns:xlink="http://www.w3.org/1999/xlink">
    <title>3</title>
    <g id="3" stroke="none" stroke-width="1" fill="none" fill-rule="evenodd">
        <rect id="Rectangle" stroke="#979797" fill="#D8D8D8" opacity="0" x="0.5" y="0.5" width="23" height="23"></rect>
        <g id="iconfinder_Instagram_3709561" opacity="0.85" transform="translate(2.000000, 2.000000)" fill="#000000" fill-rule="nonzero">
            <path d="M15,0.8 C17.3186819,0.80220512 19.1977949,2.68131806 19.2,5 L19.2,15 C19.1977949,17.3186819 17.3186819,19.1977949 15,19.2 L5,19.2 C2.68131806,19.1977949 0.80220512,17.3186819 0.8,15 L0.8,5 C0.80220512,2.68131806 2.68131806,0.80220512 5,0.8 L15,0.8 M15,0 L5,0 C2.23857625,0 0,2.23857625 0,5 L0,15 C0,17.7614237 2.23857625,20 5,20 L15,20 C16.3260824,20 17.597852,19.4732158 18.5355339,18.5355339 C19.4732158,17.597852 20,16.3260824 20,15 L20,5 C20,3.67391755 19.4732158,2.40214799 18.5355339,1.46446609 C17.597852,0.526784202 16.3260824,0 15,0 Z" id="Shape" stroke="#000000" stroke-width="0.4"></path>
            <path d="M10,6 C12.209139,6 14,7.790861 14,10 C14,12.209139 12.209139,14 10,14 C7.790861,14 6,12.209139 6,10 C6,7.790861 7.790861,6 10,6 M10,5.2 C7.3490332,5.2 5.2,7.3490332 5.2,10 C5.2,12.6509668 7.3490332,14.8 10,14.8 C12.6509668,14.8 14.8,12.6509668 14.8,10 C14.8,7.3490332 12.6509668,5.2 10,5.2 Z" id="Shape" stroke="#000000" stroke-width="0.4"></path>
            <path d="M15.6,3.2 C16.0418278,3.2 16.4,3.5581722 16.4,4 C16.4,4.4418278 16.0418278,4.8 15.6,4.8 C15.1581722,4.8 14.8,4.4418278 14.8,4 C14.8,3.5581722 15.1581722,3.2 15.6,3.2" id="Shape"></path>
        </g>
    </g>
</svg>