<?xml version="1.0" encoding="UTF-8"?>
<svg width="50px" height="50px" viewBox="0 0 50 50" version="1.1" xmlns="http://www.w3.org/2000/svg" xmlns:xlink="http://www.w3.org/1999/xlink">
    <title>aerospace</title>
    <g id="aerospace" stroke="none" stroke-width="1" fill="none" fill-rule="evenodd">
        <rect id="Rectangle" stroke="#979797" fill="#D8D8D8" opacity="0" x="1.5" y="0.5" width="49" height="49"></rect>
        <g id="iconfinder_rocket_school_science_education_2818863" transform="translate(1.000000, 5.000000)" stroke="#000000" stroke-opacity="0.85" stroke-width="2">
            <g id="Group" transform="translate(2.638150, 27.032976)" stroke-linecap="round" stroke-linejoin="round">
                <line x1="4.18500265" y1="0" x2="1.06078192" y2="3.12152962" id="Path"></line>
                <line x1="7.25836397" y1="3.07358432" x2="-2.58127017e-15" y2="10.3293064" id="Path"></line>
                <line x1="10.3317253" y1="6.14571576" x2="7.0636451" y2="9.41398706" id="Path"></line>
            </g>
            <ellipse id="Oval" cx="26.7396966" cy="13.2639571" rx="3.98156502" ry="3.98091281"></ellipse>
            <line x1="29.4948234" y1="1.86169298" x2="38.1438288" y2="10.5092817" id="Path" stroke-linejoin="round"></line>
            <path d="M39.7001267,0.29402695 C37.4506878,-0.266787775 23.3757101,-2.51440534 9.11836515,24.163522 L15.8390725,30.8831285 C42.6041989,16.5830795 40.251588,2.47553811 39.7001267,0.29402695 Z" id="Path" stroke-linecap="round" stroke-linejoin="round"></path>
            <g id="Group" transform="translate(0.000000, 12.057334)" stroke-linecap="round" stroke-linejoin="round">
                <path d="M12.5833439,0 C9.42860753,0.378477294 4.45455751,2.02459927 2.58127017e-15,8.64831514 C2.58127017e-15,8.64831514 2.6265251,7.44605042 7.22130926,8.29671628" id="Path"></path>
                <path d="M27.9465177,15.3613836 C27.568705,18.5156032 25.9215867,23.4888385 19.2982388,27.9426663 C19.2982388,27.9426663 20.5007005,25.3165714 19.6506218,20.7225399" id="Path"></path>
            </g>
        </g>
    </g>
</svg>