<?xml version="1.0" encoding="UTF-8"?>
<svg width="50px" height="50px" viewBox="0 0 50 50" version="1.1" xmlns="http://www.w3.org/2000/svg" xmlns:xlink="http://www.w3.org/1999/xlink">
    <title>checmical</title>
    <g id="checmical" stroke="none" stroke-width="1" fill="none" fill-rule="evenodd">
        <rect id="Rectangle" stroke="#979797" fill="#D8D8D8" opacity="0" x="1.5" y="0.5" width="49" height="49"></rect>
        <g id="iconfinder_Detective_Bottle_Lab_2_2624527" transform="translate(1.000000, 8.000000)" fill="#000000" fill-opacity="0.85" fill-rule="nonzero">
            <path d="M31.2465527,28.6118252 L24.4328837,18.8946015 C22.9516513,16.7352185 22.0629118,14.2159383 22.0629118,11.6066838 L22.0629118,5.75835476 L22.6554048,5.75835476 C24.4328837,5.75835476 25.8153673,4.49871465 25.8153673,2.87917738 C25.8153673,1.2596401 24.4328837,0 22.6554048,0 L9.32431321,0 C7.54683433,0 6.16435075,1.2596401 6.16435075,2.87917738 C6.16435075,4.49871465 7.54683433,5.75835476 9.32431321,5.75835476 L9.91680617,5.75835476 L9.91680617,11.6066838 C9.91680617,14.2159383 9.12681555,16.7352185 7.54683433,18.8946015 L0.733165287,28.6118252 C-0.155574153,29.8714653 -0.25432298,31.4910026 0.535667633,32.840617 C1.32565825,34.1902314 2.80689065,35 4.4856207,35 L27.3953485,35 C29.0740785,35 30.5553109,34.1902314 31.3453016,32.840617 C32.234041,31.4910026 32.234041,29.8714653 31.2465527,28.6118252 Z M11.9905315,11.6066838 L11.9905315,5.75835476 L15.0517452,5.75835476 C15.6442381,5.75835476 16.0392334,5.39845758 16.0392334,4.85861183 C16.0392334,4.31876607 15.6442381,3.95886889 15.0517452,3.95886889 L9.42306203,3.95886889 C8.73182025,3.95886889 8.23807611,3.50899743 8.23807611,2.87917738 C8.23807611,2.24935733 8.73182025,1.79948586 9.42306203,1.79948586 L22.7541536,1.79948586 C23.4453954,1.79948586 23.9391396,2.24935733 23.9391396,2.87917738 C23.9391396,3.50899743 23.3466466,3.95886889 22.7541536,3.95886889 L19.1991959,3.95886889 C18.6067029,3.95886889 18.2117076,4.31876607 18.2117076,4.85861183 C18.2117076,5.39845758 18.6067029,5.75835476 19.1991959,5.75835476 L20.0879353,5.75835476 L20.0879353,11.6066838 C20.0879353,14.4858612 20.9766748,17.3650386 22.7541536,19.7943445 L23.3466466,20.6041131 C22.0629118,21.1439589 19.3966935,21.9537275 16.3354799,21.1439589 C13.2742663,20.2442159 10.5092991,20.4241645 8.73182025,20.6940874 L9.32431321,19.7943445 C11.0030433,17.3650386 11.9905315,14.5758355 11.9905315,11.6066838 Z M29.6665715,31.940874 C29.1728274,32.6606684 28.3828368,33.1105398 27.3953485,33.1105398 L4.58436953,33.1105398 C3.59688126,33.1105398 2.80689065,32.6606684 2.31314651,31.940874 C1.81940238,31.2210797 1.91815121,30.3213368 2.41189534,29.6015424 L7.15183902,22.9434447 C8.13932729,22.6735219 11.5955362,21.7737789 15.7429869,22.9434447 C16.9279729,23.3033419 18.01421,23.3933162 19.0016982,23.3933162 C21.3716701,23.3933162 23.3466466,22.6735219 24.3341349,22.2236504 L29.5678227,29.6015424 C30.1603156,30.3213368 30.1603156,31.2210797 29.6665715,31.940874 Z" id="Shape"></path>
        </g>
    </g>
</svg>