<?xml version="1.0" encoding="UTF-8"?>
<svg width="50px" height="50px" viewBox="0 0 50 50" version="1.1" xmlns="http://www.w3.org/2000/svg" xmlns:xlink="http://www.w3.org/1999/xlink">
    <title>public</title>
    <g id="public" stroke="none" stroke-width="1" fill="none" fill-rule="evenodd">
        <rect id="Rectangle" stroke="#979797" fill="#D8D8D8" opacity="0" x="1.5" y="0.5" width="49" height="49"></rect>
        <g id="iconfinder_heart_charity_hand_love_gift_care_valentine_2916912" opacity="0.85" transform="translate(1.000000, 7.000000)" fill="#000000" fill-rule="nonzero" stroke="#000000" stroke-width="0.7">
            <path d="M41.616041,4.01418041 C41.3321751,3.84751039 40.9646221,3.94404162 40.7976069,4.23170707 C40.6310706,4.51889047 40.7279275,4.88790246 41.013709,5.05553659 C41.1530678,5.13748569 41.2872786,5.22787073 41.4182568,5.32199168 C41.5234943,5.39827666 41.645134,5.43455119 41.7656962,5.43455119 C41.9523461,5.43455119 42.1366015,5.34693796 42.2529734,5.18219616 C42.4451306,4.91152309 42.3829938,4.53540081 42.1140934,4.34185631 C41.9531842,4.22604294 41.7880846,4.1149296 41.616041,4.01418041 Z" id="Path"></path>
            <path d="M44.2583526,7.19464921 L44.2227945,7.09293591 C44.0628431,6.67583907 43.8557203,6.27380642 43.6068138,5.89816619 C43.4230373,5.62086488 43.0511742,5.54747223 42.7766467,5.73101412 C42.5016404,5.91600217 42.4272917,6.2898347 42.6105894,6.56665395 C42.8107681,6.86890152 42.9773044,7.1918774 43.0983455,7.50774299 L43.1301921,7.59861008 C43.1638346,7.69321309 43.2120834,7.82879065 43.2256122,7.87121136 C43.2354296,7.90845 43.2466837,7.94412196 43.2513529,7.95593227 C43.6975647,9.34424649 43.5277959,10.9593669 42.7467157,12.7571856 C42.6144205,13.062205 42.7523427,13.4172374 43.0553645,13.5508868 C43.1334246,13.5852331 43.214837,13.6012614 43.2948128,13.6012614 C43.5258803,13.6012614 43.7452149,13.4666479 43.8438676,13.2402033 C44.74551,11.1646012 44.9143211,9.21433306 44.3755625,7.53750979 C44.3532938,7.46339406 44.2976221,7.30479844 44.2583526,7.19464921 Z" id="Path"></path>
            <path d="M47.562499,6.36937353 C47.5213139,6.22017796 47.3426855,5.72679615 47.3399319,5.71920381 C46.0491861,2.29819029 42.7427648,0 39.1116517,0 C37.4659239,0 35.8617403,0.460361138 34.5106535,1.30817282 C32.7830343,2.24540543 31.6433803,3.32014381 31.0143498,4.02020608 C30.3885517,3.32207203 29.2587151,2.25347982 27.5563578,1.33082933 C26.1664803,0.460361138 24.5622968,0 22.91609,0 C19.2841388,0 15.9777176,2.29819029 14.686014,5.72534999 C14.686014,5.72534999 14.50547,6.22150361 14.4737431,6.34105289 C14.2011312,7.18790046 14.0650049,8.07536104 14.0481238,8.98391146 L10.9736082,10.0840782 C10.9039287,10.1090244 9.24551012,10.7143632 7.29209124,12.4180609 C4.42146582,14.9229317 4.07450529,17.8030811 3.73915801,20.588025 C3.65403416,21.289895 3.5619663,22.0120112 3.43422066,22.7229196 L0.236269464,25.6364513 C-0.0578927195,25.9048346 -0.0804008557,26.3619419 0.185745882,26.6580433 C0.32749925,26.8157953 0.522889027,26.8958162 0.718398529,26.8958162 C0.890561825,26.8958162 1.06308429,26.8341133 1.20052759,26.7088999 L4.58417091,23.6259264 C4.58417091,23.6259264 4.58045946,23.6231546 4.57998056,23.6226726 C4.691324,23.5214413 4.77644786,23.388274 4.80721696,23.2282323 C4.96860508,22.3940386 5.06869446,21.564545 5.16495265,20.7624079 C5.4956307,18.0197642 5.78093329,15.6509531 8.23288344,13.5113584 C9.96696772,11.9987949 11.4420887,11.4513025 11.4551386,11.4466025 L24.1393114,6.90758632 C24.8426907,9.53393456 23.7455387,10.85681 21.5348327,12.2854962 L14.5884388,16.8504228 C14.2564438,17.0689136 14.1628195,17.5165003 14.3798794,17.8512865 C14.5964603,18.1854701 15.0420735,18.2792295 15.3741882,18.0612208 L17.430091,16.7101452 C17.3412557,18.3540683 16.7463465,21.313154 13.8327401,23.3393456 C13.5062524,23.5662723 13.4244808,24.0167514 13.6499214,24.3453914 C13.7892802,24.548818 14.013763,24.657521 14.2414783,24.657521 C14.3822738,24.657521 14.5248653,24.6160644 14.6492587,24.5294153 C15.8997772,23.6594292 16.7860949,22.6510937 17.4132099,21.6267299 C17.8842046,21.0105449 18.4546901,20.6211662 18.9519044,20.5845301 C19.2816246,20.5558479 19.5949427,20.6961255 19.9008378,20.997891 C20.978355,22.1822966 22.1147764,23.2904172 23.2297672,24.297427 C23.8671785,25.3919296 23.4397633,26.5866993 23.0379692,27.3121899 C22.3878671,28.0527447 21.8304316,28.6057806 21.2276206,29.1184446 C18.8017703,31.1812722 13.3187644,31.7179183 13.2635716,31.7231004 C13.1092472,31.7376825 12.9716842,31.8011931 12.8622563,31.8959166 L12.8617774,31.8944704 L9.58672389,34.7284633 C9.28549798,34.9887722 9.2513766,35.4453974 9.50998072,35.748127 C9.65221298,35.914797 9.8532298,36 10.0553241,36 C10.2209026,36 10.3873191,35.9425151 10.5229666,35.8253761 L13.628371,33.1382891 C14.7620388,33.0098218 19.6609107,32.3441059 22.1545248,30.2229498 C23.2484442,29.2927069 24.1776231,28.2806355 25.6667518,26.3820676 C28.3389944,28.5493804 30.4589495,29.9113021 30.6291972,30.0201257 C30.7465269,30.0949645 30.8803785,30.1322032 31.0136314,30.1322032 C31.1468844,30.1322032 31.2806162,30.0949645 31.3980656,30.0201257 C32.2036892,29.5061361 51.0850223,17.3195814 47.562499,6.36937353 Z M31.013392,28.5438367 C29.3732911,27.4446341 22.8745457,22.9036897 18.8197289,17.428405 C18.8973102,16.7236427 18.892162,16.141322 18.8721681,15.7624279 L22.3161524,13.4995481 C24.7297908,11.9395023 26.759474,9.91897483 25.277409,5.73209874 C25.144156,5.35645851 24.73446,5.15869605 24.3598433,5.29379155 L16.7143801,8.02980698 C16.4309931,8.03968908 16.2102218,7.98039649 16.07649,7.84807279 C15.8674517,7.64091028 15.8019626,7.21959548 15.8735576,6.67921345 C15.9263559,6.5167614 16.0315934,6.23247032 16.0315934,6.23247032 C17.1110262,3.36979533 19.8772522,1.44628116 22.9162097,1.44628116 C24.2935161,1.44628116 25.6357433,1.83083938 26.8357382,2.58127624 C29.2849347,3.91017736 30.4063906,5.55410047 30.416208,5.56868259 C30.5489821,5.76921686 30.7726267,5.88876614 31.012075,5.88973025 L31.0144695,5.88973025 C31.2534388,5.88973025 31.4769638,5.76969892 31.6106956,5.5706108 C31.6214708,5.55410047 32.7429267,3.91029787 35.2313927,2.55874023 C36.392597,1.83095989 37.7343454,1.44628116 39.1116517,1.44628116 C42.1496515,1.44628116 44.9168353,3.36991584 45.9938735,6.22499849 C45.9938735,6.22499849 46.1444865,6.63450298 46.1874674,6.78659088 C49.1193916,15.9022235 33.6730635,26.7573463 31.013392,28.5438367 Z" id="Shape"></path>
        </g>
    </g>
</svg>