<?xml version="1.0" encoding="UTF-8"?>
<svg width="160px" height="58px" viewBox="0 0 160 58" version="1.1" xmlns="http://www.w3.org/2000/svg" xmlns:xlink="http://www.w3.org/1999/xlink">
    <title>logo@2x</title>
    <g id="Page-1" stroke="none" stroke-width="1" fill="none" fill-rule="evenodd">
        <g id="Znap" transform="translate(-93.000000, -188.000000)" fill-rule="nonzero">
            <g id="logo@2x" transform="translate(93.000000, 188.000000)">
                <path d="M34.3296869,26.5103032 L24.373427,26.5103032 C24.3558007,26.5103032 24.3375216,26.5116146 24.3198952,26.5116146 L22.6610626,26.5116146 C22.0075831,26.5273524 21.4716124,25.7588238 21.8737536,25.0827547 L35.873622,2.74624393 C36.6217614,1.55345078 35.7678641,0 34.3642867,0 L3.62724762,0 C2.74658441,0 2.03369767,0.716725076 2.03369767,1.60066414 L2.03369767,10.001364 C2.03369767,10.8853031 2.74658441,11.6020281 3.62724762,11.6020281 L12.4182119,11.6020281 C12.4338797,11.6020281 12.4488947,11.6000609 12.4645626,11.6000609 L13.9053511,11.6000609 C14.2944358,11.5574377 15.1894612,12.1213751 14.6959242,13.0335111 C11.2150523,18.3450144 0.239729921,35.9254346 0.239729921,35.9254346 C-0.415055249,36.9916697 0.348751978,38.3661031 1.59565096,38.3661031 L34.3296869,38.3661031 C35.2096973,38.3661031 35.9232368,37.6500338 35.9232368,36.765439 L35.9232368,28.1109673 C35.9232368,27.2270282 35.2096973,26.5103032 34.3296869,26.5103032" id="Fill-1" fill="#2B4777"></path>
                <path d="M103.62267,15.7366072 C103.443796,14.9857836 102.381647,14.9838164 102.199508,15.7339843 L100.553079,22.53402 C100.336994,23.532058 101.09362,24.4750138 102.110071,24.4750138 L103.683383,24.4750138 C104.714197,24.4750138 105.473434,23.5064841 105.232541,22.4999214 L103.62267,15.7366072 Z M95.2730171,38.3662343 L84.0861789,38.3662343 C82.9900829,38.3662343 82.2217059,37.2803269 82.5814134,36.2403215 L94.746186,1.07554663 C94.9687999,0.431608824 95.5726645,0.00013114823 96.2509515,0.00013114823 L109.343391,0.00013114823 C110.017108,0.00013114823 110.618361,0.425707154 110.844239,1.06308755 L123.33412,36.2278624 C123.704925,37.2704908 122.935242,38.3662343 121.833924,38.3662343 L110.628154,38.3662343 C109.906127,38.3662343 109.274191,37.8783629 109.088788,37.1773756 L108.451629,34.772117 C108.266227,34.0711298 107.63429,33.5832583 106.911611,33.5832583 L98.9144844,33.5832583 C98.1741789,33.5832583 97.5317974,34.0947364 97.3627153,34.8186747 L96.8241333,37.130818 C96.655704,37.8547562 96.0133226,38.3662343 95.2730171,38.3662343 L95.2730171,38.3662343 Z" id="Fill-3" fill="#2B4777"></path>
                <path d="M140.294426,15.9656576 C140.294426,16.6187758 140.821258,17.1479589 141.471473,17.1479589 L141.662751,17.1479589 C144.093878,17.1479589 146.728033,16.7407437 146.728033,13.6371208 C146.728033,10.6344821 143.890849,10.4823501 141.611178,10.4823501 L141.471473,10.4823501 C140.821258,10.4823501 140.294426,11.0115332 140.294426,11.6639957 L140.294426,15.9656576 Z M126.921272,1.60099201 C126.921272,0.717052946 127.634158,0.000327870574 128.514169,0.000327870574 L144.49863,0.000327870574 C153.414937,0.000327870574 160,4.57936831 160,14.0948281 C160,21.9309348 155.137094,26.8155507 147.386083,26.8155507 L141.754147,26.8155507 C140.947906,26.8155507 140.294426,27.4719476 140.294426,28.2817879 L140.294426,36.7657669 C140.294426,37.6497059 139.580887,38.366431 138.700876,38.366431 L128.514169,38.366431 C127.634158,38.366431 126.921272,37.6497059 126.921272,36.7657669 L126.921272,1.60099201 Z" id="Fill-4" fill="#2B4777"></path>
                <path d="M32.0453157,34.813691 L8.50112115,34.813691 C8.05589332,34.813691 7.69226885,34.4477875 7.69226885,34.0012277 L7.69226885,30.8071126 C7.69226885,30.3605529 8.05589332,29.9946493 8.50112115,29.9946493 L32.0453157,29.9946493 C32.4898907,29.9946493 32.854168,30.3605529 32.854168,30.8071126 L32.854168,34.0012277 C32.854168,34.4477875 32.4898907,34.813691 32.0453157,34.813691" id="Fill-5" fill="#FFFFFE"></path>
                <path d="M77.6789459,0.00013114823 L67.5940792,0.00013114823 C66.713416,0.00013114823 66.0005292,0.716856224 66.0005292,1.60079529 L66.0005292,11.4998637 C66.0005292,11.5110113 66.001182,11.5228146 66.001182,11.5339622 L66.001182,16.512349 C65.9848614,17.4290751 64.7967168,17.8972743 64.2228821,16.9392365 L54.7608121,0.78898775 C54.4742212,0.300460594 53.9519598,0.00013114823 53.3872647,0.00013114823 L42.5692737,0.00013114823 C41.6892633,0.00013114823 40.9757237,0.716856224 40.9757237,1.60079529 L40.9757237,36.7655701 C40.9757237,37.6495092 41.6892633,38.3662343 42.5692737,38.3662343 L52.6541404,38.3662343 C53.5348036,38.3662343 54.2476903,37.6495092 54.2476903,36.7655701 L54.2476903,32.7163685 L54.2516073,32.7163685 L54.2516073,22.3202484 C54.2333281,21.4251617 55.3986238,20.9864709 55.9678886,21.8081145 L65.534411,37.5977057 C65.8236132,38.0750852 66.3399991,38.3662343 66.8962074,38.3662343 L77.6789459,38.3662343 C78.5589562,38.3662343 79.2724958,37.6495092 79.2724958,36.7655701 L79.2724958,1.60079529 C79.2724958,0.716856224 78.5589562,0.00013114823 77.6789459,0.00013114823" id="Fill-6" fill="#2B4777"></path>
                <path d="M15.1017865,32.4615475 C14.5560234,32.4615475 14.0396375,32.9710584 14.0383319,33.5402417 C14.0350677,36.0917305 14.0324564,38.6425636 14.0291923,41.1940524 C14.0285395,42.0524176 14.0291923,51.8091901 14.0259281,53.6531342 C16.7077402,53.6577244 19.3902051,53.6629704 22.0720171,53.6675605 C22.3514269,53.6675605 22.5348712,53.8131351 22.6164746,54.0892021 C22.7365947,54.4944501 22.8847863,54.8878948 23.1250265,55.2400278 C23.3313198,55.5423245 23.5898392,55.7823257 23.9534636,55.872818 C24.0487763,55.8964247 24.1695493,55.8970804 24.257028,55.8583917 C24.5292568,55.7377353 24.6781012,55.5128161 24.70552,55.2151097 C24.7185765,55.0701909 24.7133539,54.9233048 24.7133539,54.7770746 C24.716618,52.8098511 24.7198822,42.7671754 24.7218406,40.7992962 C24.7237991,39.3592887 24.7218406,37.9192811 24.7264104,36.4792735 C24.7296746,35.5907443 24.7303274,34.702215 24.7551348,33.8143415 C24.7675385,33.3422079 24.9026736,32.8956482 25.1886117,32.5074494 C25.2010154,32.4910559 25.2055852,32.4687607 25.2192946,32.4359736 C25.157276,32.4359736 25.1089669,32.4359736 25.0613105,32.4359736 C24.3425483,32.4333507 23.6231333,32.4267932 22.9043711,32.4294162 C20.3035096,32.4399081 17.7026481,32.460236 15.1017865,32.4615475" id="Fill-7" fill="#FFFFFE"></path>
                <path d="M25.188677,32.5073838 C24.9027389,32.8955826 24.7676038,33.3421423 24.7545472,33.8142759 C24.7303927,34.7021495 24.7297398,35.5906787 24.7264757,36.479208 C24.7219059,37.9192155 24.7238644,39.3592231 24.7219059,40.7992307 C24.7199474,42.7671099 24.7166833,52.8097855 24.7134192,54.777009 C24.7134192,54.9232393 24.7186418,55.0701253 24.7055852,55.2150441 C24.6781665,55.5127506 24.5286692,55.7376698 24.2570933,55.8583261 C24.1696145,55.8970149 24.0488416,55.8963591 23.9535289,55.8727524 C23.5899044,55.7822602 23.3313851,55.5422589 23.124439,55.2399622 C22.8848516,54.8878292 22.7366599,54.4943846 22.6165398,54.0891365 C22.5349365,53.8130695 22.3514922,53.667495 22.0720824,53.667495 C19.3902703,53.6629048 16.7078055,53.6576588 14.0259934,53.6530687 C14.0286047,51.8091246 14.0279519,42.052352 14.0292576,41.1939868 C14.0325217,38.642498 14.035133,36.091665 14.0383971,33.5401761 C14.0397028,32.9709928 14.5560887,32.461482 15.1018518,32.461482 C16.8768876,32.4608262 20.5333699,32.4477114 22.9044364,32.4404982 C24.0077135,32.4372195 24.8328865,32.4352523 25.0613758,32.4356965 C25.1090321,32.4356965 25.1573413,32.4356965 25.2193599,32.4356965 C25.2056505,32.4686951 25.2010807,32.4909903 25.188677,32.5073838 M26.4930247,30.7401614 C26.0726043,30.5591769 25.6201954,30.5139307 25.1690922,30.4772092 C25.1011982,30.4713076 25.0346099,30.4595042 24.9673687,30.4503239 L23.7067604,30.4503239 C23.5383311,30.4568813 23.3699018,30.4686846 23.2008197,30.4686846 C20.8441154,30.4693403 18.487411,30.4680289 16.1307067,30.4667174 C16.0869673,30.4667174 16.0438807,30.4555698 16.0001413,30.4503239 L15.2252361,30.4503239 C15.0130674,30.475242 14.8002459,30.492947 14.5900357,30.5277013 C13.8125191,30.6549151 13.1446774,30.9821299 12.6655026,31.6319694 C12.3227686,32.0982014 12.1438941,32.6352534 12.1073358,33.2037809 C12.0635964,33.8870632 12.0629436,34.5729685 12.0603323,35.258218 C12.0544568,36.681832 12.0609851,38.1061018 12.0616379,39.5297158 C12.0622907,40.9310346 12.0616379,51.4602703 12.0616379,53.64979 C11.4447167,53.6484785 10.8271426,53.6478227 10.2102214,53.6465112 C9.96410576,53.6458555 9.78718973,53.7186428 9.69971095,53.9592998 L9.69971095,54.1540549 C9.73300511,54.3238919 9.75911818,54.4950403 9.80089909,54.66291 C10.1808442,56.1684917 11.0758696,57.24194 12.4931564,57.8629268 C12.6870459,57.9475174 12.9148824,57.9901406 13.1270511,57.9907964 C16.8670952,57.9980095 20.6064865,57.9921078 24.3465306,57.9999923 C24.864875,58.0012882 25.3061858,57.8380087 25.6848253,57.500302 C26.2867315,56.9639057 26.646439,56.2983285 26.6940953,55.4806192 C26.7032349,55.3232414 26.6882199,55.164552 26.6882199,55.0065184 C26.6882199,51.015022 26.6888727,38.9474177 26.6856086,34.9559213 C26.6849558,34.8352649 26.7221669,34.8083795 26.8351059,34.809691 C27.4330952,34.8149369 28.0304316,34.8129697 28.6284208,34.8116582 C28.9228457,34.8110025 29.0847467,34.6555918 29.0553695,34.36641 C28.8830232,32.6732863 28.0787408,31.4247552 26.4930247,30.7401614" id="Fill-8" fill="#3B99C8"></path>
                <path d="M22.6178455,50.6632825 L16.129401,50.6632825 C15.790584,50.6632825 15.5131326,50.9419725 15.5131326,51.2823021 C15.5131326,51.6232875 15.790584,51.9013218 16.129401,51.9013218 L22.6178455,51.9013218 C22.9566625,51.9013218 23.2341139,51.6232875 23.2341139,51.2823021 C23.2341139,50.9419725 22.9566625,50.6632825 22.6178455,50.6632825" id="Fill-9" fill="#3B99C8"></path>
                <path d="M22.6178455,47.9279238 L16.129401,47.9279238 C15.790584,47.9279238 15.5131326,48.2066138 15.5131326,48.5469435 C15.5131326,48.8879289 15.790584,49.1659631 16.129401,49.1659631 L22.6178455,49.1659631 C22.9566625,49.1659631 23.2341139,48.8879289 23.2341139,48.5469435 C23.2341139,48.2066138 22.9566625,47.9279238 22.6178455,47.9279238" id="Fill-10" fill="#3B99C8"></path>
                <path d="M22.6178455,45.2109915 L16.129401,45.2109915 C15.790584,45.2109915 15.5131326,45.4896815 15.5131326,45.8300112 C15.5131326,46.1709966 15.790584,46.4490308 16.129401,46.4490308 L22.6178455,46.4490308 C22.9566625,46.4490308 23.2341139,46.1709966 23.2341139,45.8300112 C23.2341139,45.4896815 22.9566625,45.2109915 22.6178455,45.2109915" id="Fill-11" fill="#3B99C8"></path>
                <path d="M22.6178455,42.4755673 L16.129401,42.4755673 C15.790584,42.4755673 15.5131326,42.7542573 15.5131326,43.094587 C15.5131326,43.4355724 15.790584,43.7136066 16.129401,43.7136066 L22.6178455,43.7136066 C22.9566625,43.7136066 23.2341139,43.4355724 23.2341139,43.094587 C23.2341139,42.7542573 22.9566625,42.4755673 22.6178455,42.4755673" id="Fill-12" fill="#3B99C8"></path>
                <path d="M22.6178455,39.7402087 L16.129401,39.7402087 C15.790584,39.7402087 15.5131326,40.0188987 15.5131326,40.3592284 C15.5131326,40.7002137 15.790584,40.978248 16.129401,40.978248 L22.6178455,40.978248 C22.9566625,40.978248 23.2341139,40.7002137 23.2341139,40.3592284 C23.2341139,40.0188987 22.9566625,39.7402087 22.6178455,39.7402087" id="Fill-13" fill="#3B99C8"></path>
                <path d="M22.6178455,37.023342 L16.129401,37.023342 C15.790584,37.023342 15.5131326,37.302032 15.5131326,37.6423616 C15.5131326,37.983347 15.790584,38.2613813 16.129401,38.2613813 L22.6178455,38.2613813 C22.9566625,38.2613813 23.2341139,37.983347 23.2341139,37.6423616 C23.2341139,37.302032 22.9566625,37.023342 22.6178455,37.023342" id="Fill-14" fill="#3B99C8"></path>
                <path d="M16.1297274,35.5447113 L22.6181719,35.5447113 C22.956989,35.5447113 23.2344403,35.2660213 23.2344403,34.9256916 C23.2344403,34.5847062 22.956989,34.306672 22.6181719,34.306672 L16.1297274,34.306672 C15.7909104,34.306672 15.513459,34.5847062 15.513459,34.9256916 C15.513459,35.2660213 15.7909104,35.5447113 16.1297274,35.5447113" id="Fill-15" fill="#3B99C8"></path>
            </g>
        </g>
    </g>
</svg>