<?xml version="1.0" encoding="UTF-8"?>
<svg width="90px" height="90px" viewBox="0 0 90 90" version="1.1" xmlns="http://www.w3.org/2000/svg" xmlns:xlink="http://www.w3.org/1999/xlink">
    <title>mysql</title>
    <g id="mysql" stroke="none" stroke-width="1" fill="none" fill-rule="evenodd">
        <g id="mysql-official" transform="translate(6.000000, 20.000000)">
            <path d="M0,36.4331192 L2.53672625,36.4331192 L2.53672625,26.3599241 L6.46382062,35.1445641 C6.92702601,36.2035469 7.56167755,36.5840242 8.80541409,36.5840242 C10.0491506,36.5840242 10.6589876,36.2077072 11.1229449,35.1445641 L15.0504153,26.3599241 L15.0504153,36.4369013 L17.5875175,36.4369013 L17.5875175,26.3765653 C17.5875175,25.3951152 17.1965,24.920464 16.3919062,24.6753851 C14.4650169,24.0702521 13.1720272,24.5936922 12.5870048,25.9022923 L8.73322624,34.571957 L5.0005127,25.8985102 C4.43955293,24.5899101 3.1225006,24.0664701 1.19561131,24.671603 C0.390265577,24.9170601 0,25.3917113 0,26.3727832 L0,36.4331192 Z M19.6960044,28.2312979 L22.2319787,28.2312979 L22.2319787,33.7833931 C22.208292,34.0852032 22.3282291,34.7932088 23.7178453,34.8147667 C24.4269406,34.8261129 29.1898349,34.8147667 29.2342004,34.8147667 L29.2342004,28.2036887 L31.7758143,28.2036887 C31.7870937,28.2036887 31.7731825,37.2179011 31.7735585,37.2564783 C31.7874697,39.4795856 29.031172,39.9625574 27.761117,40 L19.7512732,40 L19.7512732,38.2829351 L27.7754042,38.2825569 C29.4079024,38.1085812 29.2154014,37.2927863 29.2154014,37.017829 L29.2154014,36.3484006 L23.8238712,36.3484006 C21.3153433,36.3257081 19.7181871,35.2239878 19.6982602,33.9569906 C19.6963804,33.8435282 19.7524011,28.2857599 19.6967563,28.2309197 L19.6960044,28.2312979 Z" id="Shape" fill="#00618A" fill-rule="nonzero"></path>
            <path d="M33.731278,36.4331192 L41.024507,36.4331192 C41.8779779,36.4331192 42.7077622,36.2534703 43.3668524,35.9422051 C44.4647093,35.4354062 45.0012305,34.748202 45.0012305,33.8484449 L45.0012305,31.9838789 C45.0012305,31.2475077 44.3913935,30.5606817 43.1965342,30.1026717 C42.5622586,29.8568364 41.7817274,29.7263546 41.0256349,29.7263546 L37.9520115,29.7263546 C36.9278463,29.7263546 36.4398264,29.4154675 36.3180094,28.7286416 C36.2935708,28.6469486 36.2935708,28.5773583 36.2935708,28.4994474 L36.2935708,27.3383485 C36.2935708,27.2729185 36.2935708,27.2071103 36.3180094,27.1254173 C36.4398264,26.6019773 36.7082749,26.4544761 37.6106231,26.3690011 C37.6839389,26.3690011 37.7813173,26.3523599 37.8550091,26.3523599 L45.0993608,26.3523599 L45.0993608,24.651558 L37.9768261,24.651558 C36.9522849,24.651558 36.4157637,24.716988 35.9277438,24.864111 C34.4140548,25.3387622 33.7553406,26.0951784 33.7553406,27.4037785 L33.7553406,28.8924057 C33.7553406,30.0376199 35.0487063,31.0190699 37.2188536,31.2478859 C37.4632396,31.2641488 37.7068736,31.2804118 37.9505076,31.2804118 L40.5849882,31.2804118 C40.6827426,31.2804118 40.780497,31.2804118 40.8534368,31.2970529 C41.6580306,31.3624829 42.0001709,31.5096059 42.2438049,31.8038518 C42.3941963,31.955135 42.4393137,32.0988541 42.4393137,32.2577015 L42.4393137,33.7463287 C42.4393137,33.9263558 42.3174967,34.1555499 42.0734867,34.3514617 C41.8539153,34.5481299 41.4880883,34.6786117 41.0000684,34.7115158 C40.902314,34.7115158 40.8293742,34.7277788 40.7319958,34.7277788 L33.731278,34.7277788 L33.731278,36.4289589 L33.731278,36.4331192 Z M60.8257853,33.472506 C60.8257853,35.2228532 62.118399,36.2043033 64.7284411,36.4005933 C64.9719024,36.4195479 65.2159205,36.4303958 65.460095,36.4331192 L72.0705472,36.4331192 L72.0705472,34.7319391 L65.4112178,34.7319391 C63.9234713,34.7319391 63.3621356,34.355622 63.3621356,33.4558649 L63.3621356,24.6549619 L60.8254093,24.6549619 L60.8254093,33.4717496 L60.8257853,33.472506 Z M46.6194415,33.5610067 L46.6194415,27.4964395 C46.6194415,25.9556196 47.6947397,25.0210674 49.8212735,24.726065 C50.0480571,24.6934817 50.2768452,24.6770518 50.5059302,24.676898 L55.3210856,24.676898 C55.5582872,24.6770453 55.7952024,24.6934725 56.0301808,24.726065 C58.1567146,25.0210674 59.2320129,25.9552414 59.2320129,27.4964395 L59.2320129,33.5610067 C59.2320129,34.8109846 58.7751991,35.4800347 57.7224596,35.9161087 L60.221212,38.1853574 L57.2757972,38.1853574 L55.2541614,36.3495352 L53.2189903,36.4792606 L50.5059302,36.4792606 C50.0415969,36.4792606 49.552825,36.4134524 49.0147999,36.2659512 C47.3980928,35.8234477 46.6198175,34.9709666 46.6198175,33.5610067 L46.6194415,33.5610067 Z M49.3576922,33.4097235 C49.3576922,33.4917946 49.3821308,33.5734876 49.4065694,33.6721999 C49.5569607,34.3771799 50.213043,34.7705163 51.2112657,34.7705163 L53.5160133,34.7705163 L51.3992549,32.8480844 L54.3446697,32.8480844 L56.1869638,34.524681 C56.5272243,34.3423847 56.7509314,34.0632671 56.8261271,33.705104 C56.8505657,33.6234111 56.8505657,33.5413399 56.8505657,33.4592687 L56.8505657,27.6443189 C56.8505657,27.5788889 56.8505657,27.4930356 56.8261271,27.4147466 C56.6757357,26.7593119 56.0192774,26.3822384 55.0417336,26.3822384 L51.2157774,26.3822384 C50.0878422,26.3822384 49.3584441,26.8739089 49.3584441,27.6443189 L49.3584441,33.414262 L49.3576922,33.4097235 Z" id="Shape" fill="#E48E00" fill-rule="nonzero"></path>
            <g id="Group" transform="translate(47.977629, 0.000000)" fill="#00618A" fill-rule="nonzero">
                <path d="M26.3247261,21.8327729 C24.7655437,21.7904136 23.5740681,21.9360237 22.5559186,22.3679374 C22.2664152,22.490855 21.8050897,22.4938807 21.7577165,22.8588515 C21.9167553,23.0263977 21.9419459,23.2767715 22.0678986,23.4828949 C22.3111567,23.8788788 22.7221011,24.4095048 23.087928,24.6871096 C23.4879691,24.9908107 23.9000414,25.3160697 24.3297847,25.5796807 C25.0930208,26.0479024 25.9449879,26.3152955 26.6796497,26.7838954 C27.1127768,27.0599873 27.5428961,27.4079388 27.9654958,27.7203387 C28.1741638,27.8746476 28.3151557,28.1144316 28.5858602,28.2108746 L28.5858602,28.1662461 C28.4429884,27.9835716 28.4065185,27.7324414 28.275678,27.5422027 L27.6993031,26.9624096 C27.1353355,26.2059934 26.4202246,25.5490459 25.6596203,24.9995095 C25.0531671,24.5615445 23.6955091,23.970027 23.4424757,23.2597521 L23.3981102,23.2151236 C23.8282295,23.1659565 24.3316646,23.0097566 24.7290738,22.9031019 C25.3956835,22.723453 25.9916092,22.7695944 26.6804016,22.5910802 L27.6117001,22.3233088 L27.6117001,22.1447946 C27.2635441,21.7854969 27.0153984,21.3100893 26.6360362,20.9852085 C25.6434532,20.1342402 24.5595075,19.285163 23.4439796,18.5760228 C22.8251191,18.1826863 22.0603791,17.927774 21.4042968,17.5945727 C21.1835975,17.4826231 20.7959637,17.424379 20.6504601,17.2375442 C20.3060639,16.7957971 20.1184507,16.2352927 19.8526339,15.7247117 C19.2961859,14.6468186 18.7495133,13.4690785 18.2562296,12.3348323 C17.919729,11.5613967 17.6997816,10.7985509 17.2809417,10.104539 C15.2675774,6.77479474 13.1000619,4.76499679 9.74332675,2.78999398 C9.0289678,2.37018296 8.1691052,2.20377139 7.25998943,1.98705813 L5.7966815,1.89780102 C5.49890661,1.77299234 5.18910041,1.40613046 4.90937248,1.22837264 C3.79722838,0.521123456 0.944680274,-1.01553614 0.120911603,1.00144777 C-0.399066522,2.27714376 0.898058953,3.52182669 1.36239227,4.16856258 C1.68798957,4.62241232 2.10532559,5.13034583 2.33768024,5.64054859 C2.49070345,5.97564098 2.51739791,6.311868 2.6482384,6.66662722 C2.97045188,7.5365059 3.25093177,8.49072499 3.66789181,9.29819933 C3.87843972,9.7066641 4.11079437,10.1370649 4.37736305,10.502414 C4.54091365,10.7266914 4.82101756,10.8254037 4.86500703,11.1718424 C4.59129476,11.5576146 4.57550367,12.1551835 4.42135252,12.6438284 C3.72842434,14.841974 3.98972932,17.5737712 4.99772741,19.2008226 C5.30715763,19.7000573 6.03542779,20.7711427 7.03741022,20.3604087 C7.91343989,20.001111 7.71417134,18.8891791 7.96870871,17.9073508 C8.02510547,17.684208 7.99051546,17.5215785 8.10180506,17.3721863 L8.10180506,17.4168149 L8.9000072,19.0223083 C9.49029329,19.9791749 10.539273,20.9795354 11.427334,21.6546369 C11.8879075,22.0044794 12.2544865,22.6096124 12.8462765,22.814223 L12.8462765,22.7695944 L12.801911,22.7695944 C12.6864857,22.5880545 12.506016,22.5135475 12.3582565,22.3686938 C12.0112285,22.0264154 11.6250986,21.6009313 11.3382271,21.2091077 C10.5298736,20.1054964 9.81626656,18.8982561 9.16582393,17.6407141 C8.85526577,17.0404978 8.58493731,16.3782554 8.32363232,15.7674492 C8.22287011,15.5318256 8.22399804,15.1759317 8.01345014,15.0537705 C7.72657862,15.5015689 7.3039789,15.8631359 7.08215165,16.3918709 C6.72722804,17.2367878 6.68135868,18.2670267 6.55014221,19.3358429 C6.47231469,19.3638303 6.5069047,19.3445417 6.46141131,19.3804714 C5.84405478,19.230701 5.62673927,18.5911511 5.39739245,18.0423711 C4.8168818,16.6543473 4.70935198,14.4206501 5.21993064,12.8238554 C5.35152308,12.4108522 5.94932873,11.1090598 5.70757462,10.7274478 C5.59214926,10.3465922 5.21128314,10.1223148 4.99810339,9.83487665 C4.73491851,9.47557894 4.47098167,9.00130595 4.28863215,8.58603344 C3.81339545,7.50435821 3.5915682,6.29031014 3.09151693,5.19615405 C2.85239467,4.67347042 2.44859387,4.14473547 2.11622896,3.68332156 C1.74852209,3.16895851 1.33682574,2.78923756 1.0522101,2.17048907 C0.950695928,1.94923732 0.813087835,1.59561273 0.963479194,1.36755323 C0.992796816,1.23376446 1.09667188,1.12927337 1.2296719,1.09978188 C1.48684112,0.900466202 2.20345595,1.1659683 2.47115257,1.27829612 C3.18175174,1.5755677 3.77579761,1.85846737 4.37811501,2.25974619 C4.66761837,2.44885025 4.95975359,2.82554554 5.30903752,2.92917457 L5.70757462,2.92917457 C6.33169877,3.07365007 7.03101859,2.97455954 7.6137851,3.15231736 C8.64471787,3.46736472 9.56812082,3.95790066 10.4073046,4.49041769 C12.9632058,6.11368695 15.0525177,8.42453857 16.4819876,11.1847014 C16.7120864,11.6283396 16.8113447,12.0523109 17.013997,12.5228018 C17.4226855,13.4683221 17.9374,14.4490157 18.3442086,15.3771385 C18.7502653,16.3037484 19.1450426,17.2379224 19.7187856,18.0087106 C20.0203203,18.4133933 21.1851014,18.6312411 21.714103,18.8558968 C22.0851937,19.0136096 22.6927747,19.1781301 23.0443145,19.3910613 C23.715436,19.7983914 24.3658786,20.2836324 24.9956424,20.729918 C25.3103364,20.9530608 26.2777288,21.4420839 26.325854,21.8448755 L26.3247261,21.8327729 Z" id="Path"></path>
                <path d="M6.50540079,4.83912558 C6.18017947,4.83307425 5.95045667,4.87467714 5.70719865,4.9283827 L5.70719865,4.97301125 L5.7515641,4.97301125 C5.9064672,5.29373174 6.18017947,5.49985517 6.37192845,5.7759471 L6.81558296,6.7123904 L6.85994842,6.66776185 C7.13441265,6.47298466 7.26036541,6.16171938 7.25848552,5.68631177 C7.14832385,5.56982367 7.13215678,5.42383533 7.03665826,5.28465475 C6.90995354,5.09933277 6.66067986,4.99419091 6.50464883,4.83836916 L6.50540079,4.83912558 Z" id="Path"></path>
            </g>
            <path d="M73.2612708,34.6835284 C73.2612708,35.8068066 74.1436921,36.5639792 75.1306354,36.5639792 C76.1175787,36.5639792 77,35.8068066 77,34.6835284 C77,33.5602503 76.1175787,32.8030777 75.1306354,32.8030777 C74.1436921,32.8030777 73.2612708,33.5602503 73.2612708,34.6835284 Z M76.5811601,34.6835284 C76.5811601,35.5360095 75.9333493,36.172912 75.1298834,36.172912 C74.3177701,36.172912 73.6786068,35.5360095 73.6786068,34.6835284 C73.6786068,33.8310473 74.3170181,33.1941449 75.1298834,33.1941449 C75.9325973,33.1941449 76.5811601,33.8310473 76.5811601,34.6835284 Z M75.6336945,35.7568831 L76.0521585,35.7568831 L75.4393137,34.8143884 C75.7682948,34.7792151 76.0171925,34.6184766 76.0171925,34.2274094 C76.0171925,33.7909573 75.7427282,33.6109302 75.2148546,33.6109302 L74.3820624,33.6109302 L74.3820624,35.7572613 L74.7411218,35.7572613 L74.7411218,34.8295168 L75.0749906,34.8295168 L75.6333185,35.7572613 L75.6336945,35.7568831 Z M74.7411218,34.5277067 L74.7411218,33.9112275 L75.154698,33.9112275 C75.3690057,33.9112275 75.6284308,33.9513175 75.6284308,34.2024477 C75.6284308,34.5031232 75.3941963,34.5284631 75.1246197,34.5284631 L74.7411218,34.5284631 L74.7411218,34.5277067 Z" id="Shape" fill="#E48E00"></path>
        </g>
        <rect id="Rectangle" x="0" y="0" width="90" height="90"></rect>
    </g>
</svg>