<?xml version="1.0" encoding="UTF-8"?>
<svg width="182px" height="60px" viewBox="0 0 182 60" version="1.1" xmlns="http://www.w3.org/2000/svg" xmlns:xlink="http://www.w3.org/1999/xlink">
    <title>Group</title>
    <g id="Page-1" stroke="none" stroke-width="1" fill="none" fill-rule="evenodd">
        <g id="Speed" transform="translate(-92.000000, -205.000000)" fill="#3292E5" fill-rule="nonzero">
            <g id="Group" transform="translate(92.000000, 205.000000)">
                <path d="M46.487699,24.4104621 C49.4068982,24.4104621 51.8267607,23.722382 53.7472865,22.3462217 C55.6678123,20.9700614 56.6280753,19.0478058 56.6280753,16.5794548 C56.6280753,15.3998888 56.4140738,14.3677686 55.9860709,13.4830942 C55.558068,12.5984197 54.9325253,11.8775738 54.1094428,11.3205566 C53.2863603,10.7635393 52.4687651,10.326663 51.656657,10.0099277 C50.844549,9.69319244 49.8678244,9.39284 48.7264834,9.10887042 C48.3972504,9.02149516 48.0241196,8.93411991 47.6070912,8.84674465 C47.1900627,8.75936939 46.8553425,8.68291605 46.6029305,8.6173846 C46.3505186,8.55185316 46.0596961,8.48086077 45.7304631,8.40440742 C45.4012301,8.32795407 45.1433309,8.25696167 44.9567656,8.19143023 C44.7702002,8.12589879 44.5671732,8.05490639 44.3476845,7.97845305 C44.1281959,7.9019997 43.9580921,7.82008539 43.8373734,7.73271014 C43.7166546,7.64533488 43.6014231,7.54703772 43.4916787,7.43781865 C43.3819344,7.32859958 43.3051134,7.21391956 43.2612156,7.09377858 C43.2173179,6.9736376 43.195369,6.83711377 43.195369,6.68420707 C43.195369,6.20364316 43.4368066,5.81045451 43.9196816,5.50464112 C44.4025567,5.19882772 45.0171249,5.04592102 45.7633864,5.04592102 C47.5412446,5.04592102 48.539918,5.74492307 48.7594067,7.14292716 L48.7594067,7.14292716 L55.5745297,7.14292716 C55.5525808,5.50464112 55.0806802,4.13394179 54.1588278,3.03082919 C53.2369754,1.92771658 52.0956343,1.14680023 50.7348046,0.688080139 C49.3739749,0.229360046 47.8375543,0 46.1255427,0 C43.2502412,0 40.9126869,0.600704884 39.1128799,1.80211465 C37.3130728,3.00352442 36.4131693,4.87117051 36.4131693,7.40505293 C36.4131693,8.36618074 36.5997347,9.22901139 36.9728654,9.99354488 C37.3459961,10.7580784 37.7904607,11.3751661 38.306259,11.8448081 C38.8220574,12.3144501 39.5189339,12.7513264 40.3968886,13.155437 C41.2748432,13.5595475 42.0320791,13.8599 42.6685962,14.0564943 C43.3051134,14.2530886 44.1281959,14.4715267 45.1378437,14.7118087 C46.6303666,15.0831535 47.6070912,15.3562012 48.0680174,15.5309517 C49.0996141,15.9241404 49.6154124,16.4811576 49.6154124,17.2020035 C49.6154124,17.8573179 49.3136155,18.3433428 48.7100217,18.6600781 C48.1064279,18.9768134 47.4095514,19.135181 46.6193922,19.135181 C44.2050169,19.135181 42.8880849,18.2177408 42.6685962,16.3828605 L42.6685962,16.3828605 L35.6230101,16.3828605 C35.6669079,18.9822743 36.6875301,20.9700614 38.684877,22.3462217 C40.6822238,23.722382 43.2831645,24.4104621 46.487699,24.4104621 Z M65.3856729,23.8534448 L65.3856729,16.7105177 L70.5875543,16.7105177 C72.936083,16.7105177 74.8730704,15.9569061 76.3985166,14.4496829 C77.9239629,12.9424598 78.686686,11.0529699 78.686686,8.78121321 C78.686686,6.20364316 77.8087313,4.13940274 76.052822,2.58849195 C74.4286059,1.14680023 72.1898215,0.425954372 69.3364689,0.425954372 L69.3364689,0.425954372 L58.5047033,0.425954372 L58.5047033,23.8534448 L65.3856729,23.8534448 Z M69.1060058,11.4024709 L65.3856729,11.4024709 L65.3856729,6.09442409 L69.0401592,6.09442409 C69.9181138,6.09442409 70.6040159,6.32924509 71.0978654,6.79888709 C71.5917149,7.26852909 71.8386397,7.89653874 71.8386397,8.68291605 C71.8386397,9.49113716 71.5917149,10.1464516 71.0978654,10.6488593 C70.6040159,11.151267 69.9400627,11.4024709 69.1060058,11.4024709 L69.1060058,11.4024709 Z M99.0991317,23.8534448 L99.0991317,17.9883808 L87.3125904,17.9883808 L87.3125904,14.31862 L96.8932706,14.31862 L96.8932706,9.17440186 L87.3125904,9.17440186 L87.3125904,5.99612693 L98.7698987,5.99612693 L98.7698987,0.425954372 L80.4316208,0.425954372 L80.4316208,23.8534448 L99.0991317,23.8534448 Z M120.071274,23.8534448 L120.071274,17.9883808 L108.284732,17.9883808 L108.284732,14.31862 L117.865412,14.31862 L117.865412,9.17440186 L108.284732,9.17440186 L108.284732,5.99612693 L119.742041,5.99612693 L119.742041,0.425954372 L101.403763,0.425954372 L101.403763,23.8534448 L120.071274,23.8534448 Z M132.944284,23.8534448 C136.631693,23.8534448 139.517969,22.8377075 141.603111,20.8062328 C143.688254,18.7747581 144.730825,15.9022966 144.730825,12.1888482 C144.730825,8.51908744 143.677279,5.64116495 141.570188,3.55508072 C139.463097,1.46899649 136.686565,0.425954372 133.240593,0.425954372 L133.240593,0.425954372 L122.375904,0.425954372 L122.375904,23.8534448 L132.944284,23.8534448 Z M132.384588,18.1849751 L129.256874,18.1849751 L129.256874,6.09442409 L132.384588,6.09442409 C134.052701,6.09442409 135.364146,6.62959753 136.318922,7.69994442 C137.273698,8.7702913 137.751085,10.2665926 137.751085,12.1888482 C137.751085,14.1111038 137.262723,15.5910222 136.285999,16.6286034 C135.309274,17.6661845 134.008804,18.1849751 132.384588,18.1849751 L132.384588,18.1849751 Z" id="SPEED"></path>
                <path d="M15.3093343,54.364296 L15.3093343,51.6447412 L2.96309696,51.6447412 L2.96309696,30.9368055 L-1.41778251e-14,30.9368055 L-1.41778251e-14,54.364296 L15.3093343,54.364296 Z M24.4620116,54.8230161 C28.3140376,54.8230161 30.9808249,52.7587757 31.7709841,49.1217807 L29.1700434,49.1217807 C28.577424,51.4153811 26.931259,52.5949471 24.4620116,52.5949471 C21.0379884,52.5949471 19.1613603,49.9736894 18.9638205,46.5332887 L32.1331404,46.5332887 C32.1331404,40.9303504 29.4005065,36.9984639 24.2973951,36.9984639 C19.45767,36.9984639 16.2311867,40.9958819 16.2311867,45.91074 C16.2311867,50.8255981 19.2601302,54.8230161 24.4620116,54.8230161 Z M29.2688133,44.5345797 L19.0296671,44.5345797 C19.4247467,41.454602 21.1367583,39.09547 24.2973951,39.09547 C27.3592619,39.09547 29.1041968,41.1597105 29.2688133,44.5345797 Z M39.4750362,54.6919532 C42.3722865,54.6919532 44.1172214,53.3157929 45.1378437,52.0051641 L45.170767,52.0051641 C45.4341534,53.7417473 46.3560058,54.5281246 48.1009407,54.5281246 C48.79233,54.5281246 49.2203329,54.3970617 49.5495658,54.2659988 L49.5495658,52.3328213 L49.4507959,52.3328213 C47.9692475,52.6604785 47.6400145,51.9068669 47.6400145,50.5307067 L47.6400145,42.4703393 C47.6400145,38.4401556 44.9732272,37.0967611 41.3516643,37.0967611 C36.8411722,37.0967611 34.6682344,39.5541901 34.5694645,42.8307622 L37.1374819,42.8307622 C37.2362518,40.275036 38.6190304,39.09547 41.3845876,39.09547 C43.8209117,39.09547 45.2036903,40.1767388 45.2036903,42.0771507 C45.2036903,43.912031 43.524602,44.1413911 41.1212012,44.501814 C36.8740955,45.1571284 33.7134588,45.9762714 33.7134588,49.9736894 C33.7134588,53.18473 36.2485528,54.6919532 39.4750362,54.6919532 Z M40.0676556,52.6604785 C38.3227207,52.6604785 36.5448625,52.1689927 36.5448625,49.908158 C36.5448625,47.4179632 38.684877,46.9592431 41.3516643,46.4677573 C42.8002894,46.2056315 44.3476845,45.7796771 45.2366136,45.2226599 L45.2366136,48.1060433 C45.2366136,50.0719866 43.6233719,52.6604785 40.0676556,52.6604785 Z M54.1917511,54.364296 L54.1917511,44.9605341 C54.1917511,41.7822592 56.4963821,39.8163159 59.130246,39.8163159 C59.6570188,39.8163159 59.9204052,39.8490816 60.3154848,39.9801445 L60.4142547,39.9801445 L60.4142547,37.4244183 C60.0850217,37.2933554 59.8216353,37.227824 59.3277858,37.227824 C57.0560781,37.227824 55.27822,38.6039842 54.2575977,40.2422703 L54.1917511,40.2422703 L54.1917511,37.4244183 L51.5249638,37.4244183 L51.5249638,54.364296 L54.1917511,54.364296 Z M65.4844428,54.364296 L65.4844428,43.9447967 C65.4844428,41.1597105 67.4598408,39.2592987 70.1595514,39.2592987 C72.5629522,39.2592987 74.0115774,40.504396 74.0115774,42.6996994 L74.0115774,54.364296 L76.6783647,54.364296 L76.6783647,42.4703393 C76.6783647,38.9644072 74.5054269,37.0312296 70.9497106,37.0312296 C68.4804631,37.0312296 66.7684515,38.046967 65.5502894,39.6524873 L65.4844428,39.6524873 L65.4844428,37.4244183 L62.8176556,37.4244183 L62.8176556,54.364296 L65.4844428,54.364296 Z M82.867945,34.2133776 L82.867945,30.9368055 L80.2011577,30.9368055 L80.2011577,34.2133776 L82.867945,34.2133776 Z M82.867945,54.364296 L82.867945,37.4244183 L80.2011577,37.4244183 L80.2011577,54.364296 L82.867945,54.364296 Z M89.1562952,54.364296 L89.1562952,43.9447967 C89.1562952,41.1597105 91.1316932,39.2592987 93.8314038,39.2592987 C96.2348046,39.2592987 97.6834298,40.504396 97.6834298,42.6996994 L97.6834298,54.364296 L100.350217,54.364296 L100.350217,42.4703393 C100.350217,38.9644072 98.1772793,37.0312296 94.621563,37.0312296 C92.1523155,37.0312296 90.4403039,38.046967 89.2221418,39.6524873 L89.1562952,39.6524873 L89.1562952,37.4244183 L86.489508,37.4244183 L86.489508,54.364296 L89.1562952,54.364296 Z M110.65521,60 C115.165702,60 118.128799,57.9029939 118.128799,53.4468558 L118.128799,37.4244183 L115.462012,37.4244183 L115.462012,39.5869559 L115.396165,39.5869559 C114.243849,37.9814355 112.663531,37.0312296 110.194284,37.0312296 C106.243488,37.0312296 102.918234,40.1112074 102.918234,45.3864885 C102.918234,50.2685809 105.947178,53.774513 110.3589,53.774513 C112.795224,53.774513 114.14508,52.7587757 115.396165,51.1532553 L115.462012,51.1532553 L115.462012,53.545153 C115.462012,56.4940679 113.717077,57.9029939 110.589363,57.9029939 C107.955499,57.9029939 106.177641,57.182148 105.914255,55.3145019 L103.445007,55.3145019 C103.741317,58.2306511 106.243488,60 110.65521,60 Z M110.490593,51.546444 C107.329957,51.546444 105.650868,49.1217807 105.650868,45.4192542 C105.650868,41.7494934 107.26411,39.2592987 110.45767,39.2592987 C114.079233,39.2592987 115.659551,41.5528991 115.659551,45.2554256 C115.659551,48.8268892 114.408466,51.546444 110.490593,51.546444 Z M128.532562,54.364296 L131.067656,47.2213688 L140.450796,47.2213688 L142.952967,54.364296 L146.17945,54.364296 L137.487699,30.9368055 L134.162446,30.9368055 L125.503618,54.364296 L128.532562,54.364296 Z M139.627713,44.8294712 L131.923661,44.8294712 L134.722142,36.9656982 C134.759016,36.8582266 134.796944,36.7467707 134.83552,36.6326559 L135.01213,36.1056635 C135.408263,34.9145641 135.808611,33.6563604 135.808611,33.6563604 L135.874457,33.6563604 C135.874457,33.6563604 136.467077,35.6550694 136.928003,36.9656982 L139.627713,44.8294712 Z M150.986252,59.8034057 L150.986252,52.365587 L151.052098,52.365587 C152.4678,54.1677017 154.113965,54.8557818 156.418596,54.8557818 C161.027858,54.8557818 163.826339,51.3826154 163.826339,45.9435057 C163.826339,40.3078017 160.830318,37.0312296 156.517366,37.0312296 C154.048119,37.0312296 152.336107,38.0797327 151.052098,39.8163159 L150.986252,39.8163159 L150.986252,37.4244183 L148.319465,37.4244183 L148.319465,59.8034057 L150.986252,59.8034057 Z M156.221056,52.6277128 C152.303184,52.6277128 150.821635,49.6460322 150.821635,45.9762714 C150.821635,42.3065107 152.533647,39.2920644 156.25398,39.2920644 C159.480463,39.2920644 161.093705,42.1754478 161.093705,45.9762714 C161.093705,49.8098608 159.480463,52.6277128 156.221056,52.6277128 Z M169.159913,59.8034057 L169.159913,52.365587 L169.22576,52.365587 C170.641462,54.1677017 172.287627,54.8557818 174.592258,54.8557818 C179.20152,54.8557818 182,51.3826154 182,45.9435057 C182,40.3078017 179.00398,37.0312296 174.691027,37.0312296 C172.22178,37.0312296 170.509768,38.0797327 169.22576,39.8163159 L169.159913,39.8163159 L169.159913,37.4244183 L166.493126,37.4244183 L166.493126,59.8034057 L169.159913,59.8034057 Z M174.394718,52.6277128 C170.476845,52.6277128 168.995297,49.6460322 168.995297,45.9762714 C168.995297,42.3065107 170.707308,39.2920644 174.427641,39.2920644 C177.654124,39.2920644 179.267366,42.1754478 179.267366,45.9762714 C179.267366,49.8098608 177.654124,52.6277128 174.394718,52.6277128 Z" id="LearningApp"></path>
            </g>
        </g>
    </g>
</svg>