<?xml version="1.0" encoding="UTF-8"?>
<svg width="32px" height="32px" viewBox="0 0 32 32" version="1.1" xmlns="http://www.w3.org/2000/svg" xmlns:xlink="http://www.w3.org/1999/xlink">
    <title>3</title>
    <g id="3" stroke="none" stroke-width="1" fill="none" fill-rule="evenodd">
        <g id="iconfinder_healthcare-hospital-doctor-stethoscope-medicine_3184764" transform="translate(1.000000, 1.000000)">
            <g id="_x36_4px_boxes">
                <rect id="Rectangle" x="0" y="0" width="30" height="30"></rect>
            </g>
            <g id="Production" transform="translate(2.815163, 1.875000)" fill="#000000" fill-opacity="0.85" fill-rule="nonzero" stroke="#000000" stroke-opacity="0.85" stroke-width="0.5">
                <path d="M23.9035872,4.6875 C22.3526809,4.6875 21.0910872,5.94909375 21.0910872,7.5 C21.0910872,8.10646875 21.2859934,8.66723437 21.6136028,9.12707812 L20.0025091,10.7382187 C18.8997747,11.8409531 18.1497278,13.2312187 17.8336028,14.7585469 L16.2002903,22.6526719 C15.8251966,24.4654219 14.2095091,25.78125 12.3583216,25.78125 C10.1949466,25.78125 8.43483718,24.0211406 8.43483718,21.8577656 L8.43483718,18.72825 C11.5861966,18.5075625 14.2414778,16.0918594 14.7080247,12.9297656 L15.8994934,4.6978125 C16.1723059,2.84953125 14.8545559,0.9375 12.5675247,0.9375 C12.3737903,0.392578125 11.8586809,0 11.2473372,0 C10.4707591,0 9.84108718,0.629578125 9.84108718,1.40625 C9.84108718,2.18292188 10.4707591,2.8125 11.2473372,2.8125 C11.8586809,2.8125 12.3737903,2.41992187 12.5675247,1.875 L12.6769309,1.875 C14.1077434,1.875 15.1807591,3.14723438 14.9720716,4.5609375 L13.7806028,12.7928906 C13.3583059,15.6546094 10.8586966,17.8125 7.96608718,17.8125 C5.07347781,17.8125 2.57386843,15.6546094 2.15157156,12.7928906 L0.962962182,4.5609375 C0.770680932,3.25828125 1.67227468,1.875 3.36464968,1.875 C3.55838406,2.41992187 4.07349343,2.8125 4.68483718,2.8125 C5.46141531,2.8125 6.09108718,2.18292188 6.09108718,1.40625 C6.09108718,0.629578125 5.46141531,0 4.68483718,0 C4.07349343,0 3.55838406,0.392578125 3.36464968,0.9375 C1.07602468,0.9375 -0.237037818,2.851125 0.0355403071,4.6978125 L1.22414968,12.9297656 C1.69069656,16.0918594 4.34597781,18.5075625 7.49733718,18.72825 L7.49733718,21.8577656 C7.49733718,24.5381719 9.67791531,26.71875 12.3583216,26.71875 C14.6517278,26.71875 16.6537591,25.0886719 17.1186184,22.8426563 L18.7519309,14.9485313 C19.0306966,13.600875 19.6923841,12.3740625 20.6653684,11.4010781 L22.2764622,9.7899375 C22.7363997,10.1175937 23.2970716,10.3125 23.9035872,10.3125 C25.4544934,10.3125 26.7160872,9.05090625 26.7160872,7.5 C26.7160872,5.94909375 25.4544934,4.6875 23.9035872,4.6875 Z M23.9035872,9.375 C22.8697122,9.375 22.0285872,8.533875 22.0285872,7.5 C22.0285872,6.466125 22.8697122,5.625 23.9035872,5.625 C24.9374622,5.625 25.7785872,6.466125 25.7785872,7.5 C25.7785872,8.533875 24.9374622,9.375 23.9035872,9.375 Z" id="Shape"></path>
            </g>
        </g>
    </g>
</svg>