<?xml version="1.0" encoding="UTF-8"?>
<svg width="100px" height="100px" viewBox="0 0 100 100" version="1.1" xmlns="http://www.w3.org/2000/svg" xmlns:xlink="http://www.w3.org/1999/xlink">
    <title>it</title>
    <g id="it" stroke="none" stroke-width="1" fill="none" fill-rule="evenodd">
        <rect id="Rectangle" stroke="#979797" fill="#D8D8D8" opacity="0" x="0.5" y="0.5" width="99" height="99"></rect>
        <g id="iconfinder_19_5084999" transform="translate(17.000000, 10.000000)" stroke="#000000" stroke-linecap="round" stroke-linejoin="round" stroke-opacity="0.85" stroke-width="2.4">
            <path d="M33.9094488,14.0983078 C35.8582677,10.7042707 40.015748,9.52941176 43.3937008,11.3569702 C46.7716535,13.1845286 47.9409449,17.4923449 46.1220472,20.886382" id="Path"></path>
            <path d="M43.3937008,54.9572925 C46.7716535,52.9991942 47.9409449,48.8219178 46.1220472,45.4278807" id="Path"></path>
            <path d="M50.2795276,24.8025786 C54.9566929,24.8025786 58.7244094,28.5882353 58.7244094,33.2876712 C58.7244094,37.9871072 54.9566929,41.7727639 50.2795276,41.7727639" id="Path"></path>
            <path d="M22.6062992,54.9572925 C19.2283465,52.9991942 18.0590551,48.8219178 19.8779528,45.4278807" id="Path"></path>
            <path d="M32.0905512,14.0983078 C30.1417323,10.7042707 25.984252,9.52941176 22.6062992,11.3569702 C19.2283465,13.3150685 18.0590551,17.4923449 19.8779528,20.886382" id="Path"></path>
            <path d="M15.7204724,41.642224 C11.0433071,41.642224 7.27559055,37.8565673 7.27559055,33.1571313 C7.27559055,28.4576954 11.0433071,24.6720387 15.7204724,24.6720387" id="Path"></path>
            <path d="M25.984252,55.8710717 C23.1259843,55.8710717 20.6574803,54.1740532 19.6181102,51.6937953 C19.3582677,51.6937953 19.2283465,51.6937953 18.9685039,51.6937953 C15.0708661,51.6937953 11.9527559,48.560838 11.9527559,44.6446414 C11.9527559,43.3392425 12.3425197,42.1643836 12.8622047,41.1200645 C9.48425197,39.9452055 7.14566929,36.8122482 7.14566929,33.1571313 C7.14566929,29.5020145 9.48425197,26.2385173 12.8622047,25.1941982 C12.2125984,24.1498791 11.9527559,22.9750201 11.9527559,21.6696213 C11.9527559,17.7534247 15.0708661,14.6204674 18.9685039,14.6204674 C19.2283465,14.6204674 19.3582677,14.6204674 19.6181102,14.6204674 C20.6574803,12.1402095 23.1259843,10.443191 25.984252,10.443191 C29.8818898,10.443191 32.8700787,13.5761483 33,17.4923449 C33,13.5761483 36.1181102,10.443191 40.015748,10.443191 C42.8740157,10.443191 45.3425197,12.1402095 46.3818898,14.6204674 C46.6417323,14.6204674 46.7716535,14.6204674 47.0314961,14.6204674 C50.9291339,14.6204674 54.0472441,17.7534247 54.0472441,21.6696213 C54.0472441,22.9750201 53.6574803,24.1498791 53.1377953,25.1941982 C56.515748,26.3690572 58.8543307,29.5020145 58.8543307,33.1571313 C58.8543307,36.8122482 56.515748,40.0757454 53.1377953,41.1200645 C53.7874016,42.1643836 54.0472441,43.3392425 54.0472441,44.6446414 C54.0472441,48.560838 50.9291339,51.6937953 47.0314961,51.6937953 C46.7716535,51.6937953 46.6417323,51.6937953 46.3818898,51.6937953 C45.3425197,54.1740532 42.8740157,55.8710717 40.015748,55.8710717" id="Path"></path>
            <path d="M25.8543307,69.8388396 L40.015748,69.8388396 C41.7047244,69.8388396 43.003937,71.1442385 43.003937,72.8412571 L43.003937,72.8412571 C43.003937,74.5382756 41.7047244,75.8436745 40.015748,75.8436745 L25.8543307,75.8436745 C24.1653543,75.8436745 22.8661417,74.5382756 22.8661417,72.8412571 L22.8661417,72.8412571" id="Path"></path>
            <path d="M40.1456693,69.8388396 L25.8543307,69.8388396 C24.1653543,69.8388396 22.8661417,68.5334408 22.8661417,66.8364222 L22.8661417,66.8364222 C22.8661417,65.1394037 24.1653543,63.8340048 25.8543307,63.8340048 L40.015748,63.8340048 C41.7047244,63.8340048 43.003937,65.1394037 43.003937,66.8364222 L43.003937,66.8364222" id="Path"></path>
            <path d="M36.7677165,79.7598711 C35.7283465,80.5431104 34.4291339,80.9347301 33,80.9347301 C31.5708661,80.9347301 30.4015748,80.5431104 29.2322835,79.7598711" id="Path"></path>
            <path d="M30.5314961,58.4818695 L30.5314961,33.1571313 C30.5314961,31.3295729 29.1023622,29.8936342 27.2834646,29.8936342 C25.4645669,29.8936342 24.0354331,31.3295729 24.0354331,33.1571313 C24.0354331,34.9846898 25.4645669,36.4206285 27.2834646,36.4206285 L38.8464567,36.4206285 C40.6653543,36.4206285 42.0944882,34.9846898 42.0944882,33.1571313 C42.0944882,31.3295729 40.6653543,29.8936342 38.8464567,29.8936342 C37.0275591,29.8936342 35.5984252,31.3295729 35.5984252,33.1571313 L35.5984252,58.4818695" id="Path"></path>
            <line x1="33" y1="17.4923449" x2="33" y2="23.2360999" id="Path"></line>
            <g id="Group">
                <g transform="translate(0.000000, 32.504432)" id="Path">
                    <line x1="63.1417323" y1="0.652699436" x2="66" y2="0.652699436"></line>
                    <line x1="-2.30786519e-15" y1="0.652699436" x2="2.85826772" y2="0.652699436"></line>
                </g>
                <line x1="33" y1="0" x2="33" y2="3.00241741" id="Path"></line>
            </g>
            <g id="Group" transform="translate(9.614173, 9.790492)">
                <g transform="translate(0.000000, 0.000000)" id="Path">
                    <line x1="44.6929134" y1="44.7751813" x2="46.7716535" y2="46.8638195"></line>
                    <line x1="4.61573037e-15" y1="0" x2="2.07874016" y2="2.0886382"></line>
                </g>
                <g transform="translate(0.000000, 0.000000)" id="Path">
                    <line x1="2.07874016" y1="44.7751813" x2="4.61573037e-15" y2="46.8638195"></line>
                    <line x1="46.7716535" y1="0" x2="44.6929134" y2="2.0886382"></line>
                </g>
            </g>
        </g>
    </g>
</svg>