<?xml version="1.0" encoding="UTF-8"?>
<svg width="100px" height="100px" viewBox="0 0 100 100" version="1.1" xmlns="http://www.w3.org/2000/svg" xmlns:xlink="http://www.w3.org/1999/xlink">
    <title>customer insight</title>
    <g id="customer-insight" stroke="none" stroke-width="1" fill="none" fill-rule="evenodd">
        <rect id="Rectangle" stroke="#979797" fill="#D8D8D8" opacity="0" x="0.5" y="0.5" width="99" height="99"></rect>
        <g id="iconfinder_Target-customer-audience-seo-web-targeting_4956758" opacity="0.85" transform="translate(13.000000, 13.000000)" fill="#000000" fill-rule="nonzero" stroke="#000000" stroke-width="0.4">
            <path d="M74,35.7666667 L67.8065083,35.7666667 C67.1728833,19.7442792 54.255875,6.82711667 38.2333333,6.19349167 L38.2333333,0 L35.7666667,0 L35.7666667,6.19349167 C19.744125,6.82711667 6.82711667,19.7442792 6.19349167,35.7666667 L0,35.7666667 L0,38.2333333 L6.19349167,38.2333333 C6.82711667,54.2557208 19.744125,67.1728833 35.7666667,67.8065083 L35.7666667,74 L38.2333333,74 L38.2333333,67.8065083 C54.255875,67.1728833 67.1728833,54.2552583 67.8065083,38.2333333 L74,38.2333333 L74,35.7666667 Z M35.7666667,59.2 L35.7666667,65.3383 C29.9466209,65.0905834 24.3459014,63.0475594 19.7333333,59.4896792 L19.7333333,53.0333333 C19.7387707,48.267529 23.6008624,44.4054373 28.3666667,44.4 L45.6333333,44.4 C50.3991376,44.4054373 54.2612293,48.267529 54.2666667,53.0333333 L54.2666667,59.4896792 C49.6540986,63.0475594 44.0533791,65.0905834 38.2333333,65.3383 L38.2333333,59.2 L35.7666667,59.2 Z M56.7333333,57.3569375 L56.7333333,53.0333333 C56.7264515,46.9058254 51.7608412,41.9402152 45.6333333,41.9333333 L44.791275,41.9333333 C49.6367709,38.5341363 51.7192932,32.3859249 49.9369677,26.741752 C48.1546423,21.0975792 42.9188995,17.2603406 37,17.2603406 C31.0811005,17.2603406 25.8453577,21.0975792 24.0630323,26.741752 C22.2807068,32.3859249 24.3632291,38.5341363 29.208725,41.9333333 L28.3666667,41.9333333 C22.2391588,41.9402152 17.2735485,46.9058254 17.2666667,53.0333333 L17.2666667,57.3569375 C12.0542004,52.3202775 8.97401266,45.4748946 8.6617,38.2333333 L14.8,38.2333333 L14.8,35.7666667 L8.6617,35.7666667 C9.29239583,21.1044917 21.1044917,9.29239583 35.7666667,8.6617 L35.7666667,14.8 L38.2333333,14.8 L38.2333333,8.6617 C52.8955083,9.29239583 64.7076042,21.1044917 65.3383,35.7666667 L59.2,35.7666667 L59.2,38.2333333 L65.3383,38.2333333 C65.0259873,45.4748946 61.9457996,52.3202775 56.7333333,57.3569375 L56.7333333,57.3569375 Z M37,41.9333333 C30.8696393,41.9333333 25.9,36.9636941 25.9,30.8333333 C25.9,24.7029726 30.8696393,19.7333333 37,19.7333333 C43.1303607,19.7333333 48.1,24.7029726 48.1,30.8333333 C48.0931182,36.9608412 43.1275079,41.9264515 37,41.9333333 Z" id="Shape"></path>
        </g>
    </g>
</svg>