<?xml version="1.0" encoding="UTF-8"?>
<svg width="32px" height="32px" viewBox="0 0 32 32" version="1.1" xmlns="http://www.w3.org/2000/svg" xmlns:xlink="http://www.w3.org/1999/xlink">
    <title>2</title>
    <g id="2" stroke="none" stroke-width="1" fill="none" fill-rule="evenodd">
        <g id="iconfinder_calendar_date_event_5574315" transform="translate(2.000000, 1.000000)" fill="#222222" fill-rule="nonzero">
            <path d="M25.0150238,29 L3.98497618,29 C1.78413461,29 0,27.1723336 0,24.9177928 L0,6.50431682 C0.0029269873,4.25101918 1.78534815,2.42510801 3.98497618,2.42210961 L25.0150238,2.42210961 C27.2146519,2.42510801 28.997073,4.25101918 29,6.50431682 L29,24.9177928 C29,27.1723336 27.2158654,29 25.0150238,29 Z M3.98497618,4.05499249 C2.66568348,4.05798582 1.5969125,5.15283416 1.59399047,6.50431682 L1.59399047,24.9177928 C1.5969125,26.2692754 2.66568348,27.3641238 3.98497618,27.3671171 L25.0150238,27.3671171 C26.3343165,27.3641238 27.4030875,26.2692754 27.4060095,24.9177928 L27.4060095,6.50431682 C27.4030875,5.15283416 26.3343165,4.05798582 25.0150238,4.05499249 L3.98497618,4.05499249 Z" id="Shape"></path>
            <path d="M28.2030048,11.6097973 L0.796995236,11.6097973 C0.356826922,11.6097973 0,11.244264 0,10.7933559 C0,10.3424477 0.356826922,9.97691441 0.796995236,9.97691441 L28.2030048,9.97691441 C28.6431731,9.97691441 29,10.3424477 29,10.7933559 C29,11.244264 28.6431731,11.6097973 28.2030048,11.6097973 L28.2030048,11.6097973 Z" id="Path"></path>
            <path d="M8.25687065,6.48254505 C7.81670233,6.48254505 7.45987541,6.11701176 7.45987541,5.6661036 L7.45987541,0.816441441 C7.45987541,0.365533284 7.81670233,0 8.25687065,0 C8.69703896,0 9.05386588,0.365533284 9.05386588,0.816441441 L9.05386588,5.6661036 C9.05386588,6.11701176 8.69703896,6.48254505 8.25687065,6.48254505 L8.25687065,6.48254505 Z" id="Path"></path>
            <path d="M20.7431294,6.48254505 C20.302961,6.48254505 19.9461341,6.11701176 19.9461341,5.6661036 L19.9461341,0.816441441 C19.9461341,0.365533284 20.302961,0 20.7431294,0 C21.1832977,0 21.5401246,0.365533284 21.5401246,0.816441441 L21.5401246,5.6661036 C21.5401246,6.11701176 21.1832977,6.48254505 20.7431294,6.48254505 L20.7431294,6.48254505 Z" id="Path"></path>
        </g>
    </g>
</svg>