<?xml version="1.0" encoding="UTF-8"?>
<svg width="30px" height="30px" viewBox="0 0 30 30" version="1.1" xmlns="http://www.w3.org/2000/svg" xmlns:xlink="http://www.w3.org/1999/xlink">
    <title>1</title>
    <g id="1" stroke="none" stroke-width="1" fill="none" fill-rule="evenodd">
        <g id="iconfinder_route_3803289" transform="translate(5.000000, 4.000000)" fill="#000000" fill-rule="nonzero" stroke="#FFFFFF" stroke-width="0.550000677">
            <path d="M16.5664153,2.63106878 L9.42852779,2.63106878 C8.96685173,0.911021874 7.29725751,-0.201499518 5.52580571,0.03051964 C3.75435391,0.262538798 2.42993101,1.76720709 2.42993101,3.54772287 C2.42993101,5.32823864 3.75435391,6.83290693 5.52580571,7.06492609 C7.29725751,7.29694525 8.96685173,6.18442386 9.42852779,4.46437695 L16.5664153,4.46437695 C17.9415725,4.54594738 19.0148655,5.68109127 19.0148655,7.05392475 C19.0148655,8.42675823 17.9415725,9.56190212 16.5664153,9.64347255 L4.24068175,9.64347255 C1.8680449,9.75114202 0,11.6994357 0,14.0663285 C0,16.4332213 1.8680449,18.381515 4.24068175,18.4891845 L10.0172195,18.4891845 L8.06717812,20.4324912 C7.8930425,20.6046082 7.79509369,20.8389012 7.79509369,21.0833156 C7.79509369,21.3277299 7.8930425,21.5620229 8.06717812,21.73414 C8.24076752,21.9057252 8.47576424,22.0013783 8.72025803,21.999985 C8.96475182,22.0013783 9.19974854,21.9057252 9.37333794,21.73414 L12.8870918,18.2233548 C13.2437319,17.8658254 13.2437319,17.288402 12.8870918,16.9308725 L9.37333794,13.4200874 C9.20062443,13.2465532 8.96551946,13.1489426 8.72025803,13.1489426 C8.4749966,13.1489426 8.23989163,13.2465532 8.06717812,13.4200874 C7.71053799,13.7776168 7.71053799,14.3550402 8.06717812,14.7125697 L10.0172195,16.6558763 L4.24068175,16.6558763 C2.86552446,16.5743059 1.79223155,15.439162 1.79223155,14.0663285 C1.79223155,12.693495 2.86552446,11.5583511 4.24068175,11.4767807 L16.5664153,11.4767807 C18.9390521,11.3691112 20.807097,9.42081754 20.807097,7.05392475 C20.807097,4.68703196 18.9390521,2.73873825 16.5664153,2.63106878 L16.5664153,2.63106878 Z M6.006757,5.26186601 C5.056781,5.26186601 4.28667329,4.49441798 4.28667329,3.54772287 C4.28667329,2.60102775 5.056781,1.83357972 6.006757,1.83357972 C6.95673299,1.83357972 7.7268407,2.60102775 7.7268407,3.54772287 C7.7268407,4.49441798 6.95673299,5.26186601 6.006757,5.26186601 L6.006757,5.26186601 Z" id="Shape"></path>
            <path d="M17.4402546,21.0833156 C15.4742615,21.0833156 13.8805091,19.4950675 13.8805091,17.5358642 C13.8805091,15.576661 15.4742615,13.9884129 17.4402546,13.9884129 C19.4062477,13.9884129 21,15.576661 21,17.5358642 C21,18.4767068 20.6249565,19.379015 19.9573747,20.0442911 C19.2897929,20.7095673 18.3843578,21.0833156 17.4402546,21.0833156 L17.4402546,21.0833156 Z M17.4402546,15.8217211 C16.4902786,15.8217211 15.7201709,16.5891691 15.7201709,17.5358642 C15.7201709,18.4825594 16.4902786,19.2500074 17.4402546,19.2500074 C18.3902306,19.2500074 19.1603383,18.4825594 19.1603383,17.5358642 C19.1403214,16.6035186 18.3760455,15.8581739 17.4402546,15.8583873 L17.4402546,15.8217211 Z" id="Shape"></path>
        </g>
    </g>
</svg>