<?xml version="1.0" encoding="UTF-8"?>
<svg width="30px" height="30px" viewBox="0 0 30 30" version="1.1" xmlns="http://www.w3.org/2000/svg" xmlns:xlink="http://www.w3.org/1999/xlink">
    <title>6</title>
    <g id="6" stroke="none" stroke-width="1" fill="none" fill-rule="evenodd" opacity="0.85">
        <g id="iconfinder_headset-customer-service-support-listen_3209292" transform="translate(3.000000, 4.000000)" fill="#000000" fill-rule="nonzero" stroke="#000000" stroke-width="0.2">
            <path d="M24,12.5 C24,11.1215 22.8785,10 21.5,10 L20.5,10 L20.5,8.5 C20.5,3.813 16.687,0 12,0 C7.313,0 3.5,3.813 3.5,8.5 L3.5,10 L2.5,10 C1.1215,10 0,11.1215 0,12.5 L0,15.5 C0,16.8785 1.1215,18 2.5,18 L5.5,18 L5.5,10 L4.5,10 L4.5,8.5 C4.5,4.3645 7.8645,1 12,1 C16.1355,1 19.5,4.3645 19.5,8.5 L19.5,10 L18.5,10 L18.5,18 L19.5,18 L19.5,20.5 C19.5,21.327 18.827,22 18,22 L13,22 L13,23 L18,23 C19.3785,23 20.5,21.8785 20.5,20.5 L20.5,18 L21.5,18 C22.8785,18 24,16.8785 24,15.5 L24,12.5 Z M4.5,17 L2.5,17 C1.673,17 1,16.327 1,15.5 L1,12.5 C1,11.673 1.673,11 2.5,11 L4.5,11 L4.5,17 Z M23,15.5 C23,16.327 22.327,17 21.5,17 L19.5,17 L19.5,11 L21.5,11 C22.327,11 23,11.673 23,12.5 L23,15.5 Z" id="Shape"></path>
        </g>
    </g>
</svg>