<?xml version="1.0" encoding="UTF-8"?>
<svg width="126px" height="36px" viewBox="0 0 126 36" version="1.1" xmlns="http://www.w3.org/2000/svg" xmlns:xlink="http://www.w3.org/1999/xlink">
    <title>after effects</title>
    <g id="Page-1" stroke="none" stroke-width="1" fill="none" fill-rule="evenodd">
        <g id="App-Development" transform="translate(-551.000000, -5604.000000)">
            <g id="Group-56" transform="translate(551.000000, 5604.000000)">
                <g id="Adobe-After-Effects-CC-logo" fill-rule="nonzero">
                    <g id="vlpb" fill="#000000" fill-opacity="0.85">
                        <g id="vlpd">
                            <path d="M6.55208333,0 L30.4479167,0 C34.0708333,0 37,2.92307692 37,6.53846154 L37,29.4615385 C37,33.0769231 34.0708333,36 30.4479167,36 L6.55208333,36 C2.92916667,36 0,33.0769231 0,29.4615385 L0,6.53846154 C0,2.92307692 2.92916667,0 6.55208333,0 Z" id="Path"></path>
                        </g>
                    </g>
                    <g id="vlpf" transform="translate(4.577277, 9.261538)" fill="#FFFFFF">
                        <path d="M10.2843898,12.2769231 L4.5493898,12.2769231 L3.37772313,15.9076923 C3.3468898,16.0461538 3.22355647,16.1384615 3.08480647,16.1230769 L0.186473134,16.1230769 C0.0168898011,16.1230769 -0.0293601989,16.0307692 0.0168898011,15.8461538 L4.98105647,1.64615385 C5.02730647,1.49230769 5.07355647,1.35384615 5.13522313,1.16923077 C5.1968898,0.846153846 5.22772313,0.507692308 5.22772313,0.169230769 C5.21230647,0.0923076923 5.27397313,0.0153846154 5.35105647,0 L5.39730647,0 L9.34397313,0 C9.4518898,0 9.52897313,0.0461538462 9.5443898,0.123076923 L15.1714731,15.8153846 C15.2177231,15.9846154 15.1714731,16.0615385 15.0173065,16.0615385 L11.7952231,16.0615385 C11.6873065,16.0769231 11.5793898,16 11.5485565,15.8923077 L10.2843898,12.2 L10.2843898,12.2769231 Z M5.44355647,9.21538462 L9.3593898,9.21538462 C9.2668898,8.89230769 9.14355647,8.50769231 9.00480647,8.10769231 C8.86605647,7.69230769 8.72730647,7.24615385 8.58855647,6.78461538 C8.4343898,6.30769231 8.2956398,5.84615385 8.14147313,5.36923077 C7.98730647,4.89230769 7.84855647,4.44615385 7.72522313,4 C7.6018898,3.56923077 7.49397313,3.16923077 7.38605647,2.8 L7.35522313,2.8 C7.21647313,3.46153846 7.0468898,4.12307692 6.83105647,4.78461538 C6.59980647,5.52307692 6.36855647,6.29230769 6.1218898,7.06153846 C5.92147313,7.84615385 5.67480647,8.56923077 5.44355647,9.21538462 L5.44355647,9.21538462 Z" id="Shape"></path>
                        <path d="M24.2518898,10.8923077 L19.3648065,10.8923077 C19.4264731,11.3692308 19.5806398,11.8461538 19.8427231,12.2615385 C20.1202231,12.6769231 20.5056398,13 20.9681398,13.1846154 C21.5848065,13.4461538 22.2631398,13.5846154 22.9414731,13.5692308 C23.4810565,13.5538462 24.0206398,13.5076923 24.5448065,13.4 C25.0227231,13.3384615 25.4852231,13.2153846 25.9168898,13.0461538 C25.9939731,12.9846154 26.0402231,13.0153846 26.0402231,13.1692308 L26.0402231,15.5230769 C26.0402231,15.5846154 26.0248065,15.6461538 26.0093898,15.7076923 C25.9785565,15.7538462 25.9477231,15.7846154 25.9014731,15.8153846 C25.4081398,16.0307692 24.8993898,16.1846154 24.3598065,16.2769231 C23.6352231,16.4153846 22.9106398,16.4769231 22.1706398,16.4615385 C20.9989731,16.4615385 20.0123065,16.2769231 19.2106398,15.9230769 C18.4552231,15.6 17.7923065,15.0923077 17.2681398,14.4615385 C16.7748065,13.8615385 16.4202231,13.1846154 16.2043898,12.4461538 C15.9885565,11.7230769 15.8806398,10.9692308 15.8806398,10.2 C15.8806398,9.36923077 16.0039731,8.55384615 16.2660565,7.75384615 C16.5127231,6.98461538 16.8981398,6.27692308 17.4223065,5.64615385 C17.9310565,5.03076923 18.5631398,4.53846154 19.2877231,4.18461538 C20.0123065,3.83076923 20.8756398,3.70769231 21.8623065,3.70769231 C22.6793898,3.69230769 23.4964731,3.84615385 24.2518898,4.18461538 C24.8839731,4.46153846 25.4389731,4.87692308 25.8706398,5.41538462 C26.2714731,5.93846154 26.5952231,6.52307692 26.7956398,7.16923077 C26.9960565,7.78461538 27.0885565,8.41538462 27.0885565,9.04615385 C27.0885565,9.41538462 27.0731398,9.73846154 27.0577231,10.0307692 C27.0268898,10.3230769 27.0114731,10.5384615 26.9960565,10.6769231 C26.9806398,10.7846154 26.8881398,10.8769231 26.7802231,10.8769231 C26.6877231,10.8769231 26.5181398,10.8923077 26.2714731,10.9076923 C26.0248065,10.9384615 25.7318898,10.9538462 25.3773065,10.9538462 C25.0227231,10.9538462 24.6527231,10.8923077 24.2518898,10.8923077 L24.2518898,10.8923077 Z M19.3648065,8.64615385 L22.6177231,8.64615385 C23.0185565,8.64615385 23.3114731,8.64615385 23.4964731,8.63076923 C23.6198065,8.61538462 23.7431398,8.58461538 23.8510565,8.50769231 L23.8510565,8.35384615 C23.8510565,8.15384615 23.8202231,7.96923077 23.7585565,7.78461538 C23.4810565,6.92307692 22.6639731,6.33846154 21.7543898,6.36923077 C20.9064731,6.32307692 20.1048065,6.76923077 19.7039731,7.53846154 C19.5189731,7.89230769 19.4110565,8.26153846 19.3648065,8.64615385 Z" id="Shape"></path>
                    </g>
                </g>
                <text id="Adobe" font-family="AvenirNext-Regular, Avenir Next" font-size="11" font-weight="normal" letter-spacing="-0.510714286" fill="#000000" fill-opacity="0.85">
                    <tspan x="45" y="11">Adobe</tspan>
                </text>
                <text id="After-Effects" font-family="AvenirNext-DemiBold, Avenir Next" font-size="16" font-weight="500" letter-spacing="-0.742857143" fill="#000000" fill-opacity="0.85">
                    <tspan x="45" y="29">After Effects</tspan>
                </text>
            </g>
        </g>
    </g>
</svg>