<?xml version="1.0" encoding="UTF-8"?>
<svg width="32px" height="32px" viewBox="0 0 32 32" version="1.1" xmlns="http://www.w3.org/2000/svg" xmlns:xlink="http://www.w3.org/1999/xlink">
    <title>6</title>
    <g id="6" stroke="none" stroke-width="1" fill="none" fill-rule="evenodd" opacity="0.85">
        <g id="iconfinder_17_2210424" transform="translate(4.000000, 5.000000)" fill="#000000" fill-rule="nonzero" stroke="#000000" stroke-width="0.3">
            <path d="M20.7393162,22 L20.7393162,19.8631347 L23,19.8631347 L23,9.5187638 C23,8.20750552 22.017094,7.09050773 20.7393162,6.84768212 L20.7393162,2.7196468 C20.7393162,1.21412804 19.5106838,0 17.9871795,0 L4.86538462,0 C3.34188034,0 2.11324786,1.21412804 2.11324786,2.7196468 L2.11324786,6.89624724 C0.884615385,7.18763797 0,8.25607064 0,9.5187638 L0,19.8631347 L2.11324786,19.8631347 L2.11324786,22 L3.04700855,22 L3.04700855,19.8631347 L19.7564103,19.8631347 L19.7564103,22 L20.7393162,22 L20.7393162,22 Z M3.09615385,2.7196468 C3.09615385,1.74834437 3.88247863,0.971302428 4.86538462,0.971302428 L18.0363248,0.971302428 C19.0192308,0.971302428 19.8055556,1.74834437 19.8055556,2.7196468 L19.8055556,6.84768212 C18.5277778,7.0419426 17.5448718,8.1589404 17.5448718,9.5187638 L17.5448718,11.8984547 L5.45512821,11.8984547 L5.45512821,9.5187638 C5.45512821,8.1589404 4.42307692,6.99337748 3.04700855,6.84768212 L3.04700855,2.7196468 L3.09615385,2.7196468 Z M17.5448718,12.8697572 L17.5448718,14.4238411 L5.45512821,14.4238411 L5.45512821,12.8211921 L17.5448718,12.8211921 L17.5448718,12.8697572 Z M0.933760684,18.8918322 L0.933760684,9.5187638 C0.933760684,8.54746137 1.72008547,7.77041943 2.70299145,7.77041943 C3.68589744,7.77041943 4.47222222,8.54746137 4.47222222,9.5187638 L4.47222222,11.8984547 L4.47222222,15.3951435 L18.4294872,15.3951435 L18.4294872,11.8984547 L18.4294872,9.5187638 C18.4294872,8.54746137 19.215812,7.77041943 20.1987179,7.77041943 C21.1816239,7.77041943 21.9679487,8.54746137 21.9679487,9.5187638 L21.9679487,18.8918322 L0.933760684,18.8918322 Z" id="Shape"></path>
        </g>
    </g>
</svg>