<?xml version="1.0" encoding="UTF-8"?>
<svg width="32px" height="32px" viewBox="0 0 32 32" version="1.1" xmlns="http://www.w3.org/2000/svg" xmlns:xlink="http://www.w3.org/1999/xlink">
    <title>7</title>
    <g id="7" stroke="none" stroke-width="1" fill="none" fill-rule="evenodd" opacity="0.85">
        <g id="iconfinder_seo2-100_391515" transform="translate(5.000000, 5.000000)" fill="#000000" fill-rule="nonzero" stroke="#000000" stroke-width="0.2">
            <path d="M15.2142857,2.93571429 L15.2142857,0.428571429 C15.2142857,0.192857143 15.0214286,0 14.7857143,0 C14.55,0 14.3571429,0.192857143 14.3571429,0.428571429 L14.3571429,2.93571429 C14.1428571,3.10714286 13.7785714,3.45 13.7785714,3.85714286 C13.7785714,4.41428571 14.25,4.88571429 14.8071429,4.88571429 C15.3642857,4.88571429 15.8142857,4.43571429 15.8142857,3.85714286 C15.8357143,3.45 15.6428571,3.08571429 15.2142857,2.93571429 Z" id="Path"></path>
            <path d="M6.64285714,2.93571429 L6.64285714,0.428571429 C6.64285714,0.192857143 6.45,0 6.21428571,0 C5.97857143,0 5.78571429,0.192857143 5.78571429,0.428571429 L5.78571429,2.93571429 C5.57142857,3.10714286 5.20714286,3.45 5.20714286,3.85714286 C5.20714286,4.41428571 5.67857143,4.88571429 6.23571429,4.88571429 C6.79285714,4.88571429 7.24285714,4.43571429 7.24285714,3.85714286 C7.26428571,3.45 7.07142857,3.08571429 6.64285714,2.93571429 Z" id="Path"></path>
            <path d="M18.8571429,1.5 L15.6428571,1.5 L15.6428571,2.35714286 L18.8571429,2.35714286 C19.5642857,2.35714286 20.1428571,2.93571429 20.1428571,3.64285714 L20.1428571,6 L0.857142857,6 L0.857142857,3.64285714 C0.857142857,2.93571429 1.43571429,2.35714286 2.14285714,2.35714286 L5.35714286,2.35714286 L5.35714286,1.5 L2.14285714,1.5 C0.964285714,1.5 0,2.46428571 0,3.64285714 L0,18.8571429 C0,20.0357143 0.964285714,21 2.14285714,21 L18.8571429,21 C20.0357143,21 21,20.0357143 21,18.8571429 L21,3.64285714 C21,2.46428571 20.0357143,1.5 18.8571429,1.5 Z M18.8571429,20.1428571 L2.14285714,20.1428571 C1.43571429,20.1428571 0.857142857,19.5642857 0.857142857,18.8571429 L0.857142857,6.85714286 L20.1428571,6.85714286 L20.1428571,18.8571429 C20.1428571,19.5642857 19.5642857,20.1428571 18.8571429,20.1428571 Z" id="Shape"></path>
            <rect id="Rectangle" x="7.07142857" y="1.5" width="6.85714286" height="1"></rect>
        </g>
    </g>
</svg>