<?xml version="1.0" encoding="UTF-8"?>
<svg width="32px" height="32px" viewBox="0 0 32 32" version="1.1" xmlns="http://www.w3.org/2000/svg" xmlns:xlink="http://www.w3.org/1999/xlink">
    <title>5</title>
    <g id="5" stroke="none" stroke-width="1" fill="none" fill-rule="evenodd" stroke-opacity="0.85">
        <g id="iconfinder_ecommerce_ticket_441477" transform="translate(4.000000, 4.000000)" stroke="#000000" stroke-width="1.2">
            <g id="Group">
                <path d="M21.6774194,6.58064516 C21.0967742,7.16129032 20.6322581,7.35483871 19.7419355,7.35483871 C17.9612903,7.35483871 16.6451613,6.03870968 16.6451613,4.25806452 C16.6451613,3.36774194 16.8387097,2.90322581 17.4193548,2.32258065 L15.0967742,0 L0,15.0967742 L2.32258065,17.4193548 C2.90322581,16.8387097 3.36774194,16.6451613 4.25806452,16.6451613 C6.03870968,16.6451613 7.35483871,17.9612903 7.35483871,19.7419355 C7.35483871,20.6322581 7.16129032,21.0967742 6.58064516,21.6774194 L8.90322581,24 L24,8.90322581 L21.6774194,6.58064516 Z" id="Path"></path>
                <line x1="9.67741935" y1="5.41935484" x2="11.2258065" y2="6.96774194" id="Path"></line>
                <line x1="17.0322581" y1="12.7741935" x2="18.5806452" y2="14.3225806" id="Path"></line>
            </g>
            <line x1="12" y1="7.74193548" x2="13.5483871" y2="9.29032258" id="Path"></line>
            <line x1="14.7096774" y1="10.4516129" x2="16.2580645" y2="12" id="Path"></line>
        </g>
    </g>
</svg>