<?xml version="1.0" encoding="UTF-8"?>
<svg width="110px" height="36px" viewBox="0 0 110 36" version="1.1" xmlns="http://www.w3.org/2000/svg" xmlns:xlink="http://www.w3.org/1999/xlink">
    <title>ansible-ar21</title>
    <g id="Page-1" stroke="none" stroke-width="1" fill="none" fill-rule="evenodd">
        <g id="App-Development" transform="translate(-135.000000, -5602.000000)" fill-rule="nonzero">
            <g id="ansible-ar21" transform="translate(135.000000, 5602.000000)">
                <path d="M35.917835,17.9989943 C35.9172808,27.9408379 27.8765127,36 17.9579141,36 C8.03982378,36 0,27.9413342 0,18 C0,8.05866577 8.04082712,0 17.9579141,0 C27.8750011,0 35.9158283,8.05967147 35.9158283,18.0020114" id="Path" fill-opacity="0.85" fill="#000000"></path>
                <path d="M18.2609251,10.9953067 L22.9084309,22.4924573 L15.8890115,16.951056 L18.2609251,10.9953067 Z M26.5164686,25.1404626 L19.3676174,7.89674824 C19.1639379,7.39993295 18.7656089,7.13643983 18.2599217,7.13643983 C17.7542346,7.13643983 17.3268085,7.39993295 17.1221256,7.89674824 L9.27594794,26.8109286 L11.9599026,26.8109286 L15.0652632,19.0127389 L24.3341877,26.5182702 C24.707433,26.8199799 24.9763301,26.9567549 25.3254951,26.9567549 C26.0258316,26.9567549 26.6378736,26.4307744 26.6378736,25.6714717 C26.6378736,25.5477707 26.5937263,25.3516594 26.5154652,25.1404626 L26.5164686,25.1404626 Z" id="Shape" fill="#FFFFFF"></path>
                <path d="M60.5319566,23.3835065 C60.3463373,23.3835065 60.1466712,23.3362387 60.0072059,23.148173 L54.054345,15.3017097 L54.054345,23.305062 L52.6968157,23.305062 L52.6968157,13.4492122 C52.6968157,13.0469326 53.020897,12.7432115 53.3911322,12.7432115 C53.606852,12.7432115 53.7924712,12.8065706 53.9309332,12.9946363 L59.8677406,20.8250084 L59.8677406,12.8528327 L61.2253071,12.8528327 L61.2253071,22.6925914 C61.2271957,22.8772945 61.1544987,23.0549239 61.0237205,23.1850614 C60.8929423,23.315199 60.7152058,23.3867763 60.5309533,23.3835065 M68.3851578,23.4780422 C67.0286319,23.4780422 65.6088951,23.1964465 64.283473,22.693597 L64.6075543,21.5641971 C65.8256182,21.9664767 67.1520436,22.2380154 68.3851578,22.2380154 C70.0968686,22.2380154 70.9918546,21.6265505 70.9918546,20.7636607 C70.9918546,19.9792156 70.2975382,19.586993 67.9075643,18.4565873 C65.5175905,17.3261817 64.5764505,16.6061012 64.5764505,15.1930942 C64.5764505,13.4200469 65.9329764,12.6989608 68.4935193,12.6989608 C69.5570677,12.6989608 71.2025576,12.9202145 72.1336641,13.2018103 L71.9179444,14.3623869 C70.8058965,14.096269 69.6678317,13.9546051 68.5246231,13.9399933 C66.7206042,13.9399933 65.9801337,14.284948 65.9801337,15.1488434 C65.9801337,15.995642 66.5199347,16.3556822 69.0483705,17.5343614 C71.7172749,18.7743882 72.3945345,19.4019444 72.3945345,20.689239 C72.3945345,22.556822 70.6356663,23.4830707 68.3851578,23.4830707 M75.4527378,12.8357358 L76.8554176,12.8357358 L76.8554176,23.2869594 L75.4527378,23.2869594 L75.4527378,12.8357358 Z M86.2286903,18.4324506 L82.7430609,18.4324506 L82.7430609,21.9795508 L86.2286903,21.9795508 C87.4156504,21.9795508 88.1410707,21.2252766 88.1410707,20.1743212 C88.1410707,19.1857191 87.38555,18.4324506 86.2286903,18.4324506 M85.549424,13.9128394 L82.7430609,13.9128394 L82.7430609,17.2557828 L85.549424,17.2557828 C86.6751799,17.2557828 87.4929082,16.5336909 87.4929082,15.5289977 C87.4929082,14.5403956 86.7835415,13.9128394 85.549424,13.9128394 M86.2437405,23.1713041 L82.0497478,23.1713041 C81.6484088,23.1713041 81.3403811,22.857526 81.3403811,22.4653034 L81.3403811,13.4260811 C81.3447625,13.0360424 81.6605997,12.7217039 82.0497478,12.7200805 L85.5193236,12.7200805 C87.6464203,12.7200805 88.9106382,13.7710359 88.9106382,15.4193765 C88.9106382,16.3245055 88.3858875,17.1451559 87.5842128,17.6319142 C88.7721763,17.9939658 89.5738509,18.9815622 89.5738509,20.1743212 C89.5738509,21.8377472 88.2022749,23.1713041 86.2427371,23.1713041 M93.6675089,23.0556487 C93.2822234,23.0556487 92.9651656,22.7257794 92.9651656,22.349648 L92.9651656,12.5943681 L94.3698521,12.5943681 L94.3698521,21.7743882 L99.9715414,21.7743882 L99.9715414,23.0455917 L93.6675089,23.0556487 Z M106.507347,23.1129735 C103.637773,23.1129735 101.912016,22.0469326 101.912016,19.8947368 C101.912016,18.8749581 102.483924,17.9014415 103.593626,17.4468656 C102.690613,16.8816628 102.236097,16.0811264 102.236097,15.2021455 C102.236097,13.256118 103.733091,12.3298693 106.550491,12.3298693 C107.685576,12.3346214 108.817207,12.4555981 109.927759,12.6909152 L109.773243,13.8524975 C108.601334,13.6644318 107.505678,13.5548106 106.44213,13.5548106 C104.622057,13.5548106 103.650817,14.0576601 103.650817,15.2644988 C103.650817,16.2219242 104.545803,16.9741871 105.733766,16.9741871 L108.139794,16.9741871 C108.298877,16.9717522 108.452242,17.0336063 108.565309,17.1458031 C108.678376,17.2579999 108.741626,17.4110937 108.740799,17.5705665 C108.740799,17.9155213 108.479928,18.1820315 108.13879,18.1820315 L105.548147,18.1820315 C104.190618,18.1820315 103.327739,18.8558498 103.327739,19.8917197 C103.327739,21.4133423 104.730419,21.8689239 106.488284,21.8689239 C107.444474,21.8689239 108.739795,21.7442172 109.79933,21.4927925 L110,22.6372779 C108.868134,22.9431684 107.701683,23.1016962 106.529421,23.1089507 M45.0212071,14.9044586 L47.4794086,21.0774388 L43.7670227,18.1005699 L45.0212071,14.9044586 Z M49.3877756,22.4994972 L45.6071621,13.2410325 C45.4988005,12.9745223 45.2830808,12.8326191 45.0212071,12.8326191 C44.7547252,12.8279992 44.5139209,12.9913253 44.4191986,13.2410325 L40.2834001,23.6731478 L41.6880866,23.3955749 L43.3305665,19.2088502 L48.2319192,23.2386859 C48.4295787,23.3995977 48.5710507,23.4740194 48.75667,23.4740194 C48.94075,23.4770146 49.1182249,23.4053159 49.2487837,23.2752087 C49.3793424,23.1451016 49.4519026,22.96763 49.4500203,22.7831043 C49.4435657,22.6854502 49.4218973,22.5894107 49.3857689,22.4984915 L49.3877756,22.4994972 Z" id="Shape" fill-opacity="0.85" fill="#000000"></path>
            </g>
        </g>
    </g>
</svg>