<?xml version="1.0" encoding="UTF-8"?>
<svg width="86px" height="21px" viewBox="0 0 86 21" version="1.1" xmlns="http://www.w3.org/2000/svg" xmlns:xlink="http://www.w3.org/1999/xlink">
    <title>axure</title>
    <g id="Page-1" stroke="none" stroke-width="1" fill="none" fill-rule="evenodd" fill-opacity="0.85">
        <g id="App-Development" transform="translate(-742.000000, -5424.000000)" fill="#000000" fill-rule="nonzero">
            <g id="axure" transform="translate(742.000000, 5424.000000)">
                <path d="M78.141864,0.000262313102 C74.6284592,0.000262313102 72.6436802,0.694605094 71.504066,2.32173327 C70.3134549,4.02125985 70.0741025,6.70393595 70.0741025,10.4822939 C70.0741025,17.8994591 71.1952656,21 78.141864,21 C78.9762656,21 81.8282482,20.9837366 83.4932075,20.7757223 C84.1410475,20.6658131 84.4311405,20.1579749 84.4311405,19.7036487 L84.4311405,18.8844448 C84.4311405,18.247024 83.9606364,17.7659418 83.3361165,17.7659418 L78.1416077,17.7659418 C74.2222778,17.7659418 73.5154966,16.820303 73.4150404,11.4439337 L73.4150404,9.70348627 C73.448355,4.20173127 74.1551362,3.23432055 78.141864,3.23432055 C81.8179976,3.23432055 82.522985,4.09287133 82.6452238,8.93648276 L76.8039,8.93648276 L76.8039,12.2064779 L84.4867502,12.2064779 C86,12.2064779 86,11.1231248 86,10.7674282 L86,9.72342206 C85.8903182,2.18113344 84.1274654,0.000262313102 78.141864,0.000262313102 M68.0255134,0.288544412 L67.9419707,0.265985485 C67.2264764,0.112007695 65.271168,0.000262313102 64.3017143,0.000262313102 C60.8710834,0.000262313102 59.0580025,1.47052725 59.0580025,4.25209538 L59.0580025,19.7390609 C59.0580025,20.3764818 59.4936544,20.8218894 60.1181743,20.8218894 L61.3385123,20.8218894 C61.9630322,20.8218894 62.3989404,20.3767441 62.3989404,19.7390609 L62.3989404,4.53644278 C62.3989404,3.8499694 62.5685884,3.23432055 64.61564,3.23432055 L67.6467524,3.23169742 C67.9435083,3.26789662 68.226682,3.18395643 68.4447643,2.99482868 C68.6828353,2.78943753 68.8137871,2.48961365 68.8137871,2.15149206 L68.8137871,1.36796283 C68.8137871,0.853829147 68.5262568,0.460359494 68.0255134,0.288544412 M53.3742822,0.249722073 L52.1539443,0.249722073 C51.5296807,0.249722073 51.0935162,0.694867407 51.0935162,1.33255056 L51.0935162,17.7662041 L46.0184273,17.7662041 C42.8791707,17.7662041 41.6055294,17.5618622 41.6055294,12.4404612 L41.6055294,1.33255056 C41.6055294,0.69512972 41.1693649,0.249722073 40.5451013,0.249722073 L39.3593592,0.249722073 C38.7350956,0.249722073 38.2643352,0.715065516 38.2643352,1.33255056 L38.2643352,12.4404612 C38.2643352,19.7191251 40.8433947,21 46.2623924,21 C48.2118067,21 50.8815843,21 53.4275855,20.633024 L53.4865267,20.6209576 C54.1154031,20.4601596 54.434454,20.0916097 54.434454,19.5255381 L54.434454,1.33255056 C54.434454,0.69512972 53.9982896,0.249722073 53.3742822,0.249722073" id="Shape"></path>
                <path d="M34.5003025,0.758347178 C34.343724,0.417340145 34.0077595,0.214047491 33.6018344,0.214047491 L32.0332311,0.214047491 C31.5775904,0.214047491 31.2370131,0.401863672 31.057627,0.739985261 L28.7327833,4.21694543 L30.7680466,7.06592803 L34.3214289,1.84852043 C34.7114655,1.3635035 34.5764134,0.924391371 34.5003025,0.758347178" id="Path"></path>
                <path d="M22.2438757,0.700375982 L22.2418256,0.697228225 C21.8874099,0.213785178 21.4158807,0.213785178 21.2608399,0.213785178 L19.7265763,0.213785178 C19.3334644,0.213785178 19.0115945,0.398715915 18.8434841,0.720574091 C18.6705047,1.05030166 18.7071507,1.44639444 18.946503,1.81337047 L24.6302233,9.87844911 L18.0944191,19.2094508 C17.8660862,19.5604257 17.834053,19.9504853 18.0065199,20.2799505 C18.1756553,20.6018087 18.4977815,20.7862148 18.8901245,20.7862148 L20.4584715,20.7862148 C20.861834,20.7862148 21.2165059,20.571905 21.3938419,20.2343081 L28.7094631,9.91569757 L22.2438757,0.700375982 Z" id="Path"></path>
                <path d="M35.280632,19.2910301 L30.7206374,12.8853442 L28.7148446,15.7157026 L32.3210177,20.6422049 L32.414811,20.684175 C32.5579039,20.7500073 32.712806,20.7846666 32.8696829,20.7859525 L34.403434,20.7859525 C34.7739944,20.7859525 35.0884326,20.6175475 35.2665373,20.3232322 C35.4489986,20.0215721 35.4541239,19.6456775 35.280632,19.2910301" id="Path"></path>
                <path d="M12.0621772,12.0637796 L12.0621772,17.5036287 C10.5092062,17.7475798 8.14207855,17.8016163 7.33535366,17.8016163 C3.76659545,17.8016163 3.37553376,16.803515 3.37553376,14.6837628 C3.37553376,12.7001511 4.10076612,12.0635172 6.35923704,12.0635172 L12.0621772,12.0637796 Z M7.16109288,0 C6.05838094,0 4.55461293,0.0293790674 2.68361597,0.259689971 L2.59904824,0.278838827 C2.05397078,0.437538254 1.77797246,0.803989657 1.77797246,1.36796283 L1.77797246,2.15122975 C1.77797246,2.81907891 2.18415383,3.23405823 2.83814428,3.23405823 L7.16134915,3.23405823 C10.6422082,3.23405823 12.0621772,4.19937045 12.0621772,6.56569694 L12.0621772,8.86539591 L6.35923704,8.86539591 C1.90200513,8.86539591 0,10.6053187 0,14.6835005 C0,19.2288619 1.96863425,21 7.02168426,21 C9.0684796,21 12.8361001,20.8371036 14.2286487,20.4024508 C15.4028589,20.0687885 15.4028589,19.1506926 15.4028589,18.8490326 L15.4028589,6.35243639 C15.4028589,2.07804439 12.7069421,0 7.16134915,0 L7.16109288,0 Z" id="Shape"></path>
            </g>
        </g>
    </g>
</svg>