<?xml version="1.0" encoding="UTF-8"?>
<svg width="70px" height="70px" viewBox="0 0 70 70" version="1.1" xmlns="http://www.w3.org/2000/svg" xmlns:xlink="http://www.w3.org/1999/xlink">
    <title>built</title>
    <g id="built" stroke="none" stroke-width="1" fill="none" fill-rule="evenodd" fill-opacity="0.85" stroke-opacity="0.85">
        <g id="iconfinder_152_2940496" transform="translate(1.000000, 1.000000)" fill="#000000" fill-rule="nonzero" stroke="#000000" stroke-width="0.985714286">
            <path d="M37.7105301,68.9978438 C38.6466942,68.9978438 39.4364491,68.2906159 39.5497293,67.3537546 L41.7319749,49.1965407 C41.7971644,48.6661198 41.631519,48.1324646 41.2809917,47.7324927 C40.9293958,47.3325209 40.4239099,47.1028874 39.8938444,47.1028874 L39.8799516,47.1028874 L39.861784,46.8581607 C39.5166002,42.9004875 35.0174551,41.1485891 34.7951696,41.064498 L30.6219721,39.7643199 L30.2564833,39.6381832 C30.2554146,39.4883285 30.2009119,39.34063 30.0822884,39.2360551 C29.8909946,39.0657167 28.6588059,37.9078466 28.4087347,37.8668792 L28.4087347,36.5645449 C29.4165004,35.5845599 30.2319037,34.2973188 30.7416643,32.7427112 C32.3489598,33.1286679 33.4614563,28.2966626 32.1053007,27.5387644 C32.5626959,26.3011156 32.8758193,24.4036749 32.4643773,23.1207462 L39.3862211,23.1207462 C39.6394984,24.4381738 40.7872613,25.4375645 42.1658592,25.4375645 C43.7293388,25.4375645 45,24.1546358 45,22.5784663 C45,21.0012187 43.7293388,19.7193681 42.1658592,19.7193681 C40.7840553,19.7193681 39.634155,20.7230712 39.3851525,22.043733 L32.0144628,22.043733 C31.9653035,20.5699822 31.4053149,19.1803225 30.3751069,18.0936064 C29.9593901,17.6537452 29.3887147,17.1847755 28.638501,16.7718665 L35.4577515,9.86453548 C35.80721,10.1017156 36.2015531,10.2677416 36.6322314,10.3302709 C36.7690225,10.3496766 36.9036763,10.3593794 37.03833,10.3593794 C38.4372328,10.3593794 39.6427045,9.303928 39.8414791,7.90564357 C40.0616272,6.34564545 38.9833286,4.89345645 37.4380165,4.67029155 C35.880949,4.44604856 34.4467797,5.56079498 34.2287689,7.09384082 C34.1272442,7.80753726 34.3003705,8.51260898 34.700057,9.10448111 L27.5954688,16.3007406 C26.0811485,15.7261179 24.6384298,15.596747 23.0332716,15.6592763 L23.0332716,5.66429174 C24.3424052,5.41201837 25.3341408,4.25199213 25.3341408,2.85909815 C25.3341408,1.28185057 24.0624109,0 22.5,0 C20.9365204,0 19.6658592,1.28185057 19.6658592,2.85909815 C19.6658592,4.24983594 20.6575948,5.40986219 21.9645911,5.66429174 L21.9645911,15.7315084 C20.6383585,15.8716603 19.2309062,16.1767601 17.7604018,16.6403394 L10.3042177,9.09909065 C10.7006982,8.50937471 10.8727558,7.80538108 10.7722998,7.09491891 C10.554289,5.56187307 9.12760046,4.44604856 7.56305215,4.67136964 C6.0177401,4.89453455 4.93944144,6.34672354 5.15958963,7.90779976 C5.35943289,9.30608418 6.56490453,10.3615356 7.96273867,10.3615356 L7.96380735,10.3615356 C8.09739242,10.3615356 8.23204617,10.3518328 8.36883728,10.3324271 C8.80058421,10.2698978 9.19706469,10.1027937 9.54866059,9.8623793 L16.3743232,16.766476 C16.2802793,16.7233524 16.1766173,16.6683697 16.0515816,16.5799663 C15.8111285,16.4096278 15.4777002,16.4700009 15.30778,16.7147277 C15.2447278,16.8042092 13.845825,18.8838474 15.1474779,21.5273273 C15.0908378,21.6566982 15.0213736,21.8399738 14.9508407,22.0458892 L5.61484753,22.0458892 C5.36584497,20.7252273 4.21594471,19.7215243 2.83414078,19.7215243 C1.27066116,19.7215243 0,21.0033749 0,22.5806225 C0,24.156792 1.27066116,25.4397206 2.83414078,25.4397206 C4.21273867,25.4397206 5.36157025,24.44033 5.61377885,23.1229024 L14.6793958,23.1229024 C14.3438302,25.160495 14.9593901,26.3593325 15.3323596,27.4762351 C13.7496438,28.1619012 14.9476347,33.1027937 16.565617,32.7459454 C17.0743089,34.299475 17.8897122,35.5856379 18.8974779,36.5656229 L18.8974779,37.8679573 C18.800228,37.8841286 18.7061841,37.9186275 18.6292391,37.9887035 L17.2228555,39.2382113 C17.1031633,39.3449423 17.0486606,39.494797 17.0486606,39.6468079 C16.0857794,39.9885629 17.3820889,39.5713415 12.5217298,41.076357 C12.3293673,41.1485891 7.80884867,42.9026437 7.48610715,46.8549264 C7.47862639,46.9357833 7.47221431,47.0241867 7.4668709,47.109356 C6.95604161,47.1244492 6.47192932,47.346536 6.13208891,47.7335708 C5.78049302,48.1335427 5.61591622,48.6671979 5.67896837,49.1976188 L7.86121402,67.3559108 C7.97342548,68.2938502 8.76424907,69 9.70041322,69 L37.7105301,69 L37.7105301,68.9978438 Z M35.2867626,7.24800787 C35.4107296,6.37583201 36.1609433,5.7192744 37.0319179,5.7192744 C37.1163437,5.7192744 37.2007694,5.72466485 37.2851952,5.73760195 C38.2480764,5.87775382 38.9202764,6.78227243 38.7824166,7.7536327 C38.6456255,8.70989969 37.7329724,9.4031124 36.783984,9.26403862 C36.4078085,9.21013406 36.0722428,9.03440517 35.8050727,8.77242899 C35.8007979,8.76811662 35.7997293,8.76164807 35.7954545,8.75733571 C35.7933172,8.75517953 35.7890425,8.75410143 35.7869051,8.75194525 C35.7291964,8.69372832 35.6704189,8.63551139 35.6201909,8.56866973 C35.3380593,8.1881035 35.2194357,7.71805569 35.2867626,7.24800787 Z M20.7345398,2.85909815 C20.7345398,1.87695697 21.526432,1.07809131 22.5,1.07809131 C23.473568,1.07809131 24.2654602,1.87695697 24.2654602,2.85909815 C24.2654602,3.84123934 23.473568,4.64010609 22.5,4.64010609 C21.526432,4.64118309 20.7345398,3.84231743 20.7345398,2.85909815 Z M34.4499858,42.0832943 C34.4905956,42.0994656 38.5120405,43.674557 38.7984469,46.9551889 L38.8091337,47.1028874 L25.069108,47.1028874 L24.9836136,46.3676291 L25.8161157,44.8507547 L26.2788544,45.2927721 C26.3782417,45.3887222 26.5107581,45.4404706 26.6464805,45.4404706 C26.6710601,45.4404706 26.6956398,45.4383144 26.7202194,45.4350802 C26.8805215,45.4124402 27.022656,45.3164901 27.1060131,45.1752601 L29.7851952,40.604153 L34.4499858,42.0832943 Z M23.3218153,46.0010781 L22.3664149,44.228696 L22.5609148,43.7888347 L23.6221146,42.7506328 L24.7698775,43.8481297 L24.9376603,44.2265398 L23.9662297,45.9967657 C23.911727,46.0959501 23.8903534,46.2091497 23.9031775,46.3212712 L23.9929467,47.1028874 L23.2908236,47.1028874 L23.3816614,46.3212712 C23.3955543,46.2102278 23.373112,46.0991844 23.3218153,46.0010781 Z M29.0435309,39.7513828 L26.5278569,44.0443424 L25.5777999,43.1355114 L25.5777999,43.1344333 L24.4417925,42.0487954 L28.2975919,39.0872785 L29.0435309,39.7513828 Z M42.1658592,20.7974595 C43.1394272,20.7974595 43.9313195,21.5963251 43.9313195,22.5784663 C43.9313195,23.5606075 43.1394272,24.3594731 42.1658592,24.3594731 C41.1922913,24.3594731 40.400399,23.5606075 40.400399,22.5784663 C40.400399,21.5963251 41.1922913,20.7974595 42.1658592,20.7974595 Z M8.21601596,9.26403862 C8.1315902,9.27697572 8.04716443,9.28236618 7.96380735,9.28236618 L7.96273867,9.28236618 C7.09283272,9.28236618 6.3415503,8.62580857 6.21758336,7.7536327 C6.07972357,6.78119434 6.75192362,5.87667573 7.71480479,5.73652386 C7.79923055,5.72466485 7.88365631,5.71819631 7.96808207,5.71819631 C8.83798803,5.71819631 9.58927045,6.37475391 9.71323739,7.24692978 C9.78056426,7.71805569 9.66194072,8.18702541 9.37874038,8.56759164 C9.09554004,8.94923596 8.68302935,9.19611887 8.21601596,9.26403862 Z M2.83414078,24.3605512 C1.86057281,24.3605512 1.06868054,23.5616856 1.06868054,22.5795444 C1.06868054,21.5974032 1.86057281,20.7985375 2.83414078,20.7985375 C3.80770875,20.7985375 4.59960103,21.5974032 4.59960103,22.5795444 C4.59960103,22.5806225 4.59853235,22.5827787 4.59853235,22.5838568 C4.59853235,22.5849348 4.59960103,22.5860129 4.59960103,22.5860129 C4.5953263,23.5638418 3.80557139,24.3605512 2.83414078,24.3605512 Z M16.3625677,31.643058 C15.8912796,31.0899972 15.4787689,28.7462267 15.7202907,28.4874848 C15.7448703,28.4594544 15.8399829,28.4260336 16.0227273,28.4260336 C16.980265,28.4260336 16.3294386,27.0536233 15.9981476,26.1426362 C15.4018239,24.5610762 15.6839555,22.5773882 16.210815,21.7806787 C16.3016529,21.6178869 16.3027216,21.417362 16.2118837,21.2545702 C15.3633514,19.7139777 15.6871616,18.4094872 15.9596751,17.7626324 C16.59554,18.0450923 17.2762895,17.9254242 17.7710886,17.7593981 C22.9296096,16.0635605 27.3988316,16.5098903 29.6035195,18.8385675 C30.5428897,19.8304115 31.0259333,21.1251992 30.9639498,22.4835943 C30.9564691,22.6323709 31.0793673,22.8447549 31.1819607,22.9514859 C31.8723283,23.6932127 31.6008834,26.2698509 30.8934169,27.6508859 C30.7181533,27.9904847 30.9457823,28.4044717 31.3262325,28.4357364 C31.5303505,28.4519078 31.5795098,28.4767039 31.5880593,28.4831724 C31.8082075,28.8173807 31.4192078,31.0867629 30.9415076,31.643058 C30.9222713,31.6214962 30.9008977,31.5934658 30.8741807,31.5568107 C30.6134226,31.1794788 30.0331291,31.288366 29.9187803,31.7314615 C28.969792,35.4508765 26.3419065,37.5024843 23.6509689,37.5024843 C22.2264178,37.5024843 20.9140781,36.9548139 19.8357794,35.9910003 C19.8026503,35.9500328 19.7631091,35.9187682 19.7192932,35.8885816 C17.184383,33.5124684 17.5915503,30.2652573 16.3625677,31.643058 Z M23.6531063,38.5794975 C24.9964377,38.5794975 26.2446566,38.16012 27.3389855,37.4334865 L27.3389855,38.4695322 L23.6199772,41.3253961 L19.9650898,38.4770788 L19.9650898,37.4324084 C21.0604873,38.16012 22.3097749,38.5794975 23.6531063,38.5794975 Z M19.004346,39.0905128 L22.8035053,42.0509515 L20.7730123,44.0378738 L18.2605443,39.7513828 L19.004346,39.0905128 Z M12.8669137,42.0940752 C17.9784127,40.5135933 16.4576803,40.9987344 17.5263608,40.6181682 L20.1969934,45.1763382 C20.2803505,45.3186463 20.4235537,45.4145964 20.5859932,45.4361582 C20.6105728,45.4393925 20.6330151,45.4404706 20.6565261,45.4404706 C20.7943859,45.4404706 20.9279709,45.386566 21.0284269,45.2884597 L21.4815474,44.8442861 L22.3012254,46.365473 L22.2146623,47.1028874 L8.53982616,47.1028874 C8.54410088,47.0522171 8.54623824,47.0004687 8.55158165,46.9497984 C8.8176831,43.673479 12.8572955,42.0994656 12.8669137,42.0940752 Z M8.92241379,67.2243836 L6.74016814,49.0660917 C6.71345113,48.8386144 6.780778,48.6186838 6.93253064,48.4472673 C7.08428327,48.2747727 7.2916073,48.1809787 7.51923625,48.1809787 L39.8949131,48.1809787 C40.122542,48.1809787 40.3298661,48.2758508 40.4816187,48.4472673 C40.6323027,48.6186838 40.6996295,48.8386144 40.6729125,49.0660917 L38.4906669,67.2243836 C38.4425762,67.6211212 38.1080792,67.9208306 37.7115987,67.9208306 L9.7014819,67.9208306 C9.30500142,67.9197525 8.97050442,67.6200431 8.92241379,67.2243836 Z" id="Shape"></path>
        </g>
    </g>
</svg>