<?xml version="1.0" encoding="UTF-8"?>
<svg width="30px" height="30px" viewBox="0 0 30 30" version="1.1" xmlns="http://www.w3.org/2000/svg" xmlns:xlink="http://www.w3.org/1999/xlink">
    <title>c1</title>
    <g id="c1" stroke="none" stroke-width="1" fill="none" fill-rule="evenodd" fill-opacity="0.85">
        <g id="iconfinder_ICFcomp5_2832777" transform="translate(5.000000, 8.000000)" fill="#000000" fill-rule="nonzero">
            <path d="M2.34875445,-1.81188398e-13 L17.6512456,-1.81188398e-13 C18.2918149,-1.81188398e-13 18.86121,0.28436019 19.2882562,0.710900474 C19.7153025,1.13744076 20,1.70616114 20,2.34597156 L20,12.6540284 C20,13.2938389 19.7153025,13.8625592 19.2882562,14.2890995 C18.86121,14.7156398 18.2918149,15 17.6512456,15 L2.34875445,15 C1.70818505,15 1.13879004,14.7156398 0.711743772,14.2890995 C0.284697509,13.8625592 7.81597009e-14,13.2938389 7.81597009e-14,12.6540284 L7.81597009e-14,2.34597156 C7.81597009e-14,1.70616114 0.284697509,1.13744076 0.711743772,0.710900474 C1.13879004,0.28436019 1.70818505,-1.81188398e-13 2.34875445,-1.81188398e-13 Z M1.28113879,3.83886256 L9.96441281,9.02843602 L18.7188612,3.83886256 L18.7188612,2.34597156 C18.7188612,2.06161137 18.5765125,1.77725118 18.4341637,1.56398104 C18.2206406,1.3507109 17.9359431,1.27962085 17.6512456,1.27962085 L2.34875445,1.27962085 C2.06405694,1.27962085 1.77935943,1.3507109 1.5658363,1.56398104 C1.35231317,1.77725118 1.28113879,2.06161137 1.28113879,2.34597156 L1.28113879,3.83886256 Z M18.7188612,5.4028436 L10.3202847,10.450237 C10.1067616,10.5924171 9.89323843,10.5924171 9.6797153,10.450237 L1.28113879,5.4028436 L1.28113879,12.6540284 C1.28113879,12.9383886 1.35231317,13.2227488 1.5658363,13.436019 C1.77935943,13.5781991 2.06405694,13.7203791 2.34875445,13.7203791 L17.6512456,13.7203791 C17.9359431,13.7203791 18.2206406,13.5781991 18.4341637,13.436019 C18.5765125,13.2227488 18.7188612,12.9383886 18.7188612,12.6540284 L18.7188612,5.4028436 Z" id="Shape"></path>
        </g>
    </g>
</svg>