<?xml version="1.0" encoding="UTF-8"?>
<svg width="30px" height="30px" viewBox="0 0 30 30" version="1.1" xmlns="http://www.w3.org/2000/svg" xmlns:xlink="http://www.w3.org/1999/xlink">
    <title>c10</title>
    <g id="c10" stroke="none" stroke-width="1" fill="none" fill-rule="evenodd">
        <g id="iconfinder_share-rss-feed_815584" transform="translate(3.000000, 3.000000)">
            <g id="Frame_-_24px">
                <rect id="Rectangle" x="0" y="0" width="24" height="24"></rect>
            </g>
            <g id="Line_Icons" transform="translate(2.000000, 3.000000)" fill="#000000" fill-opacity="0.85" fill-rule="nonzero" stroke="#FFFFFF" stroke-width="0.4">
                <g id="Group">
                    <path d="M3,19 C1.346,19 0,17.654 0,16 C0,14.346 1.346,13 3,13 C4.654,13 6,14.346 6,16 C6,17.654 4.654,19 3,19 Z M3,15 C2.449,15 2,15.449 2,16 C2,16.551 2.449,17 3,17 C3.551,17 4,16.551 4,16 C4,15.449 3.551,15 3,15 Z" id="Shape"></path>
                    <path d="M13,18 L11,18 C11,12.484 6.514,8 1,8 L1,6 C7.617,6 13,11.383 13,18 Z" id="Path"></path>
                    <path d="M19,18 L17,18 C17,9.178 9.822,2 1,2 L1,0 C10.926,0 19,8.075 19,18 Z" id="Path"></path>
                </g>
            </g>
        </g>
    </g>
</svg>