<?xml version="1.0" encoding="UTF-8"?>
<svg width="30px" height="30px" viewBox="0 0 30 30" version="1.1" xmlns="http://www.w3.org/2000/svg" xmlns:xlink="http://www.w3.org/1999/xlink">
    <title>c12</title>
    <g id="c12" stroke="none" stroke-width="1" fill="none" fill-rule="evenodd" fill-opacity="0.85">
        <g id="iconfinder_Video_record_interface__3178349" transform="translate(3.000000, 7.000000)" fill="#000000" fill-rule="nonzero">
            <path d="M23.7179976,1.30535714 C23.532357,1.19690152 23.3036383,1.19690152 23.1179977,1.30535714 L16.7999983,4.48071429 L16.7999983,3.03571429 C16.7999983,1.35913558 15.4568527,0 13.7999986,0 L3,0 C1.34314562,0 0,1.35913558 0,3.03571429 L0,13.9642857 C0,15.6408644 1.34314562,17 3,17 L13.7999986,17 C15.4568527,17 16.7999983,15.6408644 16.7999983,13.9642857 L16.7999983,12.5192857 L23.1299977,15.7189286 C23.2135911,15.7622688 23.3060723,15.7851444 23.3999977,15.7857143 C23.5123327,15.7860791 23.6225129,15.7545248 23.7179976,15.6946429 C23.8937889,15.5834656 24.0004124,15.3883402 24,15.1785714 L24,1.82142857 C24.0004124,1.61165982 23.8937889,1.41653438 23.7179976,1.30535714 Z M15.5999984,13.9642857 C15.5999984,14.9702329 14.7941111,15.7857143 13.7999986,15.7857143 L2.9999997,15.7857143 C2.00588725,15.7857143 1.19999988,14.9702329 1.19999988,13.9642857 L1.19999988,3.03571429 C1.19999988,2.02976706 2.00588725,1.21428571 2.9999997,1.21428571 L13.7999986,1.21428571 C14.7941111,1.21428571 15.5999984,2.02976706 15.5999984,3.03571429 L15.5999984,13.9642857 Z M22.7999983,14.195 L16.7999983,11.1592857 L16.7999983,5.84071429 L22.7999983,2.805 L22.7999983,14.195 Z" id="Shape"></path>
        </g>
    </g>
</svg>