<?xml version="1.0" encoding="UTF-8"?>
<svg width="30px" height="30px" viewBox="0 0 30 30" version="1.1" xmlns="http://www.w3.org/2000/svg" xmlns:xlink="http://www.w3.org/1999/xlink">
    <title>c13</title>
    <g id="c13" stroke="none" stroke-width="1" fill="none" fill-rule="evenodd" fill-opacity="0.85">
        <g id="iconfinder_notes-note-postit-post-it-reminder-remind_3994793" transform="translate(6.000000, 6.000000)" fill="#000000" fill-rule="nonzero">
            <path d="M19,16.4666667 L19,2.53333333 C19,1.13616542 17.8638346,0 16.4666667,0 L6.70442715,0 L0,6.70442715 L0,16.4666667 C0,17.8638346 1.13616542,19 2.53333333,19 L16.4666667,19 C17.8638346,19 19,17.8638346 19,16.4666667 Z M6.33333333,2.16223952 L6.33333333,5.06666667 C6.33333333,5.76494137 5.76494137,6.33333333 5.06666667,6.33333333 L2.16223952,6.33333333 L6.33333333,2.16223952 Z M1.26666667,16.4666667 L1.26666667,7.6 L5.06666667,7.6 C6.46383458,7.6 7.6,6.46383458 7.6,5.06666667 L7.6,1.26666667 L16.4666667,1.26666667 C17.1649414,1.26666667 17.7333333,1.83505863 17.7333333,2.53333333 L17.7333333,16.4666667 C17.7333333,17.1649414 17.1649414,17.7333333 16.4666667,17.7333333 L2.53333333,17.7333333 C1.83505863,17.7333333 1.26666667,17.1649414 1.26666667,16.4666667 Z" id="Shape"></path>
        </g>
    </g>
</svg>