<?xml version="1.0" encoding="UTF-8"?>
<svg width="30px" height="30px" viewBox="0 0 30 30" version="1.1" xmlns="http://www.w3.org/2000/svg" xmlns:xlink="http://www.w3.org/1999/xlink">
    <title>c15</title>
    <g id="c15" stroke="none" stroke-width="1" fill="none" fill-rule="evenodd" fill-opacity="0.85" stroke-opacity="0.85">
        <g id="iconfinder_maps_map_location_pin_direction_4831018" transform="translate(6.000000, 4.000000)" fill="#000000" fill-rule="nonzero" stroke="#000000" stroke-width="0.4">
            <path d="M9.00081917,23 C8.53816452,22.9977585 8.10568529,22.7765262 7.84197462,22.4071995 L1.60313396,13.6760288 C-0.92857797,10.1706938 -0.413972531,5.38873563 2.80927829,2.4679628 C6.24400161,-0.822654265 11.7623667,-0.822654265 15.19709,2.4679628 C18.4142063,5.39030379 18.9265019,10.1675808 16.3985044,13.6714334 L10.1596637,22.4026041 C9.89700291,22.7736749 9.46434768,22.996713 9.00081917,23 Z M9.00081917,0.942261073 C6.92851701,0.93784842 4.93874109,1.73093267 3.46674519,3.14807504 C0.583347322,5.75649504 0.119225545,10.0303559 2.37885031,13.1659446 L8.61296099,21.8971153 C8.70191547,22.0164857 8.844401,22.0871654 8.99608919,22.0871654 C9.14777737,22.0871654 9.2902629,22.0164857 9.37921739,21.8971153 L15.622788,13.1659446 C17.8869096,10.0330979 17.4266892,5.75798815 14.5443531,3.14807504 L14.5443531,3.14807504 C13.0700335,1.72868185 11.0763956,0.935414326 9.00081917,0.942261073 Z" id="Shape"></path>
            <path d="M9.00081917,12.4306881 C6.9109835,12.4306881 5.21683696,10.7847604 5.21683696,8.7544057 C5.21683696,6.72405099 6.9109835,5.0781233 9.00081917,5.0781233 C11.0906548,5.0781233 12.7848014,6.72405099 12.7848014,8.7544057 C12.7848014,9.72941641 12.386133,10.6644932 11.6764986,11.3539299 C10.9668643,12.0433666 10.0043936,12.4306881 9.00081917,12.4306881 Z M9.00081917,5.9971939 C7.43344242,5.9971939 6.16283251,7.23163967 6.16283251,8.7544057 C6.16283251,10.2771717 7.43344242,11.5116175 9.00081917,11.5116175 C10.5681959,11.5116175 11.8388058,10.2771717 11.8388058,8.7544057 C11.8388058,7.23163967 10.5681959,5.9971939 9.00081917,5.9971939 Z" id="Shape"></path>
        </g>
    </g>
</svg>