<?xml version="1.0" encoding="UTF-8"?>
<svg width="30px" height="30px" viewBox="0 0 30 30" version="1.1" xmlns="http://www.w3.org/2000/svg" xmlns:xlink="http://www.w3.org/1999/xlink">
    <title>c16</title>
    <g id="c16" stroke="none" stroke-width="1" fill="none" fill-rule="evenodd">
        <g id="iconfinder_Messaging4_Communication_UX_UI_Speaking_Messaging_2862909" transform="translate(4.000000, 4.000000)">
            <rect id="Rectangle" x="0" y="0" width="23" height="23"></rect>
            <path d="M2.2402,22.1076005 C1.99444197,22.1072211 1.75096947,22.0603994 1.5226,21.9696 C0.780517305,21.6793262 0.292770251,20.9632331 0.294395928,20.1664 L0.294395928,4.3884 C0.294395928,2.10194113 2.14794114,0.2484 4.4344,0.2484 L18.722,0.2484 C21.0084588,0.2484 22.862,2.10194113 22.862,4.3884 L22.862,14.3106 C22.862,16.5970588 21.0084588,18.4506 18.722,18.4506 L6.5136,18.4506 L3.6478,21.5004 C3.28241149,21.8882522 2.77305831,22.1079732 2.2402,22.1076005 Z M4.4298,1.6928 C2.94211138,1.69533224 1.73673224,2.90071138 1.7342,4.3884 L1.7342,20.1664 C1.7342,20.3714249 1.85938101,20.5556797 2.04981168,20.6316494 C2.24024235,20.7076191 2.4577399,20.6599961 2.599,20.5114 L5.6764,17.2362 C5.81251395,17.0917889 6.00235306,17.0101915 6.2008,17.0108 L18.722,17.0108 C20.2096886,17.0082677 21.4150677,15.8028886 21.4176,14.3152 L21.4176,4.3884 C21.4150677,2.90071138 20.2096886,1.69533224 18.722,1.6928 L4.4298,1.6928 Z" id="Shape" stroke="#FFFFFF" stroke-width="0.2" fill-opacity="0.85" fill="#000000" fill-rule="nonzero"></path>
        </g>
    </g>
</svg>