<?xml version="1.0" encoding="UTF-8"?>
<svg width="30px" height="30px" viewBox="0 0 30 30" version="1.1" xmlns="http://www.w3.org/2000/svg" xmlns:xlink="http://www.w3.org/1999/xlink">
    <title>c2</title>
    <g id="c2" stroke="none" stroke-width="1" fill="none" fill-rule="evenodd" fill-opacity="0.85">
        <g id="iconfinder_twiter-social-network-brand-logo_1820440" transform="translate(4.000000, 6.000000)" fill="#000000" fill-rule="nonzero" stroke="#000000" stroke-width="0.3">
            <path d="M21.8170475,2.1031243 C21.6696905,2.00454228 21.4745883,2.0095598 21.3323097,2.11579149 C21.1454911,2.25574753 20.8414529,2.36679111 20.5141873,2.4523358 C21.3664433,1.50891776 21.3847588,0.878971636 21.375601,0.733956944 C21.366027,0.584377128 21.2747823,0.451618357 21.137374,0.387747735 C20.9995911,0.323506966 20.8382061,0.33917645 20.7154086,0.427106515 C19.7568808,1.11553559 18.8020162,1.26092043 18.2341092,1.27556173 C17.3625803,0.451618357 16.2304294,0 15.0259736,0 C12.4468941,0 10.3486811,2.10073892 10.3486811,4.6828312 C10.3486811,4.90471273 10.3643325,5.12663538 10.3956355,5.34613152 C5.92589141,5.29612079 2.29620681,1.06470231 2.25882643,1.02053164 C2.17161942,0.917507871 2.03891492,0.862479608 1.90333821,0.874324256 C1.76776149,0.886004396 1.64642096,0.962089813 1.57852853,1.07856219 C0.292152357,3.28335306 1.15290007,5.21982973 1.93971955,6.3285382 C1.80047973,6.25520831 1.68767258,6.18294773 1.62040455,6.13392404 C1.4954009,6.04196351 1.32852124,6.0267053 1.18807426,6.0947709 C1.0478354,6.16304214 0.958214073,6.30283367 0.955549992,6.45722537 C0.920792069,8.55800542 1.94438169,9.76147108 2.90657259,10.4267866 C2.7783221,10.4147364 2.64803192,10.4619093 2.55903498,10.5575302 C2.45900709,10.6649546 2.42387453,10.8165907 2.46695771,10.9561355 C3.13160413,13.1058981 4.76389449,13.8362359 5.80255282,14.0840687 C3.6669594,15.7265266 0.52446849,15.1980003 0.489710566,15.1919546 C0.300061346,15.1588472 0.112451812,15.2574292 0.0352351079,15.4313563 C-0.0420232224,15.6050367 0.0108421222,15.8086577 0.163693733,15.9237318 C2.41775547,17.6234389 5.11372154,18 7.06128916,18 C8.53427584,17.9997944 9.57959437,17.7842876 9.67958063,17.7628191 C19.5440874,15.453236 19.8217346,6.52570225 19.7991731,5.06255912 C21.6510004,3.36104244 21.9404277,2.71300032 21.9851343,2.55276855 C22.0322969,2.38266623 21.9648207,2.20195309 21.8170475,2.1031243 Z M19.0954813,4.58523623 C19.0028212,4.66958822 18.9538271,4.79107813 18.9621524,4.91536468 C18.9883769,5.31039194 19.4928455,14.620039 9.49542608,16.9607555 C9.45013671,16.9702147 5.47611972,17.7895107 2.0309643,16.1032523 C3.48646796,16.0633177 5.57369166,15.6865921 7.0277384,14.0736224 C7.13750683,13.9521324 7.16414764,13.7779997 7.09583895,13.6298182 C7.02836279,13.483035 6.87996519,13.3888125 6.71695677,13.3888125 C6.71554148,13.3888125 6.71412619,13.3888125 6.71271089,13.3888125 C6.69198102,13.4018909 4.50597821,13.3864271 3.50536628,11.3318741 C3.90843331,11.3543707 4.40536755,11.3298588 4.80110836,11.1497215 C4.96411678,11.0754045 5.06043993,10.9063304 5.04033445,10.7300179 C5.02022897,10.553911 4.88810723,10.4103357 4.71248606,10.3737736 C4.60051143,10.3504956 2.16716541,9.81288014 1.82670427,7.19003075 C2.19601241,7.34948111 2.66817903,7.48001901 3.13564188,7.4095269 C3.29623597,7.38563197 3.42773331,7.27154497 3.4730643,7.11752341 C3.5183953,6.96350185 3.4687768,6.79722437 3.3462291,6.69197973 C3.24216346,6.6024457 0.956757154,4.59568255 2.04033021,2.0077502 C3.21656332,3.22709098 6.70093066,6.39619253 10.9220827,6.15662629 C11.0458792,6.14959353 11.1601017,6.08814941 11.2336553,5.98932062 C11.3070423,5.89053296 11.3320597,5.76464244 11.3017558,5.64574356 C11.221875,5.33124346 11.1812062,5.00716071 11.1812062,4.6828312 C11.1812062,2.55416688 12.9060317,0.822545046 15.0259736,0.822545046 C16.0629669,0.822545046 17.0357309,1.23139106 17.7646066,1.97402586 C17.8412406,2.05212651 17.9463052,2.09711972 18.0562818,2.09892932 C18.497312,2.1049339 19.2227327,2.05373047 20.0418542,1.72919532 C19.8054587,2.01980049 19.4582957,2.36839508 18.9475416,2.76461503 C18.8032233,2.87668679 18.7501915,3.06908007 18.8170432,3.23794857 C18.8841031,3.40722834 19.0571019,3.51407694 19.2379679,3.49799619 C19.3349155,3.49038765 19.8296435,3.44720403 20.3886009,3.32772936 C20.0841048,3.65222338 19.6666351,4.06612805 19.0954813,4.58523623 Z" id="Shape"></path>
        </g>
    </g>
</svg>