<?xml version="1.0" encoding="UTF-8"?>
<svg width="30px" height="30px" viewBox="0 0 30 30" version="1.1" xmlns="http://www.w3.org/2000/svg" xmlns:xlink="http://www.w3.org/1999/xlink">
    <title>c3</title>
    <g id="c3" stroke="none" stroke-width="1" fill="none" fill-rule="evenodd" fill-opacity="0.85">
        <g id="iconfinder_icon-09_4162070" transform="translate(4.000000, 7.000000)" fill="#000000" fill-rule="nonzero">
            <path d="M20.125,2.83333333 L17.25,2.83333333 C17.034375,2.83333333 16.603125,2.05416667 16.459375,1.77083333 C15.95625,0.920833333 15.38125,0 14.375,0 L8.625,0 C7.61875,0 7.04375,0.920833333 6.540625,1.77083333 C6.396875,2.05416667 5.965625,2.83333333 5.75,2.83333333 L2.875,2.83333333 C1.29375,2.83333333 0,4.10833333 0,5.66666667 L0,14.1666667 C0,15.725 1.29375,17 2.875,17 L20.125,17 C21.70625,17 23,15.725 23,14.1666667 L23,5.66666667 C23,4.10833333 21.70625,2.83333333 20.125,2.83333333 Z M21.5625,14.1666667 C21.5625,14.9458333 20.915625,15.5833333 20.125,15.5833333 L2.875,15.5833333 C2.084375,15.5833333 1.4375,14.9458333 1.4375,14.1666667 L1.4375,5.66666667 C1.4375,4.8875 2.084375,4.25 2.875,4.25 L5.75,4.25 C6.75625,4.25 7.33125,3.32916667 7.834375,2.47916667 C7.978125,2.19583333 8.409375,1.41666667 8.625,1.41666667 L14.375,1.41666667 C14.590625,1.41666667 15.021875,2.19583333 15.165625,2.47916667 C15.66875,3.32916667 16.24375,4.25 17.25,4.25 L20.125,4.25 C20.915625,4.25 21.5625,4.8875 21.5625,5.66666667 L21.5625,14.1666667 Z" id="Shape"></path>
            <path d="M11.5,4.95833333 C9.128125,4.95833333 7.1875,6.87083333 7.1875,9.20833333 C7.1875,11.5458333 9.128125,13.4583333 11.5,13.4583333 C13.871875,13.4583333 15.8125,11.5458333 15.8125,9.20833333 C15.8125,6.87083333 13.871875,4.95833333 11.5,4.95833333 Z M11.5,12.0416667 C9.91875,12.0416667 8.625,10.7666667 8.625,9.20833333 C8.625,7.65 9.91875,6.375 11.5,6.375 C13.08125,6.375 14.375,7.65 14.375,9.20833333 C14.375,10.7666667 13.08125,12.0416667 11.5,12.0416667 Z" id="Shape"></path>
        </g>
    </g>
</svg>