<?xml version="1.0" encoding="UTF-8"?>
<svg width="30px" height="30px" viewBox="0 0 30 30" version="1.1" xmlns="http://www.w3.org/2000/svg" xmlns:xlink="http://www.w3.org/1999/xlink">
    <title>c8</title>
    <g id="c8" stroke="none" stroke-width="1" fill="none" fill-rule="evenodd" fill-opacity="0.85">
        <g id="iconfinder_calendar_date_event_5574315" transform="translate(4.000000, 5.000000)" fill="#000000" fill-rule="nonzero">
            <path d="M18.9769146,21 L3.02308538,21 C1.35348143,21 0,19.6765174 0,18.0439189 L0,4.71002252 C0.00222047312,3.07832423 1.35440204,1.7561127 3.02308538,1.75394144 L18.9769146,1.75394144 C20.645598,1.7561127 21.9977795,3.07832423 22,4.71002252 L22,18.0439189 C22,19.6765174 20.6465186,21 18.9769146,21 Z M3.02308538,2.93637387 C2.02224264,2.93854146 1.21145087,3.73136267 1.20923415,4.71002252 L1.20923415,18.0439189 C1.21145087,19.0225788 2.02224264,19.8154 3.02308538,19.8175676 L18.9769146,19.8175676 C19.9777574,19.8154 20.7885491,19.0225788 20.7907658,18.0439189 L20.7907658,4.71002252 C20.7885491,3.73136267 19.9777574,2.93854146 18.9769146,2.93637387 L3.02308538,2.93637387 Z" id="Shape"></path>
            <path d="M21.3953829,8.40709459 L0.604617076,8.40709459 C0.270696285,8.40709459 0,8.14239808 0,7.81587838 C0,7.48935868 0.270696285,7.22466216 0.604617076,7.22466216 L21.3953829,7.22466216 C21.7293037,7.22466216 22,7.48935869 22,7.81587838 C22,8.14239807 21.7293037,8.40709459 21.3953829,8.40709459 L21.3953829,8.40709459 Z" id="Path"></path>
            <path d="M6.26383291,4.69425676 C5.92991212,4.69425676 5.65921583,4.42956024 5.65921583,4.10304054 L5.65921583,0.591216216 C5.65921583,0.264696516 5.92991212,0 6.26383291,0 C6.5977537,0 6.86844998,0.264696516 6.86844998,0.591216216 L6.86844998,4.10304054 C6.86844998,4.42956024 6.5977537,4.69425676 6.26383291,4.69425676 L6.26383291,4.69425676 Z" id="Path"></path>
            <path d="M15.7361671,4.69425676 C15.4022463,4.69425676 15.13155,4.42956024 15.13155,4.10304054 L15.13155,0.591216216 C15.13155,0.264696516 15.4022463,0 15.7361671,0 C16.0700879,0 16.3407842,0.264696516 16.3407842,0.591216216 L16.3407842,4.10304054 C16.3407842,4.42956024 16.0700879,4.69425676 15.7361671,4.69425676 L15.7361671,4.69425676 Z" id="Path"></path>
        </g>
    </g>
</svg>