<?xml version="1.0" encoding="UTF-8"?>
<svg width="30px" height="30px" viewBox="0 0 30 30" version="1.1" xmlns="http://www.w3.org/2000/svg" xmlns:xlink="http://www.w3.org/1999/xlink">
    <title>c9</title>
    <g id="c9" stroke="none" stroke-width="1" fill="none" fill-rule="evenodd" fill-opacity="0.85" stroke-opacity="0.85">
        <g id="iconfinder_48.Dashboard_290102" transform="translate(3.000000, 7.000000)" fill="#000000" fill-rule="nonzero" stroke="#000000" stroke-width="0.2">
            <path d="M23.9428571,13.1274026 C23.9428571,13.1336889 23.9462857,13.1382607 23.9462857,13.1439754 C23.9462857,13.1468328 23.9445714,13.1496902 23.9445714,13.1531191 C23.9451429,13.1559765 23.9462857,13.1588339 23.9462857,13.1622627 C23.9462857,13.4777181 23.6908571,13.7337399 23.3748571,13.7337399 C23.3834286,13.7331684 18.2857143,13.7154526 18.2857143,13.7154526 C17.9697143,13.7154526 17.7142857,13.4594309 17.7142857,13.1439754 C17.7142857,12.8279486 17.9697143,12.5724983 18.2857143,12.5724983 L22.8262857,12.5724983 C22.8371429,12.3816249 22.8571429,12.1941803 22.8571429,12.0010211 C22.8571429,6.00451087 17.996,1.14295439 12,1.14295439 C6.004,1.14295439 1.14285714,6.00451087 1.14285714,12.0010211 C1.14285714,12.1941803 1.16285714,12.3816249 1.17314286,12.5724983 L5.71428571,12.5724983 C6.03028571,12.5724983 6.28571429,12.8279486 6.28571429,13.1439754 C6.28571429,13.4594309 6.03028571,13.7154526 5.71428571,13.7154526 C5.71428571,13.7154526 0.617142857,13.7331684 0.625142857,13.7331684 C0.309142857,13.7331684 0.0537142857,13.4771466 0.0537142857,13.1616912 C0.0537142857,13.1582624 0.0548571429,13.155405 0.0554285714,13.1525476 C0.0554285714,13.1491187 0.0537142857,13.1462614 0.0537142857,13.143404 C0.0537142857,13.1371177 0.0571428571,13.1325459 0.0571428571,13.1274026 C0.0222857143,12.7559424 0,12.3810534 0,12.0010211 C0,5.37245709 5.37257143,0 12,0 C18.6274286,0 24,5.37245709 24,12.0010211 C24,12.3810534 23.9777143,12.7559424 23.9428571,13.1274026 Z M8.29885714,6.35939821 C8.52342857,6.23595913 8.79314286,6.27710549 8.97828571,6.43540467 L8.94971429,6.38797207 C13.9634286,10.0568556 14.9937143,11.7444278 15.0125714,11.775859 C15.8314286,13.1228308 15.3445714,14.845263 13.9274286,15.622472 C12.5102857,16.399681 10.6971429,15.9384989 9.87885714,14.5915272 C9.85885714,14.5612389 8.83657143,12.8690949 7.99828571,6.90973074 L8.02742857,6.95659187 C7.97657143,6.72571509 8.07485714,6.4822658 8.29885714,6.35939821 Z M10.9062857,14.0291936 C11.2234286,14.5498093 11.8142857,14.8738369 12.4485714,14.8738369 C12.7582857,14.8738369 13.0651429,14.7955445 13.3354286,14.6469605 C13.7468571,14.421227 14.0411429,14.0577675 14.164,13.6217304 C14.2874286,13.1851218 14.224,12.730226 13.9908571,12.3461933 C13.9811429,12.3319064 13.0925714,10.9826487 9.384,8.14697887 C10.116,12.6130731 10.9,14.0177641 10.9062857,14.0291936 Z" id="Shape"></path>
        </g>
    </g>
</svg>