<?xml version="1.0" encoding="UTF-8"?>
<svg width="81px" height="26px" viewBox="0 0 81 26" version="1.1" xmlns="http://www.w3.org/2000/svg" xmlns:xlink="http://www.w3.org/1999/xlink">
    <title>css</title>
    <g id="Page-1" stroke="none" stroke-width="1" fill="none" fill-rule="evenodd">
        <g id="App-Development" transform="translate(-1154.000000, -5152.000000)" fill-rule="nonzero">
            <g id="css" transform="translate(1154.000000, 5152.000000)">
                <g id="Group-37">
                    <polygon id="polygon2989" fill-opacity="0.85" fill="#000000" points="23.3052251 0 21.1820592 23.3972823 11.6383493 26 2.12091722 23.400948 0 0"></polygon>
                    <polygon id="polygon2991" fill-opacity="0.85" fill="#000000" points="19.3643963 21.9074238 21.1787825 1.9133745 11.6526125 1.9133745 11.6526125 24.0105936"></polygon>
                    <polygon id="polygon2993" fill="#EBEBEB" points="4.86215662 10.5924498 5.12364924 13.4624483 11.6526125 13.4624483 11.6526125 10.5924498"></polygon>
                    <polygon id="polygon2995" fill="#EBEBEB" points="11.6526125 4.78343624 11.6425255 4.78343624 4.33672991 4.78343624 4.60194897 7.65349798 11.6526125 7.65349798"></polygon>
                    <polygon id="polygon2997" fill="#EBEBEB" points="11.6526125 21.032267 11.6526125 18.0462298 11.639827 18.0495795 8.3905081 17.1864942 8.18279172 14.8975108 6.6038774 14.8975108 5.25401006 14.8975108 5.66276094 19.4038699 11.6391845 21.0359327"></polygon>
                    <polygon id="polygon3005" fill="#FFFFFF" points="15.23519 13.4624483 14.8965346 17.1846614 11.6425255 18.0486314 11.6425255 21.0345423 17.6237035 19.4038699 17.6675854 18.9189849 18.3531844 11.3631338 18.4243721 10.5924498 18.9510837 4.78343624 11.6425255 4.78343624 11.6425255 7.65349798 15.7536778 7.65349798 15.4882018 10.5924498 11.6425255 10.5924498 11.6425255 13.4624483"></polygon>
                </g>
                <g id="Group-35" transform="translate(34.276843, 2.600000)" fill="#000000" fill-opacity="0.85">
                    <polygon id="path2999" points="0 0 13.742105 0 13.742105 5.83984375 5.74669844 5.83984375 5.74669844 11.6796875 13.742105 11.6796875 13.742105 17.5195312 0 17.5195312"></polygon>
                    <polygon id="path3001" points="16.4905259 0 30.2326309 0 30.2326309 5.078125 22.2372244 5.078125 22.2372244 6.09375 30.2326309 6.09375 30.2326309 17.7734375 16.4905259 17.7734375 16.4905259 12.4414062 24.4859325 12.4414062 24.4859325 11.4257812 16.4905259 11.4257812"></polygon>
                    <polygon id="path3003" points="32.9810519 0 46.7231568 0 46.7231568 5.078125 38.7277503 5.078125 38.7277503 6.09375 46.7231568 6.09375 46.7231568 17.7734375 32.9810519 17.7734375 32.9810519 12.4414062 40.9764584 12.4414062 40.9764584 11.4257812 32.9810519 11.4257812"></polygon>
                </g>
            </g>
        </g>
    </g>
</svg>