<?xml version="1.0" encoding="UTF-8"?>
<svg width="30px" height="30px" viewBox="0 0 30 30" version="1.1" xmlns="http://www.w3.org/2000/svg" xmlns:xlink="http://www.w3.org/1999/xlink">
    <title>3rd party API</title>
    <g id="3rd-party-API" stroke="none" stroke-width="1" fill="none" fill-rule="evenodd" opacity="0.85">
        <g id="iconfinder_1073120_api_application_plug_protocol_setting_icon" transform="translate(4.000000, 4.000000)" fill="#1D1D1B" fill-rule="nonzero" stroke="#000000" stroke-width="0.3">
            <path d="M21.6583166,9.18084313 L19.4405653,8.64859091 C19.2508702,7.96420448 18.9796699,7.30867857 18.6318954,6.69318038 L19.8231463,4.74980714 C19.9307563,4.57417841 19.9037813,4.34764491 19.7581743,4.20203694 L17.7979907,2.24184049 C17.6529638,2.09666762 17.4270119,2.06882227 17.2500791,2.17701304 L15.3067187,3.36812682 C14.6915146,3.02049505 14.035993,2.74929297 13.3517562,2.5593065 L12.8195074,0.341540578 C12.7713585,0.141257117 12.5921053,0 12.3861671,0 L9.61383292,0 C9.40789472,0 9.22864149,0.141257117 9.18049255,0.341540578 L8.64824384,2.5593065 C7.96400695,2.74929297 7.3084854,3.02049505 6.69328129,3.36812682 L4.74992087,2.17701307 C4.57356817,2.06896733 4.34732619,2.09608754 4.20200925,2.24184052 L2.24182571,4.20203697 C2.0962187,4.34764494 2.0692437,4.57417844 2.17685366,4.74980717 L3.36810459,6.69318041 C3.0203301,7.3086786 2.74912979,7.96420451 2.55943463,8.64859094 L0.34168336,9.18084313 C0.141256186,9.22884735 0,9.40810177 0,9.61404132 L0,12.3861037 C0,12.5920432 0.141256186,12.7712977 0.34168336,12.8193019 L2.55943466,13.3515541 C2.74912985,14.0359405 3.02033013,14.6914664 3.36810462,15.3069646 L2.17685369,17.2503379 C2.06924373,17.4259666 2.09621873,17.6525001 2.24182574,17.7981081 L4.20200928,19.7583045 C4.34732622,19.9037675 4.57327813,19.9317578 4.7499209,19.823132 L6.69299126,18.6320182 C7.3084854,18.97965 7.96400698,19.2508521 8.64824387,19.4408385 L9.18049258,21.6584594 C9.22864152,21.8587429 9.40789475,22 9.61383295,22 L12.3861671,22 C12.5921053,22 12.7713585,21.8587429 12.8195075,21.6584594 L13.3517562,19.4408385 C14.0359931,19.2508521 14.6915147,18.97965 15.3070088,18.6320182 L17.2500792,19.823132 C17.4264319,19.9310327 17.6526738,19.9040575 17.7979908,19.7583045 L19.7581743,17.7981081 C19.9037813,17.6525001 19.9307563,17.4259666 19.8231464,17.2503379 L18.6318954,15.3069646 C18.9796699,14.6914664 19.2508702,14.0359405 19.4405654,13.3515541 L21.6583166,12.8193019 C21.8587438,12.7712977 22,12.5920432 22,12.3861037 L22,9.61404132 C22,9.40810177 21.8587438,9.22884735 21.6583166,9.18084313 Z M21.1089548,12.0348462 L19.0605949,12.5263456 C18.8650986,12.5343222 18.6936768,12.6707934 18.646108,12.8664359 C18.4552526,13.6516167 18.1472155,14.397785 17.7301181,15.0837667 C17.6338202,15.2419921 17.6480329,15.4380698 17.7541926,15.5801971 L18.8798914,17.4163947 L17.4162799,18.8798708 L15.5921316,17.761706 C15.448845,17.6482943 15.2458074,17.631326 15.0836673,17.73009 C14.3976901,18.1471901 13.6516717,18.4555193 12.8662061,18.646521 C12.6782512,18.6922047 12.5483071,18.8521705 12.5320641,19.0380962 L12.0349119,21.1089489 L9.96508804,21.1089489 L9.47373691,19.0617357 C9.46619552,18.8658031 9.32958016,18.6940901 9.13379388,18.646521 C8.34832822,18.4555193 7.60230986,18.1471901 6.91633264,17.73009 C6.75796328,17.6342266 6.56246703,17.6481493 6.41976055,17.7544547 L4.58372005,18.8798708 L3.12010861,17.4163947 L4.23826597,15.5922344 C4.35196705,15.4490919 4.36879017,15.2461979 4.26988183,15.0837667 C3.85278447,14.397785 3.54474736,13.6516167 3.35389194,12.8664359 C3.30806344,12.6786249 3.14824381,12.5485349 2.96260938,12.5320017 L0.89104519,12.0348462 L0.89104519,9.96529878 L2.93940508,9.47379938 C3.13490133,9.46582284 3.30632314,9.32935165 3.35389194,9.13370908 C3.54474733,8.34852828 3.85278447,7.60235999 4.26988183,6.91637826 C4.3661797,6.75815288 4.35196705,6.56207521 4.24580736,6.41994793 L3.12010858,4.58375029 L4.58372002,3.12027424 L6.40699817,4.23785886 C6.55086485,4.35243087 6.75390252,4.36881902 6.91633264,4.27020007 C7.60230986,3.85295492 8.34832822,3.54462572 9.13379388,3.35362404 C9.32174874,3.30794027 9.45169284,3.14797455 9.46793585,2.96204883 L9.96508804,0.891051123 L12.0349119,0.891051123 L12.526263,2.93840931 C12.5338044,3.13434194 12.6704198,3.30605492 12.8662061,3.35362404 C13.6516717,3.54462572 14.3976901,3.85295492 15.0836673,4.27020007 C15.2417466,4.36620851 15.438113,4.35243087 15.5805295,4.24554534 L17.4162799,3.12027424 L18.8798914,4.58375029 L17.761734,6.40791063 C17.6480329,6.55105312 17.6312098,6.75394709 17.7301181,6.91637829 C18.1472155,7.60236002 18.4552526,8.34852831 18.646108,9.13370911 C18.6919365,9.32152017 18.8517562,9.45161016 19.0373906,9.46814334 L21.1089548,9.96529881 L21.1089548,12.0348462 L21.1089548,12.0348462 Z" id="XMLID_1305_"></path>
            <path d="M9.08564497,8.11227793 L7.48773863,8.11227793 C6.23847695,8.11227793 5.22212846,9.12877815 5.22212846,10.3781931 L5.22212846,10.5545469 L3.41567346,10.5545469 L3.41567346,11.4455981 L5.22212846,11.4455981 L5.22212846,11.6219519 C5.22212846,12.8713669 6.23847695,13.8878671 7.48773863,13.8878671 L9.08564497,13.8878671 C9.33161059,13.8878671 9.5311676,13.6884538 9.5311676,13.4423415 L9.5311676,8.55780349 C9.5311676,8.31169122 9.33161059,8.11227793 9.08564497,8.11227793 Z M8.64012235,12.996816 L7.48773863,12.996816 C6.72982808,12.996816 6.11317371,12.3800125 6.11317371,11.6219519 L6.11317371,10.3781931 C6.11317371,9.62013249 6.72982808,9.00332905 7.48773863,9.00332905 L8.64012235,9.00332905 L8.64012235,12.996816 Z" id="XMLID_1339_"></path>
            <path d="M17.4461555,10.3781931 C17.4461555,9.12877812 16.429807,8.11227793 15.1805453,8.11227793 L13.582639,8.11227793 C13.3366733,8.11227793 13.1371163,8.31169122 13.1371163,8.55780349 L13.1371163,9.36807409 L11.3390729,9.36807409 L11.3390729,10.2591252 L13.1371163,10.2591252 L13.1371163,11.6547282 L11.3390729,11.6547282 L11.3390729,12.5457794 L13.1371163,12.5457794 L13.1371163,13.4423415 C13.1371163,13.6884538 13.3366733,13.8878671 13.582639,13.8878671 L15.1805453,13.8878671 C16.429807,13.8878671 17.4461555,12.8713669 17.4461555,11.621952 L17.4461555,11.4455981 L19.2526105,11.4455981 L19.2526105,10.5545469 L17.4461555,10.5545469 L17.4461555,10.3781931 Z M16.5551102,11.6219519 C16.5551102,12.3800125 15.9384559,12.996816 15.1805453,12.996816 L14.0281616,12.996816 L14.0281616,9.00332905 L15.1805453,9.00332905 C15.9384559,9.00332905 16.5551102,9.62013252 16.5551102,10.3781931 L16.5551102,11.6219519 Z" id="XMLID_1350_"></path>
        </g>
    </g>
</svg>