<?xml version="1.0" encoding="UTF-8"?>
<svg width="30px" height="30px" viewBox="0 0 30 30" version="1.1" xmlns="http://www.w3.org/2000/svg" xmlns:xlink="http://www.w3.org/1999/xlink">
    <title>audio/music</title>
    <g id="audio/music" stroke="none" stroke-width="1" fill="none" fill-rule="evenodd" stroke-opacity="0.85">
        <g id="iconfinder_2818854_lesson_music_musical_note_icon" transform="translate(6.000000, 6.000000)" stroke="#000000" stroke-width="1.2">
            <path d="M15.2713123,11.2182595 C14.7569577,11.0233632 14.165519,10.9530325 13.5554142,11.0454071 C11.8813421,11.2976876 10.6950081,12.6693097 10.9072485,14.109163 C11.1184519,15.5490164 12.647689,16.5119511 14.3217611,16.2596706 C15.9965246,16.0073901 17,14.7494866 17,13.1959146 L16.9996543,0 L6.11732129,1.69983171 L6.11732129,14.8960962 C6.11732129,16.4493183 5.11384588,17.7075717 3.43908241,17.9598522 C1.76501027,18.2121327 0.235773204,17.249198 0.0245698027,15.8093447 C-0.187670604,14.3694913 0.998663397,12.9978692 2.67273553,12.7455887 C3.29321034,12.6518145 3.89259937,12.7249444 4.41386734,12.9275386" id="Path" stroke-linecap="round" stroke-linejoin="round"></path>
            <line x1="6.11835829" y1="5.68243454" x2="16.9751119" y2="4.13761012" id="Path"></line>
        </g>
    </g>
</svg>