<?xml version="1.0" encoding="UTF-8"?>
<svg width="30px" height="30px" viewBox="0 0 30 30" version="1.1" xmlns="http://www.w3.org/2000/svg" xmlns:xlink="http://www.w3.org/1999/xlink">
    <title>Admin System</title>
    <g id="Admin-System" stroke="none" stroke-width="1" fill="none" fill-rule="evenodd" opacity="0.85">
        <g id="iconfinder_2662480_administrator_delegate_leadership_managing-authority_representative_icon" transform="translate(3.000000, 3.000000)" fill="#010101" fill-rule="nonzero" stroke="#000000" stroke-width="0.4">
            <path d="M12.0363636,7.81818182 C13.5636364,7.81818182 14.8363636,6.58181818 14.8363636,5.05454545 C14.8363636,3.52727273 13.5636364,2.29090909 12.0363636,2.29090909 C10.5090909,2.29090909 9.23636364,3.52727273 9.23636364,5.05454545 C9.23636364,6.58181818 10.5090909,7.81818182 12.0363636,7.81818182 Z M12.0363636,3.01818182 C13.1636364,3.01818182 14.1090909,3.92727273 14.1090909,5.05454545 C14.1090909,6.18181818 13.1636364,7.09090909 12.0363636,7.09090909 C10.9090909,7.09090909 9.96363636,6.18181818 9.96363636,5.05454545 C9.96363636,3.92727273 10.9090909,3.01818182 12.0363636,3.01818182 Z" id="Shape"></path>
            <path d="M21.4545455,18.2181818 L21.4545455,15.3090909 C21.4545455,15.0909091 21.3090909,14.9454545 21.0909091,14.9454545 L12.4,14.9454545 L12.4,12.5090909 C15.7090909,12.3272727 18.3272727,9.56363636 18.3272727,6.25454545 C18.3636364,2.8 15.5272727,0 12.0363636,0 C8.54545455,0 5.74545455,2.8 5.74545455,6.29090909 C5.74545455,9.6 8.36363636,12.3636364 11.6727273,12.5454545 L11.6727273,14.9818182 L2.90909091,14.9818182 C2.69090909,14.9818182 2.54545455,15.1272727 2.54545455,15.3454545 L2.54545455,18.2545455 C1.09090909,18.4 0,19.6363636 0,21.0909091 C0,22.6909091 1.30909091,24 2.90909091,24 C4.50909091,24 5.81818182,22.6909091 5.81818182,21.0909091 C5.81818182,19.6 4.72727273,18.4 3.27272727,18.2181818 L3.27272727,15.6727273 L11.6727273,15.6727273 L11.6727273,18.2181818 C10.2545455,18.4 9.12727273,19.6 9.12727273,21.0909091 C9.12727273,22.6909091 10.4363636,24 12.0363636,24 C13.6363636,24 14.9454545,22.6909091 14.9454545,21.0909091 C14.9454545,19.6 13.8545455,18.4 12.4,18.2181818 L12.4,15.6727273 L20.7272727,15.6727273 L20.7272727,18.2181818 C19.3090909,18.4 18.1818182,19.6 18.1818182,21.0909091 C18.1818182,22.6909091 19.4909091,24 21.0909091,24 C22.6909091,24 24,22.6909091 24,21.0909091 C24,19.6363636 22.9090909,18.4 21.4545455,18.2181818 Z M8.29090909,10.3636364 C8.76363636,9.34545455 9.78181818,8.69090909 10.9090909,8.69090909 L13.2,8.69090909 C14.3272727,8.69090909 15.3454545,9.34545455 15.8181818,10.3636364 C14.8363636,11.2727273 13.5272727,11.8181818 12.0727273,11.8181818 C12.0727273,11.8181818 12.0727273,11.8181818 12.0727273,11.8181818 C12.0727273,11.8181818 12.0727273,11.8181818 12.0727273,11.8181818 C12.0727273,11.8181818 12.0727273,11.8181818 12.0727273,11.8181818 C10.6181818,11.8181818 9.27272727,11.2727273 8.29090909,10.3636364 Z M12.0363636,0.727272727 C15.1272727,0.727272727 17.6,3.23636364 17.6,6.29090909 C17.6,7.63636364 17.1272727,8.87272727 16.3272727,9.81818182 C15.7090909,8.69090909 14.5090909,7.96363636 13.1636364,7.96363636 L10.9090909,7.96363636 C9.6,7.96363636 8.4,8.69090909 7.74545455,9.81818182 C6.94545455,8.87272727 6.47272727,7.63636364 6.47272727,6.29090909 C6.47272727,3.23636364 8.98181818,0.727272727 12.0363636,0.727272727 Z M5.09090909,21.0909091 C5.09090909,22.2909091 4.10909091,23.2727273 2.90909091,23.2727273 C1.70909091,23.2727273 0.727272727,22.2909091 0.727272727,21.0909091 C0.727272727,19.8909091 1.70909091,18.9090909 2.90909091,18.9090909 C4.10909091,18.9454545 5.09090909,19.8909091 5.09090909,21.0909091 Z M14.2181818,21.0909091 C14.2181818,22.2909091 13.2363636,23.2727273 12.0363636,23.2727273 C10.8363636,23.2727273 9.85454545,22.2909091 9.85454545,21.0909091 C9.85454545,19.8909091 10.8363636,18.9090909 12.0363636,18.9090909 C13.2363636,18.9454545 14.2181818,19.8909091 14.2181818,21.0909091 Z M21.0909091,23.2727273 C19.8909091,23.2727273 18.9090909,22.2909091 18.9090909,21.0909091 C18.9090909,19.8909091 19.8909091,18.9090909 21.0909091,18.9090909 C22.2909091,18.9090909 23.2727273,19.8909091 23.2727273,21.0909091 C23.2727273,22.2909091 22.2909091,23.2727273 21.0909091,23.2727273 Z" id="Shape"></path>
        </g>
    </g>
</svg>