<?xml version="1.0" encoding="UTF-8"?>
<svg width="50px" height="50px" viewBox="0 0 50 50" version="1.1" xmlns="http://www.w3.org/2000/svg" xmlns:xlink="http://www.w3.org/1999/xlink">
    <title>d3</title>
    <g id="d3" stroke="none" stroke-width="1" fill="none" fill-rule="evenodd" fill-opacity="0.85">
        <g id="Group" transform="translate(-0.050000, 6.950000)" fill="#000000" fill-rule="nonzero">
            <path d="M20.5887672,0.106726831 L7.95718822,6.28319742 C7.17216533,6.66705052 7.17216533,7.78589066 7.95718822,8.16974376 L20.5887672,14.3462143 C20.8797917,14.4885168 21.2202083,14.4885168 21.5112328,14.3462143 L34.1428118,8.16974376 C34.9278347,7.78589066 34.9278347,6.66705052 34.1428118,6.28319742 L21.5112328,0.106726831 C21.2202083,-0.0355756104 20.8797917,-0.0355756104 20.5887672,0.106726831 Z M21.05,2.219 L31.291,7.226 L21.05,12.233 L10.808,7.226 L21.05,2.219 Z" id="Path"></path>
            <path d="M41.05,24.7058824 L26.3131579,24.7058824 C25.7332589,24.7058824 25.2631579,25.1759834 25.2631579,25.7558824 L25.2631579,36.05 C25.2631579,36.629899 25.7332589,37.1 26.3131579,37.1 L41.05,37.1 C41.629899,37.1 42.1,36.629899 42.1,36.05 L42.1,25.7558824 C42.1,25.1759834 41.629899,24.7058824 41.05,24.7058824 Z M40,26.805 L40,34.999 L27.363,34.999 L27.363,26.805 L40,26.805 Z" id="Rectangle"></path>
            <path d="M15.7868421,24.7058824 L1.05,24.7058824 C0.470101013,24.7058824 0,25.1759834 0,25.7558824 L0,36.05 C0,36.629899 0.470101013,37.1 1.05,37.1 L15.7868421,37.1 C16.3667411,37.1 16.8368421,36.629899 16.8368421,36.05 L16.8368421,25.7558824 C16.8368421,25.1759834 16.3667411,24.7058824 15.7868421,24.7058824 Z M14.736,26.805 L14.736,34.999 L2.1,34.999 L2.1,26.805 L14.736,26.805 Z" id="Rectangle"></path>
            <path d="M21.05,15.4411765 C21.5912391,15.4411765 22.0368319,15.8506867 22.0938387,16.3767674 L22.1,16.4911765 L22.1,18.55 C22.1,19.129899 21.629899,19.6 21.05,19.6 C20.5087609,19.6 20.0631681,19.1904898 20.0061613,18.6644091 L20,18.55 L20,16.4911765 C20,15.9112775 20.470101,15.4411765 21.05,15.4411765 Z" id="Path"></path>
            <path d="M31.5763158,18.5294118 C33.2538309,18.5294118 34.6334171,19.8219966 34.7265663,21.4613108 L34.7315789,21.6382353 L34.7315789,22.6676471 C34.7315789,23.247546 34.2614779,23.7176471 33.6815789,23.7176471 C33.1403399,23.7176471 32.6947471,23.3081368 32.6377402,22.7820561 L32.6315789,22.6676471 L32.6315789,21.6382353 C32.6315789,21.1231742 32.2245261,20.6907631 31.6922004,20.6353974 L31.5763158,20.6294118 L10.5236842,20.6294118 C9.97489996,20.6294118 9.53126151,21.0274855 9.47454876,21.5292374 L9.46842105,21.6382353 L9.46842105,22.6676471 C9.46842105,23.247546 8.99832004,23.7176471 8.41842105,23.7176471 C7.877182,23.7176471 7.43158918,23.3081368 7.37458231,22.7820561 L7.36842105,22.6676471 L7.36842105,21.6382353 C7.36842105,19.9753611 8.69016191,18.6254358 10.3451355,18.5343148 L10.5236842,18.5294118 L31.5763158,18.5294118 Z" id="Path"></path>
        </g>
    </g>
</svg>