<?xml version="1.0" encoding="UTF-8"?>
<svg width="30px" height="30px" viewBox="0 0 30 30" version="1.1" xmlns="http://www.w3.org/2000/svg" xmlns:xlink="http://www.w3.org/1999/xlink">
    <title>CMS</title>
    <g id="CMS" stroke="none" stroke-width="1" fill="none" fill-rule="evenodd" fill-opacity="0.85">
        <g id="iconfinder_3206947_customer_recruitment_target_team_icon" transform="translate(3.000000, 3.000000)" fill="#000000" fill-rule="nonzero">
            <path d="M14.334,12.066 C15.3232624,10.8409643 15.1970742,9.05957041 14.0450015,7.98621999 C12.8929288,6.91286957 11.1070712,6.91286957 9.95499847,7.98621999 C8.80292578,9.05957041 8.67673757,10.8409643 9.666,12.066 C8.57644777,12.3146551 7.80271945,13.2824375 7.8,14.4 L7.8,16.2 C7.8,16.5313708 8.06862915,16.8 8.4,16.8 L15.6,16.8 C15.9313708,16.8 16.2,16.5313708 16.2,16.2 L16.2,14.4 C16.1972806,13.2824375 15.4235522,12.3146551 14.334,12.066 Z M12,8.4 C12.9941125,8.4 13.8,9.20588745 13.8,10.2 C13.8,11.1941125 12.9941125,12 12,12 C11.0058875,12 10.2,11.1941125 10.2,10.2 C10.2,9.20588745 11.0058875,8.4 12,8.4 Z M15,15.6 L9,15.6 L9,14.4 C9,13.7372583 9.5372583,13.2 10.2,13.2 L13.8,13.2 C14.4627417,13.2 15,13.7372583 15,14.4 L15,15.6 Z" id="Shape"></path>
            <path d="M23.4,11.4 L22.2,11.4 C21.8889747,6.23751085 17.7634373,2.12486576 12.6,1.83 L12.6,0.6 C12.6,0.26862915 12.3313708,0 12,0 C11.6686292,0 11.4,0.26862915 11.4,0.6 L11.4,1.83 C6.24826682,2.13948151 2.13948151,6.24826682 1.83,11.4 L0.6,11.4 C0.26862915,11.4 0,11.6686292 0,12 C0,12.3313708 0.26862915,12.6 0.6,12.6 L1.83,12.6 C2.12486576,17.7634373 6.23751085,21.8889747 11.4,22.2 L11.4,23.4 C11.4,23.7313708 11.6686292,24 12,24 C12.3313708,24 12.6,23.7313708 12.6,23.4 L12.6,22.2 C17.7741998,21.9036179 21.9036179,17.7741998 22.2,12.6 L23.4,12.6 C23.7313708,12.6 24,12.3313708 24,12 C24,11.6686292 23.7313708,11.4 23.4,11.4 L23.4,11.4 Z M12.6,21 L12.6,19.8 C12.6,19.4686292 12.3313708,19.2 12,19.2 C11.6686292,19.2 11.4,19.4686292 11.4,19.8 L11.4,21 C6.89901173,20.6935538 3.32034054,17.1020559 3.03,12.6 L4.2,12.6 C4.53137085,12.6 4.8,12.3313708 4.8,12 C4.8,11.6686292 4.53137085,11.4 4.2,11.4 L3.03,11.4 C3.33472028,6.9096456 6.9096456,3.33472028 11.4,3.03 L11.4,4.2 C11.4,4.53137085 11.6686292,4.8 12,4.8 C12.3313708,4.8 12.6,4.53137085 12.6,4.2 L12.6,3.03 C17.1020559,3.32034054 20.6935538,6.89901173 21,11.4 L19.8,11.4 C19.4686292,11.4 19.2,11.6686292 19.2,12 C19.2,12.3313708 19.4686292,12.6 19.8,12.6 L21,12.6 C20.7079638,17.112697 17.112697,20.7079638 12.6,21 L12.6,21 Z" id="Shape"></path>
        </g>
    </g>
</svg>