<?xml version="1.0" encoding="UTF-8"?>
<svg width="50px" height="50px" viewBox="0 0 50 50" version="1.1" xmlns="http://www.w3.org/2000/svg" xmlns:xlink="http://www.w3.org/1999/xlink">
    <title>d9</title>
    <g id="d9" stroke="none" stroke-width="1" fill="none" fill-rule="evenodd" fill-opacity="0.85">
        <g id="iconfinder_Analytics-27_749282" transform="translate(0.000000, 10.000000)" fill="#000000" fill-rule="nonzero" stroke="#FFFFFF" stroke-width="1.25">
            <g id="Group">
                <path d="M21.2286535,5.27870046 C26.5123533,5.27870046 30.811003,9.87274158 30.811003,15.5195226 C30.811003,17.7129794 30.162386,19.7475899 29.0593677,21.4157922 L36.1702141,29.0154887 C36.8091159,29.6982941 36.8091159,30.8051605 36.1702141,31.4879659 C35.8507632,31.8292287 35.4319828,32 35.0134642,32 C34.5948147,32 34.176296,31.8293686 33.8567142,31.4879659 L26.7456557,23.8884508 C25.1847438,25.0671992 23.2810105,25.7603447 21.2286535,25.7603447 C15.9449537,25.7603447 11.646304,21.1663036 11.646304,15.5195226 C11.646304,9.87274158 15.9449537,5.27870046 21.2286535,5.27870046 Z M0.35847133,22.2969465 C0.922777897,21.5429515 1.95219243,21.4207123 2.65770651,22.0239363 L2.65770651,22.0239363 L8.32014077,26.8649734 L11.5173981,23.4905273 C12.1853528,24.4178111 12.9665091,25.2470519 13.8390119,25.9543331 L13.8390119,25.9543331 L9.58381058,30.4454359 C9.26697705,30.7798455 8.85120665,30.9497776 8.43399669,30.9497776 C8.07384556,30.9497776 7.71251661,30.8232027 7.41243429,30.5666961 L7.41243429,30.5666961 L0.613927364,24.7541788 C-0.0914558452,24.1510947 -0.205835238,23.0509416 0.35847133,22.2969465 Z M21.2286535,8.7752459 C17.7489811,8.7752459 14.9180257,11.8007367 14.9180257,15.5195226 C14.9180257,19.2383085 17.7489811,22.2637993 21.2286535,22.2637993 C24.7083259,22.2637993 27.5392813,19.2383085 27.5392813,15.5195226 C27.5392813,11.8007367 24.7083259,8.7752459 21.2286535,8.7752459 Z M47.106533,0.630253091 C47.6844499,-0.111993574 48.7156966,-0.21325353 49.4103486,0.404376256 C50.1048697,1.02186618 50.1994879,2.12411716 49.6215709,2.86636383 L49.6215709,2.86636383 L43.1677726,11.1572325 C42.8460969,11.5705242 42.3804655,11.7874499 41.9093375,11.7874499 C41.5893632,11.7874499 41.2669023,11.6875885 40.9852725,11.4811525 L40.9852725,11.4811525 L34.7916414,6.94389526 L32.2476815,9.80225122 C31.7532589,8.71860186 31.1227327,7.71845 30.3804444,6.82683092 L30.3804444,6.82683092 L33.3817911,3.4547625 C33.9351047,2.83279699 34.8294625,2.73209648 35.4919208,3.21769672 L35.4919208,3.21769672 L41.6058526,7.69663156 Z" id="Combined-Shape"></path>
            </g>
        </g>
    </g>
</svg>