<?xml version="1.0" encoding="UTF-8"?>
<svg width="146px" height="32px" viewBox="0 0 146 32" version="1.1" xmlns="http://www.w3.org/2000/svg" xmlns:xlink="http://www.w3.org/1999/xlink">
    <title>dynamo</title>
    <g id="Page-1" stroke="none" stroke-width="1" fill="none" fill-rule="evenodd">
        <g id="App-Development" transform="translate(-969.000000, -5415.000000)" fill="#000000">
            <g id="dynamo" transform="translate(969.000000, 5415.000000)">
                <g id="aws-dynamodb" fill-rule="nonzero">
                    <polyline id="Path" fill-opacity="0.72" points="18.7206328 32 19.1180234 32 25.6046211 28.8239694 25.7125781 28.6745627 25.7125781 3.32355174 25.6046211 3.17336855 19.1180234 0 18.7157617 0 18.7206328 32"></polyline>
                    <polyline id="Path" fill-opacity="0.77" points="10.2792539 32 9.8763125 32 3.39526563 28.8239694 3.26374609 28.6024658 3.19702344 3.45266048 3.39526563 3.17336855 9.8763125 0 10.2842383 0 10.2792539 32"></polyline>
                    <polygon id="Path" fill-opacity="0.83" points="9.88775391 0 19.111793 0 19.111793 32 9.88775391 32"></polygon>
                    <polyline id="Path" fill-opacity="0.85" points="29 15.2810839 28.7808008 15.2335001 25.6510664 14.9477749 25.6046211 14.9704022 19.1122461 14.7161778 9.88775391 14.7161778 3.39526563 14.9704022 3.39526563 10.1228349 3.38846875 10.1263843 3.39526563 10.1121868 9.88775391 8.63919362 19.1122461 8.63919362 25.6046211 10.1121868 27.9913437 11.3543593 27.9913437 10.5557485 29 10.4477142 28.8955547 10.2482834 25.7019297 8.01228419 25.6046211 8.04323035 19.1122461 6.07343475 9.88775391 6.07343475 3.39526562 8.04323035 3.39526562 3.17336855 7.54604712e-17 7.06803789 7.54604712e-17 10.4694542 0.02628125 10.4508199 1.00865625 10.5557485 1.00865625 11.3707751 7.54604712e-17 11.8993002 7.54604712e-17 15.283746 0.02628125 15.2810839 1.00865625 15.2952815 1.00865625 16.7158103 0.161085938 16.7282332 7.54604712e-17 16.7131483 7.54604712e-17 20.0989251 1.00865625 20.6300013 1.00865625 21.454456 0.0422539062 21.5589409 0 21.5278838 0 24.9287455 3.39526562 28.8239694 3.39526562 23.9545513 9.88775391 25.9243469 19.1122461 25.9243469 25.6237656 23.9487835 25.7103125 23.9859411 28.8619102 21.7828846 29 21.5633776 27.9913437 21.454456 27.9913437 20.6465281 27.8591445 20.5948402 25.7019297 21.7334151 25.6237656 21.8931373 19.1122461 23.3575897 19.1122461 23.3593644 9.88775391 23.3593644 9.88775391 23.3575897 3.39526562 21.8869259 3.39526562 17.0216117 9.88775391 17.2749488 9.88775391 17.2811602 19.1122461 17.2811602 25.6046211 17.0216117 25.7524531 17.0881626 28.7860117 16.8323853 29 16.7300079 27.9913437 16.7158103 27.9913437 15.2952815 29 15.2810839"></polyline>
                    <path d="M25.6046211,23.9545513 L25.6046211,28.8239694 L29,24.9287455 L29,21.5500674 L25.6242187,23.9487835 L25.6046211,23.9545513 M25.6046211,21.897574 L25.6242187,21.8931373 L29,20.115341 L29,16.7158103 L25.6046211,17.0216117 L25.6046211,21.897574 M25.6242187,10.1166235 L25.6046211,10.1121868 L25.6046211,14.9704022 L29,15.2810839 L29,11.883217 L25.6242187,10.1166235 M25.6242187,8.06230828 L29,10.4477142 L29,7.06892524 L25.6046211,3.17336855 L25.6046211,8.04323035 L25.6242187,8.04988544 L25.6242187,8.06230828" id="Shape" fill-opacity="0.62"></path>
                </g>
                <text id="DynamoDB" font-family="Gibson-SemiBold, Gibson" font-size="22" font-weight="500" letter-spacing="-1.02142857" fill-opacity="0.85">
                    <tspan x="39" y="23">DynamoDB</tspan>
                </text>
            </g>
        </g>
    </g>
</svg>