<?xml version="1.0" encoding="UTF-8"?>
<svg width="93px" height="34px" viewBox="0 0 93 34" version="1.1" xmlns="http://www.w3.org/2000/svg" xmlns:xlink="http://www.w3.org/1999/xlink">
    <title>flutter</title>
    <defs>
        <path d="M27.2492576,15.6890344 L18.1661717,24.8445172 L27.2492576,34 L16.8699803,34 L7.78364583,24.8445172 L16.8699803,15.6890344 L27.2492576,15.6890344 Z M16.8699803,0 L0,16.9983633 L5.19126295,22.2291326 L27.2492576,0 L16.8699803,0 Z" id="path-1"></path>
        <path d="M27.2492576,15.6890344 L18.1661717,24.8445172 L27.2492576,34 L16.8699803,34 L7.78364583,24.8445172 L16.8699803,15.6890344 L27.2492576,15.6890344 Z M16.8699803,0 L0,16.9983633 L5.19126295,22.2291326 L27.2492576,0 L16.8699803,0 Z" id="path-3"></path>
        <path d="M27.2492576,15.6890344 L18.1661717,24.8445172 L27.2492576,34 L16.8699803,34 L7.78364583,24.8445172 L16.8699803,15.6890344 L27.2492576,15.6890344 Z M16.8699803,0 L0,16.9983633 L5.19126295,22.2291326 L27.2492576,0 L16.8699803,0 Z" id="path-5"></path>
        <path d="M27.2492576,15.6890344 L18.1661717,24.8445172 L27.2492576,34 L16.8699803,34 L7.78364583,24.8445172 L16.8699803,15.6890344 L27.2492576,15.6890344 Z M16.8699803,0 L0,16.9983633 L5.19126295,22.2291326 L27.2492576,0 L16.8699803,0 Z" id="path-7"></path>
        <path d="M27.2492576,15.6890344 L18.1661717,24.8445172 L27.2492576,34 L16.8699803,34 L7.78364583,24.8445172 L16.8699803,15.6890344 L27.2492576,15.6890344 Z M16.8699803,0 L0,16.9983633 L5.19126295,22.2291326 L27.2492576,0 L16.8699803,0 Z" id="path-9"></path>
    </defs>
    <g id="Page-1" stroke="none" stroke-width="1" fill="none" fill-rule="evenodd">
        <g id="App-Development" transform="translate(-135.000000, -5214.000000)">
            <g id="flutter" transform="translate(135.000000, 5214.000000)">
                <g id="Group">
                    <g id="Clipped">
                        <mask id="mask-2" fill="white">
                            <use xlink:href="#path-1"></use>
                        </mask>
                        <g id="Shape"></g>
                        <polygon id="Path" fill-opacity="0.85" fill="#000000" fill-rule="nonzero" mask="url(#mask-2)" points="12.9749088 30.0752864 27.2492576 15.6890344 16.8699803 15.6890344 7.78689443 24.8445172"></polygon>
                    </g>
                    <g id="Clipped">
                        <mask id="mask-4" fill="white">
                            <use xlink:href="#path-3"></use>
                        </mask>
                        <g id="Shape"></g>
                        <polygon id="Path" fill-opacity="0.85" fill="#000000" fill-rule="nonzero" mask="url(#mask-4)" points="0 16.9983633 16.8699803 0 27.2492576 0 5.19126295 22.2291326"></polygon>
                    </g>
                    <g id="Clipped">
                        <mask id="mask-6" fill="white">
                            <use xlink:href="#path-5"></use>
                        </mask>
                        <g id="Shape"></g>
                        <polygon id="Path" fill-opacity="0.85" fill="#000000" fill-rule="nonzero" mask="url(#mask-6)" points="16.8699803 33.9967267 27.2492576 33.9967267 18.1661717 24.8445172 12.9749088 30.0752864"></polygon>
                    </g>
                    <g id="Clipped">
                        <mask id="mask-8" fill="white">
                            <use xlink:href="#path-7"></use>
                        </mask>
                        <g id="Shape"></g>
                        <polygon id="Path" fill-opacity="0.85" fill="#000000" fill-rule="nonzero" mask="url(#mask-8)" points="18.1661717 24.8445172 12.9749088 30.0752864 20.674091 27.3878887"></polygon>
                    </g>
                    <g id="Clipped">
                        <mask id="mask-10" fill="white">
                            <use xlink:href="#path-9"></use>
                        </mask>
                        <g id="Shape"></g>
                        <polygon id="Path" fill-opacity="0.85" fill="#000000" fill-rule="nonzero" mask="url(#mask-10)" points="7.78630968 24.8427169 12.9777026 19.611784 18.1694203 24.8427169 12.9777026 30.0736498"></polygon>
                    </g>
                </g>
                <g id="Group" transform="translate(30.544431, 9.113740)" fill="#000000" fill-opacity="0.85" fill-rule="nonzero">
                    <path d="M0,0 L9.07154359,0 L9.07154359,1.78764098 L1.84108818,1.78764098 L1.84108818,7.19609819 L8.36858264,7.19609819 L8.36858264,8.96181527 L1.84108818,8.96181527 L1.84108818,15.8046014 L0,15.8046014 L0,0 Z M11.2666228,0 L13.1286325,0 L13.1286325,15.8054446 L11.2666228,15.8054446 L11.2666228,0 Z M19.9406587,16.1587567 C18.5972223,16.1587567 17.5650971,15.7613157 16.8442831,14.9664339 C16.1480171,14.1664926 15.799884,13.0554007 15.799884,11.633158 L15.799884,4.54752256 L17.6618937,4.54752256 L17.6618937,11.3464609 C17.6618937,12.4145483 17.9029088,13.20156 18.3849392,13.7074961 C18.8669696,14.2134323 19.5169295,14.4664003 20.334819,14.4664003 C20.9630206,14.4664003 21.5209261,14.2971928 22.0085355,13.9587778 C22.5106505,13.6203627 22.8900262,13.179074 23.1466627,12.6349116 C23.4239418,12.0896248 23.5625813,11.5156684 23.5625813,10.9130423 L23.5625813,4.5551116 L25.4237541,4.5551116 L25.4237541,15.8121904 L23.6496145,15.8121904 L23.6496145,14.1712709 L23.5617444,14.1712709 C23.2548964,14.7306114 22.7656133,15.2014131 22.093895,15.583676 C21.4221768,15.9659388 20.706384,16.1570702 19.9465167,16.1570702 L19.9406587,16.1587567 Z" id="Shape"></path>
                    <path d="M32.5906082,15.9825223 C32.137589,15.9825223 31.7141387,15.9088805 31.3202574,15.7615968 C30.9408817,15.6143132 30.6195281,15.4155927 30.3561967,15.1654354 C30.0638542,14.8860462 29.8448763,14.5622471 29.6992629,14.1940381 C29.5530917,13.8263911 29.4800061,13.3775134 29.4800061,12.8474047 L29.4800061,6.24746795 L27.5301263,6.24746795 L27.5301263,4.54752256 L29.4800061,4.54752256 L29.4800061,1.36855722 L31.3420157,1.36855722 L31.3420157,4.54752256 L34.0584576,4.54752256 L34.0584576,6.24746795 L31.3420157,6.24746795 L31.3420157,12.3844732 C31.3420157,13.0028396 31.4591759,13.4590253 31.6934962,13.7530304 C31.9707752,14.0768295 32.3724672,14.2387291 32.8985721,14.2387291 C33.3225803,14.2387291 33.731525,14.1136504 34.1254063,13.8634931 L34.1254063,15.6958251 C33.9061494,15.7986988 33.6796398,15.8723406 33.4458774,15.9167506 C33.2266205,15.9617227 32.9420887,15.9842087 32.592282,15.9842087 L32.5906082,15.9825223 Z" id="a"></path>
                    <g id="a-link" transform="translate(35.426721, 1.368557)">
                        <path d="M5.06048192,14.613965 C4.60746265,14.613965 4.18401237,14.5403232 3.79013108,14.3930396 C3.41075533,14.245756 3.08940176,14.0470355 2.82607036,13.7968782 C2.53372787,13.517489 2.31474996,13.1936899 2.16913662,12.8254808 C2.02296538,12.4578339 1.94987976,12.0089561 1.94987976,11.4788475 L1.94987976,4.87891072 L0,4.87891072 L0,3.17896533 L1.94987976,3.17896533 L1.94987976,0 L3.81188939,0 L3.81188939,3.17896533 L6.52833132,3.17896533 L6.52833132,4.87891072 L3.81188939,4.87891072 L3.81188939,11.0159159 C3.81188939,11.6342823 3.92904955,12.0904681 4.16336987,12.3844732 C4.4406489,12.7082723 4.84234087,12.8701719 5.36844577,12.8701719 C5.79245395,12.8701719 6.20139869,12.7450932 6.59527998,12.4949359 L6.59527998,14.3272679 C6.37602312,14.4301416 6.14951348,14.5037834 5.91575107,14.5481933 C5.69649421,14.5931654 5.4119624,14.6156515 5.06215564,14.6156515 L5.06048192,14.613965 Z" id="a"></path>
                    </g>
                    <path d="M48.6884138,16.1587567 C47.6283934,16.1587567 46.6715854,15.9012914 45.81799,15.3863609 C44.9710894,14.8714303 44.3066239,14.1650873 43.8245936,13.2673317 C43.3570688,12.3549602 43.1233064,11.331845 43.1233064,10.1979859 C43.1233064,9.1090989 43.3422843,8.10846967 43.7802401,7.19609819 C44.2332594,6.2837267 44.8687137,5.55517868 45.6866032,5.01045412 C46.5044927,4.4651674 47.4537689,4.19252404 48.5344319,4.19252404 C49.6296004,4.19252404 50.5788766,4.44549211 51.3822606,4.95142823 C52.1856445,5.43712692 52.7993406,6.11395703 53.2233488,6.98191856 C53.6613046,7.85044225 53.8802825,8.84376351 53.8802825,9.96188235 C53.8802825,10.1828078 53.8579663,10.3739392 53.8133338,10.5352766 L44.9844791,10.5352766 C45.0291116,11.3886222 45.233584,12.1098623 45.5978962,12.6989968 C45.9627665,13.2875692 46.4230385,13.7288579 46.9787124,14.022863 C47.547776,14.3174303 48.1391558,14.4647139 48.7528519,14.4647139 C50.1844374,14.4647139 51.2871377,13.7878838 52.0609526,12.4342236 L53.6384305,13.2066194 C53.1564001,14.1189909 52.4991874,14.8402309 51.6667924,15.3703396 C50.8489029,15.899886 49.8558311,16.1646593 48.687577,16.1646593 L48.6884138,16.1587567 Z M51.9086444,8.9845824 C51.8796333,8.51349965 51.7485255,8.04269797 51.515321,7.57217737 C51.2810007,7.10109463 50.9085988,6.70365369 50.3981153,6.37985457 C49.8960003,6.05605545 49.2683566,5.89415589 48.5151842,5.89415589 C47.6392725,5.89415589 46.8944687,6.18085302 46.2807726,6.7542473 C45.68214,7.3135878 45.2877008,8.05675175 45.097455,8.98373917 L51.911155,8.98373917 L51.9086444,8.9845824 Z M56.0377031,4.54752256 L57.8118426,4.54752256 L57.8118426,6.35793067 L57.8997127,6.35793067 C58.1189696,5.73956429 58.5424199,5.23194171 59.1700636,4.83506293 C59.7982652,4.42300606 60.4554779,4.21697762 61.1417017,4.21697762 C61.6527431,4.21697762 62.0906989,4.29061944 62.4555691,4.43790307 L62.4555691,6.46839339 C61.9880443,6.23228986 61.4622184,6.1142381 60.8780913,6.1142381 C60.336923,6.1142381 59.840387,6.2688297 59.3884836,6.57801288 C58.9354643,6.88719607 58.5728257,7.30656091 58.3005678,7.83610739 C58.0383523,8.35103794 57.9072445,8.91318919 57.9072445,9.52256115 L57.9072445,15.8130337 L56.0452348,15.8130337 L56.0452348,4.55595483 L56.0377031,4.54752256 Z" id="Shape"></path>
                </g>
            </g>
        </g>
    </g>
</svg>