<?xml version="1.0" encoding="UTF-8"?>
<svg width="150px" height="24px" viewBox="0 0 150 24" version="1.1" xmlns="http://www.w3.org/2000/svg" xmlns:xlink="http://www.w3.org/1999/xlink">
    <title>google-cloud-3</title>
    <g id="Page-1" stroke="none" stroke-width="1" fill="none" fill-rule="evenodd" fill-opacity="0.85">
        <g id="App-Development" transform="translate(-135.000000, -5420.000000)" fill="#000000" fill-rule="nonzero">
            <g id="google-cloud-3" transform="translate(135.000000, 5420.000000)">
                <path d="M17.9968825,6.29336984 L18.8618989,6.29336984 L21.3271958,3.82491723 L21.4482981,2.77690753 C18.5770659,0.23941208 14.6007733,-0.633714285 10.9325138,0.467819761 C7.26425423,1.56935381 4.42408911,4.48938011 3.42135526,8.19018079 C3.69600038,8.07746475 4.00023678,8.0591872 4.28637172,8.13821336 L9.21696549,7.32405706 C9.21696549,7.32405706 9.46782026,6.90831768 9.59757273,6.93430139 C11.7908244,4.52246442 15.4818764,4.24138788 18.0141828,6.29336984 L17.9968825,6.29336984 Z" id="Path"></path>
                <path d="M24.8391626,8.19018079 C24.2725019,6.10077252 23.1090509,4.2224191 21.4915489,2.78556876 L18.0314831,6.25006365 C19.4925518,7.44542262 20.3247967,9.24613898 20.2891761,11.1350014 L20.2891761,11.7499493 C21.9899141,11.7499493 23.3686346,13.1304347 23.3686346,14.8333497 C23.3686346,16.5362648 21.9899141,17.9167502 20.2891761,17.9167502 L14.1302589,17.9167502 L13.5160972,18.5403593 L13.5160972,22.2387076 L14.1302589,22.8536554 L20.2891761,22.8536554 C23.8204672,22.8811834 26.9531312,20.5899218 28.0008999,17.213224 C29.0486686,13.8365261 27.7643046,10.1711767 24.8391626,8.19018079 Z" id="Path"></path>
                <path d="M7.96269163,22.8190104 L14.1216088,22.8190104 L14.1216088,17.8821052 L7.96269163,17.8821052 C7.52389669,17.8820081 7.09024731,17.7874874 6.69111745,17.6049456 L5.826101,17.873444 L3.34350378,20.3418966 L3.12724967,21.2080203 C4.5194347,22.2606265 6.2181944,22.8265903 7.96269163,22.8190104 L7.96269163,22.8190104 Z" id="Path"></path>
                <path d="M7.96269163,6.80433179 C4.54162337,6.82484503 1.51115859,9.01857898 0.419346533,12.2649618 C-0.672465525,15.5113446 0.415407955,19.0936918 3.12724967,21.1820366 L6.69976761,17.6049456 C5.45157669,17.0402949 4.72586446,15.7180546 4.91895766,14.3603279 C5.11205086,13.0026012 6.17753442,11.9357538 7.53352534,11.7424134 C8.88951626,11.549073 10.2100662,12.2757142 10.7739951,13.5255029 L14.346513,9.94841194 C12.8264951,7.95872859 10.4645108,6.79545242 7.96269163,6.80433179 Z" id="Path"></path>
                <g id="Group" transform="translate(33.654691, 3.339207)">
                    <path d="M8.10580044,16.0326309 C5.96320052,16.0599629 3.90186949,15.2124845 2.39669186,13.6854356 C0.843158963,12.2222836 -0.0260768757,10.1736655 0.000596288578,8.03830895 C-0.0250099525,5.90316312 0.844051097,3.85495691 2.39669186,2.39118229 C3.8945801,0.848225152 5.95683587,-0.0152766355 8.10580044,0.000680816947 C10.1526564,-0.0266335145 12.1249903,0.768925625 13.5813546,2.20929631 L12.0416253,3.77698024 C10.9871851,2.75664598 9.5720162,2.19608231 8.10580044,2.21795754 C6.56797896,2.19904559 5.09289082,2.82754616 4.04022312,3.95020499 C2.94683151,5.03631935 2.34379214,6.52238343 2.37074136,8.06429267 C2.35791672,9.58824776 2.95986775,11.0528924 4.04022312,12.1264129 C6.26768077,14.3490477 9.85776721,14.3912929 12.1367771,12.2216865 C12.8152942,11.4776809 13.2315658,10.5315044 13.3218496,9.52804175 L8.13175093,9.52804175 L8.13175093,7.31076503 L15.4757406,7.31076503 C15.547905,7.75731581 15.5768731,8.20979633 15.5622422,8.66191803 C15.6545371,10.5528991 14.9700392,12.3993408 13.6678562,13.772048 C12.2188288,15.2826312 10.1963849,16.1046118 8.10580044,16.0326309 L8.10580044,16.0326309 Z M25.1812252,14.5602206 C23.133428,16.5256851 19.9023331,16.5256851 17.8545358,14.5602206 C16.8627037,13.597314 16.3198214,12.2619363 16.3580574,10.8791948 C16.3208907,9.49664761 16.8636046,8.16168407 17.8545358,7.19816894 C19.9041118,5.2371412 23.1316492,5.2371412 25.1812252,7.19816894 C26.1721564,8.16168407 26.7148704,9.49664761 26.6777036,10.8791948 C26.7136869,12.2632422 26.1675868,13.598815 25.172575,14.5602206 L25.1812252,14.5602206 Z M19.4721166,13.113794 C20.0020101,13.680403 20.7426305,14.0019325 21.5178805,14.0019325 C22.2931305,14.0019325 23.0337509,13.680403 23.5636444,13.113794 C24.1411193,12.5161898 24.45305,11.7103782 24.4286609,10.8791948 C24.4544144,10.0452086 24.1424549,9.23619928 23.5636444,8.63593432 C23.0268951,8.07529933 22.2848645,7.75831248 21.5092303,7.75831248 C20.7335962,7.75831248 19.9915656,8.07529933 19.4548163,8.63593432 C18.8760058,9.23619928 18.5640463,10.0452086 18.5897998,10.8791948 C18.5677136,11.7116272 18.8828316,12.5176125 19.4634664,13.113794 L19.4721166,13.113794 Z M36.4437394,14.5602206 C34.3959422,16.5256851 31.1648473,16.5256851 29.11705,14.5602206 C28.1252179,13.597314 27.5823356,12.2619363 27.6205716,10.8791948 C27.5834049,9.49664761 28.1261188,8.16168407 29.11705,7.19816894 C31.1648473,5.23270445 34.3959422,5.23270445 36.4437394,7.19816894 C37.4346706,8.16168407 37.9773846,9.49664761 37.9402178,10.8791948 C37.9784538,12.2619363 37.4355715,13.597314 36.4437394,14.5602206 L36.4437394,14.5602206 Z M30.7346308,13.113794 C31.2645243,13.680403 32.0051447,14.0019325 32.7803947,14.0019325 C33.5556447,14.0019325 34.2962651,13.680403 34.8261586,13.113794 C35.4036334,12.5161898 35.7155642,11.7103782 35.6911751,10.8791948 C35.7169286,10.0452086 35.4049691,9.23619928 34.8261586,8.63593432 C34.2894093,8.07529933 33.5473787,7.75831248 32.7717445,7.75831248 C31.9961104,7.75831248 31.2540798,8.07529933 30.7173305,8.63593432 C30.1385199,9.23619928 29.8265605,10.0452086 29.852314,10.8791948 C29.8302278,11.7116272 30.1453458,12.5176125 30.7259806,13.113794 L30.7346308,13.113794 Z M43.8482802,20.6577316 C42.8114787,20.6907472 41.7947362,20.3666851 40.9677754,19.7396404 C40.2335231,19.1869507 39.6552601,18.4527507 39.2896435,17.6089761 L41.261881,16.7861585 C41.4765168,17.2904117 41.8122959,17.7337314 42.2393496,18.0766829 C42.6964483,18.4456301 43.2700465,18.6391218 43.8569304,18.6223408 C44.609986,18.6682094 45.3456974,18.3836653 45.8724187,17.8428295 C46.393566,17.213392 46.6508957,16.406267 46.5903823,15.5909078 L46.5903823,14.8460414 L46.5125309,14.8460414 C45.8441967,15.6408454 44.8410438,16.074069 43.8050294,16.0153084 C42.4919958,16.0192818 41.2372441,15.4727662 40.3449636,14.5082532 C39.3772155,13.5518656 38.8427013,12.240473 38.8657854,10.8791948 C38.8416505,9.51008255 39.3757825,8.1902448 40.3449636,7.22415266 C41.2350898,6.255552 42.4904546,5.70562685 43.8050294,5.70842543 C44.3552746,5.70747151 44.8988798,5.82875598 45.3966596,6.06354687 C45.8272791,6.25184002 46.2112091,6.53276335 46.521181,6.8863644 L46.5990325,6.8863644 L46.5990325,6.06354687 L48.7442733,6.06354687 L48.7442733,15.2877645 C48.8584028,16.7625063 48.3609372,18.2192209 47.3688972,19.3152398 C46.4243358,20.2200417 45.1546557,20.7041998 43.8482802,20.6577316 L43.8482802,20.6577316 Z M44.0039832,14.0059014 C44.7517825,14.0223572 45.4681588,13.7049708 45.9589203,13.1397777 C46.4926334,12.5273782 46.7740097,11.7348006 46.7460853,10.9225009 C46.7781258,10.0964924 46.4969194,9.28892272 45.9589203,8.66191803 C45.4688957,8.09572611 44.7520251,7.77812071 44.0039832,7.79579431 C43.2363475,7.7800105 42.4990022,8.09551866 41.9798447,8.66191803 C41.4076512,9.26639105 41.0967991,10.0725286 41.1148282,10.9051785 C41.0970586,11.7300689 41.4083655,12.5280347 41.9798447,13.1224552 C42.4965426,13.6943256 43.2338712,14.0161367 44.0039832,14.0059014 L44.0039832,14.0059014 Z M52.5589959,0.58098371 L52.5589959,15.7208264 L50.3013029,15.7208264 L50.3013029,0.58098371 L52.5589959,0.58098371 Z M58.7525137,16.0326309 C57.3856703,16.0678124 56.066005,15.5311102 55.1107944,14.5515593 C54.1418447,13.5795115 53.6134371,12.2521054 53.6489166,10.8791948 C53.597232,9.50317517 54.1061423,8.16518475 55.0588934,7.17218523 C55.9574184,6.22376593 57.2136573,5.6986148 58.5189592,5.72575862 C59.112569,5.7194815 59.701228,5.83441693 60.2489921,6.06354687 C60.7424028,6.26295276 61.192026,6.55720033 61.5724673,6.92967059 C61.899137,7.24542858 62.1892998,7.59697498 62.4374837,7.97768029 C62.638223,8.29911514 62.8090601,8.63832749 62.9478434,8.99104505 L63.1813979,9.58000918 L56.2612663,12.4295562 C56.6896831,13.4151604 57.6799767,14.0348862 58.7525137,13.9885789 C59.7894974,13.9914078 60.7517963,13.4488051 61.2870119,12.5594748 L63.0170448,13.7287418 C62.5755431,14.3611966 62.0105497,14.8974488 61.3562132,15.305087 C60.5780567,15.7973561 59.6727992,16.0503095 58.7525137,16.0326309 L58.7525137,16.0326309 Z M55.8633587,10.7232925 L60.4652462,8.80915907 C60.3234578,8.47165304 60.0699245,8.19332704 59.7472826,8.02098648 C59.386011,7.81671285 58.9770659,7.71210411 58.56221,7.71784318 C57.8582339,7.73610023 57.1898954,8.03179061 56.7024247,8.54066071 C56.1117783,9.10659305 55.8041225,9.90688675 55.8633587,10.7232925 L55.8633587,10.7232925 Z M75.0061728,16.0326309 C73.0660395,16.0661647 71.1961103,15.3062459 69.8281117,13.9283235 C68.4601132,12.5504011 67.7123031,10.6735908 67.7573349,8.73120793 C67.7123031,6.78882508 68.4601132,4.91201472 69.8281117,3.53409234 C71.1961103,2.15616996 73.0660395,1.39625115 75.0061728,1.42978496 C76.9749411,1.3681504 78.8640148,2.21023109 80.1357203,3.71635158 L78.8900966,4.92892479 C77.9553675,3.75173549 76.5155566,3.09205012 75.0148229,3.15337116 C73.5755647,3.12090396 72.1853587,3.67769817 71.1654997,4.69507139 C70.1046568,5.76318895 69.5371528,7.22614698 69.5998199,8.73120793 C69.5371528,10.2362689 70.1046568,11.6992269 71.1654997,12.7673445 C72.1853587,13.7847177 73.5755647,14.3415119 75.0148229,14.3090447 C76.6894561,14.327835 78.2814493,13.5818284 79.3399052,12.2823152 L80.5855289,13.5295333 C79.9333344,14.3104176 79.1145456,14.9349143 78.1894333,15.3570544 C77.1922412,15.8180305 76.1043913,16.0489025 75.0061728,16.0326309 L75.0061728,16.0326309 Z M83.9331425,15.7208264 L82.1425585,15.7208264 L82.1425585,1.73292826 L83.9331425,1.73292826 L83.9331425,15.7208264 Z M86.8568982,7.30210379 C88.8099851,5.35996316 91.9623455,5.35996316 93.9154324,7.30210379 C94.8421312,8.28177796 95.340282,9.5910976 95.2994587,10.9398234 C95.340282,12.2885492 94.8421312,13.5978689 93.9154324,14.5775431 C91.9623455,16.5196837 88.8099851,16.5196837 86.8568982,14.5775431 C85.9301993,13.5978689 85.4320486,12.2885492 85.4728718,10.9398234 C85.4320486,9.5910976 85.9301993,8.28177796 86.8568982,7.30210379 L86.8568982,7.30210379 Z M88.1890235,13.4515822 C88.7592132,14.0549369 89.5522481,14.3967626 90.3818402,14.3967626 C91.2114323,14.3967626 92.0044671,14.0549369 92.5746569,13.4515822 C93.2068585,12.7723389 93.54031,11.867435 93.5002245,10.9398234 C93.54031,10.0122118 93.2068585,9.10730794 92.5746569,8.42806463 C92.0044671,7.8247099 91.2114323,7.48288427 90.3818402,7.48288427 C89.5522481,7.48288427 88.7592132,7.8247099 88.1890235,8.42806463 C87.5568219,9.10730794 87.2233704,10.0122118 87.2634559,10.9398234 C87.2280406,11.8657053 87.5645046,12.7672105 88.1976736,13.442921 L88.1890235,13.4515822 Z M105.221197,15.7208264 L103.491165,15.7208264 L103.491165,14.3956571 L103.439264,14.3956571 C103.131354,14.8989663 102.695542,15.311426 102.17634,15.5909078 C101.637568,15.9035588 101.025771,16.0679096 100.403056,16.0672759 C99.3788109,16.1374321 98.3786131,15.7355651 97.6869041,14.97596 C97.0316179,14.1460819 96.7023822,13.104735 96.7613365,12.0484618 L96.7613365,6.15882048 L98.5519206,6.15882048 L98.5519206,11.7193348 C98.5519206,13.5035496 99.3390855,14.3956571 100.913415,14.3956571 C101.62313,14.4178143 102.299787,14.0951842 102.72995,13.5295333 C103.19406,12.9406 103.441483,12.2096135 103.430613,11.4594977 L103.430613,6.15882048 L105.221197,6.15882048 L105.221197,15.7208264 Z M111.302263,16.0326309 C110.072987,16.036717 108.903512,15.5018674 108.101702,14.5688818 C107.20489,13.5771063 106.72464,12.2772207 106.760927,10.9398234 C106.72464,9.60242616 107.20489,8.30254053 108.101702,7.31076503 C108.903512,6.37777941 110.072987,5.84292984 111.302263,5.84701594 C111.982774,5.83625872 112.655052,5.99709715 113.2572,6.31472275 C113.786326,6.58132747 114.234389,6.98509984 114.554725,7.48398977 L114.632576,7.48398977 L114.554725,6.15882048 L114.554725,1.73292826 L116.345309,1.73292826 L116.345309,15.7208264 L114.615276,15.7208264 L114.615276,14.3956571 L114.537425,14.3956571 C114.217088,14.894547 113.769026,15.2983194 113.2399,15.5649241 C112.642913,15.8797338 111.976936,16.0404874 111.302263,16.0326309 L111.302263,16.0326309 Z M111.596369,14.3956571 C112.41509,14.407593 113.199512,14.0669267 113.75026,13.4602435 C114.358527,12.7667652 114.669322,11.8611922 114.615276,10.9398234 C114.669322,10.0184547 114.358527,9.11288164 113.75026,8.41940339 C113.196176,7.80966907 112.411025,7.46210348 111.587718,7.46210348 C110.764412,7.46210348 109.979261,7.80966907 109.425177,8.41940339 C108.814924,9.10828316 108.50367,10.0120762 108.560161,10.9311622 C108.50367,11.8502482 108.814924,12.7540412 109.425177,13.442921 C109.976772,14.0606033 110.768929,14.4082082 111.596369,14.3956571 L111.596369,14.3956571 Z" id="Shape"></path>
                </g>
            </g>
        </g>
    </g>
</svg>