<?xml version="1.0" encoding="UTF-8"?>
<svg width="170px" height="54px" viewBox="0 0 170 54" version="1.1" xmlns="http://www.w3.org/2000/svg" xmlns:xlink="http://www.w3.org/1999/xlink">
    <title>intel</title>
    <g id="intel" stroke="none" stroke-width="1" fill="none" fill-rule="evenodd" fill-opacity="0.85">
        <g id="iconfinder_intel_294676" transform="translate(0.000000, 5.000000)" fill="#000000">
            <path d="M47.445413,35.7548974 C46.8409683,35.9773498 46.2477386,36.1228943 45.6495569,36.3573907 C44.7546874,36.7079744 42.9503836,37.1895917 41.9528314,37.4027571 C40.6684956,37.6771585 39.4469347,38.0251303 38.101135,38.2935822 C36.7132426,38.5703054 35.4768255,38.7193325 34.035771,38.9713871 C32.7029341,39.2047226 31.1249693,39.2854033 29.7028493,39.3829167 C28.2176631,39.4847833 26.6762563,39.5499373 25.069016,39.5499373 L24.7340226,39.5499373 C19.0124802,39.5499373 13.5539805,38.6534529 9.73374434,36.749911 C6.05915754,34.9187784 2.62416388,31.5249654 2.62416388,26.0883055 L2.62416388,25.5876789 C2.62416388,23.0301299 3.41270932,21.0652068 4.15406438,19.2130334 C4.47944497,18.3999868 5.09306557,17.3637623 5.5608912,16.6652068 C5.85320939,16.2287184 6.09061779,15.9110745 6.39750092,15.4962074 C6.67190425,15.1254535 7.09938501,14.7259679 7.31407212,14.4067278 L7.31407212,12.6266737 C6.42386345,13.2206055 5.48821219,14.3890245 4.73302044,15.1729042 C3.87616547,16.0622782 3.24084311,17.0542444 2.53473519,18.1003364 C1.486497,19.6528593 0,23.2657872 0,25.8099861 L0,27.5901853 C0,30.7306378 1.2502538,33.522393 2.52337454,35.4225975 C3.96442896,37.5739859 5.88437835,38.8467383 8.08455704,40.2286129 C9.82040569,41.3189631 13.325748,42.528448 15.693569,42.9943935 C18.6125271,43.5685905 21.5584304,44 25.0691617,44 L26.7999126,44 C37.5894689,44 48.5517653,40.878847 55.6099315,37.158103 L55.6099315,32.096115 C53.7001776,33.1028824 51.3488149,34.4322274 49.1441211,35.1106128 C48.6752759,35.2551415 47.9363969,35.5739463 47.445413,35.7548974 Z M66.6983602,12.538012 C66.5932014,11.9561243 66.381573,11.2133105 66.1795574,10.7183431 C65.6751737,9.4825935 65.2562863,8.64720005 64.5022597,7.6611833 C63.1078131,5.83687092 61.4466826,4.51855419 59.3695776,3.37393312 C55.5564782,1.27289757 49.752644,0 43.8289403,0 L43.3264501,0 C37.2141306,0 32.1589338,1.01271684 27.3809078,2.35874942 C26.119002,2.71426687 25.0926112,3.08124794 23.9172212,3.46926984 C22.944138,3.79039641 21.519542,4.32817096 20.6388005,4.7643691 C19.5947862,5.28139305 18.5535392,5.72557219 17.5315179,6.22997164 C16.9901393,6.49740782 14.9112865,7.76450102 14.5725062,7.8432953 L14.5725062,9.17815448 C15.033195,9.07135413 16.7300096,8.13743157 17.3822273,7.86099861 C18.2871466,7.47762021 19.4230656,6.90850208 20.3343935,6.63047292 C20.7476006,6.50437306 21.4305503,6.2468043 21.8405531,6.07281842 C22.3382369,5.86139437 22.8583506,5.7321021 23.3872033,5.55564936 C24.3952423,5.21899611 25.5221311,4.83910032 26.5882841,4.57297012 C28.8850283,3.9992085 30.9088257,3.53340809 33.4212765,3.09213113 C35.5620303,2.7162984 38.5728931,2.33640261 40.981933,2.33640261 L43.4943838,2.33640261 C48.3860164,2.33640261 53.6818258,3.45548447 56.8192579,5.19244113 C58.7228946,6.24651408 60.0021326,7.13327617 61.3150156,8.77910428 C62.3045571,10.0194974 63.5383525,12.4936086 63.5383525,14.6854825 L63.5383525,15.6311589 C63.5383525,17.9414419 62.3336869,20.4258558 61.328124,21.7730493 C60.7182903,22.5898687 60.1141369,23.3177363 59.365645,23.9897368 C59.001813,24.3165227 57.302668,25.6602335 56.893976,25.7549898 L56.893976,29.4262516 C57.6810649,29.3612427 60.0493229,27.8419497 60.6579915,27.3913858 C61.7793456,26.5603456 62.7840347,25.6045116 63.6398701,24.5214168 C64.6132445,23.2900204 65.1381647,22.3874415 65.8460204,20.8785964 C66.1665946,20.1957127 66.3518605,19.4941099 66.5853364,18.7225645 C66.6800084,18.4094189 66.9934458,16.1978102 67,16.1875074 L67,14.5743289 C66.9807743,14.5442913 66.740016,12.7691709 66.6983602,12.538012 Z M49.0771224,23.7521931 L49.0771224,22.2501682 C49.0771224,20.4809973 48.4420914,18.7771255 47.6660718,17.7597652 C46.9293775,16.7940637 45.4350154,15.6864455 43.773011,15.6864455 L42.7122469,15.6864455 C40.956153,15.6864455 39.3671189,16.7846316 38.509827,17.7297276 C37.6344745,18.6947035 36.9056453,20.5323659 36.9056453,22.3614669 L36.9056453,23.0291142 C36.9056453,26.8534661 39.2607949,29.6484137 43.1030241,29.6484137 L43.8287947,29.6484137 C44.9918045,29.6484137 45.8224426,29.3677726 46.6546828,29.0154475 C47.5610586,28.6316338 48.021893,27.9782072 48.7004733,27.5198074 L46.5085966,25.4765253 C46.076892,26.1189236 44.8808197,26.7559528 43.7728653,26.7559528 L43.1586621,26.7559528 C41.7053732,26.7559528 40.3671472,25.5249918 40.3671472,24.141521 L40.3671472,23.752048 L49.0771224,23.752048 L49.0771224,23.7521931 Z M40.3672928,21.0264626 C40.3672928,19.7727195 41.5942427,18.5233296 42.879598,18.5233296 L43.1588078,18.5233296 C44.6186509,18.5233296 45.6156206,19.7567575 45.6156206,21.1377614 L45.6156206,21.4159356 L40.3672928,21.4159356 L40.3672928,21.0264626 Z M27.4697539,29.4259613 L27.4697539,19.9139107 C27.4697539,17.6568828 25.9280558,15.9087527 23.6731129,15.9087527 L16.3031115,15.9087527 L16.3031115,29.4258162 L19.7089753,29.4258162 L19.7089753,18.69006 L22.7797,18.69006 C23.4563867,18.69006 24.0081064,19.2120177 24.0081064,19.8583339 L24.0081064,29.4259613 L27.4697539,29.4259613 L27.4697539,29.4259613 Z M29.9822047,12.1819141 L29.9822047,25.4208034 C29.9822047,27.7052569 31.4730712,29.4259613 33.7230619,29.4259613 L36.0681617,29.4259613 L36.0681617,26.5333553 L34.3372651,26.5333553 C33.8245795,26.5333553 33.4439978,25.9423257 33.4439978,25.4208034 L33.4439978,18.69006 L36.0681617,18.69006 L36.0681617,15.9087527 L33.4439978,15.9087527 L33.4439978,12.1819141 L29.9822047,12.1819141 L29.9822047,12.1819141 Z M54.5488762,29.3148077 L54.5488762,10.2908515 L51.0872287,10.2908515 L51.0872287,26.1441725 C51.0872287,27.0675021 51.6485612,27.9049271 52.1331365,28.3840776 C52.3934119,28.641211 52.8044343,28.8535057 53.1855985,29.0044192 C53.7188207,29.2158433 53.9945349,29.1860959 54.5488762,29.3148077 Z M13.2323868,29.5928369 L13.2323868,15.9087527 L9.78355641,15.909188 L9.70126454,19.0792428 L9.71480993,25.8102764 C9.71480993,28.0905217 11.0565315,29.5445155 13.2323868,29.5928369 Z M13.2323868,10.7356111 L9.77073927,10.7356111 L9.77073927,14.0176901 L13.2323868,14.0176901 L13.2323868,10.7356111 Z M57.9162886,11.7891036 L58.0574228,11.7891036 C58.142045,11.7891036 58.2065677,11.8059363 58.2505538,11.8403272 C58.3143482,11.886617 58.3979509,12.0021239 58.5019445,12.1858321 L58.6343398,12.4200383 L58.9285514,12.4200383 L58.7466354,12.1293846 C58.6593914,11.9915309 58.5859842,11.8934371 58.5259767,11.8346679 C58.4945164,11.804195 58.4516955,11.7777851 58.3992618,11.7560187 C58.5277245,11.7460062 58.6312811,11.7010224 58.7090579,11.6204868 C58.7868346,11.5398061 58.8255773,11.4454851 58.8255773,11.3367984 C58.8255773,11.2600356 58.8024191,11.1876261 58.7558113,11.1188444 C58.7090579,11.0506431 58.6468656,11.002612 58.5685063,10.9751863 C58.4901469,10.9477607 58.363432,10.9345558 58.1880702,10.9345558 L57.6756759,10.9345558 L57.6756759,12.4200383 L57.9162886,12.4200383 L57.9162886,11.7891036 Z M57.9162886,11.1356771 L58.189818,11.1356771 C58.3076483,11.1356771 58.3879011,11.1438032 58.4317416,11.1613614 C58.4751451,11.1781941 58.5089357,11.2044588 58.5332591,11.2387046 C58.5577282,11.2736759 58.5703997,11.3130005 58.5703997,11.3566783 C58.5703997,11.4254601 58.5446198,11.4804564 58.4937882,11.5216674 C58.4429566,11.5628784 58.3478475,11.5842095 58.2086068,11.5842095 L57.9162886,11.5842095 L57.9162886,11.1356771 L57.9162886,11.1356771 Z M57.5941123,12.8547853 C57.8136058,12.9765319 58.0435861,13.0371875 58.2837618,13.0371875 C58.5237919,13.0371875 58.7533353,12.9765319 58.9734114,12.8547853 C59.1929049,12.7336192 59.3641885,12.5629708 59.4856601,12.3431304 C59.6078598,12.1238705 59.6688869,11.8953235 59.6688869,11.6571994 C59.6688869,11.4168986 59.6066947,11.1855946 59.4833297,10.9645934 C59.3596734,10.7428666 59.1867876,10.5729437 58.965255,10.453664 C58.7434311,10.3351098 58.5163638,10.2756151 58.2837618,10.2756151 C58.0510142,10.2756151 57.82351,10.3349647 57.6022687,10.453664 C57.3802991,10.5729437 57.207122,10.7428666 57.0830288,10.9645934 C56.9587899,11.1855946 56.896889,11.4168986 56.896889,11.6571994 C56.896889,11.8953235 56.9577704,12.1238705 57.0805528,12.3431304 C57.2028982,12.5629708 57.3738905,12.7336192 57.5941123,12.8547853 Z M57.1264323,11.6571994 C57.1264323,11.4568036 57.1782835,11.2643889 57.2824227,11.0795198 C57.386562,10.8952312 57.5306092,10.7528791 57.7151469,10.6534793 C57.8993933,10.5540795 58.0885917,10.504162 58.2837618,10.504162 C58.4768928,10.504162 58.666237,10.5542247 58.8512116,10.6534793 C59.0361862,10.752734 59.1803791,10.8952312 59.2839357,11.0795198 C59.3873468,11.2643889 59.438761,11.4569488 59.438761,11.6571994 C59.438761,11.8558538 59.3879294,12.0465273 59.2864118,12.2287844 C59.1848942,12.4110415 59.0424492,12.5535387 58.8587854,12.6554053 C58.6751216,12.7571268 58.4833014,12.8084955 58.2839075,12.8084955 C58.083931,12.8084955 57.8926934,12.7571268 57.7090296,12.6554053 C57.5252202,12.5535387 57.3824838,12.4110415 57.2800923,12.2287844 C57.1777009,12.0463822 57.1264323,11.8558538 57.1264323,11.6571994 Z" id="Shape"></path>
        </g>
    </g>
</svg>