<?xml version="1.0" encoding="UTF-8"?>
<svg width="99px" height="33px" viewBox="0 0 99 33" version="1.1" xmlns="http://www.w3.org/2000/svg" xmlns:xlink="http://www.w3.org/1999/xlink">
    <title>invision</title>
    <g id="Page-1" stroke="none" stroke-width="1" fill="none" fill-rule="evenodd" fill-opacity="0.85">
        <g id="App-Development" transform="translate(-551.000000, -5472.000000)" fill="#000000">
            <g id="invision" transform="translate(551.000000, 5472.000000)">
                <path d="M30.1806247,0 C31.8421973,0 33.1891397,1.33926645 33.1891397,2.99137001 L33.1891397,2.99137001 L33.1891397,30.00863 C33.1891397,31.6607335 31.8421973,33 30.1806247,33 L30.1806247,33 L3.00851507,33 C1.34694247,33 0,31.6607335 0,30.00863 L0,30.00863 L0,2.99137001 C0,1.33926645 1.34694247,0 3.00851507,0 L3.00851507,0 Z M22.9267726,11.9608954 C21.1678274,11.9608954 19.3787753,13.5385653 18.4842493,15.1987594 L19.1400904,12.2187163 L14.041726,12.2187163 L13.3262137,14.8435814 L15.7114356,14.8435814 L14.2427096,20.6909385 C13.0891562,23.2405609 10.9702849,23.2818231 10.7044767,23.2224919 C10.2677918,23.1245955 9.98869315,22.9598166 9.98869315,22.3959008 C9.98869315,22.0701187 10.0480932,21.6027508 10.1972712,21.0391046 L12.4335863,12.2187163 L6.76888767,12.2187163 L6.05310411,14.8435814 L8.40849041,14.8435814 L6.8879589,21.0202265 C6.76888767,21.5242718 6.70894521,22.0685005 6.70894521,22.5124056 C6.70894521,24.2618662 7.66314247,25.4231392 9.69060822,25.4231392 C11.2958137,25.4231392 12.6108818,24.518371 13.5806114,23.0419071 L13.715,22.829 L13.1173644,25.2187163 L16.4567836,25.2187163 L18.3649068,17.6081446 C18.8420055,15.6812298 19.7663671,14.6812298 21.1678274,14.6812298 C22.2709315,14.6812298 22.9566082,15.3632686 22.9566082,16.4892125 C22.9566082,16.815534 22.9267726,17.1709817 22.8077014,17.5566343 L21.8233973,21.0547465 C21.6744904,21.5587918 21.6150904,22.0631068 21.6150904,22.5369471 C21.6150904,24.1976807 22.5985808,25.4126214 24.6558822,25.4126214 C26.4150986,25.4126214 27.8162877,24.2864078 28.5917425,21.5884574 L27.279789,21.0849515 C26.6239479,22.8923948 26.0573425,23.2192557 25.6103507,23.2192557 C25.1628164,23.2192557 24.9241315,22.9228695 24.9241315,22.3303668 C24.9241315,22.0636462 24.984074,21.7675297 25.0733096,21.4110032 L26.0275068,18.0029666 C26.2661918,17.2025351 26.3556986,16.4929881 26.3556986,15.8408846 C26.3556986,13.2915318 24.8050603,11.9608954 22.9267726,11.9608954 Z M11.0917973,6.41019417 C9.98869315,6.41019417 9.06460274,7.26995685 9.06460274,8.39590076 C9.06460274,9.52292341 9.98869315,10.3826861 11.0917973,10.3826861 C12.1951726,10.3826861 13.119263,9.52292341 13.119263,8.39590076 C13.119263,7.26995685 12.1951726,6.41019417 11.0917973,6.41019417 Z" id="Combined-Shape"></path>
                <path d="M64.610926,25.6186624 L67.7878767,25.6186624 L67.7878767,11.837109 L64.610926,11.837109 L64.610926,25.6186624 Z M94.0646466,11.5496224 C91.9118712,11.5496224 90.6256849,12.6720604 89.7330575,13.9770766 L89.7330575,11.837109 L86.5569205,11.837109 L86.5569205,25.6186624 L89.7330575,25.6186624 L89.7330575,17.8398058 C89.7330575,15.6995685 91.0195151,14.420712 92.8571178,14.420712 C94.747611,14.420712 95.8235918,15.6472492 95.8235918,17.7874865 L95.8235918,25.6186624 L99,25.6186624 L99,16.8481661 C99,13.6378101 97.1884356,11.5496224 94.0646466,11.5496224 Z M77.264211,23.1912082 C74.796263,23.1912082 73.037589,21.1809601 73.037589,18.7273463 C73.037589,16.3004315 74.6649863,14.3160734 77.2115918,14.3160734 C79.7053068,14.3160734 81.4645233,16.3257821 81.4645233,18.7799353 C81.4645233,21.2071197 79.8365836,23.1912082 77.264211,23.1912082 Z M77.264211,11.5496224 C73.0115507,11.5496224 69.8609096,14.8117584 69.8609096,18.7799353 C69.8609096,22.7208738 72.9849699,25.9314995 77.2115918,25.9314995 C81.4911041,25.9314995 84.641474,22.6688242 84.641474,18.7273463 C84.641474,14.7602481 81.5166,11.5496224 77.264211,11.5496224 Z M37.9411397,21.9638619 L34.2135863,11.837109 L30.800663,11.837109 L36.4973671,25.7224919 L39.358874,25.7224919 L45.0289973,11.837109 L41.695274,11.837109 L37.9411397,21.9638619 Z M58.2065753,17.4749191 C56.5786356,16.9519957 55.0819726,16.5347896 55.0819726,15.5434196 L55.0819726,15.4908306 C55.0819726,14.6817691 55.7907041,14.1076052 57.0245425,14.1076052 C57.6264082,14.1076052 58.2998795,14.2446063 58.9961342,14.4875944 L58.9955918,14.4859763 C58.9955918,14.4859763 59.0026438,14.4892125 59.015663,14.4951456 C59.0756055,14.5161812 59.1363616,14.5399137 59.1971178,14.5625674 C59.6994411,14.7206041 61.0547918,14.9317691 62.1969534,13.1682848 C60.7263288,12.2019957 58.8369205,11.6014024 57.1032,11.6014024 C54.3472027,11.6014024 52.168389,13.1936354 52.168389,15.8042071 L52.168389,15.8565264 C52.168389,18.4927184 54.4518986,19.3279396 56.4997068,19.9023732 C58.1276466,20.3980583 59.598,20.7634844 59.598,21.833603 L59.598,21.885383 C59.598,22.7993528 58.8100685,23.3735167 57.4449534,23.3735167 C56.5374082,23.3735167 55.543611,23.135383 54.5530685,22.6712513 C54.2680027,22.5517799 52.7854438,22.0477346 51.5177014,23.8403452 C53.2449123,25.1814995 55.4088082,25.8794498 57.3665671,25.8794498 C60.2532986,25.8794498 62.5115836,24.4447141 62.5115836,21.5463862 L62.5115836,21.4943366 C62.5115836,19.0151025 60.2278027,18.1011327 58.2065753,17.4749191 Z M46.6032329,25.6186624 L49.7796411,25.6186624 L49.7796411,11.837109 L46.6032329,11.837109 L46.6032329,25.6186624 Z" id="Fill-2"></path>
            </g>
        </g>
    </g>
</svg>