<?xml version="1.0" encoding="UTF-8"?>
<svg width="102px" height="34px" viewBox="0 0 102 34" version="1.1" xmlns="http://www.w3.org/2000/svg" xmlns:xlink="http://www.w3.org/1999/xlink">
    <title>ionic</title>
    <g id="Page-1" stroke="none" stroke-width="1" fill="none" fill-rule="evenodd" fill-opacity="0.85">
        <g id="App-Development" transform="translate(-969.000000, -5216.000000)" fill="#000000" fill-rule="nonzero">
            <g id="ionic" transform="translate(969.000000, 5216.000000)">
                <g id="Group">
                    <path d="M17.2381171,9.29795918 C12.9051665,9.29795918 9.39196326,12.7673469 9.39196326,17.0462585 C9.39196326,21.3251701 12.9051665,24.7945578 17.2381171,24.7945578 C21.5710677,24.7945578 25.084271,21.3251701 25.084271,17.0462585 C25.0608496,12.7673469 21.5476464,9.29795918 17.2381171,9.29795918 L17.2381171,9.29795918 Z" id="Path"></path>
                    <ellipse id="Oval" cx="28.4803674" cy="6.45306122" rx="3.58346728" ry="3.53877551"></ellipse>
                    <path d="M32.8835821,9.99183673 L32.743054,9.66802721 L32.5088404,9.94557823 C31.9233065,10.5931973 31.1738232,11.1020408 30.3540758,11.4027211 L30.1198622,11.4952381 L30.2135476,11.7265306 C30.9396096,13.414966 31.29093,15.2190476 31.29093,17.0462585 C31.29093,24.7020408 24.9905855,30.9469388 17.2146958,30.9469388 C9.43880597,30.9469388 3.16188289,24.7020408 3.16188289,17.0462585 C3.16188289,9.39047619 9.46222732,3.14557823 17.2381171,3.14557823 C19.346039,3.14557823 21.3602755,3.60816327 23.2574053,4.48707483 L23.4681975,4.57959184 L23.5618829,4.34829932 C23.9132032,3.53877551 24.4518944,2.84489796 25.154535,2.28979592 L25.4355913,2.0585034 L25.1076923,1.89659864 C22.6484501,0.647619048 20.001837,0 17.2146958,0 C7.72904707,0 0,7.63265306 0,17 C0,26.3673469 7.72904707,34 17.2146958,34 C26.7003444,34 34.4293915,26.3673469 34.4293915,17 C34.4293915,14.5945578 33.9141217,12.2353741 32.8835821,9.99183673 L32.8835821,9.99183673 Z" id="Path"></path>
                </g>
                <g id="Group" transform="translate(43.306087, 9.274830)">
                    <polygon id="Path" points="0 0.370068027 3.63030999 0.370068027 3.63030999 15.1727891 0 15.1727891"></polygon>
                    <polygon id="Path" points="39.1839218 0.370068027 42.8142318 0.370068027 42.8142318 15.1727891 39.1839218 15.1727891"></polygon>
                    <path d="M30.7990792,0.0231292517 C28.2461515,0.0231292517 26.2787577,1.54965986 25.833752,1.96598639 L25.5995384,0.370068027 L22.5781837,0.370068027 L22.5781837,15.1727891 L26.2084936,15.1727891 L26.2084936,6.22176871 C26.2084936,4.46394558 28.6208932,3.02993197 30.4009161,3.02993197 C32.1340964,3.02993197 33.492535,4.6952381 33.492535,6.68435374 L33.492535,15.1727891 L37.122845,15.1727891 L37.122845,7.03129252 C37.0994236,3.14557823 35.3896647,0.0231292517 30.7990792,0.0231292517 Z" id="Path"></path>
                    <path d="M52.3233042,12.4897959 C49.5830057,12.4897959 47.7795614,10.385034 47.7795614,7.77142857 C47.7795614,5.15782313 49.5830057,3.05306122 52.3233042,3.05306122 C54.6420183,3.05306122 56.070721,5.27346939 56.070721,5.27346939 L58.6939127,3.53877551 C57.9444293,2.38231293 57.0544179,1.68843537 55.8599288,0.971428571 C54.9699173,0.439455782 53.7754282,0 52.440411,0 C47.8966682,0 44.4303076,3.37687075 44.4068863,7.74829932 C44.4303076,12.1197279 47.8966682,15.4965986 52.440411,15.4965986 C53.7754282,15.4965986 54.9699173,15.0571429 55.8599288,14.5251701 C57.0544179,13.8081633 57.9444293,13.1142857 58.6939127,11.9578231 L56.070721,10.2231293 C56.070721,10.2462585 54.6654397,12.4897959 52.3233042,12.4897959 Z" id="Path"></path>
                    <path d="M13.092535,0.0231292517 C8.52537079,0.0231292517 5.24638113,3.56190476 5.24638113,7.70204082 C5.24638113,11.9115646 8.43168537,15.5197279 13.162799,15.5197279 C17.448907,15.5197279 20.9386888,12.2816327 20.9386888,7.79455782 C20.9386888,2.65986395 16.8633731,0.0231292517 13.092535,0.0231292517 L13.092535,0.0231292517 Z M13.1393777,3.07619048 C15.3878277,3.07619048 17.519171,4.88027211 17.519171,7.79455782 C17.519171,10.6394558 15.3878277,12.4897959 13.1159563,12.4897959 C10.6332927,12.4897959 8.66589892,10.5006803 8.66589892,7.77142857 C8.66589892,5.06530612 10.6098714,3.07619048 13.1393777,3.07619048 L13.1393777,3.07619048 Z" id="Shape"></path>
                </g>
            </g>
        </g>
    </g>
</svg>