<?xml version="1.0" encoding="UTF-8"?>
<svg width="99px" height="34px" viewBox="0 0 99 34" version="1.1" xmlns="http://www.w3.org/2000/svg" xmlns:xlink="http://www.w3.org/1999/xlink">
    <title>jmeter</title>
    <g id="Page-1" stroke="none" stroke-width="1" fill="none" fill-rule="evenodd">
        <g id="App-Development" transform="translate(-1156.000000, -5810.000000)">
            <g id="jmeter" transform="translate(1156.000000, 5810.000000)">
                <path d="M14.6153177,0.17087054 C14.0886396,0.433111854 13.1669529,1.35095645 12.1135967,2.66216302 L13.0352834,4.49785222 C13.693631,3.58000762 14.4836482,2.66216302 15.1419959,1.87543908 L15.2736654,1.74431842 L15.1419959,1.87543908 C14.8786568,2.13768039 14.2203091,2.92440433 13.1669529,4.49785222 C14.2203091,4.49785222 15.668674,4.2356109 16.9853693,3.97336959 C17.3803778,1.87543908 16.5903607,0.957594481 16.5903607,0.957594481 C16.5903607,0.957594481 15.668674,-0.484732744 14.6153177,0.17087054 L14.6153177,0.17087054 Z" id="Path" fill-opacity="0.85" fill="#000000" fill-rule="nonzero"></path>
                <path d="M5.13586074,21.4148113 C5.13586074,21.2845083 5.13586074,21.2845083 5.13586074,21.4148113 C5.39755765,20.7567811 5.66252578,20.2323115 5.79664544,19.7078419 C6.05834235,19.0530693 6.32003926,18.5285997 6.45088772,18.0041301 C6.71585584,17.3493575 6.98082396,16.8248879 7.11167242,16.3004183 C7.37336933,15.7759487 7.63833745,15.1179185 7.90330557,14.5934489 C8.16500248,14.2025399 8.29585093,13.6780703 8.42669939,13.2839037 C8.42669939,13.1536007 8.56081906,13.0232977 8.56081906,12.8929947 L8.95336442,12.1046615 C9.08421288,11.8440555 9.21833254,11.5801919 9.349181,11.4466313 C9.349181,11.3163283 9.48002945,11.3163283 9.48002945,11.1860253 L9.349181,11.1860253 L9.21833254,11.0557223 C9.08748409,11.4466313 8.82578718,11.7072374 8.69493872,12.1046615 C8.56081906,12.3652675 8.56081906,12.4955705 8.4299706,12.7561766 C8.16827369,13.2839037 7.90330557,13.9386763 7.63833745,14.4631459 C7.37336933,14.9876155 7.11494363,15.6423881 6.84997551,16.1668577 C6.58500738,16.6913273 6.32331047,17.3493575 6.18919081,17.8738271 C5.9274939,18.3950391 5.66579699,19.0530693 5.53494853,19.5775389 C5.26998041,20.1020085 5.00501229,20.7567811 4.87416383,21.2812507 C4.87416383,21.4115537 4.74331538,21.5418567 4.74331538,21.6754173 C4.61246692,22.1998869 4.3474988,22.5940535 4.21665035,22.9882201 L4.3474988,23.2488261 L4.47834726,23.2488261 C4.74004417,22.4637505 4.87089262,21.9392809 5.13586074,21.4148113 Z" id="Shape"></path>
                <g id="Group" transform="translate(9.493114, 12.391328)" fill="#000000" fill-opacity="0.85" fill-rule="nonzero">
                    <polygon id="Path" points="1.83187837 3.25105999 1.43933301 3.25105999 1.70102992 3.25105999"></polygon>
                    <polygon id="Path" opacity="0.35" points="1.83187837 3.25105999 1.43933301 3.25105999 1.70102992 3.25105999"></polygon>
                    <path d="M2.09684649,1.6776512 L2.3585434,1.6776512 C2.3585434,1.54734819 2.22769495,1.54734819 2.09684649,1.6776512 Z" id="Path"></path>
                    <path d="M2.09684649,1.6776512 L2.3585434,1.6776512 C2.3585434,1.54734819 2.22769495,1.54734819 2.09684649,1.6776512 Z" id="Path" opacity="0.35"></path>
                </g>
                <path d="M10.1385537,9.21819586 C10.4018928,8.69371323 10.7969014,8.16923061 11.0602404,7.64474798 C11.3235795,7.12026535 11.7185881,6.59578272 11.9819272,6.0713001 L11.9819272,5.94017944 C12.2452662,5.41569681 12.6402748,4.89121419 12.9036139,4.49785222 L11.9819272,2.66216302 L11.7185881,2.92440433 C11.455249,3.3177663 11.19191,3.71112827 10.7969014,4.10449025 C10.4018928,4.49785222 10.1385537,5.02233484 9.74354516,5.54681747 C9.4802061,6.0713001 9.08519751,6.46466207 8.69018892,6.9891447 C8.42684987,7.38250667 8.16351081,7.90698929 7.90017175,8.30035126 L9.21686704,10.7916437 C9.61187563,10.2671611 9.87521469,9.74267849 10.1385537,9.21819586 L10.1385537,9.21819586 Z" id="Path" fill-opacity="0.85" fill="#000000" fill-rule="nonzero"></path>
                <path d="M4.34509446,23.3792268 C4.21342493,23.9037094 3.95008587,24.2970714 3.81841635,24.821554 C3.81841635,24.9526747 3.81841635,24.9526747 3.68674682,25.0837953 C3.55507729,25.3460366 3.42340776,25.7393986 3.29173823,26.3950019 C3.68674682,26.5261226 3.95008587,27.0506052 4.21342493,27.5750878 C4.21342493,27.0506052 3.95008587,26.5261226 3.55507729,26.1327606 C5.39845069,26.2638812 6.97848504,25.7393986 7.76850222,24.4281921 C7.90017175,24.2970714 7.90017175,24.1659507 8.03184128,24.0348301 C7.63683269,24.5593127 7.2418241,24.6904334 6.3201374,24.6904334 C7.63683269,24.1659507 8.29518034,23.5103475 8.82185845,22.5925029 C8.95352798,22.3302615 9.08519751,22.1991409 9.21686704,21.9368996 C8.03184128,23.1169855 6.84681552,23.3792268 5.39845069,23.1169855 L4.34509446,23.2481061 C4.47676399,23.2481061 4.34509446,23.2481061 4.34509446,23.3792268 L4.34509446,23.3792268 Z" id="Path" fill-opacity="0.85" fill="#000000" fill-rule="nonzero"></path>
                <path d="M4.87177258,21.1501756 C5.13511164,20.625693 5.26678117,19.9700897 5.53012022,19.4456071 C5.79345928,18.9211245 5.92512881,18.2655212 6.18846787,17.7410386 C6.45180693,17.2165559 6.71514599,16.5609526 6.84681552,16.03647 C7.11015457,15.5119874 7.37349363,14.8563841 7.63683269,14.3319015 C7.90017175,13.8074188 8.16351081,13.1518156 8.42684987,12.6273329 C8.55851939,12.3650916 8.55851939,12.233971 8.69018892,11.9717297 C8.82185845,11.5783677 9.08519751,11.3161264 9.21686704,10.9227644 L7.90017175,8.43147192 L7.90017175,8.56259258 C7.63683269,9.0870752 7.2418241,9.48043717 6.97848504,10.0049198 C6.71514599,10.5294024 6.45180693,11.0538851 6.05679834,11.5783677 C5.79345928,11.9717297 5.53012022,12.4962123 5.39845069,12.8895743 C5.39845069,13.0206949 5.26678117,13.0206949 5.26678117,13.1518156 C5.00344211,13.6762982 4.74010305,14.3319015 4.47676399,14.8563841 C4.21342493,15.5119874 3.95008587,16.03647 3.81841635,16.5609526 C3.81841635,16.823194 3.68674682,17.2165559 3.68674682,17.4787972 C3.55507729,17.7410386 3.55507729,18.0032799 3.42340776,18.2655212 C3.29173823,18.9211245 3.02839917,19.5767277 2.89672964,20.232331 L4.21342493,22.7236235 C4.34509446,22.3302615 4.60843352,21.8057789 4.74010305,21.4124169 C4.74010305,21.4124169 4.74010305,21.2812963 4.87177258,21.1501756 L4.87177258,21.1501756 Z" id="Path" fill-opacity="0.85" fill="#000000" fill-rule="nonzero"></path>
                <path d="M2.89672964,20.3634517 L2.50172105,22.7236235 L2.50172105,22.8547442 C2.10671247,22.1991409 1.05335623,21.5435376 1.05335623,21.5435376 C1.84337341,22.5925029 2.37005152,23.7725888 2.50172105,24.821554 C2.10671247,24.9526747 1.58003435,24.821554 0.921686704,24.5593127 C1.58003435,25.214916 2.10671247,25.3460366 2.37005152,25.3460366 C1.71170388,25.3460366 1.05335623,25.8705193 0.395008587,26.2638812 C1.31669529,25.8705193 2.10671247,25.7393986 2.63339058,25.8705193 C1.71170388,28.3618118 0.921686704,31.1153455 0,34 C0.263339058,33.8688793 0.395008587,33.7377587 0.526678117,33.4755174 C0.658347646,32.9510347 1.71170388,29.5418977 3.29173823,24.9526747 C3.29173823,24.821554 3.42340776,24.6904334 3.42340776,24.5593127 L3.42340776,24.4281921 C3.55507729,23.9037094 3.81841635,23.5103475 3.95008587,22.9858648 C3.95008587,22.8547442 4.0817554,22.7236235 4.0817554,22.5925029 L2.89672964,20.3634517 Z" id="Path" fill-opacity="0.85" fill="#000000" fill-rule="nonzero"></path>
                <path d="M9.4802061,11.0538851 C9.4802061,11.1850057 9.34853657,11.1850057 9.34853657,11.3161264 C9.21686704,11.5783677 9.08519751,11.840609 8.95352798,11.9717297 L8.55851939,12.7584536 C8.55851939,12.8895743 8.42684987,13.0206949 8.42684987,13.1518156 C8.29518034,13.5451775 8.03184128,13.9385395 7.90017175,14.4630221 C7.63683269,14.9875048 7.37349363,15.5119874 7.11015457,16.1675907 C6.84681552,16.6920733 6.58347646,17.3476766 6.45180693,17.8721592 C6.18846787,18.3966418 5.92512881,19.0522451 5.79345928,19.5767277 C5.53012022,20.1012104 5.39845069,20.625693 5.13511164,21.2812963 L5.13511164,21.4124169 C4.87177258,21.9368996 4.74010305,22.5925029 4.47676399,23.1169855 L5.53012022,22.9858648 C6.71514599,22.8547442 8.42684987,21.9368996 9.4802061,20.7568137 C10.0068842,20.232331 10.4018928,19.5767277 10.7969014,18.9211245 C11.0602404,18.3966418 11.3235795,17.7410386 11.7185881,17.0854353 C11.9819272,16.5609526 12.2452662,15.9053494 12.3769357,15.2497461 C12.1135967,15.3808667 11.7185881,15.5119874 11.455249,15.643108 L11.0602404,15.643108 C12.2452662,15.2497461 12.9036139,14.3319015 13.430292,13.2829362 C13.1669529,13.5451775 12.6402748,13.8074188 11.9819272,13.9385395 L11.7185881,13.9385395 C12.1135967,13.8074188 12.5086053,13.5451775 12.7719443,13.4140569 L12.9036139,13.2829362 L13.1669529,13.0206949 L13.2986224,12.8895743 C13.430292,12.7584536 13.5619615,12.6273329 13.5619615,12.4962123 C13.5619615,12.4962123 13.5619615,12.3650916 13.693631,12.3650916 C13.693631,12.233971 13.8253006,12.233971 13.8253006,12.1028503 C13.9569701,11.840609 14.0886396,11.447247 14.2203091,11.1850057 C14.2203091,11.0538851 14.3519787,10.9227644 14.3519787,10.7916437 L14.3519787,10.6605231 C14.3519787,10.5294024 14.4836482,10.3982818 14.4836482,10.3982818 C14.4836482,10.2671611 14.4836482,10.1360405 14.6153177,10.0049198 C14.7469873,9.87379915 14.4836482,10.0049198 14.4836482,10.1360405 C14.0886396,10.3982818 13.5619615,10.5294024 13.0352834,10.6605231 L13.9569701,10.5294024 L12.9036139,10.6605231 L12.7719443,10.6605231 L9.4802061,11.0538851 Z" id="Path" fill-opacity="0.85" fill="#000000" fill-rule="nonzero"></path>
                <path d="M13.1669529,4.49785222 C12.9036139,4.89121419 12.5086053,5.41569681 12.2452662,5.94017944 L12.2452662,6.0713001 C11.9819272,6.59578272 11.5869186,7.12026535 11.3235795,7.64474798 C11.0602404,8.16923061 10.7969014,8.69371323 10.4018928,9.34931652 L9.61187563,10.9227644 L12.9036139,10.5294024 C13.8253006,10.1360405 14.2203091,9.74267849 14.6153177,9.0870752 C14.7469873,8.95595455 14.8786568,8.82483389 14.8786568,8.56259258 C15.2736654,8.03810995 15.5370044,7.51362732 15.8003435,6.85802404 C16.0636826,6.33354141 16.3270216,5.80905878 16.4586911,5.28457616 C16.5903607,5.02233484 16.7220302,4.62897287 16.7220302,4.36673156 C16.7220302,4.10449025 16.8536997,3.97336959 16.8536997,3.71112827 C15.8003435,4.2356109 14.2203091,4.49785222 13.1669529,4.49785222 L13.1669529,4.49785222 Z" id="Path" fill-opacity="0.85" fill="#000000" fill-rule="nonzero"></path>
                <path d="M11.0632958,15.6423881 L10.8015988,15.6423881 L11.0632958,15.6423881 Z" id="Path" fill-opacity="0.85" fill="#000000" fill-rule="nonzero"></path>
                <path d="M11.0632958,15.6423881 L10.8015988,15.6423881 L11.0632958,15.6423881 Z" id="Path" fill-opacity="0.85" fill="#000000" fill-rule="nonzero" opacity="0.35"></path>
                <path d="M11.0602404,15.643108 L10.7969014,15.643108 L11.0602404,15.643108 Z" id="Path" fill-opacity="0.85" fill="#000000" fill-rule="nonzero"></path>
                <path d="" id="Path" fill-opacity="0.85" fill="#000000" fill-rule="nonzero"></path>
                <path d="" id="Path" fill-opacity="0.85" fill="#000000" fill-rule="nonzero" opacity="0.35"></path>
                <path d="" id="Path" fill-opacity="0.85" fill="#000000" fill-rule="nonzero"></path>
                <g id="Group" transform="translate(11.454206, 9.198905)" fill="#000000" fill-opacity="0.85" fill-rule="nonzero">
                    <polygon id="Path" points="1.68630946 1.43007548 1.68630946 1.92848448 1.58817312 1.92848448 1.58817312 1.43007548 1.38535802 1.43007548 1.38535802 1.32909066 1.88585336 1.32909066 1.88585336 1.42681791"></polygon>
                    <polygon id="Path" points="2.3863487 1.52780274 2.18680481 1.82749965 2.08866846 1.82749965 1.88585336 1.52780274 1.88585336 1.92848448 1.78771702 1.92848448 1.78771702 1.32909066 1.9839897 1.32909066 2.18680481 1.62878757 2.3863487 1.32909066 2.58916381 1.32909066 2.58916381 1.92848448 2.48775625 1.92848448"></polygon>
                </g>
                <path d="M18.5282001,33.2984454 L17.2197156,33.2984454 C16.8925944,33.2984454 16.5654733,33.2984454 16.2383522,32.9726878 L16.2383522,29.7151127 C16.5654733,29.7151127 16.8925944,29.7151127 17.2197156,30.0408702 L19.1824424,30.0408702 C19.5095635,30.0408702 19.8366847,29.7151127 20.1638058,29.7151127 L20.8180481,29.0635977 C20.8180481,28.7378402 21.1451692,28.4120827 21.1451692,27.7605676 L21.1451692,10.1696619 L25.0706229,10.1696619 L25.0706229,27.7605676 C25.0706229,28.7378402 25.0706229,29.7151127 24.7435017,30.3666277 C24.4163806,31.0181428 24.0892595,31.6696619 23.4350172,32.3211728 C22.7807749,32.9726878 22.1265326,33.2984454 21.4722904,33.2984454 C20.1638058,32.9726878 19.1824424,33.2984454 18.5282001,33.2984454" id="Path" fill-opacity="0.85" fill="#000000" fill-rule="nonzero"></path>
                <path d="M33.9028936,27.7605676 L29.9774399,13.427237 L29.9774399,27.7605676 L26.3791074,27.7605676 L26.3791074,9.51814686 L31.6130456,9.51814686 L35.5384993,23.52572 L39.7910741,9.51814686 L45.0250123,9.51814686 L45.0250123,27.7605676 L41.4266798,27.7605676 L41.4266798,19.2908723 L41.4266798,18.6393572 L41.4266798,17.6620847 L41.4266798,16.6848122 L41.4266798,15.7075396 L41.4266798,13.427237 L37.174105,27.7605676 L33.9028936,27.7605676 Z M53.2030407,16.3590547 C52.5487984,16.3590547 51.8945562,16.6848122 51.567435,17.0105697 C51.2403139,17.3363272 50.9131928,18.3135997 50.9131928,19.2908723 L55.8200098,19.2908723 L55.8200098,17.9878422 C55.8200098,17.6620847 55.4928887,17.3363272 55.4928887,17.0105697 L54.8386464,16.3590547 L53.2030407,16.3590547 M53.5301619,28.0863251 C52.5487984,28.0863251 51.567435,28.0863251 50.9131928,27.7605676 C49.9318293,27.4348101 49.2775871,27.1090526 48.6233448,26.4575376 C47.9691025,25.8060225 47.6419814,25.1545075 47.3148602,24.177235 C46.9877391,23.1999624 46.660618,22.2226899 46.660618,20.9196598 C46.660618,19.6166298 46.660618,18.6393572 46.9877391,17.6620847 C47.3148602,16.6848122 47.6419814,16.0332971 48.2962237,15.3817821 C48.9504659,14.7302671 49.6047082,14.4045096 50.2589505,14.0787521 C50.9131928,13.7529945 51.8945562,13.7529945 52.8759196,13.7529945 C53.857283,13.7529945 54.5115253,13.7529945 55.4928887,14.0787521 C56.147131,14.4045096 56.8013732,14.7302671 57.4556155,15.3817821 C58.1098578,16.0332971 58.4369789,16.6848122 58.7641001,17.3363272 C59.0912212,17.9878422 59.0912212,18.9651148 59.0912212,19.9423873 L59.0912212,21.8969324 L50.5860716,21.8969324 C50.5860716,22.5484474 50.5860716,22.8742049 50.9131928,23.1999624 C50.9131928,23.52572 51.2403139,23.8514775 51.567435,24.177235 C51.8945562,24.5029925 52.2216773,24.82875 52.5487984,24.82875 C52.8759196,24.82875 53.5301619,25.1545075 53.857283,25.1545075 L55.1657675,25.1545075 C55.4928887,25.1545075 55.8200098,25.1545075 56.147131,24.82875 C56.4742521,24.82875 56.8013732,24.5029925 57.1284944,24.5029925 C57.4556155,24.5029925 57.7827366,24.177235 58.1098578,24.177235 L58.1098578,27.1090526 C57.7827366,27.4348101 57.4556155,27.4348101 57.1284944,27.4348101 C56.8013732,27.4348101 56.4742521,27.7605676 56.147131,27.7605676 C55.8200098,27.7605676 55.4928887,27.7605676 54.8386464,28.0863251 L53.5301619,28.0863251 M66.9421285,25.1545075 L67.9234919,25.1545075 C68.2506131,25.1545075 68.5777342,24.82875 68.9048553,24.82875 L68.9048553,27.7605676 C68.5777342,28.0863251 68.2506131,28.0863251 67.5963708,28.0863251 C66.9421285,28.0863251 66.6150074,28.4120827 65.9607651,28.4120827 C65.3065228,28.4120827 64.6522805,28.4120827 64.3251594,28.0863251 C63.9980383,27.7605676 63.343796,27.7605676 63.0166749,27.4348101 C62.6895537,27.1090526 62.3624326,26.4575376 62.0353114,26.1317801 C61.7081903,25.480265 61.7081903,24.82875 61.7081903,23.8514775 L61.7081903,16.6848122 L59.7454635,16.6848122 L59.7454635,15.0560246 L61.7081903,13.7529945 L62.6895537,10.8211769 L64.9794017,10.8211769 L64.9794017,13.7529945 L68.2506131,13.7529945 L68.2506131,16.6848122 L64.9794017,16.6848122 L64.9794017,23.52572 C64.9794017,24.177235 64.9794017,24.5029925 65.3065228,24.82875 C65.9607651,24.82875 66.2878862,25.1545075 66.9421285,25.1545075 M76.1015204,16.3590547 C75.4472781,16.3590547 74.7930358,16.6848122 74.4659147,17.0105697 C74.1387935,17.3363272 73.8116724,18.3135997 73.8116724,19.2908723 L78.7184895,19.2908723 L78.7184895,17.9878422 C78.7184895,17.6620847 78.3913683,17.3363272 78.3913683,17.0105697 L77.737126,16.3590547 L76.1015204,16.3590547 M76.4286415,28.0863251 C75.4472781,28.0863251 74.4659147,28.0863251 73.8116724,27.7605676 C73.1574301,27.4348101 72.1760667,27.1090526 71.5218244,26.4575376 C70.8675822,25.8060225 70.540461,25.1545075 70.2133399,24.177235 C69.8862187,23.1999624 69.5590976,22.2226899 69.5590976,20.9196598 C69.5590976,19.6166298 69.5590976,18.6393572 69.8862187,17.6620847 C70.2133399,16.6848122 70.540461,16.0332971 71.1947033,15.3817821 C71.8489456,14.7302671 72.5031878,14.4045096 73.1574301,14.0787521 C73.8116724,13.7529945 74.7930358,13.7529945 75.7743992,13.7529945 C76.7557626,13.7529945 77.4100049,13.7529945 78.3913683,14.0787521 C79.0456106,14.4045096 79.6998529,14.7302671 80.3540952,15.3817821 C81.0083374,16.0332971 81.3354586,16.6848122 81.6625797,17.3363272 C81.9897008,17.9878422 81.9897008,18.9651148 81.9897008,19.9423873 L81.9897008,21.8969324 L73.4845513,21.8969324 C73.4845513,22.5484474 73.4845513,22.8742049 73.8116724,23.1999624 C73.8116724,23.52572 74.1387935,23.8514775 74.4659147,24.177235 C74.7930358,24.5029925 75.1201569,24.82875 75.4472781,24.82875 C75.7743992,24.82875 76.4286415,25.1545075 76.7557626,25.1545075 L78.0642472,25.1545075 C78.3913683,25.1545075 78.7184895,25.1545075 79.0456106,24.82875 C79.3727317,24.82875 79.6998529,24.5029925 80.026974,24.5029925 C80.3540952,24.5029925 80.6812163,24.177235 81.0083374,24.177235 L81.0083374,27.1090526 C80.6812163,27.4348101 80.3540952,27.4348101 80.026974,27.4348101 C79.6998529,27.4348101 79.3727317,27.7605676 79.0456106,27.7605676 C78.7184895,27.7605676 78.3913683,27.7605676 77.737126,28.0863251 L76.4286415,28.0863251 M90.4948504,13.7529945 L91.803335,13.7529945 L91.803335,17.3363272 L90.4948504,17.3363272 C89.8406081,17.3363272 89.513487,17.3363272 89.1863659,17.6620847 C88.8592447,17.6620847 88.5321236,17.9878422 88.2050025,18.3135997 C87.8778813,18.6393572 87.5507602,18.9651148 87.5507602,19.2908723 C87.5507602,19.6166298 87.223639,20.2681448 87.223639,20.9196598 L87.223639,28.0863251 L83.2981854,28.0863251 L83.2981854,14.0787521 L85.9151545,14.0787521 L86.5693968,16.0332971 L86.8965179,16.0332971 C87.223639,15.7075396 87.223639,15.3817821 87.5507602,15.0560246 L88.2050025,14.4045096 C88.5321236,14.0787521 88.8592447,14.0787521 89.1863659,14.0787521 C89.513487,13.7529945 89.8406081,13.7529945 90.4948504,13.7529945" id="Shape" fill-opacity="0.85" fill="#000000" fill-rule="nonzero"></path>
                <polygon id="Path" fill-opacity="0.85" fill="#000000" fill-rule="nonzero" points="93.4389407 13.7529945 92.4575772 13.7529945 92.4575772 10.4954194 91.4762138 10.4954194 91.4762138 9.84390438 94.4203041 9.84390438 94.4203041 10.4954194 93.4389407 10.4954194"></polygon>
                <polyline id="Path" fill-opacity="0.85" fill="#000000" fill-rule="nonzero" points="96.710152 13.7529945 95.7287886 10.4954194 95.7287886 14.0787521 95.0745463 14.0787521 95.0745463 10.1696619 96.3830309 10.1696619 97.3643943 13.1014795 98.3457577 10.1696619 99 10.1696619 99 14.0787521 98.3457577 14.0787521 98.3457577 12.124207 98.3457577 11.7984495 98.3457577 11.4726919 98.3457577 10.8211769 97.3643943 14.0787521 96.710152 14.0787521"></polyline>
                <g id="Group" transform="translate(20.683928, 0.377391)" fill="#000000" fill-opacity="0.85" fill-rule="nonzero">
                    <path d="M0,6.5900745 L2.73800392,0.117272705 L3.3071947,0.117272705 L6.04519862,6.5900745 L5.35824424,6.5900745 L4.56333987,4.54431732 L1.59635115,4.54431732 L0.798175576,6.5900745 L0,6.5900745 L0,6.5900745 Z M2.96698872,0.798105908 L1.59635115,3.97749924 L4.21986268,3.97749924 L2.96698872,0.798105908 Z M6.7288818,6.5900745 L6.7288818,0.117272705 L9.46688573,0.117272705 C10.6052673,0.117272705 11.4034429,1.1401513 11.4034429,2.15977232 C11.4034429,3.17939333 10.6052673,4.2055295 9.57810691,4.2055295 L7.41256498,4.2055295 L7.41256498,6.5900745 L6.7288818,6.5900745 Z M7.29807258,3.5246963 L9.35239333,3.5246963 C10.1505689,3.5246963 10.6052673,2.84060552 10.6052673,2.04575719 C10.6052673,1.25090885 10.0360765,0.570075649 9.23790093,0.570075649 L7.18358018,0.570075649 L7.18358018,3.5246963 L7.29807258,3.5246963 Z M10.9487445,6.5900745 L13.6834772,0.117272705 L14.252668,0.117272705 L16.9906719,6.5900745 L16.3037175,6.5900745 L15.5088131,4.54431732 L12.5450956,4.54431732 L11.7469201,6.5900745 L10.9487445,6.5900745 Z M14.0236832,0.798105908 L12.6563168,3.97749924 L15.2798283,3.97749924 L14.0236832,0.798105908 Z M20.0688818,0.00325757514 C21.2105346,0.00325757514 22.1232025,0.570075649 22.4634085,1.36492398 L21.8942177,1.70696937 C21.4362482,0.798105908 20.6380726,0.570075649 19.9543894,0.570075649 C18.3580382,0.570075649 17.5598627,1.93499963 17.5598627,3.29666604 C17.5598627,4.77234757 18.587023,6.01999885 19.9543894,6.01999885 C20.6413438,6.01999885 21.5507406,5.68121104 22.0087101,4.77234757 L22.5779009,5.00037783 C22.1199313,6.01999885 20.9815498,6.47605937 19.9543894,6.47605937 C18.1323247,6.47605937 16.8794507,4.77234757 16.8794507,3.06863578 C16.9906719,1.70696937 18.1323247,0.00651515027 20.0688818,0.00651515027 L20.0688818,0.00325757514 Z M28.6198283,0.00325757514 L28.6198283,6.47605937 L27.9361452,6.47605937 L27.9361452,3.41068117 L24.1742521,3.41068117 L24.1742521,6.4728018 L23.4872977,6.4728018 L23.4872977,0.00651515027 L24.1742521,0.00651515027 L24.1742521,2.84386309 L28.0506376,2.84386309 L28.0506376,0.00977272541 L28.6198283,0.00325757514 Z M34.5505346,5.9092413 L34.5505346,6.47605937 L30.2161795,6.47605937 L30.2161795,0 L34.5505346,0 L34.5505346,0.566818074 L30.8965915,0.566818074 L30.8965915,2.95136307 L34.0892938,2.95136307 L34.0892938,3.52143872 L30.8965915,3.52143872 L30.8965915,6.01674128 L34.5472634,6.01674128 L34.5505346,5.9092413 Z" id="Shape"></path>
                </g>
            </g>
        </g>
    </g>
</svg>