<?xml version="1.0" encoding="UTF-8"?>
<svg width="105px" height="31px" viewBox="0 0 105 31" version="1.1" xmlns="http://www.w3.org/2000/svg" xmlns:xlink="http://www.w3.org/1999/xlink">
    <title>maria</title>
    <g id="Page-1" stroke="none" stroke-width="1" fill="none" fill-rule="evenodd">
        <g id="App-Development" transform="translate(-965.000000, -5544.000000)">
            <g id="maria" transform="translate(965.000000, 5544.000000)">
                <g id="Group" transform="translate(43.852177, 12.942682)" fill="#000000" fill-opacity="0.85" fill-rule="nonzero">
                    <g transform="translate(32.424790, 2.996748)" id="Shape">
                        <path d="M8.42701633,0.207584924 L8.42701633,8.30339695 L7.40351311,8.30339695 L7.40351311,6.91517277 C6.47612568,8.0231573 5.41885205,8.57844697 4.23428996,8.57844697 C3.04193469,8.57844697 2.03401781,8.15549269 1.22093023,7.31217894 C0.405244928,6.45848594 0,5.44650944 0,4.27624943 C0,3.09561017 0.4130381,2.08882329 1.23651658,1.26626803 C2.05999505,0.422954282 3.04972786,0 4.19792182,0 C5.52276101,0 6.59562098,0.565668917 7.41909946,1.69441194 L7.41909946,0.215369358 L8.44260267,0.215369358 M7.48144483,4.3151716 C7.48144483,3.38882388 7.16971796,2.61038042 6.54886195,1.97984121 C5.92800594,1.33892276 5.16427511,1.01976094 4.25766947,1.01976094 C3.36145473,1.01976094 2.60291935,1.349302 1.98206333,2.01097895 C1.36120732,2.66227665 1.04948046,3.43553049 1.04948046,4.33074047 C1.04948046,5.22595045 1.36640277,6.00439392 1.99764968,6.66607086 C2.62889659,7.31736856 3.38223652,7.64172 4.25766947,7.64172 C5.14349332,7.64172 5.9020287,7.325153 6.53327561,6.69461379 C7.16452251,6.06407458 7.48144483,5.27006225 7.48144483,4.3151716"></path>
                    </g>
                    <g transform="translate(28.965920, 0.000000)" id="Shape">
                        <path d="M14.2874814,11.2482486 L14.2874814,0.298143847 L16.5630876,0.298143847 C18.1217219,0.298143847 19.2647204,0.415169847 19.9920831,0.648443405 C20.7246413,0.872116161 21.3558882,1.232276 21.8858238,1.73047982 C22.4157595,2.21830439 22.8236022,2.81770586 23.1067541,3.53127903 C23.3925037,4.2422574 23.5353785,5.07778671 23.5353785,6.03267736 C23.5353785,6.97978358 23.3114547,7.87239875 22.862568,8.70533326 C22.4235527,9.53826776 21.8234785,10.168807 21.0597476,10.5969509 C20.3064077,11.0250948 19.2179614,11.2378693 17.7866155,11.2378693 L14.2796883,11.2378693 M15.3343642,10.1999447 L16.6020534,10.1999447 C17.9268926,10.1999447 18.882855,10.133777 19.485527,10.0017011 C20.0856012,9.86936572 20.6103414,9.60988456 21.0597476,9.22325764 C21.5065562,8.82625147 21.8494557,8.34880615 22.0832509,7.78832686 C22.3173058,7.22784756 22.4339436,6.58952392 22.4339436,5.8655715 C22.4339436,5.14421389 22.296524,4.47734732 22.0209055,3.86756661 C21.7559377,3.2577859 21.3740722,2.75439246 20.8753093,2.35738629 C20.3765463,1.96038012 19.7868629,1.69570935 19.1036616,1.56337396 C18.4308511,1.4209188 17.4385205,1.34982097 16.1162791,1.34982097 L15.3369619,1.34982097 L15.3369619,10.1981283"></path>
                        <path d="M0,0.869002387 C0,0.635209867 0.0815685304,0.430479236 0.244445819,0.259221673 C0.417454231,0.0864072245 0.621115784,0 0.854910935,0 C1.09935675,0 1.30171945,0.0864072245 1.46537605,0.259221673 C1.63838446,0.421916357 1.72514844,0.625090101 1.72514844,0.869002387 C1.72514844,1.10305439 1.63864424,1.30752554 1.46537605,1.4787831 C1.30249876,1.64147778 1.09909698,1.72295487 0.854910935,1.72295487 C0.620856012,1.72295487 0.415895596,1.63654764 0.244445819,1.46373319 C0.0815685304,1.29091874 0,1.09267514 0,0.869521349 M0.335106383,3.12700739 L1.38978229,3.12700739 L1.38978229,11.2228194 L0.335106383,11.2228194 L0.335106383,3.12700739"></path>
                    </g>
                    <g transform="translate(0.000000, 0.298144)" id="Path">
                        <polyline points="0 10.9501047 1.55863434 0 1.72670708 0 6.19479218 8.97804795 10.6109228 0 10.7789955 0 12.3532162 10.9501047 11.2699654 10.9501047 10.1997031 3.11377386 6.32909451 10.9501047 6.05373577 10.9501047 2.13117269 3.03592951 1.06091044 10.9501047 0.00623453736 10.9501047"></polyline>
                    </g>
                    <g transform="translate(13.847687, 2.996748)" id="Shape">
                        <path d="M8.42701633,0.207584924 L8.42701633,8.30339695 L7.40351311,8.30339695 L7.40351311,6.91517277 C6.47612568,8.0231573 5.41885205,8.57844697 4.23428996,8.57844697 C3.04193469,8.57844697 2.03401781,8.15549269 1.22093023,7.31217894 C0.405244928,6.45848594 0,5.44650944 0,4.27624943 C0,3.09561017 0.4130381,2.08882329 1.23651658,1.26626803 C2.05999505,0.422954282 3.04972786,0 4.19792182,0 C5.52276101,0 6.59562098,0.565668917 7.41909946,1.69441194 L7.41909946,0.215369358 L8.44260267,0.215369358 M7.48144483,4.3151716 C7.48144483,3.38882388 7.16971796,2.61038042 6.54886195,1.97984121 C5.92800594,1.33892276 5.16427511,1.01976094 4.25766947,1.01976094 C3.36145473,1.01976094 2.60291935,1.349302 1.98206333,2.01097895 C1.36120732,2.66227665 1.04948046,3.43553049 1.04948046,4.33074047 C1.04948046,5.22595045 1.36640277,6.00439392 1.99764968,6.66607086 C2.62889659,7.31736856 3.38223652,7.64172 4.25766947,7.64172 C5.14349332,7.64172 5.9020287,7.325153 6.53327561,6.69461379 C7.16452251,6.06407458 7.47884711,5.27006225 7.48144483,4.3151716"></path>
                    </g>
                    <g transform="translate(24.155195, 2.991558)" id="Path">
                        <path d="M0.00103908956,0.212774547 L1.07130134,0.212774547 L1.07130134,1.38822418 C1.35705096,0.910778853 1.6324097,0.560479294 1.89477981,0.334730689 C2.17013855,0.111057934 2.46887679,0 2.79619,0 C3.13129639,0 3.46900049,0.0915968476 3.80410688,0.275050024 L3.25338941,1.15988076 C3.10064325,1.06828391 2.94166254,1.02261523 2.78060366,1.02261523 C2.46368135,1.02262301 2.1649431,1.18530991 1.87919347,1.5104398 C1.60383474,1.83479124 1.40121227,2.25774553 1.26872835,2.77670784 C1.13624443,3.2852909 1.07026225,4.21682824 1.07026225,5.57910431 L1.07026225,8.32960454 L0,8.32960454 L0,0.23379252"></path>
                    </g>
                    <g transform="translate(54.554800, 0.347445)" id="Shape">
                        <path d="M0,0.00259481155 L2.16909946,0.00259481155 C3.31989114,0.00260519079 4.19012865,0.236646813 4.79280059,0.703193929 C5.39287481,1.15988076 5.69421079,1.82155771 5.69421079,2.68562995 C5.69421079,3.16307527 5.57211776,3.60678805 5.32793172,4.01157865 C5.09361702,4.40858482 4.74863929,4.72774664 4.28884216,4.97165892 C5.04218209,5.21583069 5.61368135,5.58143964 5.99814448,6.06926421 C6.39559624,6.55708878 6.59302326,7.13832656 6.59302326,7.80778794 C6.59302326,8.71337717 6.26311232,9.46587252 5.60069273,10.065274 C4.93827313,10.6542962 4.08362197,10.9501047 3.03414151,10.9501047 L0.0207817912,10.9501047 L0.0207817912,0 M1.10403266,1.06906236 L1.10403266,4.57205794 L1.73008412,4.57205794 C2.68604651,4.57205794 3.40042058,4.41948303 3.86801089,4.11537111 C4.33560119,3.80918335 4.56939634,3.33173803 4.56939634,2.68044033 C4.56939634,1.60359354 3.8368382,1.06387273 2.3691242,1.06387273 L1.10143493,1.06387273 M1.10143493,5.68263729 L1.10143493,9.88623199 L2.46004453,9.88623199 C3.24455715,9.88623199 3.81865413,9.80994453 4.1849332,9.65736961 C4.56160317,9.49467493 4.86813459,9.2499842 5.10192974,8.92563276 C5.33598466,8.59090207 5.45262246,8.24838694 5.45262246,7.90327701 C5.45262246,7.55816707 5.3863805,7.25197931 5.25415636,6.98730853 C5.12167244,6.72263775 4.92424542,6.48910471 4.65927759,6.28670941 C4.40470064,6.08327619 4.09297378,5.93122023 3.72669471,5.83002258 C3.37080653,5.72830597 2.69799604,5.67744766 1.71086096,5.67744766 L1.10039584,5.67744766"></path>
                    </g>
                </g>
                <g id="Path">
                    <path d="M45.6705839,0.0591833334 C44.9484166,0.08222526 45.1770163,0.290121561 43.6157843,0.67415367 C42.0415636,1.06078059 40.108857,0.941419259 38.4203365,1.65239762 C33.3547749,3.77495347 32.3416625,11.0196673 27.7436912,13.6144789 C24.3146957,15.5553979 20.8337457,15.7110866 17.716477,16.6763565 C15.6642751,17.3198697 13.4302326,18.6354392 11.5598714,20.2312483 C10.1181346,21.474163 10.0791687,22.5665787 8.57248887,24.1234656 C6.95930233,25.7893346 2.15611084,24.1517491 0,26.7027083 C0.701385453,27.408497 1.00791687,27.6082975 2.38730826,27.4240659 C2.10155863,27.9637867 0.418233548,28.4204735 0.748144483,29.2170807 C1.09623949,30.0552048 5.16427511,30.6208737 8.85304305,28.3893358 C10.575334,27.3488164 11.9443345,25.8516101 14.6199901,25.4831469 C18.1009401,25.0212704 22.1014349,25.7789554 26.1019297,26.3601932 C25.5044532,28.1350443 24.3095002,29.3182783 23.3483424,30.7194766 C23.0522019,31.0386384 23.9458189,31.0749657 24.9641267,30.8816523 C26.7981197,30.4301551 28.1073726,30.0642866 29.5101435,29.2598951 C31.2090549,28.2712719 31.4662296,25.7309514 33.5625928,25.1860409 C34.7237754,26.9712713 37.8748144,27.3916308 39.8490846,25.9644844 C38.1293914,25.4766598 37.6540079,21.8127859 38.2333003,20.2040028 C38.7840178,18.6782536 39.3269421,16.2339411 39.8802573,14.2099881 C40.4751361,12.0433205 40.6933449,9.30579428 41.4155121,8.21597343 C42.498763,6.55529404 43.6963137,5.9844355 44.7405987,5.05030334 C45.7796883,4.11357637 46.7304552,3.20279752 46.6992825,1.05429356 C46.6892293,0.36407369 46.3330035,-0.0199584187 45.6757793,0.000800073635 L45.6705839,0.0591833334 Z" fill-opacity="0.85" fill="#000000"></path>
                    <path d="M1.50927759,29.1210727 C4.13297872,29.4973203 5.74356754,29.1210727 7.87370114,28.2051042 C9.6739238,27.4240659 11.4066056,25.8178776 13.5367392,25.1432266 C16.6540079,24.1416293 20.0830035,25.144524 23.4340673,25.3443244 C24.2471549,25.3931069 25.055047,25.3936259 25.8525482,25.3069592 C27.096858,24.5440846 27.0708808,21.7001711 28.2814201,21.4147418 C28.2458313,25.4107516 26.6006927,27.8239264 24.8784018,30.1333086 C28.5152152,29.494985 30.6713261,27.4087565 32.1260515,24.60636 C32.5702622,23.7578567 32.9495299,22.8470778 33.2846363,21.8818079 C33.8041811,22.2788141 33.5093394,23.4905911 33.7704107,24.1444836 C36.2668234,22.7562594 37.6929738,19.5776153 38.6541316,16.3859971 C39.7503711,12.6754166 40.1971796,8.91293981 40.9037605,7.82311896 C41.5921573,6.75146179 42.6650173,6.08978485 43.6573478,5.4047546 C44.7691737,4.62371632 45.7615042,3.81154031 45.932954,2.31692886 C44.7587828,2.20846574 44.4886195,1.93808637 44.314572,1.34646934 C43.7274864,1.67860522 43.1871598,1.74866513 42.5766947,1.76682881 C42.046759,1.78291664 41.4648689,1.75930386 40.7530925,1.83221806 C34.8822365,2.43421434 34.1288966,8.91605358 30.3621969,12.5747379 C30.0868382,12.8420035 29.7906977,13.0911054 29.4789708,13.3246384 C28.1593271,14.3054772 26.5435428,15.0086711 25.0628402,15.5769348 C22.6521524,16.4954981 20.3609599,16.5629632 18.1009401,17.3569755 C16.4409946,17.9382133 14.7498763,18.7841219 13.3990599,19.7156592 C13.058758,19.9484138 12.7366403,20.1879149 12.4430975,20.4292324 C11.6429985,21.0831249 11.1182583,21.8070773 10.6091044,22.5543831 C10.0843642,23.3224473 9.58040574,24.1138648 8.80888174,24.868955 C7.55937655,26.093706 2.88607125,25.227039 1.2495052,26.3635664 C1.06636566,26.4899337 0.922191984,26.6412113 0.820880752,26.8228481 C1.7170955,27.2302335 2.31716972,26.9800936 3.34846611,27.0927085 C3.48380752,28.0709524 1.22093023,28.6521902 1.55603662,29.1010926 L1.50927759,29.1210727 Z" fill-opacity="0.85" fill="#000000" fill-rule="nonzero"></path>
                    <path d="M37.098095,21.8556003 C37.1682335,22.9765589 37.8202622,25.2029072 38.3943592,25.7478176 C37.2669471,26.0228677 35.329045,25.5692946 34.8354775,24.7747633 C35.0913533,23.6278566 36.4226868,22.5795527 37.1032905,21.8685744 L37.098095,21.8556003 Z" fill-opacity="0.85" fill="#000000"></path>
                    <path d="M38.6567293,4.21088181 C39.488001,4.93223942 41.2336714,4.35333696 40.9219446,2.91866566 C39.6282781,2.81175942 38.8801336,3.25080154 38.6567293,4.21088181 Z" fill="#FFFFFF"></path>
                    <path d="M44.3717219,2.39451373 C44.1503958,2.85898499 43.7274864,3.45579165 43.7274864,4.6364309 C43.725668,4.83908568 43.5734414,4.97894603 43.5708436,4.66549279 C43.5822736,3.51080165 43.887766,3.01259784 44.2124814,2.35870533 C44.3634092,2.08884492 44.4543295,2.20094078 44.3722415,2.39555165 L44.3717219,2.39451373 Z" fill="#FFFFFF" fill-rule="nonzero"></path>
                    <path d="M44.3717219,2.39451373 C44.1119495,2.83563169 43.4833003,3.64521289 43.3793914,4.82066252 C43.3601682,5.02227938 43.1959921,5.14760878 43.2209302,4.83545295 C43.334191,3.68854624 43.8365908,2.96978344 44.2184562,2.34443386 C44.3914646,2.09040181 44.4727734,2.20872522 44.3735403,2.39529217 L44.3717219,2.39451373 Z" fill="#FFFFFF" fill-rule="nonzero"></path>
                    <path d="M44.1119495,2.13503257 C43.815809,2.55279723 42.846858,3.52325675 42.6442355,4.68573232 C42.6078674,4.88475437 42.4338199,4.99710971 42.4849951,4.68728921 C42.6943716,3.55335656 43.5292801,2.66074139 43.9605022,2.06652955 C44.1542924,1.8275474 44.2254701,1.95235784 44.1111702,2.13010243 L44.1119495,2.13503257 Z" fill="#FFFFFF" fill-rule="nonzero"></path>
                    <path d="M43.8521771,1.87555142 C43.4988867,2.24920428 42.3454973,3.48433457 41.9818159,4.60010354 C41.9173924,4.79211959 41.7295769,4.87774837 41.8238743,4.57934505 C42.1901534,3.48433457 43.200668,2.30629013 43.7124196,1.77694858 C43.9381618,1.56754729 43.9903761,1.70118008 43.8526967,1.86127995 L43.8521771,1.87555142 Z" fill="#FFFFFF" fill-rule="nonzero"></path>
                </g>
            </g>
        </g>
    </g>
</svg>