<?xml version="1.0" encoding="UTF-8"?>
<svg width="70px" height="70px" viewBox="0 0 70 70" version="1.1" xmlns="http://www.w3.org/2000/svg" xmlns:xlink="http://www.w3.org/1999/xlink">
    <title>milestone</title>
    <g id="milestone" stroke="none" stroke-width="1" fill="none" fill-rule="evenodd" stroke-opacity="0.85">
        <g id="iconfinder_02_venture_capital_824378" transform="translate(0.000000, 4.000000)" stroke="#000000" stroke-width="2.325">
            <path d="M13.2063492,40 L22.3492063,40 L33.5238095,44 L42.6666667,44 C44.3489524,44 45.7142857,45.343 45.7142857,47 C45.7142857,48.657 44.3489524,50 42.6666667,50 L31.4920635,50 C29.8097778,50 28.4444444,51.343 28.4444444,53" id="Path"></path>
            <path d="M44.6984127,49 L60.952381,44 C62.6346667,44 64,45.343 64,47 C64,47.997 62.984127,49 62.984127,49 L37.5873016,62 L35.5555556,62 L18.2857143,56 L14.2222222,56" id="Path"></path>
            <path d="M0,38 L12.1904762,38 C12.752254,38 13.2063492,38.447 13.2063492,39 L13.2063492,57 C13.2063492,57.553 12.752254,58 12.1904762,58 L0,58" id="Path"></path>
            <g id="Group" transform="translate(34.539683, 20.000000)">
                <path d="M0,12 C0,13.656 1.36533333,15 3.04761905,15 C4.72990476,15 6.0952381,13.656 6.0952381,12 C6.0952381,10.344 3.04761905,9 3.04761905,9 C3.04761905,9 0,7.656 0,6 C0,4.344 1.36533333,3 3.04761905,3 C4.72990476,3 6.0952381,4.344 6.0952381,6" id="Path"></path>
                <line x1="3.04761905" y1="3" x2="3.04761905" y2="0" id="Path"></line>
                <line x1="3.04761905" y1="15" x2="3.04761905" y2="18" id="Path"></line>
            </g>
            <polygon id="Path" stroke-linejoin="round" points="45.7142857 2 41.6507937 0 37.5873016 2 33.5238095 0 29.4603175 2 33.5238095 10 41.6507937 10"></polygon>
            <path d="M41.6507937,14 C45.016381,14 55.8730159,18 55.8730159,35 L55.8730159,43" id="Path"></path>
            <path d="M19.3015873,37 L19.3015873,35 C19.3015873,17 30.1582222,14 33.5238095,14" id="Path"></path>
            <path d="M43.6825397,12 C43.6825397,13.104 42.7723175,14 41.6507937,14 L33.5238095,14 C32.4022857,14 31.4920635,13.104 31.4920635,12 L31.4920635,12 C31.4920635,10.896 32.4022857,10 33.5238095,10 L41.6507937,10 C42.7723175,10 43.6825397,10.896 43.6825397,12 L43.6825397,12 Z" id="Path"></path>
        </g>
    </g>
</svg>