<?xml version="1.0" encoding="UTF-8"?>
<svg width="110px" height="29px" viewBox="0 0 110 29" version="1.1" xmlns="http://www.w3.org/2000/svg" xmlns:xlink="http://www.w3.org/1999/xlink">
    <title>mongo</title>
    <g id="Page-1" stroke="none" stroke-width="1" fill="none" fill-rule="evenodd">
        <g id="App-Development" transform="translate(-1155.000000, -5416.000000)" fill="#000000" fill-rule="nonzero">
            <g id="mongo" transform="translate(1155.000000, 5416.000000)">
                <path d="M12.8122295,11.5407247 C11.2811952,4.80090155 8.09012381,3.00667561 7.27610559,1.73834348 C6.94044142,1.17961217 6.64308758,0.59883516 6.38608567,0 C6.34308471,0.59874058 6.26408294,0.975947146 5.75407153,1.42999209 C4.73004861,2.34107567 0.380951291,5.8776367 0.0149431007,13.5355287 C-0.32606453,20.6755101 5.27506081,25.0782492 6.01507737,25.533292 C6.5840901,25.8127043 7.27710561,25.5392794 7.61511318,25.2828189 C10.3151736,23.4337084 14.0042561,18.5040776 12.8152295,11.5407247" id="Path" fill-opacity="0.74"></path>
                <path d="M6.61809086,21.7312894 C6.47708771,23.498572 6.37608545,24.5254121 6.01807744,25.5352878 C6.01807744,25.5352878 6.2530827,27.2177489 6.41808639,29 L7.00209946,29 C7.141406,27.7449601 7.3541068,26.4991184 7.63911371,25.2688483 C6.88309679,24.8976291 6.64709151,23.2820275 6.61809086,21.7312894 Z" id="Path" fill-opacity="0.85"></path>
                <path d="M7.63811369,25.2698462 L7.63811369,25.2698462 C6.87409659,24.9175871 6.65309165,23.2680568 6.61909089,21.7312894 C6.8080352,19.1962803 6.86311264,16.6531032 6.78409458,14.1123155 C6.74409368,12.7791198 6.803095,1.76428891 6.45508722,0.151680947 C6.69314366,0.697854865 6.96742462,1.22758433 7.27610559,1.73734558 C8.09012381,3.00667561 11.2821952,4.80090155 12.8122295,11.5407247 C14.0042561,18.4921028 10.335174,23.4087609 7.63811369,25.2698462 Z" id="Path" fill-opacity="0.85"></path>
                <path d="M108.340367,22.832972 C107.42712,22.8328844 106.685669,22.0962997 106.681489,21.1849991 C106.677345,20.2736984 107.412037,19.5304006 108.325246,19.5220068 C109.238454,19.5136131 109.986743,20.2432801 109.999404,21.1545026 C110.011419,21.599232 109.841252,22.0296344 109.528175,22.346378 C109.215099,22.6631216 108.786165,22.8388373 108.340367,22.832972 M108.340367,19.6716218 C107.729086,19.6675842 107.175669,20.0317084 106.93856,20.5939489 C106.70145,21.1561894 106.827431,21.8056164 107.257669,22.2389486 C107.687907,22.6722808 108.337516,22.8040219 108.90313,22.572649 C109.468744,22.3412761 109.838768,21.7924391 109.840401,21.1824438 C109.848264,20.7818244 109.693211,20.3951033 109.410596,20.1104552 C109.12798,19.8258072 108.741894,19.6674975 108.340367,19.6716218 M108.740376,22.2242524 L108.312367,21.3031898 L107.967359,21.3031898 L107.967359,22.2242524 L107.716353,22.2242524 L107.716353,20.1286604 L108.335367,20.1286604 C108.796377,20.1286604 108.988382,20.3282406 108.988382,20.7144283 C108.988382,21.0217818 108.843378,21.2133788 108.573372,21.2722549 L109.015382,22.2212587 L108.740376,22.2242524 Z M107.977359,21.0866453 L108.340367,21.0866453 C108.634374,21.0866453 108.746376,20.9868552 108.746376,20.7194178 C108.746376,20.4519803 108.639374,20.3611713 108.308366,20.3611713 L107.977359,20.3611713 L107.977359,21.0866453 Z" id="Shape" fill-opacity="0.85"></path>
                <path d="M83.6488146,21.3241458 C84.0978247,21.6823922 84.9948448,21.8300816 85.7858625,21.8300816 C86.8108854,21.8300816 87.8159079,21.6404804 88.7979299,20.7553422 C89.7979522,19.8482502 90.4859676,18.46017 90.4859676,16.2438319 C90.4859676,14.1143113 89.6739495,12.3859468 88.0079122,11.3740752 C87.0678911,10.7843157 85.8498639,10.5518048 84.4608328,10.5518048 C84.0608239,10.5518048 83.6488146,10.5727607 83.4148094,10.6785382 C83.3188736,10.754108 83.2509517,10.8594622 83.2218051,10.9779085 C83.1798041,11.3571109 83.1798041,14.2450363 83.1798041,15.9524449 C83.1798041,17.7027632 83.1798041,20.1436289 83.2218051,20.4429992 C83.2438056,20.6964661 83.3718084,21.1415299 83.6488146,21.3281374 M79.3847192,9.60379891 C79.7477273,9.60379891 81.1277582,9.66666667 81.7697726,9.66666667 C82.9697994,9.66666667 83.798818,9.60379891 86.0418682,9.60379891 C87.9219103,9.60379891 89.5039457,10.1097347 90.634971,11.0786965 C92.0030016,12.2602113 92.735018,13.9037542 92.735018,15.9065414 C92.735018,18.752555 91.4349889,20.3970958 90.1279596,21.3241458 C88.8279305,22.2941055 87.1368927,22.8419531 84.7278388,22.8419531 C83.4458101,22.8419531 81.2447608,22.8000413 79.4077197,22.7790854 L79.3697189,22.7790854 C79.283717,22.6104401 79.5267224,21.9528234 79.6767258,21.9358591 C80.1767369,21.8799766 80.3087399,21.8600186 80.538745,21.765218 C80.9267537,21.6065517 81.0177558,21.4089673 81.0607567,20.7134304 C81.1247582,19.4061801 81.1037577,17.8464609 81.1037577,16.0751867 C81.1037577,14.8108462 81.1247582,12.344035 81.0827572,11.5636764 C81.0177558,10.9110492 80.7417496,10.7424039 80.1827371,10.6156705 C79.7863138,10.5316388 79.3857578,10.468352 78.9827102,10.4260693 C78.9407093,10.2993359 79.2687166,9.72753863 79.375719,9.60379891" id="Shape" fill-opacity="0.85"></path>
                <path d="M98.0301365,10.6735487 C97.9451346,10.6945047 97.8381322,10.9060597 97.8381322,11.0108393 C97.8161317,11.7702419 97.7951312,13.7510753 97.7951312,15.1211934 C97.8061908,15.1747413 97.8483704,15.216438 97.9021336,15.2269709 C98.1791398,15.2479268 98.8631551,15.2698806 99.440168,15.2698806 C100.252186,15.2698806 100.722197,15.1641031 100.978202,15.0373697 C101.662218,14.7000791 101.978225,13.9616324 101.978225,13.1613159 C101.978225,11.3271739 100.696196,10.6316369 98.7951536,10.6316369 C98.538163,10.6283971 98.2812448,10.6423993 98.0261364,10.6735487 M102.876245,19.1058119 C102.876245,17.250714 101.508214,16.1969306 99.0081583,16.1969306 C98.902156,16.1969306 98.1081382,16.1759747 97.919134,16.2178865 C97.8551325,16.2388424 97.7911311,16.2807543 97.7911311,16.323664 C97.7911311,17.6518702 97.7691306,19.780393 97.8341321,20.6236193 C97.877133,20.9818657 98.1341388,21.4878015 98.4531459,21.6354909 C98.7951536,21.825092 99.5641708,21.8670039 100.098183,21.8670039 C101.572216,21.8670039 102.876245,21.0457314 102.876245,19.1058119 M94.1700501,9.64072124 C94.3630544,9.64072124 94.9310671,9.703589 96.3840996,9.703589 C97.7511302,9.703589 98.8621551,9.66167716 100.184185,9.66167716 C101.829221,9.66167716 104.093272,10.2524345 104.093272,12.6972919 C104.093272,13.8947731 103.239253,14.8687244 102.128228,15.3327484 C102.064227,15.3537043 102.064227,15.3956161 102.128228,15.416572 C103.709264,15.8157324 105.097295,16.7866901 105.097295,18.641788 C105.097295,20.454974 103.965269,21.593579 102.320232,22.3100719 C101.32021,22.7531399 100.077182,22.8998314 98.8201541,22.8998314 C97.8591326,22.8998314 95.283075,22.8000413 93.8510429,22.8160077 C93.7010396,22.7531399 93.988046,22.077561 94.1160489,21.9727814 C94.4441285,21.9627163 94.7696602,21.9117609 95.0850706,21.8211004 C95.597082,21.6953649 95.6580834,21.5307113 95.7220848,20.7713086 C95.7650858,20.1176835 95.7650858,17.7776057 95.7650858,16.112109 C95.7650858,13.834899 95.7870863,12.2971336 95.7650858,11.537731 C95.7440853,10.9479715 95.5300805,10.7573724 95.1240714,10.6525928 C94.8040643,10.5887272 94.2700523,10.5258594 93.8430428,10.4629916 C93.7360404,10.3572141 94.0650477,9.72454492 94.1710501,9.64072124" id="Shape" fill-opacity="0.85"></path>
                <path d="M17.5433353,22.832972 C17.4883116,22.6980361 17.4660387,22.5520301 17.4783339,22.4068683 C17.4735412,22.3079208 17.4960231,22.2095556 17.5433353,22.1224665 C17.8196592,22.0827003 18.0934536,22.0270581 18.3633537,21.9558171 C18.7413622,21.8620144 18.8833653,21.6564468 18.9053658,21.1754585 C18.9673672,20.0388493 18.9713673,17.906335 18.9493668,16.4074877 L18.9493668,16.3635801 C18.9493668,16.2019201 18.9493668,15.9823819 18.7493623,15.8277072 C18.3978321,15.607632 18.0161888,15.4395677 17.616337,15.3287568 C17.437333,15.275868 17.3383308,15.1820653 17.3433309,15.0722962 C17.348331,14.9625271 17.4613335,14.8328 17.6943387,14.7868965 C18.3133526,14.7240288 19.9353889,14.3378411 20.5724031,14.0444582 C20.6379979,14.1297604 20.6684099,14.2368691 20.657405,14.3438285 C20.657405,14.40969 20.6474048,14.479543 20.6404047,14.5513919 C20.6224042,14.7629469 20.6024038,15.003441 20.6024038,15.2429373 C20.6103935,15.3022814 20.6513803,15.351988 20.7081987,15.3712399 C20.7650172,15.3904918 20.8278605,15.3759661 20.8704098,15.3337463 C22.0834369,14.3847424 23.1704613,14.046454 23.7274737,14.046454 C24.6444943,14.046454 25.3585102,14.4835346 25.9115226,15.3836413 C25.9373078,15.427831 25.9842926,15.4554327 26.0355254,15.4564881 C26.0820105,15.4560555 26.12534,15.4329457 26.151528,15.3946182 C27.2665529,14.550394 28.3715777,14.046454 29.1115942,14.046454 C30.8596333,14.046454 31.9046567,15.3527064 31.9046567,17.5391074 C31.9046567,18.167785 31.8986566,18.9651079 31.8926565,19.7085441 C31.8876563,20.3611713 31.8826562,20.9728846 31.8826562,21.3959946 C31.8826562,21.4957847 32.0206593,21.7831802 32.2276639,21.8400606 C32.4836697,21.9647982 32.8526779,22.0286638 33.3196884,22.1084959 L33.3376888,22.1084959 C33.3726896,22.2342314 33.2986879,22.722205 33.2276863,22.8219951 C33.1116837,22.8219951 32.9516802,22.8120161 32.7516757,22.8020371 C32.3886676,22.7840749 31.8906564,22.7591274 31.3116435,22.7591274 C30.1496174,22.7591274 29.5426039,22.7810812 28.9625909,22.8190014 C28.9185899,22.6743058 28.9035896,22.2072881 28.9565907,22.1094938 C29.1967822,22.0720123 29.4345374,22.0203636 29.6686067,21.9548192 C30.038615,21.8330753 30.1456174,21.6654279 30.1686179,21.1754585 C30.1776181,20.8271911 30.2446196,17.7586456 30.1256169,17.0301779 C30.0156144,16.2747669 29.4456017,15.3906266 28.1985738,15.3906266 C27.7355634,15.3906266 26.9885467,15.5832215 26.2765308,16.122088 C26.2323659,16.1720426 26.2075399,16.2360994 26.2065292,16.3027081 L26.2065292,16.3176766 C26.2905311,16.7108496 26.2905311,17.169884 26.2905311,17.8634252 C26.2905311,18.2625856 26.2905311,18.6787103 26.285531,19.094835 C26.2805309,19.941055 26.2765308,20.7393758 26.2905311,21.3431059 C26.2905311,21.7542411 26.5395367,21.8530333 26.7405412,21.9318675 C26.8495436,21.9558171 26.9355455,21.976773 27.0225475,21.996731 C27.1895512,22.037645 27.3635551,22.0795568 27.6225609,22.1204707 C27.6609009,22.295775 27.6574756,22.4776114 27.6125607,22.651354 C27.6019625,22.7165578 27.5762828,22.7783999 27.537559,22.8319741 C26.8915445,22.8100203 26.2285297,22.7910602 25.2715083,22.7910602 C24.9815018,22.7910602 24.5084912,22.803035 24.0904819,22.8140119 C23.7514743,22.822993 23.4314671,22.8319741 23.249463,22.832972 C23.2002406,22.7170654 23.1783442,22.5914286 23.1854616,22.4657445 C23.1752452,22.3473208 23.1984548,22.2284079 23.2524631,22.1224665 L23.5094689,22.0755652 C23.7334739,22.0356492 23.9274782,22.0017205 24.1094823,21.9558171 C24.4254894,21.856027 24.544492,21.684388 24.5674925,21.2822339 C24.6294939,20.344207 24.677495,17.6408933 24.544492,16.9643164 C24.318487,15.8786002 23.6994731,15.3277589 22.7034508,15.3277589 C22.1204378,15.3277589 21.3834213,15.608169 20.7814078,16.0582224 C20.6643415,16.1719666 20.60018,16.3293172 20.6044038,16.4923093 C20.6044038,16.8146313 20.6044038,17.1978253 20.6044038,17.6089605 C20.6044038,18.9661058 20.5954036,20.6555521 20.6284044,21.3860156 C20.6484048,21.6115412 20.7284066,21.8789787 21.1514161,21.976773 C21.2444182,22.0037163 21.4044217,22.0296617 21.5904259,22.0605967 C21.6974283,22.0785589 21.8144309,22.097519 21.9354336,22.1194728 C21.9739013,22.3584318 21.9543538,22.6031128 21.8784324,22.832972 C21.6924282,22.832972 21.4634231,22.8209972 21.2014172,22.8100203 C20.8014083,22.7920581 20.3013971,22.7701043 19.7363844,22.7701043 C19.0683695,22.7701043 18.6033591,22.7920581 18.2303507,22.8100203 C17.9793451,22.8219951 17.7623402,22.8319741 17.5453354,22.832972" id="Path" fill-opacity="0.85"></path>
                <path d="M38.9888152,14.9485565 C38.6278828,14.9410774 38.2728588,15.0407595 37.9687924,15.2349541 C37.2267758,15.6850074 36.8487674,16.5841162 36.8487674,17.905337 C36.8487674,20.3781356 38.0897951,22.1055022 39.8668349,22.1055022 C40.3433098,22.1205787 40.8080551,21.9563751 41.168864,21.6454699 C41.7148763,21.2014039 42.0048827,20.2933141 42.0048827,19.0219882 C42.0048827,16.586112 40.7918556,14.9485565 38.9868152,14.9485565 M39.3288229,23.0225732 C36.118751,23.0225732 34.9757254,20.6725164 34.9757254,18.4741406 C34.9757254,16.938371 35.6047395,15.7378961 36.8457673,14.9046488 C37.714995,14.367671 38.7127313,14.0733618 39.7348319,14.0524414 C42.1838867,14.0524414 43.894925,15.809745 43.894925,18.3274492 C43.894925,20.0378514 43.2119098,21.3890093 41.9188808,22.2332335 C41.2978669,22.6124359 40.2188428,23.0225732 39.3288229,23.0225732" id="Shape" fill-opacity="0.85"></path>
                <path d="M71.6695466,14.9485565 C71.3078983,14.9403764 70.952034,15.0400989 70.6475237,15.2349541 C69.9055071,15.6850074 69.5274986,16.5841162 69.5274986,17.905337 C69.5274986,20.3781356 70.7685264,22.1055022 72.5455662,22.1055022 C73.0234062,22.1215907 73.4897604,21.9573233 73.8515954,21.6454699 C74.3976076,21.2014039 74.6866141,20.2933141 74.6866141,19.0219882 C74.6866141,16.586112 73.474587,14.9485565 71.6695466,14.9485565 M72.0115542,23.0225732 C68.8014824,23.0225732 67.6584568,20.6725164 67.6584568,18.4751385 C67.6584568,16.9373731 68.2874709,15.7378961 69.5294987,14.9046488 C70.3982133,14.3673466 71.3957204,14.0730032 72.4175633,14.0524414 C74.8666181,14.0524414 76.5776564,15.8107429 76.5776564,18.3264513 C76.5776564,20.0388493 75.8946411,21.3890093 74.6016122,22.2322356 C73.9805983,22.6124359 72.9015741,23.0225732 72.0115542,23.0225732" id="Shape" fill-opacity="0.85"></path>
                <path d="M60.8613047,14.8647328 C59.8722826,14.8647328 59.2322683,15.6440935 59.2322683,16.8505557 C59.2322683,18.057018 59.7832806,19.4910017 61.3323152,19.4910017 C61.5983212,19.4910017 62.080332,19.3732494 62.3193373,19.1108014 C62.6793454,18.7804962 62.9193508,18.0979319 62.9193508,17.3774474 C62.9193508,15.8037576 62.1513336,14.8647328 60.8663048,14.8647328 M60.738302,23.1912185 C60.4588894,23.188176 60.1833898,23.2569048 59.938284,23.3907987 C59.1552665,23.8897491 58.7922584,24.3886996 58.7922584,24.9684801 C58.7922584,25.5113382 59.0032631,25.9434293 59.4572733,26.3266233 C60.0072856,26.7916452 60.7493022,27.0181687 61.724324,27.0181687 C63.643367,27.0181687 64.5033862,25.9883349 64.5033862,24.9684801 C64.5033862,24.2579746 64.1463782,23.7819758 63.4113618,23.5125426 C62.8453491,23.3059771 61.8993279,23.1922164 60.741302,23.1922164 M60.8693049,28.0819311 C59.7172791,28.0819311 58.8872605,27.8394412 58.1782447,27.2945872 C57.4882292,26.7637039 57.1782223,25.9753622 57.1782223,25.4305082 C57.1856879,25.0793884 57.3199162,24.7427576 57.5562307,24.4825023 C57.7562352,24.2549809 58.2212456,23.8288772 59.2962697,23.0914284 C59.3303386,23.076973 59.352406,23.0435488 59.3522709,23.0066068 C59.3529773,22.9650666 59.3247298,22.9285886 59.2842694,22.9187915 C58.3992496,22.5805031 58.1322436,22.0206806 58.0512418,21.7213103 C58.0512418,21.7103334 58.0512418,21.6933691 58.0422416,21.674409 C58.0172411,21.5566567 57.9932405,21.4448918 58.1542441,21.3301332 C58.2782469,21.2423179 58.4762513,21.1245656 58.6882561,20.9998279 C58.9875303,20.8345156 59.2745994,20.6480998 59.5472753,20.4420013 C59.5769817,20.4101465 59.5902469,20.3663687 59.5832049,20.323426 C59.576163,20.2804833 59.5496064,20.2432079 59.5112745,20.2224631 C58.2012452,19.7833867 57.5412304,18.812429 57.5412304,17.3285503 C57.5330706,16.3894444 57.984766,15.505478 58.7512575,14.9605313 C59.2782693,14.5444066 60.6012989,14.0444582 61.4583181,14.0444582 L61.5083192,14.0444582 C62.3893389,14.0654141 62.88635,14.2500258 63.5743654,14.5034927 C63.9657358,14.6447062 64.3804374,14.710403 64.7963928,14.6970854 C65.5254091,14.6970854 65.8444162,14.4665703 66.1184223,14.198135 C66.1628559,14.3190453 66.186522,14.4465716 66.1884239,14.5753415 C66.2051637,14.8821667 66.1216434,15.1861238 65.9504186,15.4415196 C65.8014153,15.6480851 65.4504074,15.7977702 65.1294002,15.7977702 C65.0963995,15.7977702 65.0643988,15.7977702 65.029398,15.7927807 C64.8604895,15.7809134 64.6930784,15.7531821 64.5293868,15.7099549 L64.447385,15.7388941 C64.4213844,15.7768143 64.4383848,15.8187261 64.4593852,15.8726128 C64.4645137,15.8831469 64.4685352,15.8941827 64.4713855,15.9055435 C64.5299145,16.1718741 64.5696793,16.4419682 64.5903882,16.7138433 C64.5903882,18.2655793 63.9773744,18.9411583 63.3143596,19.4421045 C62.6733447,19.9220562 61.912072,20.2162509 61.1143104,20.2923162 L61.1143104,20.2923162 C61.09731,20.2923162 61.0143081,20.2993015 60.8583046,20.3132721 C60.7583024,20.3222532 60.6282995,20.334228 60.6092991,20.334228 L60.5902986,20.334228 C60.4462954,20.374144 60.070287,20.5527683 60.070287,20.8850693 C60.070287,21.16049 60.2402908,21.50277 61.053309,21.5646399 L61.5793208,21.6015622 C62.6513448,21.6764048 63.9903747,21.7692096 64.6203888,21.9817625 C65.4775631,22.2825376 66.0447863,23.0979764 66.0274203,24.0045078 C66.0274203,25.3965796 65.0353981,26.7058257 63.3743609,27.5061423 C62.5910515,27.8794931 61.7333744,28.0715408 60.8653048,28.0679605" id="Shape" fill-opacity="0.85"></path>
                <path d="M55.9551949,22.0905337 C55.4851844,22.0276659 55.1421767,21.9638003 54.7371677,21.7741991 C54.6576895,21.6920459 54.6053397,21.5875684 54.5871643,21.4748288 C54.5441633,20.8212037 54.5441633,18.9241939 54.5441633,17.6828051 C54.5441633,16.6699357 54.3741595,15.7867933 53.9441499,15.1531262 C53.4311384,14.4356354 52.7051222,14.0145212 51.7651012,14.0145212 C50.9320825,14.0145212 49.8210576,14.5833247 48.9030371,15.3636833 C48.8810366,15.3846392 48.7400335,15.5183579 48.7430335,15.3107945 C48.7460336,15.1032311 48.7780343,14.6821169 48.7980348,14.4126837 C48.8160467,14.2675284 48.7641175,14.1224351 48.6580316,14.0215065 C48.0580182,14.3208768 46.3749805,14.7200372 45.7519666,14.7809091 C45.2979564,14.8687244 45.1829539,15.3048071 45.6679647,15.4554902 L45.6749649,15.4554902 C46.0632006,15.562319 46.4337675,15.7250225 46.7749895,15.9384742 C46.9669938,16.0861636 46.9459933,16.2967207 46.9459933,16.465366 C46.9669938,17.8773958 46.9669938,20.0488283 46.9029923,21.2293452 C46.8819919,21.6933691 46.752989,21.8620144 46.4109813,21.946836 L46.4429821,21.9358591 C46.1825411,22.0009877 45.9183844,22.0503079 45.6519644,22.0835484 C45.544962,22.188328 45.544962,22.8000413 45.6519644,22.9267747 C45.8659691,22.9267747 46.9519934,22.863907 47.8520136,22.863907 C49.0900413,22.863907 49.7310556,22.9267747 50.0520628,22.9267747 C50.1810657,22.7790854 50.2230666,22.2102818 50.1380647,22.0835484 C49.8422584,22.0701997 49.5484946,22.0277495 49.2610451,21.956815 C48.9200375,21.8729913 48.8340356,21.7033481 48.8130351,21.3251437 C48.7710342,20.3332301 48.7710342,18.2256633 48.7710342,16.7916796 C48.7710342,16.3925192 48.8770365,16.2019201 49.0050394,16.0931489 C49.4320489,15.7139465 50.1380647,15.4614776 50.7570786,15.4614776 C51.357092,15.4614776 51.757101,15.6510788 52.0571077,15.9035477 C52.4065434,16.207809 52.6256142,16.6343052 52.6691214,17.0950415 C52.7541233,17.8933622 52.7321228,19.4989849 52.7321228,20.8870651 C52.7321228,21.6464678 52.6691214,21.8370669 52.3911152,21.9208905 C52.2631123,21.9837583 51.9211046,22.047624 51.5150956,22.0895358 C51.3870927,22.2162692 51.4290936,22.8060287 51.5150956,22.9327621 C52.070108,22.9327621 52.7151224,22.8698944 53.6511434,22.8698944 C54.8261697,22.8698944 55.5741864,22.9327621 55.8731931,22.9327621 C56.0011959,22.7850728 56.0441969,22.2342314 55.959195,22.0895358" id="Path" fill-opacity="0.85"></path>
            </g>
        </g>
    </g>
</svg>