<?xml version="1.0" encoding="UTF-8"?>
<svg width="73px" height="38px" viewBox="0 0 73 38" version="1.1" xmlns="http://www.w3.org/2000/svg" xmlns:xlink="http://www.w3.org/1999/xlink">
    <title>mysql</title>
    <g id="Page-1" stroke="none" stroke-width="1" fill="none" fill-rule="evenodd" fill-opacity="0.85">
        <g id="App-Development" transform="translate(-969.000000, -5473.000000)" fill="#000000" fill-rule="nonzero">
            <g id="mysql" transform="translate(969.000000, 5473.000000)">
                <path d="M0,34.6203497 L2.42782279,34.6203497 L2.42782279,25.0355147 L6.17152969,33.3943001 C6.61597287,34.3967882 7.20953297,34.7498238 8.39540706,34.7498238 C9.58169652,34.7498238 10.1748412,34.3967882 10.6192844,33.3943001 L14.3629913,25.0355147 L14.3629913,34.6203497 L16.7721226,34.6203497 L16.7721226,25.0538326 C16.7721226,24.1254488 16.4011994,23.6787421 15.6414924,23.437279 C13.8068143,22.8615145 12.5648656,23.3631748 12.0091039,24.6079586 L8.33974782,32.8368535 L4.78171018,24.6079586 C4.24422469,23.3631748 2.98399982,22.8615145 1.14932176,23.437279 C0.37092314,23.6787421 0.000415367458,24.1250324 0.000415367458,25.0538326 L0.000415367458,34.6203497 L0,34.6203497 L0,34.6203497 Z M18.7920545,26.8181783 L21.2011858,26.8181783 L21.2011858,32.0937301 C21.1829096,32.3905631 21.2938127,33.0595823 22.6283884,33.0783165 C23.2954685,33.0962181 27.8358502,33.0783165 27.8728179,33.0783165 L27.8728179,26.7994441 L30.3006407,26.7994441 C30.3189169,26.7994441 30.3006407,35.3622241 30.3006407,35.3996925 C30.3189169,37.5170739 27.687564,37.9625316 26.4829984,38 L18.8477138,38 L18.8477138,36.3655448 C18.8477138,36.3655448 26.4647222,36.384279 26.4829984,36.3655448 C28.0397956,36.2169201 27.8545417,35.4371609 27.8545417,35.1769637 L27.8545417,34.5449965 L22.7210153,34.5449965 C20.3301602,34.5083608 18.8103307,33.4675717 18.7920545,32.2602563 C18.7920545,32.1491 18.8477138,26.8743809 18.7920545,26.8181783 L18.7920545,26.8181783 Z M70.850058,20.7441332 C69.3680269,20.7070811 68.2369814,20.8369715 67.2546373,21.2641114 C66.9771719,21.375684 66.5505895,21.375684 66.4953456,21.7287196 C66.6436318,21.8765117 66.6801841,22.1183911 66.7915026,22.3232184 C67.0324157,22.6949882 67.4220304,23.1958159 67.7738466,23.4560132 C68.1447698,23.7536789 68.5339691,24.0505119 68.9414446,24.3107092 C69.6828755,24.756167 70.4982418,24.99763 71.1835981,25.4443367 C71.6101805,25.7037013 72.017656,26.0388354 72.4255468,26.3356685 C72.6103853,26.4842932 72.7590869,26.7074383 73,26.7998604 L73,26.7632246 C72.8704054,26.5958658 72.8330223,26.3544027 72.7217038,26.1678933 L72.1659421,25.610863 C71.628872,24.9052079 70.942685,24.2732408 70.2195302,23.7536789 C69.645077,23.3448569 68.3478845,22.7690924 68.1069713,22.1004895 C68.0882798,22.0817553 68.0695883,22.0817553 68.0695883,22.0630211 C68.4774791,22.0068185 68.9597207,21.8590264 69.3302285,21.7653554 C69.9607563,21.5988292 70.5347941,21.6354649 71.1831827,21.4685224 C71.4801705,21.3752677 71.7763275,21.3011635 72.0733152,21.2083251 L72.0733152,21.0409662 C71.7397751,20.7066647 71.5175535,20.2424728 71.1470458,19.9452234 C70.2020848,19.1279959 69.1636662,18.3290861 68.1073867,17.6604832 C67.514242,17.2703955 66.7915026,17.0289324 66.1618055,16.7133652 C65.9574448,16.6205268 65.5865216,16.5647405 65.4390662,16.3790637 C65.1046954,15.9702417 64.9385484,15.4315293 64.6789437,14.9486032 C64.1352467,13.8891551 63.6284691,12.8110789 63.1595296,11.7163286 C62.844681,10.9919394 62.6216287,10.2675501 62.2332601,9.59853092 C60.3055398,6.44077681 58.2482247,4.52780646 55.0424187,2.65147188 C54.3570624,2.26138413 53.5416961,2.09444156 52.6702551,1.89003058 C52.2071204,1.85256217 51.7439857,1.83424429 51.2804356,1.79677588 C51.0021394,1.68520329 50.7059824,1.33258394 50.4276862,1.16522506 C49.3714068,0.496622144 46.6470116,-0.970890476 45.8681976,0.96081408 C45.3676799,2.16812943 46.6096286,3.35712689 47.0540717,3.97035982 C47.369751,4.39749966 47.7581196,4.88084212 47.9811719,5.36335194 C48.1286274,5.6789192 48.1473189,5.99490276 48.2773289,6.32920422 C48.5921774,7.16516602 48.8517821,8.075232 49.2409814,8.8366733 C49.4445115,9.22676106 49.666733,9.63558301 49.9263377,9.98861867 C50.0746239,10.1930296 50.3529201,10.285868 50.3894724,10.6201695 C50.1298678,10.991523 50.112007,11.5489697 49.9637208,12.0131616 C49.3149168,14.1122251 49.5558299,16.6942146 50.5194824,18.2541493 C50.8164702,18.7183413 51.5018265,19.7399798 52.4658943,19.3503084 C53.2999522,18.9972727 53.114283,17.9569 53.3551961,17.0097819 C53.4112707,16.8053709 53.3738876,16.6567462 53.4847907,16.5081215 L53.4847907,16.5451736 C53.7257038,17.0651519 53.9853085,17.5668122 54.2449132,18.0680562 C54.8006748,18.9785385 55.8017104,19.9443908 56.6544598,20.5755253 C57.0802114,20.9098268 57.432443,21.4860076 58.0068962,21.6712681 L58.0068962,21.6337997 L57.9516524,21.6337997 C57.8403339,21.4672734 57.6733562,21.3927529 57.5437615,21.2624461 C57.2102215,20.9281447 56.8397137,20.5193227 56.5614175,20.1479692 C55.8021258,19.1075964 55.1163541,17.9560673 54.4862417,16.7670699 C54.1892539,16.1913053 53.9296493,15.5597545 53.6895669,14.98399 C53.5961092,14.7612611 53.5961092,14.4269597 53.3925791,14.2966529 C53.114283,14.7237927 52.7259144,15.0768284 52.5024467,15.5784887 C52.1689066,16.3773984 52.1136627,17.3615686 52.0027596,18.3648893 C51.9279935,18.4019414 51.946685,18.3832072 51.909302,18.4206756 C51.316988,18.2720509 51.1126272,17.658818 50.8904056,17.1388397 C50.3533355,15.8199518 50.2416016,13.7025705 50.7234279,12.1792716 C50.8530225,11.7891838 51.4283064,10.5631343 51.1873933,10.1917807 C51.0752441,9.83874504 50.7234279,9.61601618 50.5198978,9.33750101 C50.2602931,9.00319956 50.01938,8.55732551 49.8345415,8.16723776 C49.3900983,7.12686498 49.1857375,5.97533593 48.7034959,4.93537947 C48.4625828,4.43371912 48.0924904,3.93205878 47.7772265,3.50491894 C47.4249949,3.0032586 47.0357956,2.65063925 46.7583301,2.05614052 C46.6657032,1.85172954 46.5361085,1.51742809 46.6657032,1.29428291 C46.720947,1.14565822 46.7770216,1.08987193 46.9244771,1.03408563 C47.1653902,0.848408858 47.8515773,1.10860613 48.1103512,1.2010282 C48.7778467,1.49827757 49.3522999,1.75847484 49.9267531,2.14856259 C50.2050493,2.33423937 50.4833455,2.68685871 50.8168855,2.78011341 L51.1878087,2.78011341 C51.7809534,2.91000389 52.4476182,2.81716551 53.0033798,2.98452439 C53.9857239,3.28135744 54.8750256,3.74596569 55.6725311,4.26636024 C58.1186301,5.80797704 60.1020097,7.99987887 61.4731377,10.6189205 C61.6953593,11.0460604 61.7879862,11.4361481 61.9736555,11.8820222 C62.3632701,12.7925045 62.8629572,13.7208884 63.2521565,14.5939022 C63.6230796,15.4856503 64.0122789,16.3773984 64.5493491,17.1013713 C64.8463368,17.4914591 65.9578601,17.6958701 66.4583779,17.8998647 C66.8106095,18.0484894 67.3846473,18.215432 67.7190181,18.4202593 C68.3674067,18.7916128 68.9788276,19.2562211 69.5906639,19.6833609 C69.8864055,19.8898535 70.812675,20.3540454 70.850058,20.7441332 L70.850058,20.7441332 Z" id="Shape"></path>
                <path d="M51.946685,4.60274327 C51.6907494,4.6028224 51.4357756,4.63413777 51.1873933,4.69599798 L51.1873933,4.73305007 L51.2426372,4.73305007 C51.3909234,5.03029943 51.650528,5.23471041 51.8357819,5.49449137 C51.9653766,5.79174073 52.1140781,6.0889901 52.2436728,6.38623946 L52.2989166,6.33045317 C52.5585213,6.1635106 52.6698398,5.86626123 52.6698398,5.4020693 C52.5772128,5.29049671 52.5585213,5.16060623 52.4663097,5.03029943 C52.3362997,4.84420634 52.1140781,4.75136796 51.946685,4.60274327 L51.946685,4.60274327 Z" id="Path"></path>
                <path d="M32.1727018,34.6203497 L39.1222148,34.6203497 C39.9375811,34.6203497 40.7342559,34.4529908 41.3643683,34.1553251 C42.4019562,33.6732316 42.9211655,33.0225302 42.9211655,32.1682506 L42.9211655,30.3851707 C42.9211655,29.6982499 42.3280208,29.029647 41.1982213,28.6020908 C40.5863851,28.3606277 39.8449541,28.2490551 39.1222148,28.2490551 L36.1942896,28.2490551 C35.2119455,28.2490551 34.7488108,27.9513895 34.6374923,27.3019371 C34.6188008,27.2278329 34.6188008,27.1533124 34.6188008,27.0792082 L34.6188008,25.9830491 C34.6188008,25.908945 34.6188008,25.8531587 34.6374923,25.7790545 C34.7488108,25.2773941 35.0080001,25.1287694 35.8607495,25.0546653 C35.9346849,25.0546653 36.0273118,25.0359311 36.1016626,25.0359311 L43.0142078,25.0359311 L43.0142078,23.4202101 L36.2129811,23.4202101 C35.230637,23.4202101 34.7301193,23.4943143 34.2669845,23.6242047 C32.8215058,24.0883967 32.1913934,24.794468 32.1913934,26.0392517 L32.1913934,27.4509781 C32.1913934,28.5471371 33.4329267,29.475521 35.4902417,29.6982499 C35.7311548,29.6982499 35.9533764,29.7169841 36.1942896,29.7169841 L38.6964631,29.7169841 C38.7890901,29.7169841 38.8813016,29.7169841 38.955237,29.7357183 C39.734051,29.8098225 40.0488996,29.9397129 40.2898127,30.2178118 C40.4194073,30.3664365 40.4754819,30.4967433 40.4754819,30.6641022 L40.4754819,32.0758285 C40.4754819,32.2431874 40.3641635,32.4663326 40.1232503,32.651593 C39.9188895,32.8376861 39.5666579,32.9492587 39.1035232,32.9858945 C39.0108963,32.9858945 38.9373762,33.0046287 38.8439186,33.0046287 L32.1727018,33.0046287 L32.1727018,34.6203497 Z M58.0068962,31.7960644 C58.0068962,33.467988 59.2301534,34.3963718 61.732327,34.5824649 C61.9545486,34.6011991 62.1954617,34.6199333 62.4176833,34.6199333 L68.7188076,34.6199333 L68.7188076,33.0033797 L62.3803002,33.0033797 C60.9530976,33.0033797 60.4160275,32.6503441 60.4160275,31.7960644 L60.4160275,23.4193774 L58.0064809,23.4193774 L58.0064809,31.7960644 L58.0068962,31.7960644 Z M44.4596866,31.8889028 L44.4596866,26.1312575 C44.4596866,24.6637449 45.478583,23.7724131 47.5172065,23.4934816 C47.7215672,23.4560132 47.9624804,23.4560132 48.1660104,23.4560132 L52.761636,23.4560132 C52.9838576,23.4560132 53.1882184,23.4560132 53.4291315,23.4934816 C55.4490634,23.7724131 56.4866513,24.6637449 56.4866513,26.1312575 L56.4866513,31.8889028 C56.4866513,33.0783165 56.0422082,33.709451 55.0411726,34.118273 L57.4320277,36.2731227 L54.6154209,36.2731227 L52.6877006,34.5454128 L50.7412887,34.6569854 L48.1655951,34.6569854 C47.7211519,34.6569854 47.2576018,34.6016155 46.7383925,34.4529908 C45.2011175,34.0437525 44.4596866,33.2265249 44.4596866,31.8889028 L44.4596866,31.8889028 Z M47.0727633,31.7411107 C47.0727633,31.8339491 47.0914548,31.907637 47.1101463,32.001308 C47.2584325,32.6694946 47.8881296,33.0412644 48.8330906,33.0412644 L51.0391071,33.0412644 L49.0191752,31.2207162 L51.8357819,31.2207162 L53.5961092,32.7998014 C53.9117885,32.6324425 54.1340101,32.3722452 54.2079455,32.0379438 C54.226637,31.9451054 54.226637,31.8714175 54.226637,31.7964807 L54.226637,26.2615643 C54.226637,26.2053617 54.226637,26.1316738 54.2079455,26.056737 C54.0596593,25.4256025 53.4299622,25.0729832 52.5028621,25.0729832 L48.8335059,25.0729832 C47.7585349,25.0729832 47.0731786,25.5371751 47.0731786,26.2615643 L47.0731786,31.7411107 L47.0727633,31.7411107 L47.0727633,31.7411107 Z M69.8311617,34.6203497 L70.1833933,34.6203497 L70.1833933,33.2827275 L70.6652195,33.2827275 L70.6652195,33.003796 L69.3493354,33.003796 L69.3493354,33.2827275 L69.8311617,33.2827275 L69.8311617,34.6203497 Z M72.5368653,34.6203497 L72.8517138,34.6203497 L72.8517138,33.003796 L72.3698876,33.003796 L71.9441359,34.1186893 L71.5183843,33.003796 L71.0178665,33.003796 L71.0178665,34.6203497 L71.3514066,34.6203497 L71.3514066,33.3943001 L71.8145413,34.6203497 L72.0554544,34.6203497 L72.5185891,33.3943001 L72.5372807,33.3943001 L72.5372807,34.6203497 L72.5368653,34.6203497 Z" id="Shape"></path>
                <path d="M1.46417029,19.5926041 L0.110903111,13.314148 L0.796674784,13.314148 L1.5750734,17.4377544 C1.66770034,17.8648942 1.74205112,18.2920341 1.79771036,18.7191739 L2.03862348,17.5489106 L3.02096752,13.3137317 L3.81764231,13.3137317 L4.55907322,16.49022 C4.7443271,17.2703955 4.87392175,18.0131026 4.96654869,18.7191739 C5.02220793,18.3107683 5.11483488,17.84616 5.22615336,17.344916 L6.02282814,13.314148 L6.72729135,13.314148 L5.30050413,19.5926041 L4.65170016,19.5926041 L3.55845301,14.8187127 L3.39147529,14.0755893 C3.35450759,14.3541044 3.29884835,14.5959838 3.24318911,14.8187127 L2.14952659,19.5926041 L1.46417029,19.5926041 Z M7.15387373,16.5464226 C7.15387373,15.4689977 7.39478685,14.6517701 7.85792157,14.0755893 C8.32147165,13.4998248 8.91420102,13.2213096 9.61866422,13.2213096 C10.0631074,13.2213096 10.4896898,13.3328822 10.8601976,13.5926631 C11.2307053,13.8524441 11.5272777,14.224214 11.7499147,14.7071401 C11.9538601,15.2083841 12.0651786,15.7841487 12.0651786,16.4714858 C12.0651786,17.400286 11.8612331,18.1434094 11.4346507,18.7374918 C10.971516,19.3877768 10.3600951,19.7033441 9.61866422,19.7033441 C8.85854178,19.7033441 8.24712088,19.3690426 7.78398616,18.7187576 C7.35740378,18.1067736 7.15387373,17.3823844 7.15387373,16.5464226 L7.15387373,16.5464226 Z M7.85792157,16.5464226 C7.85792157,17.3265981 8.02448392,17.9210968 8.35843936,18.3482367 C8.71067096,18.7753765 9.11814644,18.9985217 9.59997269,18.9985217 C10.1004905,18.9985217 10.5266575,18.7753765 10.8601976,18.3482367 C11.1937376,17.9210968 11.3607153,17.289546 11.3607153,16.4535842 C11.3607153,15.8965539 11.2867799,15.4319456 11.1011107,15.0052221 C10.971516,14.6709206 10.7675706,14.4107234 10.507966,14.2250466 C10.2518742,14.0309806 9.93929664,13.9265503 9.61824886,13.9277862 C9.09903953,13.9277862 8.67287252,14.1317919 8.35802399,14.5593481 C8.02448392,14.9860716 7.85792157,15.6546745 7.85792157,16.5464226 L7.85792157,16.5464226 Z M12.9170972,19.5926041 L12.9170972,13.314148 L15.1966338,13.314148 C15.6597685,13.314148 16.0120001,13.3699343 16.2346371,13.4998248 C16.4755502,13.6113973 16.6608041,13.7970741 16.7903988,14.0755893 C16.9386849,14.3541044 17.0130357,14.670088 17.0130357,15.0227074 C17.0130357,15.5060498 16.9017172,15.8774034 16.6425279,16.1746527 C16.4011994,16.4719021 16.0493832,16.6575789 15.567557,16.7504172 C15.7715024,16.8619898 15.901097,16.9735624 16.0124155,17.0847187 C16.2163609,17.3261818 16.3833386,17.586379 16.549901,17.8832121 L17.4392027,19.5921878 L16.5868687,19.5921878 L15.901097,18.2916177 C15.6232162,17.7899574 15.4379623,17.4373381 15.2896761,17.2699792 C15.1600815,17.0843024 15.0300715,16.9539956 14.9004768,16.8982093 C14.7708822,16.842423 14.6039045,16.8053709 14.3816829,16.8053709 L13.6032842,16.8053709 L13.6032842,19.5917715 L12.9170972,19.5917715 L12.9170972,19.5926041 L12.9170972,19.5926041 Z M13.6028689,16.0818143 L15.0483476,16.0818143 C15.3631962,16.0818143 15.6041093,16.0447622 15.771087,15.9702417 C15.9376494,15.8961376 16.067244,15.7658308 16.1785625,15.6172061 C16.2711894,15.4498472 16.3081571,15.2454362 16.3081571,15.0227074 C16.3081571,14.7071401 16.2155302,14.465677 16.0302763,14.2800003 C15.8450224,14.0943235 15.5854178,14.0014851 15.21491,14.0014851 L13.6024535,14.0014851 L13.6024535,16.0818143 L13.6028689,16.0818143 Z M18.0693152,19.5926041 L18.0693152,13.314148 L18.7550868,13.314148 L18.7550868,16.43485 L21.2942281,13.314148 L22.2204975,13.314148 L20.0522794,15.8590855 L22.3131245,19.5926041 L21.4051312,19.5926041 L19.5891447,16.43485 L18.7550868,17.4194365 L18.7550868,19.5926041 L18.0693152,19.5926041 L18.0693152,19.5926041 Z M22.6283884,17.5680612 L23.2771923,17.5122749 C23.31416,17.8465763 23.3885108,18.1250915 23.5181055,18.3107683 C23.6294239,18.5151792 23.8146778,18.6638039 24.0368994,18.7749602 C24.2595364,18.9048507 24.5187257,18.960637 24.7970219,18.960637 C25.2044973,18.960637 25.5010697,18.8490644 25.7237067,18.6638039 C25.9459283,18.4593929 26.0572467,18.1991957 26.0572467,17.8836284 C26.0572467,17.6979516 26.020279,17.549327 25.9459283,17.4007023 C25.8719929,17.2708118 25.7419828,17.1592392 25.5750051,17.0664008 C25.4084428,16.9735624 25.0562112,16.843672 24.5187257,16.6950473 C24.0368994,16.5464226 23.6846678,16.3977979 23.4807224,16.2491732 C23.2743847,16.1166708 23.1078438,15.9304674 22.9988961,15.7104608 C22.8875777,15.4873156 22.8319184,15.2275346 22.8319184,14.9490195 C22.8319184,14.4286249 22.9988961,14.0202193 23.3137447,13.7042357 C23.6472847,13.3699343 24.0921433,13.2213096 24.647905,13.2213096 C25.0184127,13.2213096 25.3519528,13.2954138 25.6485252,13.4440385 C25.926406,13.5926631 26.1490429,13.815392 26.3156053,14.0943235 C26.4775965,14.403447 26.560383,14.7480811 26.5565184,15.0972279 L25.9077145,15.1530141 C25.8890229,14.7446085 25.7594283,14.4473591 25.5554829,14.2429482 C25.3328459,14.0385372 25.0549651,13.9456988 24.6661811,13.9456988 C24.2765664,13.9456988 23.9804094,14.0385372 23.7947402,14.2058961 C23.5908904,14.366868 23.4743025,14.6144505 23.4798917,14.874499 C23.4798917,15.1346963 23.5542424,15.320373 23.7025286,15.4689977 C23.8503994,15.5988882 24.1843549,15.7475129 24.7031488,15.8961376 C25.2219428,16.026028 25.5741744,16.1563348 25.7781198,16.2491732 C26.0933837,16.4161158 26.3338815,16.6205268 26.4821676,16.880724 C26.6491454,17.1409213 26.7231208,17.4564886 26.7231208,17.8095242 C26.7252927,18.1548681 26.6356861,18.4945699 26.4634761,18.7936944 C26.2964984,19.0909438 26.0742768,19.3140889 25.7777044,19.4622973 C25.4998236,19.6292399 25.147592,19.7037604 24.7397012,19.7037604 C24.1095887,19.7037604 23.5907948,19.5180836 23.220287,19.1279959 C22.8497792,18.7379081 22.6466645,18.2179299 22.6283884,17.5680612 L22.6283884,17.5680612 Z M30.7454992,19.5926041 L29.3926474,13.314148 L30.0784191,13.314148 L30.8568177,17.4377544 C30.9494447,17.8648942 31.0233801,18.2920341 31.0794547,18.7191739 L31.3203678,17.5489106 L32.3022965,13.3137317 L33.0993866,13.3137317 L33.8404022,16.49022 C34.0145552,17.2256722 34.1507001,17.9696474 34.248293,18.7191739 C34.3039522,18.3107683 34.3965792,17.84616 34.4892061,17.344916 L35.3045725,13.314148 L36.0086203,13.314148 L34.5818331,19.5926041 L33.9330291,19.5926041 L32.8393666,14.8187127 L32.6728042,14.0755893 C32.6358365,14.3541044 32.5801773,14.5959838 32.5245181,14.8187127 L31.4312709,19.5926041 L30.7454992,19.5926041 Z M36.7500512,19.5926041 L36.7500512,13.314148 L37.4358229,13.314148 L37.4358229,19.5926041 L36.7500512,19.5926041 Z M39.9375811,19.5926041 L39.9375811,14.0572714 L38.2511892,14.0572714 L38.2511892,13.314148 L42.3097446,13.314148 L42.3097446,14.0572714 L40.605492,14.0572714 L40.605492,19.5926041 L39.9375811,19.5926041 Z M42.9776555,19.5926041 L42.9776555,13.314148 L43.6630118,13.314148 L43.6630118,15.8961376 L46.3313324,15.8961376 L46.3313324,13.314148 L47.0175194,13.314148 L47.0175194,19.5926041 L46.3313324,19.5926041 L46.3313324,16.639261 L43.6630118,16.639261 L43.6630118,19.5926041 L42.9776555,19.5926041 Z" id="Shape"></path>
            </g>
        </g>
    </g>
</svg>