<?xml version="1.0" encoding="UTF-8"?>
<svg width="89px" height="35px" viewBox="0 0 89 35" version="1.1" xmlns="http://www.w3.org/2000/svg" xmlns:xlink="http://www.w3.org/1999/xlink">
    <title>parseplatform-ar21</title>
    <g id="Page-1" stroke="none" stroke-width="1" fill="none" fill-rule="evenodd" fill-opacity="0.85">
        <g id="App-Development" transform="translate(-317.000000, -5471.000000)" fill="#000000" fill-rule="nonzero">
            <g id="parseplatform-ar21" transform="translate(317.000000, 5471.000000)">
                <path d="M88.4392451,23.7249304 L88.4392451,21.7575209 C87.4604811,22.2800836 86.3781652,22.4916435 85.4521728,22.4916435 C83.5573733,22.4916435 82.2480399,21.5576602 82.1594234,19.4303621 L88.8853145,19.4303621 C88.9647092,18.8859535 89.0029812,18.3365519 88.999819,17.7866295 C88.999819,15.4077994 87.5759812,13.594429 85.032987,13.5788301 C81.9304146,13.5534819 79.9848348,15.7694986 79.9848348,19.1807799 L79.9848348,19.2295265 C79.9848348,22.4536212 82.1076475,24.3576602 85.2619958,24.3576602 C86.3174281,24.3449861 87.512257,24.1587744 88.4402408,23.7239554 M84.9553231,15.2830084 C86.3154367,15.2830084 86.9895193,16.2169916 86.9895193,17.6618384 L86.9895193,17.7739554 L82.2978244,17.7739554 C82.6025058,16.155571 83.532481,15.2839833 84.9563188,15.2839833 M74.6827815,19.7033426 L74.9117904,19.8008357 C76.4501326,20.3487465 76.8065899,20.6724234 76.8065899,21.3568245 C76.8065899,22.1533426 76.1962314,22.5891365 74.9117904,22.5891365 C73.8822461,22.5891365 72.6744732,22.2654596 71.4537563,21.6922006 L71.4537563,23.7590529 C72.4833006,24.1451253 73.7418537,24.3566852 74.8231739,24.3566852 C77.5314528,24.3566852 78.9174543,23.0892758 78.9174543,21.3188022 C78.9174543,19.7628134 78.1676992,18.8034819 75.930382,18.0196379 L75.7013731,17.9221448 C74.0086988,17.3245125 73.6671769,16.9881616 73.6671769,16.3915042 C73.6671769,15.7314763 74.2267551,15.245961 75.447472,15.245961 C76.4013437,15.245961 77.3671638,15.5696379 78.409652,16.0424791 L78.409652,14.112117 C77.5195045,13.7884401 76.5656327,13.5642061 75.5221488,13.5642061 C73.132491,13.5642061 71.631985,14.8462396 71.631985,16.6518106 C71.631985,18.0947075 72.3817401,18.8805014 74.6957255,19.7013928 M66.660501,17.1119777 C67.3345836,16.1038997 68.3004037,15.5559889 69.4832843,15.5559889 C69.8775778,15.5559889 70.3226516,15.6047354 70.653221,15.7178273 L70.653221,13.8625348 C70.2760766,13.7388769 69.8810118,13.6756676 69.4832843,13.6753482 C68.2486278,13.6753482 67.3345836,14.1979109 66.496212,15.2566852 L66.3946516,13.8001393 L64.5765202,13.8001393 L64.5765202,24.1344011 L66.6376001,24.1344011 L66.6376001,17.1100279 L66.660501,17.1119777 Z M60.7859255,24.1577994 L62.6040568,24.1577994 L62.6040568,17.1870474 C62.6040568,14.7341226 61.3455037,13.5505571 58.7258413,13.5505571 C57.4672882,13.5505571 56.1569591,13.9366295 55.1781951,14.447493 L55.1781951,16.4392758 C56.3481317,15.7548747 57.6076806,15.343454 58.6113368,15.343454 C60.0102824,15.343454 60.5688649,15.9410864 60.5688649,17.0369081 L60.5688649,17.8587744 C57.6953013,17.9708914 55.9667822,18.4310585 55.0766346,19.3016713 C54.4413839,19.8993036 54.1227629,20.7445682 54.1227629,21.5927577 C54.1227629,23.3729805 55.4569885,24.3810585 57.2761155,24.3810585 C58.4460522,24.3810585 59.6159888,23.9208914 60.6455331,22.9615599 L60.7859255,24.1577994 Z M57.6992841,22.6759053 C56.8091366,22.6759053 56.1987781,22.2157382 56.1987781,21.4435933 C56.1987781,20.2346797 57.2283224,19.5639276 60.5469597,19.4518106 L60.5469597,21.2573816 C59.7703209,22.1036212 58.8542854,22.6768802 57.6992841,22.6768802 M45.8754563,17.821727 L45.8754563,12.4937326 L48.5837352,12.4937326 C50.4277545,12.4937326 51.4712384,13.3399721 51.4712384,15.120195 L51.4712384,15.1455432 C51.4712384,16.9511142 50.4158062,17.7973538 48.5837352,17.7973538 L45.8754563,17.7973538 L45.8754563,17.821727 Z M43.7008677,24.1587744 L45.8754563,24.1587744 L45.8754563,19.7267409 L48.4184505,19.7267409 C51.6863076,19.7267409 53.5960425,18.0332869 53.5960425,15.1699164 L53.5960425,15.1445682 C53.5960425,12.3172702 51.6385144,10.6130919 48.4184505,10.6130919 L43.7018633,10.6130919 L43.7008677,24.1587744 Z M20.8398077,21.7584958 L12.0528367,21.7584958 C10.7723784,21.7584958 10.0276017,22.5316156 10.0276017,23.6401114 C10.0276017,24.6316156 10.7126369,25.3316156 11.6953837,25.3316156 C12.8424195,25.3316156 13.4876271,24.5584958 13.5573254,23.45 L16.1043024,23.45 C15.9698842,26.1622563 14.2423607,27.6061281 11.665513,27.6061281 C9.25295427,27.6061281 7.45075399,26.0023677 7.45075399,23.6089136 C7.45075399,21.1150418 9.34256644,19.3796657 12.187255,19.3796657 L20.8856095,19.3796657 C23.8199102,19.3796657 26.0632015,17.2640669 26.0632015,14.4211699 C26.0632015,11.5480501 24.0678372,9.52116992 21.2241443,9.52116992 C18.4093265,9.52116992 16.1301904,11.5334262 16.1301904,15.2537604 L16.1301904,17.6891365 L13.5533427,17.6891365 L13.5533427,15.2537604 C13.5533427,10.3245125 16.7853549,7.13064067 21.2679547,7.13064067 C25.5424552,7.13064067 28.6561792,10.1334262 28.6561792,14.3938719 C28.6858509,18.6523677 25.3502869,21.7584958 20.851756,21.7584958 M17.8726492,35 C27.8663974,35 35.7452984,27.2561281 35.7452984,17.5 C35.7452984,7.74387187 27.8663974,0 17.8726492,0 C7.87890102,0 0,7.77311978 0,17.5 C0,27.2561281 7.87890102,35 17.8726492,35" id="Shape"></path>
            </g>
        </g>
    </g>
</svg>