<?xml version="1.0" encoding="UTF-8"?>
<svg width="119px" height="36px" viewBox="0 0 119 36" version="1.1" xmlns="http://www.w3.org/2000/svg" xmlns:xlink="http://www.w3.org/1999/xlink">
    <title>photoshop</title>
    <g id="Page-1" stroke="none" stroke-width="1" fill="none" fill-rule="evenodd">
        <g id="App-Development" transform="translate(-551.000000, -5536.000000)">
            <g id="photoshop" transform="translate(551.000000, 5536.000000)">
                <g id="Adobe_Photoshop_CC_icon" fill-rule="nonzero">
                    <g id="Surfaces" fill="#000000" fill-opacity="0.85">
                        <g id="Outline_no_shadow">
                            <path d="M6.55208333,0 L30.4479167,0 C34.0708333,0 37,2.92307692 37,6.53846154 L37,29.4615385 C37,33.0769231 34.0708333,36 30.4479167,36 L6.55208333,36 C2.92916667,36 0,33.0769231 0,29.4615385 L0,6.53846154 C0,2.92307692 2.92916667,0 6.55208333,0 Z" id="Path"></path>
                        </g>
                    </g>
                    <g id="Ps" transform="translate(8.325000, 9.153846)" fill="#FFFFFF">
                        <path d="M0,16.0923077 L0,0.261538462 C0,0.153846154 0.04625,0.0923076923 0.154166667,0.0923076923 C0.41625,0.0923076923 0.662916667,0.0923076923 1.0175,0.0769230769 C1.3875,0.0615384615 1.77291667,0.0615384615 2.18916667,0.0461538462 C2.60541667,0.0307692308 3.0525,0.0307692308 3.53041667,0.0153846154 C4.00833333,0 4.47083333,0 4.93333333,0 C6.1975,0 7.24583333,0.153846154 8.10916667,0.476923077 C8.88,0.738461538 9.58916667,1.16923077 10.175,1.73846154 C10.6683333,2.23076923 11.05375,2.83076923 11.3004167,3.49230769 C11.5316667,4.13846154 11.655,4.8 11.655,5.49230769 C11.655,6.81538462 11.3466667,7.90769231 10.73,8.76923077 C10.1133333,9.63076923 9.25,10.2769231 8.24791667,10.6461538 C7.19958333,11.0307692 6.04333333,11.1692308 4.77916667,11.1692308 C4.40916667,11.1692308 4.1625,11.1692308 4.00833333,11.1538462 C3.85416667,11.1384615 3.63833333,11.1384615 3.34541667,11.1384615 L3.34541667,16.0769231 C3.36083333,16.1846154 3.28375,16.2769231 3.17583333,16.2923077 C3.16041667,16.2923077 3.145,16.2923077 3.11416667,16.2923077 L0.185,16.2923077 C0.0616666667,16.2923077 0,16.2307692 0,16.0923077 Z M3.36083333,3.06153846 L3.36083333,8.23076923 C3.57666667,8.24615385 3.77708333,8.26153846 3.96208333,8.26153846 L4.77916667,8.26153846 C5.38041667,8.26153846 5.98166667,8.16923077 6.55208333,7.98461538 C7.04541667,7.84615385 7.47708333,7.55384615 7.81625,7.16923077 C8.14,6.78461538 8.29416667,6.26153846 8.29416667,5.58461538 C8.30958333,5.10769231 8.18625,4.63076923 7.93958333,4.21538462 C7.6775,3.81538462 7.3075,3.50769231 6.86041667,3.33846154 C6.29,3.10769231 5.67333333,3.01538462 5.04125,3.03076923 C4.64041667,3.03076923 4.28583333,3.03076923 3.99291667,3.04615385 C3.68458333,3.03076923 3.46875,3.04615385 3.36083333,3.06153846 L3.36083333,3.06153846 Z" id="Shape"></path>
                        <path d="M21.275,7.29230769 C20.8125,7.04615385 20.3191667,6.87692308 19.795,6.76923077 C19.2245833,6.64615385 18.6541667,6.56923077 18.0683333,6.56923077 C17.76,6.55384615 17.43625,6.6 17.1433333,6.67692308 C16.9429167,6.72307692 16.7733333,6.83076923 16.6654167,6.98461538 C16.5883333,7.10769231 16.5420833,7.26153846 16.5420833,7.4 C16.5420833,7.53846154 16.60375,7.67692308 16.69625,7.8 C16.835,7.96923077 17.02,8.10769231 17.2204167,8.21538462 C17.575,8.4 17.945,8.56923077 18.315,8.72307692 C19.1475,9 19.9491667,9.38461538 20.6891667,9.84615385 C21.1979167,10.1692308 21.6141667,10.6 21.9070833,11.1230769 C22.15375,11.6153846 22.2770833,12.1538462 22.2616667,12.7076923 C22.2770833,13.4307692 22.06125,14.1538462 21.6604167,14.7538462 C21.22875,15.3692308 20.6275,15.8461538 19.93375,16.1230769 C19.1783333,16.4461538 18.2533333,16.6153846 17.1433333,16.6153846 C16.4341667,16.6153846 15.7404167,16.5538462 15.0466667,16.4153846 C14.5070833,16.3230769 13.9675,16.1538462 13.4741667,15.9230769 C13.36625,15.8615385 13.2891667,15.7538462 13.3045833,15.6307692 L13.3045833,12.9538462 C13.3045833,12.9076923 13.32,12.8461538 13.36625,12.8153846 C13.4125,12.7846154 13.45875,12.8 13.505,12.8307692 C14.10625,13.1846154 14.7383333,13.4307692 15.4166667,13.5846154 C16.0025,13.7384615 16.6191667,13.8153846 17.2358333,13.8153846 C17.8216667,13.8153846 18.2379167,13.7384615 18.5154167,13.6 C18.7620833,13.4923077 18.9316667,13.2307692 18.9316667,12.9538462 C18.9316667,12.7384615 18.8083333,12.5384615 18.5616667,12.3384615 C18.315,12.1384615 17.80625,11.9076923 17.0508333,11.6153846 C16.2645833,11.3384615 15.54,10.9692308 14.8616667,10.5076923 C14.38375,10.1692308 13.9829167,9.72307692 13.69,9.2 C13.4433333,8.70769231 13.32,8.16923077 13.3354167,7.63076923 C13.3354167,6.96923077 13.5204167,6.33846154 13.8595833,5.76923077 C14.245,5.15384615 14.8154167,4.66153846 15.4783333,4.35384615 C16.2029167,3.98461538 17.1125,3.81538462 18.2070833,3.81538462 C18.8391667,3.81538462 19.4866667,3.86153846 20.11875,3.95384615 C20.58125,4.01538462 21.0283333,4.13846154 21.4445833,4.30769231 C21.50625,4.32307692 21.5679167,4.38461538 21.59875,4.44615385 C21.6141667,4.50769231 21.6295833,4.56923077 21.6295833,4.63076923 L21.6295833,7.13846154 C21.6295833,7.2 21.59875,7.26153846 21.5525,7.29230769 C21.41375,7.32307692 21.3366667,7.32307692 21.275,7.29230769 Z" id="Path"></path>
                    </g>
                </g>
                <text id="Adobe" font-family="AvenirNext-Regular, Avenir Next" font-size="11" font-weight="normal" letter-spacing="-0.510714286" fill="#000000" fill-opacity="0.85">
                    <tspan x="45" y="12">Adobe</tspan>
                </text>
                <text id="Photoshop" font-family="AvenirNext-DemiBold, Avenir Next" font-size="16" font-weight="500" letter-spacing="-0.742857143" fill="#000000" fill-opacity="0.85">
                    <tspan x="45" y="30">Photoshop</tspan>
                </text>
            </g>
        </g>
    </g>
</svg>