<?xml version="1.0" encoding="UTF-8"?>
<svg width="114px" height="32px" viewBox="0 0 114 32" version="1.1" xmlns="http://www.w3.org/2000/svg" xmlns:xlink="http://www.w3.org/1999/xlink">
    <title>postman</title>
    <g id="Page-1" stroke="none" stroke-width="1" fill="none" fill-rule="evenodd">
        <g id="App-Development" transform="translate(-967.000000, -5871.000000)" fill-rule="nonzero">
            <g id="postman" transform="translate(967.000000, 5871.000000)">
                <path d="M36.348267,20.789578 L36.348267,13.6555756 C36.3515466,13.5752832 36.3849683,13.499185 36.4418557,13.442482 C36.5168248,13.380781 36.6111742,13.3475993 36.7082237,13.3488032 L38.7064974,13.3488032 C39.3009401,13.3220378 39.8850983,13.5166015 40.3448144,13.8944051 C40.7767624,14.3473576 41.000964,14.9619319 40.9577692,15.5878299 L40.9577692,15.6804793 C41.0092578,16.3258007 40.7811162,16.9621372 40.3314446,17.4274349 C39.8686432,17.8124445 39.2803711,18.0121554 38.6797577,17.9874489 L37.2399311,17.9874489 L37.2399311,20.7875191 C37.2440449,20.8832568 37.1926225,20.9728179 37.1062329,21.0139954 C36.9149543,21.1349881 36.6711869,21.1349881 36.4799083,21.0139954 C36.3976325,20.9697296 36.3462101,20.8822274 36.3462101,20.7875191 L36.348267,20.789578 Z M37.2409595,17.2966963 L38.6807862,17.2966963 C39.0613118,17.3244911 39.4336098,17.1886053 39.7061485,16.9230104 C39.9714879,16.6080025 40.1051861,16.2024041 40.0794749,15.7906291 L40.0794749,15.6568022 C40.1048322,15.2491284 39.9709746,14.847538 39.7061485,14.5367741 C39.4336098,14.2711793 39.0602834,14.1249991 38.6807862,14.1630883 L37.2409595,14.1630883 L37.2409595,17.2966963 Z M44.0595672,18.8562942 L44.0595672,15.6568022 C44.0080786,15.0114808 44.2362202,14.3751443 44.6858918,13.9098467 C45.6666041,13.1660225 47.0219231,13.1660225 48.0026354,13.9098467 C48.4582377,14.3710347 48.6875815,15.0113449 48.6299884,15.6568022 L48.6299884,18.8562942 C48.6910471,19.5068484 48.4618013,20.151163 48.0036638,20.6166325 C47.0229516,21.3604567 45.6676326,21.3604567 44.6869203,20.6166325 C44.2347628,20.1474319 44.006527,19.5059559 44.0605957,18.8562942 L44.0595672,18.8562942 Z M44.9522598,18.8562942 C44.9522598,19.8548487 45.4181465,20.3633908 46.2840994,20.3633908 C46.6677104,20.3942739 47.0472076,20.2604471 47.312547,19.989705 C47.5799314,19.6757318 47.7096825,19.267179 47.6725037,18.8562942 L47.6725037,15.6568022 C47.7107734,15.2498762 47.5806672,14.8450424 47.312547,14.5367741 C47.0369231,14.2691204 46.6574259,14.1311757 46.2840994,14.1630883 C45.3512974,14.1630883 44.9522598,14.6572183 44.9522598,15.6557728 L44.9522598,18.8562942 Z M51.8264036,20.0154409 C51.8248615,19.8933485 51.8676149,19.7748405 51.946732,19.6819031 C52.0012397,19.5913126 52.0948285,19.5326347 52.1997301,19.5223403 C52.2964042,19.5388113 52.3848507,19.5861655 52.4527282,19.6561672 L52.7592056,19.9495569 C52.8990745,20.0864721 53.0677399,20.1914747 53.2528605,20.2563293 C53.504797,20.347126 53.7708352,20.3924379 54.0385945,20.3901562 C54.4276569,20.4042364 54.809361,20.2814927 55.117436,20.0432357 C55.3879177,19.7961707 55.530872,19.4358676 55.5041323,19.0704172 C55.5247013,18.7183496 55.39306,18.373488 55.1441757,18.1233347 C54.9014965,17.8735793 54.6054326,17.682114 54.2782228,17.5633206 L53.1592718,17.16184 C52.819884,17.0146304 52.5216342,16.7860952 52.2933189,16.4947644 C52.0382639,16.1632855 51.9107364,15.7535694 51.9333622,15.3345883 C51.9230777,14.9979622 51.997126,14.663395 52.1462509,14.3617698 C52.2696646,14.1074987 52.4650696,13.8944051 52.7057264,13.748225 C52.9320849,13.6078828 53.1792362,13.5043408 53.4379811,13.4414526 C53.7078867,13.3722733 53.9852175,13.3363204 54.2638245,13.3343911 C54.6896018,13.3343911 55.1122938,13.4013045 55.5154453,13.5341019 C55.9185967,13.6668994 56.1150302,13.8408743 56.1150302,14.0405852 C56.1140866,14.1559382 56.0766407,14.2680234 56.0080717,14.3607403 C55.9566493,14.4678018 55.8476338,14.5357447 55.7283339,14.5336858 C55.5678484,14.4854623 55.411944,14.4231094 55.2624471,14.3473576 C54.9508275,14.2155896 54.6145251,14.1476467 54.2771943,14.1476467 C53.9136037,14.1279689 53.5522895,14.2160569 53.2384622,14.4008884 C52.9673926,14.5914876 52.8156475,14.9101077 52.8383961,15.2409094 C52.8281116,15.5466524 52.9546107,15.8400421 53.1849829,16.0407824 C53.4472371,16.2518171 53.7444585,16.4144683 54.0643057,16.5205004 L55.0927533,16.921981 C55.8718549,17.3011761 56.3491962,18.1096685 56.305293,18.975709 C56.3484878,19.5933715 56.1201725,20.1966219 55.67794,20.6289857 C55.200975,21.0156841 54.599396,21.2148172 53.9861436,21.1889998 C53.4309166,21.2058485 52.8820217,21.0671557 52.4013059,20.7885485 C52.0002113,20.5208948 51.8150907,20.2552999 51.8150907,20.0164704 L51.8264036,20.0154409 Z M59.0193663,13.7492544 C59.0149096,13.6475476 59.0482511,13.5477937 59.112955,13.4692474 C59.1629912,13.3931833 59.2482341,13.347806 59.3392135,13.3488032 L63.6545797,13.3488032 C63.7491969,13.3457149 63.8397003,13.3899807 63.894208,13.4692474 C63.9484491,13.5523943 63.9764037,13.6499707 63.9744269,13.7492544 C63.9754554,13.8480804 63.9476873,13.9448475 63.894208,14.0292614 C63.8407287,14.1136753 63.7502253,14.1610294 63.6545797,14.1630883 L61.9627834,14.1630883 L61.9627834,20.829726 C61.9638118,20.9244343 61.911361,21.0119365 61.8290852,21.0562023 C61.6378066,21.1771951 61.3940392,21.1771951 61.2027606,21.0562023 C61.1204848,21.0119365 61.0690624,20.9244343 61.0690624,20.829726 L61.0690624,14.1630883 L59.3371566,14.1630883 C59.2461772,14.1640855 59.1609343,14.1187082 59.1108981,14.0426441 C59.0444946,13.958994 59.0069665,13.8560537 59.0039396,13.7492544 L59.0193663,13.7492544 Z M66.9846931,20.7885485 L66.9846931,13.8017557 C66.9641241,13.698812 66.9888069,13.5927799 67.0484568,13.5073366 C67.1081068,13.4218933 67.2006671,13.3632153 67.3055688,13.3488032 L67.4392669,13.3488032 C67.7066633,13.3488032 67.9720028,13.5341019 68.144782,13.9088172 L69.8108672,17.1083092 L71.4892937,13.9088172 C71.6888125,13.5351314 71.9284408,13.3488032 72.1948087,13.3488032 C72.404612,13.3179201 72.6000171,13.4599824 72.6339559,13.6679288 C72.6473257,13.7019003 72.6473257,13.7399895 72.6339559,13.7749903 L72.6339559,20.7617832 C72.6442403,20.8585503 72.5969318,20.9511997 72.5136275,21.0016421 C72.307938,21.1087036 72.0816795,21.1087036 71.8862744,21.0016421 C71.7957711,20.9573763 71.7422918,20.8616386 71.7525763,20.7617832 L71.7525763,15.2151735 L70.1636247,18.2551027 C70.1080885,18.40643 69.9651343,18.5073149 69.803668,18.5083443 C69.6535147,18.5021677 69.5239303,18.4002534 69.4848493,18.2551027 L67.8187641,15.1616428 L67.8187641,20.7885485 C67.8293474,20.8816925 67.7815068,20.9717358 67.6984357,21.0150248 C67.6058755,21.0767911 67.5030307,21.1128214 67.3919584,21.1220863 C67.2829429,21.1241452 67.1759844,21.0912032 67.085481,21.0294369 C67.0074924,20.9767412 66.9702265,20.881232 66.9918922,20.789578 L66.9846931,20.7885485 Z M75.6822746,20.7350178 C75.6761039,20.7082524 75.6761039,20.681487 75.6822746,20.6547217 L77.8399577,13.6679288 C77.9068068,13.4548353 78.079586,13.3488032 78.3726936,13.3488032 C78.6658012,13.3488032 78.8519502,13.4558647 78.9054294,13.6679288 L81.103222,20.6804576 C81.0929375,20.7936957 81.0271169,20.8914923 80.9304428,20.9481114 C80.8131998,21.0160542 80.6795016,21.053114 80.5437465,21.0551729 C80.4028492,21.0757616 80.2681225,20.9903183 80.2249277,20.855462 L79.7724108,19.3627775 L76.9750333,19.3627775 L76.5091465,20.9223754 C76.4700655,21.0613495 76.3312251,21.1488517 76.1903277,21.1220863 C76.0628002,21.1200274 75.9383581,21.0829677 75.8303711,21.0150248 C75.7234125,20.9635529 75.655535,20.8544325 75.6575464,20.7350178 L75.6822746,20.7350178 Z M77.2146616,18.6020231 L79.5852333,18.6020231 L78.3860634,14.6026582 L77.2146616,18.6020231 Z M84.2081054,20.7885485 L84.2081054,13.6545461 C84.2081054,13.4548353 84.3418036,13.3477093 84.6472525,13.3477093 C84.784036,13.3457149 84.9167058,13.393069 85.020579,13.4816006 C85.1501634,13.6020448 85.2540366,13.7471955 85.3270564,13.9077878 L88.0010202,19.0807116 L88.0010202,13.6555756 C87.9999917,13.5608673 88.0524426,13.4733651 88.1347184,13.4290993 C88.3404079,13.3220378 88.5666664,13.3220378 88.7620714,13.4290993 C88.8443472,13.4733651 88.8957845,13.5608673 88.8957845,13.6555756 L88.8957845,20.789578 C88.8967981,20.8842862 88.8443472,20.9717884 88.7620714,21.0160542 C88.6725965,21.0778205 88.5646095,21.1117919 88.455594,21.1087036 C88.200539,21.0953209 87.9763374,20.9336992 87.8827487,20.6969286 L85.1265091,15.364442 L85.1265091,20.789578 C85.1370924,20.882722 85.0892517,20.9727653 85.0061807,21.0160542 C84.8149021,21.137047 84.5711347,21.137047 84.3798561,21.0160542 C84.2770114,20.9903183 84.2101623,20.8925217 84.2204467,20.789578 L84.2081054,20.7885485 Z" id="Shape" fill="#FFFFFF"></path>
                <path d="M28.6349098,6.22097741 C24.6836141,1.09849604 18.0377856,-1.1353835 11.7992223,0.559070746 C5.56065907,2.253525 0.95321374,7.54586357 0.130455645,13.9644069 C-0.69230245,20.3829501 2.42800762,26.6676665 8.03921783,29.8836295 C13.650428,33.0995925 20.6428434,32.6178157 25.7593703,28.6606577 C32.7528141,23.2581693 34.0178047,13.2129174 28.6369667,6.22200685 L28.6349098,6.22097741 Z" id="Path" fill-opacity="0.85" fill="#000000"></path>
                <path d="M21.3761266,10.1946065 L14.6367093,16.9940416 L12.7320243,15.0339925 C19.3655115,8.39412013 20.0309171,8.99428224 21.3894964,10.1956359 L21.3761266,10.1946065 Z" id="Path" fill="#FFFFFF"></path>
                <path d="M14.6356809,17.1813993 C14.5760309,17.1803698 14.5194663,17.1556633 14.4762715,17.1144858 L12.5582167,15.1945848 C12.4687417,15.091641 12.4687417,14.9547258 12.5582167,14.861047 C19.0847453,8.32823613 19.9908076,8.62265527 21.5365644,10.0226904 C21.5879868,10.0638679 21.6188402,10.1287224 21.6167833,10.1956359 C21.6270678,10.2615199 21.6013566,10.3274039 21.5499342,10.3685814 L14.810517,17.1144858 C14.7632084,17.1577222 14.7015015,17.1813993 14.6377378,17.1813993 L14.6356809,17.1813993 Z M13.0642129,15.0484046 L14.6356809,16.6213852 L21.0295397,10.2213718 C20.5722319,9.64865153 19.7582448,9.51086269 19.1382245,9.90121674 C17.9791641,10.4344654 16.1145885,12.007446 13.0642129,15.0484046 Z" id="Shape" fill="#252525"></path>
                <path d="M16.5671055,18.8748241 L14.730298,17.0094832 L21.4697153,10.3428455 C23.2797831,12.1165664 20.5903926,15.0761994 16.5681339,18.876883 L16.5671055,18.8748241 Z" id="Path" fill="#FFFFFF"></path>
                <path d="M16.5671055,19.114683 C16.508484,19.1095359 16.4519194,19.0868882 16.4076961,19.0477696 L14.5431206,17.2081647 C14.5153525,17.1402218 14.5153525,17.0640434 14.5431206,16.9950711 C14.5225516,16.9394814 14.5225516,16.8777152 14.5431206,16.8221256 L21.2825378,10.0762211 C21.3802403,9.98357175 21.5314221,9.98357175 21.6291247,10.0762211 C22.0713571,10.482849 22.3140708,11.0624223 22.2955587,11.661555 C22.2955587,13.4610119 20.2438057,15.7278334 16.754283,19.0343869 C16.7080028,19.0807116 16.646296,19.1085064 16.5815038,19.114683 L16.5671055,19.114683 Z M15.0758564,16.9816884 L16.5815038,18.488785 C19.2554676,15.9563686 21.7751642,13.3693919 21.8029323,11.6090537 C21.8173306,11.2353678 21.6939169,10.8699175 21.4563455,10.5827044 L15.0758564,16.9816884 Z" id="Shape" fill="#252525"></path>
                <path d="M12.7844751,15.0741406 L14.1163148,16.4072622 C14.1337984,16.4227038 14.1430544,16.444322 14.1430544,16.4669696 C14.1430544,16.4896172 14.13277,16.5122649 14.1163148,16.526677 L11.3189373,17.1268391 C11.2031951,17.1496383 11.0862011,17.093827 11.0309971,16.9894789 C10.9757932,16.8851308 10.995423,16.7569013 11.079309,16.6738866 L12.717626,15.0473752 C12.717626,15.0473752 12.7711053,15.0473752 12.797845,15.0741406 L12.7844751,15.0741406 Z" id="Path" fill="#FFFFFF"></path>
                <path d="M11.2397468,17.3955223 C11.05874,17.3934634 10.89316,17.2977257 10.8005997,17.1422806 C10.694474,16.9437414 10.7326636,16.6988402 10.8941884,16.5421185 L12.5191357,14.9022245 C12.6402649,14.7934634 12.8237837,14.7934634 12.944913,14.9022245 L14.2767526,16.2353461 C14.3559431,16.3104951 14.3867965,16.4237332 14.3569716,16.5287359 C14.3271466,16.6337385 14.2387001,16.7171229 14.1307131,16.7418294 L11.3333356,17.3419915 L11.2397468,17.3955223 Z M12.7309959,15.3675303 L11.2253486,16.8746269 L13.7162487,16.3413782 L12.7309959,15.3675303 Z" id="Shape" fill="#252525"></path>
                <path d="M24.9592381,6.44951255 C23.9955826,5.52095986 22.4827362,5.48184123 21.4625162,6.36098092 C20.4422961,7.24012061 20.2798014,8.74412891 21.0634785,9.83018555 C21.8471556,10.9162422 23.3342908,11.2199263 24.4830668,10.5302031 L22.672999,8.71839297 L24.9592381,6.44951255 Z" id="Path" fill="#FFFFFF"></path>
                <path d="M23.1604832,11.141689 C22.0291908,11.1272769 21.014113,10.4365243 20.5852503,9.38752739 C20.1563877,8.3385305 20.3939591,7.13511798 21.1899775,6.32803892 C22.2985888,5.23647672 24.0768852,5.23647672 25.1854965,6.32803892 C25.2367081,6.37107026 25.2662824,6.43457105 25.2662824,6.50149915 C25.2662824,6.56842725 25.2367081,6.63192804 25.1854965,6.67495938 L23.0278134,8.71530466 L24.6661305,10.3150506 C24.7198646,10.3665688 24.7448587,10.4412384 24.7329796,10.5147615 C24.724752,10.5868222 24.685671,10.6485884 24.626021,10.6877071 C24.1858295,10.9633525 23.679576,11.115197 23.1604832,11.1272769 L23.1604832,11.141689 Z M23.1604832,5.96876521 C22.2164787,5.9742923 21.3678395,6.54591776 21.0071957,7.41917428 C20.6465518,8.2924308 20.8442393,9.29700813 21.5087963,9.96813019 C22.1875717,10.6496179 23.2119056,10.845211 24.0932852,10.4622602 L22.5218172,8.88927961 C22.4703948,8.8481021 22.4415983,8.78633585 22.4415983,8.72251072 C22.4415983,8.65868559 22.4724517,8.5958899 22.5218172,8.55574183 L24.5992814,6.46289524 C24.1862531,6.14584137 23.6809772,5.97267473 23.1604832,5.96979464 L23.1604832,5.96876521 Z" id="Shape" fill="#252525"></path>
                <path d="M24.9993475,6.48863118 L22.7347059,8.75545272 L24.5447737,10.5672629 C24.7271285,10.4624301 24.8968984,10.3370525 25.0507699,10.193577 C26.0382227,9.14923931 26.0204783,7.5092581 25.0106604,6.48657231 L24.9993475,6.48863118 Z" id="Path" fill="#FFFFFF"></path>
                <path d="M24.4923228,10.7690326 C24.430616,10.7721209 24.3730229,10.7484439 24.3329135,10.7021192 L22.5228456,8.89030904 C22.4714233,8.84913154 22.4426267,8.78736529 22.4426267,8.72354016 C22.4426267,8.65971503 22.4734802,8.59691934 22.5228456,8.55677127 L24.7874873,6.33009779 C24.8317106,6.26318435 24.9067872,6.22303629 24.9870061,6.22303629 C25.0672251,6.22303629 25.1412733,6.26421379 25.186525,6.33009779 C25.7233018,6.85673335 26.0257713,7.57743109 26.0257713,8.32978028 C26.0257713,9.08212948 25.7233018,9.80282722 25.186525,10.3294628 C25.0302009,10.4962317 24.8502226,10.638294 24.6537891,10.7556499 C24.6044236,10.7803564 24.5468306,10.7865331 24.4943797,10.7690326 L24.4923228,10.7690326 Z M23.026785,8.71530466 L24.5324323,10.2224013 C24.6352771,10.1503406 24.734008,10.0700445 24.8255399,9.98254231 C25.268004,9.54089463 25.51699,8.94134574 25.5176857,8.31588288 C25.5180761,7.7564523 25.3143706,7.21613134 24.9448398,6.79643302 L23.026785,8.71530466 Z" id="Shape" fill="#252525"></path>
                <path d="M21.6558643,10.4756429 C21.2815094,10.1235753 20.699408,10.1235753 20.3240246,10.4756429 L14.2901225,16.5019705 L15.2877166,17.5149371 L21.6815755,11.9147966 C21.8783757,11.7261754 21.9885525,11.4645316 21.9860634,11.1918111 C21.9834889,10.9190907 21.8684737,10.6595414 21.6682057,10.4746135 L21.6558643,10.4756429 Z" id="Path" fill="#FFFFFF"></path>
                <path d="M15.2342374,17.754796 C15.1745874,17.7537666 15.1180228,17.7290601 15.074828,17.6878826 L14.0628355,16.674916 C13.9733606,16.5719722 13.9733606,16.435057 14.0628355,16.3413782 L20.0967377,10.341816 C20.4517636,9.98451624 20.9891639,9.88129056 21.4511037,10.0816648 C21.9130436,10.282039 22.2052675,10.7451281 22.1875717,11.2487505 C22.1742019,11.5853766 22.025077,11.9024434 21.7761927,12.1289197 L15.3823338,17.7290601 C15.3361048,17.7619733 15.2792102,17.7763024 15.2229244,17.7692081 L15.2342374,17.754796 Z M14.5287223,16.5019705 L15.1951564,17.169046 L21.455317,11.7130269 C21.6108009,11.5787888 21.7026355,11.3852273 21.7083151,11.1797782 C21.7165427,10.9738907 21.6332385,10.7731504 21.4820567,10.6341763 C21.191006,10.3438749 20.7210054,10.3438749 20.4299547,10.6341763 L14.5287223,16.5019705 Z" id="Shape" fill="#252525"></path>
                <path d="M9.61479958,23.3683191 C9.57965839,23.4156911 9.57965839,23.48051 9.61479958,23.5278819 L9.88219596,24.6880581 C9.90482181,24.8260027 9.83900117,24.9639473 9.71764435,25.0329197 C9.59628753,25.101892 9.44304883,25.0864504 9.33711873,24.9948305 L7.51265265,23.2447866 L13.199968,17.5108193 L15.1715021,17.5108193 L16.5033417,18.843941 C14.4258775,20.6629572 12.1087851,22.1875542 9.61685648,23.377584 L9.61479958,23.3683191 Z" id="Path" fill="#FFFFFF"></path>
                <path d="M9.49549966,25.3273388 C9.34431786,25.3242505 9.20136364,25.2624842 9.09440509,25.1543933 L7.3624993,23.4208204 C7.31107692,23.3796429 7.28228038,23.3178767 7.28228038,23.2540515 C7.28228038,23.1902264 7.31313381,23.1274307 7.3624993,23.0872826 L13.0909525,17.3533154 C13.1231458,17.3190432 13.1652021,17.2956561 13.2112809,17.2864019 L15.2095546,17.2864019 C15.260977,17.267872 15.3175416,17.267872 15.368964,17.2864019 L16.7008037,18.6195236 C16.7522261,18.6668777 16.7769088,18.7368795 16.7676528,18.8048223 C16.7697097,18.8717358 16.7398847,18.9365903 16.6874339,18.9777678 L16.5804753,19.0704172 C14.4940745,20.8115303 12.1986509,22.2850725 9.74746933,23.4568507 L10.0148657,24.5233481 C10.0560036,24.6921758 10.0169226,24.8702685 9.91202095,25.0071837 C9.80711929,25.1440989 9.64462457,25.2264539 9.46978847,25.2295422 L9.49549966,25.3273388 Z M7.87055242,23.2344922 L9.44202038,24.8342382 C9.47287381,24.8610036 9.51812551,24.8610036 9.54897894,24.8342382 C9.56954789,24.8064434 9.56954789,24.7683542 9.54897894,24.7415888 L9.28158256,23.5814127 C9.23838776,23.4094966 9.32272046,23.2314039 9.48110139,23.1552255 C11.8664951,21.9992697 14.1029203,20.5578135 16.1413282,18.8624708 L15.0388323,17.7681787 L13.2534473,17.7681787 L7.87055242,23.2344922 Z" id="Shape" fill="#252525"></path>
                <path d="M6.13761819,24.6067325 L7.46945785,23.2736108 L9.52121085,25.3273388 L6.25794656,25.1008625 C6.14339173,25.0912544 6.04779169,25.0094339 6.02051452,24.8976532 C5.99323735,24.7858725 6.04038817,24.6691502 6.13761819,24.6077619 L6.13761819,24.6067325 Z" id="Path" fill="#FFFFFF"></path>
                <path d="M9.56132031,25.5280791 L6.31142583,25.3016029 C6.11747423,25.2852452 5.95027339,25.1585496 5.88190703,24.9761372 C5.81354068,24.7937248 5.85623306,24.5882118 5.99157862,24.4481991 L7.32341829,23.1150775 C7.42626305,23.0255164 7.56304658,23.0255164 7.65663532,23.1150775 L9.6950185,25.1554227 C9.75282062,25.2348811 9.75282062,25.3425887 9.6950185,25.4220471 C9.66416507,25.4714601 9.61685648,25.5095493 9.56132031,25.5291086 L9.56132031,25.5280791 Z M6.31142583,24.7817369 L8.98538964,24.9546824 L7.51985178,23.5814127 L6.31142583,24.7817369 Z" id="Shape" fill="#252525"></path>
                <polygon id="Path" fill="#FFFFFF" points="15.3555942 17.6621466 12.6651752 18.0636273 14.2232734 16.517412"></polygon>
                <path d="M12.6651752,18.3271633 C12.5737054,18.3297496 12.4896845,18.2769321 12.4522866,18.1933364 C12.3944844,18.113878 12.3944844,18.0061705 12.4522866,17.9267121 L13.9970149,16.3671142 C14.0947174,16.2744648 14.2458992,16.2744648 14.3436017,16.3671142 L15.4748941,17.4994955 C15.5206642,17.5728854 15.5206642,17.6659645 15.4748941,17.7393544 C15.4540687,17.8297129 15.3803158,17.8982345 15.2887451,17.9123 L12.6147813,18.3137806 L12.6651752,18.3271633 Z M14.2232734,16.8602148 L13.3573205,17.7270012 L14.8485695,17.5005249 L14.2232734,16.8602148 Z" id="Shape" fill="#252525"></path>
                <path d="M15.3555942,17.6621466 L13.4910187,17.9020056 C13.3881739,17.9256826 13.2812153,17.8783285 13.2287645,17.7867086 C13.1763137,17.6950886 13.190712,17.5787622 13.2637317,17.5025838 L14.2356147,16.5297653 L15.3555942,17.6621466 Z" id="Path" fill="#FFFFFF"></path>
                <path d="M13.4241696,18.1552472 C13.2471461,18.1533592 13.0846861,18.0567321 12.9983922,17.9020056 C12.8934906,17.7146479 12.9264009,17.4902305 13.0786112,17.3286089 L14.0504942,16.3557903 C14.1481967,16.263141 14.2993785,16.263141 14.397081,16.3557903 L15.5283734,17.4881717 C15.5972794,17.5530262 15.6312182,17.6528817 15.5900802,17.7424428 C15.5489423,17.8320038 15.4872355,17.8937701 15.3823338,17.9009761 L13.5177583,18.1408351 L13.4241696,18.1552472 Z M13.4241696,17.6611172 L14.8362281,17.4881717 L14.2088751,16.8602148 L13.4097713,17.6600877 L13.4241696,17.6611172 Z M25.0127173,8.02146373 C24.961295,7.93396154 24.8522795,7.8999901 24.7597192,7.9411676 C24.715496,7.96381523 24.6815572,8.00293385 24.6568745,8.05131742 C24.6321917,8.09970099 24.64659,8.15014343 24.6702443,8.19543868 C24.7628046,8.39103182 24.7381218,8.62471415 24.6033952,8.79560079 C24.568428,8.82854279 24.5488875,8.87383804 24.5488875,8.92222161 C24.5488875,8.97060518 24.5694564,9.01487099 24.6033952,9.04884243 C24.637334,9.06222512 24.6753865,9.06222512 24.7103537,9.04884243 C24.7720606,9.06531343 24.8399381,9.04472468 24.8831329,8.99531168 C25.1073345,8.72148128 25.1536147,8.34264825 25.0034613,8.02249317 L25.0127173,8.02146373 Z M89.0726626,13.541308 L87.4991377,16.9333048 C87.3551551,17.2194885 87.2595095,17.6003804 86.9849139,17.6003804 C86.6023314,17.6003804 86.5560513,17.2174296 86.4120686,16.8849213 L85.1244522,14.0673506 C85.0288066,13.9232294 85.0288066,13.6380751 84.8385438,13.6843998 C84.5989155,13.7327834 84.6482809,14.0179376 84.6482809,14.1991186 L84.6482809,19.9773517 C84.6482809,20.2635354 84.6482809,20.5507485 84.5999439,20.8369321 C84.5516069,21.1231158 84.3603156,21.3145911 84.0857201,21.3145911 C83.7998117,21.2662076 83.7031376,21.0747322 83.6568574,20.8369321 L83.6568574,11.8581776 C83.6568574,11.4752268 83.5612118,10.9522725 83.9900745,10.8081512 C84.4672742,10.66403 84.7531826,11.0480102 84.9434454,11.4752268 L86.4089833,14.7231023 C86.5529659,15.009286 86.5992461,15.5229753 86.9818286,15.5826827 C87.4106913,15.5826827 87.4590283,15.009286 87.603011,14.7231023 L89.0685488,11.5709645 C89.2588116,11.141689 89.4974115,10.7113841 90.0219198,10.8071218 C90.5361436,10.9512431 90.4045023,11.4741974 90.4045023,11.9055317 L90.4045023,20.2161812 C90.4045023,20.6454567 90.5484849,21.3145911 89.9273026,21.3145911 C89.2608685,21.3145911 89.4130788,20.6475156 89.4130788,20.1677977 L89.4130788,14.6747188 C89.3647417,14.291768 89.4614158,13.9108761 89.0798617,13.5279253 L89.0726626,13.541308 Z M109.541856,13.781167 C109.255947,14.0673506 109.351593,14.4482425 109.351593,14.7838392 L109.351593,20.4663346 C109.351593,20.7998724 109.447238,21.325915 108.96901,21.325915 C108.454786,21.3742985 108.454786,20.8482559 108.454786,20.4663346 L108.454786,11.6667022 C108.454786,11.3331644 108.406449,10.9028595 108.788003,10.8071218 C109.216866,10.6630005 109.454438,10.9975678 109.646757,11.3805185 L111.984419,16.5874138 C112.128401,16.9703646 112.317636,17.3028729 112.461618,17.6858237 C112.557264,17.8762696 112.557264,18.1634827 112.844201,18.0687745 C113.083829,17.9730368 113.034464,17.6858237 113.034464,17.4953777 L113.034464,11.8952373 C113.034464,11.6553784 113.034464,11.4659619 113.082801,11.2281618 C113.131138,10.894624 113.322429,10.7505027 113.597025,10.7505027 C113.882933,10.7988863 113.979607,11.0366864 113.979607,11.3238995 L113.979607,20.1595622 C113.979607,20.542513 114.12359,21.0654672 113.64639,21.2095885 C113.132166,21.4000345 112.931619,20.8760507 112.741356,20.4457458 L110.069449,14.5233915 C109.925467,14.2372078 109.879186,13.9016112 109.555225,13.7595488 L109.541856,13.781167 Z M55.3868893,16.0253409 C55.3385523,17.0753672 55.4352263,18.0790688 55.2912437,19.1290952 C55.0516154,20.5960437 54.2422271,21.325915 52.7612625,21.325915 C51.1877377,21.325915 50.2796184,20.6588394 50.0893556,19.1764493 C49.8497273,17.0269836 49.8034472,14.8301639 50.0893556,12.6909926 C50.2796184,11.3043402 51.2350463,10.6372646 52.6656169,10.6372646 C54.0961875,10.6372646 55.0032783,11.3527237 55.2418782,12.6909926 C55.4815065,13.837786 55.3375238,14.9351665 55.3858609,16.0335764 L55.3868893,16.0253409 Z M54.4335184,16.0253409 L54.4335184,13.5917505 C54.3851813,12.3523076 53.7187473,11.6317013 52.6234506,11.6811143 C51.574434,11.6811143 50.9532516,12.3481899 50.8915448,13.5917505 L50.8915448,18.5248153 C50.9398818,19.7642582 51.5579788,20.4354515 52.6234506,20.4848645 C53.7208042,20.4848645 54.3882667,19.8177889 54.4335184,18.5248153 C54.4818554,17.7249423 54.4335184,16.9013923 54.4335184,16.0407824 L54.4335184,16.0253409 Z M102.518587,20.65781 C102.518587,20.9913477 102.47025,21.2312067 102.18537,21.2795903 C101.945741,21.3279738 101.756507,21.2795903 101.671146,20.9934066 C101.622809,20.8029607 101.527163,20.5641311 101.480883,20.3716263 C101.05202,18.9046778 101.05202,18.9046778 99.7489773,18.9046778 L99.3303992,18.9046778 C97.7085373,18.9046778 97.7085373,18.9046778 97.1356919,20.6382507 C97.0400463,20.9717884 96.9917093,21.4381237 96.5145096,21.3053262 C96.0373099,21.1148803 96.1812925,20.6382507 96.2748813,20.2552999 L98.6125427,11.6100831 C98.7565254,11.1808076 98.8028055,10.5600568 99.4116465,10.6074109 C99.9258703,10.6557945 100.032829,11.1808076 100.126418,11.6100831 L102.321125,19.8229361 C102.41677,20.1091197 102.465107,20.3963328 102.511388,20.6825165 L102.518587,20.65781 Z M99.3221716,17.9833311 L99.7993713,17.9833311 C100.848388,17.9833311 100.896725,17.9349476 100.562479,16.7438883 L99.6574455,13.3529209 C99.6091085,13.113062 99.6574455,12.7795242 99.3715371,12.7795242 C99.0856286,12.7795242 99.03832,13.113062 98.9889545,13.4013045 L98.2258464,16.2682881 C97.7486467,18.001861 97.7969838,18.001861 99.3232,18.001861 L99.3221716,17.9833311 Z M38.5923397,16.0273998 L38.5923397,11.6008182 C38.5923397,10.8853591 38.831968,10.6465295 39.3914435,10.6465295 L41.0133054,10.6465295 C43.2080126,10.6949131 44.0194578,11.6965559 43.9700923,14.2289723 C43.9217552,15.9625452 43.0650584,16.9518347 41.5738093,17.046543 C41.1449467,17.046543 40.7747055,17.0949265 40.3355584,17.046543 C39.6691243,16.9981594 39.4305245,17.3327266 39.4768046,18.0492152 C39.5251417,18.9087955 39.4768046,19.782788 39.4768046,20.5816316 C39.4768046,20.9151694 39.4284676,21.2970907 38.9996049,21.2970907 C38.5707423,21.2970907 38.5707423,20.9141399 38.5707423,20.533248 L38.5707423,16.0418119 L38.5923397,16.0273998 Z M40.8343555,16.171521 C42.2196744,16.171521 42.7431543,15.8379832 42.9817541,14.8332522 C43.220354,13.8285211 43.2213824,12.873203 42.5045544,12.1103898 C41.7414463,11.3465471 40.7397383,11.6811143 39.8326475,11.727439 C39.4994305,11.727439 39.4994305,12.1567145 39.4994305,12.4912817 L39.4994305,14.6407473 C39.4994305,16.1684327 39.4994305,16.1684327 40.8364124,16.1684327 L40.8343555,16.171521 Z M63.8777528,21.424741 C62.8760449,21.424741 62.067685,21.234295 61.4444458,20.4704523 C61.254183,20.2305934 61.0155831,19.8970556 61.3004631,19.5645473 C61.5400914,19.2783636 61.8146869,19.4688096 62.0152342,19.7086685 C62.5880795,20.3304488 63.2082334,20.5085415 63.9733985,20.4725112 C64.6881696,20.4241276 65.2116494,20.0895604 65.4996147,19.2783636 C65.7824378,18.5392274 65.6158293,17.7033241 65.0707521,17.128898 C64.5565283,16.5555012 63.8777528,16.329025 63.2092619,15.9821045 C62.2558909,15.552829 61.539063,14.9320782 61.4444458,13.6421929 C61.3004631,11.90862 62.0656281,10.9677141 63.7358271,10.6331469 C64.4505982,10.4890256 65.121146,10.6815304 65.739243,10.9193305 C66.0724601,11.0150682 66.3604254,11.3022813 66.2164427,11.7192035 C66.0724601,12.1968625 65.739243,12.0053871 65.4533346,11.8633248 C64.8321522,11.529787 64.1657182,11.529787 63.5445358,11.6234658 C63.030312,11.7192035 62.5428278,12.0527413 62.4471822,12.7218757 C62.3515366,13.3910101 62.4471822,13.9613185 62.9243819,14.3936823 C63.5455643,14.9084011 64.2613638,15.1091414 64.9277979,15.4437086 C65.9768144,15.9584274 66.5496598,16.8766858 66.5496598,18.2128957 C66.5496598,19.4523386 66.2637513,20.4097155 65.2126779,21.0304664 C64.7354782,21.3640041 64.2109699,21.31665 63.8756959,21.4134171 L63.8777528,21.424741 Z M74.3288375,16.4093211 L74.3288375,12.7321701 C74.3771746,11.826265 74.0429291,11.5380225 73.3271296,11.6337602 C73.0412211,11.6821437 72.7059472,11.6337602 72.4220957,11.6337602 C72.1382441,11.6337602 71.944896,11.4896389 71.944896,11.1190414 C71.944896,10.8328577 72.1351588,10.6413824 72.3737586,10.6413824 L77.2403728,10.6413824 C77.480001,10.6413824 77.6692354,10.7855036 77.6692354,11.0706578 C77.6692354,11.4041956 77.4789726,11.5853766 77.1920357,11.5853766 C76.8588187,11.5853766 76.4772646,11.6337602 76.1430191,11.5853766 C75.4765851,11.5369931 75.2842654,11.8715603 75.2842654,12.5880488 L75.2842654,20.4220688 C75.2842654,20.8050195 75.2359283,21.2219418 74.8070657,21.2219418 C74.329866,21.2219418 74.329866,20.7926663 74.329866,20.4220688 L74.329866,16.4227038 L74.3288375,16.4093211 Z" id="Shape" fill-opacity="0.85" fill="#000000"></path>
            </g>
        </g>
    </g>
</svg>