<?xml version="1.0" encoding="UTF-8"?>
<svg width="32px" height="32px" viewBox="0 0 32 32" version="1.1" xmlns="http://www.w3.org/2000/svg" xmlns:xlink="http://www.w3.org/1999/xlink">
    <title>3</title>
    <g id="3" stroke="none" stroke-width="1" fill="none" fill-rule="evenodd" opacity="0.85">
        <g id="iconfinder_2138902_service_repair_car-service_car_car-repair_icon" transform="translate(4.000000, 5.000000)" fill="#000000" fill-rule="nonzero" stroke="#000000" stroke-width="0.2">
            <g id="Group">
                <path d="M4.08229435,0.136738555 L3.27882066,0.322376255 L6.66702037,3.73601517 L6.04129562,6.08871117 L3.70613243,6.71913398 L0.317932717,3.30549506 L0.13367843,4.11500138 C0.0449634033,4.50491123 0,4.90574473 0,5.30638546 C0,6.72292512 0.547214185,8.05438888 1.54093729,9.05550877 C2.79487413,10.3189246 4.54800041,10.8528981 6.27555176,10.5105382 L15.9739984,20.2818025 C16.4812239,20.7928363 17.1578434,21.0742165 17.8792349,21.0742165 C18.6006903,21.0742165 19.2773098,20.7928363 19.7844714,20.2818025 L20.1286807,19.9351374 C20.6359061,19.4241036 20.9152532,18.742404 20.9152532,18.0155318 C20.9152532,17.2886597 20.6359699,16.6070242 20.1287444,16.0960547 L10.4300427,6.32446913 C10.4949048,5.98904898 10.5277504,5.64713891 10.5277504,5.30471478 C10.5277504,5.30458627 10.5277504,5.30458627 10.5277504,5.3043935 C10.5277504,3.88791809 9.98015353,2.55606879 8.98598398,1.55443484 C7.69645909,0.255292227 5.86329157,-0.27476156 4.08229435,0.136738555 Z M8.34087076,2.20439169 C9.16277626,3.03253246 9.61540785,4.13344306 9.61540785,5.30445775 C9.61540785,5.30452201 9.61540785,5.30465052 9.61540785,5.30465052 C9.61540785,5.66088985 9.57248534,6.01635809 9.48797965,6.36122398 L9.42630644,6.61298185 L19.483695,16.7458188 C19.8185288,17.0832309 20.0029107,17.5341204 20.0029107,18.0154676 C20.0029107,18.496879 19.8184013,18.9477685 19.4836312,19.2851806 L19.1393582,19.6319742 C18.8045244,19.969322 18.356995,20.1550882 17.8791712,20.1550882 C17.4014111,20.1550882 16.9539455,19.9692578 16.6189841,19.6319742 L6.5617231,9.499073 L6.3117776,9.56120926 C4.81605883,9.93351276 3.27371843,9.50151475 2.18592296,8.40561618 C1.36459146,7.57805372 0.912214975,6.47740015 0.912214975,5.30638546 C0.912214975,5.27265067 0.912597642,5.23891589 0.913362977,5.2051811 L3.43354579,7.74428589 L6.78609367,6.8391013 L7.68453262,3.4613819 L5.16301048,0.920927719 C6.34213587,0.890919825 7.48618343,1.34322296 8.34087076,2.20439169 Z" id="Shape"></path>
            </g>
            <g id="Group" transform="translate(2.586412, 0.431583)">
                <path d="M17.8336057,4.35470832 L17.0911037,3.60663144 C16.835737,3.34934748 16.7609894,2.92326109 16.9133547,2.59336702 L17.4231313,1.48872953 C17.5376763,1.24044152 17.7996121,0.975253983 18.0461774,0.8584995 L19.6889041,0.0803504692 C20.0164035,-0.0746367696 20.4398249,-6.6896929e-06 20.6955741,0.257634794 L21.1577724,0.723303335 C21.4136493,0.981101346 21.4876316,1.40770179 21.3338631,1.73759586 L20.5615131,3.39265652 C20.4456924,3.6406875 20.1827362,3.90465416 19.9361072,4.02025202 L18.8394466,4.53404886 C18.5116283,4.68730116 18.0888448,4.61186376 17.8336057,4.35470832 Z M17.7492276,2.96984722 L18.4657082,3.69170735 C18.4676216,3.69209289 18.4694711,3.69254269 18.4713845,3.69273546 L19.5512077,3.18677795 C19.6063118,3.16107525 19.7099508,3.05710786 19.7357809,3.0016543 L20.5000312,1.3638787 C20.4999036,1.36252931 20.4995847,1.36111566 20.4993934,1.35983053 L20.0637905,0.920957044 C20.0625149,0.920764274 20.0611756,0.92044299 20.0597725,0.920314477 L18.434202,1.6903029 C18.3790979,1.71645539 18.2760966,1.82061556 18.2504579,1.87606912 L17.7482709,2.96425688 C17.7484622,2.96618458 17.7489087,2.96804803 17.7492276,2.96984722 Z" id="Shape"></path>
                <g transform="translate(0.000000, 6.670943)" id="Path">
                    <path d="M0.91646004,11.7748171 C2.07626073,9.58237736 3.51139052,7.72812083 4.95793655,6.20253749 C5.07394851,6.08019267 5.07280051,5.88523774 4.9540461,5.7655917 L4.74019888,5.55013888 C4.62144447,5.43049284 4.42991951,5.4314567 4.31384377,5.553673 C2.80332853,7.14364159 1.30340042,9.08046802 0.0945545387,11.3740478 C-0.0764977274,11.6991226 -0.0099136238,12.1412732 0.249343446,12.4024126 L2.47646691,14.6462577 C2.73597909,14.9077183 3.17508978,14.9746096 3.49748694,14.8018232 C5.77384693,13.5839011 7.69611214,12.0727755 9.27416815,10.5511119 C9.39547368,10.4341003 9.39643034,10.2412016 9.27767594,10.1215556 L9.06395627,9.90623129 C8.94520187,9.78658526 8.75169979,9.78542863 8.63026671,9.90231163 C7.11605235,11.3597186 5.27561416,12.8056236 3.09944921,13.9741323 L0.91646004,11.7748171 Z"></path>
                    <path d="M13.8692366,3.12335486 C13.8106885,3.232013 13.7312851,3.37588382 13.6310263,3.55014808 C13.5468395,3.69652492 13.5729246,3.9111424 13.691679,4.03078844 L13.9254887,4.26635362 C14.0442431,4.38599966 14.2116601,4.36620858 14.2975689,4.2207956 C14.4756367,3.9191745 14.6064451,3.68245269 14.6895477,3.52714417 C14.8635337,3.20251916 14.797715,2.75895493 14.5364808,2.49575936 L12.3093573,0.251914258 C12.0481231,-0.0112813183 11.6081196,-0.0775942662 11.2859137,0.0974410731 C11.1317626,0.181231852 10.8967411,0.313022411 10.597304,0.492491465 C10.4529747,0.578981027 10.4332673,0.747719206 10.5520217,0.867365242 L10.7858952,1.10299468 C10.9046496,1.22264072 11.1176039,1.24898598 11.2628899,1.16410283 C11.4358555,1.06309125 11.5786542,0.983091617 11.6865026,0.924103937 L13.8692366,3.12335486 Z"></path>
                </g>
                <polygon id="Rectangle" transform="translate(15.379829, 6.072939) rotate(45.000000) translate(-15.379829, -6.072939) " points="14.90988 2.83547114 15.8255747 2.83889589 15.8497785 9.31040718 14.9340837 9.30698244"></polygon>
            </g>
        </g>
    </g>
</svg>