<?xml version="1.0" encoding="UTF-8"?>
<svg width="349px" height="44px" viewBox="0 0 349 44" version="1.1" xmlns="http://www.w3.org/2000/svg" xmlns:xlink="http://www.w3.org/1999/xlink">
    <title>Group 32</title>
    <g id="Page-1" stroke="none" stroke-width="1" fill="none" fill-rule="evenodd">
        <g id="2" transform="translate(-101.000000, -81.000000)">
            <g id="Group-32" transform="translate(101.000000, 81.000000)">
                <g id="Group">
                    <g id="appicon" fill="#2A9FE0">
                        <rect id="Rectangle" x="0" y="0" width="44.3042038" height="44" rx="8.86102713"></rect>
                    </g>
                    <g id="Group-4" transform="translate(10.079206, 7.150000)" fill="#FFFFFF">
                        <g id="Group-2" transform="translate(8.971601, 12.540000)">
                            <rect id="Rectangle" x="0" y="0" width="2.32597066" height="2.30999996"></rect>
                            <rect id="Rectangle" x="3.10129421" y="0" width="2.32597066" height="2.30999996"></rect>
                            <rect id="Rectangle" x="0" y="3.07999995" width="2.32597066" height="2.30999996"></rect>
                            <rect id="Rectangle" x="3.10129421" y="3.07999995" width="2.32597066" height="2.30999996"></rect>
                        </g>
                        <path d="M3.322,13.348 L3.32281528,20.35 L11.9067548,20.35 L11.9458153,20.349 L11.9466801,20.35 L12.1644348,20.3462324 C16.2203799,20.2274752 19.5701291,17.3144562 20.3293248,13.4785946 L23.4045145,14.9089973 C22.0385401,19.944256 17.4084008,23.65 11.9067548,23.65 L11.8685796,23.6499405 L3.322,23.649 L3.32281528,28.38 C3.10156154,30.58 1.99395644,31.68 0,31.68 L0,14.893 L3.322,13.348 Z M11.9067548,0 C18.4352829,0 23.7366089,5.21819941 23.8126805,11.6839974 L20.3044692,10.0504785 C19.482302,6.1939485 16.0348239,3.3 11.9067548,3.3 C7.85554373,3.3 4.45981658,6.08719024 3.55768025,9.83608467 L0.00481556159,11.4854077 C0.182963347,5.21147965 5.28175244,0.160375811 11.6041498,0.00374444316 L11.9067548,0 Z" id="Combined-Shape"></path>
                        <polygon id="Rectangle" points="0.0218648249 12.4636118 11.6852337 7.04 23.7981657 12.6726643 23.7795149 14.2039914 11.6852337 8.58 0.0165898925 14.0060648"></polygon>
                    </g>
                </g>
                <path d="M63.593495,39.436677 L63.593495,28.4882397 L70.3379735,28.4882397 C77.7132306,28.4882397 82.6381555,23.7719898 82.6381555,16.6254274 L82.6381555,16.5773024 C82.6381555,9.43074 77.7132306,4.71449008 70.3379735,4.71449008 L56.2667594,4.71449008 L56.2667594,39.436677 L63.593495,39.436677 Z M68.5426807,22.8094898 L63.593495,22.8094898 L63.593495,10.4654275 L68.5426807,10.4654275 C72.7397842,10.4654275 75.2143771,12.6551149 75.2143771,16.6013649 L75.2143771,16.6494899 C75.2143771,20.5957398 72.7397842,22.8094898 68.5426807,22.8094898 Z M93.6178615,39.436677 L93.6178615,26.8519897 L99.4889543,26.8519897 L106.015086,39.436677 L114.312251,39.436677 L106.936993,25.7691772 C110.818708,24.2532397 113.26904,20.4513648 113.26904,15.8794899 L113.26904,15.8313649 C113.26904,8.85324001 108.610983,4.71449008 100.750511,4.71449008 L86.2911258,4.71449008 L86.2911258,39.436677 L93.6178615,39.436677 Z M99.9499078,21.3416773 L93.6178615,21.3416773 L93.6178615,10.39324 L99.852865,10.39324 C103.467711,10.39324 105.772479,12.5107399 105.772479,15.8313649 L105.772479,15.8794899 C105.772479,19.2963648 103.589015,21.3416773 99.9499078,21.3416773 Z M133.22521,40.0382395 C143.633056,40.0382395 150.110667,33.1323021 150.110667,22.0876148 L150.110667,22.0394898 C150.110667,11.018865 143.608796,4.11292759 133.22521,4.11292759 C122.865885,4.11292759 116.339753,10.9948025 116.339753,22.0394898 L116.339753,22.0876148 C116.339753,33.1323021 122.817364,40.0382395 133.22521,40.0382395 Z M133.22521,33.8782396 C127.475421,33.8782396 123.812053,29.3544897 123.812053,22.0876148 L123.812053,22.0394898 C123.812053,14.7726149 127.499681,10.2729275 133.22521,10.2729275 C138.974999,10.2729275 142.638367,14.7966774 142.638367,22.0394898 L142.638367,22.0876148 C142.638367,29.2823022 139.047781,33.8782396 133.22521,33.8782396 Z M161.478544,39.436677 L161.478544,28.4882397 L168.223023,28.4882397 C175.59828,28.4882397 180.523205,23.7719898 180.523205,16.6254274 L180.523205,16.5773024 C180.523205,9.43074 175.59828,4.71449008 168.223023,4.71449008 L154.151809,4.71449008 L154.151809,39.436677 L161.478544,39.436677 Z M166.42773,22.8094898 L161.478544,22.8094898 L161.478544,10.4654275 L166.42773,10.4654275 C170.624833,10.4654275 173.099426,12.6551149 173.099426,16.6013649 L173.099426,16.6494899 C173.099426,20.5957398 170.624833,22.8094898 166.42773,22.8094898 Z M199.751553,40.0382395 C208.218543,40.0382395 214.356503,34.7685521 215.035803,27.3813647 L215.060064,27.1166772 L207.927414,27.1166772 L207.878893,27.3573022 C206.932725,31.4719896 203.972918,33.8782396 199.751553,33.8782396 C194.147329,33.8782396 190.556743,29.3544897 190.556743,22.0394898 L190.556743,22.0154273 C190.556743,14.7485524 194.147329,10.2729275 199.751553,10.2729275 C204.118482,10.2729275 206.981246,12.7754274 207.806111,16.6013649 L207.903153,17.0104274 L215.035803,17.0104274 L215.011543,16.7938649 C214.332243,9.43074 208.242803,4.11292759 199.751553,4.11292759 C189.537793,4.11292759 183.084443,10.8504275 183.084443,22.0394898 L183.084443,22.0635523 C183.084443,33.2526146 189.513532,40.0382395 199.751553,40.0382395 Z M226.233856,39.436677 L226.233856,4.71449008 L218.90712,4.71449008 L218.90712,39.436677 L226.233856,39.436677 Z M254.584233,39.436677 L254.584233,33.4451146 L238.717726,33.4451146 L238.717726,24.7104272 L253.686586,24.7104272 L253.686586,19.0316773 L238.717726,19.0316773 L238.717726,10.7060525 L254.584233,10.7060525 L254.584233,4.71449008 L231.39099,4.71449008 L231.39099,39.436677 L254.584233,39.436677 Z M266.534367,39.436677 L266.534367,26.8519897 L272.40546,26.8519897 L278.931592,39.436677 L287.228756,39.436677 L279.853499,25.7691772 C283.735214,24.2532397 286.185546,20.4513648 286.185546,15.8794899 L286.185546,15.8313649 C286.185546,8.85324001 281.527489,4.71449008 273.667017,4.71449008 L259.207632,4.71449008 L259.207632,39.436677 L266.534367,39.436677 Z M272.866414,21.3416773 L266.534367,21.3416773 L266.534367,10.39324 L272.769371,10.39324 C276.384217,10.39324 278.688985,12.5107399 278.688985,15.8313649 L278.688985,15.8794899 C278.688985,19.2963648 276.505521,21.3416773 272.866414,21.3416773 Z M306.117455,40.0382395 C315.870262,40.0382395 321.644312,34.3113646 321.644312,24.8548022 L321.644312,20.8604273 L306.505627,20.8604273 L306.505627,26.2744897 L314.511662,26.2744897 L314.487401,26.7798022 C314.293316,31.0629271 311.018119,33.8782396 306.238759,33.8782396 C300.416187,33.8782396 296.728559,29.4266772 296.728559,21.8951148 L296.728559,21.8710523 C296.728559,14.5079274 300.197841,10.2729275 305.971891,10.2729275 C309.926387,10.2729275 312.716369,12.22199 313.880884,15.5907399 L313.977926,15.8313649 L321.328923,15.8313649 L321.256141,15.4944899 C320.091626,8.97355251 314.366098,4.11292759 305.94763,4.11292759 C295.685348,4.11292759 289.256259,10.826365 289.256259,21.9432398 L289.256259,21.9673023 C289.256259,33.2766771 295.661087,40.0382395 306.117455,40.0382395 Z M349,39.436677 L349,33.4451146 L333.133493,33.4451146 L333.133493,24.7104272 L348.102354,24.7104272 L348.102354,19.0316773 L333.133493,19.0316773 L333.133493,10.7060525 L349,10.7060525 L349,4.71449008 L325.806757,4.71449008 L325.806757,39.436677 L349,39.436677 Z" id="PROPCIERGE" fill="#000000" fill-rule="nonzero"></path>
            </g>
        </g>
    </g>
</svg>