<?xml version="1.0" encoding="UTF-8"?>
<svg width="124px" height="30px" viewBox="0 0 124 30" version="1.1" xmlns="http://www.w3.org/2000/svg" xmlns:xlink="http://www.w3.org/1999/xlink">
    <title>python-3</title>
    <g id="Page-1" stroke="none" stroke-width="1" fill="none" fill-rule="evenodd" fill-opacity="0.85">
        <g id="App-Development" transform="translate(-742.000000, -5814.000000)" fill="#000000" fill-rule="nonzero">
            <g id="python-3" transform="translate(742.000000, 5814.000000)">
                <path d="M46.7540455,15.2350667 C46.7540455,11.4535022 45.6696975,9.51208103 43.5007403,9.40586898 C42.6375972,9.36535778 41.7953471,9.50195323 40.975557,9.81851188 C40.3213442,10.0511916 39.8810237,10.2817938 39.6493722,10.5147332 L39.6493722,19.5409395 C41.0366691,20.4067365 42.2685741,20.8092516 43.342998,20.7458879 C45.615898,20.5960484 46.7540455,18.761099 46.7540455,15.2350667 Z M49.4293974,15.3919177 C49.4293974,17.3130833 48.9762799,18.9078222 48.0648217,20.1758746 C47.0491595,21.6111656 45.6414919,22.3502352 43.8418189,22.3907464 C42.4850781,22.4335948 41.0873347,22.0110838 39.6491111,21.1250312 L39.6491111,29.3288083 L37.3224116,28.5035225 L37.3224116,10.2942588 C37.7042316,9.82863968 38.19574,9.42872145 38.7911912,9.08931033 C40.1761377,8.286877 41.8585485,7.87449379 43.8392073,7.85423819 L43.8721138,7.88695877 C45.6822333,7.86436599 47.0768428,8.60343565 48.0569868,10.1018306 C48.9710567,11.4763547 49.4293974,13.2380724 49.4293974,15.3919177 L49.4293974,15.3919177 Z M63.6489293,20.7760116 C63.6489293,23.3528873 63.3893335,25.1371978 62.8701418,26.1294625 C62.3483385,27.1214674 61.3553974,27.913773 59.8892294,28.5037822 C58.7004163,28.9694013 57.4147117,29.2225962 56.0352497,29.2657043 L55.6505569,27.8078206 C57.0532624,27.618249 58.0409801,27.428158 58.6137102,27.2383266 C59.7414112,26.858664 60.5152367,26.2767051 60.9404097,25.4968645 C61.2814884,24.8616697 61.4494161,23.6491904 61.4494161,21.8547521 L61.4494161,21.2522779 C59.8584122,21.9713516 58.1911488,22.3281618 56.4476258,22.3281618 C55.3019045,22.3281618 54.2914656,21.9713516 53.4207487,21.2522779 C52.4432163,20.4701002 51.9545807,19.4780952 51.9545807,18.2757437 L51.9545807,8.64654372 L54.2812802,7.85423819 L54.2812802,17.5460227 C54.2812802,18.5811358 54.6171356,19.378635 55.2891075,19.9380012 C55.9610795,20.4973673 56.8317963,20.7658838 57.8983852,20.7453686 C58.9649742,20.7225161 60.1078227,20.3124701 61.3219686,19.5100367 L61.3219686,8.20325773 L63.6486681,8.20325773 L63.6486681,20.7760116 L63.6489293,20.7760116 Z M72.7313886,22.2642788 C72.4765344,22.2856874 72.2208986,22.2966036 71.9651369,22.2969993 C70.6491374,22.2969993 69.6230287,21.9858941 68.8902059,21.3605674 C68.1594723,20.7355004 67.7930609,19.87256 67.7930609,18.7712268 L67.7930609,9.65880427 L66.1994454,9.65880427 L66.1994454,8.20351742 L67.7930609,8.20351742 L67.7930609,4.33833371 L70.1171488,3.51564479 L70.1171488,8.20351742 L72.7313886,8.20351742 L72.7313886,9.65880427 L70.1171488,9.65880427 L70.1171488,18.7078631 C70.1171488,19.576257 70.3511507,20.1911962 70.8194156,20.5508629 C71.2216063,20.8469062 71.8606718,21.016482 72.7311274,21.05959 L72.7311274,22.2642788 L72.7313886,22.2642788 Z M86.8187721,22.0744474 L84.4920726,22.0744474 L84.4920726,13.1443253 C84.4920726,12.23568 84.2784414,11.4535022 83.8532683,10.8006487 C83.362021,10.0613194 82.6798638,9.69178454 81.8039237,9.69178454 C80.7373347,9.69178454 79.4035762,10.2511507 77.802387,11.369883 L77.802387,22.0744474 L75.4759486,22.0744474 L75.4759486,0.728941861 L77.802387,0 L77.802387,9.72216794 C79.2889258,8.64628403 80.9130973,8.10717348 82.6772521,8.10717348 C83.9094183,8.10717348 84.9070603,8.51981638 85.6709615,9.34250531 C86.4372132,10.1649345 86.8190333,11.1901795 86.8190333,12.4153835 L86.8190333,22.0744474 L86.8187721,22.0744474 L86.8187721,22.0744474 Z M99.1850926,14.8707256 C99.1850926,13.4177759 98.9077377,12.2180212 98.3551172,11.2688647 C97.6982927,10.1122181 96.6776684,9.50195323 95.2979453,9.43884925 C92.747168,9.58557249 91.4742605,11.4028632 91.4742605,14.8860471 C91.4742605,16.4831232 91.7390796,17.8171361 92.2736798,18.8878263 C92.9558371,20.2522226 93.9793342,20.9255914 95.3439099,20.902739 C97.9046113,20.8822237 99.1850926,18.8725048 99.1850926,14.8707256 L99.1850926,14.8707256 Z M101.733258,14.8857875 C101.733258,16.953936 101.20127,18.6751425 100.139643,20.049407 C98.9709391,21.5885728 97.3574752,22.360363 95.2979453,22.360363 C93.2564355,22.360363 91.6654316,21.5883131 90.5173599,20.049407 C89.4761038,18.6751425 88.9566509,16.953936 88.9566509,14.8857875 C88.9566509,12.9420291 89.5191956,11.306779 90.6445462,9.97536292 C91.8333593,8.56292445 93.3961576,7.85423819 95.3285013,7.85423819 C97.2603227,7.85423819 98.8335675,8.56292445 100.045363,9.97536292 C101.170714,11.306779 101.733258,12.9420291 101.733258,14.8857875 L101.733258,14.8857875 Z M115.071888,22.0744474 L112.745188,22.0744474 L112.745188,12.6381951 C112.745188,11.603082 112.432315,10.795455 111.806047,10.2132364 C111.179778,9.63361462 110.34458,9.35263311 109.303585,9.37522589 C108.199127,9.39548149 107.147425,9.75488852 106.149783,10.4511098 L106.149783,22.0744474 L103.823083,22.0744474 L103.823083,10.1651942 C105.162065,9.19604175 106.394231,8.56292445 107.51932,8.26688109 C108.580686,7.99109332 109.517477,7.85423819 110.32447,7.85423819 C110.876568,7.85423819 111.396282,7.90721437 111.884918,8.01368611 C112.798727,8.22377302 113.542257,8.61356345 114.114726,9.18565426 C114.753792,9.81851188 115.071888,10.5775774 115.071888,11.4662269 L115.071888,22.0744474 L115.071888,22.0744474 Z" id="Shape"></path>
                <path d="M14.3426953,0.814378937 C13.1455249,0.819832368 12.0024153,0.921370048 10.9966773,1.09847669 C8.03352397,1.61914945 7.49552856,2.70853709 7.49552856,4.71799634 L7.49552856,7.37173944 L14.497826,7.37173944 L14.497826,8.25623391 L4.86744714,8.25623391 C2.83246647,8.25623391 1.05029141,9.47260858 0.492969955,11.7864212 C-0.1500129,14.4386062 -0.178479647,16.0935924 0.492969955,18.8628963 C0.990746284,20.924293 2.17955943,22.3930836 4.2145401,22.3930836 L6.6222001,22.3930836 L6.6222001,19.2119159 C6.6222001,16.9136845 8.62192379,14.8865665 10.9966773,14.8865665 L17.9908787,14.8865665 C19.9378475,14.8865665 21.4920274,13.2926067 21.4920274,11.3483289 L21.4920274,4.71773666 C21.4920274,2.83084974 19.8910993,1.41321753 17.9908787,1.098217 C16.7877016,0.899296639 15.5398656,0.80866582 14.3426953,0.814378937 Z M10.5558345,2.94848803 C11.2792555,2.94848803 11.8697446,3.54550881 11.8697446,4.27938473 C11.8697446,5.01066377 11.2789943,5.60223113 10.5558345,5.60223113 C9.83006298,5.60223113 9.24192432,5.01092346 9.24192432,4.27938473 C9.24192432,3.54550881 9.83006298,2.94848803 10.5558345,2.94848803 Z" id="Shape"></path>
                <path d="M22.3653559,8.25597423 L22.3653559,11.3478096 C22.3653559,13.7449818 20.3214957,15.7624913 17.9908787,15.7624913 L10.9966773,15.7624913 C9.08078686,15.7624913 7.49552856,17.3928073 7.49552856,19.3007289 L7.49552856,25.9308018 C7.49552856,27.8179484 9.14555524,28.9278513 10.9966773,29.4690394 C13.2131661,30.1172185 15.3387703,30.2343374 17.9908787,29.4690394 C19.7537277,28.9616106 21.4920274,27.9400014 21.4920274,25.9308018 L21.4920274,23.2773184 L14.497826,23.2773184 L14.497826,22.3928239 L24.9931761,22.3928239 C27.028418,22.3928239 27.7865736,20.9811645 28.4943249,18.8626366 C29.2255807,16.6817839 29.1945024,14.584031 28.4943249,11.7861615 C27.9913253,9.77176819 27.0307684,8.25597423 24.9931761,8.25597423 L22.3653559,8.25597423 Z M18.4314604,25.0463073 C19.1572318,25.0463073 19.7453705,25.637615 19.7453705,26.3691537 C19.7453705,27.1030296 19.1572318,27.7000504 18.4314604,27.7000504 C17.7080394,27.7000504 17.1175502,27.1030296 17.1175502,26.3691537 C17.1175502,25.6378747 17.7083005,25.0463073 18.4314604,25.0463073 Z" id="Shape"></path>
                <path d="M119.602802,6.1408223 L120.010738,6.1408223 L120.010738,3.59692687 L120.976779,3.59692687 L120.976779,3.29361227 L118.636238,3.29361227 L118.636238,3.59692687 L119.60254,3.59692687 L119.60254,6.1408223 M121.338751,6.1408223 L121.687142,6.1408223 L121.687142,3.81740127 L122.44347,6.14056261 L122.831296,6.14056261 L123.619747,3.82519188 L123.619747,6.1408223 L124,6.1408223 L124,3.29387195 L123.497,3.29387195 L122.635424,5.73311346 L121.901034,3.29387195 L121.338751,3.29387195 L121.338751,6.1408223" id="Shape"></path>
            </g>
        </g>
    </g>
</svg>