<?xml version="1.0" encoding="UTF-8"?>
<svg width="70px" height="70px" viewBox="0 0 70 70" version="1.1" xmlns="http://www.w3.org/2000/svg" xmlns:xlink="http://www.w3.org/1999/xlink">
    <title>reliable</title>
    <g id="reliable" stroke="none" stroke-width="1" fill="none" fill-rule="evenodd" fill-opacity="0.85">
        <g id="iconfinder_diamond-sparkle-ol_4480052" transform="translate(0.000000, 3.000000)" fill="#000000" fill-rule="nonzero">
            <path d="M48.8014019,20.004 C48.6129024,19.75 48.3149032,19.6005 47.9989041,19.6005 L16.0019925,19.6005 C15.6854933,19.6005 15.3879942,19.75 15.1994947,20.004 L4.69752368,34.1375 C4.4725243,34.44 4.4375244,34.8465 4.60702393,35.183 C4.63202386,35.2335 4.66852376,35.275 4.70102367,35.319 C4.70302366,35.323 4.70852365,35.3285 4.71052364,35.3325 C4.73052359,35.359 4.74602354,35.3895 4.76852348,35.414 C4.76952348,35.415 4.76952348,35.416 4.77102347,35.4175 L31.2709503,63.6835 C31.4594498,63.8855 31.723449,64 31.9999483,64 C32.2764475,64 32.5404468,63.8855 32.7294463,63.684 L59.1768732,35.474 C59.3798727,35.291 59.5098723,35.0285 59.5098723,34.734 C59.5098723,34.465 59.4038726,34.221 59.2308731,34.041 L48.8014019,20.004 Z M34.0074427,21.6005 L46.5524081,21.6005 L42.3709196,32.683 L34.0074427,21.6005 Z M40.6574244,33.734 L23.3424722,33.734 L31.9999483,22.2605 L40.6574244,33.734 Z M21.6294769,32.6825 L17.4479885,21.6 L29.9924538,21.6 L21.6294769,32.6825 Z M41.2194228,35.734 L31.9999483,60.1675 L22.7809737,35.734 L41.2194228,35.734 Z M48.2874033,22.6665 L56.5108806,33.734 L44.1119148,33.734 L48.2874033,22.6665 Z M15.7124933,22.6665 L19.8884817,33.734 L7.48901597,33.734 L15.7124933,22.6665 Z M20.6434796,35.734 L29.2884558,58.6455 L7.80851509,35.734 L20.6434796,35.734 L20.6434796,35.734 Z M34.7119408,58.6455 L43.3569169,35.734 L56.1918815,35.734 L34.7119408,58.6455 Z" id="Shape"></path>
            <path d="M31.999951,10.3805 C32.5519468,10.3805 32.999951,9.9325 32.999951,9.3805 L32.999951,1 C32.999951,0.448 32.5519468,0 31.999951,0 C31.4479498,0 30.999951,0.448 30.999951,1 L30.999951,9.3805 C30.999951,9.9325 31.4479498,10.3805 31.999951,10.3805 Z" id="Path"></path>
            <path d="M63.7988605,13.521 C63.4663614,13.0805 62.8398631,12.991 62.3983643,13.324 L55.7043828,18.3675 C55.262884,18.7 55.1748843,19.3265 55.5068834,19.768 C55.7038828,20.0285 56.002882,20.166 56.3068812,20.166 C56.5163806,20.166 56.72738,20.1005 56.9073795,19.9645 L63.601361,14.921 C64.0428598,14.589 64.1308595,13.962 63.7988605,13.521 Z" id="Path"></path>
            <path d="M7.69151541,20.1655 C7.99451457,20.1655 8.29451374,20.028 8.4910132,19.7675 C8.82351228,19.3265 8.73551253,18.6995 8.29401374,18.367 L1.60203223,13.324 C1.16153344,12.991 0.534035175,13.0795 0.201536093,13.521 C-0.130962988,13.962 -0.0429632315,14.589 0.398535549,14.9215 L7.09051707,19.9645 C7.27051657,20.1 7.48151599,20.1655 7.69151541,20.1655 Z" id="Path"></path>
            <path d="M18.0089869,12.363 C18.1839864,12.714 18.5374855,12.917 18.9049844,12.917 C19.054984,12.917 19.2069836,12.883 19.3504832,12.812 C19.8444818,12.5655 20.0454813,11.965 19.798982,11.4705 L16.0599923,3.9705 C15.813493,3.4765 15.2129946,3.276 14.718496,3.522 C14.2244974,3.7685 14.0234979,4.369 14.2699972,4.8635 L18.0089869,12.363 Z" id="Path"></path>
            <path d="M44.6499133,12.812 C44.7934129,12.8835 44.9454125,12.917 45.0954121,12.917 C45.4624111,12.917 45.8164101,12.714 45.9914096,12.363 L49.7303993,4.863 C49.9768986,4.369 49.7758992,3.7685 49.2819006,3.522 C48.7869019,3.276 48.1869036,3.4765 47.9404043,3.971 L44.2014146,11.471 C43.9544153,11.965 44.1559147,12.5655 44.6499133,12.812 Z" id="Path"></path>
        </g>
    </g>
</svg>