<?xml version="1.0" encoding="UTF-8"?>
<svg width="344px" height="120px" viewBox="0 0 344 120" version="1.1" xmlns="http://www.w3.org/2000/svg" xmlns:xlink="http://www.w3.org/1999/xlink">
    <title>server copy</title>
    <g id="server-copy" stroke="none" stroke-width="1" fill="none" fill-rule="evenodd">
        <g id="jmeter" transform="translate(186.000000, 12.000000)">
            <path d="M14.6153177,0.17087054 C14.0886396,0.433111854 13.1669529,1.35095645 12.1135967,2.66216302 L13.0352834,4.49785222 C13.693631,3.58000762 14.4836482,2.66216302 15.1419959,1.87543908 L15.2736654,1.74431842 L15.1419959,1.87543908 C14.8786568,2.13768039 14.2203091,2.92440433 13.1669529,4.49785222 C14.2203091,4.49785222 15.668674,4.2356109 16.9853693,3.97336959 C17.3803778,1.87543908 16.5903607,0.957594481 16.5903607,0.957594481 C16.5903607,0.957594481 15.668674,-0.484732744 14.6153177,0.17087054 L14.6153177,0.17087054 Z" id="Path" fill-opacity="0.85" fill="#000000" fill-rule="nonzero"></path>
            <path d="M5.13586074,21.4148113 C5.13586074,21.2845083 5.13586074,21.2845083 5.13586074,21.4148113 C5.39755765,20.7567811 5.66252578,20.2323115 5.79664544,19.7078419 C6.05834235,19.0530693 6.32003926,18.5285997 6.45088772,18.0041301 C6.71585584,17.3493575 6.98082396,16.8248879 7.11167242,16.3004183 C7.37336933,15.7759487 7.63833745,15.1179185 7.90330557,14.5934489 C8.16500248,14.2025399 8.29585093,13.6780703 8.42669939,13.2839037 C8.42669939,13.1536007 8.56081906,13.0232977 8.56081906,12.8929947 L8.95336442,12.1046615 C9.08421288,11.8440555 9.21833254,11.5801919 9.349181,11.4466313 C9.349181,11.3163283 9.48002945,11.3163283 9.48002945,11.1860253 L9.349181,11.1860253 L9.21833254,11.0557223 C9.08748409,11.4466313 8.82578718,11.7072374 8.69493872,12.1046615 C8.56081906,12.3652675 8.56081906,12.4955705 8.4299706,12.7561766 C8.16827369,13.2839037 7.90330557,13.9386763 7.63833745,14.4631459 C7.37336933,14.9876155 7.11494363,15.6423881 6.84997551,16.1668577 C6.58500738,16.6913273 6.32331047,17.3493575 6.18919081,17.8738271 C5.9274939,18.3950391 5.66579699,19.0530693 5.53494853,19.5775389 C5.26998041,20.1020085 5.00501229,20.7567811 4.87416383,21.2812507 C4.87416383,21.4115537 4.74331538,21.5418567 4.74331538,21.6754173 C4.61246692,22.1998869 4.3474988,22.5940535 4.21665035,22.9882201 L4.3474988,23.2488261 L4.47834726,23.2488261 C4.74004417,22.4637505 4.87089262,21.9392809 5.13586074,21.4148113 Z" id="Shape"></path>
            <g id="Group" transform="translate(9.493114, 12.391328)" fill="#000000" fill-opacity="0.85" fill-rule="nonzero">
                <polygon id="Path" points="1.83187837 3.25105999 1.43933301 3.25105999 1.70102992 3.25105999"></polygon>
                <polygon id="Path" opacity="0.35" points="1.83187837 3.25105999 1.43933301 3.25105999 1.70102992 3.25105999"></polygon>
                <path d="M2.09684649,1.6776512 L2.3585434,1.6776512 C2.3585434,1.54734819 2.22769495,1.54734819 2.09684649,1.6776512 Z" id="Path"></path>
                <path d="M2.09684649,1.6776512 L2.3585434,1.6776512 C2.3585434,1.54734819 2.22769495,1.54734819 2.09684649,1.6776512 Z" id="Path" opacity="0.35"></path>
            </g>
            <path d="M10.1385537,9.21819586 C10.4018928,8.69371323 10.7969014,8.16923061 11.0602404,7.64474798 C11.3235795,7.12026535 11.7185881,6.59578272 11.9819272,6.0713001 L11.9819272,5.94017944 C12.2452662,5.41569681 12.6402748,4.89121419 12.9036139,4.49785222 L11.9819272,2.66216302 L11.7185881,2.92440433 C11.455249,3.3177663 11.19191,3.71112827 10.7969014,4.10449025 C10.4018928,4.49785222 10.1385537,5.02233484 9.74354516,5.54681747 C9.4802061,6.0713001 9.08519751,6.46466207 8.69018892,6.9891447 C8.42684987,7.38250667 8.16351081,7.90698929 7.90017175,8.30035126 L9.21686704,10.7916437 C9.61187563,10.2671611 9.87521469,9.74267849 10.1385537,9.21819586 L10.1385537,9.21819586 Z" id="Path" fill-opacity="0.85" fill="#000000" fill-rule="nonzero"></path>
            <path d="M4.34509446,23.3792268 C4.21342493,23.9037094 3.95008587,24.2970714 3.81841635,24.821554 C3.81841635,24.9526747 3.81841635,24.9526747 3.68674682,25.0837953 C3.55507729,25.3460366 3.42340776,25.7393986 3.29173823,26.3950019 C3.68674682,26.5261226 3.95008587,27.0506052 4.21342493,27.5750878 C4.21342493,27.0506052 3.95008587,26.5261226 3.55507729,26.1327606 C5.39845069,26.2638812 6.97848504,25.7393986 7.76850222,24.4281921 C7.90017175,24.2970714 7.90017175,24.1659507 8.03184128,24.0348301 C7.63683269,24.5593127 7.2418241,24.6904334 6.3201374,24.6904334 C7.63683269,24.1659507 8.29518034,23.5103475 8.82185845,22.5925029 C8.95352798,22.3302615 9.08519751,22.1991409 9.21686704,21.9368996 C8.03184128,23.1169855 6.84681552,23.3792268 5.39845069,23.1169855 L4.34509446,23.2481061 C4.47676399,23.2481061 4.34509446,23.2481061 4.34509446,23.3792268 L4.34509446,23.3792268 Z" id="Path" fill-opacity="0.85" fill="#000000" fill-rule="nonzero"></path>
            <path d="M4.87177258,21.1501756 C5.13511164,20.625693 5.26678117,19.9700897 5.53012022,19.4456071 C5.79345928,18.9211245 5.92512881,18.2655212 6.18846787,17.7410386 C6.45180693,17.2165559 6.71514599,16.5609526 6.84681552,16.03647 C7.11015457,15.5119874 7.37349363,14.8563841 7.63683269,14.3319015 C7.90017175,13.8074188 8.16351081,13.1518156 8.42684987,12.6273329 C8.55851939,12.3650916 8.55851939,12.233971 8.69018892,11.9717297 C8.82185845,11.5783677 9.08519751,11.3161264 9.21686704,10.9227644 L7.90017175,8.43147192 L7.90017175,8.56259258 C7.63683269,9.0870752 7.2418241,9.48043717 6.97848504,10.0049198 C6.71514599,10.5294024 6.45180693,11.0538851 6.05679834,11.5783677 C5.79345928,11.9717297 5.53012022,12.4962123 5.39845069,12.8895743 C5.39845069,13.0206949 5.26678117,13.0206949 5.26678117,13.1518156 C5.00344211,13.6762982 4.74010305,14.3319015 4.47676399,14.8563841 C4.21342493,15.5119874 3.95008587,16.03647 3.81841635,16.5609526 C3.81841635,16.823194 3.68674682,17.2165559 3.68674682,17.4787972 C3.55507729,17.7410386 3.55507729,18.0032799 3.42340776,18.2655212 C3.29173823,18.9211245 3.02839917,19.5767277 2.89672964,20.232331 L4.21342493,22.7236235 C4.34509446,22.3302615 4.60843352,21.8057789 4.74010305,21.4124169 C4.74010305,21.4124169 4.74010305,21.2812963 4.87177258,21.1501756 L4.87177258,21.1501756 Z" id="Path" fill-opacity="0.85" fill="#000000" fill-rule="nonzero"></path>
            <path d="M2.89672964,20.3634517 L2.50172105,22.7236235 L2.50172105,22.8547442 C2.10671247,22.1991409 1.05335623,21.5435376 1.05335623,21.5435376 C1.84337341,22.5925029 2.37005152,23.7725888 2.50172105,24.821554 C2.10671247,24.9526747 1.58003435,24.821554 0.921686704,24.5593127 C1.58003435,25.214916 2.10671247,25.3460366 2.37005152,25.3460366 C1.71170388,25.3460366 1.05335623,25.8705193 0.395008587,26.2638812 C1.31669529,25.8705193 2.10671247,25.7393986 2.63339058,25.8705193 C1.71170388,28.3618118 0.921686704,31.1153455 0,34 C0.263339058,33.8688793 0.395008587,33.7377587 0.526678117,33.4755174 C0.658347646,32.9510347 1.71170388,29.5418977 3.29173823,24.9526747 C3.29173823,24.821554 3.42340776,24.6904334 3.42340776,24.5593127 L3.42340776,24.4281921 C3.55507729,23.9037094 3.81841635,23.5103475 3.95008587,22.9858648 C3.95008587,22.8547442 4.0817554,22.7236235 4.0817554,22.5925029 L2.89672964,20.3634517 Z" id="Path" fill-opacity="0.85" fill="#000000" fill-rule="nonzero"></path>
            <path d="M9.4802061,11.0538851 C9.4802061,11.1850057 9.34853657,11.1850057 9.34853657,11.3161264 C9.21686704,11.5783677 9.08519751,11.840609 8.95352798,11.9717297 L8.55851939,12.7584536 C8.55851939,12.8895743 8.42684987,13.0206949 8.42684987,13.1518156 C8.29518034,13.5451775 8.03184128,13.9385395 7.90017175,14.4630221 C7.63683269,14.9875048 7.37349363,15.5119874 7.11015457,16.1675907 C6.84681552,16.6920733 6.58347646,17.3476766 6.45180693,17.8721592 C6.18846787,18.3966418 5.92512881,19.0522451 5.79345928,19.5767277 C5.53012022,20.1012104 5.39845069,20.625693 5.13511164,21.2812963 L5.13511164,21.4124169 C4.87177258,21.9368996 4.74010305,22.5925029 4.47676399,23.1169855 L5.53012022,22.9858648 C6.71514599,22.8547442 8.42684987,21.9368996 9.4802061,20.7568137 C10.0068842,20.232331 10.4018928,19.5767277 10.7969014,18.9211245 C11.0602404,18.3966418 11.3235795,17.7410386 11.7185881,17.0854353 C11.9819272,16.5609526 12.2452662,15.9053494 12.3769357,15.2497461 C12.1135967,15.3808667 11.7185881,15.5119874 11.455249,15.643108 L11.0602404,15.643108 C12.2452662,15.2497461 12.9036139,14.3319015 13.430292,13.2829362 C13.1669529,13.5451775 12.6402748,13.8074188 11.9819272,13.9385395 L11.7185881,13.9385395 C12.1135967,13.8074188 12.5086053,13.5451775 12.7719443,13.4140569 L12.9036139,13.2829362 L13.1669529,13.0206949 L13.2986224,12.8895743 C13.430292,12.7584536 13.5619615,12.6273329 13.5619615,12.4962123 C13.5619615,12.4962123 13.5619615,12.3650916 13.693631,12.3650916 C13.693631,12.233971 13.8253006,12.233971 13.8253006,12.1028503 C13.9569701,11.840609 14.0886396,11.447247 14.2203091,11.1850057 C14.2203091,11.0538851 14.3519787,10.9227644 14.3519787,10.7916437 L14.3519787,10.6605231 C14.3519787,10.5294024 14.4836482,10.3982818 14.4836482,10.3982818 C14.4836482,10.2671611 14.4836482,10.1360405 14.6153177,10.0049198 C14.7469873,9.87379915 14.4836482,10.0049198 14.4836482,10.1360405 C14.0886396,10.3982818 13.5619615,10.5294024 13.0352834,10.6605231 L13.9569701,10.5294024 L12.9036139,10.6605231 L12.7719443,10.6605231 L9.4802061,11.0538851 Z" id="Path" fill-opacity="0.85" fill="#000000" fill-rule="nonzero"></path>
            <path d="M13.1669529,4.49785222 C12.9036139,4.89121419 12.5086053,5.41569681 12.2452662,5.94017944 L12.2452662,6.0713001 C11.9819272,6.59578272 11.5869186,7.12026535 11.3235795,7.64474798 C11.0602404,8.16923061 10.7969014,8.69371323 10.4018928,9.34931652 L9.61187563,10.9227644 L12.9036139,10.5294024 C13.8253006,10.1360405 14.2203091,9.74267849 14.6153177,9.0870752 C14.7469873,8.95595455 14.8786568,8.82483389 14.8786568,8.56259258 C15.2736654,8.03810995 15.5370044,7.51362732 15.8003435,6.85802404 C16.0636826,6.33354141 16.3270216,5.80905878 16.4586911,5.28457616 C16.5903607,5.02233484 16.7220302,4.62897287 16.7220302,4.36673156 C16.7220302,4.10449025 16.8536997,3.97336959 16.8536997,3.71112827 C15.8003435,4.2356109 14.2203091,4.49785222 13.1669529,4.49785222 L13.1669529,4.49785222 Z" id="Path" fill-opacity="0.85" fill="#000000" fill-rule="nonzero"></path>
            <path d="M11.0632958,15.6423881 L10.8015988,15.6423881 L11.0632958,15.6423881 Z" id="Path" fill-opacity="0.85" fill="#000000" fill-rule="nonzero"></path>
            <path d="M11.0632958,15.6423881 L10.8015988,15.6423881 L11.0632958,15.6423881 Z" id="Path" fill-opacity="0.85" fill="#000000" fill-rule="nonzero" opacity="0.35"></path>
            <path d="M11.0602404,15.643108 L10.7969014,15.643108 L11.0602404,15.643108 Z" id="Path" fill-opacity="0.85" fill="#000000" fill-rule="nonzero"></path>
            <path d="" id="Path" fill-opacity="0.85" fill="#000000" fill-rule="nonzero"></path>
            <path d="" id="Path" fill-opacity="0.85" fill="#000000" fill-rule="nonzero" opacity="0.35"></path>
            <path d="" id="Path" fill-opacity="0.85" fill="#000000" fill-rule="nonzero"></path>
            <g id="Group" transform="translate(11.454206, 9.198905)" fill="#000000" fill-opacity="0.85" fill-rule="nonzero">
                <polygon id="Path" points="1.68630946 1.43007548 1.68630946 1.92848448 1.58817312 1.92848448 1.58817312 1.43007548 1.38535802 1.43007548 1.38535802 1.32909066 1.88585336 1.32909066 1.88585336 1.42681791"></polygon>
                <polygon id="Path" points="2.3863487 1.52780274 2.18680481 1.82749965 2.08866846 1.82749965 1.88585336 1.52780274 1.88585336 1.92848448 1.78771702 1.92848448 1.78771702 1.32909066 1.9839897 1.32909066 2.18680481 1.62878757 2.3863487 1.32909066 2.58916381 1.32909066 2.58916381 1.92848448 2.48775625 1.92848448"></polygon>
            </g>
            <path d="M18.5282001,33.2984454 L17.2197156,33.2984454 C16.8925944,33.2984454 16.5654733,33.2984454 16.2383522,32.9726878 L16.2383522,29.7151127 C16.5654733,29.7151127 16.8925944,29.7151127 17.2197156,30.0408702 L19.1824424,30.0408702 C19.5095635,30.0408702 19.8366847,29.7151127 20.1638058,29.7151127 L20.8180481,29.0635977 C20.8180481,28.7378402 21.1451692,28.4120827 21.1451692,27.7605676 L21.1451692,10.1696619 L25.0706229,10.1696619 L25.0706229,27.7605676 C25.0706229,28.7378402 25.0706229,29.7151127 24.7435017,30.3666277 C24.4163806,31.0181428 24.0892595,31.6696619 23.4350172,32.3211728 C22.7807749,32.9726878 22.1265326,33.2984454 21.4722904,33.2984454 C20.1638058,32.9726878 19.1824424,33.2984454 18.5282001,33.2984454" id="Path" fill-opacity="0.85" fill="#000000" fill-rule="nonzero"></path>
            <path d="M33.9028936,27.7605676 L29.9774399,13.427237 L29.9774399,27.7605676 L26.3791074,27.7605676 L26.3791074,9.51814686 L31.6130456,9.51814686 L35.5384993,23.52572 L39.7910741,9.51814686 L45.0250123,9.51814686 L45.0250123,27.7605676 L41.4266798,27.7605676 L41.4266798,19.2908723 L41.4266798,18.6393572 L41.4266798,17.6620847 L41.4266798,16.6848122 L41.4266798,15.7075396 L41.4266798,13.427237 L37.174105,27.7605676 L33.9028936,27.7605676 Z M53.2030407,16.3590547 C52.5487984,16.3590547 51.8945562,16.6848122 51.567435,17.0105697 C51.2403139,17.3363272 50.9131928,18.3135997 50.9131928,19.2908723 L55.8200098,19.2908723 L55.8200098,17.9878422 C55.8200098,17.6620847 55.4928887,17.3363272 55.4928887,17.0105697 L54.8386464,16.3590547 L53.2030407,16.3590547 M53.5301619,28.0863251 C52.5487984,28.0863251 51.567435,28.0863251 50.9131928,27.7605676 C49.9318293,27.4348101 49.2775871,27.1090526 48.6233448,26.4575376 C47.9691025,25.8060225 47.6419814,25.1545075 47.3148602,24.177235 C46.9877391,23.1999624 46.660618,22.2226899 46.660618,20.9196598 C46.660618,19.6166298 46.660618,18.6393572 46.9877391,17.6620847 C47.3148602,16.6848122 47.6419814,16.0332971 48.2962237,15.3817821 C48.9504659,14.7302671 49.6047082,14.4045096 50.2589505,14.0787521 C50.9131928,13.7529945 51.8945562,13.7529945 52.8759196,13.7529945 C53.857283,13.7529945 54.5115253,13.7529945 55.4928887,14.0787521 C56.147131,14.4045096 56.8013732,14.7302671 57.4556155,15.3817821 C58.1098578,16.0332971 58.4369789,16.6848122 58.7641001,17.3363272 C59.0912212,17.9878422 59.0912212,18.9651148 59.0912212,19.9423873 L59.0912212,21.8969324 L50.5860716,21.8969324 C50.5860716,22.5484474 50.5860716,22.8742049 50.9131928,23.1999624 C50.9131928,23.52572 51.2403139,23.8514775 51.567435,24.177235 C51.8945562,24.5029925 52.2216773,24.82875 52.5487984,24.82875 C52.8759196,24.82875 53.5301619,25.1545075 53.857283,25.1545075 L55.1657675,25.1545075 C55.4928887,25.1545075 55.8200098,25.1545075 56.147131,24.82875 C56.4742521,24.82875 56.8013732,24.5029925 57.1284944,24.5029925 C57.4556155,24.5029925 57.7827366,24.177235 58.1098578,24.177235 L58.1098578,27.1090526 C57.7827366,27.4348101 57.4556155,27.4348101 57.1284944,27.4348101 C56.8013732,27.4348101 56.4742521,27.7605676 56.147131,27.7605676 C55.8200098,27.7605676 55.4928887,27.7605676 54.8386464,28.0863251 L53.5301619,28.0863251 M66.9421285,25.1545075 L67.9234919,25.1545075 C68.2506131,25.1545075 68.5777342,24.82875 68.9048553,24.82875 L68.9048553,27.7605676 C68.5777342,28.0863251 68.2506131,28.0863251 67.5963708,28.0863251 C66.9421285,28.0863251 66.6150074,28.4120827 65.9607651,28.4120827 C65.3065228,28.4120827 64.6522805,28.4120827 64.3251594,28.0863251 C63.9980383,27.7605676 63.343796,27.7605676 63.0166749,27.4348101 C62.6895537,27.1090526 62.3624326,26.4575376 62.0353114,26.1317801 C61.7081903,25.480265 61.7081903,24.82875 61.7081903,23.8514775 L61.7081903,16.6848122 L59.7454635,16.6848122 L59.7454635,15.0560246 L61.7081903,13.7529945 L62.6895537,10.8211769 L64.9794017,10.8211769 L64.9794017,13.7529945 L68.2506131,13.7529945 L68.2506131,16.6848122 L64.9794017,16.6848122 L64.9794017,23.52572 C64.9794017,24.177235 64.9794017,24.5029925 65.3065228,24.82875 C65.9607651,24.82875 66.2878862,25.1545075 66.9421285,25.1545075 M76.1015204,16.3590547 C75.4472781,16.3590547 74.7930358,16.6848122 74.4659147,17.0105697 C74.1387935,17.3363272 73.8116724,18.3135997 73.8116724,19.2908723 L78.7184895,19.2908723 L78.7184895,17.9878422 C78.7184895,17.6620847 78.3913683,17.3363272 78.3913683,17.0105697 L77.737126,16.3590547 L76.1015204,16.3590547 M76.4286415,28.0863251 C75.4472781,28.0863251 74.4659147,28.0863251 73.8116724,27.7605676 C73.1574301,27.4348101 72.1760667,27.1090526 71.5218244,26.4575376 C70.8675822,25.8060225 70.540461,25.1545075 70.2133399,24.177235 C69.8862187,23.1999624 69.5590976,22.2226899 69.5590976,20.9196598 C69.5590976,19.6166298 69.5590976,18.6393572 69.8862187,17.6620847 C70.2133399,16.6848122 70.540461,16.0332971 71.1947033,15.3817821 C71.8489456,14.7302671 72.5031878,14.4045096 73.1574301,14.0787521 C73.8116724,13.7529945 74.7930358,13.7529945 75.7743992,13.7529945 C76.7557626,13.7529945 77.4100049,13.7529945 78.3913683,14.0787521 C79.0456106,14.4045096 79.6998529,14.7302671 80.3540952,15.3817821 C81.0083374,16.0332971 81.3354586,16.6848122 81.6625797,17.3363272 C81.9897008,17.9878422 81.9897008,18.9651148 81.9897008,19.9423873 L81.9897008,21.8969324 L73.4845513,21.8969324 C73.4845513,22.5484474 73.4845513,22.8742049 73.8116724,23.1999624 C73.8116724,23.52572 74.1387935,23.8514775 74.4659147,24.177235 C74.7930358,24.5029925 75.1201569,24.82875 75.4472781,24.82875 C75.7743992,24.82875 76.4286415,25.1545075 76.7557626,25.1545075 L78.0642472,25.1545075 C78.3913683,25.1545075 78.7184895,25.1545075 79.0456106,24.82875 C79.3727317,24.82875 79.6998529,24.5029925 80.026974,24.5029925 C80.3540952,24.5029925 80.6812163,24.177235 81.0083374,24.177235 L81.0083374,27.1090526 C80.6812163,27.4348101 80.3540952,27.4348101 80.026974,27.4348101 C79.6998529,27.4348101 79.3727317,27.7605676 79.0456106,27.7605676 C78.7184895,27.7605676 78.3913683,27.7605676 77.737126,28.0863251 L76.4286415,28.0863251 M90.4948504,13.7529945 L91.803335,13.7529945 L91.803335,17.3363272 L90.4948504,17.3363272 C89.8406081,17.3363272 89.513487,17.3363272 89.1863659,17.6620847 C88.8592447,17.6620847 88.5321236,17.9878422 88.2050025,18.3135997 C87.8778813,18.6393572 87.5507602,18.9651148 87.5507602,19.2908723 C87.5507602,19.6166298 87.223639,20.2681448 87.223639,20.9196598 L87.223639,28.0863251 L83.2981854,28.0863251 L83.2981854,14.0787521 L85.9151545,14.0787521 L86.5693968,16.0332971 L86.8965179,16.0332971 C87.223639,15.7075396 87.223639,15.3817821 87.5507602,15.0560246 L88.2050025,14.4045096 C88.5321236,14.0787521 88.8592447,14.0787521 89.1863659,14.0787521 C89.513487,13.7529945 89.8406081,13.7529945 90.4948504,13.7529945" id="Shape" fill-opacity="0.85" fill="#000000" fill-rule="nonzero"></path>
            <polygon id="Path" fill-opacity="0.85" fill="#000000" fill-rule="nonzero" points="93.4389407 13.7529945 92.4575772 13.7529945 92.4575772 10.4954194 91.4762138 10.4954194 91.4762138 9.84390438 94.4203041 9.84390438 94.4203041 10.4954194 93.4389407 10.4954194"></polygon>
            <polyline id="Path" fill-opacity="0.85" fill="#000000" fill-rule="nonzero" points="96.710152 13.7529945 95.7287886 10.4954194 95.7287886 14.0787521 95.0745463 14.0787521 95.0745463 10.1696619 96.3830309 10.1696619 97.3643943 13.1014795 98.3457577 10.1696619 99 10.1696619 99 14.0787521 98.3457577 14.0787521 98.3457577 12.124207 98.3457577 11.7984495 98.3457577 11.4726919 98.3457577 10.8211769 97.3643943 14.0787521 96.710152 14.0787521"></polyline>
            <g id="Group" transform="translate(20.683928, 0.377391)" fill="#000000" fill-opacity="0.85" fill-rule="nonzero">
                <path d="M0,6.5900745 L2.73800392,0.117272705 L3.3071947,0.117272705 L6.04519862,6.5900745 L5.35824424,6.5900745 L4.56333987,4.54431732 L1.59635115,4.54431732 L0.798175576,6.5900745 L0,6.5900745 L0,6.5900745 Z M2.96698872,0.798105908 L1.59635115,3.97749924 L4.21986268,3.97749924 L2.96698872,0.798105908 Z M6.7288818,6.5900745 L6.7288818,0.117272705 L9.46688573,0.117272705 C10.6052673,0.117272705 11.4034429,1.1401513 11.4034429,2.15977232 C11.4034429,3.17939333 10.6052673,4.2055295 9.57810691,4.2055295 L7.41256498,4.2055295 L7.41256498,6.5900745 L6.7288818,6.5900745 Z M7.29807258,3.5246963 L9.35239333,3.5246963 C10.1505689,3.5246963 10.6052673,2.84060552 10.6052673,2.04575719 C10.6052673,1.25090885 10.0360765,0.570075649 9.23790093,0.570075649 L7.18358018,0.570075649 L7.18358018,3.5246963 L7.29807258,3.5246963 Z M10.9487445,6.5900745 L13.6834772,0.117272705 L14.252668,0.117272705 L16.9906719,6.5900745 L16.3037175,6.5900745 L15.5088131,4.54431732 L12.5450956,4.54431732 L11.7469201,6.5900745 L10.9487445,6.5900745 Z M14.0236832,0.798105908 L12.6563168,3.97749924 L15.2798283,3.97749924 L14.0236832,0.798105908 Z M20.0688818,0.00325757514 C21.2105346,0.00325757514 22.1232025,0.570075649 22.4634085,1.36492398 L21.8942177,1.70696937 C21.4362482,0.798105908 20.6380726,0.570075649 19.9543894,0.570075649 C18.3580382,0.570075649 17.5598627,1.93499963 17.5598627,3.29666604 C17.5598627,4.77234757 18.587023,6.01999885 19.9543894,6.01999885 C20.6413438,6.01999885 21.5507406,5.68121104 22.0087101,4.77234757 L22.5779009,5.00037783 C22.1199313,6.01999885 20.9815498,6.47605937 19.9543894,6.47605937 C18.1323247,6.47605937 16.8794507,4.77234757 16.8794507,3.06863578 C16.9906719,1.70696937 18.1323247,0.00651515027 20.0688818,0.00651515027 L20.0688818,0.00325757514 Z M28.6198283,0.00325757514 L28.6198283,6.47605937 L27.9361452,6.47605937 L27.9361452,3.41068117 L24.1742521,3.41068117 L24.1742521,6.4728018 L23.4872977,6.4728018 L23.4872977,0.00651515027 L24.1742521,0.00651515027 L24.1742521,2.84386309 L28.0506376,2.84386309 L28.0506376,0.00977272541 L28.6198283,0.00325757514 Z M34.5505346,5.9092413 L34.5505346,6.47605937 L30.2161795,6.47605937 L30.2161795,0 L34.5505346,0 L34.5505346,0.566818074 L30.8965915,0.566818074 L30.8965915,2.95136307 L34.0892938,2.95136307 L34.0892938,3.52143872 L30.8965915,3.52143872 L30.8965915,6.01674128 L34.5472634,6.01674128 L34.5505346,5.9092413 Z" id="Shape"></path>
            </g>
        </g>
        <g id="selenium" transform="translate(5.000000, 11.000000)" fill="#000000" fill-opacity="0.85" fill-rule="nonzero">
            <g id="selenium-seeklogo.com">
                <path d="M27.4397899,0.000397355251 C27.5165654,-0.00438630177 27.5894117,0.034324103 27.627579,0.10018824 C27.6657464,0.166052377 27.6625836,0.247592632 27.6194258,0.310389458 L27.6194258,0.310389458 L19.8501708,10.7172672 C19.7932333,10.7806412 19.7114872,10.81692 19.6256258,10.81692 C19.5397644,10.81692 19.4580183,10.7806412 19.4010808,10.7172672 L19.4010808,10.7172672 L16.6616326,7.70591536 C16.5947229,7.63742503 16.4999051,7.60258288 16.4038592,7.61119292 C16.3078134,7.61980295 16.2209216,7.67093449 16.1676337,7.75019994 L16.1676337,7.75019994 L14.5060011,9.8315755 C14.4534283,9.94877753 14.4706985,10.0850174 14.5509101,10.1858522 L14.5509101,10.1858522 L19.4908988,15.234295 C19.5478363,15.297669 19.6295824,15.3339479 19.7154438,15.3339479 C19.8013052,15.3339479 19.8830513,15.297669 19.9399888,15.234295 L19.9399888,15.234295 L29.6403303,4.47314057 C29.6976013,4.41244419 29.7863567,4.39182966 29.8650787,4.42093998 C29.9438008,4.45005031 29.9969254,4.52313012 29.9996022,4.60599433 L29.9996022,4.60599433 L29.9996022,30.7781848 C30.0033186,30.8379582 29.9808574,30.8964325 29.9379147,30.938778 C29.8949722,30.9811235 29.8356734,31.0032725 29.7750573,30.9996078 L29.7750573,30.9996078 L0.224942722,30.9996078 C0.164326576,31.0032725 0.105027768,30.9811235 0.0620851942,30.938778 C0.0191426208,30.8964325 -0.00331866931,30.8379582 0.000397779089,30.7781848 L0.000397779089,30.7781848 L0.000397779089,0.221820286 C-0.00331866931,0.16204693 0.0191426208,0.103572597 0.0620851942,0.0612270853 C0.105027768,0.0188815737 0.164326576,-0.00326742067 0.224942722,0.000397355251 L0.224942722,0.000397355251 L27.4397899,0.000397355251 Z M19.8052618,17.6699472 C18.4682705,17.6467647 17.1797394,18.1633482 16.2384471,19.0999152 C15.2971549,20.0364821 14.7848647,21.3116797 14.8203641,22.629821 C14.8203641,25.6854573 17.0658135,27.6339792 19.9848977,27.6339792 C21.33618,27.6671383 22.6612492,27.2627002 23.7572527,26.4825799 C23.8588516,26.3916078 23.8779256,26.2411375 23.8021618,26.1283032 L23.8021618,26.1283032 L22.9938,24.9326194 C22.9029169,24.8298601 22.748266,24.8107975 22.6345281,24.8883349 C21.931918,25.3614958 21.1049764,25.6230533 20.2543516,25.6411728 C18.682537,25.6411728 17.6945393,24.6669119 17.5149034,23.5155126 C17.5181631,23.4679922 17.556531,23.4301578 17.6047213,23.4269434 L17.6047213,23.4269434 L24.3859786,23.4269434 C24.5305497,23.4173003 24.6456535,23.303797 24.6554326,23.1612359 L24.6554326,23.1612359 L24.6554326,22.8955285 C24.6554326,19.7956074 22.679437,17.6699472 19.8052618,17.6699472 Z M13.1138224,15.987133 C11.7497894,14.8876775 10.0238526,14.3203642 8.26365169,14.3928879 C5.20984046,14.3928879 3.32366294,16.1642714 3.32366294,18.2899314 C3.32366294,23.1169514 10.7785551,21.5669909 10.7785551,23.8255048 C10.7785551,24.5340582 10.0600112,25.2426116 8.53310562,25.2426116 C7.08293004,25.2544112 5.68380981,24.715231 4.62602361,23.7369356 C4.56287241,23.6787146 4.47731985,23.6501894 4.39129653,23.6586722 C4.30527319,23.6671549 4.22714295,23.7118208 4.17693372,23.7812201 L4.17693372,23.7812201 L3.00930002,25.3754653 C2.93353618,25.4882995 2.95261017,25.6387699 3.054209,25.729742 C4.2667517,26.8368566 5.97329327,27.5896946 8.35346966,27.5896946 C11.8563708,27.5896946 13.5629123,25.8183111 13.6527303,23.5155126 C13.6527303,18.7327773 6.19783822,20.1055996 6.19783822,18.0685086 C6.19783822,17.3156705 6.87147304,16.7842556 8.03910674,16.7842556 C9.32624881,16.7668626 10.5798175,17.1893406 11.5869169,17.9799394 C11.6461245,18.02777 11.7223902,18.0500364 11.7984615,18.0417015 C11.8745327,18.0333667 11.9439817,17.9951349 11.9910977,17.9356547 L11.9910977,17.9356547 L13.1587315,16.3856943 C13.2072364,16.3273098 13.2298168,16.2521045 13.2213644,16.1770909 C13.2129121,16.1020773 13.1741413,16.033594 13.1138224,15.987133 Z M19.8501708,19.6184691 C21.071653,19.5510932 22.1261176,20.4535642 22.2303472,21.6555601 C22.2270875,21.7030804 22.1887195,21.7409148 22.1405292,21.7441292 L22.1405292,21.7441292 L17.5598123,21.7441292 C17.5116219,21.7409148 17.473254,21.7030804 17.4699943,21.6555601 C17.6201573,20.4771758 18.6459314,19.5992597 19.8501708,19.6184691 Z" id="Shape"></path>
            </g>
            <path d="M44.9,26.1 C49.52,26.1 51.53,23.79 51.53,20.34 C51.53,16.98 49.61,15.75 46.61,14.73 L44.81,14.13 C42.26,13.32 41.45,12.39 41.45,10.26 C41.45,8.28 42.86,6.99 45.56,6.99 C47.78,6.99 49.4,7.53 50.51,8.07 L50.51,6.39 C49.46,5.85 47.99,5.28 45.65,5.28 C41.54,5.28 39.47,7.5 39.47,10.47 C39.47,13.5 41.06,14.91 44.06,15.9 L45.8,16.5 C48.35,17.31 49.55,18.24 49.55,20.49 C49.55,22.89 48.11,24.36 44.78,24.36 C42.68,24.36 40.67,23.85 39.17,23.04 L39.17,24.69 C40.49,25.44 42.47,26.1 44.9,26.1 Z M59.8571429,25.98 C62.1971429,25.98 63.8471429,25.32 64.7471429,24.72 L64.7471429,23.28 C63.5171429,23.91 62.1371429,24.36 60.1571429,24.36 C56.6771429,24.36 54.8771429,22.71 54.8171429,18.66 L65.1971429,18.66 L65.1971429,17.58 C65.1971429,13.08 63.3371429,10.68 59.3171429,10.68 C55.8671429,10.68 52.8671429,12.99 52.8671429,18.15 L52.8671429,18.51 C52.8671429,23.22 55.2071429,25.98 59.8571429,25.98 Z M63.2171429,17.16 L54.8471429,17.16 C55.0871429,13.5 57.1271429,12.21 59.2571429,12.21 C61.9271429,12.21 63.2171429,13.77 63.2171429,17.16 Z M69.2042857,25.74 L69.2042857,4.26 L67.3142857,4.26 L67.3142857,25.74 L69.2042857,25.74 Z M78.2814286,25.98 C80.6214286,25.98 82.2714286,25.32 83.1714286,24.72 L83.1714286,23.28 C81.9414286,23.91 80.5614286,24.36 78.5814286,24.36 C75.1014286,24.36 73.3014286,22.71 73.2414286,18.66 L83.6214286,18.66 L83.6214286,17.58 C83.6214286,13.08 81.7614286,10.68 77.7414286,10.68 C74.2914286,10.68 71.2914286,12.99 71.2914286,18.15 L71.2914286,18.51 C71.2914286,23.22 73.6314286,25.98 78.2814286,25.98 Z M81.6414286,17.16 L73.2714286,17.16 C73.5114286,13.5 75.5514286,12.21 77.6814286,12.21 C80.3514286,12.21 81.6414286,13.77 81.6414286,17.16 Z M87.5685714,25.74 L87.5685714,13.56 C88.8885714,12.81 90.5685714,12.3 92.0985714,12.3 C94.4985714,12.3 95.2785714,13.08 95.2785714,15.06 L95.2785714,25.74 L97.1685714,25.74 L97.1685714,14.64 C97.1685714,11.82 95.7285714,10.68 92.9085714,10.68 C91.0485714,10.68 89.0685714,11.31 87.5985714,12.27 L87.4785714,12.27 L87.4785714,10.95 L85.6785714,10.95 L85.6785714,25.74 L87.5685714,25.74 Z M102.045714,7.86 L102.045714,5.79 L100.095714,5.79 L100.095714,7.86 L102.045714,7.86 Z M102.015714,25.74 L102.015714,10.95 L100.125714,10.95 L100.125714,25.74 L102.015714,25.74 Z M109.472857,25.98 C111.242857,25.98 112.952857,25.32 114.422857,24.36 L114.512857,24.36 L114.692857,25.74 L116.312857,25.74 L116.312857,10.92 L114.452857,10.92 L114.452857,23.04 C113.132857,23.82 111.602857,24.36 110.012857,24.36 C107.732857,24.36 106.862857,23.55 106.862857,21.51 L106.862857,10.92 L104.972857,10.92 L104.972857,21.75 C104.972857,24.6 106.622857,25.98 109.472857,25.98 Z M121.22,25.74 L121.22,13.56 C122.54,12.78 123.95,12.3 125.36,12.3 C127.37,12.3 128.18,13.08 128.18,15.06 L128.18,25.74 L130.07,25.74 L130.07,14.64 C130.07,14.25 130.04,13.92 129.98,13.56 C131.48,12.72 132.89,12.3 134.15,12.3 C136.16,12.3 137.06,13.08 137.06,15.06 L137.06,25.74 L138.92,25.74 L138.92,14.64 C138.92,11.82 137.39,10.68 134.84,10.68 C133.19,10.68 131.45,11.22 129.68,12.33 L129.56,12.33 C128.93,11.22 127.73,10.68 126.05,10.68 C124.4,10.68 122.69,11.34 121.25,12.27 L121.13,12.27 L121.13,10.95 L119.33,10.95 L119.33,25.74 L121.22,25.74 Z" id="Selenium"></path>
        </g>
        <g id="postman" transform="translate(5.000000, 76.000000)" fill-rule="nonzero">
            <path d="M36.348267,20.789578 L36.348267,13.6555756 C36.3515466,13.5752832 36.3849683,13.499185 36.4418557,13.442482 C36.5168248,13.380781 36.6111742,13.3475993 36.7082237,13.3488032 L38.7064974,13.3488032 C39.3009401,13.3220378 39.8850983,13.5166015 40.3448144,13.8944051 C40.7767624,14.3473576 41.000964,14.9619319 40.9577692,15.5878299 L40.9577692,15.6804793 C41.0092578,16.3258007 40.7811162,16.9621372 40.3314446,17.4274349 C39.8686432,17.8124445 39.2803711,18.0121554 38.6797577,17.9874489 L37.2399311,17.9874489 L37.2399311,20.7875191 C37.2440449,20.8832568 37.1926225,20.9728179 37.1062329,21.0139954 C36.9149543,21.1349881 36.6711869,21.1349881 36.4799083,21.0139954 C36.3976325,20.9697296 36.3462101,20.8822274 36.3462101,20.7875191 L36.348267,20.789578 Z M37.2409595,17.2966963 L38.6807862,17.2966963 C39.0613118,17.3244911 39.4336098,17.1886053 39.7061485,16.9230104 C39.9714879,16.6080025 40.1051861,16.2024041 40.0794749,15.7906291 L40.0794749,15.6568022 C40.1048322,15.2491284 39.9709746,14.847538 39.7061485,14.5367741 C39.4336098,14.2711793 39.0602834,14.1249991 38.6807862,14.1630883 L37.2409595,14.1630883 L37.2409595,17.2966963 Z M44.0595672,18.8562942 L44.0595672,15.6568022 C44.0080786,15.0114808 44.2362202,14.3751443 44.6858918,13.9098467 C45.6666041,13.1660225 47.0219231,13.1660225 48.0026354,13.9098467 C48.4582377,14.3710347 48.6875815,15.0113449 48.6299884,15.6568022 L48.6299884,18.8562942 C48.6910471,19.5068484 48.4618013,20.151163 48.0036638,20.6166325 C47.0229516,21.3604567 45.6676326,21.3604567 44.6869203,20.6166325 C44.2347628,20.1474319 44.006527,19.5059559 44.0605957,18.8562942 L44.0595672,18.8562942 Z M44.9522598,18.8562942 C44.9522598,19.8548487 45.4181465,20.3633908 46.2840994,20.3633908 C46.6677104,20.3942739 47.0472076,20.2604471 47.312547,19.989705 C47.5799314,19.6757318 47.7096825,19.267179 47.6725037,18.8562942 L47.6725037,15.6568022 C47.7107734,15.2498762 47.5806672,14.8450424 47.312547,14.5367741 C47.0369231,14.2691204 46.6574259,14.1311757 46.2840994,14.1630883 C45.3512974,14.1630883 44.9522598,14.6572183 44.9522598,15.6557728 L44.9522598,18.8562942 Z M51.8264036,20.0154409 C51.8248615,19.8933485 51.8676149,19.7748405 51.946732,19.6819031 C52.0012397,19.5913126 52.0948285,19.5326347 52.1997301,19.5223403 C52.2964042,19.5388113 52.3848507,19.5861655 52.4527282,19.6561672 L52.7592056,19.9495569 C52.8990745,20.0864721 53.0677399,20.1914747 53.2528605,20.2563293 C53.504797,20.347126 53.7708352,20.3924379 54.0385945,20.3901562 C54.4276569,20.4042364 54.809361,20.2814927 55.117436,20.0432357 C55.3879177,19.7961707 55.530872,19.4358676 55.5041323,19.0704172 C55.5247013,18.7183496 55.39306,18.373488 55.1441757,18.1233347 C54.9014965,17.8735793 54.6054326,17.682114 54.2782228,17.5633206 L53.1592718,17.16184 C52.819884,17.0146304 52.5216342,16.7860952 52.2933189,16.4947644 C52.0382639,16.1632855 51.9107364,15.7535694 51.9333622,15.3345883 C51.9230777,14.9979622 51.997126,14.663395 52.1462509,14.3617698 C52.2696646,14.1074987 52.4650696,13.8944051 52.7057264,13.748225 C52.9320849,13.6078828 53.1792362,13.5043408 53.4379811,13.4414526 C53.7078867,13.3722733 53.9852175,13.3363204 54.2638245,13.3343911 C54.6896018,13.3343911 55.1122938,13.4013045 55.5154453,13.5341019 C55.9185967,13.6668994 56.1150302,13.8408743 56.1150302,14.0405852 C56.1140866,14.1559382 56.0766407,14.2680234 56.0080717,14.3607403 C55.9566493,14.4678018 55.8476338,14.5357447 55.7283339,14.5336858 C55.5678484,14.4854623 55.411944,14.4231094 55.2624471,14.3473576 C54.9508275,14.2155896 54.6145251,14.1476467 54.2771943,14.1476467 C53.9136037,14.1279689 53.5522895,14.2160569 53.2384622,14.4008884 C52.9673926,14.5914876 52.8156475,14.9101077 52.8383961,15.2409094 C52.8281116,15.5466524 52.9546107,15.8400421 53.1849829,16.0407824 C53.4472371,16.2518171 53.7444585,16.4144683 54.0643057,16.5205004 L55.0927533,16.921981 C55.8718549,17.3011761 56.3491962,18.1096685 56.305293,18.975709 C56.3484878,19.5933715 56.1201725,20.1966219 55.67794,20.6289857 C55.200975,21.0156841 54.599396,21.2148172 53.9861436,21.1889998 C53.4309166,21.2058485 52.8820217,21.0671557 52.4013059,20.7885485 C52.0002113,20.5208948 51.8150907,20.2552999 51.8150907,20.0164704 L51.8264036,20.0154409 Z M59.0193663,13.7492544 C59.0149096,13.6475476 59.0482511,13.5477937 59.112955,13.4692474 C59.1629912,13.3931833 59.2482341,13.347806 59.3392135,13.3488032 L63.6545797,13.3488032 C63.7491969,13.3457149 63.8397003,13.3899807 63.894208,13.4692474 C63.9484491,13.5523943 63.9764037,13.6499707 63.9744269,13.7492544 C63.9754554,13.8480804 63.9476873,13.9448475 63.894208,14.0292614 C63.8407287,14.1136753 63.7502253,14.1610294 63.6545797,14.1630883 L61.9627834,14.1630883 L61.9627834,20.829726 C61.9638118,20.9244343 61.911361,21.0119365 61.8290852,21.0562023 C61.6378066,21.1771951 61.3940392,21.1771951 61.2027606,21.0562023 C61.1204848,21.0119365 61.0690624,20.9244343 61.0690624,20.829726 L61.0690624,14.1630883 L59.3371566,14.1630883 C59.2461772,14.1640855 59.1609343,14.1187082 59.1108981,14.0426441 C59.0444946,13.958994 59.0069665,13.8560537 59.0039396,13.7492544 L59.0193663,13.7492544 Z M66.9846931,20.7885485 L66.9846931,13.8017557 C66.9641241,13.698812 66.9888069,13.5927799 67.0484568,13.5073366 C67.1081068,13.4218933 67.2006671,13.3632153 67.3055688,13.3488032 L67.4392669,13.3488032 C67.7066633,13.3488032 67.9720028,13.5341019 68.144782,13.9088172 L69.8108672,17.1083092 L71.4892937,13.9088172 C71.6888125,13.5351314 71.9284408,13.3488032 72.1948087,13.3488032 C72.404612,13.3179201 72.6000171,13.4599824 72.6339559,13.6679288 C72.6473257,13.7019003 72.6473257,13.7399895 72.6339559,13.7749903 L72.6339559,20.7617832 C72.6442403,20.8585503 72.5969318,20.9511997 72.5136275,21.0016421 C72.307938,21.1087036 72.0816795,21.1087036 71.8862744,21.0016421 C71.7957711,20.9573763 71.7422918,20.8616386 71.7525763,20.7617832 L71.7525763,15.2151735 L70.1636247,18.2551027 C70.1080885,18.40643 69.9651343,18.5073149 69.803668,18.5083443 C69.6535147,18.5021677 69.5239303,18.4002534 69.4848493,18.2551027 L67.8187641,15.1616428 L67.8187641,20.7885485 C67.8293474,20.8816925 67.7815068,20.9717358 67.6984357,21.0150248 C67.6058755,21.0767911 67.5030307,21.1128214 67.3919584,21.1220863 C67.2829429,21.1241452 67.1759844,21.0912032 67.085481,21.0294369 C67.0074924,20.9767412 66.9702265,20.881232 66.9918922,20.789578 L66.9846931,20.7885485 Z M75.6822746,20.7350178 C75.6761039,20.7082524 75.6761039,20.681487 75.6822746,20.6547217 L77.8399577,13.6679288 C77.9068068,13.4548353 78.079586,13.3488032 78.3726936,13.3488032 C78.6658012,13.3488032 78.8519502,13.4558647 78.9054294,13.6679288 L81.103222,20.6804576 C81.0929375,20.7936957 81.0271169,20.8914923 80.9304428,20.9481114 C80.8131998,21.0160542 80.6795016,21.053114 80.5437465,21.0551729 C80.4028492,21.0757616 80.2681225,20.9903183 80.2249277,20.855462 L79.7724108,19.3627775 L76.9750333,19.3627775 L76.5091465,20.9223754 C76.4700655,21.0613495 76.3312251,21.1488517 76.1903277,21.1220863 C76.0628002,21.1200274 75.9383581,21.0829677 75.8303711,21.0150248 C75.7234125,20.9635529 75.655535,20.8544325 75.6575464,20.7350178 L75.6822746,20.7350178 Z M77.2146616,18.6020231 L79.5852333,18.6020231 L78.3860634,14.6026582 L77.2146616,18.6020231 Z M84.2081054,20.7885485 L84.2081054,13.6545461 C84.2081054,13.4548353 84.3418036,13.3477093 84.6472525,13.3477093 C84.784036,13.3457149 84.9167058,13.393069 85.020579,13.4816006 C85.1501634,13.6020448 85.2540366,13.7471955 85.3270564,13.9077878 L88.0010202,19.0807116 L88.0010202,13.6555756 C87.9999917,13.5608673 88.0524426,13.4733651 88.1347184,13.4290993 C88.3404079,13.3220378 88.5666664,13.3220378 88.7620714,13.4290993 C88.8443472,13.4733651 88.8957845,13.5608673 88.8957845,13.6555756 L88.8957845,20.789578 C88.8967981,20.8842862 88.8443472,20.9717884 88.7620714,21.0160542 C88.6725965,21.0778205 88.5646095,21.1117919 88.455594,21.1087036 C88.200539,21.0953209 87.9763374,20.9336992 87.8827487,20.6969286 L85.1265091,15.364442 L85.1265091,20.789578 C85.1370924,20.882722 85.0892517,20.9727653 85.0061807,21.0160542 C84.8149021,21.137047 84.5711347,21.137047 84.3798561,21.0160542 C84.2770114,20.9903183 84.2101623,20.8925217 84.2204467,20.789578 L84.2081054,20.7885485 Z" id="Shape" fill="#FFFFFF"></path>
            <path d="M28.6349098,6.22097741 C24.6836141,1.09849604 18.0377856,-1.1353835 11.7992223,0.559070746 C5.56065907,2.253525 0.95321374,7.54586357 0.130455645,13.9644069 C-0.69230245,20.3829501 2.42800762,26.6676665 8.03921783,29.8836295 C13.650428,33.0995925 20.6428434,32.6178157 25.7593703,28.6606577 C32.7528141,23.2581693 34.0178047,13.2129174 28.6369667,6.22200685 L28.6349098,6.22097741 Z" id="Path" fill-opacity="0.85" fill="#000000"></path>
            <path d="M21.3761266,10.1946065 L14.6367093,16.9940416 L12.7320243,15.0339925 C19.3655115,8.39412013 20.0309171,8.99428224 21.3894964,10.1956359 L21.3761266,10.1946065 Z" id="Path" fill="#FFFFFF"></path>
            <path d="M14.6356809,17.1813993 C14.5760309,17.1803698 14.5194663,17.1556633 14.4762715,17.1144858 L12.5582167,15.1945848 C12.4687417,15.091641 12.4687417,14.9547258 12.5582167,14.861047 C19.0847453,8.32823613 19.9908076,8.62265527 21.5365644,10.0226904 C21.5879868,10.0638679 21.6188402,10.1287224 21.6167833,10.1956359 C21.6270678,10.2615199 21.6013566,10.3274039 21.5499342,10.3685814 L14.810517,17.1144858 C14.7632084,17.1577222 14.7015015,17.1813993 14.6377378,17.1813993 L14.6356809,17.1813993 Z M13.0642129,15.0484046 L14.6356809,16.6213852 L21.0295397,10.2213718 C20.5722319,9.64865153 19.7582448,9.51086269 19.1382245,9.90121674 C17.9791641,10.4344654 16.1145885,12.007446 13.0642129,15.0484046 Z" id="Shape" fill="#252525"></path>
            <path d="M16.5671055,18.8748241 L14.730298,17.0094832 L21.4697153,10.3428455 C23.2797831,12.1165664 20.5903926,15.0761994 16.5681339,18.876883 L16.5671055,18.8748241 Z" id="Path" fill="#FFFFFF"></path>
            <path d="M16.5671055,19.114683 C16.508484,19.1095359 16.4519194,19.0868882 16.4076961,19.0477696 L14.5431206,17.2081647 C14.5153525,17.1402218 14.5153525,17.0640434 14.5431206,16.9950711 C14.5225516,16.9394814 14.5225516,16.8777152 14.5431206,16.8221256 L21.2825378,10.0762211 C21.3802403,9.98357175 21.5314221,9.98357175 21.6291247,10.0762211 C22.0713571,10.482849 22.3140708,11.0624223 22.2955587,11.661555 C22.2955587,13.4610119 20.2438057,15.7278334 16.754283,19.0343869 C16.7080028,19.0807116 16.646296,19.1085064 16.5815038,19.114683 L16.5671055,19.114683 Z M15.0758564,16.9816884 L16.5815038,18.488785 C19.2554676,15.9563686 21.7751642,13.3693919 21.8029323,11.6090537 C21.8173306,11.2353678 21.6939169,10.8699175 21.4563455,10.5827044 L15.0758564,16.9816884 Z" id="Shape" fill="#252525"></path>
            <path d="M12.7844751,15.0741406 L14.1163148,16.4072622 C14.1337984,16.4227038 14.1430544,16.444322 14.1430544,16.4669696 C14.1430544,16.4896172 14.13277,16.5122649 14.1163148,16.526677 L11.3189373,17.1268391 C11.2031951,17.1496383 11.0862011,17.093827 11.0309971,16.9894789 C10.9757932,16.8851308 10.995423,16.7569013 11.079309,16.6738866 L12.717626,15.0473752 C12.717626,15.0473752 12.7711053,15.0473752 12.797845,15.0741406 L12.7844751,15.0741406 Z" id="Path" fill="#FFFFFF"></path>
            <path d="M11.2397468,17.3955223 C11.05874,17.3934634 10.89316,17.2977257 10.8005997,17.1422806 C10.694474,16.9437414 10.7326636,16.6988402 10.8941884,16.5421185 L12.5191357,14.9022245 C12.6402649,14.7934634 12.8237837,14.7934634 12.944913,14.9022245 L14.2767526,16.2353461 C14.3559431,16.3104951 14.3867965,16.4237332 14.3569716,16.5287359 C14.3271466,16.6337385 14.2387001,16.7171229 14.1307131,16.7418294 L11.3333356,17.3419915 L11.2397468,17.3955223 Z M12.7309959,15.3675303 L11.2253486,16.8746269 L13.7162487,16.3413782 L12.7309959,15.3675303 Z" id="Shape" fill="#252525"></path>
            <path d="M24.9592381,6.44951255 C23.9955826,5.52095986 22.4827362,5.48184123 21.4625162,6.36098092 C20.4422961,7.24012061 20.2798014,8.74412891 21.0634785,9.83018555 C21.8471556,10.9162422 23.3342908,11.2199263 24.4830668,10.5302031 L22.672999,8.71839297 L24.9592381,6.44951255 Z" id="Path" fill="#FFFFFF"></path>
            <path d="M23.1604832,11.141689 C22.0291908,11.1272769 21.014113,10.4365243 20.5852503,9.38752739 C20.1563877,8.3385305 20.3939591,7.13511798 21.1899775,6.32803892 C22.2985888,5.23647672 24.0768852,5.23647672 25.1854965,6.32803892 C25.2367081,6.37107026 25.2662824,6.43457105 25.2662824,6.50149915 C25.2662824,6.56842725 25.2367081,6.63192804 25.1854965,6.67495938 L23.0278134,8.71530466 L24.6661305,10.3150506 C24.7198646,10.3665688 24.7448587,10.4412384 24.7329796,10.5147615 C24.724752,10.5868222 24.685671,10.6485884 24.626021,10.6877071 C24.1858295,10.9633525 23.679576,11.115197 23.1604832,11.1272769 L23.1604832,11.141689 Z M23.1604832,5.96876521 C22.2164787,5.9742923 21.3678395,6.54591776 21.0071957,7.41917428 C20.6465518,8.2924308 20.8442393,9.29700813 21.5087963,9.96813019 C22.1875717,10.6496179 23.2119056,10.845211 24.0932852,10.4622602 L22.5218172,8.88927961 C22.4703948,8.8481021 22.4415983,8.78633585 22.4415983,8.72251072 C22.4415983,8.65868559 22.4724517,8.5958899 22.5218172,8.55574183 L24.5992814,6.46289524 C24.1862531,6.14584137 23.6809772,5.97267473 23.1604832,5.96979464 L23.1604832,5.96876521 Z" id="Shape" fill="#252525"></path>
            <path d="M24.9993475,6.48863118 L22.7347059,8.75545272 L24.5447737,10.5672629 C24.7271285,10.4624301 24.8968984,10.3370525 25.0507699,10.193577 C26.0382227,9.14923931 26.0204783,7.5092581 25.0106604,6.48657231 L24.9993475,6.48863118 Z" id="Path" fill="#FFFFFF"></path>
            <path d="M24.4923228,10.7690326 C24.430616,10.7721209 24.3730229,10.7484439 24.3329135,10.7021192 L22.5228456,8.89030904 C22.4714233,8.84913154 22.4426267,8.78736529 22.4426267,8.72354016 C22.4426267,8.65971503 22.4734802,8.59691934 22.5228456,8.55677127 L24.7874873,6.33009779 C24.8317106,6.26318435 24.9067872,6.22303629 24.9870061,6.22303629 C25.0672251,6.22303629 25.1412733,6.26421379 25.186525,6.33009779 C25.7233018,6.85673335 26.0257713,7.57743109 26.0257713,8.32978028 C26.0257713,9.08212948 25.7233018,9.80282722 25.186525,10.3294628 C25.0302009,10.4962317 24.8502226,10.638294 24.6537891,10.7556499 C24.6044236,10.7803564 24.5468306,10.7865331 24.4943797,10.7690326 L24.4923228,10.7690326 Z M23.026785,8.71530466 L24.5324323,10.2224013 C24.6352771,10.1503406 24.734008,10.0700445 24.8255399,9.98254231 C25.268004,9.54089463 25.51699,8.94134574 25.5176857,8.31588288 C25.5180761,7.7564523 25.3143706,7.21613134 24.9448398,6.79643302 L23.026785,8.71530466 Z" id="Shape" fill="#252525"></path>
            <path d="M21.6558643,10.4756429 C21.2815094,10.1235753 20.699408,10.1235753 20.3240246,10.4756429 L14.2901225,16.5019705 L15.2877166,17.5149371 L21.6815755,11.9147966 C21.8783757,11.7261754 21.9885525,11.4645316 21.9860634,11.1918111 C21.9834889,10.9190907 21.8684737,10.6595414 21.6682057,10.4746135 L21.6558643,10.4756429 Z" id="Path" fill="#FFFFFF"></path>
            <path d="M15.2342374,17.754796 C15.1745874,17.7537666 15.1180228,17.7290601 15.074828,17.6878826 L14.0628355,16.674916 C13.9733606,16.5719722 13.9733606,16.435057 14.0628355,16.3413782 L20.0967377,10.341816 C20.4517636,9.98451624 20.9891639,9.88129056 21.4511037,10.0816648 C21.9130436,10.282039 22.2052675,10.7451281 22.1875717,11.2487505 C22.1742019,11.5853766 22.025077,11.9024434 21.7761927,12.1289197 L15.3823338,17.7290601 C15.3361048,17.7619733 15.2792102,17.7763024 15.2229244,17.7692081 L15.2342374,17.754796 Z M14.5287223,16.5019705 L15.1951564,17.169046 L21.455317,11.7130269 C21.6108009,11.5787888 21.7026355,11.3852273 21.7083151,11.1797782 C21.7165427,10.9738907 21.6332385,10.7731504 21.4820567,10.6341763 C21.191006,10.3438749 20.7210054,10.3438749 20.4299547,10.6341763 L14.5287223,16.5019705 Z" id="Shape" fill="#252525"></path>
            <path d="M9.61479958,23.3683191 C9.57965839,23.4156911 9.57965839,23.48051 9.61479958,23.5278819 L9.88219596,24.6880581 C9.90482181,24.8260027 9.83900117,24.9639473 9.71764435,25.0329197 C9.59628753,25.101892 9.44304883,25.0864504 9.33711873,24.9948305 L7.51265265,23.2447866 L13.199968,17.5108193 L15.1715021,17.5108193 L16.5033417,18.843941 C14.4258775,20.6629572 12.1087851,22.1875542 9.61685648,23.377584 L9.61479958,23.3683191 Z" id="Path" fill="#FFFFFF"></path>
            <path d="M9.49549966,25.3273388 C9.34431786,25.3242505 9.20136364,25.2624842 9.09440509,25.1543933 L7.3624993,23.4208204 C7.31107692,23.3796429 7.28228038,23.3178767 7.28228038,23.2540515 C7.28228038,23.1902264 7.31313381,23.1274307 7.3624993,23.0872826 L13.0909525,17.3533154 C13.1231458,17.3190432 13.1652021,17.2956561 13.2112809,17.2864019 L15.2095546,17.2864019 C15.260977,17.267872 15.3175416,17.267872 15.368964,17.2864019 L16.7008037,18.6195236 C16.7522261,18.6668777 16.7769088,18.7368795 16.7676528,18.8048223 C16.7697097,18.8717358 16.7398847,18.9365903 16.6874339,18.9777678 L16.5804753,19.0704172 C14.4940745,20.8115303 12.1986509,22.2850725 9.74746933,23.4568507 L10.0148657,24.5233481 C10.0560036,24.6921758 10.0169226,24.8702685 9.91202095,25.0071837 C9.80711929,25.1440989 9.64462457,25.2264539 9.46978847,25.2295422 L9.49549966,25.3273388 Z M7.87055242,23.2344922 L9.44202038,24.8342382 C9.47287381,24.8610036 9.51812551,24.8610036 9.54897894,24.8342382 C9.56954789,24.8064434 9.56954789,24.7683542 9.54897894,24.7415888 L9.28158256,23.5814127 C9.23838776,23.4094966 9.32272046,23.2314039 9.48110139,23.1552255 C11.8664951,21.9992697 14.1029203,20.5578135 16.1413282,18.8624708 L15.0388323,17.7681787 L13.2534473,17.7681787 L7.87055242,23.2344922 Z" id="Shape" fill="#252525"></path>
            <path d="M6.13761819,24.6067325 L7.46945785,23.2736108 L9.52121085,25.3273388 L6.25794656,25.1008625 C6.14339173,25.0912544 6.04779169,25.0094339 6.02051452,24.8976532 C5.99323735,24.7858725 6.04038817,24.6691502 6.13761819,24.6077619 L6.13761819,24.6067325 Z" id="Path" fill="#FFFFFF"></path>
            <path d="M9.56132031,25.5280791 L6.31142583,25.3016029 C6.11747423,25.2852452 5.95027339,25.1585496 5.88190703,24.9761372 C5.81354068,24.7937248 5.85623306,24.5882118 5.99157862,24.4481991 L7.32341829,23.1150775 C7.42626305,23.0255164 7.56304658,23.0255164 7.65663532,23.1150775 L9.6950185,25.1554227 C9.75282062,25.2348811 9.75282062,25.3425887 9.6950185,25.4220471 C9.66416507,25.4714601 9.61685648,25.5095493 9.56132031,25.5291086 L9.56132031,25.5280791 Z M6.31142583,24.7817369 L8.98538964,24.9546824 L7.51985178,23.5814127 L6.31142583,24.7817369 Z" id="Shape" fill="#252525"></path>
            <polygon id="Path" fill="#FFFFFF" points="15.3555942 17.6621466 12.6651752 18.0636273 14.2232734 16.517412"></polygon>
            <path d="M12.6651752,18.3271633 C12.5737054,18.3297496 12.4896845,18.2769321 12.4522866,18.1933364 C12.3944844,18.113878 12.3944844,18.0061705 12.4522866,17.9267121 L13.9970149,16.3671142 C14.0947174,16.2744648 14.2458992,16.2744648 14.3436017,16.3671142 L15.4748941,17.4994955 C15.5206642,17.5728854 15.5206642,17.6659645 15.4748941,17.7393544 C15.4540687,17.8297129 15.3803158,17.8982345 15.2887451,17.9123 L12.6147813,18.3137806 L12.6651752,18.3271633 Z M14.2232734,16.8602148 L13.3573205,17.7270012 L14.8485695,17.5005249 L14.2232734,16.8602148 Z" id="Shape" fill="#252525"></path>
            <path d="M15.3555942,17.6621466 L13.4910187,17.9020056 C13.3881739,17.9256826 13.2812153,17.8783285 13.2287645,17.7867086 C13.1763137,17.6950886 13.190712,17.5787622 13.2637317,17.5025838 L14.2356147,16.5297653 L15.3555942,17.6621466 Z" id="Path" fill="#FFFFFF"></path>
            <path d="M13.4241696,18.1552472 C13.2471461,18.1533592 13.0846861,18.0567321 12.9983922,17.9020056 C12.8934906,17.7146479 12.9264009,17.4902305 13.0786112,17.3286089 L14.0504942,16.3557903 C14.1481967,16.263141 14.2993785,16.263141 14.397081,16.3557903 L15.5283734,17.4881717 C15.5972794,17.5530262 15.6312182,17.6528817 15.5900802,17.7424428 C15.5489423,17.8320038 15.4872355,17.8937701 15.3823338,17.9009761 L13.5177583,18.1408351 L13.4241696,18.1552472 Z M13.4241696,17.6611172 L14.8362281,17.4881717 L14.2088751,16.8602148 L13.4097713,17.6600877 L13.4241696,17.6611172 Z M25.0127173,8.02146373 C24.961295,7.93396154 24.8522795,7.8999901 24.7597192,7.9411676 C24.715496,7.96381523 24.6815572,8.00293385 24.6568745,8.05131742 C24.6321917,8.09970099 24.64659,8.15014343 24.6702443,8.19543868 C24.7628046,8.39103182 24.7381218,8.62471415 24.6033952,8.79560079 C24.568428,8.82854279 24.5488875,8.87383804 24.5488875,8.92222161 C24.5488875,8.97060518 24.5694564,9.01487099 24.6033952,9.04884243 C24.637334,9.06222512 24.6753865,9.06222512 24.7103537,9.04884243 C24.7720606,9.06531343 24.8399381,9.04472468 24.8831329,8.99531168 C25.1073345,8.72148128 25.1536147,8.34264825 25.0034613,8.02249317 L25.0127173,8.02146373 Z M89.0726626,13.541308 L87.4991377,16.9333048 C87.3551551,17.2194885 87.2595095,17.6003804 86.9849139,17.6003804 C86.6023314,17.6003804 86.5560513,17.2174296 86.4120686,16.8849213 L85.1244522,14.0673506 C85.0288066,13.9232294 85.0288066,13.6380751 84.8385438,13.6843998 C84.5989155,13.7327834 84.6482809,14.0179376 84.6482809,14.1991186 L84.6482809,19.9773517 C84.6482809,20.2635354 84.6482809,20.5507485 84.5999439,20.8369321 C84.5516069,21.1231158 84.3603156,21.3145911 84.0857201,21.3145911 C83.7998117,21.2662076 83.7031376,21.0747322 83.6568574,20.8369321 L83.6568574,11.8581776 C83.6568574,11.4752268 83.5612118,10.9522725 83.9900745,10.8081512 C84.4672742,10.66403 84.7531826,11.0480102 84.9434454,11.4752268 L86.4089833,14.7231023 C86.5529659,15.009286 86.5992461,15.5229753 86.9818286,15.5826827 C87.4106913,15.5826827 87.4590283,15.009286 87.603011,14.7231023 L89.0685488,11.5709645 C89.2588116,11.141689 89.4974115,10.7113841 90.0219198,10.8071218 C90.5361436,10.9512431 90.4045023,11.4741974 90.4045023,11.9055317 L90.4045023,20.2161812 C90.4045023,20.6454567 90.5484849,21.3145911 89.9273026,21.3145911 C89.2608685,21.3145911 89.4130788,20.6475156 89.4130788,20.1677977 L89.4130788,14.6747188 C89.3647417,14.291768 89.4614158,13.9108761 89.0798617,13.5279253 L89.0726626,13.541308 Z M109.541856,13.781167 C109.255947,14.0673506 109.351593,14.4482425 109.351593,14.7838392 L109.351593,20.4663346 C109.351593,20.7998724 109.447238,21.325915 108.96901,21.325915 C108.454786,21.3742985 108.454786,20.8482559 108.454786,20.4663346 L108.454786,11.6667022 C108.454786,11.3331644 108.406449,10.9028595 108.788003,10.8071218 C109.216866,10.6630005 109.454438,10.9975678 109.646757,11.3805185 L111.984419,16.5874138 C112.128401,16.9703646 112.317636,17.3028729 112.461618,17.6858237 C112.557264,17.8762696 112.557264,18.1634827 112.844201,18.0687745 C113.083829,17.9730368 113.034464,17.6858237 113.034464,17.4953777 L113.034464,11.8952373 C113.034464,11.6553784 113.034464,11.4659619 113.082801,11.2281618 C113.131138,10.894624 113.322429,10.7505027 113.597025,10.7505027 C113.882933,10.7988863 113.979607,11.0366864 113.979607,11.3238995 L113.979607,20.1595622 C113.979607,20.542513 114.12359,21.0654672 113.64639,21.2095885 C113.132166,21.4000345 112.931619,20.8760507 112.741356,20.4457458 L110.069449,14.5233915 C109.925467,14.2372078 109.879186,13.9016112 109.555225,13.7595488 L109.541856,13.781167 Z M55.3868893,16.0253409 C55.3385523,17.0753672 55.4352263,18.0790688 55.2912437,19.1290952 C55.0516154,20.5960437 54.2422271,21.325915 52.7612625,21.325915 C51.1877377,21.325915 50.2796184,20.6588394 50.0893556,19.1764493 C49.8497273,17.0269836 49.8034472,14.8301639 50.0893556,12.6909926 C50.2796184,11.3043402 51.2350463,10.6372646 52.6656169,10.6372646 C54.0961875,10.6372646 55.0032783,11.3527237 55.2418782,12.6909926 C55.4815065,13.837786 55.3375238,14.9351665 55.3858609,16.0335764 L55.3868893,16.0253409 Z M54.4335184,16.0253409 L54.4335184,13.5917505 C54.3851813,12.3523076 53.7187473,11.6317013 52.6234506,11.6811143 C51.574434,11.6811143 50.9532516,12.3481899 50.8915448,13.5917505 L50.8915448,18.5248153 C50.9398818,19.7642582 51.5579788,20.4354515 52.6234506,20.4848645 C53.7208042,20.4848645 54.3882667,19.8177889 54.4335184,18.5248153 C54.4818554,17.7249423 54.4335184,16.9013923 54.4335184,16.0407824 L54.4335184,16.0253409 Z M102.518587,20.65781 C102.518587,20.9913477 102.47025,21.2312067 102.18537,21.2795903 C101.945741,21.3279738 101.756507,21.2795903 101.671146,20.9934066 C101.622809,20.8029607 101.527163,20.5641311 101.480883,20.3716263 C101.05202,18.9046778 101.05202,18.9046778 99.7489773,18.9046778 L99.3303992,18.9046778 C97.7085373,18.9046778 97.7085373,18.9046778 97.1356919,20.6382507 C97.0400463,20.9717884 96.9917093,21.4381237 96.5145096,21.3053262 C96.0373099,21.1148803 96.1812925,20.6382507 96.2748813,20.2552999 L98.6125427,11.6100831 C98.7565254,11.1808076 98.8028055,10.5600568 99.4116465,10.6074109 C99.9258703,10.6557945 100.032829,11.1808076 100.126418,11.6100831 L102.321125,19.8229361 C102.41677,20.1091197 102.465107,20.3963328 102.511388,20.6825165 L102.518587,20.65781 Z M99.3221716,17.9833311 L99.7993713,17.9833311 C100.848388,17.9833311 100.896725,17.9349476 100.562479,16.7438883 L99.6574455,13.3529209 C99.6091085,13.113062 99.6574455,12.7795242 99.3715371,12.7795242 C99.0856286,12.7795242 99.03832,13.113062 98.9889545,13.4013045 L98.2258464,16.2682881 C97.7486467,18.001861 97.7969838,18.001861 99.3232,18.001861 L99.3221716,17.9833311 Z M38.5923397,16.0273998 L38.5923397,11.6008182 C38.5923397,10.8853591 38.831968,10.6465295 39.3914435,10.6465295 L41.0133054,10.6465295 C43.2080126,10.6949131 44.0194578,11.6965559 43.9700923,14.2289723 C43.9217552,15.9625452 43.0650584,16.9518347 41.5738093,17.046543 C41.1449467,17.046543 40.7747055,17.0949265 40.3355584,17.046543 C39.6691243,16.9981594 39.4305245,17.3327266 39.4768046,18.0492152 C39.5251417,18.9087955 39.4768046,19.782788 39.4768046,20.5816316 C39.4768046,20.9151694 39.4284676,21.2970907 38.9996049,21.2970907 C38.5707423,21.2970907 38.5707423,20.9141399 38.5707423,20.533248 L38.5707423,16.0418119 L38.5923397,16.0273998 Z M40.8343555,16.171521 C42.2196744,16.171521 42.7431543,15.8379832 42.9817541,14.8332522 C43.220354,13.8285211 43.2213824,12.873203 42.5045544,12.1103898 C41.7414463,11.3465471 40.7397383,11.6811143 39.8326475,11.727439 C39.4994305,11.727439 39.4994305,12.1567145 39.4994305,12.4912817 L39.4994305,14.6407473 C39.4994305,16.1684327 39.4994305,16.1684327 40.8364124,16.1684327 L40.8343555,16.171521 Z M63.8777528,21.424741 C62.8760449,21.424741 62.067685,21.234295 61.4444458,20.4704523 C61.254183,20.2305934 61.0155831,19.8970556 61.3004631,19.5645473 C61.5400914,19.2783636 61.8146869,19.4688096 62.0152342,19.7086685 C62.5880795,20.3304488 63.2082334,20.5085415 63.9733985,20.4725112 C64.6881696,20.4241276 65.2116494,20.0895604 65.4996147,19.2783636 C65.7824378,18.5392274 65.6158293,17.7033241 65.0707521,17.128898 C64.5565283,16.5555012 63.8777528,16.329025 63.2092619,15.9821045 C62.2558909,15.552829 61.539063,14.9320782 61.4444458,13.6421929 C61.3004631,11.90862 62.0656281,10.9677141 63.7358271,10.6331469 C64.4505982,10.4890256 65.121146,10.6815304 65.739243,10.9193305 C66.0724601,11.0150682 66.3604254,11.3022813 66.2164427,11.7192035 C66.0724601,12.1968625 65.739243,12.0053871 65.4533346,11.8633248 C64.8321522,11.529787 64.1657182,11.529787 63.5445358,11.6234658 C63.030312,11.7192035 62.5428278,12.0527413 62.4471822,12.7218757 C62.3515366,13.3910101 62.4471822,13.9613185 62.9243819,14.3936823 C63.5455643,14.9084011 64.2613638,15.1091414 64.9277979,15.4437086 C65.9768144,15.9584274 66.5496598,16.8766858 66.5496598,18.2128957 C66.5496598,19.4523386 66.2637513,20.4097155 65.2126779,21.0304664 C64.7354782,21.3640041 64.2109699,21.31665 63.8756959,21.4134171 L63.8777528,21.424741 Z M74.3288375,16.4093211 L74.3288375,12.7321701 C74.3771746,11.826265 74.0429291,11.5380225 73.3271296,11.6337602 C73.0412211,11.6821437 72.7059472,11.6337602 72.4220957,11.6337602 C72.1382441,11.6337602 71.944896,11.4896389 71.944896,11.1190414 C71.944896,10.8328577 72.1351588,10.6413824 72.3737586,10.6413824 L77.2403728,10.6413824 C77.480001,10.6413824 77.6692354,10.7855036 77.6692354,11.0706578 C77.6692354,11.4041956 77.4789726,11.5853766 77.1920357,11.5853766 C76.8588187,11.5853766 76.4772646,11.6337602 76.1430191,11.5853766 C75.4765851,11.5369931 75.2842654,11.8715603 75.2842654,12.5880488 L75.2842654,20.4220688 C75.2842654,20.8050195 75.2359283,21.2219418 74.8070657,21.2219418 C74.329866,21.2219418 74.329866,20.7926663 74.329866,20.4220688 L74.329866,16.4227038 L74.3288375,16.4093211 Z" id="Shape" fill-opacity="0.85" fill="#000000"></path>
        </g>
        <g id="burp" transform="translate(186.000000, 73.000000)" fill="#000000" fill-opacity="0.85" fill-rule="nonzero">
            <g id="Burp-Suite-595b40b85ba036ed117dcabc" transform="translate(0.000000, 6.270000)">
                <path d="M2.28101701,0 C1.02303613,0 0,1.02258 0,2.28 L0,21.66 C0,22.91742 1.02303613,23.94 2.28101701,23.94 L11.4050851,23.94 L11.4050851,19.7139847 L16.3012527,14.82 L11.4050851,14.82 L11.4050851,11.97 L11.4050851,11.4 L11.4050851,9.69 L4.89616766,9.69 L11.4050851,3.18398438 L11.4050851,0 L2.28101701,0 Z M12.5455936,0 L12.5455936,3.65601534 L7.64942591,8.55 L12.5455936,8.55 L12.5455936,11.4 L12.5455936,11.97 L12.5455936,13.68 L19.054511,13.68 L12.5455936,20.1860153 L12.5455936,23.94 L21.6696616,23.94 C22.9276425,23.94 23.9506786,22.91742 23.9506786,21.66 L23.9506786,2.28 C23.9506786,1.02258 22.9276425,0 21.6696616,0 L12.5455936,0 Z" id="Shape"></path>
            </g>
            <path d="M39.9424584,30 C41.7341251,30 43.2289168,29.4010417 44.4268334,28.203125 C45.6351668,27.0572917 46.2497501,25.5 46.2705834,23.53125 C46.2705834,22.34375 45.9737084,21.2447917 45.3799584,20.234375 C44.7445418,19.2552083 43.8070418,18.6041667 42.5674584,18.28125 L42.5674584,18.21875 C43.2237084,17.90625 43.7757918,17.5572917 44.2237084,17.171875 C44.6716251,16.8072917 45.0153751,16.421875 45.2549584,16.015625 C45.7237084,15.1614583 45.9476668,14.265625 45.9268334,13.328125 C45.9268334,11.4947917 45.3591251,10.0208333 44.2237084,8.90625 C43.0987084,7.80208333 41.4164168,7.23958333 39.1768334,7.21875 L30.3487084,7.21875 L30.3487084,30 L39.9424584,30 Z M38.7862084,16.8125 L33.8018334,16.8125 L33.8018334,10.296875 L38.7862084,10.296875 C40.0466251,10.3177083 40.9737084,10.625 41.5674584,11.21875 C42.1716251,11.8541667 42.4737084,12.6302083 42.4737084,13.546875 C42.4737084,14.4635417 42.1716251,15.2239583 41.5674584,15.828125 C40.9737084,16.484375 40.0466251,16.8125 38.7862084,16.8125 Z M39.1143334,26.734375 L33.8018334,26.734375 L33.8018334,19.890625 L39.1143334,19.890625 C40.3955834,19.9114583 41.3330834,20.25 41.9268334,20.90625 C42.5205834,21.5729167 42.8174584,22.375 42.8174584,23.3125 C42.8174584,24.2291667 42.5205834,25.0208333 41.9268334,25.6875 C41.3330834,26.3645833 40.3955834,26.7135417 39.1143334,26.734375 Z M53.5192441,30.1875 C55.2484108,30.1875 56.6494525,29.546875 57.7223691,28.265625 L57.7848691,28.265625 L57.7848691,30 L61.0504941,30 L61.0504941,13.78125 L57.7848691,13.78125 L57.7848691,23.4375 C57.7848691,24.53125 57.4827858,25.3854167 56.8786191,26 C56.2848691,26.6145833 55.5192441,26.921875 54.5817441,26.921875 C53.6442441,26.921875 52.8734108,26.6145833 52.2692441,26 C51.6546608,25.3854167 51.3473691,24.53125 51.3473691,23.4375 L51.3473691,13.78125 L48.0817441,13.78125 L48.0817441,24.5625 C48.1025775,26.3958333 48.7015358,27.78125 49.8786191,28.71875 C50.9619525,29.6770833 52.1754941,30.1666667 53.5192441,30.1875 Z M67.0491548,30 L67.0491548,20.234375 C67.0699882,19.046875 67.4137382,18.1875 68.0804048,17.65625 C68.6741548,17.1145833 69.3876965,16.84375 70.2210298,16.84375 C70.9606132,16.84375 71.6741548,17.1145833 72.3616548,17.65625 L74.7366548,14.828125 C73.7679048,14.015625 72.6324882,13.5989583 71.3304048,13.578125 C69.5908215,13.578125 68.1845715,14.21875 67.1116548,15.5 L67.0491548,15.5 L67.0491548,13.78125 L63.7835298,13.78125 L63.7835298,30 L67.0491548,30 Z M78.0165655,36.5625 L78.0165655,28.265625 C78.6103155,28.8489583 79.2613572,29.3072917 79.9696905,29.640625 C80.6259405,30.0052083 81.3707322,30.1875 82.2040655,30.1875 C83.2144822,30.1666667 84.0790655,29.9635417 84.7978155,29.578125 C85.5269822,29.203125 86.1155239,28.703125 86.5634405,28.078125 C87.0113572,27.546875 87.3186489,26.8645833 87.4853155,26.03125 C87.6415655,25.1979167 87.7196905,23.8229167 87.7196905,21.90625 C87.7196905,19.9375 87.6415655,18.5416667 87.4853155,17.71875 C87.3186489,16.8854167 87.0113572,16.2135417 86.5634405,15.703125 C85.6467739,14.3385417 84.1936489,13.6302083 82.2040655,13.578125 C80.4957322,13.6302083 79.0998989,14.2604167 78.0165655,15.46875 L78.0165655,13.78125 L74.7509405,13.78125 L74.7509405,36.5625 L78.0165655,36.5625 Z M81.2196905,26.921875 C80.4905239,26.921875 79.9123989,26.765625 79.4853155,26.453125 C79.0373989,26.1510417 78.7092739,25.7552083 78.5009405,25.265625 C78.3030239,24.7760417 78.1728155,24.2291667 78.1103155,23.625 C78.0478155,23.0520833 78.0165655,22.4791667 78.0165655,21.90625 C78.0165655,21.2916667 78.0478155,20.6822917 78.1103155,20.078125 C78.1728155,19.5052083 78.3030239,18.9739583 78.5009405,18.484375 C78.7092739,17.9947917 79.0373989,17.5989583 79.4853155,17.296875 C79.9123989,16.9947917 80.4905239,16.84375 81.2196905,16.84375 C81.9905239,16.84375 82.5998989,16.9739583 83.0478155,17.234375 C83.4957322,17.515625 83.8134405,17.9010417 84.0009405,18.390625 C84.2092739,18.859375 84.3498989,19.4010417 84.4228155,20.015625 C84.4436489,20.6302083 84.4540655,21.2604167 84.4540655,21.90625 C84.4540655,22.5208333 84.4436489,23.1197917 84.4228155,23.703125 C84.3498989,24.296875 84.2092739,24.8385417 84.0009405,25.328125 C83.8134405,25.796875 83.4957322,26.1822917 83.0478155,26.484375 C82.5998989,26.7760417 81.9905239,26.921875 81.2196905,26.921875 Z M103.076387,30.1875 C108.295137,30.125 110.961804,27.9166667 111.076387,23.5625 C111.076387,21.9479167 110.571179,20.53125 109.560762,19.3125 C108.539929,18.0729167 106.961804,17.3072917 104.826387,17.015625 C103.743054,16.8802083 102.888887,16.7604167 102.263887,16.65625 C101.138887,16.4479167 100.321179,16.0729167 99.810762,15.53125 C99.3003453,15 99.045137,14.40625 99.045137,13.75 C99.0659703,12.65625 99.4461786,11.8333333 100.185762,11.28125 C100.894095,10.75 101.779512,10.484375 102.842012,10.484375 C104.894095,10.5260417 106.774304,11.109375 108.482637,12.234375 L110.404512,9.390625 C108.310762,7.88020833 105.84722,7.09375 103.013887,7.03125 C100.65972,7.05208333 98.842012,7.66666667 97.560762,8.875 C96.2378453,10.09375 95.576387,11.6979167 95.576387,13.6875 C95.576387,15.34375 96.1024286,16.75 97.154512,17.90625 C98.1753453,19.03125 99.6649286,19.7552083 101.623262,20.078125 C102.717012,20.234375 103.72222,20.375 104.638887,20.5 C106.638887,20.84375 107.62847,21.8645833 107.607637,23.5625 C107.56597,25.6354167 106.06597,26.6927083 103.107637,26.734375 C100.607637,26.7135417 98.451387,25.9583333 96.638887,24.46875 L94.373262,27.0625 C96.8003453,29.1458333 99.701387,30.1875 103.076387,30.1875 Z M118.371923,30.1875 C120.101089,30.1875 121.502131,29.546875 122.575048,28.265625 L122.637548,28.265625 L122.637548,30 L125.903173,30 L125.903173,13.78125 L122.637548,13.78125 L122.637548,23.4375 C122.637548,24.53125 122.335464,25.3854167 121.731298,26 C121.137548,26.6145833 120.371923,26.921875 119.434423,26.921875 C118.496923,26.921875 117.726089,26.6145833 117.121923,26 C116.507339,25.3854167 116.200048,24.53125 116.200048,23.4375 L116.200048,13.78125 L112.934423,13.78125 L112.934423,24.5625 C112.955256,26.3958333 113.554214,27.78125 114.731298,28.71875 C115.814631,29.6770833 117.028173,30.1666667 118.371923,30.1875 Z M131.995583,10.484375 L131.995583,7.21875 L128.729958,7.21875 L128.729958,10.484375 L131.995583,10.484375 Z M131.995583,30 L131.995583,13.78125 L128.729958,13.78125 L128.729958,30 L131.995583,30 Z M140.650494,30 L140.650494,26.921875 L139.431744,26.921875 C138.689557,26.9414062 138.304425,26.5901489 138.276349,25.868103 L138.275494,16.265625 L140.650494,16.265625 L140.650494,13.78125 L138.275494,13.78125 L138.275494,8.84375 L135.009869,8.84375 L135.009869,13.78125 L133.384869,13.78125 L133.384869,16.265625 L135.009869,16.265625 L135.009869,26 C135.009869,27.28125 135.384869,28.2604167 136.134869,28.9375 C136.864036,29.6458333 137.801536,30 138.947369,30 L140.650494,30 Z M148.63353,30.1875 C150.873113,30.2083333 152.82103,29.3333333 154.47728,27.5625 L152.117905,25.546875 C151.076238,26.5989583 149.893946,27.125 148.57103,27.125 C147.435613,27.125 146.518946,26.78125 145.82103,26.09375 C145.07103,25.4166667 144.69603,24.4270833 144.69603,23.125 L154.805405,23.125 L154.805405,20.4375 C154.784571,18.3020833 154.123113,16.625 152.82103,15.40625 C151.53978,14.2083333 149.972071,13.5989583 148.117905,13.578125 C147.347071,13.578125 146.565821,13.71875 145.774155,14 C144.972071,14.28125 144.248113,14.7395833 143.60228,15.375 C142.966863,16 142.44603,16.8541667 142.03978,17.9375 C141.63353,19 141.430405,20.3333333 141.430405,21.9375 C141.430405,23.6041667 141.66478,24.9583333 142.13353,26 C142.560613,27.0833333 143.117905,27.9270833 143.805405,28.53125 C144.159571,28.8229167 144.53978,29.0677083 144.94603,29.265625 C145.331446,29.4947917 145.72728,29.6770833 146.13353,29.8125 C146.94603,30.0625 147.779363,30.1875 148.63353,30.1875 Z M151.53978,20.4375 L144.69603,20.4375 C144.75853,19.1770833 145.097071,18.2239583 145.711655,17.578125 C146.336655,16.9635417 147.138738,16.65625 148.117905,16.65625 C149.097071,16.65625 149.899155,16.9635417 150.524155,17.578125 C151.159571,18.2239583 151.498113,19.1770833 151.53978,20.4375 Z" id="BurpSuite"></path>
        </g>
    </g>
</svg>