<?xml version="1.0" encoding="UTF-8"?>
<svg width="344px" height="120px" viewBox="0 0 344 120" version="1.1" xmlns="http://www.w3.org/2000/svg" xmlns:xlink="http://www.w3.org/1999/xlink">
    <title>server</title>
    <g id="server" stroke="none" stroke-width="1" fill="none" fill-rule="evenodd">
        <g id="nodejs-ar21" transform="translate(5.000000, 11.000000)" fill="#000000" fill-opacity="0.85" fill-rule="nonzero">
            <path d="M102.106684,11.0003557 C101.836321,11.0003557 101.573559,11.0555523 101.340982,11.1857046 L93.9818948,15.388808 C93.505665,15.6600661 93.2161919,16.1727287 93.2161919,16.717822 L93.2161919,25.1089948 C93.2161919,25.6538734 93.505665,26.1656769 93.9818948,26.4377941 L95.9037526,27.5331353 C96.8375367,27.9884536 97.1819509,27.9811513 97.6069313,27.9811513 C98.9893659,27.9811513 99.778522,27.151484 99.778522,25.7094995 L99.778522,17.4310825 C99.778522,17.3140313 99.6760229,17.2302699 99.5598428,17.2302699 L98.6380025,17.2302699 C98.519868,17.2302699 98.4193234,17.316179 98.4193234,17.4310825 L98.4193234,25.713795 C98.4193234,26.3529588 97.7461302,26.9959885 96.6538201,26.4556202 L94.6559566,25.2967062 C94.5853799,25.2586915 94.530873,25.1893198 94.530873,25.1113573 L94.530873,16.7201845 C94.530873,16.6407186 94.5847284,16.5595345 94.6559566,16.519372 L101.999625,12.3313026 C102.068464,12.292214 102.150333,12.292214 102.218304,12.3313026 L109.561973,16.519372 C109.631898,16.5608231 109.687056,16.6381413 109.687056,16.7201845 L109.687056,25.1113573 C109.687056,25.1914676 109.646447,25.2735108 109.577608,25.3121699 L102.218521,29.5002392 C102.153374,29.5373949 102.06651,29.5373949 101.999842,29.5002392 L100.109255,28.3877162 C100.052794,28.3550707 99.9761368,28.357648 99.921847,28.3877162 C99.4000137,28.6802367 99.3018578,28.7141708 98.8125984,28.8821231 C98.6920752,28.9235743 98.5085757,28.9882209 98.8751403,29.191396 L101.343805,30.6303736 C101.578771,30.7648214 101.840665,30.8311862 102.109508,30.8311862 C102.382042,30.8311862 102.640027,30.7667543 102.87521,30.6303736 L110.234297,26.4423043 C110.710527,26.1682542 111,25.6583836 111,25.1135051 L111,16.7223323 C111,16.1772389 110.710527,15.6656502 110.234297,15.3933183 L102.87521,11.1902148 C102.644587,11.0600625 102.380088,11.0048659 102.109508,11.0048659 L102.106684,11.0003557 Z M104.075449,16.9963824 C101.979864,16.9963824 100.73185,17.8784542 100.73185,19.3451375 C100.73185,20.9344562 101.970526,21.3734517 103.981853,21.5701836 C106.387976,21.8032121 106.575601,22.1526474 106.575601,22.6210669 C106.575601,23.4335523 105.920649,23.7799808 104.372522,23.7799808 C102.427646,23.7799808 102.000059,23.2997489 101.856951,22.3410032 C101.840013,22.2383418 101.760099,22.1556542 101.653908,22.1556542 L100.698408,22.1556542 C100.578747,22.1582687 100.482372,22.2535842 100.479729,22.3719304 C100.479729,23.5967796 101.153356,25.0452073 104.370351,25.0452073 C106.698947,25.0452073 108.042076,24.1431616 108.042076,22.5572793 C108.042076,20.989438 106.95715,20.5656913 104.698478,20.2699492 C102.418308,19.9692673 102.198543,19.8253695 102.198543,19.2963841 C102.198543,18.8599658 102.383128,18.2762134 104.073494,18.2762134 C105.583401,18.2762134 106.1415,18.5983726 106.370386,19.6052274 C106.390364,19.6997274 106.474622,19.7770456 106.573429,19.7770456 L107.528929,19.7770456 C107.587562,19.7770456 107.644458,19.7413933 107.685284,19.6997274 C107.725241,19.6552695 107.753472,19.6052274 107.747826,19.545091 C107.600158,17.8110155 106.430973,16.9953085 104.0761,16.9953085 L104.075449,16.9963824 Z" id="Shape"></path>
            <path d="M58.8420821,5.69697948e-05 C58.7598717,0.000484650233 58.679117,0.0218023396 58.6077674,0.0621924286 C58.4633455,0.145770871 58.3742631,0.298543578 58.3734528,0.464032313 L58.3734528,12.285556 C58.3734528,12.4015333 58.3187287,12.5054834 58.2170983,12.5636868 C58.1157091,12.6221488 57.9903601,12.6221488 57.8889709,12.5636868 L55.9358422,11.4511638 C55.6458705,11.2852293 55.2883382,11.2852293 54.9983665,11.4511638 L47.2019214,15.9014707 C46.9104939,16.0677048 46.7328568,16.3877163 46.7328568,16.7203993 L46.7328568,25.6212279 C46.7323817,25.9527624 46.911217,26.2592335 47.2017042,26.4246929 L54.9983665,30.8752146 C55.288217,31.0415951 55.6459917,31.0415951 55.9358422,30.8752146 L63.7325044,26.4246929 C64.0229917,26.2592335 64.201827,25.9527624 64.2013518,25.6212279 L64.2013518,3.43090359 C64.2013518,3.09328077 64.0150284,2.77649091 63.7170861,2.61197495 L59.0766139,0.0465140151 C59.0036484,0.006351504 58.9228653,-0.000735997969 58.8420821,5.69697948e-05 L58.8420821,5.69697948e-05 Z M8.68702231,11.1109637 C8.53826834,11.1169773 8.39863506,11.1425353 8.26508222,11.2192092 L0.468637143,15.6695161 C0.177903056,15.834703 -0.000964729895,16.1413719 3.91434984e-06,16.4729811 L0.015860473,28.4184287 C0.015860473,28.5846628 0.102724103,28.7388697 0.250392273,28.8200538 C0.395237376,28.9059629 0.57482793,28.9059629 0.719021555,28.8200538 L5.34385836,26.1929531 C5.63702311,26.0211349 5.82812309,25.721312 5.82812309,25.3897029 L5.82812309,19.8109797 C5.82812309,19.4780819 6.00510774,19.1731045 6.29718669,19.0077295 L8.26595086,17.8797428 C8.40821476,17.7979216 8.57001216,17.7552102 8.73458014,17.7560337 C8.89923529,17.7550672 9.06114008,17.7977871 9.20342658,17.8797428 L11.1713221,19.0070852 C11.4629668,19.1724602 11.6399514,19.4778671 11.6399514,19.8103354 L11.6399514,25.3888438 C11.6399514,25.7208825 11.8353946,26.0224235 12.1242161,26.192094 L16.7490529,28.8191947 C16.8945495,28.9051038 17.0737058,28.9051038 17.2176822,28.8191947 C17.3610072,28.7375811 17.452214,28.583589 17.452214,28.4175696 L17.4678642,16.4725515 C17.469734,16.1407029 17.2906204,15.8336126 16.9992202,15.6690865 L9.20277511,11.2189944 C9.07095955,11.1425353 8.93067479,11.1167625 8.78083503,11.1107489 L8.68745662,11.1107489 L8.68702231,11.1109637 Z M78.7477515,11.2192057 C78.5831639,11.218761 78.421394,11.2614454 78.278905,11.3429183 L70.4822428,15.79344 C70.1912496,15.9598889 70.0131792,16.2642219 70.0131792,16.5966902 L70.0131792,25.4975188 C70.0131792,25.8321348 70.2038448,26.135394 70.4974439,26.300769 L78.2315643,30.6606566 C78.5171285,30.8217362 78.8656688,30.8339782 79.1534046,30.6756907 L83.8407832,28.0949809 C83.9895372,28.0133672 84.0900818,27.8608785 84.0905162,27.6933558 C84.0909505,27.525833 84.0030011,27.3750625 83.8559844,27.2917307 L76.0121986,22.841209 C75.8653991,22.7583067 75.7624657,22.5905691 75.7624657,22.4239054 L75.7624657,19.6406649 C75.7624657,19.4744308 75.866702,19.3219421 76.0121986,19.2390398 L78.4495921,17.8481712 C78.5946543,17.7652689 78.7727248,17.7652689 78.9186557,17.8481712 L81.3571349,19.2390398 C81.5024682,19.3216142 81.5918968,19.4748987 81.5914495,19.6406649 L81.5914495,21.8349985 C81.5910023,22.0007647 81.6804309,22.1540491 81.8257642,22.2366236 C81.9719122,22.3199554 82.1488969,22.320385 82.2948278,22.2366236 L86.9663538,19.5483126 C87.2562611,19.3816489 87.4354174,19.0764568 87.4354174,18.7450624 L87.4354174,16.5973345 C87.4354174,16.2659188 87.2567295,15.9596541 86.9665709,15.7938695 L79.2168151,11.3433478 C79.0743661,11.2617793 78.9125696,11.2192057 78.7479686,11.2196387 L78.7477515,11.2192057 Z M55.4357248,17.8642792 C55.4793508,17.8640882 55.5223384,17.8746432 55.5608085,17.8949917 L58.2325166,19.4248183 C58.3050477,19.4662694 58.3576002,19.5429433 58.3576002,19.6256308 L58.3576002,22.6852839 C58.3576002,22.768401 58.305482,22.8448601 58.2325166,22.8860965 L55.5608085,24.415923 C55.4880602,24.4567299 55.3992421,24.4567299 55.3262767,24.415923 L52.6545686,22.8860965 C52.5818203,22.8446453 52.529485,22.7679715 52.529485,22.6852839 L52.529485,19.6252013 C52.529485,19.542299 52.5820375,19.4662694 52.6545686,19.4243887 L55.3262767,17.8947769 C55.3627594,17.873944 55.3948989,17.8640644 55.4357248,17.8640644 L55.4357248,17.8638496 L55.4357248,17.8642792 Z" id="Shape"></path>
            <path d="M32.1084971,11.1726035 C31.9438627,11.1723804 31.7820657,11.2149931 31.6394335,11.2963126 L23.8427713,15.7313706 C23.5513438,15.8976048 23.3741386,16.217831 23.3741386,16.5502993 L23.3741386,25.4511279 C23.3732474,25.7826604 23.5521047,26.0892292 23.8427713,26.2543781 L31.6394335,30.7048998 C31.929284,30.8712803 32.2870587,30.8712803 32.5769092,30.7048998 L40.3735715,26.2543781 C40.6640587,26.0889187 40.842894,25.7824476 40.8424188,25.4509131 L40.8424188,16.5500845 C40.8424188,16.2171867 40.6652161,15.8971752 40.3733543,15.7311559 L32.5766921,11.2960978 C32.4342197,11.2143963 32.2723166,11.1716966 32.1076285,11.1723804 L32.1084971,11.1726035 Z M78.7325503,19.1155454 C78.7014966,19.1155454 78.6669683,19.1155454 78.6387376,19.1305795 L77.1388199,19.9961139 C77.0819415,20.0273577 77.0461951,20.0861986 77.0450072,20.1505355 L77.0450072,21.8504621 C77.0450072,21.9144644 77.0825757,21.9728826 77.1388199,22.0050985 L78.6387376,22.8549544 C78.6912886,22.8871549 78.7577423,22.8871549 78.8102933,22.8549544 L80.310211,22.0050985 C80.3658037,21.9735269 80.4040237,21.9144644 80.4040237,21.8504621 L80.4040237,20.1505355 C80.4040237,20.0865332 80.3660209,20.028115 80.310211,19.9958991 L78.8102933,19.1303648 C78.7824969,19.114042 78.7633869,19.1153067 78.732116,19.1153067 L78.7325503,19.1155454 Z" id="Shape"></path>
        </g>
        <g id="python-3" transform="translate(186.000000, 12.000000)" fill="#000000" fill-opacity="0.85" fill-rule="nonzero">
            <path d="M46.7540455,15.2350667 C46.7540455,11.4535022 45.6696975,9.51208103 43.5007403,9.40586898 C42.6375972,9.36535778 41.7953471,9.50195323 40.975557,9.81851188 C40.3213442,10.0511916 39.8810237,10.2817938 39.6493722,10.5147332 L39.6493722,19.5409395 C41.0366691,20.4067365 42.2685741,20.8092516 43.342998,20.7458879 C45.615898,20.5960484 46.7540455,18.761099 46.7540455,15.2350667 Z M49.4293974,15.3919177 C49.4293974,17.3130833 48.9762799,18.9078222 48.0648217,20.1758746 C47.0491595,21.6111656 45.6414919,22.3502352 43.8418189,22.3907464 C42.4850781,22.4335948 41.0873347,22.0110838 39.6491111,21.1250312 L39.6491111,29.3288083 L37.3224116,28.5035225 L37.3224116,10.2942588 C37.7042316,9.82863968 38.19574,9.42872145 38.7911912,9.08931033 C40.1761377,8.286877 41.8585485,7.87449379 43.8392073,7.85423819 L43.8721138,7.88695877 C45.6822333,7.86436599 47.0768428,8.60343565 48.0569868,10.1018306 C48.9710567,11.4763547 49.4293974,13.2380724 49.4293974,15.3919177 L49.4293974,15.3919177 Z M63.6489293,20.7760116 C63.6489293,23.3528873 63.3893335,25.1371978 62.8701418,26.1294625 C62.3483385,27.1214674 61.3553974,27.913773 59.8892294,28.5037822 C58.7004163,28.9694013 57.4147117,29.2225962 56.0352497,29.2657043 L55.6505569,27.8078206 C57.0532624,27.618249 58.0409801,27.428158 58.6137102,27.2383266 C59.7414112,26.858664 60.5152367,26.2767051 60.9404097,25.4968645 C61.2814884,24.8616697 61.4494161,23.6491904 61.4494161,21.8547521 L61.4494161,21.2522779 C59.8584122,21.9713516 58.1911488,22.3281618 56.4476258,22.3281618 C55.3019045,22.3281618 54.2914656,21.9713516 53.4207487,21.2522779 C52.4432163,20.4701002 51.9545807,19.4780952 51.9545807,18.2757437 L51.9545807,8.64654372 L54.2812802,7.85423819 L54.2812802,17.5460227 C54.2812802,18.5811358 54.6171356,19.378635 55.2891075,19.9380012 C55.9610795,20.4973673 56.8317963,20.7658838 57.8983852,20.7453686 C58.9649742,20.7225161 60.1078227,20.3124701 61.3219686,19.5100367 L61.3219686,8.20325773 L63.6486681,8.20325773 L63.6486681,20.7760116 L63.6489293,20.7760116 Z M72.7313886,22.2642788 C72.4765344,22.2856874 72.2208986,22.2966036 71.9651369,22.2969993 C70.6491374,22.2969993 69.6230287,21.9858941 68.8902059,21.3605674 C68.1594723,20.7355004 67.7930609,19.87256 67.7930609,18.7712268 L67.7930609,9.65880427 L66.1994454,9.65880427 L66.1994454,8.20351742 L67.7930609,8.20351742 L67.7930609,4.33833371 L70.1171488,3.51564479 L70.1171488,8.20351742 L72.7313886,8.20351742 L72.7313886,9.65880427 L70.1171488,9.65880427 L70.1171488,18.7078631 C70.1171488,19.576257 70.3511507,20.1911962 70.8194156,20.5508629 C71.2216063,20.8469062 71.8606718,21.016482 72.7311274,21.05959 L72.7311274,22.2642788 L72.7313886,22.2642788 Z M86.8187721,22.0744474 L84.4920726,22.0744474 L84.4920726,13.1443253 C84.4920726,12.23568 84.2784414,11.4535022 83.8532683,10.8006487 C83.362021,10.0613194 82.6798638,9.69178454 81.8039237,9.69178454 C80.7373347,9.69178454 79.4035762,10.2511507 77.802387,11.369883 L77.802387,22.0744474 L75.4759486,22.0744474 L75.4759486,0.728941861 L77.802387,0 L77.802387,9.72216794 C79.2889258,8.64628403 80.9130973,8.10717348 82.6772521,8.10717348 C83.9094183,8.10717348 84.9070603,8.51981638 85.6709615,9.34250531 C86.4372132,10.1649345 86.8190333,11.1901795 86.8190333,12.4153835 L86.8190333,22.0744474 L86.8187721,22.0744474 L86.8187721,22.0744474 Z M99.1850926,14.8707256 C99.1850926,13.4177759 98.9077377,12.2180212 98.3551172,11.2688647 C97.6982927,10.1122181 96.6776684,9.50195323 95.2979453,9.43884925 C92.747168,9.58557249 91.4742605,11.4028632 91.4742605,14.8860471 C91.4742605,16.4831232 91.7390796,17.8171361 92.2736798,18.8878263 C92.9558371,20.2522226 93.9793342,20.9255914 95.3439099,20.902739 C97.9046113,20.8822237 99.1850926,18.8725048 99.1850926,14.8707256 L99.1850926,14.8707256 Z M101.733258,14.8857875 C101.733258,16.953936 101.20127,18.6751425 100.139643,20.049407 C98.9709391,21.5885728 97.3574752,22.360363 95.2979453,22.360363 C93.2564355,22.360363 91.6654316,21.5883131 90.5173599,20.049407 C89.4761038,18.6751425 88.9566509,16.953936 88.9566509,14.8857875 C88.9566509,12.9420291 89.5191956,11.306779 90.6445462,9.97536292 C91.8333593,8.56292445 93.3961576,7.85423819 95.3285013,7.85423819 C97.2603227,7.85423819 98.8335675,8.56292445 100.045363,9.97536292 C101.170714,11.306779 101.733258,12.9420291 101.733258,14.8857875 L101.733258,14.8857875 Z M115.071888,22.0744474 L112.745188,22.0744474 L112.745188,12.6381951 C112.745188,11.603082 112.432315,10.795455 111.806047,10.2132364 C111.179778,9.63361462 110.34458,9.35263311 109.303585,9.37522589 C108.199127,9.39548149 107.147425,9.75488852 106.149783,10.4511098 L106.149783,22.0744474 L103.823083,22.0744474 L103.823083,10.1651942 C105.162065,9.19604175 106.394231,8.56292445 107.51932,8.26688109 C108.580686,7.99109332 109.517477,7.85423819 110.32447,7.85423819 C110.876568,7.85423819 111.396282,7.90721437 111.884918,8.01368611 C112.798727,8.22377302 113.542257,8.61356345 114.114726,9.18565426 C114.753792,9.81851188 115.071888,10.5775774 115.071888,11.4662269 L115.071888,22.0744474 L115.071888,22.0744474 Z" id="Shape"></path>
            <path d="M14.3426953,0.814378937 C13.1455249,0.819832368 12.0024153,0.921370048 10.9966773,1.09847669 C8.03352397,1.61914945 7.49552856,2.70853709 7.49552856,4.71799634 L7.49552856,7.37173944 L14.497826,7.37173944 L14.497826,8.25623391 L4.86744714,8.25623391 C2.83246647,8.25623391 1.05029141,9.47260858 0.492969955,11.7864212 C-0.1500129,14.4386062 -0.178479647,16.0935924 0.492969955,18.8628963 C0.990746284,20.924293 2.17955943,22.3930836 4.2145401,22.3930836 L6.6222001,22.3930836 L6.6222001,19.2119159 C6.6222001,16.9136845 8.62192379,14.8865665 10.9966773,14.8865665 L17.9908787,14.8865665 C19.9378475,14.8865665 21.4920274,13.2926067 21.4920274,11.3483289 L21.4920274,4.71773666 C21.4920274,2.83084974 19.8910993,1.41321753 17.9908787,1.098217 C16.7877016,0.899296639 15.5398656,0.80866582 14.3426953,0.814378937 Z M10.5558345,2.94848803 C11.2792555,2.94848803 11.8697446,3.54550881 11.8697446,4.27938473 C11.8697446,5.01066377 11.2789943,5.60223113 10.5558345,5.60223113 C9.83006298,5.60223113 9.24192432,5.01092346 9.24192432,4.27938473 C9.24192432,3.54550881 9.83006298,2.94848803 10.5558345,2.94848803 Z" id="Shape"></path>
            <path d="M22.3653559,8.25597423 L22.3653559,11.3478096 C22.3653559,13.7449818 20.3214957,15.7624913 17.9908787,15.7624913 L10.9966773,15.7624913 C9.08078686,15.7624913 7.49552856,17.3928073 7.49552856,19.3007289 L7.49552856,25.9308018 C7.49552856,27.8179484 9.14555524,28.9278513 10.9966773,29.4690394 C13.2131661,30.1172185 15.3387703,30.2343374 17.9908787,29.4690394 C19.7537277,28.9616106 21.4920274,27.9400014 21.4920274,25.9308018 L21.4920274,23.2773184 L14.497826,23.2773184 L14.497826,22.3928239 L24.9931761,22.3928239 C27.028418,22.3928239 27.7865736,20.9811645 28.4943249,18.8626366 C29.2255807,16.6817839 29.1945024,14.584031 28.4943249,11.7861615 C27.9913253,9.77176819 27.0307684,8.25597423 24.9931761,8.25597423 L22.3653559,8.25597423 Z M18.4314604,25.0463073 C19.1572318,25.0463073 19.7453705,25.637615 19.7453705,26.3691537 C19.7453705,27.1030296 19.1572318,27.7000504 18.4314604,27.7000504 C17.7080394,27.7000504 17.1175502,27.1030296 17.1175502,26.3691537 C17.1175502,25.6378747 17.7083005,25.0463073 18.4314604,25.0463073 Z" id="Shape"></path>
            <path d="M119.602802,6.1408223 L120.010738,6.1408223 L120.010738,3.59692687 L120.976779,3.59692687 L120.976779,3.29361227 L118.636238,3.29361227 L118.636238,3.59692687 L119.60254,3.59692687 L119.60254,6.1408223 M121.338751,6.1408223 L121.687142,6.1408223 L121.687142,3.81740127 L122.44347,6.14056261 L122.831296,6.14056261 L123.619747,3.82519188 L123.619747,6.1408223 L124,6.1408223 L124,3.29387195 L123.497,3.29387195 L122.635424,5.73311346 L121.901034,3.29387195 L121.338751,3.29387195 L121.338751,6.1408223" id="Shape"></path>
        </g>
        <g id="php-1" transform="translate(5.000000, 71.000000)" fill-rule="nonzero">
            <ellipse id="Oval" fill-opacity="0.85" fill="#000000" cx="36.5" cy="19" rx="36.5" ry="19"></ellipse>
            <path d="M29,25 L32.9208434,5 L37.577107,5 L36.5968263,10.1849661 L41.0076703,10.1849661 C44.9287932,10.4319632 46.3990745,12.4070945 45.9090739,14.8765015 L44.1936525,25 L39.2925284,25 L41.0079498,15.864208 C41.2528103,14.6295045 41.2528103,13.888795 39.5376684,13.888795 L35.8616856,13.888795 L33.6562636,25 L29,25 L29,25 Z" id="Shape" fill="#FFFFFF"></path>
            <path d="M23.0778746,10 C27.0258644,10.2469936 29,12.2220971 29,15.6791619 C29,21.6050356 24.3117797,25.0618188 20.1166711,24.8148252 L15.6755696,24.8148252 L14.6885018,30 L10,30 L13.9482713,10 L23.0778746,10 Z M21.1040204,13.7037767 L17.8962611,13.7037767 L16.6626374,21.1113302 L19.6235594,21.1113302 C21.8442509,20.8643366 23.8183865,20.1236376 24.0649424,15.9258738 C24.0649424,14.4444757 22.8313187,13.7037767 21.1040204,13.7037767 L21.1040204,13.7037767 Z" id="Combined-Shape" fill="#FFFFFF"></path>
            <path d="M57.0776808,10 C61.0258936,10.2469936 63,12.2220971 63,15.6791619 C63,21.6050356 58.3115677,25.0618188 54.1168027,24.8148252 L49.6752041,24.8148252 L48.6881509,30 L44,30 L47.9479313,10 L57.0776808,10 Z M55.1038559,13.7037767 L51.8958627,13.7037767 L50.6619758,21.1113302 L53.6234168,21.1113302 C55.8440754,20.8643366 57.8181818,20.1236376 58.064734,15.9258738 C58.064734,14.4444757 56.8311286,13.7037767 55.1038559,13.7037767 L55.1038559,13.7037767 Z" id="Combined-Shape" fill="#FFFFFF"></path>
        </g>
    </g>
</svg>