<?xml version="1.0" encoding="UTF-8"?>
<svg width="344px" height="120px" viewBox="0 0 344 120" version="1.1" xmlns="http://www.w3.org/2000/svg" xmlns:xlink="http://www.w3.org/1999/xlink">
    <title>ios</title>
    <defs>
        <path d="M27.2492576,15.6890344 L18.1661717,24.8445172 L27.2492576,34 L16.8699803,34 L7.78364583,24.8445172 L16.8699803,15.6890344 L27.2492576,15.6890344 Z M16.8699803,0 L0,16.9983633 L5.19126295,22.2291326 L27.2492576,0 L16.8699803,0 Z" id="path-1"></path>
        <path d="M27.2492576,15.6890344 L18.1661717,24.8445172 L27.2492576,34 L16.8699803,34 L7.78364583,24.8445172 L16.8699803,15.6890344 L27.2492576,15.6890344 Z M16.8699803,0 L0,16.9983633 L5.19126295,22.2291326 L27.2492576,0 L16.8699803,0 Z" id="path-3"></path>
        <path d="M27.2492576,15.6890344 L18.1661717,24.8445172 L27.2492576,34 L16.8699803,34 L7.78364583,24.8445172 L16.8699803,15.6890344 L27.2492576,15.6890344 Z M16.8699803,0 L0,16.9983633 L5.19126295,22.2291326 L27.2492576,0 L16.8699803,0 Z" id="path-5"></path>
        <path d="M27.2492576,15.6890344 L18.1661717,24.8445172 L27.2492576,34 L16.8699803,34 L7.78364583,24.8445172 L16.8699803,15.6890344 L27.2492576,15.6890344 Z M16.8699803,0 L0,16.9983633 L5.19126295,22.2291326 L27.2492576,0 L16.8699803,0 Z" id="path-7"></path>
        <path d="M27.2492576,15.6890344 L18.1661717,24.8445172 L27.2492576,34 L16.8699803,34 L7.78364583,24.8445172 L16.8699803,15.6890344 L27.2492576,15.6890344 Z M16.8699803,0 L0,16.9983633 L5.19126295,22.2291326 L27.2492576,0 L16.8699803,0 Z" id="path-9"></path>
    </defs>
    <g id="ios" stroke="none" stroke-width="1" fill="none" fill-rule="evenodd">
        <g id="obf" transform="translate(187.000000, 9.000000)" fill="#000000" fill-opacity="0.85" fill-rule="nonzero">
            <polygon id="path10" points="0 27.9500446 0 0.0749330955 6.68786907 0.0749330955 6.68786907 2.57270294 3.140712 2.57270294 3.140712 25.5022302 6.68786907 25.5022302 6.68786907 28"></polygon>
            <path d="M22.699342,13.7377342 C22.699342,18.8206958 19.6571621,21.7181088 15.5311287,21.7181088 C11.4050953,21.7181088 8.65851189,18.4585192 8.65851189,14 C8.65851189,9.34165923 11.540577,6.05709188 15.7528261,6.05709188 C19.9650751,6.05709188 22.699342,9.47903657 22.699342,13.7377342 Z M11.540577,13.9625335 C11.540577,17.0472792 13.0678252,19.4950937 15.6912435,19.4950937 C18.3146617,19.4950937 19.8172769,16.9973238 19.8172769,13.8501338 C19.8172769,10.9901873 18.4255104,8.2925959 15.6912435,8.2925959 C12.9569765,8.2925959 11.515944,10.9027654 11.515944,14.0249777 L11.540577,13.9625335 Z" id="path12"></path>
            <path d="M25.0148473,6.58162355 C26.3246067,6.35227517 27.6516292,6.23944618 28.980766,6.24442462 C30.4738679,6.09655314 31.9747095,6.43328237 33.2669141,7.20606601 C34.2534635,7.79525637 34.8474947,8.88042945 34.8187953,10.0410348 C34.7824484,11.5600779 33.7893974,12.8842116 32.3554918,13.3256021 L32.3554918,13.3256021 C34.1120437,13.6879361 35.3738687,15.2546466 35.3730386,17.0722569 C35.3918943,18.2823496 34.8604073,19.4338956 33.9320061,20.1944692 C32.8727856,21.1436218 31.1115235,21.6057092 28.3895731,21.6057092 C27.2698241,21.611294 26.1508612,21.5445517 25.0394803,21.4058876 L25.0148473,6.58162355 Z M27.7244812,12.5637823 L29.1162477,12.5637823 C31.0006749,12.5637823 32.0598954,11.6645852 32.0598954,10.3782337 C32.0598954,9.09188225 31.0006749,8.30508475 29.2640459,8.30508475 C28.7442928,8.28707695 28.2241169,8.32475225 27.7121647,8.41748439 L27.7244812,12.5637823 Z M27.7244812,19.5325602 C28.2031576,19.5826332 28.6843696,19.6034855 29.1655138,19.5950045 C30.9144593,19.5950045 32.4663405,18.9206066 32.4663405,17.0972346 C32.4663405,15.2738626 30.9637253,14.5994648 29.0792981,14.5994648 L27.7244812,14.5994648 L27.7244812,19.5325602 Z" id="path14"></path>
            <path d="M40.7553568,6.38180196 L43.4773072,6.38180196 L43.4773072,16.235504 C43.4773072,20.4192685 41.4820314,21.8180196 38.5507002,21.8180196 C37.7667557,21.8114392 36.9890074,21.6764864 36.2475114,21.4183764 L36.5800574,19.1953613 C37.1266177,19.3684774 37.6948862,19.461009 38.2674203,19.470116 C39.8193015,19.470116 40.7307238,18.7457627 40.7307238,16.1231044 L40.7553568,6.38180196 Z" id="path16"></path>
            <polygon id="path18" points="51.2243968 14.5869759 51.2243968 16.4977698 45.5587987 16.4977698 45.5587987 14.5869759"></polygon>
            <path d="M64.4523368,21.0811775 C63.2277964,21.5762644 61.9146204,21.8059887 60.5972667,21.7555754 C55.8554075,21.7555754 52.9733423,18.7457627 52.9733423,14.1373773 C52.8599874,11.965568 53.667456,9.84817768 55.1922995,8.31870131 C56.7171429,6.78922494 58.8139623,5.99350315 60.9544458,6.13202498 C62.2200001,6.07887452 63.4815589,6.30913241 64.649401,6.80642284 L64.0458917,9.0044603 C63.1195353,8.60467 62.1212534,8.40477194 61.1145605,8.41748439 C58.0723806,8.41748439 55.8800405,10.353256 55.8800405,14 C55.8800405,17.3220339 57.8137338,19.470116 61.0899275,19.470116 C62.1063826,19.4849886 63.1155357,19.293921 64.0582082,18.9081178 L64.4523368,21.0811775 Z" id="path20"></path>
            <polygon id="path22" points="73 0 73 27.9500446 66.3121309 27.9500446 66.3121309 25.4522748 69.859288 25.4522748 69.859288 2.49776985 66.3121309 2.49776985 66.3121309 0"></polygon>
        </g>
        <g id="swift" transform="translate(5.000000, 6.000000)" fill-rule="nonzero">
            <path d="M33.8580664,9.41690651 C33.8567486,9.07498263 33.8517311,8.73308323 33.843015,8.39126882 C33.8224904,7.64659953 33.7793888,6.89506059 33.6473472,6.15863487 C33.5214845,5.4199435 33.2865112,4.70425502 32.9501949,4.03522825 C32.2689541,2.69111003 31.1810886,1.59829394 29.8427703,0.913662507 C29.1766257,0.5763427 28.464114,0.340641389 27.7287363,0.214332859 C26.9939556,0.0817487507 26.2454918,0.037783036 25.5038695,0.0178610716 C25.162477,0.0082435715 24.8224528,0.00412178575 24.4817444,0.00206089287 C24.0774098,0 23.6730751,0 23.2680563,0 L10.5920626,0 C10.1870438,0 9.78339328,0 9.37905863,0.00206089287 C9.03835025,0.00480875004 8.69764187,0.00893053579 8.35693349,0.0178610716 C8.17152792,0.0226698216 7.9854382,0.0295394645 7.79934849,0.0384700003 C7.24176348,0.0652616077 6.68281018,0.114723037 6.13206671,0.214332859 C5.58292142,0.310272342 5.04570776,0.46551131 4.5297795,0.677346791 C3.66538571,1.03663029 2.87987159,1.56323603 2.21802524,2.22713823 C1.69014295,2.75686739 1.24869468,3.36681632 0.90992399,4.03454128 C0.565110688,4.71463593 0.346865762,5.40984379 0.213455853,6.15794791 C0.0814142517,6.89506059 0.0376284357,7.64659953 0.0177879878,8.39058185 C0.00820984051,8.734064 0.00410492026,9.07548525 0.00205246013,9.41690651 C0,9.82358937 0,10.2295853 0,10.6355812 L0,23.3636555 C0,23.7703384 0,24.1763343 0.00205246013,24.5823302 C0.00478907363,24.9244384 0.00889399389,25.2665466 0.0177879878,25.6079679 C0.038312589,26.3533241 0.0814142517,27.1048631 0.213455853,27.8406018 C0.339050104,28.5797079 0.573791549,29.2958556 0.90992399,29.9653824 C1.59128994,31.3098788 2.67972192,32.4027827 4.01871693,33.0869481 C4.69534462,33.4324912 5.38770784,33.6516328 6.13275086,33.7862778 C6.86616328,33.9188619 7.61531123,33.9628276 8.35693349,33.9827496 C8.69764187,33.9916801 9.03835025,33.9958019 9.37905863,33.9978628 C9.78270912,34.0006106 10.1870438,34 10.5920626,34 L23.2680563,34 C23.6717068,34 24.0767256,34.0006106 24.4810602,33.9978628 C24.8217686,33.9958019 25.1617929,33.9916801 25.5025012,33.9827496 C26.2448077,33.9621406 26.9939556,33.9188619 27.727368,33.7862778 C28.4627457,33.6599692 29.1752574,33.4242679 29.8414019,33.0869481 C31.1800586,32.4025496 32.2682073,31.3096896 32.9495107,29.9653824 C33.294324,29.2852877 33.512569,28.5893929 33.646663,27.8419758 C33.7787046,27.10555 33.8224904,26.3540111 33.8423309,25.6086549 C33.8512249,25.2672336 33.8553298,24.9251254 33.8573823,24.5830172 C33.8601189,24.1770213 33.8595107,23.7710254 33.8595107,23.3643425 L33.8595107,10.6355812 C33.8595107,10.2295853 33.8595107,9.82358937 33.8573823,9.41690651 L33.8580664,9.41690651 Z" id="Path" fill-opacity="0.85" fill="#000000"></path>
            <path d="M26.8304429,20.9867591 L26.8283905,20.9846982 C26.8653348,20.8562359 26.9036474,20.7291475 26.9371709,20.5979373 C28.3424219,14.9758216 24.9120769,8.32875507 19.1084038,4.82935897 C21.652086,8.291659 22.77615,12.484889 21.776602,16.1519044 C21.687662,16.4795864 21.5809341,16.7935291 21.4625756,17.0985412 C21.2972253,16.991598 21.1278893,16.8909997 20.9549338,16.7969639 C20.9549338,16.7969639 15.1806793,13.2178799 8.92341248,6.88613006 C8.75921567,6.7198847 12.2600285,11.9105869 16.2335913,16.1257998 C14.3617477,15.0713096 9.14439402,11.2593447 5.84198568,8.2243365 C6.24768863,8.90443114 6.73070091,9.55842115 7.26091978,10.1883674 C10.018742,13.7001289 13.6160205,18.0334996 17.9248184,21.3611546 C14.8974398,23.2214539 10.6194287,23.3657164 6.35988978,21.3632155 C5.31705888,20.8714376 4.32522582,20.2772983 3.39887397,19.5894737 C5.30353008,22.6269612 8.07796642,25.0155384 11.3583143,26.4419425 C15.389346,28.1813361 19.3971165,28.0631783 22.3820777,26.470795 L22.3800252,26.4742299 C22.3937083,26.4652993 22.4108121,26.4563688 22.4251794,26.4467513 C22.5476428,26.3814897 22.6694221,26.3134802 22.7877806,26.2427229 C24.2224503,25.4953057 27.0555294,24.7368972 28.5757182,27.7073308 C28.9485818,28.4348259 29.7401472,24.5816432 26.8311271,20.9874461 L26.8304429,20.9867591 Z" id="Path" fill="#FFFFFF"></path>
            <path d="M46.7105717,22.0646061 C46.9753391,24.4229545 49.2159414,25.9693111 52.327471,25.9693111 C55.2836977,25.9693111 57.4155196,24.4236414 57.4155196,22.2830607 C57.4155196,20.4399355 56.123838,19.314688 53.1518758,18.56521 L50.2736425,17.8301582 C46.1351987,16.7997117 44.2681442,14.9242992 44.2681442,11.831586 C44.2681442,8.01962114 47.5821831,5.37961737 52.2966841,5.37961737 C56.8702494,5.37961737 60.1220304,8.03542132 60.2314949,11.8631863 L57.1972747,11.8631863 C56.9639784,9.51926418 55.0654528,8.08213489 52.2186906,8.08213489 C49.4020311,8.08213489 47.4419317,9.53506436 47.4419317,11.659158 C47.4419317,13.3147419 48.6556198,14.2998487 51.6426334,15.0651269 L54.0392227,15.6902644 C58.6757301,16.8306251 60.5735716,18.6428369 60.5735716,21.9079782 C60.5735716,26.0641122 57.2903195,28.6725156 52.0627036,28.6725156 C47.2086354,28.6725156 43.8945964,26.0792254 43.6455646,22.0639191 L46.7105717,22.0639191 L46.7105717,22.0646061 Z M79.845488,28.2974331 L76.7962164,28.2974331 L73.2331457,15.8310921 L73.1715719,15.8310921 L69.6235525,28.2974331 L66.574965,28.2974331 L62.0629735,11.9717267 L65.0185161,11.9717267 L68.1615167,25.0790054 L68.2237746,25.0790054 L71.7711099,11.9717267 L74.6342918,11.9717267 L78.2124139,25.0790054 L78.2746719,25.0790054 L81.4176725,11.9717267 L84.3424282,11.9717267 L79.845488,28.2974331 Z M86.3107374,7.58202488 C86.3107374,6.59829202 87.120775,5.80141344 88.1004827,5.80141344 C89.09661,5.80141344 89.9052793,6.59829202 89.9052793,7.58202488 C89.9052793,8.56644471 89.09661,9.37843651 88.1004827,9.37843651 C87.114743,9.37280723 86.3170278,8.57181453 86.3114216,7.58202488 L86.3107374,7.58202488 Z M86.6227114,11.9717267 L89.5939895,11.9717267 L89.5939895,28.2974331 L86.6227114,28.2974331 L86.6227114,11.9717267 Z M109,14.3781626 L109,11.9717267 L105.857684,11.9717267 L105.857684,8.06633471 L102.900773,8.06633471 L102.900773,11.9717267 L97.2209313,11.9717267 L97.2209313,10.5345974 C97.2359827,9.08166793 97.7956202,8.4723306 99.1345083,8.4723306 C99.5696299,8.4723306 100.005436,8.51973114 100.363248,8.58224489 L100.363248,6.23763577 C99.8435574,6.15602432 99.3184369,6.1142279 98.7924316,6.11260826 C95.61796,6.11260826 94.279756,7.4411972 94.279756,10.4871969 L94.279756,11.9710397 L92.0083668,11.9710397 L92.0083668,14.3774757 L94.279756,14.3774757 L94.279756,28.2967461 L97.2359827,28.2967461 L97.2359827,14.3781626 L102.901457,14.3781626 L102.901457,24.0162716 C102.901457,27.1721856 104.098725,28.3901733 107.210939,28.3901733 C107.880041,28.3901733 108.642188,28.3434597 108.984949,28.2658327 L108.984949,25.8284834 C108.613059,25.8746316 108.238977,25.9007736 107.864305,25.9067974 C106.479579,25.9067974 105.857684,25.2507465 105.857684,23.7820168 L105.857684,14.3781626 L109,14.3781626 Z" id="Shape" fill-opacity="0.85" fill="#000000"></path>
        </g>
        <g id="flutter" transform="translate(5.000000, 75.000000)">
            <g id="Group">
                <g id="Clipped">
                    <mask id="mask-2" fill="white">
                        <use xlink:href="#path-1"></use>
                    </mask>
                    <g id="Shape"></g>
                    <polygon id="Path" fill-opacity="0.85" fill="#000000" fill-rule="nonzero" mask="url(#mask-2)" points="12.9749088 30.0752864 27.2492576 15.6890344 16.8699803 15.6890344 7.78689443 24.8445172"></polygon>
                </g>
                <g id="Clipped">
                    <mask id="mask-4" fill="white">
                        <use xlink:href="#path-3"></use>
                    </mask>
                    <g id="Shape"></g>
                    <polygon id="Path" fill-opacity="0.85" fill="#000000" fill-rule="nonzero" mask="url(#mask-4)" points="0 16.9983633 16.8699803 0 27.2492576 0 5.19126295 22.2291326"></polygon>
                </g>
                <g id="Clipped">
                    <mask id="mask-6" fill="white">
                        <use xlink:href="#path-5"></use>
                    </mask>
                    <g id="Shape"></g>
                    <polygon id="Path" fill-opacity="0.85" fill="#000000" fill-rule="nonzero" mask="url(#mask-6)" points="16.8699803 33.9967267 27.2492576 33.9967267 18.1661717 24.8445172 12.9749088 30.0752864"></polygon>
                </g>
                <g id="Clipped">
                    <mask id="mask-8" fill="white">
                        <use xlink:href="#path-7"></use>
                    </mask>
                    <g id="Shape"></g>
                    <polygon id="Path" fill-opacity="0.85" fill="#000000" fill-rule="nonzero" mask="url(#mask-8)" points="18.1661717 24.8445172 12.9749088 30.0752864 20.674091 27.3878887"></polygon>
                </g>
                <g id="Clipped">
                    <mask id="mask-10" fill="white">
                        <use xlink:href="#path-9"></use>
                    </mask>
                    <g id="Shape"></g>
                    <polygon id="Path" fill-opacity="0.85" fill="#000000" fill-rule="nonzero" mask="url(#mask-10)" points="7.78630968 24.8427169 12.9777026 19.611784 18.1694203 24.8427169 12.9777026 30.0736498"></polygon>
                </g>
            </g>
            <g id="Group" transform="translate(30.544431, 9.113740)" fill="#000000" fill-opacity="0.85" fill-rule="nonzero">
                <path d="M0,0 L9.07154359,0 L9.07154359,1.78764098 L1.84108818,1.78764098 L1.84108818,7.19609819 L8.36858264,7.19609819 L8.36858264,8.96181527 L1.84108818,8.96181527 L1.84108818,15.8046014 L0,15.8046014 L0,0 Z M11.2666228,0 L13.1286325,0 L13.1286325,15.8054446 L11.2666228,15.8054446 L11.2666228,0 Z M19.9406587,16.1587567 C18.5972223,16.1587567 17.5650971,15.7613157 16.8442831,14.9664339 C16.1480171,14.1664926 15.799884,13.0554007 15.799884,11.633158 L15.799884,4.54752256 L17.6618937,4.54752256 L17.6618937,11.3464609 C17.6618937,12.4145483 17.9029088,13.20156 18.3849392,13.7074961 C18.8669696,14.2134323 19.5169295,14.4664003 20.334819,14.4664003 C20.9630206,14.4664003 21.5209261,14.2971928 22.0085355,13.9587778 C22.5106505,13.6203627 22.8900262,13.179074 23.1466627,12.6349116 C23.4239418,12.0896248 23.5625813,11.5156684 23.5625813,10.9130423 L23.5625813,4.5551116 L25.4237541,4.5551116 L25.4237541,15.8121904 L23.6496145,15.8121904 L23.6496145,14.1712709 L23.5617444,14.1712709 C23.2548964,14.7306114 22.7656133,15.2014131 22.093895,15.583676 C21.4221768,15.9659388 20.706384,16.1570702 19.9465167,16.1570702 L19.9406587,16.1587567 Z" id="Shape"></path>
                <path d="M32.5906082,15.9825223 C32.137589,15.9825223 31.7141387,15.9088805 31.3202574,15.7615968 C30.9408817,15.6143132 30.6195281,15.4155927 30.3561967,15.1654354 C30.0638542,14.8860462 29.8448763,14.5622471 29.6992629,14.1940381 C29.5530917,13.8263911 29.4800061,13.3775134 29.4800061,12.8474047 L29.4800061,6.24746795 L27.5301263,6.24746795 L27.5301263,4.54752256 L29.4800061,4.54752256 L29.4800061,1.36855722 L31.3420157,1.36855722 L31.3420157,4.54752256 L34.0584576,4.54752256 L34.0584576,6.24746795 L31.3420157,6.24746795 L31.3420157,12.3844732 C31.3420157,13.0028396 31.4591759,13.4590253 31.6934962,13.7530304 C31.9707752,14.0768295 32.3724672,14.2387291 32.8985721,14.2387291 C33.3225803,14.2387291 33.731525,14.1136504 34.1254063,13.8634931 L34.1254063,15.6958251 C33.9061494,15.7986988 33.6796398,15.8723406 33.4458774,15.9167506 C33.2266205,15.9617227 32.9420887,15.9842087 32.592282,15.9842087 L32.5906082,15.9825223 Z" id="a"></path>
                <g id="a-link" transform="translate(35.426721, 1.368557)">
                    <path d="M5.06048192,14.613965 C4.60746265,14.613965 4.18401237,14.5403232 3.79013108,14.3930396 C3.41075533,14.245756 3.08940176,14.0470355 2.82607036,13.7968782 C2.53372787,13.517489 2.31474996,13.1936899 2.16913662,12.8254808 C2.02296538,12.4578339 1.94987976,12.0089561 1.94987976,11.4788475 L1.94987976,4.87891072 L0,4.87891072 L0,3.17896533 L1.94987976,3.17896533 L1.94987976,0 L3.81188939,0 L3.81188939,3.17896533 L6.52833132,3.17896533 L6.52833132,4.87891072 L3.81188939,4.87891072 L3.81188939,11.0159159 C3.81188939,11.6342823 3.92904955,12.0904681 4.16336987,12.3844732 C4.4406489,12.7082723 4.84234087,12.8701719 5.36844577,12.8701719 C5.79245395,12.8701719 6.20139869,12.7450932 6.59527998,12.4949359 L6.59527998,14.3272679 C6.37602312,14.4301416 6.14951348,14.5037834 5.91575107,14.5481933 C5.69649421,14.5931654 5.4119624,14.6156515 5.06215564,14.6156515 L5.06048192,14.613965 Z" id="a"></path>
                </g>
                <path d="M48.6884138,16.1587567 C47.6283934,16.1587567 46.6715854,15.9012914 45.81799,15.3863609 C44.9710894,14.8714303 44.3066239,14.1650873 43.8245936,13.2673317 C43.3570688,12.3549602 43.1233064,11.331845 43.1233064,10.1979859 C43.1233064,9.1090989 43.3422843,8.10846967 43.7802401,7.19609819 C44.2332594,6.2837267 44.8687137,5.55517868 45.6866032,5.01045412 C46.5044927,4.4651674 47.4537689,4.19252404 48.5344319,4.19252404 C49.6296004,4.19252404 50.5788766,4.44549211 51.3822606,4.95142823 C52.1856445,5.43712692 52.7993406,6.11395703 53.2233488,6.98191856 C53.6613046,7.85044225 53.8802825,8.84376351 53.8802825,9.96188235 C53.8802825,10.1828078 53.8579663,10.3739392 53.8133338,10.5352766 L44.9844791,10.5352766 C45.0291116,11.3886222 45.233584,12.1098623 45.5978962,12.6989968 C45.9627665,13.2875692 46.4230385,13.7288579 46.9787124,14.022863 C47.547776,14.3174303 48.1391558,14.4647139 48.7528519,14.4647139 C50.1844374,14.4647139 51.2871377,13.7878838 52.0609526,12.4342236 L53.6384305,13.2066194 C53.1564001,14.1189909 52.4991874,14.8402309 51.6667924,15.3703396 C50.8489029,15.899886 49.8558311,16.1646593 48.687577,16.1646593 L48.6884138,16.1587567 Z M51.9086444,8.9845824 C51.8796333,8.51349965 51.7485255,8.04269797 51.515321,7.57217737 C51.2810007,7.10109463 50.9085988,6.70365369 50.3981153,6.37985457 C49.8960003,6.05605545 49.2683566,5.89415589 48.5151842,5.89415589 C47.6392725,5.89415589 46.8944687,6.18085302 46.2807726,6.7542473 C45.68214,7.3135878 45.2877008,8.05675175 45.097455,8.98373917 L51.911155,8.98373917 L51.9086444,8.9845824 Z M56.0377031,4.54752256 L57.8118426,4.54752256 L57.8118426,6.35793067 L57.8997127,6.35793067 C58.1189696,5.73956429 58.5424199,5.23194171 59.1700636,4.83506293 C59.7982652,4.42300606 60.4554779,4.21697762 61.1417017,4.21697762 C61.6527431,4.21697762 62.0906989,4.29061944 62.4555691,4.43790307 L62.4555691,6.46839339 C61.9880443,6.23228986 61.4622184,6.1142381 60.8780913,6.1142381 C60.336923,6.1142381 59.840387,6.2688297 59.3884836,6.57801288 C58.9354643,6.88719607 58.5728257,7.30656091 58.3005678,7.83610739 C58.0383523,8.35103794 57.9072445,8.91318919 57.9072445,9.52256115 L57.9072445,15.8130337 L56.0452348,15.8130337 L56.0452348,4.55595483 L56.0377031,4.54752256 Z" id="Shape"></path>
            </g>
        </g>
        <g id="react" transform="translate(186.000000, 75.000000)">
            <g id="Group">
                <ellipse id="Oval" fill-opacity="0.85" fill="#000000" fill-rule="nonzero" cx="19.3844266" cy="16.9663047" rx="3.61631083" ry="3.58484139"></ellipse>
                <g id="Path" stroke="#000000" stroke-opacity="0.85" stroke-width="1.6">
                    <path d="M19.3844987,9.67757267 C24.2398863,9.67757267 28.7504172,10.3682158 32.1513367,11.5288392 C36.2489621,12.9272753 38.7683486,15.0469386 38.7683486,16.9663047 C38.7683486,18.9664186 36.0983035,21.2182795 31.6979913,22.6635207 C28.3712477,23.756116 23.9934983,24.326495 19.3844987,24.326495 C14.659009,24.326495 10.1842326,23.7911305 6.82000454,22.6515158 C2.56364699,21.2093472 1.02439587e-15,18.9283314 1.02439587e-15,16.9663047 C1.02439587e-15,15.0625165 2.40549151,12.9592171 6.44552062,11.5629247 C9.85912717,10.3831505 14.48103,9.67757267 19.3838499,9.67757267 L19.3844987,9.67757267 Z"></path>
                    <path d="M12.9837431,13.3429474 C15.4094186,9.17350683 18.266165,5.64518884 20.9794614,3.30450543 C24.2485366,0.484337777 27.3595284,-0.620119507 29.0367406,0.338634593 C30.7846686,1.33783401 31.4185881,4.75574915 30.4832794,9.25632683 C29.7768419,12.6590214 28.0875915,16.7031244 25.785038,20.6610488 C23.4242395,24.7190146 20.721035,28.2942092 18.0447185,30.6131693 C14.658144,33.5478129 11.3840228,34.6098241 9.66947034,33.6296325 C8.00573813,32.679239 7.36951194,29.5622342 8.16764205,25.3952946 C8.84200145,21.8745512 10.5343516,17.5531191 12.9829502,13.342876 L12.9837431,13.3429474 Z"></path>
                    <path d="M12.9897983,20.6716961 C10.5572748,16.5069717 8.90111152,12.2905831 8.20981204,8.79142006 C7.37765759,4.57538876 7.96601905,1.35191127 9.64171745,0.3903703 C11.3879154,-0.611758903 14.6916637,0.550722405 18.1578927,3.6016999 C20.7786313,5.90836923 23.4697254,9.37816299 25.7789828,13.3323716 C28.1465574,17.3864073 29.9210128,21.4936078 30.6113031,24.9501818 C31.4847625,29.32435 30.7778205,32.6665195 29.0648539,33.6494979 C27.4027797,34.6033214 24.3612782,33.5934747 21.1181538,30.8269007 C18.3779695,28.4895043 15.4463263,24.8777947 12.9897983,20.6716246 L12.9897983,20.6716961 Z"></path>
                </g>
            </g>
            <path d="M59.5263181,26.1252861 L55.093812,19.4869388 C57.3339965,19.2909652 59.3525556,17.681919 59.3525556,14.7423152 C59.3525556,11.7511394 57.2112181,9.83678693 54.2073108,9.83678693 L47.6105764,9.83678693 L47.6105764,26.1129089 L49.6541074,26.1129089 L49.6541074,19.6457806 L52.9285432,19.6457806 L57.1134116,26.1129089 L59.5263181,26.1252861 Z M53.9627946,17.8768611 L49.6551479,17.8768611 L49.6551479,11.6541841 L53.9627946,11.6541841 C55.9085191,11.6541841 57.2372305,12.9228552 57.2372305,14.753661 C57.2372305,16.5844669 55.9074787,17.878924 53.9627946,17.878924 L53.9627946,17.8768611 Z M67.1333726,26.4171836 C69.0790971,26.4171836 70.678337,25.7828481 71.8603386,24.6121638 L70.9738374,23.4156935 C70.0373924,24.3677125 68.6597779,24.9040613 67.3060947,24.9040613 C64.7464785,24.9040613 63.1701295,23.0495323 63.0223793,20.8298736 L72.6469524,20.8298736 L72.6469524,20.3657256 C72.6469524,16.8278867 70.5295463,14.0450618 66.9346382,14.0450618 C63.537424,14.0450618 61.0766548,16.8031322 61.0766548,20.2192612 C61.0766548,23.904596 63.6123396,26.4079007 67.1323321,26.4079007 L67.1333726,26.4171836 Z M70.8271277,19.4859074 L63.0234198,19.4859074 C63.1222667,17.6808875 64.3760625,15.5561213 66.9127878,15.5561213 C69.6211947,15.5561213 70.8021558,17.7283338 70.8271277,19.4859074 Z M84.9091787,26.1242547 L84.9091787,18.0222941 C84.9091787,15.1672684 82.817785,14.0440304 80.3060316,14.0440304 C78.3603071,14.0440304 76.8349423,14.6783659 75.5551342,15.9965461 L76.4166635,17.2652172 C77.4748463,16.1430106 78.6329166,15.630385 80.0604749,15.630385 C81.7835336,15.630385 83.0643822,16.5328949 83.0643822,18.1192495 L83.0643822,20.2419528 C82.1040059,19.1434693 80.7503227,18.6308437 79.1250704,18.6308437 C77.1065113,18.6308437 74.9630929,19.8757917 74.9630929,22.5111207 C74.9630929,25.0732174 77.1044303,26.4161522 79.1250704,26.4161522 C80.7253508,26.4161522 82.0800745,25.8550489 83.0643822,24.7813199 L83.0643822,26.1221918 L84.9091787,26.1242547 Z M79.7899464,25.0990034 C78.0668876,25.0990034 76.8599142,24.0263059 76.8599142,22.5369067 C76.8599142,21.0237843 78.0668876,19.9500553 79.7899464,19.9500553 C81.0947263,19.9500553 82.3495625,20.4379264 83.0643822,21.4147 L83.0643822,23.6353902 C82.350603,24.6111323 81.0947263,25.1000349 79.7899464,25.1000349 L79.7899464,25.0990034 Z M93.8366206,26.4171836 C96.0029299,26.4171836 97.282738,25.5383968 98.1942111,24.3677125 L96.9633062,23.2455059 C96.175652,24.2944803 95.1663724,24.7823514 93.9458725,24.7823514 C91.4101877,24.7823514 89.8359197,22.8298356 89.8359197,20.2192612 C89.8359197,17.6086867 91.4112282,15.6809255 93.9458725,15.6809255 C95.1767774,15.6809255 96.1860569,16.1450735 96.9633062,17.217771 L98.1942111,16.0955644 C97.2837785,14.9238486 96.0029299,14.0460932 93.8366206,14.0460932 C90.2916562,14.0460932 87.9037216,16.7309314 87.9037216,20.2202926 C87.9037216,23.7344084 90.2916562,26.4089321 93.8366206,26.4089321 L93.8366206,26.4171836 Z M103.783747,26.4171836 C104.865861,26.4171836 105.531778,26.0995001 106,25.6611382 L105.458943,24.2944803 C105.212346,24.5626547 104.730597,24.7823514 104.203066,24.7823514 C103.391481,24.7823514 102.996093,24.1480158 102.996093,23.269229 L102.996093,15.9480685 L105.41004,15.9480685 L105.41004,14.3379907 L102.996093,14.3379907 L102.996093,11.1168039 L101.149215,11.1168039 L101.149215,14.3379907 L99.1795593,14.3379907 L99.1795593,15.9490999 L101.149215,15.9490999 L101.149215,23.6611762 C101.149215,25.4187498 102.035716,26.4192465 103.783747,26.4192465 L103.783747,26.4171836 Z" id="Shape" fill-opacity="0.85" fill="#000000"></path>
        </g>
    </g>
</svg>