<?xml version="1.0" encoding="UTF-8"?>
<svg width="131px" height="24px" viewBox="0 0 131 24" version="1.1" xmlns="http://www.w3.org/2000/svg" xmlns:xlink="http://www.w3.org/1999/xlink">
    <title>vive</title>
    <g id="Page-1" stroke="none" stroke-width="1" fill="none" fill-rule="evenodd" fill-opacity="0.85">
        <g id="App-Development" transform="translate(-135.000000, -5877.000000)" fill="#000000" fill-rule="nonzero">
            <g id="vive" transform="translate(135.000000, 5877.000000)">
                <path d="M27.2183867,18.3966741 L17.0443374,1.23376552 C16.7247897,0.694398648 16.1341874,0.362330662 15.495092,0.362330662 L11.9606661,0.362330662 C11.3215707,0.362330662 10.7309684,0.694398648 10.4114207,1.23376552 L0.239606969,18.3977634 C-0.0798689895,18.9370092 -0.0798689895,19.6013873 0.239606969,20.140633 L2.00346653,23.1285651 C2.32301423,23.667932 2.91361659,24 3.552712,24 L23.8963394,24 C24.5354348,24 25.1260372,23.667932 25.4455849,23.1285651 L27.2139156,20.1460795 C27.5333915,19.6068338 27.5333915,18.9424556 27.2139156,18.4032099 M18.5734628,20.0611146 C15.4157738,21.0276779 12.0299242,21.0276779 8.87223523,20.0611146 C7.08378447,19.5164679 5.97382722,17.7398301 6.35946192,15.9490316 C7.05023711,12.7482866 8.75120332,9.83831956 11.224048,7.62682915 C12.6356449,6.361558 14.8066998,6.361558 16.2182967,7.62682915 C18.6911538,9.83532075 20.3942456,12.7414853 21.0895895,15.939228 C21.4609794,17.7354863 20.3751246,19.5137189 18.577934,20.0524003" id="Shape"></path>
                <path d="M103.084186,3.29547218 L93.3567827,21.9295473 C93.199212,22.2301928 92.8814726,22.4189734 92.5349482,22.4178342 L89.3255429,22.4178342 C88.9799247,22.4158383 88.6637257,22.2279729 88.5037084,21.9295473 L78.7763054,3.29547218 C78.6126479,2.98359709 78.621978,2.61225872 78.8011021,2.30855635 L79.8390224,0.559023747 C80.0412992,0.218444329 80.4145718,0.00852352733 80.8184933,0.00852352733 L81.760769,0.00852352733 C82.0058696,0.00564645489 82.2310268,0.13979496 82.3399498,0.353703846 L90.5193283,16.1995692 C90.5981722,16.3520733 90.758501,16.4482869 90.9337879,16.4482869 C91.1090748,16.4482869 91.2694037,16.3520733 91.3482475,16.1995692 L99.5205413,0.353703846 C99.6315607,0.138406424 99.8595166,0.00423175484 100.106807,0.00852352733 L101.043769,0.00852352733 C101.447253,0.00852352733 101.820043,0.218457126 102.021469,0.559023747 L103.062931,2.31373249 C103.241292,2.61606935 103.249303,2.98607888 103.084186,3.29547218" id="Path"></path>
                <path d="M54.8952832,3.29547218 L45.166109,21.9295473 C45.0082505,22.230749 44.6896642,22.4196256 44.3425034,22.4178418 L41.1313268,22.4178418 C40.7850713,22.4164763 40.4680353,22.2285188 40.3077212,21.9295473 L30.5820894,3.29547218 C30.4178876,2.98388716 30.4265511,2.61255276 30.6051149,2.30855635 L31.6465776,0.555572992 C31.8466149,0.21663176 32.2176185,0.00795083473 32.6189637,0.0086283808 L33.566553,0.0086283808 C33.8111359,0.00589470123 34.0356465,0.14006828 34.1439625,0.353703846 L42.332197,16.1961184 C42.4110409,16.3486226 42.5713698,16.4448361 42.7466567,16.4448361 C42.9219435,16.4448361 43.0822724,16.3486226 43.1611163,16.1961184 L51.3351812,0.350253091 C51.4449884,0.135503103 51.6716505,0.00127892484 51.9179044,0.00509492901 L52.8601801,0.00509492901 C53.2616238,0.0041405337 53.6327994,0.212918182 53.8325662,0.552122238 L54.8775712,2.31028173 C55.0553487,2.61235195 55.0653318,2.98124642 54.9041392,3.29202143" id="Path"></path>
                <path d="M68.8310455,0.265709602 C68.6565042,0.0952014277 68.4193493,-0.000435966221 68.1721609,0 L66.7162386,0 C66.3140911,0 65.9425208,0.209054508 65.7420814,0.548671483 L64.7041611,2.30165484 C64.6118142,2.45936921 64.5629958,2.63770262 64.5624655,2.81926804 L64.5624655,21.5154567 C64.5634424,22.0169609 64.9810627,22.4230052 65.4958853,22.4230052 L68.1916441,22.4230052 C68.7022666,22.4230052 69.1162111,22.0197718 69.1162111,21.5223582 L69.1162111,0.911000721 C69.1168676,0.668473074 69.0172807,0.435896053 68.8399015,0.265709602" id="Path"></path>
                <path d="M113.941611,0.546946106 C114.142502,0.207993343 114.513987,-0.000578484611 114.915768,2.87753664e-07 L128.849759,2.87753664e-07 C129.243443,0.000239692906 129.607476,0.203815347 129.806205,0.534868465 L130.787447,2.17915305 C130.926238,2.41498897 130.999497,2.68200601 131,2.95384747 L131,3.3627619 C131.000939,3.52823664 130.933879,3.68720152 130.813761,3.80421166 C130.693644,3.92122179 130.530458,3.98654757 130.360589,3.98562311 L117.662892,3.98562311 C117.406316,3.98657346 117.198837,4.18945702 117.198839,4.43939735 L117.198839,8.73041075 C117.198368,8.85030183 117.246808,8.96546451 117.333503,9.05056388 C117.420198,9.13566325 117.538046,9.18372826 117.66112,9.18418499 L126.270899,9.18418499 C126.690601,9.18889128 127.028836,9.52068033 127.030742,9.92954799 L127.030742,12.3882107 C127.028803,12.7990783 126.687364,13.1316846 126.265586,13.1335737 L117.66112,13.1335737 C117.405809,13.1335737 117.198839,13.3351904 117.198839,13.5838972 L117.198839,17.9922362 C117.198368,18.1119681 117.246864,18.2269534 117.33361,18.311779 C117.420356,18.3966045 117.538208,18.444286 117.66112,18.4442851 L130.360589,18.4442851 C130.527821,18.4433673 130.688577,18.5072026 130.807492,18.6217472 C130.926407,18.7362919 130.99374,18.8921628 130.994676,19.0550687 L130.994676,19.4674338 C130.994987,19.7399237 130.921685,20.0076958 130.782133,20.2438536 L129.800891,21.891589 C129.603139,22.2238238 129.238687,22.4281825 128.844446,22.4281825 L114.915768,22.4281825 C114.513522,22.4287646 114.141781,22.2193904 113.941611,21.8795113 L112.972767,20.2507551 C112.830502,20.0142752 112.755886,19.7449796 112.756675,19.4708846 L112.756675,2.95039672 C112.756675,2.67827049 112.830658,2.41099713 112.970996,2.1757023 L113.941611,0.546946106 Z" id="Path"></path>
            </g>
        </g>
    </g>
</svg>