<?xml version="1.0" encoding="UTF-8"?>
<svg width="78px" height="36px" viewBox="0 0 78 36" version="1.1" xmlns="http://www.w3.org/2000/svg" xmlns:xlink="http://www.w3.org/1999/xlink">
    <title>xd</title>
    <g id="Page-1" stroke="none" stroke-width="1" fill="none" fill-rule="evenodd">
        <g id="App-Development" transform="translate(-742.000000, -5538.000000)">
            <g id="xd" transform="translate(742.000000, 5538.000000)">
                <g id="Adobe_XD_CC_icon" fill-rule="nonzero">
                    <g id="Surfaces" fill="#000000" fill-opacity="0.85">
                        <g id="Outline_no_shadow">
                            <path d="M6.55208333,0 L30.4479167,0 C34.0708333,0 37,2.92307692 37,6.53846154 L37,29.4615385 C37,33.0769231 34.0708333,36 30.4479167,36 L6.55208333,36 C2.92916667,36 0,33.0769231 0,29.4615385 L0,6.53846154 C0,2.92307692 2.92916667,0 6.55208333,0 Z" id="Path"></path>
                        </g>
                    </g>
                    <g id="Xd" transform="translate(5.389785, 7.889917)" fill="#FFFFFF">
                        <path d="M14.066048,1.57162181 L9.44104803,9.18700642 L14.3743814,17.2639295 C14.4052147,17.325468 14.4206314,17.3870064 14.4052147,17.4485449 C14.389798,17.5100833 14.3281314,17.4639295 14.2356314,17.4793141 L10.7052147,17.4793141 C10.458548,17.4793141 10.2889647,17.4639295 10.181048,17.3100833 C9.85729803,16.6639295 9.51813137,16.0331603 9.19438137,15.3870064 C8.87063137,14.7562372 8.51604803,14.1100833 8.14604803,13.4485449 C7.77604803,12.7870064 7.40604803,12.125468 7.03604803,11.4485449 L7.0052147,11.4485449 C6.6814647,12.1100833 6.32688137,12.7716218 5.97229803,13.4331603 C5.6177147,14.0946987 5.26313137,14.7562372 4.9239647,15.402391 C4.56938137,16.0485449 4.21479803,16.7100833 3.8602147,17.3408526 C3.79854803,17.4946987 3.6752147,17.5100833 3.50563137,17.5100833 L0.1139647,17.5100833 C0.052298033,17.5100833 0.00604803303,17.5408526 0.00604803303,17.4639295 C-0.00936863363,17.402391 0.00604803303,17.3408526 0.0368813664,17.2946987 L4.8314647,9.44854489 L0.1602147,1.55623719 C0.1139647,1.49469873 0.098548033,1.43316027 0.129381366,1.40239104 C0.1602147,1.35623719 0.221881366,1.34085258 0.283548033,1.34085258 L3.78313137,1.34085258 C3.8602147,1.34085258 3.93729803,1.35623719 3.9989647,1.37162181 C4.06063137,1.40239104 4.10688137,1.44854489 4.15313137,1.51008335 C4.44604803,2.17162181 4.7852147,2.83316027 5.13979803,3.49469873 C5.50979803,4.15623719 5.86438137,4.80239104 6.24979803,5.44854489 C6.61979803,6.09469873 6.9589647,6.74085258 7.2827147,7.40239104 L7.31354803,7.40239104 C7.63729803,6.72546796 7.9764647,6.0639295 8.31563137,5.41777565 C8.65479803,4.77162181 9.00938137,4.12546796 9.3639647,3.47931412 C9.71854803,2.83316027 10.0577147,2.17162181 10.3968814,1.54085258 C10.412298,1.47931412 10.4431314,1.41777565 10.4893814,1.38700642 C10.551048,1.35623719 10.6127147,1.34085258 10.689798,1.35623719 L13.9427147,1.35623719 C14.019798,1.34085258 14.0968814,1.38700642 14.112298,1.4639295 C14.1277147,1.47931412 14.0968814,1.54085258 14.066048,1.57162181 L14.066048,1.57162181 Z" id="Path"></path>
                        <path d="M21.188548,17.802391 C20.0477147,17.8177757 18.9068814,17.5870064 17.8739647,17.1100833 C16.9027147,16.6639295 16.101048,15.925468 15.546048,15.0177757 C14.9756314,14.0793141 14.6981314,12.9100833 14.6981314,11.5100833 C14.6827147,10.3716218 14.9756314,9.24854489 15.546048,8.2639295 C16.1318814,7.2639295 16.979798,6.43316027 17.997298,5.87931412 C19.0764647,5.27931412 20.3714647,4.98700642 21.8977147,4.98700642 C21.974798,4.98700642 22.0827147,4.98700642 22.2214647,5.00239104 C22.3602147,5.01777565 22.5143814,5.01777565 22.6993814,5.03316027 L22.6993814,0.171621808 C22.6993814,0.0639295004 22.7456314,0.00239103889 22.853548,0.00239103889 L25.9831314,0.00239103889 C26.0602147,-0.0129935765 26.1218814,0.048544885 26.137298,0.110083347 C26.137298,0.125467962 26.137298,0.140852577 26.137298,0.140852577 L26.137298,14.7870064 C26.137298,15.0639295 26.1527147,15.3716218 26.1681314,15.7100833 C26.1989647,16.0331603 26.2143814,16.3408526 26.229798,16.602391 C26.229798,16.7100833 26.183548,16.802391 26.0756314,16.8485449 C25.2739647,17.1870064 24.426048,17.4331603 23.5627147,17.5870064 C22.7764647,17.725468 21.9902147,17.802391 21.188548,17.802391 Z M22.6993814,14.725468 L22.6993814,7.95623719 C22.5606314,7.92546796 22.4218814,7.89469873 22.2831314,7.87931412 C22.113548,7.8639295 21.9439647,7.84854489 21.7743814,7.84854489 C21.1731314,7.84854489 20.5718814,7.97162181 20.032298,8.24854489 C19.5081314,8.51008335 19.061048,8.89469873 18.7218814,9.38700642 C18.3827147,9.87931412 18.2131314,10.5408526 18.2131314,11.3408526 C18.1977147,11.8793141 18.2902147,12.4177757 18.4752147,12.925468 C18.6293814,13.3408526 18.8606314,13.7100833 19.1689647,14.0177757 C19.4618814,14.2946987 19.8164647,14.5100833 20.217298,14.6331603 C20.633548,14.7716218 21.0652147,14.8331603 21.4968814,14.8331603 C21.7281314,14.8331603 21.9439647,14.8177757 22.1443814,14.802391 C22.344798,14.8177757 22.5143814,14.7870064 22.6993814,14.725468 Z" id="Shape"></path>
                    </g>
                </g>
                <text id="Adobe" font-family="AvenirNext-Regular, Avenir Next" font-size="11" font-weight="normal" letter-spacing="-0.510714286" fill="#000000" fill-opacity="0.85">
                    <tspan x="45" y="12">Adobe</tspan>
                </text>
                <text id="XD" font-family="AvenirNext-DemiBold, Avenir Next" font-size="16" font-weight="500" letter-spacing="-0.742857143" fill="#000000" fill-opacity="0.85">
                    <tspan x="45" y="30">XD</tspan>
                </text>
            </g>
        </g>
    </g>
</svg>