<?xml version="1.0" encoding="UTF-8"?>
<svg width="32px" height="32px" viewBox="0 0 32 32" version="1.1" xmlns="http://www.w3.org/2000/svg" xmlns:xlink="http://www.w3.org/1999/xlink">
    <title>4</title>
    <g id="4" stroke="none" stroke-width="1" fill="none" fill-rule="evenodd" fill-opacity="0.85">
        <g id="iconfinder_globe_5508879" transform="translate(1.000000, 1.000000)" fill="#000000" fill-rule="nonzero">
            <path d="M14.8972603,0 C22.7218718,0.215949676 29,6.62480712 29,14.5 C29,22.3751929 22.7218718,28.7840503 14.8975318,28.994656 L14.8972603,29 L14.7351781,28.9968219 L14.5,29 L14.2644897,28.9981261 L14.2644897,28.9981261 L14.1027397,29 C6.27855299,28.7844839 0,22.3754593 0,14.5 C0,6.62454071 6.27855299,0.215516074 14.1032623,0.00532267589 L14.1027397,0 L14.2640274,0.00238356164 L14.5,0 C14.5786204,0 14.6570947,0.000625716712 14.7354182,0.00187244658 L14.8972603,0 Z M13.9044068,20.9365224 C11.950892,20.9890146 10.1684314,21.2761458 8.73343271,21.7071515 C9.88448752,24.9010949 11.7670924,27.1459912 13.9041486,27.6839075 L13.9044068,20.9365224 Z M15.0963806,20.933959 L15.096645,27.6837076 C17.2395767,27.1438728 19.1265813,24.8876523 20.2763903,21.6801773 C18.9351934,21.2864162 17.3006522,21.0184221 15.5118549,20.9469354 L15.0963806,20.933959 Z M7.60902945,22.1035707 L7.58959707,22.110963 C6.26204643,22.6609513 5.4047037,23.3501863 5.24409105,24.0621188 C6.79807902,25.5665592 8.71658776,26.6951248 10.8543626,27.3026963 C9.51282495,26.0892035 8.39485874,24.2865822 7.60902945,22.1035707 Z M21.4043882,22.0659145 L21.3549665,22.202689 C20.5711594,24.3411564 19.4668162,26.1076281 18.1455738,27.3033444 C20.3218438,26.6842023 22.2708296,25.5258136 23.8386145,23.9815105 C23.6281938,23.2785171 22.7434442,22.6024751 21.4043882,22.0659145 Z M6.37566009,15.4938023 L1.22833144,15.4938023 C1.4422281,18.3911612 2.5837264,21.0304812 4.3569751,23.1159661 C4.84914609,22.2631631 5.86494427,21.5307395 7.2395662,20.9677415 C6.75451482,19.2979013 6.45254441,17.4468932 6.37566009,15.4938023 Z M27.7716685,15.4938023 L22.6243399,15.4938023 C22.5480378,17.4321039 22.2500455,19.2698626 21.7706658,20.9297842 C23.1538235,21.4818213 24.1857163,22.2026169 24.7046715,23.0429839 C26.3730162,21.0523915 27.4698343,18.5657621 27.7419657,15.8362882 L27.7716685,15.4938023 Z M13.9041096,15.4931507 L7.56842596,15.4936505 C7.64377837,17.314831 7.92439508,19.0300565 8.36606373,20.5690377 C9.94160807,20.087357 11.8458966,19.7948885 13.9046537,19.7440271 L13.9041096,15.4931507 Z M21.431574,15.4936505 L15.0958904,15.4931507 L15.0964793,19.7416783 C17.1532458,19.7842965 19.059492,20.0677353 20.6432496,20.5398529 C21.0395344,19.1474906 21.3049302,17.6118249 21.4061625,15.9845346 L21.431574,15.4936505 Z M4.26211427,5.99671336 L4.13675092,6.14991217 C2.36045004,8.35168887 1.27150085,11.1311443 1.19598446,14.1621975 L1.19336986,14.3013699 L6.3569589,14.3013699 L6.35804946,14.1903258 C6.38227463,12.202213 6.63926373,10.3081727 7.08700419,8.5887792 C5.71366382,7.90129479 4.71414768,7.01411773 4.26211427,5.99671336 Z M8.19541668,9.07102338 L8.13806454,9.30143895 C7.77278109,10.8384427 7.56332323,12.5257844 7.54875943,14.3013699 L13.9041096,14.3013699 L13.9045403,10.109204 C11.7752945,10.0488113 9.8072146,9.67692888 8.19541668,9.07102338 Z M24.7642705,6.02868367 L24.7496883,6.06171705 C24.2802354,7.06100048 23.2803928,7.93182408 21.9175749,8.6077197 C22.3466682,10.2604758 22.5993512,12.0747654 22.6384852,13.9786049 L22.6422466,14.3013699 L27.8067657,14.3012809 C27.7624304,11.2723397 26.7061879,8.48843936 24.9609991,6.27254078 L24.7642705,6.02868367 Z M20.8089651,9.08397351 L20.6344166,9.14852083 C19.0528697,9.71231571 17.1487717,10.0559745 15.0963664,10.1103174 L15.0958904,14.3013699 L21.4512406,14.3013699 C21.4373734,12.6107159 21.2468111,11.0000671 20.9132798,9.52302445 L20.8089651,9.08397351 Z M15.096382,1.31622615 L15.0966327,8.91796615 C17.1471031,8.85963999 19.0090739,8.49258183 20.4838779,7.93212998 C19.3925063,4.49892223 17.4830831,2.02995708 15.2854445,1.36847818 L15.096382,1.31622615 Z M8.57121179,7.76370099 L8.52138145,7.91828498 C9.99218303,8.48281447 11.8530385,8.85427579 13.9043173,8.91677142 L13.904416,1.31602525 C11.7275173,1.86381964 9.8146204,4.18283383 8.67018435,7.47106779 L8.57121179,7.76370099 Z M18.1456374,1.69730364 L18.2014414,1.74767443 C19.6281239,3.06230267 20.7978135,5.04535183 21.5781897,7.44305085 C22.8753027,6.7661609 23.7012023,5.91441787 23.836647,5.01634404 C22.2688628,3.47301759 20.3207458,2.31548566 18.1456374,1.69730364 Z M10.8541154,1.69693698 L10.8053478,1.71133636 C8.66679643,2.32806287 6.74948328,3.46668527 5.20022478,4.98038706 C5.31760097,5.88387046 6.13442848,6.74184388 7.42791834,7.42565372 C8.21826122,5.0042597 9.40587716,3.00771553 10.8541154,1.69693698 Z" id="Shape"></path>
        </g>
    </g>
</svg>