<svg width="37" height="37" viewBox="0 0 37 37" fill="none" xmlns="http://www.w3.org/2000/svg">
<path d="M19.3669 3.2908C18.9736 3.1114 18.5463 3.01855 18.1141 3.01855C17.6818 3.01855 17.2545 3.1114 16.8612 3.2908L3.92489 9.17779C3.65703 9.2959 3.4293 9.48935 3.26942 9.73458C3.10954 9.9798 3.02441 10.2662 3.02441 10.559C3.02441 10.8517 3.10954 11.1381 3.26942 11.3834C3.4293 11.6286 3.65703 11.822 3.92489 11.9401L16.8763 17.8422C17.2696 18.0216 17.6968 18.1145 18.1291 18.1145C18.5614 18.1145 18.9887 18.0216 19.382 17.8422L32.3334 11.9552C32.6013 11.8371 32.829 11.6437 32.9889 11.3985C33.1488 11.1532 33.2339 10.8668 33.2339 10.5741C33.2339 10.2813 33.1488 9.9949 32.9889 9.74967C32.829 9.50444 32.6013 9.311 32.3334 9.19289L19.3669 3.2908Z" stroke="#2B7FFF" stroke-width="3.01897" stroke-linecap="round" stroke-linejoin="round"/>
<path d="M3.01856 18.1138C3.01784 18.4025 3.09994 18.6853 3.25512 18.9288C3.4103 19.1723 3.63204 19.3661 3.89406 19.4874L16.8756 25.3895C17.2669 25.5667 17.6915 25.6583 18.121 25.6583C18.5505 25.6583 18.975 25.5667 19.3663 25.3895L32.3177 19.5025C32.5849 19.3824 32.8113 19.1872 32.9695 18.9406C33.1276 18.694 33.2106 18.4067 33.2083 18.1138" stroke="#2B7FFF" stroke-width="3.01897" stroke-linecap="round" stroke-linejoin="round"/>
<path d="M3.01856 25.6606C3.01784 25.9494 3.09994 26.2322 3.25512 26.4757C3.4103 26.7192 3.63204 26.913 3.89406 27.0343L16.8756 32.9364C17.2669 33.1135 17.6915 33.2052 18.121 33.2052C18.5505 33.2052 18.975 33.1135 19.3663 32.9364L32.3177 27.0494C32.5849 26.9293 32.8113 26.734 32.9695 26.4874C33.1276 26.2409 33.2106 25.9536 33.2083 25.6606" stroke="#2B7FFF" stroke-width="3.01897" stroke-linecap="round" stroke-linejoin="round"/>
</svg>
