<svg width="37" height="37" viewBox="0 0 37 37" fill="none" xmlns="http://www.w3.org/2000/svg">
<path d="M9.05713 4.52832V22.6421" stroke="#F6339A" stroke-width="3.01897" stroke-linecap="round" stroke-linejoin="round"/>
<path d="M27.1705 13.5852C29.6715 13.5852 31.699 11.5578 31.699 9.05678C31.699 6.55578 29.6715 4.52832 27.1705 4.52832C24.6695 4.52832 22.6421 6.55578 22.6421 9.05678C22.6421 11.5578 24.6695 13.5852 27.1705 13.5852Z" stroke="#F6339A" stroke-width="3.01897" stroke-linecap="round" stroke-linejoin="round"/>
<path d="M9.05678 31.699C11.5578 31.699 13.5852 29.6715 13.5852 27.1705C13.5852 24.6695 11.5578 22.6421 9.05678 22.6421C6.55578 22.6421 4.52832 24.6695 4.52832 27.1705C4.52832 29.6715 6.55578 31.699 9.05678 31.699Z" stroke="#F6339A" stroke-width="3.01897" stroke-linecap="round" stroke-linejoin="round"/>
<path d="M27.1708 13.585C27.1708 17.188 25.7395 20.6435 23.1918 23.1913C20.644 25.739 17.1885 27.1703 13.5854 27.1703" stroke="#F6339A" stroke-width="3.01897" stroke-linecap="round" stroke-linejoin="round"/>
</svg>
