<svg width="37" height="37" viewBox="0 0 37 37" fill="none" xmlns="http://www.w3.org/2000/svg">
<path d="M30.1893 3.01855H6.03752C4.37019 3.01855 3.01855 4.37019 3.01855 6.03752V12.0755C3.01855 13.7428 4.37019 15.0944 6.03752 15.0944H30.1893C31.8566 15.0944 33.2083 13.7428 33.2083 12.0755V6.03752C33.2083 4.37019 31.8566 3.01855 30.1893 3.01855Z" stroke="#00A63E" stroke-width="3.01897" stroke-linecap="round" stroke-linejoin="round"/>
<path d="M30.1893 21.1328H6.03752C4.37019 21.1328 3.01855 22.4845 3.01855 24.1518V30.1897C3.01855 31.8571 4.37019 33.2087 6.03752 33.2087H30.1893C31.8566 33.2087 33.2083 31.8571 33.2083 30.1897V24.1518C33.2083 22.4845 31.8566 21.1328 30.1893 21.1328Z" stroke="#00A63E" stroke-width="3.01897" stroke-linecap="round" stroke-linejoin="round"/>
<path d="M9.05664 9.05713H9.07098" stroke="#00A63E" stroke-width="3.01897" stroke-linecap="round" stroke-linejoin="round"/>
<path d="M9.05664 27.1709H9.07098" stroke="#00A63E" stroke-width="3.01897" stroke-linecap="round" stroke-linejoin="round"/>
</svg>
