<svg width="37" height="37" viewBox="0 0 37 37" fill="none" xmlns="http://www.w3.org/2000/svg">
<path d="M26.4158 28.6802H13.5852C11.6257 28.6797 9.70488 28.1343 8.03748 27.105C6.37008 26.0757 5.02174 24.603 4.14315 22.8515C3.26455 21.0999 2.89031 19.1386 3.06224 17.1867C3.23417 15.2347 3.94549 13.369 5.11673 11.798C6.28797 10.2271 7.87297 9.01276 9.69463 8.29077C11.5163 7.56877 13.5028 7.36755 15.4323 7.70958C17.3617 8.05162 19.158 8.92343 20.6205 10.2276C22.083 11.5318 23.154 13.217 23.7138 15.0948H26.4158C28.2173 15.0948 29.9451 15.8104 31.2189 17.0843C32.4928 18.3582 33.2085 20.0859 33.2085 21.8875C33.2085 23.689 32.4928 25.4168 31.2189 26.6906C29.9451 27.9645 28.2173 28.6802 26.4158 28.6802Z" stroke="#F54900" stroke-width="3.01897" stroke-linecap="round" stroke-linejoin="round"/>
</svg>
