<svg width="37" height="37" viewBox="0 0 37 37" fill="none" xmlns="http://www.w3.org/2000/svg">
<path d="M18.1142 12.0755C25.6172 12.0755 31.6995 10.048 31.6995 7.54701C31.6995 5.04601 25.6172 3.01855 18.1142 3.01855C10.6112 3.01855 4.52881 5.04601 4.52881 7.54701C4.52881 10.048 10.6112 12.0755 18.1142 12.0755Z" stroke="#00C950" stroke-width="3.01897" stroke-linecap="round" stroke-linejoin="round"/>
<path d="M4.52881 7.54688V28.6797C4.52881 29.8807 5.96012 31.0325 8.50787 31.8818C11.0556 32.731 14.5111 33.2081 18.1142 33.2081C21.7172 33.2081 25.1727 32.731 27.7205 31.8818C30.2682 31.0325 31.6995 29.8807 31.6995 28.6797V7.54688" stroke="#00C950" stroke-width="3.01897" stroke-linecap="round" stroke-linejoin="round"/>
<path d="M4.52881 18.1138C4.52881 19.3148 5.96012 20.4666 8.50787 21.3159C11.0556 22.1651 14.5111 22.6422 18.1142 22.6422C21.7172 22.6422 25.1727 22.1651 27.7205 21.3159C30.2682 20.4666 31.6995 19.3148 31.6995 18.1138" stroke="#00C950" stroke-width="3.01897" stroke-linecap="round" stroke-linejoin="round"/>
</svg>
