<svg width="37" height="37" viewBox="0 0 37 37" fill="none" xmlns="http://www.w3.org/2000/svg">
<path d="M18.1137 12.0755C25.6167 12.0755 31.6991 10.048 31.6991 7.54701C31.6991 5.04601 25.6167 3.01855 18.1137 3.01855C10.6107 3.01855 4.52832 5.04601 4.52832 7.54701C4.52832 10.048 10.6107 12.0755 18.1137 12.0755Z" stroke="#155DFC" stroke-width="3.01897" stroke-linecap="round" stroke-linejoin="round"/>
<path d="M4.52832 7.54688V28.6797C4.52832 29.8807 5.95963 31.0325 8.50738 31.8818C11.0551 32.731 14.5106 33.2081 18.1137 33.2081C21.7167 33.2081 25.1722 32.731 27.72 31.8818C30.2677 31.0325 31.6991 29.8807 31.6991 28.6797V7.54688" stroke="#155DFC" stroke-width="3.01897" stroke-linecap="round" stroke-linejoin="round"/>
<path d="M4.52832 18.1138C4.52832 19.3148 5.95963 20.4666 8.50738 21.3159C11.0551 22.1651 14.5106 22.6422 18.1137 22.6422C21.7167 22.6422 25.1722 22.1651 27.72 21.3159C30.2677 20.4666 31.6991 19.3148 31.6991 18.1138" stroke="#155DFC" stroke-width="3.01897" stroke-linecap="round" stroke-linejoin="round"/>
</svg>
