<svg width="37" height="37" viewBox="0 0 37 37" fill="none" xmlns="http://www.w3.org/2000/svg">
<path d="M31.6991 12.0758C31.6985 11.5464 31.5588 11.0264 31.2938 10.5681C31.0289 10.1097 30.6481 9.72909 30.1896 9.46438L19.6232 3.42644C19.1642 3.16147 18.6436 3.02197 18.1137 3.02197C17.5837 3.02197 17.0631 3.16147 16.6042 3.42644L6.03781 9.46438C5.57932 9.72909 5.1985 10.1097 4.93356 10.5681C4.66862 11.0264 4.52886 11.5464 4.52832 12.0758V24.1517C4.52886 24.6811 4.66862 25.201 4.93356 25.6594C5.1985 26.1177 5.57932 26.4984 6.03781 26.7631L16.6042 32.801C17.0631 33.066 17.5837 33.2055 18.1137 33.2055C18.6436 33.2055 19.1642 33.066 19.6232 32.801L30.1896 26.7631C30.6481 26.4984 31.0289 26.1177 31.2938 25.6594C31.5588 25.201 31.6985 24.6811 31.6991 24.1517V12.0758Z" stroke="#51A2FF" stroke-width="3.01897" stroke-linecap="round" stroke-linejoin="round"/>
<path d="M4.98096 10.5664L18.1135 18.1138L31.246 10.5664" stroke="#51A2FF" stroke-width="3.01897" stroke-linecap="round" stroke-linejoin="round"/>
<path d="M18.1138 33.2086V18.1138" stroke="#51A2FF" stroke-width="3.01897" stroke-linecap="round" stroke-linejoin="round"/>
</svg>
