<?xml version="1.0" encoding="UTF-8"?>
<svg width="50px" height="50px" viewBox="0 0 50 50" version="1.1" xmlns="http://www.w3.org/2000/svg" xmlns:xlink="http://www.w3.org/1999/xlink">
    <title>bootstrap</title>
    <g id="bootstrap" stroke="none" stroke-width="1" fill="none" fill-rule="evenodd" fill-opacity="0.85" stroke-opacity="0.85">
        <g id="iconfinder_finance_profit_income_earnings_gain_return_margin_bag_4212139" transform="translate(4.000000, 6.000000)" fill="#000000" fill-rule="nonzero" stroke="#000000" stroke-width="0.4">
            <g id="Group" transform="translate(14.007022, 0.000000)">
                <g id="advertising_2_" transform="translate(6.836731, 0.000000)">
                    <path d="M5.72336575,7.91832947 C9.26013874,1.51322506 8.79230422,0.716937355 8.61301434,0.419025522 C8.4589371,0.155916473 8.18019737,0 7.87064218,0 C6.5960032,0 5.90685773,0.531786543 5.40260495,0.918793503 C4.98939781,1.23897912 4.77228897,1.39211137 4.36888674,1.39211137 C3.97809084,1.39211137 3.77358832,1.24593968 3.38699452,0.938283063 C2.88694384,0.541531323 2.20480188,0 0.867131303,0 C0.557576122,0 0.278836389,0.155916473 0.123358447,0.419025522 C-0.054530729,0.716937355 -0.522365256,1.51322506 3.01440774,7.91832947 L5.72336575,7.91832947 Z M2.51295636,2.02552204 C2.93876982,2.36241299 3.46963595,2.78422274 4.36888674,2.78422274 C5.27093895,2.78422274 5.8200142,2.35962877 6.26263609,2.0199536 C6.57919478,1.774942 6.8495303,1.56612529 7.25293252,1.46310905 C6.9139626,2.54756381 5.77939384,4.8974478 4.65322929,6.96055684 L4.0845442,6.96055684 C2.95557825,4.89187935 1.81820808,2.53642691 1.48344026,1.45475638 C1.92326074,1.55638051 2.19359626,1.77215777 2.51295636,2.02552204 Z" id="Shape"></path>
                </g>
                <g transform="translate(0.000000, 6.960557)" id="Path">
                    <path d="M21.0105326,16.8348028 C21.0105326,17.4737819 21.1225888,18.2742459 21.3354955,19.2139211 C21.6338451,18.8157773 22.0498537,18.5067285 22.5835212,18.3396752 C22.4728657,17.7522042 22.4112348,17.2399072 22.4112348,16.8348028 L22.4112348,10.825058 C22.4112348,4.85568445 17.5423941,0 11.5585944,0 L10.9731008,0 C4.92346815,0 0,4.85568445 0,10.8236659 L0,14.6171694 C0,15.0013921 0.313757287,15.3132251 0.700351088,15.3132251 C1.08694489,15.3132251 1.40070218,15.0013921 1.40070218,14.6171694 L1.40070218,10.8236659 C1.40070218,5.62412993 5.69385435,1.39211137 10.9731008,1.39211137 L11.5585944,1.39211137 C16.7706072,1.39211137 21.0105326,5.62412993 21.0105326,10.8236659 L21.0105326,16.8348028 Z"></path>
                    <g transform="translate(7.001939, 4.177726)">
                        <path d="M3.50332772,12.5290023 C5.46711217,12.5290023 7.00508316,11.000464 7.00508316,9.0487239 C7.00508316,7.46867749 5.92514178,6.31740139 3.79607447,5.62691415 L3.63779512,5.57540603 C2.83939488,5.31647332 2.10262554,4.96844548 2.10262554,4.17633411 C2.10262554,3.35638051 2.67831413,2.78422274 3.50332772,2.78422274 C4.48942205,2.78422274 5.14775207,3.31044084 5.15335488,3.31600928 C5.45170444,3.5638051 5.89152493,3.52482599 6.14084991,3.2324826 C6.3901749,2.93735499 6.35095524,2.50023202 6.05540708,2.25243619 C6.01338602,2.21763341 5.01048326,1.39211137 3.50332772,1.39211137 C1.90512653,1.39211137 0.701923363,2.58932715 0.701923363,4.17633411 C0.701923363,6.08909513 2.58446709,6.70023202 3.20217675,6.89791183 L3.36045609,6.94941995 C4.87181374,7.43944316 5.60438098,8.12714617 5.60438098,9.0487239 C5.60438098,10.2389791 4.70092808,11.136891 3.50332772,11.136891 C2.2034761,11.136891 1.45970324,10.2849188 1.26220423,10.0232019 C1.02968767,9.71415313 0.589867189,9.65429234 0.28171271,9.88259861 C-0.0292431731,10.1136891 -0.092274771,10.54942 0.14024179,10.8570766 C0.437190652,11.2510441 1.55355029,12.5290023 3.50332772,12.5290023 Z"></path>
                        <path d="M3.50332772,13.9211137 C3.88992152,13.9211137 4.2036788,13.6092807 4.2036788,13.225058 L4.2036788,12.5290023 C4.2036788,12.1447796 3.88992152,11.8329466 3.50332772,11.8329466 C3.11673391,11.8329466 2.80297663,12.1447796 2.80297663,12.5290023 L2.80297663,13.225058 C2.80297663,13.6092807 3.11673391,13.9211137 3.50332772,13.9211137 Z"></path>
                        <path d="M3.50332772,2.08816705 C3.88992152,2.08816705 4.2036788,1.77633411 4.2036788,1.39211137 L4.2036788,0.696055684 C4.2036788,0.311832947 3.88992152,0 3.50332772,0 C3.11673391,0 2.80297663,0.311832947 2.80297663,0.696055684 L2.80297663,1.39211137 C2.80297663,1.77633411 3.11673391,2.08816705 3.50332772,2.08816705 Z"></path>
                    </g>
                </g>
            </g>
            <g id="Group" transform="translate(0.000000, 23.665893)">
                <path d="M41.3501289,1.19303944 C40.9439253,0.673781903 39.3961494,-0.885382831 36.5653303,0.801856148 C35.3803363,1.50904872 34.5273086,2.25939675 33.7751316,2.92204176 C33.3100985,3.33132251 32.9080969,3.68491879 32.4976912,3.96890951 C32.1797318,4.187471 32.1012925,4.62180974 32.3226034,4.93642691 C32.5425137,5.25522042 32.9795327,5.33039443 33.2960914,5.11044084 C33.7751316,4.78190255 34.224757,4.38515081 34.7023964,3.96334107 C35.4111517,3.34106729 36.2123534,2.63526682 37.2852912,1.99489559 C38.4100551,1.32389791 39.3485255,1.25429234 39.999852,1.79164733 C40.5335196,2.23294664 40.6483772,2.90116009 40.6427743,2.98329466 L34.0006446,9.31044084 L24.8736692,13.6830626 C24.3231933,13.937819 23.3258933,14.0199536 22.7530062,13.862645 L11.4955628,10.4770302 C11.4297298,10.4561485 11.3610954,10.4477958 11.2924609,10.4477958 L10.3301785,10.4477958 L10.3301785,11.8399072 L11.188809,11.8399072 L22.3622102,15.200464 C22.6899746,15.2895592 23.0737669,15.3341067 23.4701657,15.3341067 C24.1747189,15.3341067 24.9198924,15.1976798 25.4731698,14.9401392 L34.7093999,10.5174014 C34.7766336,10.4867749 34.8382645,10.4436195 34.8900905,10.3935035 L41.6246666,3.9800464 C42.2171636,3.39118329 42.0953025,2.13967517 41.3501289,1.19303944 Z" id="Path"></path>
                <path d="M30.2509649,4.1262181 C29.4119443,3.23526682 28.0602667,2.78422274 26.2379532,2.78422274 L22.259959,2.78561485 C22.1128853,2.57679814 21.9784178,2.40417633 21.8691631,2.29419954 C20.9965256,1.44083527 18.9500997,0.00696055684 15.0743568,0.00696055684 C14.4034205,0.00696055684 13.7717038,0.0487238979 13.1988166,0.135034803 C12.8164249,0.192111369 12.5530929,0.545707657 12.609121,0.92575406 C12.6665498,1.30580046 13.0223281,1.56473318 13.4047198,1.51044084 C13.9089726,1.43665893 14.4706542,1.39907193 15.0729561,1.39907193 C18.4500491,1.39907193 20.1266896,2.62134571 20.8844694,3.28538283 C21.2696625,3.62366589 21.4923742,4.17633411 22.1296937,4.17633411 L26.2379532,4.17633411 C27.6582652,4.17633411 28.6639693,4.47981439 29.2284523,5.07842227 C29.756517,5.63805104 29.8279528,6.39396752 29.8167472,6.96055684 L21.7122844,6.96194896 C21.3256906,6.96194896 21.0119333,7.2737819 21.0119333,7.65800464 C21.0119333,8.04222738 21.3256906,8.35406032 21.7122844,8.35406032 L30.4848822,8.35266821 C30.8700753,8.35266821 31.1852333,8.03944316 31.1852333,7.65661253 L31.1950382,7.45893271 C31.2370592,6.80603248 31.3365091,5.2774942 30.2509649,4.1262181 Z" id="Path"></path>
                <path d="M10.5052663,12.5290023 L5.60280871,12.5290023 L5.60280871,11.136891 L9.80491523,11.136891 L9.80491523,1.39211137 L5.60280871,1.39211137 L5.60280871,0 L10.5052663,0 C10.8918601,0 11.2056174,0.311832947 11.2056174,0.696055684 L11.2056174,11.8329466 C11.2056174,12.2171694 10.8918601,12.5290023 10.5052663,12.5290023 Z" id="Path"></path>
                <path d="M0.700351088,15.3132251 C0.313757287,15.3132251 0,15.0013921 0,14.6171694 L0,14.6171694 C0,14.2329466 0.313757287,13.9211137 0.700351088,13.9211137 L5.60280871,13.9211137 L5.60280871,1.39211137 L0.700351088,1.39211137 C0.313757287,1.39211137 0,1.08027842 0,0.696055684 L0,0.696055684 C0,0.311832947 0.313757287,0 0.700351088,0 L6.30315979,0 C6.68975359,0 7.00351088,0.311832947 7.00351088,0.696055684 L7.00351088,14.6171694 C7.00351088,15.0013921 6.68975359,15.3132251 6.30315979,15.3132251 L0.700351088,15.3132251 Z" id="Path"></path>
            </g>
        </g>
    </g>
</svg>