<?xml version="1.0" encoding="UTF-8"?>
<svg width="170px" height="54px" viewBox="0 0 170 54" version="1.1" xmlns="http://www.w3.org/2000/svg" xmlns:xlink="http://www.w3.org/1999/xlink">
    <title>devices@1x</title>
    <defs>
        <path d="M0,7.35158162 L0,2.27510293 C0,1.01859545 1.02099256,0 2.28045704,0 L22.3737364,0 C23.6332009,0 24.6541934,1.01859545 24.6541934,2.27510293 L24.6541934,31.724818 C24.6541934,32.9813255 23.6332009,33.999921 22.3737364,33.999921 L8.55290229,33.999921" id="path-1"></path>
    </defs>
    <g id="devices" stroke="none" stroke-width="1" fill="none" fill-rule="evenodd">
        <g id="Group-29" transform="translate(0.000000, 5.000000)">
            <g id="Group-24" fill="#000000" fill-opacity="0.85" fill-rule="nonzero" stroke="#F0FBFD" stroke-width="0.2">
                <g id="iconfinder_10_531207">
                    <path d="M54.5106383,36.2352941 L6.4893617,36.2352941 C5.7106383,36.2352941 5.19148936,35.7176471 5.19148936,34.9411765 L5.19148936,1.29411765 C5.19148936,0.517647059 5.7106383,0 6.4893617,0 L54.5106383,0 C55.2893617,0 55.8085106,0.517647059 55.8085106,1.29411765 L55.8085106,34.9411765 C55.8085106,35.7176471 55.2893617,36.2352941 54.5106383,36.2352941 Z M7.78723404,33.6470588 L53.212766,33.6470588 L53.212766,2.58823529 L7.78723404,2.58823529 L7.78723404,33.6470588 Z" id="Shape"></path>
                    <path d="M51.9148936,44 L9.08510638,44 C4.02340426,44 0,39.9882353 0,34.9411765 C0,34.1647059 0.519148936,33.6470588 1.29787234,33.6470588 L59.7021277,33.6470588 C60.4808511,33.6470588 61,34.1647059 61,34.9411765 C61,39.9882353 56.9765957,44 51.9148936,44 Z M2.72553191,36.2352941 C3.37446809,39.2117647 5.97021277,41.4117647 9.08510638,41.4117647 L51.9148936,41.4117647 C55.0297872,41.4117647 57.6255319,39.2117647 58.2744681,36.2352941 L2.72553191,36.2352941 Z" id="Shape"></path>
                </g>
            </g>
            <g id="iconfinder_freelance_9_2375552" transform="translate(66.500000, 26.000000) scale(-1, 1) translate(-66.500000, -26.000000) translate(50.000000, 9.000000)" stroke-linecap="round" stroke-linejoin="round">
                <g id="Group" transform="translate(8.345807, 0.000000)">
                    <g id="Path">
                        <use stroke="#FFFFFF" stroke-width="3.6" fill="#FBFBFB" fill-rule="evenodd" xlink:href="#path-1"></use>
                        <use stroke-opacity="0.85" stroke="#000000" stroke-width="2.1" xlink:href="#path-1"></use>
                    </g>
                    <line x1="8.57873015" y1="29.6364552" x2="24.5824934" y2="29.6364552" id="Path" stroke-opacity="0.85" stroke="#000000" stroke-width="1.6"></line>
                    <line x1="11.430886" y1="31.6915093" x2="13.1738701" y2="31.6915093" id="Path" stroke-opacity="0.85" stroke="#000000" stroke-width="1.6"></line>
                </g>
                <g id="Group" transform="translate(0.000000, 10.719320)" stroke="#000000" stroke-opacity="0.85" stroke-width="1.8">
                    <path d="M11.5257202,23.2806799 L2.14822792,23.2806799 C0.971000607,23.2806799 0.0167168022,22.3286366 0.0167168022,21.1541732 L0.0167168022,2.12650671 C0.0167168022,0.952043314 0.971000607,0 2.14822792,0 L11.5257202,0 C12.7029475,0 13.6572313,0.952043314 13.6572313,2.12650671 L13.6572313,21.1540942 C13.6572313,22.3285576 12.7029475,23.2806799 11.5257202,23.2806799 Z" id="Path"></path>
                    <line x1="0" y1="18.9171352" x2="13.6269667" y2="18.9171352" id="Path"></line>
                    <line x1="6.33812406" y1="20.9721892" x2="7.28884267" y2="20.9721892" id="Path"></line>
                </g>
            </g>
        </g>
    </g>
</svg>