<?xml version="1.0" encoding="UTF-8"?>
<svg width="50px" height="50px" viewBox="0 0 50 50" version="1.1" xmlns="http://www.w3.org/2000/svg" xmlns:xlink="http://www.w3.org/1999/xlink">
    <title>framework</title>
    <g id="framework" stroke="none" stroke-width="1" fill="none" fill-rule="evenodd" fill-opacity="0.85" stroke-opacity="0.85">
        <g id="iconfinder_objects-16_3753268" transform="translate(3.000000, 3.000000)" fill="#000000" fill-rule="nonzero" stroke="#000000" stroke-width="0.6">
            <path d="M34.6225776,10.4469565 L34.5525713,10.3769514 L25.3442528,1.16877354 C23.7861143,-0.389841189 21.2498889,-0.389341152 19.6927505,1.16877354 L10.4469286,10.4139541 L10.4139257,10.4469565 L1.16860388,19.6926371 C-0.389534625,21.2507518 -0.389534625,23.7859384 1.16860388,25.3440531 L10.3774224,34.552731 L10.4474287,34.6227361 L19.6562472,43.831414 C20.4353165,44.6104713 21.4584074,45 22.4814984,45 C23.5050893,45 24.5286803,44.6104713 25.3072495,43.831414 L34.5530714,34.5857334 L34.5860743,34.552731 L43.8313961,25.3075504 C45.3895346,23.7494357 45.3895346,21.2142491 43.8313961,19.6561344 L34.6225776,10.4469565 Z M42.7708018,24.2464723 L33.9675193,33.0501204 L33.3659659,32.4485761 C33.1219442,32.2050582 32.726409,32.2045581 32.4818873,32.4485761 C32.2373655,32.692594 32.2378656,33.0886232 32.4818873,33.3326412 L33.0834408,33.9341854 L24.2466553,42.7703359 C23.2735688,43.7434075 21.6909281,43.7444076 20.7163415,42.7703359 L11.880056,33.9336854 L12.8436417,32.9701145 C13.0876633,32.7260965 13.0876633,32.3300674 12.8436417,32.0860494 C12.59962,31.8420314 12.2040848,31.8420314 11.9595631,32.0860494 L10.9959774,33.0496203 L2.22919815,24.282975 C1.25611165,23.3099034 1.25611165,21.7262868 2.22919815,20.7527151 L11.0324807,11.9495671 L13.915737,14.8327794 C13.533703,15.0472952 13.1936728,15.3363164 12.9071473,15.6923426 C12.3801005,16.3478909 12.1120766,17.1794521 12.1515801,18.034015 C12.1670815,18.3690397 12.4436061,18.6300589 12.7756356,18.6300589 C12.7856365,18.6300589 12.7951373,18.6300589 12.8056383,18.6295588 C13.1501689,18.6135577 13.4171926,18.3210361 13.4006912,17.9760107 C13.3746889,17.4264703 13.5457041,16.893431 13.8817339,16.4759003 C14.2137634,16.0628699 14.6578029,15.7903499 15.164848,15.6873423 C15.390368,15.6413389 15.5728843,15.4753267 15.6393902,15.2548104 C15.7058961,15.0347942 15.6453907,14.7952766 15.4828763,14.6327646 L11.9160592,11.0665021 L20.7533447,2.22935161 C21.7269313,1.25678002 23.309572,1.25577995 24.2836585,2.22935161 L33.120444,11.0660021 L30.2361877,13.9502144 C30.082174,13.6776943 29.891657,13.4246757 29.6656369,13.1996591 C28.9655747,12.4996076 27.9979887,12.1275802 27.0049004,12.1860845 C26.0158125,12.2420887 25.0922304,12.721624 24.4711752,13.5016814 C23.4685861,14.760274 23.4735865,16.5839083 24.4821762,17.8375005 C24.7677016,18.1930267 25.1082318,18.482048 25.4897658,18.6965638 L22.5190017,21.6677825 L18.8636768,18.0130135 C18.7006623,17.8505015 18.461141,17.7909971 18.2416215,17.8565019 C18.0211019,17.9230068 17.8550871,18.1050202 17.809083,18.3310369 C17.7235754,18.7525679 17.516057,19.1385963 17.2085296,19.446119 C16.7679905,19.8861513 16.155436,20.1231688 15.5338808,20.0971669 C14.9023247,20.0706649 14.3287737,19.7881441 13.9182372,19.3016083 C13.6962174,19.038589 13.3011823,19.0045865 13.0371589,19.2276029 C12.7731354,19.4506193 12.7401325,19.8446483 12.9631523,20.1086677 C13.6022091,20.8652234 14.4962886,21.3052558 15.4818762,21.3467589 C16.447462,21.3822615 17.4060472,21.0167346 18.0926082,20.330184 C18.3181283,20.1046674 18.5091453,19.8521488 18.6631589,19.5796288 L21.5654169,22.4818424 L17.943595,26.103609 C17.7810805,26.266621 17.7205752,26.5056386 17.7870811,26.7261548 C17.853587,26.946171 18.0361032,27.1121833 18.2616233,27.1581866 C18.7691684,27.2611942 19.2122078,27.5337143 19.5447373,27.9467447 C20.1897946,28.7488037 20.1927949,29.9148896 19.552238,30.7199488 C19.1462019,31.2294863 18.5686505,31.5300085 17.9250933,31.5665111 C17.2890368,31.6025138 16.6674816,31.3654964 16.2189417,30.9169633 C15.9114143,30.6099407 15.7033959,30.2239123 15.6173882,29.8013812 C15.5713841,29.5758646 15.4053694,29.3938512 15.1853498,29.3278464 C14.9638301,29.2608414 14.7253089,29.3218459 14.5632945,29.4843579 L13.2111743,30.8369574 C12.9671526,31.0809754 12.9671526,31.4765045 13.2111743,31.7210225 C13.455196,31.9655405 13.8507312,31.9650405 14.0952529,31.7210225 L14.7653125,31.0509732 C14.9193262,31.3239933 15.1098431,31.5765119 15.3358632,31.8015284 C15.9899213,32.4555766 16.8785003,32.8211035 17.8000822,32.8211035 C17.8655881,32.8211035 17.9310939,32.8191034 17.9970997,32.8156031 C18.9861877,32.759599 19.9097698,32.2800637 20.530825,31.5000063 C21.5334141,30.2414136 21.5284136,28.4177794 20.519824,27.1641871 C20.2342986,26.8086609 19.8937683,26.5196396 19.5122344,26.3051239 L22.4829985,23.3339051 L26.1383234,26.9886742 C26.3018379,27.1511861 26.5413592,27.2121906 26.7603787,27.1451857 C26.9808983,27.0786808 27.1469131,26.8966674 27.1929171,26.6706508 C27.2784247,26.2491197 27.4859432,25.8630913 27.7934705,25.5555687 C28.2420104,25.1070357 28.8590653,24.8685181 29.5001222,24.9060209 C30.1431794,24.9425236 30.7212308,25.2430457 31.1272669,25.7520831 C31.7678238,26.5571424 31.7648235,27.7237283 31.1192662,28.5257873 C30.7872366,28.9388177 30.3431972,29.2113378 29.8361521,29.3143454 C29.610132,29.3603488 29.4281158,29.526361 29.3616099,29.7468772 C29.295104,29.9673934 29.3556094,30.206411 29.5181238,30.368923 L31.1707707,32.0210446 C31.4147924,32.2650626 31.8103276,32.2650626 32.0548493,32.0210446 C32.2993711,31.7770266 32.298871,31.3814975 32.0548493,31.1369795 L31.0857632,30.1679082 C31.4677971,29.9533924 31.8078274,29.6643711 32.0938528,29.3083449 C33.1024424,28.0547526 33.1069428,26.2316184 32.1048538,24.9730258 C31.4832985,24.1924683 30.5597164,23.712933 29.5706285,23.657429 C28.5810405,23.5989246 27.6099542,23.970952 26.909892,24.6715036 C26.6843719,24.8970202 26.493355,25.1495388 26.3393413,25.4220588 L23.4370833,22.5198452 L27.0589052,18.8980786 C27.2214197,18.7350666 27.2819251,18.496049 27.2154191,18.2755328 C27.1489132,18.0555166 26.966397,17.8895044 26.740877,17.843501 C26.2333319,17.7404934 25.7902925,17.4679733 25.4577629,17.0549429 C24.8127056,16.2528839 24.8097053,15.0867981 25.4502622,14.2817388 C25.8562983,13.7722013 26.4338497,13.4716792 27.0774069,13.4351765 C27.7109632,13.3986738 28.3350187,13.6361913 28.7835585,14.0847243 C29.0910859,14.3917469 29.2991044,14.7777753 29.385112,15.2003064 C29.4311161,15.425823 29.5971309,15.6078364 29.8171504,15.6738413 C30.0386701,15.7403462 30.2771913,15.6803418 30.4392057,15.5173298 L34.0055227,11.9510672 L42.772302,20.7177126 C43.7438883,21.6897841 43.7438883,23.2734007 42.7708018,24.2464723 Z" id="Shape"></path>
        </g>
    </g>
</svg>