<?xml version="1.0" encoding="UTF-8"?>
<svg width="215px" height="20px" viewBox="0 0 215 20" version="1.1" xmlns="http://www.w3.org/2000/svg" xmlns:xlink="http://www.w3.org/1999/xlink">
    <title>fresh</title>
    <g id="Page-1" stroke="none" stroke-width="1" fill="none" fill-rule="evenodd" fill-opacity="0.85">
        <g id="Our-Works" transform="translate(-982.000000, -5464.000000)" fill="#000000" fill-rule="nonzero">
            <g id="Group-8" transform="translate(76.000000, 5305.000000)">
                <g id="fresh" transform="translate(906.000000, 159.000000)">
                    <path d="M15.1582504,9.89716042 L15.1543484,2.52765571 C15.1534236,1.8564043 15.4219133,1.21243175 15.9004596,0.73810799 C16.3790059,0.263784226 17.0281925,-0.00182211348 17.7044966,0 L32.5523243,0.0395980136 L32.5523243,4.16283718 L20.0660499,4.16283718 L20.0660499,9.28353703 L29.4814812,9.28353703 L29.4537339,10.8735359 C29.4289009,12.2923122 28.263026,13.429562 26.8333505,13.4295827 L20.0660499,13.4295827 L20.0435053,20 C20.0435053,20 18.9700325,16.9516775 17.5414814,14.5957253 C16.1129301,12.239773 13.0264792,10.4367703 10.4745969,9.16304996 C8.24094113,8.04940537 6.16596511,7.7202175 6.16596511,7.7202175 C6.16596511,7.7202175 8.46378641,8.87043856 9.84377985,9.67382902 C11.2237733,10.4772195 13.926965,12.4097458 13.926965,12.4097458 C13.926965,12.4097458 11.5402657,13.5694337 8.95066442,13.0087386 C6.36106312,12.4480435 4.0515359,10.7280908 2.05329845,8.74564839 C1.10598908,7.80714028 0,7.6066154 0,7.6066154 C0,7.6066154 3.1731612,5.59405128 4.6823529,5.22785669 C6.1915446,4.86166211 7.78571236,4.37928357 9.95346833,4.93137247 C12.1212243,5.48346137 13.3733202,6.62507622 13.934769,7.3660716 C14.4962178,8.10706703 15.1582504,9.89716042 15.1582504,9.89716042 Z" id="Shape"></path>
                    <g id="Group" transform="translate(40.302878, 0.197138)">
                        <path d="M0,14.3116624 L3.63704449,14.3116624 L3.63704449,9.50549265 L8.4877592,9.50549265 L8.4877592,6.2476322 L3.66877442,6.2476322 L3.66877442,4.38849537 L9.70142945,4.38849537 L9.70142945,1.13063409 L2.28257262,1.13063409 C1.67737916,1.13011941 1.09679269,1.36526662 0.668670188,1.78429237 C0.240547682,2.20331812 0,2.7718578 0,3.3647074 L0,14.3116624 Z" id="Shape"></path>
                        <path d="M10.6334965,14.3116624 L14.3022709,14.3116624 L14.3022709,8.43896588 L17.3800752,8.43896588 L17.3800752,4.69349467 L15.2700341,4.69349467 C14.7655573,4.69323575 14.3157463,5.00463946 14.1475874,5.47056353 L14.0543807,5.72893885 L14.0543807,4.69349467 L10.6334965,4.69349467 L10.6334965,14.3116624 Z" id="Shape"></path>
                        <path d="M64.0270545,14.3116624 L67.695829,14.3116624 L67.695829,8.43896588 L70.7736332,8.43896588 L70.7736332,4.69349467 L68.6616091,4.69349467 C68.1571323,4.69323575 67.7073214,5.00463946 67.5391624,5.47056353 L67.4459558,5.72893885 L67.4459558,4.69349467 L64.0270545,4.69349467 L64.0270545,14.3116624 Z" id="Shape"></path>
                        <path d="M123.695208,14.3116624 L127.363983,14.3116624 L127.363983,8.43896588 L130.44377,8.43896588 L130.44377,4.69349467 L128.329763,4.69349467 C127.825286,4.69323575 127.375475,5.00463946 127.207316,5.47056353 L127.11411,5.72893885 L127.11411,4.69349467 L123.695208,4.69349467 L123.695208,14.3116624 Z" id="Shape"></path>
                        <path d="M157.937764,14.3116624 L161.608522,14.3116624 L161.608522,8.43896588 L164.686326,8.43896588 L164.686326,4.69349202 L162.574302,4.69349202 C162.069097,4.69241095 161.618273,5.00396608 161.449872,5.47056353 L161.356665,5.72893885 L161.356665,4.69349202 L157.937764,4.69349202 L157.937764,14.3116624 Z" id="Shape"></path>
                        <path d="M28.1603225,7.17817195 L28.1424746,8.22138666 C28.1307831,8.94699157 28.4168697,9.64683418 28.9365812,10.1639799 C29.4562927,10.6811256 30.1661401,10.9723002 30.9069457,10.9722098 L32.8186745,10.9722098 C32.93578,10.971693 33.0482704,11.0169024 33.1312631,11.0978379 C33.214256,11.1787733 33.2609118,11.2887648 33.2609106,11.4034829 L33.2609106,11.4034829 C33.2609118,11.518201 33.214256,11.6281925 33.1312631,11.7091279 C33.0482704,11.7900634 32.93578,11.8352728 32.8186745,11.834756 L28.5827273,11.834756 L28.5827273,13.0353271 C28.5827265,13.7437613 29.1684034,14.3183614 29.8915876,14.3194331 L35.0477029,14.3194331 C36.2524753,14.3194331 37.2291362,13.362693 37.2291362,12.1824943 L37.2291362,10.4068923 C37.2280418,9.14805711 36.1859986,8.12813795 34.9009519,8.12813841 L32.3605735,8.12813841 C32.124,8.12813841 31.9322193,7.94026944 31.9322193,7.70852132 L31.9322193,7.70852132 C31.9322193,7.47677321 32.124,7.28890424 32.3605735,7.28890424 L36.6877442,7.28890424 L36.6877442,6.01645427 C36.6877736,5.63831882 36.5332212,5.27591973 36.2586,5.01018524 C35.983979,4.74445074 35.6121631,4.59751451 35.2261838,4.60218927 L30.7403634,4.66046941 C29.3263967,4.67712377 28.1827682,5.79312015 28.1603225,7.17817195 Z" id="Shape"></path>
                        <path d="M165.632275,7.17817195 L165.61641,8.22138666 C165.604181,8.94681021 165.889821,9.6466626 166.409219,10.1638677 C166.928617,10.6810728 167.638269,10.9723087 168.378898,10.9722098 L170.29261,10.9722098 C170.535755,10.9722098 170.732863,11.1652973 170.732863,11.4034829 L170.732863,11.4034829 C170.732863,11.6416685 170.535755,11.834756 170.29261,11.834756 L166.04873,11.834756 L166.04873,13.0353271 C166.04873,13.7445193 166.635615,14.3194331 167.359574,14.3194331 L172.515689,14.3194331 C173.720461,14.3194331 174.697122,13.362693 174.697122,12.1824943 L174.697122,10.4068923 C174.697122,9.14837129 173.655646,8.12813841 172.370921,8.12813841 L169.826576,8.12813841 C169.590003,8.12813841 169.398222,7.94026944 169.398222,7.70852132 L169.398222,7.70852132 C169.398222,7.47677321 169.590003,7.28890424 169.826576,7.28890424 L174.157713,7.28890424 L174.157713,6.01645427 C174.15775,5.63797758 174.002925,5.27527807 173.727873,5.00948636 C173.45282,4.74369464 173.08049,4.59699041 172.69417,4.60218927 L168.210333,4.66046941 C166.797576,4.67918097 165.65573,5.79429533 165.632275,7.17817195 L165.632275,7.17817195 Z" id="Shape"></path>
                        <path d="M37.8399377,0 L37.8399377,14.3116624 L41.786349,14.3116624 L41.786349,7.5725343 C41.7864747,7.50229665 41.8329996,7.44021909 41.9013702,7.41906324 L42.9563906,7.10240774 C43.1003712,7.05926164 43.256663,7.08451876 43.3788678,7.17068103 C43.5010725,7.25684329 43.5751434,7.39400668 43.5790909,7.54145155 L43.7774028,14.3194331 L47.4798904,14.3194331 L47.4798904,6.82266302 C47.4798904,6.23142272 47.2380399,5.66483896 46.8082937,5.24970007 C46.3785473,4.8345612 45.7968427,4.60552529 45.1933516,4.61384529 L44.7134362,4.61384529 C43.6699299,4.64081851 42.6540098,4.94791219 41.7764335,5.50164627 L41.7030581,5.54827039 L41.7030581,0 L37.8399377,0 Z" id="Shape"></path>
                        <path d="M53.1754147,14.3116624 L53.1754147,3.77266845 C53.1754147,2.1740356 54.4983465,0.878087609 56.1302655,0.878087609 L63.1068864,0.878087609 L63.1068864,4.33992859 L57.0464675,4.33992859 L57.0464675,6.20877876 L62.0954945,6.20877876 L62.0954945,9.45498319 L56.8779023,9.45498319 L56.8779023,14.3116624 L53.1754147,14.3116624 Z" id="Shape"></path>
                        <path d="M103.717244,14.3116624 L103.717244,3.77266845 C103.717244,2.1740356 105.040176,0.878087609 106.672095,0.878087609 L113.648716,0.878087609 L113.648716,4.33992859 L107.584331,4.33992859 L107.584331,6.20877876 L112.64129,6.20877876 L112.64129,9.45498319 L107.415766,9.45498319 L107.415766,14.3116624 L103.717244,14.3116624 Z" id="Shape"></path>
                        <path d="M77.6689461,4.73817628 L75.2356562,4.73817628 C73.2803184,4.73924878 71.6957847,6.29233275 71.6957847,8.20778796 L71.6957847,11.2033877 C71.6957847,12.1230707 72.0687342,13.0050859 72.732589,13.6554 C73.3964437,14.3057141 74.296824,14.6710567 75.2356562,14.6710567 L77.6689461,14.6710567 C79.623963,14.6710567 81.2088176,13.1185284 81.2088176,11.2033877 L81.2088176,8.20778796 C81.2088176,6.29233275 79.6242838,4.73924878 77.6689461,4.73817628 L77.6689461,4.73817628 Z M77.5241781,11.1742476 C77.5241781,11.6230385 77.1533676,11.987156 76.6952335,11.9882271 L76.0883983,11.9882271 C75.6302643,11.987156 75.2594537,11.6230385 75.2594537,11.1742476 L75.2594537,8.06597291 C75.2594537,7.6174974 75.6305847,7.25393615 76.0883983,7.25393615 L76.6952335,7.25393615 C77.153047,7.25393615 77.5241781,7.6174974 77.5241781,8.06597291 L77.5241781,11.1742476 Z" id="Shape"></path>
                        <path d="M82.3332474,14.3893693 L82.3332474,4.62744401 L85.4824439,4.62744401 L85.4824439,5.66677336 C85.4824439,5.66677336 86.33122,4.62744401 88.3321893,4.59636125 C90.3331588,4.56527851 90.9261119,5.3617739 91.2096983,5.63957596 C91.4476729,5.8707539 92.1060692,4.73817628 94.1149711,4.59636125 C96.2964044,4.44483286 96.8715096,5.10339856 97.2661508,5.90377932 C97.660792,6.70416005 97.5993152,14.3893693 97.5993152,14.3893693 L93.7223131,14.3893693 L93.5240009,7.80176957 C93.515388,7.49595595 93.2592102,7.25276485 92.9469126,7.25393615 L92.2548032,7.25393615 C92.1131593,7.25341743 91.9771639,7.30830808 91.8770058,7.40642326 C91.7768477,7.50453845 91.7208142,7.63775998 91.7213436,7.77651483 L91.7213436,14.3815986 L87.7848478,14.3815986 L87.7848478,7.81925361 C87.7848478,7.6693221 87.7240476,7.52553139 87.6158225,7.4195138 C87.5075976,7.3134962 87.3608129,7.25393615 87.2077595,7.25393615 L86.4640891,7.25393615 C86.3227884,7.25393517 86.1873038,7.30905434 86.0875756,7.4071131 C85.9878471,7.50517185 85.9320853,7.63809728 85.9326126,7.77651483 L85.9326126,14.3815986 L82.3332474,14.3893693 Z" id="Shape"></path>
                        <path d="M131.82204,14.3893693 L131.82204,4.62744401 L134.973219,4.62744401 L134.973219,5.66677336 C134.973219,5.66677336 135.820012,4.62744401 137.820982,4.59636125 C139.821951,4.56527851 140.414904,5.3617739 140.700474,5.63957596 C140.936465,5.8707539 141.594861,4.73817628 143.605746,4.59636125 C145.78718,4.44483286 146.360302,5.10339856 146.754943,5.90377932 C147.149584,6.70416005 147.088107,14.3893693 147.088107,14.3893693 L143.211105,14.3893693 L143.012793,7.80176957 C143.004199,7.49671197 142.749216,7.25382001 142.437688,7.25393615 L141.743595,7.25393615 C141.601952,7.25341743 141.465956,7.30830808 141.365798,7.40642326 C141.26564,7.50453845 141.209606,7.63775998 141.210136,7.77651483 L141.210136,14.3815986 L137.27364,14.3815986 L137.27364,7.81925361 C137.274167,7.66950102 137.213809,7.52570485 137.105898,7.41963104 C136.997988,7.31355724 136.851407,7.25393525 136.698535,7.25393615 L135.958831,7.25393615 C135.81753,7.25393517 135.682045,7.30905434 135.582317,7.4071131 C135.482589,7.50517185 135.426827,7.63809728 135.427354,7.77651483 L135.427354,14.3815986 L131.82204,14.3893693 Z" id="Shape"></path>
                        <path d="M120.807784,4.88387667 L115.044833,4.88387667 C114.530842,4.88494797 114.114748,5.29342332 114.114749,5.79693237 L114.114749,7.06161164 L119.00116,7.06161164 L119.00116,7.69880796 C119.002058,7.81084801 118.953537,7.91781338 118.868051,7.99225102 C118.782565,8.06668869 118.668437,8.10135119 118.554958,8.08734231 C117.739895,7.9843807 115.992765,7.8619924 114.939728,8.49724604 C113.353231,9.45692585 113.497999,11.5822087 113.948167,12.710901 C114.313062,13.6181286 115.506901,14.4962163 116.776098,14.4962163 C118.045296,14.4962163 119.102299,13.4394028 119.219304,13.4394028 C119.292679,13.4394028 119.568333,14.4962163 119.568333,14.4962163 L122.61639,14.4962163 L122.61639,6.65947861 C122.61639,5.68035604 121.807291,4.88601917 120.807784,4.88387667 Z M118.947616,11.042146 C118.947616,11.4831111 118.5827,11.840584 118.132553,11.840584 C117.682406,11.840584 117.31749,11.4831111 117.31749,11.042146 L117.31749,10.6322422 C117.31749,10.1912771 117.682406,9.83380417 118.132553,9.83380417 C118.5827,9.83380417 118.947616,10.1912771 118.947616,10.6322422 L118.947616,11.042146 Z" id="Shape"></path>
                        <path d="M25.0864845,10.651669 C26.2247676,10.6505968 27.1469481,9.74635643 27.1469477,8.63129039 L27.1469477,6.68861867 C27.1469541,6.16088304 26.9322704,5.6549026 26.5504058,5.28264976 C26.1685411,4.91039689 25.6509825,4.70256645 25.1122652,4.70512706 L21.2055162,4.72263492 C19.8129503,4.72905414 18.6878276,5.83730757 18.6889344,7.20148401 L18.6889344,12.0581633 C18.698739,13.3055594 19.7337974,14.3116624 21.007204,14.3116624 L27.1548801,14.3116624 L27.1548801,11.8095013 L21.9690178,11.834756 L21.9690178,10.651669 L25.0864845,10.651669 Z M21.8698618,7.90084582 C21.8698618,7.43413087 22.2560867,7.05578364 22.7325196,7.05578364 L22.9189329,7.05578364 C23.3953657,7.05578364 23.7815907,7.43413091 23.7815907,7.90084582 C23.7815907,8.36756075 23.3953657,8.74590802 22.9189329,8.74590802 L22.7325196,8.74590802 C22.5037286,8.74590802 22.284308,8.65687493 22.1225284,8.49839502 C21.9607486,8.33991513 21.8698618,8.12497025 21.8698618,7.90084582 Z" id="Shape"></path>
                        <path d="M154.419707,10.651669 C155.55799,10.6505968 156.48017,9.74635643 156.48017,8.63129039 L156.48017,6.68861867 C156.480177,6.16088304 156.265493,5.6549026 155.883628,5.28264976 C155.501763,4.91039689 154.984205,4.70256645 154.445488,4.70512706 L150.538739,4.72263492 C149.145851,4.72905102 148.020174,5.83699253 148.020174,7.20148401 L148.020174,12.0581633 C148.031054,13.3051154 149.065481,14.3106422 150.338443,14.3116624 L156.486119,14.3116624 L156.486119,11.8095013 L151.300257,11.834756 L151.300257,10.651669 L154.419707,10.651669 Z M151.201101,7.90084582 C151.201101,7.43413087 151.587326,7.05578364 152.063759,7.05578364 L152.262071,7.05578364 C152.738504,7.05578364 153.124729,7.43413091 153.124729,7.90084582 C153.124729,8.36756075 152.738504,8.74590802 152.262071,8.74590802 L152.063759,8.74590802 C151.587326,8.74590802 151.201101,8.36756079 151.201101,7.90084582 L151.201101,7.90084582 Z" id="Shape"></path>
                    </g>
                </g>
            </g>
        </g>
    </g>
</svg>