<?xml version="1.0" encoding="UTF-8"?>
<svg width="149px" height="29px" viewBox="0 0 149 29" version="1.1" xmlns="http://www.w3.org/2000/svg" xmlns:xlink="http://www.w3.org/1999/xlink">
    <title>invest</title>
    <defs>
        <path d="M5.75360072,18.9525559 C0.861471198,16.7916447 -1.33772243,11.1032382 0.841564285,6.24714443 C3.02085099,1.39105063 8.7533665,-0.793826568 13.645496,1.36708462 C18.5376255,3.52799581 20.7368192,9.21640229 18.5575325,14.0724961 C16.3782458,18.9285899 10.6457303,21.1134671 5.75360072,18.9525559 Z" id="path-1"></path>
        <filter x="-7.7%" y="-7.8%" width="115.5%" height="115.6%" filterUnits="objectBoundingBox" id="filter-2">
            <feOffset dx="0" dy="0" in="SourceAlpha" result="shadowOffsetOuter1"></feOffset>
            <feGaussianBlur stdDeviation="0.5" in="shadowOffsetOuter1" result="shadowBlurOuter1"></feGaussianBlur>
            <feColorMatrix values="0 0 0 0 0.121485661   0 0 0 0 0.0582347375   0 0 0 0 0.165098852  0 0 0 0.123980978 0" type="matrix" in="shadowBlurOuter1"></feColorMatrix>
        </filter>
        <path d="M7.74333696,16.1612167 C4.11322531,14.5577536 2.48135552,10.3367798 4.09845376,6.73340777 C5.71555201,3.13003574 9.96925609,1.50878918 13.5993677,3.11225222 C17.2294794,4.71571526 18.8613492,8.93668908 17.2442509,12.5400611 C15.6271527,16.1434331 11.3734486,17.7646797 7.74333696,16.1612167 Z" id="path-3"></path>
        <filter x="-10.4%" y="-10.5%" width="120.8%" height="121.0%" filterUnits="objectBoundingBox" id="filter-4">
            <feOffset dx="0" dy="0" in="SourceAlpha" result="shadowOffsetOuter1"></feOffset>
            <feGaussianBlur stdDeviation="0.5" in="shadowOffsetOuter1" result="shadowBlurOuter1"></feGaussianBlur>
            <feComposite in="shadowBlurOuter1" in2="SourceAlpha" operator="out" result="shadowBlurOuter1"></feComposite>
            <feColorMatrix values="0 0 0 0 0.192123724   0 0 0 0 0.108356889   0 0 0 0 0.0555357641  0 0 0 0.264322917 0" type="matrix" in="shadowBlurOuter1"></feColorMatrix>
        </filter>
    </defs>
    <g id="Page-1" stroke="none" stroke-width="1" fill="none" fill-rule="evenodd">
        <g id="Our-Works" transform="translate(-113.000000, -4857.000000)" fill-rule="nonzero">
            <g id="invest" transform="translate(113.000000, 4858.000000)">
                <path d="M50.8141443,27.8449482 L50.8141443,17.1906718 L48.8961228,17.1906718 L48.8961228,27.8449482 L50.8141443,27.8449482 Z M54.1562267,27.8449482 L54.1562267,23.3041443 C54.1562267,22.1744809 54.8327381,21.4066051 55.8958276,21.4066051 C56.9514828,21.4066051 57.4718763,22.0341959 57.4718763,23.1490925 L57.4718763,27.8449482 L59.3229901,27.8449482 L59.3229901,22.7799214 C59.3229901,20.9635999 58.3342426,19.8560867 56.6020758,19.8560867 C55.4051709,19.8560867 54.6022782,20.4024599 54.1933976,21.2441699 L54.1562267,21.2441699 L54.1562267,20.018522 L52.3051128,20.018522 L52.3051128,27.8449482 L54.1562267,27.8449482 Z M64.7317778,27.8449482 L67.5047314,20.018522 L65.5718415,20.018522 L63.7504644,26.1393779 L63.7058593,26.1393779 L61.8770481,20.018522 L59.9069872,20.018522 L62.6948092,27.8449482 L64.7317778,27.8449482 Z M71.3300362,28 C73.3893074,28 74.5490413,26.789119 74.7943697,25.5856214 L74.8166723,25.5044037 L73.0845055,25.5044037 L73.0696371,25.5560877 C72.8912165,26.0803106 72.289047,26.5676163 71.3672072,26.5676163 C70.1628681,26.5676163 69.4045805,25.75544 69.3748437,24.3821238 L74.8910142,24.3821238 L74.8910142,23.7914501 C74.8910142,21.4287554 73.4933861,19.8560867 71.2408259,19.8560867 C68.9882657,19.8560867 67.5385983,21.4804393 67.5385983,23.9465019 L67.5385983,23.9538853 C67.5385983,26.4420982 68.9659631,28 71.3300362,28 Z M73.0919397,23.1564759 L69.3971463,23.1564759 C69.5458301,21.9529783 70.2818151,21.2958538 71.2631285,21.2958538 C72.2444418,21.2958538 72.9581243,21.9160612 73.0919397,23.1564759 Z M78.9467789,28 C80.8796688,28 82.2549944,27.0106216 82.2549944,25.5339374 L82.2549944,25.526554 C82.2549944,24.3895072 81.623088,23.754533 79.995,23.3927454 L78.679148,23.1047919 C77.8613869,22.9202064 77.556585,22.6248696 77.556585,22.1744809 L77.556585,22.1670975 C77.556585,21.5911906 78.0695443,21.2146362 78.8873054,21.2146362 C79.7496717,21.2146362 80.2551967,21.6724083 80.3369728,22.2999991 L80.344407,22.3590664 L82.0691396,22.3590664 L82.0617054,22.2778488 C81.9947976,20.9266828 80.8499321,19.8560867 78.8873054,19.8560867 C76.9841522,19.8560867 75.7277738,20.8233149 75.7277738,22.2556985 L75.7277738,22.263082 C75.7277738,23.422279 76.4860614,24.1532377 77.9952023,24.4854916 L79.3036201,24.7734451 C80.1213813,24.9580306 80.3964464,25.2238337 80.3964464,25.6963727 L80.3964464,25.7037561 C80.3964464,26.2796629 79.8537504,26.6414506 78.9542131,26.6414506 C78.0175049,26.6414506 77.5045457,26.2427458 77.363296,25.5708545 L77.3484276,25.5044037 L75.5270506,25.5044037 L75.5344848,25.5708545 C75.698037,27.0253884 76.8800735,28 78.9467789,28 Z M86.1472069,28 C86.5189165,28 86.8460209,27.9630829 87.0616125,27.9335492 L87.0616125,26.5528495 C86.9352312,26.5602329 86.7939816,26.5823832 86.615561,26.5823832 C85.9390495,26.5823832 85.5970767,26.3387303 85.5970767,25.5708545 L85.5970767,21.4361388 L87.0616125,21.4361388 L87.0616125,20.018522 L85.5970767,20.018522 L85.5970767,18.0323818 L83.7162261,18.0323818 L83.7162261,20.018522 L82.6010973,20.018522 L82.6010973,21.4361388 L83.7162261,21.4361388 L83.7162261,25.7259064 C83.7162261,27.3354921 84.4968163,28 86.1472069,28 Z M89.9650775,27.8449482 L89.9650775,23.053108 C89.9650775,22.1006467 90.5895496,21.4066051 91.4816527,21.4066051 C92.3440189,21.4066051 92.8792808,21.9529783 92.8792808,22.8316054 L92.8792808,27.8449482 L94.6783552,27.8449482 L94.6783552,23.0088075 C94.6783552,22.0637296 95.287959,21.4066051 96.180062,21.4066051 C97.0870334,21.4066051 97.5925585,21.9603617 97.5925585,22.9275898 L97.5925585,27.8449482 L99.4436723,27.8449482 L99.4436723,22.4698177 C99.4436723,20.9045325 98.425188,19.8560867 96.8714419,19.8560867 C95.7340105,19.8560867 94.7973023,20.4615272 94.4181585,21.4361388 L94.3735534,21.4361388 C94.0836199,20.4319936 93.2881613,19.8560867 92.1879009,19.8560867 C91.147114,19.8560867 90.3367871,20.4172267 90.0022485,21.2737035 L89.9650775,21.2737035 L89.9650775,20.018522 L88.1139637,20.018522 L88.1139637,27.8449482 L89.9650775,27.8449482 Z M104.175949,28 C106.23522,28 107.394954,26.789119 107.640282,25.5856214 L107.662585,25.5044037 L105.930418,25.5044037 L105.915549,25.5560877 C105.737129,26.0803106 105.134959,26.5676163 104.213119,26.5676163 C103.00878,26.5676163 102.250493,25.75544 102.220756,24.3821238 L107.736926,24.3821238 L107.736926,23.7914501 C107.736926,21.4287554 106.339298,19.8560867 104.086738,19.8560867 C101.834178,19.8560867 100.384511,21.4804393 100.384511,23.9465019 L100.384511,23.9538853 C100.384511,26.4420982 101.811875,28 104.175949,28 Z M105.937852,23.1564759 L102.243059,23.1564759 C102.391742,21.9529783 103.127727,21.2958538 104.109041,21.2958538 C105.090354,21.2958538 105.804037,21.9160612 105.937852,23.1564759 Z M110.56605,27.8449482 L110.56605,23.3041443 C110.56605,22.1744809 111.242561,21.4066051 112.30565,21.4066051 C113.361306,21.4066051 113.881699,22.0341959 113.881699,23.1490925 L113.881699,27.8449482 L115.732813,27.8449482 L115.732813,22.7799214 C115.732813,20.9635999 114.744065,19.8560867 113.011899,19.8560867 C111.814994,19.8560867 111.012101,20.4024599 110.603221,21.2441699 L110.56605,21.2441699 L110.56605,20.018522 L108.714936,20.018522 L108.714936,27.8449482 L110.56605,27.8449482 Z M119.929827,28 C120.301537,28 120.628641,27.9630829 120.844233,27.9335492 L120.844233,26.5528495 C120.717852,26.5602329 120.576602,26.5823832 120.398182,26.5823832 C119.72167,26.5823832 119.379697,26.3387303 119.379697,25.5708545 L119.379697,21.4361388 L120.844233,21.4361388 L120.844233,20.018522 L119.379697,20.018522 L119.379697,18.0323818 L117.498847,18.0323818 L117.498847,20.018522 L116.383718,20.018522 L116.383718,21.4361388 L117.498847,21.4361388 L117.498847,25.7259064 C117.498847,27.3354921 118.279437,28 119.929827,28 Z M124.97434,28 C126.90723,28 128.282555,27.0106216 128.282555,25.5339374 L128.282555,25.526554 C128.282555,24.3895072 127.650649,23.754533 126.022561,23.3927454 L124.706709,23.1047919 C123.888948,22.9202064 123.584146,22.6248696 123.584146,22.1744809 L123.584146,22.1670975 C123.584146,21.5911906 124.097105,21.2146362 124.914866,21.2146362 C125.777232,21.2146362 126.282757,21.6724083 126.364534,22.2999991 L126.371968,22.3590664 L128.0967,22.3590664 L128.089266,22.2778488 C128.022358,20.9266828 126.877493,19.8560867 124.914866,19.8560867 C123.011713,19.8560867 121.755335,20.8233149 121.755335,22.2556985 L121.755335,22.263082 C121.755335,23.422279 122.513622,24.1532377 124.022763,24.4854916 L125.331181,24.7734451 C126.148942,24.9580306 126.424007,25.2238337 126.424007,25.6963727 L126.424007,25.7037561 C126.424007,26.2796629 125.881311,26.6414506 124.981774,26.6414506 C124.045066,26.6414506 123.532106,26.2427458 123.390857,25.5708545 L123.375988,25.5044037 L121.554611,25.5044037 L121.562046,25.5708545 C121.725598,27.0253884 122.907634,28 124.97434,28 Z" id="Investments" fill-opacity="0.85" fill="#000000"></path>
                <path d="M51.133773,14.0171432 L51.133773,6.5778348 L54.2397016,14.0171432 L55.9905926,14.0171432 L59.0965211,6.5174753 L59.0965211,14.0171432 L61.1671401,14.0171432 L61.1671401,3.31842181 L58.3048139,3.31842181 L55.1379848,11.0444378 L51.89503,3.31842181 L49.1240546,3.31842181 L49.1240546,14.0171432 L51.133773,14.0171432 Z M65.0812969,14.2284014 C66.0760059,14.2284014 66.8118877,13.8612144 67.2889421,13.1268405 C67.2889421,13.4990574 67.3143173,13.795825 67.3650678,14.0171432 L67.3650678,14.0171432 L69.2225349,14.0171432 C69.1616343,13.675106 69.131184,13.2827693 69.131184,12.8401329 L69.131184,12.8401329 L69.131184,9.18838317 C69.131184,8.36347001 68.8672816,7.68694061 68.3394768,7.15879499 C67.8116719,6.63064936 66.9895143,6.36657655 65.8730041,6.36657655 C64.9391955,6.36657655 64.1880886,6.61304451 63.6196835,7.10598043 C63.0512782,7.59891634 62.7315503,8.16730163 62.6604996,8.8111363 L62.6604996,8.8111363 L64.4570661,9.18838317 C64.4875164,8.84634603 64.6270802,8.55963838 64.8757575,8.3282603 C65.1244347,8.09688221 65.4619254,7.98119317 65.8882293,7.98119317 C66.294233,7.98119317 66.6063483,8.07173242 66.8245754,8.25281092 C67.0428023,8.43388942 67.1519159,8.66526751 67.1519159,8.94694517 C67.1519159,9.24874267 66.9641391,9.42479119 66.5885857,9.4750908 L66.5885857,9.4750908 L64.7463438,9.74670855 C64.0865877,9.84730769 63.5486327,10.0887457 63.132479,10.4710225 C62.7163251,10.8532994 62.5082482,11.3613252 62.5082482,11.9950999 C62.5082482,12.5986949 62.7442379,13.1218106 63.2162172,13.5644469 C63.6881966,14.0070833 64.3098897,14.2284014 65.0812969,14.2284014 Z M65.5076008,12.7345038 C65.203098,12.7345038 64.9645707,12.6515095 64.7920192,12.4855209 C64.6194676,12.3195322 64.5331918,12.1158189 64.5331918,11.8743809 C64.5331918,11.3412053 64.8427696,11.0293479 65.4619254,10.9388087 L65.4619254,10.9388087 L67.1519159,10.6822808 L67.1519159,11.014258 C67.1519159,11.6279129 66.9971269,12.0680343 66.6875491,12.3346221 C66.3779712,12.6012099 65.9846551,12.7345038 65.5076008,12.7345038 Z M74.0349749,14.2434913 C74.9687834,14.2434913 75.7401905,13.9970233 76.3491961,13.5040874 C76.9582017,13.0111515 77.3540553,12.4226464 77.536757,11.738572 L77.536757,11.738572 L75.7554156,11.1500669 C75.6539147,11.4921041 75.4610629,11.7863566 75.1768603,12.0328246 C74.8926577,12.2792926 74.5120292,12.4025265 74.0349749,12.4025265 C73.4970199,12.4025265 73.0428032,12.2139031 72.6723248,11.8366562 C72.3018464,11.4594094 72.1166072,10.9488686 72.1166072,10.3050339 C72.1166072,9.66119928 72.2993089,9.15317344 72.6647123,8.78095655 C73.0301156,8.40873963 73.4817947,8.22263117 74.0197497,8.22263117 C74.8825076,8.22263117 75.4356877,8.64011771 75.6792899,9.4750908 L75.6792899,9.4750908 L77.4910816,8.8714958 C77.31853,8.17736155 76.9277514,7.58634145 76.3187458,7.09843549 C75.7097402,6.61052953 74.928183,6.36657655 73.9740743,6.36657655 C72.8778642,6.36657655 71.9567433,6.73879347 71.2107114,7.4832273 C70.4646796,8.22766113 70.0916637,9.16826331 70.0916637,10.3050339 C70.0916637,11.4317446 70.4697546,12.3698318 71.2259366,13.1192956 C71.9821185,13.8687594 72.9184646,14.2434913 74.0349749,14.2434913 Z M79.8370489,14.0171432 L80.7353322,11.5725834 L85.1201724,11.5725834 L86.0184556,14.0171432 L88.3022266,14.0171432 L84.1914389,3.31842181 L81.7554165,3.31842181 L77.6141785,14.0171432 L79.8370489,14.0171432 Z M84.419816,9.67125917 L81.4356886,9.67125917 L82.9277523,5.62717268 L84.419816,9.67125917 Z M91.0440477,16.8842194 L91.0440477,13.2928292 C91.4906513,13.8964242 92.2113082,14.1982217 93.2060176,14.1982217 C94.2514769,14.1982217 95.1015475,13.8310347 95.7562285,13.0966608 C96.4109095,12.3622869 96.73825,11.4267147 96.73825,10.289944 C96.73825,9.15317344 96.4286719,8.22514615 95.8095165,7.50586211 C95.1903603,6.78657807 94.3479031,6.42693605 93.2821433,6.42693605 C92.7441881,6.42693605 92.2722087,6.5300502 91.8662053,6.73627849 C91.460201,6.94250678 91.1658488,7.19651968 90.9831472,7.49831718 L90.9831472,7.49831718 L90.9831472,6.59292468 L89.0191041,6.59292468 L89.0191041,16.8842194 L91.0440477,16.8842194 Z M92.8862896,12.4025265 C92.3483344,12.4025265 91.9017301,12.2113882 91.5464773,11.8291113 C91.1912238,11.4468344 91.0135975,10.9388087 91.0135975,10.3050339 C91.0135975,9.67125917 91.1912238,9.16574836 91.5464773,8.78850149 C91.9017301,8.41125461 92.3483344,8.22263117 92.8862896,8.22263117 C93.4242441,8.22263117 93.8683112,8.40873963 94.2184894,8.78095655 C94.5686676,9.15317344 94.7437567,9.66119928 94.7437567,10.3050339 C94.7437567,10.9488686 94.5661296,11.4619243 94.2108768,11.8442012 C93.8657731,12.2164181 93.4242441,12.4025265 92.8862896,12.4025265 Z M99.8759244,16.8842194 L99.8759244,13.2928292 C100.322529,13.8964242 101.043185,14.1982217 102.037894,14.1982217 C103.083354,14.1982217 103.933424,13.8310347 104.588105,13.0966608 C105.242786,12.3622869 105.570127,11.4267147 105.570127,10.289944 C105.570127,9.15317344 105.260549,8.22514615 104.641393,7.50586211 C104.022238,6.78657807 103.17978,6.42693605 102.11402,6.42693605 C101.576065,6.42693605 101.104085,6.5300502 100.698082,6.73627849 C100.292079,6.94250678 99.9977256,7.19651968 99.8150239,7.49831718 L99.8150239,7.49831718 L99.8150239,6.59292468 L97.8509809,6.59292468 L97.8509809,16.8842194 L99.8759244,16.8842194 Z M101.718166,12.4025265 C101.180211,12.4025265 100.733608,12.2113882 100.378354,11.8291113 C100.023101,11.4468344 99.8454742,10.9388087 99.8454742,10.3050339 C99.8454742,9.67125917 100.023101,9.16574836 100.378354,8.78850149 C100.733608,8.41125461 101.180211,8.22263117 101.718166,8.22263117 C102.256122,8.22263117 102.700188,8.40873963 103.050366,8.78095655 C103.400544,9.15317344 103.575633,9.66119928 103.575633,10.3050339 C103.575633,10.9488686 103.398007,11.4619243 103.042754,11.8442012 C102.697651,12.2164181 102.256122,12.4025265 101.718166,12.4025265 Z M110.352116,14.2434913 C111.539677,14.2434913 112.486174,13.914029 113.191605,13.2551045 C113.897037,12.59618 114.249752,11.8240813 114.249752,10.9388087 C114.249752,10.1641951 113.98585,9.49018067 113.458045,8.91676542 C112.93024,8.34335017 112.189284,7.9661033 111.235174,7.7850248 L111.235174,7.7850248 L109.727886,7.49831718 C108.946329,7.34741843 108.55555,6.94502176 108.55555,6.29112718 C108.55555,5.91891026 108.712876,5.5995079 109.027529,5.33292012 C109.342182,5.06633233 109.748186,4.93303843 110.24554,4.93303843 C110.854546,4.93303843 111.316375,5.08896714 111.631028,5.40082455 C111.945681,5.71268197 112.138533,6.05974909 112.209583,6.44202593 L112.209583,6.44202593 L114.097501,5.86861068 C114.02645,5.53663343 113.909724,5.21974605 113.747322,4.91794855 C113.584921,4.61615105 113.356544,4.32189849 113.062191,4.03519087 C112.767839,3.74848324 112.37706,3.51962014 111.889855,3.34860156 C111.402651,3.17758297 110.849471,3.09207368 110.230315,3.09207368 C109.195006,3.09207368 108.30941,3.41399102 107.573528,4.05782568 C106.837647,4.70166034 106.469706,5.49639376 106.469706,6.44202593 C106.469706,7.23675934 106.723458,7.90071384 107.230963,8.43388942 C107.738468,8.96706503 108.428674,9.32419205 109.301582,9.50527055 L109.301582,9.50527055 L110.80887,9.80706805 C111.225025,9.8875474 111.54729,10.0409611 111.775667,10.2673092 C112.004044,10.4936574 112.118232,10.7627602 112.118232,11.0746175 C112.118232,11.4669543 111.963444,11.7838417 111.653866,12.0252797 C111.344288,12.2667177 110.915446,12.3874367 110.367341,12.3874367 C109.646685,12.3874367 109.085892,12.1962983 108.684963,11.8140214 C108.284035,11.4317446 108.058195,10.9538985 108.007445,10.3804833 L108.007445,10.3804833 L106.058627,10.893539 C106.099228,11.2959357 106.213416,11.6857575 106.401192,12.0630044 C106.588969,12.4402512 106.850334,12.7973782 107.185287,13.1343855 C107.52024,13.4713927 107.961769,13.7404954 108.509874,13.9416938 C109.057979,14.1428921 109.67206,14.2434913 110.352116,14.2434913 Z M118.331385,14.1227723 C118.79829,14.1227723 119.178918,14.0624128 119.473271,13.9416938 L119.473271,13.9416938 L119.473271,12.2818075 C119.33117,12.3220472 119.123092,12.342167 118.84904,12.342167 C118.544537,12.342167 118.321235,12.2767776 118.179134,12.1459987 C118.037033,12.0152198 117.965982,11.7939016 117.965982,11.4820442 L117.965982,11.4820442 L117.965982,8.37352992 L119.473271,8.37352992 L119.473271,6.59292468 L117.965982,6.59292468 L117.965982,4.37471305 L116.138965,4.37471305 L116.138965,5.41591443 C116.138965,5.76801151 116.040002,6.05220415 115.842075,6.26849236 C115.644148,6.48478057 115.357408,6.59292468 114.981854,6.59292468 L114.981854,6.59292468 L114.601226,6.59292468 L114.601226,8.37352992 L115.956263,8.37352992 L115.956263,11.8291113 C115.956263,12.5433654 116.169415,13.1042057 116.595719,13.5116324 C117.022023,13.919059 117.600578,14.1227723 118.331385,14.1227723 Z M123.524454,14.2133115 C123.950758,14.2133115 124.354224,14.1303172 124.734853,13.9643286 C125.115481,13.79834 125.402221,13.549357 125.595073,13.2173798 C125.595073,13.549357 125.615373,13.8159448 125.655974,14.0171432 L125.655974,14.0171432 L127.589567,14.0171432 C127.538816,13.5946267 127.513441,13.1469604 127.513441,12.6741443 L127.513441,12.6741443 L127.513441,6.59292468 L125.488497,6.59292468 L125.488497,10.9086289 C125.488497,11.3512653 125.361621,11.7058773 125.107869,11.9724651 C124.854116,12.2390529 124.509013,12.3723468 124.072559,12.3723468 C123.625955,12.3723468 123.285927,12.234023 123.052475,11.9573752 C122.819022,11.6807275 122.702297,11.3210855 122.702297,10.8784492 L122.702297,10.8784492 L122.702297,6.59292468 L120.677353,6.59292468 L120.677353,11.2858758 C120.677353,12.1208489 120.931105,12.8174981 121.43861,13.3758235 C121.946114,13.9341489 122.641396,14.2133115 123.524454,14.2133115 Z M132.249755,14.1982217 C132.736959,14.1982217 133.165801,14.1026524 133.536279,13.911514 C133.906757,13.7203756 134.178272,13.4688777 134.350824,13.1570203 C134.350824,13.4789376 134.376199,13.7656453 134.42695,14.0171432 L134.42695,14.0171432 L136.360543,14.0171432 C136.319942,13.6147465 136.299642,13.1670802 136.299642,12.6741443 L136.299642,12.6741443 L136.299642,3.09207368 L134.305149,3.09207368 L134.305149,7.33232855 C133.970196,6.71867364 133.264764,6.41184618 132.188854,6.41184618 C131.143394,6.41184618 130.283174,6.78406309 129.608193,7.52849693 C128.933212,8.27293076 128.595721,9.19341316 128.595721,10.289944 C128.595721,11.4166547 128.938287,12.349712 129.623418,13.0891159 C130.30855,13.8285197 131.183995,14.1982217 132.249755,14.1982217 Z M132.493357,12.4025265 C131.945252,12.4025265 131.498648,12.2139031 131.153545,11.8366562 C130.808441,11.4594094 130.63589,10.9438387 130.63589,10.289944 C130.63589,9.64610941 130.810979,9.13808356 131.161157,8.76586667 C131.511336,8.39364976 131.955402,8.2075413 132.493357,8.2075413 C133.031312,8.2075413 133.472841,8.39113478 133.817944,8.75832174 C134.163047,9.12550872 134.335599,9.63101953 134.335599,10.2748542 C134.335599,10.9287488 134.163047,11.4468344 133.817944,11.8291113 C133.472841,12.2113882 133.031312,12.4025265 132.493357,12.4025265 Z M139.011013,5.38573468 C139.356116,5.38573468 139.650469,5.26501568 139.894071,5.02357768 C140.137673,4.78213968 140.259474,4.49543205 140.259474,4.16345481 C140.259474,3.81135772 140.137673,3.51459018 139.894071,3.27315218 C139.650469,3.03171418 139.356116,2.91099518 139.011013,2.91099518 C138.66591,2.91099518 138.371557,3.03422916 138.127955,3.28069712 C137.884352,3.52716508 137.762551,3.82141764 137.762551,4.16345481 C137.762551,4.49543205 137.884352,4.78213968 138.127955,5.02357768 C138.371557,5.26501568 138.66591,5.38573468 139.011013,5.38573468 Z M140.031097,14.0171432 L140.031097,6.59292468 L138.006153,6.59292468 L138.006153,14.0171432 L140.031097,14.0171432 Z M145.071914,14.2434913 C146.198574,14.2434913 147.13492,13.8712744 147.880952,13.1268405 C148.626984,12.3824067 149,11.4418045 149,10.3050339 C149,9.16826331 148.626984,8.22766113 147.880952,7.4832273 C147.13492,6.73879347 146.198574,6.36657655 145.071914,6.36657655 C143.945254,6.36657655 143.00637,6.73879347 142.255263,7.4832273 C141.514307,8.22766113 141.143828,9.16826331 141.143828,10.3050339 C141.143828,11.4418045 141.516844,12.3824067 142.262876,13.1268405 C143.008908,13.8712744 143.945254,14.2434913 145.071914,14.2434913 Z M145.071914,12.4176164 C144.544109,12.4176164 144.09243,12.2315079 143.716877,11.859291 C143.351473,11.4870742 143.168771,10.9689884 143.168771,10.3050339 C143.168771,9.64107942 143.354011,9.12299369 143.724489,8.7507768 C144.094968,8.37855988 144.544109,8.19245142 145.071914,8.19245142 C145.599719,8.19245142 146.048861,8.37855988 146.419339,8.7507768 C146.789817,9.12299369 146.975056,9.64107942 146.975056,10.3050339 C146.975056,10.9689884 146.789817,11.4870742 146.419339,11.859291 C146.048861,12.2315079 145.599719,12.4176164 145.071914,12.4176164 Z" id="MacAppStudio" fill-opacity="0.85" fill="#000000"></path>
                <g id="Group-37" transform="translate(10.623245, 0.000000)">
                    <g id="Group-4">
                        <g id="Oval-Copy-5">
                            <use fill="black" fill-opacity="1" filter="url(#filter-2)" xlink:href="#path-1"></use>
                            <use fill="#D3D3D3" xlink:href="#path-1"></use>
                        </g>
                        <path d="M6.75432603,18.4191276 C1.8621965,16.2582164 -0.336997124,10.56981 1.84228959,5.71371617 C4.0215763,0.857622368 9.7540918,-1.32725483 14.6462213,0.83365636 C19.5383508,2.99456755 21.7375445,8.68297402 19.5582578,13.5390678 C17.3789711,18.3951616 11.6464556,20.5800388 6.75432603,18.4191276 Z" id="Oval" fill-opacity="0.85" fill="#000000"></path>
                        <g id="Oval-Copy">
                            <use fill="black" fill-opacity="1" filter="url(#filter-4)" xlink:href="#path-3"></use>
                            <use fill-opacity="0.85" fill="#4E4E4E" xlink:href="#path-3"></use>
                        </g>
                    </g>
                    <g id="Group-21" transform="translate(6.878458, 4.556952)">
                        <path d="M6.07573972,8.44116283 L6.50787804,9.52781876 L5.11268861,10.0686993 L4.70277454,9.03099183 C3.80207399,9.34498681 2.84043535,9.44883901 1.89264079,9.33447232 L1.97412973,7.35940175 C2.82821718,7.48604611 3.70075987,7.3959462 4.51016432,7.09752746 C5.17195329,6.83810059 5.35468606,6.6080428 5.25097287,6.36330048 C4.91020094,5.49936007 1.361728,7.68490904 0.349289649,5.13958885 C-0.0902567555,4.03335353 0.349289649,2.78761509 1.88276334,1.93101695 L1.46050247,0.863940411 L2.85322254,0.320612447 L3.27548341,1.3778993 C3.99421675,1.15907265 4.75019315,1.08664418 5.49790905,1.16497347 L5.46086862,3.12291208 C4.74179573,3.03607484 4.01219535,3.11996329 3.33227873,3.36765441 C2.65073487,3.63442354 2.51245061,3.91342979 2.60381699,4.14838243 C2.92977275,4.97071664 6.48318442,2.79740479 7.48327596,5.32314559 C7.90800619,6.35840563 7.50303085,7.57966984 6.07573972,8.44116283 Z" id="Path" fill="#8B8B8B"></path>
                        <path d="M5.89300694,8.09362872 L6.3226759,9.18028465 L4.92995583,9.72361262 L4.51016432,8.68590515 C3.60920807,8.99878299 2.64783207,9.10260683 1.70003057,8.98938564 L1.79386632,7.0069728 C2.64405433,7.13889657 3.51411941,7.05468415 4.32249282,6.76223047 C4.98428179,6.51748814 5.16701457,6.27274582 5.06330137,6.04024061 C4.72252944,5.17874762 1.1740565,7.36429659 0.16161815,4.81652898 C-0.277928254,3.71029366 0.16161815,2.46455522 1.69509184,1.60795708 L1.27036161,0.540880541 L2.66308168,0 L3.08040383,1.04749716 C3.79865812,0.826304142 4.55512641,0.753828541 5.30282947,0.834571332 L5.26578904,2.79250994 C4.54671333,2.70679653 3.81737811,2.79065449 3.13719915,3.03725227 C2.45565528,3.30157398 2.31490166,3.58302765 2.40873741,3.81798029 C2.73469317,4.6403145 6.28563547,2.46700265 7.28819637,4.99274345 C7.72033469,6.01331895 7.31782871,7.23458316 5.89300694,8.09362872 Z" id="Path" fill="#FFFFFF"></path>
                    </g>
                </g>
                <g id="Group" transform="translate(0.000000, 13.829099)">
                    <path d="M23.424781,3.97896672 C22.7176132,3.21496147 21.90757,2.34009111 20.3215052,2.34009111 C18.7362505,2.34009111 17.9253972,3.21496147 17.2190394,3.97896672 C16.4632691,4.79438767 15.7990336,5.5126008 14.5564272,5.40816265 C13.2563077,5.29970765 12.4478845,4.40394966 11.6961643,3.57165793 C11.1420947,2.95707958 10.6277172,2.38829334 10.0922786,2.45336634 C9.40050167,2.53772023 8.76461769,2.96832676 8.13359397,3.39571981 C7.35028212,3.92594427 6.57426066,4.45134851 5.56656681,4.52204511 C4.25024648,4.61603944 3.65081445,3.98378694 3.09107454,3.3933097 C2.69577342,2.97716384 2.33287403,2.59395616 1.38107317,2.99483798 C2.73222537,5.16956164 8.64392124,13.4555239 20.3215052,13.4555239 C31.9998992,13.4555239 37.9115951,5.16956164 39.2619372,2.99483798 C38.3109464,2.59395616 37.947237,2.97716384 37.5527459,3.3933097 C36.992196,3.98378694 36.393574,4.61603944 35.0772536,4.52204511 C34.0687498,4.45134851 33.2927283,3.92594427 32.5102265,3.39571981 C31.8792028,2.96832676 31.2433188,2.53772023 30.5515418,2.45336634 C30.0161032,2.38829334 29.5017257,2.95707958 28.9476561,3.57165793 C28.195936,4.40394966 27.3875128,5.29970765 26.0873933,5.40816265 C24.8447869,5.5126008 24.1797414,4.79438767 23.424781,3.97896672" id="Fill-51" fill-opacity="0.85" fill="#000000"></path>
                    <path d="M20.3215052,13.4555239 C31.9998992,13.4555239 37.9115951,5.16956164 39.2619372,2.99483798 C38.3109464,2.59395616 37.947237,2.97716384 37.5527459,3.3933097 C36.992196,3.98378694 36.393574,4.61603944 35.0772536,4.52204511 C34.0687498,4.45134851 33.2927283,3.92594427 32.5102265,3.39571981 C31.8792028,2.96832676 31.2433188,2.53772023 30.5515418,2.45336634 C30.0161032,2.38829334 29.5017257,2.95707958 28.9476561,3.57165793 C28.195936,4.40394966 27.3875128,5.29970765 26.0873933,5.40816265 C24.8447869,5.5126008 24.1797414,4.79438767 23.424781,3.97896672 C22.7176132,3.21496147 8.64392124,13.4555239 20.3215052,13.4555239 Z" id="Fill-51" opacity="0.56938244"></path>
                    <path d="M20.4198296,13.4555239 C6.2426475,13.4555239 0.0894271615,1.90560439 0.0715564225,1.87272148 C-0.0811571647,1.59361781 0.018756512,1.24714428 0.293316047,1.0875419 C2.47517081,-0.184465071 3.20380957,0.580663963 4.00880513,1.42519318 C4.38246604,1.81738196 4.78293305,2.23683949 5.54000254,2.18310401 C6.2296506,2.13498269 6.87543412,1.69948472 7.52609148,1.26158068 C8.27909943,0.753098703 9.03941814,0.240606614 10.0174349,0.122709373 C11.1668484,-0.016842463 11.8833026,0.773149254 12.6566182,1.62569869 C13.2561002,2.28736688 13.9018837,2.99795842 14.7361223,3.06773433 C15.4038381,3.12387588 15.8847235,2.60657166 16.4314056,2.01868949 C17.3062595,1.07791763 18.3086455,0 20.4198296,0 C22.531826,0 23.534212,1.07791763 24.4090659,2.01868949 C24.9549358,2.60657166 25.4358211,3.12387588 26.1035369,3.06773433 C26.9385878,2.99795842 27.583559,2.28736688 28.1838534,1.62569869 C28.957169,0.773149254 29.6728109,-0.016842463 30.8230366,0.122709373 C31.8002411,0.240606614 32.5605598,0.753098703 33.3143801,1.26158068 C33.9650374,1.69948472 34.6100086,2.13498269 35.300469,2.18310401 C36.0575385,2.23683949 36.4571932,1.81738196 36.8316664,1.42519318 C37.6358497,0.580663963 38.3653007,-0.184465071 40.5471555,1.0875419 C40.8257766,1.24955035 40.9216287,1.60163803 40.7656659,1.87913766 C40.6218877,2.14460696 34.4507966,13.4555239 20.4198296,13.4555239 Z M1.42648336,1.83262038 C2.78141029,4.00369406 8.70962178,12.2765515 20.4198296,12.2765515 C32.1308498,12.2765515 38.0590613,4.00369406 39.4131759,1.83262038 C38.4595283,1.4332134 38.0948027,1.81497589 37.6992096,2.23122534 C37.1370936,2.82071154 36.5367992,3.45110087 35.2168015,3.35806631 C34.2054801,3.28668635 33.4272906,2.76216393 32.6426027,2.23282938 C32.0098161,1.80695567 31.3721557,1.37626983 30.6784461,1.29205752 C30.1415116,1.22709373 29.6256971,1.79572737 29.0700796,2.40847221 C28.3162593,3.23936705 27.5055776,4.13362164 26.201826,4.24189461 C24.9557481,4.34615748 24.2888446,3.62995179 23.5317751,2.81509739 C22.8226317,2.05317644 22.0103254,1.17897241 20.4198296,1.17897241 C18.8301462,1.17897241 18.0170275,2.05317644 17.3086964,2.81509739 C16.5508146,3.62995179 15.8847235,4.34615748 14.6386456,4.24189461 C13.3348939,4.13362164 12.5242122,3.23936705 11.770392,2.40847221 C11.2147745,1.79572737 10.6989599,1.22709373 10.1620255,1.29205752 C9.46831588,1.37626983 8.83065542,1.80695567 8.1978688,2.23282938 C7.41236859,2.76216393 6.63417914,3.28668635 5.62367009,3.35806631 C4.30367232,3.45110087 3.70256565,2.82071154 3.14126199,2.23122534 C2.74485651,1.81497589 2.38094328,1.4332134 1.42648336,1.83262038 L1.42648336,1.83262038 Z" id="Fill-52" fill-opacity="0.85" fill="#000000"></path>
                </g>
            </g>
        </g>
    </g>
</svg>