<?xml version="1.0" encoding="UTF-8"?>
<svg width="121px" height="35px" viewBox="0 0 121 35" version="1.1" xmlns="http://www.w3.org/2000/svg" xmlns:xlink="http://www.w3.org/1999/xlink">
    <title>qticket</title>
    <g id="Page-1" stroke="none" stroke-width="1" fill="none" fill-rule="evenodd">
        <g id="Our-Works" transform="translate(-549.000000, -3146.000000)">
            <g id="qticket" transform="translate(549.000000, 3146.000000)">
                <text id="Q-Ticket" font-family="AvenirNext-Bold, Avenir Next" font-size="20.6120887" font-weight="bold" fill="#292929">
                    <tspan x="35.7814652" y="26.9370457">Q-Ticket</tspan>
                </text>
                <g id="jhbvk">
                    <path d="M8.01376462,30.3639527 L7.64196481,30.913199 L0,28.6566057 C6.72619654,19.5386916 11.3251067,12.5485746 13.8083491,1.37524458 L15.4487045,0 C13.0573558,10.7134959 7.81624597,19.6504568 1.3604493,28.4022068 L8.01376462,30.3639527 Z M23.4698629,4.82400034 C23.8691252,4.46422274 23.9525689,4.17469756 24.0719251,3.5573277 L25.2749932,3.42214499 C25.1566933,4.02461282 24.8799559,4.90489708 24.1712126,5.00176029 C23.923473,5.03509023 23.6724786,4.97147466 23.4698629,4.82400034 L23.4698629,4.82400034 Z M18.7104029,33.5231833 L17.4840972,33.8212239 L12.525006,32.358696 L13.2031182,31.0132555 C13.9583366,29.5230524 11.9884313,28.9195202 10.8614132,28.9003604 C12.2144687,28.368145 15.556442,28.7939173 14.5677925,30.7545988 L13.8896803,32.0979105 L18.7104029,33.5231833 Z" id="Shape" fill="#D4D4D4"></path>
                    <path d="M16.6295914,0.425772316 C14.5762425,10.0567421 8.96016414,20.1954454 3.41907949,27.7071335 L8.48907688,29.1973366 C9.08691407,28.3127946 10.2023135,27.6251723 11.5522003,27.4282526 C13.9393241,27.0727327 16.9781538,28.7343092 15.6715732,31.3176827 L19.1698714,32.358696 C20.3810374,30.3809836 21.5154493,28.353243 22.5731071,26.2754741 L26.9058424,16.0590673 C28.1473385,12.4536949 29.1314552,8.76348552 29.8506659,5.01666232 L26.4590489,3.83195085 C26.209774,5.1092678 25.4027994,6.09493071 24.3328187,6.23437114 C22.2203198,6.51963859 21.0521079,3.85004617 21.2306141,2.0224185 L16.6295914,0.425772316 Z M26.8847174,10.1323167 L26.0798553,9.89601306 C25.5517306,9.7416706 25.7851617,8.93057433 26.3132864,9.0849168 L27.1181485,9.32122043 C27.6462733,9.4755629 27.4138984,10.2866592 26.8847174,10.1323167 Z M23.8997564,8.37707032 C24.4278812,8.53141279 24.19445,9.34250905 23.6652691,9.18816659 L22.860407,8.95292738 C22.3322822,8.79752048 22.5614884,7.98748865 23.0906694,8.14183112 L23.8997564,8.37707032 Z M20.6760831,7.43504907 C21.2042078,7.58939154 20.9718329,8.4004878 20.442652,8.24614534 L19.6377899,8.0098417 C19.1096652,7.85549924 19.34204,7.04440297 19.871221,7.19874544 L20.6760831,7.43504907 Z M17.4566348,6.49302782 C17.9847595,6.64737029 17.7523846,7.45846655 17.2232036,7.30412409 L16.4183415,7.06888488 C15.8902168,6.91347799 16.1194229,6.10344615 16.6517727,6.25778862 L17.4566348,6.49302782 Z" id="Shape" fill-opacity="0.85" fill="#000000"></path>
                    <path d="M20.883108,24.4701994 L18.1009469,28.7694354 L15.0769047,15.7227072 L14.4526613,15.5183365 L17.6911221,30.952583 L20.7183331,26.2690875 L21.9140075,27.5464044 C22.1368761,27.1259543 22.3586885,26.7012464 22.5731071,26.2765385 L20.883108,24.4701994 Z" id="Path" fill-opacity="0.85" fill="#000000"></path>
                    <path d="M12.9612371,26.6214141 C9.96043237,24.9491933 10.2054822,20.5467076 12.4331123,14.4869031 C10.2264469,18.9470657 7.65770396,23.2157754 4.75312255,27.2494282 L8.19438328,28.2648952 C9.36787643,26.9748051 11.2575067,26.391497 12.9622933,26.6192852 L12.9612371,26.6214141 Z" id="Path" fill-opacity="0.85" fill="#000000"></path>
                </g>
                <polygon id="Path" fill="#FFFFFF" points="18.1366862 17.0869328 15.2326054 16.5164987 17.4475823 14.5385806 17.0907249 11.581004 19.6379483 13.0938944 22.3205314 11.8538203 21.6744964 14.7617939 23.6925865 16.9443243 20.7454367 17.2295413 19.3118545 19.8336968"></polygon>
            </g>
        </g>
    </g>
</svg>