<?xml version="1.0" encoding="UTF-8"?>
<svg width="128px" height="26px" viewBox="0 0 128 26" version="1.1" xmlns="http://www.w3.org/2000/svg" xmlns:xlink="http://www.w3.org/1999/xlink">
    <title>doc</title>
    <g id="Page-1" stroke="none" stroke-width="1" fill="none" fill-rule="evenodd">
        <g id="Our-Works" transform="translate(-110.000000, -3720.000000)">
            <g id="doc" transform="translate(112.000000, 3720.000000)">
                <path d="M24.1274004,20.7658986 C25.0940042,20.7658986 25.882158,20.6328283 26.4918619,20.3666875 C27.1015658,20.1005468 27.7001166,19.6052293 28.2875143,18.880735 L28.2875143,18.880735 L28.3767392,18.880735 L29.2132232,20.5441147 L32.2357188,20.5441147 L32.2357188,12.3048407 C32.2357188,10.8706378 31.7914528,9.75432522 30.9029209,8.95590298 C30.014389,8.15748074 28.759663,7.75826962 27.1387429,7.75826962 C24.893248,7.75826962 23.0343947,8.13530234 21.5621828,8.88936779 L21.5621828,8.88936779 L22.8224854,11.7503808 C24.2426493,11.1293858 25.413727,10.8188882 26.3357182,10.8188882 C27.3618053,10.8188882 27.8748488,11.3363841 27.8748488,12.3713759 L27.8748488,12.3713759 L27.8748488,12.5488031 L25.7669091,12.6153383 C23.9898453,12.696659 22.6328823,13.0644508 21.6960202,13.7187134 C20.7591581,14.3729761 20.2907271,15.3691557 20.2907271,16.7072522 C20.2907271,17.9935992 20.6327561,18.991627 21.3168142,19.7013356 C22.0008722,20.4110443 22.9377343,20.7658986 24.1274004,20.7658986 Z M25.9788184,17.70528 C25.1534875,17.70528 24.740822,17.3208545 24.740822,16.5520035 C24.740822,15.5539757 25.4583394,15.029087 26.8933742,14.9773374 L26.8933742,14.9773374 L27.8971551,14.9329806 L27.8971551,15.90883 C27.8971551,16.4411115 27.7094109,16.8735902 27.3339225,17.2062661 C26.9584341,17.5389421 26.5067327,17.70528 25.9788184,17.70528 Z M39.5633187,26 L39.5633187,20.954415 C39.5633187,20.7400238 39.4964,20.1929568 39.3625626,19.3132137 L39.3625626,19.3132137 L39.5633187,19.3132137 C40.0614914,19.8602808 40.5633819,20.2391617 41.06899,20.4498565 C41.5745981,20.6605513 42.1471249,20.7658986 42.7865705,20.7658986 C44.2067344,20.7658986 45.3313407,20.1837158 46.1603893,19.01935 C46.9894379,17.8549842 47.4039622,16.2599879 47.4039622,14.2343611 C47.4039622,12.2235199 47.0061676,10.641461 46.2105784,9.48818448 C45.4149891,8.3349079 44.3182656,7.75826962 42.9204079,7.75826962 C41.4928085,7.75826962 40.3737788,8.3644791 39.5633187,9.57689806 L39.5633187,9.57689806 L39.3625626,9.57689806 L38.749141,7.98005358 L35.2024488,7.98005358 L35.2024488,26 L39.5633187,26 Z M41.3701242,17.2728013 C40.7455495,17.2728013 40.2882716,17.0325354 39.9982904,16.5520035 C39.7083093,16.0714716 39.5633187,15.2915313 39.5633187,14.2121827 L39.5633187,14.2121827 L39.5633187,13.8684176 C39.585625,12.973889 39.725039,12.2992961 39.9815607,11.844639 C40.2380825,11.3899819 40.6860662,11.1626533 41.3255117,11.1626533 C41.9129094,11.1626533 42.3330102,11.3973747 42.5858143,11.8668174 C42.8386184,12.3362601 42.9650204,13.1106558 42.9650204,14.1900043 C42.9650204,15.2915313 42.8386184,16.0807126 42.5858143,16.5575481 C42.3330102,17.0343836 41.9277802,17.2728013 41.3701242,17.2728013 Z M54.251978,26 L54.251978,20.954415 C54.251978,20.7400238 54.1850593,20.1929568 54.0512218,19.3132137 L54.0512218,19.3132137 L54.251978,19.3132137 C54.7501507,19.8602808 55.2520411,20.2391617 55.7576492,20.4498565 C56.2632573,20.6605513 56.8357842,20.7658986 57.4752297,20.7658986 C58.8953937,20.7658986 60.02,20.1837158 60.8490486,19.01935 C61.6780972,17.8549842 62.0926215,16.2599879 62.0926215,14.2343611 C62.0926215,12.2235199 61.6948269,10.641461 60.8992376,9.48818448 C60.1036484,8.3349079 59.0069249,7.75826962 57.6090672,7.75826962 C56.1814678,7.75826962 55.0624381,8.3644791 54.251978,9.57689806 L54.251978,9.57689806 L54.0512218,9.57689806 L53.4378002,7.98005358 L49.891108,7.98005358 L49.891108,26 L54.251978,26 Z M56.0587835,17.2728013 C55.4342087,17.2728013 54.9769308,17.0325354 54.6869497,16.5520035 C54.3969686,16.0714716 54.251978,15.2915313 54.251978,14.2121827 L54.251978,14.2121827 L54.251978,13.8684176 C54.2742842,12.973889 54.4136982,12.2992961 54.67022,11.844639 C54.9267418,11.3899819 55.3747254,11.1626533 56.014171,11.1626533 C56.6015686,11.1626533 57.0216695,11.3973747 57.2744736,11.8668174 C57.5272776,12.3362601 57.6536796,13.1106558 57.6536796,14.1900043 C57.6536796,15.2915313 57.5272776,16.0807126 57.2744736,16.5575481 C57.0216695,17.0343836 56.6164395,17.2728013 56.0587835,17.2728013 Z M65.9962135,26 C67.498167,26 68.715716,25.6488421 69.6488604,24.9465262 C70.5820048,24.2442103 71.3682997,23.0428806 72.0077453,21.3425369 L72.0077453,21.3425369 L77.0043431,7.98005358 L72.5542482,7.98005358 L70.3570835,15.2102105 C70.2381169,15.5946361 70.1488919,16.0419004 70.0894086,16.5520035 L70.0894086,16.5520035 L70.0001837,16.5520035 C69.9630066,16.019722 69.8923702,15.5650649 69.7882744,15.1880321 L69.7882744,15.1880321 L67.6468753,7.98005358 L63.0517898,7.98005358 L68.0260814,20.3666875 C67.7807128,20.9802898 67.5502149,21.4220095 67.3345879,21.6918467 C67.118961,21.9616838 66.8661569,22.1705304 66.5761758,22.3183863 C66.2861947,22.4662423 65.9478833,22.5401703 65.5612418,22.5401703 C65.0556337,22.5401703 64.6057912,22.4958135 64.2117143,22.4070999 L64.2117143,22.4070999 L64.2117143,25.8114836 C64.8214182,25.9371612 65.4162513,26 65.9962135,26 Z M89.9754219,20.5441147 C92.6893478,20.5441147 94.7954286,19.8122276 96.2936644,18.3484535 C97.7919003,16.8846794 98.5410182,14.7999102 98.5410182,12.094146 C98.5410182,9.58059446 97.8290773,7.65846684 96.4051956,6.3277631 C94.981314,4.99705937 92.9607404,4.3317075 90.3434748,4.3317075 L90.3434748,4.3317075 L84.699996,4.3317075 L84.699996,20.5441147 L89.9754219,20.5441147 Z M90.0869531,16.9512146 L89.1054785,16.9512146 L89.1054785,7.8691616 L90.3880873,7.8691616 C91.5926243,7.8691616 92.4904505,8.22771233 93.0815658,8.94481378 C93.6726812,9.66191524 93.9682389,10.7634422 93.9682389,12.2493947 C93.9682389,13.8388464 93.6559515,15.019846 93.0313768,15.7923934 C92.4068021,16.5649409 91.4253275,16.9512146 90.0869531,16.9512146 L90.0869531,16.9512146 Z M106.939318,20.7658986 C108.939444,20.7658986 110.495304,20.1911086 111.606898,19.0415284 C112.718493,17.8919482 113.27429,16.2895591 113.27429,14.2343611 C113.27429,12.9258358 113.015909,11.7818002 112.499148,10.8022544 C111.982387,9.82270861 111.24814,9.07049136 110.296407,8.54560266 C109.344674,8.02071397 108.24795,7.75826962 107.006236,7.75826962 C104.998675,7.75826962 103.439097,8.32566691 102.327502,9.46046148 C101.215908,10.5952561 100.660111,12.1865559 100.660111,14.2343611 C100.660111,16.2378095 101.227061,17.8272612 102.360962,19.0027162 C103.494862,20.1781712 105.020981,20.7658986 106.939318,20.7658986 Z M106.98393,17.5500313 C106.299872,17.5500313 105.812853,17.2672567 105.522871,16.7017076 C105.23289,16.1361586 105.0879,15.3137097 105.0879,14.2343611 C105.0879,13.1550125 105.23289,12.3436529 105.522871,11.8002822 C105.812853,11.2569115 106.292437,10.9852262 106.961624,10.9852262 C107.645682,10.9852262 108.128984,11.2587597 108.41153,11.8058268 C108.694075,12.3528939 108.835348,13.1624053 108.835348,14.2343611 C108.835348,15.3137097 108.695934,16.1361586 108.417106,16.7017076 C108.138278,17.2672567 107.660553,17.5500313 106.98393,17.5500313 Z M121.516446,20.7658986 C123.092753,20.7658986 124.442281,20.3962587 125.565028,19.6569789 L125.565028,19.6569789 L125.565028,16.2082383 C124.390233,16.9475182 123.16339,17.3171581 121.884499,17.3171581 C120.389981,17.3171581 119.642722,16.3117375 119.642722,14.3008963 C119.642722,13.3028685 119.836042,12.5303211 120.222684,11.983254 C120.609325,11.4361869 121.155828,11.1626533 121.862192,11.1626533 C122.345494,11.1626533 122.810208,11.2310367 123.256332,11.3678035 C123.702457,11.5045703 124.189477,11.687542 124.717391,11.9167188 L124.717391,11.9167188 L126,8.71194063 C124.706238,8.07615996 123.326969,7.75826962 121.862192,7.75826962 C119.735664,7.75826962 118.096156,8.33121151 116.943666,9.47709528 C115.791177,10.6229791 115.214933,12.2383055 115.214933,14.3230747 C115.214933,16.4004511 115.748424,17.9935992 116.815406,19.102519 C117.882387,20.2114387 119.449401,20.7658986 121.516446,20.7658986 Z" id="appyDoc" fill-opacity="0.85" fill="#000000" fill-rule="nonzero"></path>
                <polyline id="Path" fill-opacity="0.85" fill="#000000" points="5.80269932 11.8953982 5.80269932 19.5698224 1.16021096 19.5698224 1.16021096 10.3603503"></polyline>
                <polyline id="Path" fill-opacity="0.85" fill="#000000" points="1.16021096 7.85631349 1.16021096 0 5.80269932 0 5.80269932 9.20947214"></polyline>
                <polyline id="Path" fill-opacity="0.85" fill="#000000" points="16.247887 10.3603503 16.247887 19.5706381 11.6053986 19.5706381 11.6053986 11.8856105"></polyline>
                <polyline id="Path" fill-opacity="0.85" fill="#000000" points="11.6053986 9.20947214 11.6053986 0 16.247887 0 16.247887 7.76496101"></polyline>
                <path d="M0,10.3603503 C2.33505644,12.5955982 5.45950741,13.8352082 8.70446011,13.8138004 C11.9491289,13.8349946 15.0732455,12.5954002 17.408098,10.3603503" id="Path" stroke-opacity="0.85" stroke="#000000" stroke-width="3.28597778"></path>
            </g>
        </g>
    </g>
</svg>