<?xml version="1.0" encoding="UTF-8"?>
<svg width="70px" height="41px" viewBox="0 0 70 41" version="1.1" xmlns="http://www.w3.org/2000/svg" xmlns:xlink="http://www.w3.org/1999/xlink">
    <title>bridge1</title>
    <g id="Page-1" stroke="none" stroke-width="1" fill="none" fill-rule="evenodd">
        <g id="Our-Works" transform="translate(-549.000000, -5454.000000)">
            <g id="Group-8" transform="translate(76.000000, 5305.000000)">
                <g id="bridge1" transform="translate(475.000000, 150.000000)">
                    <g id="Group-3">
                        <g id="Group-35-Copy">
                            <g id="Group-43" transform="translate(0.000000, 0.817196)" stroke="#262626" stroke-width="2.43688866">
                                <ellipse id="Oval" cx="5.66864396" cy="25.2824619" rx="4.45019963" ry="4.91052344"></ellipse>
                                <polyline id="Path-9" stroke-linecap="round" points="14.1302886 19.1609743 14.1302886 22.4213122 14.1302886 31.2238946"></polyline>
                                <path d="M19.6573289,19.8230132 C19.5200266,19.8230132 18.6755324,19.7127283 17.151044,20.4048565 C16.1347183,20.8662753 15.1277998,21.8108258 14.1302886,23.238508" id="Path-10" stroke-linecap="round"></path>
                                <path d="M0.403259578,31.2238946 C0.403259578,20.6568814 -1.14100609,17.1673318 3.29011646,9.05201067 C6.24419816,3.64179659 11.8176437,0.624459697 20.010453,0" id="Path-11" stroke-linecap="round"></path>
                                <g id="Group-42" transform="translate(32.392251, 16.682466) scale(-1, 1) translate(-32.392251, -16.682466) translate(26.723607, 1.953502)">
                                    <ellipse id="Oval" cx="5.66864396" cy="23.3289599" rx="4.45019963" ry="4.91052344"></ellipse>
                                    <path d="M0.279998741,29.2703926 C0.279998741,18.5913422 -0.734872816,14.7990099 2.06407651,8.73956447 C3.80588994,4.96871258 7.13017386,1.51075446 11.042377,0" id="Path-11" stroke-linecap="round"></path>
                                </g>
                                <path d="M23.3105143,19.1534942 C23.3105143,21.1801707 23.3105143,25.2036375 23.3105143,31.2238946" id="Path-12" stroke-linecap="round"></path>
                                <path d="M55.3670488,24.8684269 L66,24.8684269 C65.3371475,21.6032689 63.5649889,19.9706899 60.6835244,19.9706899 C57.8020599,19.9706899 56.0299014,21.6032689 55.3670488,24.8684269 Z" id="Path-14" stroke-linecap="round" stroke-linejoin="round"></path>
                                <path d="M55.3670488,24.9299016 C55.3271453,27.4814952 56.4556978,29.1996483 58.7527063,30.0843608 C61.0497148,30.9690734 63.220075,30.6355315 65.263787,29.083735" id="Path-15" stroke-linecap="round"></path>
                            </g>
                            <ellipse id="Oval" fill-opacity="0.85" fill="#000000" fill-rule="nonzero" cx="23.4843821" cy="1.63439141" rx="1.61961256" ry="1.63439141"></ellipse>
                        </g>
                        <g id="Group-36-Copy" transform="translate(40.490314, 19.612697)" stroke="#262626" stroke-width="2.43688866">
                            <ellipse id="Oval" cx="5.66864396" cy="6.12896777" rx="4.45019963" ry="4.91052344"></ellipse>
                            <path d="M10.90553,1.06645796 C10.90553,3.80191393 10.9051854,9.79532097 10.7839984,13.3178289 C10.5965629,18.7659609 4.96524701,19.9514842 1.38464928,16.2475132" id="Path-13" stroke-linecap="round"></path>
                        </g>
                    </g>
                    <g id="HDTJNFTD" transform="translate(4.983423, 5.670047)" fill="#000000" fill-opacity="0.85" fill-rule="nonzero">
                        <path d="M27.5334128,11.475347 C27.1747555,10.0801797 26.603128,8.74983424 25.8390489,7.53206358 C23.3905964,3.63323327 19.1350115,1.27029592 14.5609394,1.26983022 C12.9843345,1.28165912 11.4218623,1.57096732 9.94379792,2.12474262 C7.18027629,3.16026219 4.82433335,5.07271453 3.22988111,7.5748092 C2.4640249,8.79031957 1.89559822,10.1215359 1.54610702,11.5180927 L3.90762666,11.5180927 C4.18675641,10.3411422 4.65540458,9.21839766 5.29488707,8.19462069 C5.91501739,7.19873845 6.69108419,6.31092972 7.59286806,5.56576505 C10.5751239,3.09367149 14.6252232,2.38469625 18.2583196,3.69876367 C21.8914159,5.01283108 24.5730759,8.15664007 25.32015,11.9776081 C25.32015,12.2233954 25.4154579,12.4798691 25.457817,12.7256564 L20.6182903,12.7256564 L20.5229823,12.212709 C20.3907068,11.510526 20.1361449,10.8375602 19.7711083,10.2250377 C19.4094145,9.63496028 18.9552083,9.10803736 18.426207,8.66482252 C16.1768337,6.8108386 12.9450452,6.8108386 10.6956719,8.66482252 C9.80795778,9.39930665 9.1466272,10.3744013 8.78951254,11.475347 L7.47638054,11.475347 C7.66464517,10.7165449 7.97594718,9.994378 8.39769089,9.33806604 C8.81480817,8.71707988 9.31759414,8.15932848 9.89084905,7.68167325 C12.6005403,5.43018752 16.5107488,5.43018752 19.2204401,7.68167325 C20.3930392,8.66727219 21.2391746,9.99093604 21.6454983,11.475347 L23.9011202,11.475347 C23.6382999,10.5066994 23.2235868,9.58672666 22.6727064,8.75031376 C21.1654515,6.42237063 18.7481707,4.85120427 16.0244537,4.42913147 C13.3007368,4.00705868 10.5276732,4.77391857 8.39769089,6.53822791 C7.5556447,7.2563101 6.83962118,8.11254036 6.27973607,9.07090591 C5.69035297,10.0569145 5.28478896,11.1434581 5.08309159,12.2768274 L4.98778362,12.7897749 L0,12.7897749 C0,12.5439876 0.0847181931,12.2875138 0.137667064,12.0417265 C0.7894629,8.65912048 2.58641254,5.61043138 5.22075865,3.41779763 C9.22989053,0.0592514819 14.7021998,-0.904497976 19.6016719,0.885119633 C24.2649139,2.60886255 27.7502692,6.59229617 28.8677243,11.475347 L27.5334128,11.475347 Z" id="Path"></path>
                    </g>
                </g>
            </g>
        </g>
    </g>
</svg>