<?xml version="1.0" encoding="UTF-8"?>
<svg width="125px" height="23px" viewBox="0 0 125 23" version="1.1" xmlns="http://www.w3.org/2000/svg" xmlns:xlink="http://www.w3.org/1999/xlink">
    <title>cinicloud</title>
    <defs>
        <linearGradient x1="-1.55670463%" y1="10.9187135%" x2="70.8163088%" y2="75.2755483%" id="linearGradient-1">
            <stop stop-color="#131313" offset="0%"></stop>
            <stop stop-color="#4C4C4C" offset="100%"></stop>
        </linearGradient>
        <linearGradient x1="110.14514%" y1="83.3007889%" x2="35.4993713%" y2="37.4170295%" id="linearGradient-2">
            <stop stop-color="#292929" offset="0%"></stop>
            <stop stop-color="#4D4D4D" offset="100%"></stop>
        </linearGradient>
        <linearGradient x1="-28.3978125%" y1="25.7872929%" x2="126.023057%" y2="70.8935181%" id="linearGradient-3">
            <stop stop-color="#000000" offset="0%"></stop>
            <stop stop-color="#222222" offset="100%"></stop>
        </linearGradient>
        <linearGradient x1="80.7592025%" y1="14.5728946%" x2="47.3427914%" y2="55.7233901%" id="linearGradient-4">
            <stop stop-color="#999999" offset="0%"></stop>
            <stop stop-color="#FFFFFF" offset="100%"></stop>
        </linearGradient>
        <linearGradient x1="7.89420568%" y1="80.8862397%" x2="48.6844092%" y2="47.6503906%" id="linearGradient-5">
            <stop stop-color="#000000" offset="0%"></stop>
            <stop stop-color="#D4D4D4" offset="100%"></stop>
        </linearGradient>
        <linearGradient x1="44.5900383%" y1="-28.3064105%" x2="51.4176245%" y2="67.5150011%" id="linearGradient-6">
            <stop stop-color="#999999" offset="0%"></stop>
            <stop stop-color="#FFFFFF" offset="100%"></stop>
        </linearGradient>
    </defs>
    <g id="Page-1" stroke="none" stroke-width="1" fill="none" fill-rule="evenodd">
        <g id="Our-Works" transform="translate(-113.000000, -3152.000000)" fill-rule="nonzero">
            <g id="Group-9" transform="translate(113.000000, 3152.000000)">
                <path d="M32.9043757,19.4572348 C34.0018563,19.4572348 34.8945254,19.2885681 35.5823829,18.9512348 C36.2702405,18.6139015 36.8035233,18.1462349 37.1822314,17.548235 C37.5609395,16.950235 37.8198521,16.2525684 37.9589694,15.4552351 C38.0980866,14.6579019 38.1676453,13.8145686 38.1676453,12.9252354 L34.8288311,12.9252354 C34.8288311,13.8145686 34.7747299,14.5314019 34.6665276,15.0757352 C34.5583253,15.6200685 34.4114793,16.0417351 34.2259896,16.3407351 C34.0405,16.639735 33.820231,16.8390684 33.5651827,16.938735 C33.3101344,17.0384017 33.0357642,17.088235 32.7420722,17.088235 C32.3865504,17.088235 32.0735365,17.0154017 31.8030307,16.869735 C31.532525,16.7240684 31.3083916,16.4404017 31.1306307,16.0187351 C30.9528697,15.5970685 30.8214812,15.0029018 30.7364651,14.2362352 C30.651449,13.4695686 30.608941,12.4652354 30.608941,11.2232355 C30.608941,10.0579023 30.6398559,9.07273569 30.7016858,8.26773576 C30.7635157,7.46273583 30.871718,6.81106922 31.0262927,6.31273593 C31.1808675,5.81440264 31.3934077,5.45406934 31.6639135,5.23173602 C31.9344193,5.00940271 32.278348,4.89823605 32.6956998,4.89823605 C33.453116,4.89823605 33.9748057,5.1704027 34.260769,5.71473598 C34.5467322,6.25906927 34.6897138,7.12923586 34.6897138,8.32523576 L38.028528,8.32523576 C38.028528,7.72723581 37.98602,7.0870692 37.9010039,6.40473592 C37.8159878,5.72240265 37.6034475,5.08606937 37.2633831,4.49573609 C36.9233187,3.9054028 36.4093577,3.41856951 35.7215002,3.03523621 C35.0336426,2.65190291 34.0946011,2.46023626 32.9043757,2.46023626 C31.6523204,2.46023626 30.6553134,2.67106958 29.9133547,3.09273621 C29.171396,3.51440284 28.6033338,4.10090279 28.2091683,4.85223606 C27.8150027,5.60356933 27.5599544,6.50440258 27.4440234,7.55473582 C27.3280923,8.60506907 27.2701268,9.75123563 27.2701268,10.9932355 C27.2701268,12.2505688 27.3280923,13.4005687 27.4440234,14.4432352 C27.5599544,15.4859018 27.8150027,16.3829017 28.2091683,17.134235 C28.6033338,17.8855683 29.171396,18.4605682 29.9133547,18.8592349 C30.6553134,19.2579015 31.6523204,19.4572348 32.9043757,19.4572348 Z M43.5700321,19.2042348 L43.5700321,2.78223623 L40.2312179,2.78223623 L40.2312179,19.2042348 L43.5700321,19.2042348 Z M49.1115362,19.2042348 L49.1115362,7.70423581 L49.1579086,7.70423581 L53.2386815,19.2042348 L57.0412198,19.2042348 L57.0412198,2.78223623 L53.9806402,2.78223623 L53.9806402,14.0292353 L53.9342678,14.0292353 L49.8998673,2.78223623 L46.0509565,2.78223623 L46.0509565,19.2042348 L49.1115362,19.2042348 Z M62.8609584,19.2042348 L62.8609584,2.78223623 L59.5221443,2.78223623 L59.5221443,19.2042348 L62.8609584,19.2042348 Z M70.6283386,19.4572348 C71.7258192,19.4572348 72.6184883,19.2885681 73.3063458,18.9512348 C73.9942034,18.6139015 74.5274862,18.1462349 74.9061943,17.548235 C75.2849024,16.950235 75.543815,16.2525684 75.6829323,15.4552351 C75.8220496,14.6579019 75.8916082,13.8145686 75.8916082,12.9252354 L72.552794,12.9252354 C72.552794,13.8145686 72.4986929,14.5314019 72.3904906,15.0757352 C72.2822882,15.6200685 72.1354422,16.0417351 71.9499526,16.3407351 C71.7644629,16.639735 71.5441939,16.8390684 71.2891456,16.938735 C71.0340973,17.0384017 70.7597271,17.088235 70.4660352,17.088235 C70.1105133,17.088235 69.7974995,17.0154017 69.5269937,16.869735 C69.2564879,16.7240684 69.0323545,16.4404017 68.8545936,16.0187351 C68.6768327,15.5970685 68.5454441,15.0029018 68.460428,14.2362352 C68.3754119,13.4695686 68.3329039,12.4652354 68.3329039,11.2232355 C68.3329039,10.0579023 68.3638188,9.07273569 68.4256487,8.26773576 C68.4874786,7.46273583 68.5956809,6.81106922 68.7502557,6.31273593 C68.9048304,5.81440264 69.1173706,5.45406934 69.3878764,5.23173602 C69.6583822,5.00940271 70.002311,4.89823605 70.4196627,4.89823605 C71.1770789,4.89823605 71.6987686,5.1704027 71.9847319,5.71473598 C72.2706951,6.25906927 72.4136768,7.12923586 72.4136768,8.32523576 L75.7524909,8.32523576 C75.7524909,7.72723581 75.7099829,7.0870692 75.6249668,6.40473592 C75.5399507,5.72240265 75.3274104,5.08606937 74.987346,4.49573609 C74.6472816,3.9054028 74.1333206,3.41856951 73.4454631,3.03523621 C72.7576055,2.65190291 71.818564,2.46023626 70.6283386,2.46023626 C69.3762833,2.46023626 68.3792763,2.67106958 67.6373176,3.09273621 C66.8953589,3.51440284 66.3272968,4.10090279 65.9331312,4.85223606 C65.5389656,5.60356933 65.2839173,6.50440258 65.1679863,7.55473582 C65.0520552,8.60506907 64.9940897,9.75123563 64.9940897,10.9932355 C64.9940897,12.2505688 65.0520552,13.4005687 65.1679863,14.4432352 C65.2839173,15.4859018 65.5389656,16.3829017 65.9331312,17.134235 C66.3272968,17.8855683 66.8953589,18.4605682 67.6373176,18.8592349 C68.3792763,19.2579015 69.3762833,19.4572348 70.6283386,19.4572348 Z M87.044175,19.2042348 L87.044175,16.4902351 L81.1316915,16.4902351 L81.1316915,2.78223623 L77.7928774,2.78223623 L77.7928774,19.2042348 L87.044175,19.2042348 Z M93.8145482,19.4572348 C95.0666035,19.4572348 96.0636105,19.2579015 96.8055692,18.8592349 C97.5475279,18.4605682 98.11559,17.8855683 98.5097556,17.134235 C98.9039212,16.3829017 99.1589695,15.4859018 99.2749005,14.4432352 C99.3908316,13.4005687 99.4487971,12.2505688 99.4487971,10.9932355 C99.4487971,9.75123563 99.3908316,8.60506907 99.2749005,7.55473582 C99.1589695,6.50440258 98.9039212,5.60356933 98.5097556,4.85223606 C98.11559,4.10090279 97.5475279,3.51440284 96.8055692,3.09273621 C96.0636105,2.67106958 95.0666035,2.46023626 93.8145482,2.46023626 C92.5624929,2.46023626 91.5654858,2.67106958 90.8235271,3.09273621 C90.0815684,3.51440284 89.5135063,4.10090279 89.1193407,4.85223606 C88.7251752,5.60356933 88.4701269,6.50440258 88.3541958,7.55473582 C88.2382648,8.60506907 88.1802992,9.75123563 88.1802992,10.9932355 C88.1802992,12.2505688 88.2382648,13.4005687 88.3541958,14.4432352 C88.4701269,15.4859018 88.7251752,16.3829017 89.1193407,17.134235 C89.5135063,17.8855683 90.0815684,18.4605682 90.8235271,18.8592349 C91.5654858,19.2579015 92.5624929,19.4572348 93.8145482,19.4572348 Z M93.8145482,17.088235 C93.319909,17.088235 92.9218791,16.9770683 92.6204584,16.754735 C92.3190377,16.5324017 92.0871756,16.1797351 91.9248721,15.6967351 C91.7625686,15.2137352 91.6543663,14.5850686 91.6002652,13.8107353 C91.546164,13.036402 91.5191134,12.0972354 91.5191134,10.9932355 C91.5191134,9.88923562 91.546164,8.95390237 91.6002652,8.18723577 C91.6543663,7.42056917 91.7625686,6.79190256 91.9248721,6.30123593 C92.0871756,5.81056931 92.3190377,5.45406934 92.6204584,5.23173602 C92.9218791,5.00940271 93.319909,4.89823605 93.8145482,4.89823605 C94.3091873,4.89823605 94.7072172,5.00940271 95.008638,5.23173602 C95.3100587,5.45406934 95.5419208,5.81056931 95.7042242,6.30123593 C95.8665277,6.79190256 95.97473,7.42056917 96.0288312,8.18723577 C96.0829323,8.95390237 96.1099829,9.88923562 96.1099829,10.9932355 C96.1099829,12.0972354 96.0829323,13.036402 96.0288312,13.8107353 C95.97473,14.5850686 95.8665277,15.2137352 95.7042242,15.6967351 C95.5419208,16.1797351 95.3100587,16.5324017 95.008638,16.754735 C94.7072172,16.9770683 94.3091873,17.088235 93.8145482,17.088235 Z M106.497405,19.4572348 C107.177534,19.4572348 107.834476,19.3882348 108.468233,19.2502348 C109.101989,19.1122348 109.666187,18.8439015 110.160826,18.4452349 C110.655465,18.0465683 111.049631,17.5060683 111.343323,16.823735 C111.637015,16.1414018 111.783861,15.2789018 111.783861,14.2362352 L111.783861,2.78223623 L108.445046,2.78223623 L108.445046,14.2362352 C108.445046,14.6502352 108.417996,15.0297352 108.363895,15.3747352 C108.309793,15.7197351 108.20932,16.0187351 108.062474,16.2717351 C107.915628,16.5247351 107.718545,16.7240684 107.471226,16.869735 C107.223906,17.0154017 106.899299,17.088235 106.497405,17.088235 C106.110968,17.088235 105.790225,17.0154017 105.535177,16.869735 C105.280129,16.7240684 105.079182,16.5247351 104.932336,16.2717351 C104.78549,16.0187351 104.685016,15.7197351 104.630915,15.3747352 C104.576814,15.0297352 104.549763,14.6502352 104.549763,14.2362352 L104.549763,2.78223623 L101.210949,2.78223623 L101.210949,14.2362352 C101.210949,15.3402352 101.357795,16.2372351 101.651487,16.927235 C101.945179,17.617235 102.339345,18.1500682 102.833984,18.5257349 C103.328623,18.9014015 103.892821,19.1505682 104.526577,19.2732348 C105.160333,19.3959015 105.817276,19.4572348 106.497405,19.4572348 Z M119.319379,19.2042348 C120.432317,19.2042348 121.352036,19.0355682 122.078538,18.6982349 C122.805039,18.3609016 123.384694,17.8472349 123.817503,17.157235 C124.250313,16.4672351 124.555598,15.5894018 124.733359,14.5237352 C124.91112,13.4580686 125,12.2045688 125,10.7632355 C125,9.55190232 124.930441,8.45556908 124.791324,7.47423583 C124.652207,6.49290258 124.385565,5.65340265 123.9914,4.95573605 C123.597234,4.25806944 123.04463,3.72140282 122.333586,3.34573619 C121.622542,2.97006955 120.687365,2.78223623 119.528055,2.78223623 L114.056109,2.78223623 L114.056109,19.2042348 L119.319379,19.2042348 Z M118.878841,16.766235 L117.394923,16.766235 L117.394923,5.22023602 L118.809282,5.22023602 C119.443038,5.22023602 119.949271,5.33906935 120.327979,5.57673599 C120.706687,5.81440264 120.99265,6.16706928 121.185869,6.6347359 C121.379087,7.10240253 121.506611,7.68890248 121.568441,8.39423575 C121.630271,9.09956902 121.661186,9.91990229 121.661186,10.8552355 C121.661186,11.9745688 121.626407,12.909902 121.556848,13.6612353 C121.487289,14.4125686 121.348172,15.0182352 121.139496,15.4782351 C120.93082,15.9382351 120.648721,16.2679017 120.293199,16.4672351 C119.937678,16.6665684 119.466225,16.766235 118.878841,16.766235 Z" id="CINICLOUD" fill-opacity="0.85" fill="#000000"></path>
                <g id="gjghjhg">
                    <path d="M20.3074346,3.66481032 C20.08194,3.42644893 19.8458753,3.1982179 19.6027639,2.97892542 C17.4483472,1.05675231 14.677217,-0.00235976801 11.8085189,0 C5.34375267,0 0.0921944141,5.27255789 0,11.8108108 C0.0687053914,9.00410545 1.80689307,6.75874115 4.24387918,5.57348914 C4.95476655,5.22815444 5.7065353,4.97719974 6.48062137,4.82682209 C9.33688653,4.26846054 12.6470771,5.05326541 15.3265873,7.20209334 C15.3353591,7.20768076 15.343614,7.21406315 15.3512508,7.22116225 C15.4798532,7.31948632 15.6025833,7.42257763 15.7217901,7.53162796 L15.7217901,7.53162796 C19.9116446,11.0271977 23.0779648,6.86779149 20.3074346,3.66481032 Z" id="Shape" fill="url(#linearGradient-1)"></path>
                    <path d="M15.7249278,15.4665795 L15.7249278,15.4665795 C15.6168769,15.5660953 15.5047154,15.659652 15.3884432,15.7496334 C12.6983284,17.9312335 9.36049551,18.7321269 6.48364059,18.1689988 C5.71155434,18.0179855 4.96165149,17.7674648 4.25215483,17.4235244 C1.80926516,16.2418491 0.0710552043,13.9964873 0,11.1891892 C0.0898466633,17.7286266 5.34382115,23 11.8063213,23 C14.1296469,23.0039848 16.4019467,22.308643 18.3357661,21.0019207 L18.3475108,20.9953658 C19.0570182,20.515427 19.7134282,19.9592107 20.3053459,19.3363724 C20.3074073,19.3329855 20.3097658,19.3297944 20.3123927,19.3268379 C23.0747372,16.1244562 19.9072019,11.9769727 15.7249278,15.4665795 Z" id="Shape" fill="url(#linearGradient-2)"></path>
                    <path d="M11.8005747,17.2259144 C8.93475637,17.2263265 6.48657817,15.173174 6.00631096,12.3665839 C5.52604374,9.55999385 7.15376798,6.8185697 9.85875257,5.87827573 C9.8614596,5.87885943 9.86426118,5.87885943 9.8669682,5.87827573 C11.7101525,5.24105147 13.7514774,5.5533253 15.3162763,6.71188938 C12.6385687,4.60978391 9.33060511,3.84204323 6.47626151,4.3882642 C5.70461259,4.53506282 4.95515506,4.77976732 4.24630557,5.11636452 C1.8080248,6.2781771 0.0710064917,8.47471992 0,11.2203984 C0,11.2786931 0,11.3329071 0,11.38887 C0,11.4448329 0,11.5002128 0,11.5585075 C0.0686591697,14.3053519 1.80567748,16.5018947 4.2410241,17.6602096 C4.9509637,17.9969069 5.70135305,18.2419855 6.47391419,18.3894758 C9.34938369,18.9403603 12.6843415,18.1562972 15.372612,16.0227126 C14.3483739,16.8046542 13.092344,17.2277342 11.8005747,17.2259144 Z" id="Shape" fill="url(#linearGradient-3)"></path>
                    <path d="M0,10.9671815 C0.153844009,8.33758726 1.86970573,6.23692774 4.2504565,5.11410146 C4.96327899,4.77818738 5.71707919,4.53394569 6.49327816,4.38739622 C9.36031746,3.84396222 12.6829944,4.60778568 15.372612,6.69916563 C13.8016933,5.54631969 11.7520794,5.2347896 9.90083453,5.86748542 C9.89811547,5.86806614 9.89530143,5.86806614 9.89258236,5.86748542 C9.62554857,5.9594902 9.36570007,6.07056031 9.11511015,6.19980952 C4.09955969,4.81889558 0.206893667,8.33120756 0,10.9671815 Z" id="Shape" fill="url(#linearGradient-4)" style="mix-blend-mode: multiply;"></path>
                    <path d="M11.8454388,23 C7.67823375,23.0016815 3.82152496,20.6927733 1.70806801,16.9310101 C3.6862913,20.5150488 8.97169215,21.9547909 13.3147755,20.8624249 C16.9155865,19.9581443 19.7828989,17.1491157 20.5298507,14.5637066 C21.5827194,15.5672374 21.7365552,17.5246739 20.3181071,19.2235696 C20.3154906,19.2266092 20.3131413,19.22989 20.311088,19.2333721 C19.7214948,19.873721 19.0676625,20.445575 18.3609412,20.9390069 L18.3492427,20.9457461 C16.4230172,22.289206 14.1596407,23.0040968 11.8454388,23 L11.8454388,23 Z" id="Shape" fill="url(#linearGradient-5)" style="mix-blend-mode: multiply;"></path>
                    <path d="M1.14970646,15.1853282 C0.429221985,14.1382212 0.0296866636,12.9038217 0,11.6332091 C0,11.5743212 0,11.5195554 0,11.4624341 C0,11.4053129 0,11.3487805 0,11.2922481 C0.0689117092,8.51862724 1.81231905,6.29973057 4.25662327,5.12844993 C4.96961711,4.78698302 5.72364435,4.53878826 6.50008224,4.38999546 C9.36492458,3.83821569 12.6850554,4.61376954 15.372612,6.73726779 C13.8028971,5.56671705 11.7548538,5.25040265 9.90502746,5.89281507 C9.90231048,5.89340471 9.8994986,5.89340471 9.89678162,5.89281507 C8.3241463,6.44522564 7.05761722,7.63539562 6.40878895,9.17051647 C2.93022011,8.69529099 0.284481671,11.6720751 1.14970646,15.1853282 Z" id="Shape" fill="url(#linearGradient-6)" style="mix-blend-mode: multiply;"></path>
                </g>
            </g>
        </g>
    </g>
</svg>