<?xml version="1.0" encoding="UTF-8"?>
<svg width="153px" height="26px" viewBox="0 0 153 26" version="1.1" xmlns="http://www.w3.org/2000/svg" xmlns:xlink="http://www.w3.org/1999/xlink">
    <title>retail</title>
    <g id="Page-1" stroke="none" stroke-width="1" fill="none" fill-rule="evenodd">
        <g id="Our-Works" transform="translate(-109.000000, -2014.000000)">
            <g id="Group-9" transform="translate(81.000000, 1849.000000)">
                <g id="Group" transform="translate(30.000000, 165.000000)">
                    <g transform="translate(20.338998, 2.905743)" fill="#000000" fill-opacity="0.85" fill-rule="nonzero" id="appyRetail">
                        <path d="M3.8485645,17.8561558 C4.81816408,17.8561558 5.60876066,17.7229837 6.22035425,17.4566396 C6.83194783,17.1902954 7.43235373,16.6945994 8.02157193,15.9695514 L8.02157193,15.9695514 L8.11107343,15.9695514 L8.95015,17.6342023 L11.9820133,17.6342023 L11.9820133,9.38863133 C11.9820133,7.95333229 11.5363704,6.83616655 10.6450847,6.0371341 C9.75379888,5.23810164 8.49518404,4.83858541 6.86924012,4.83858541 C4.61678571,4.83858541 2.75217112,5.2159063 1.27539637,5.97054806 L1.27539637,5.97054806 L2.53960506,8.83374768 C3.9641706,8.212278 5.13887779,7.90154315 6.06372662,7.90154315 C7.09299387,7.90154315 7.6076275,8.41943456 7.6076275,9.45521737 L7.6076275,9.45521737 L7.6076275,9.63278014 L5.49315456,9.69936618 C3.71058302,9.78074911 2.34941437,10.1488219 1.40964862,10.8035846 C0.469882875,11.4583473 0,12.4552883 0,13.7944075 C0,15.0817376 0.343089083,16.0805281 1.02926725,16.7907792 C1.71544542,17.5010303 2.65521117,17.8561558 3.8485645,17.8561558 Z M5.70572062,14.7931981 C4.87783175,14.7931981 4.46388731,14.4084787 4.46388731,13.6390401 C4.46388731,12.6402495 5.18362854,12.1149597 6.623111,12.0631705 L6.623111,12.0631705 L7.63000287,12.0187798 L7.63000287,12.995375 C7.63000287,13.5280633 7.4416768,13.9608726 7.06502465,14.2938028 C6.68837251,14.626733 6.23527116,14.7931981 5.70572062,14.7931981 Z M19.332324,23.0942574 L19.332324,18.0448162 C19.332324,17.8302612 19.2651979,17.282776 19.1309456,16.4023606 L19.1309456,16.4023606 L19.332324,16.4023606 C19.8320407,16.9498458 20.3354866,17.3290163 20.8426618,17.5398721 C21.349837,17.7507279 21.9241383,17.8561558 22.5655657,17.8561558 C23.9901312,17.8561558 25.118223,17.273528 25.9498411,16.1082723 C26.7814592,14.9430167 27.1972683,13.3468014 27.1972683,11.3196264 C27.1972683,9.3072484 26.7982408,7.72398039 26.0001857,6.5698224 C25.2021307,5.41566441 24.1020081,4.83858541 22.6998179,4.83858541 C21.2677939,4.83858541 20.1452959,5.4452582 19.332324,6.65860378 L19.332324,6.65860378 L19.1309456,6.65860378 L18.5156228,5.06053887 L14.9579382,5.06053887 L14.9579382,23.0942574 L19.332324,23.0942574 Z M21.1447294,14.3603888 C20.5182189,14.3603888 20.0595237,14.1199392 19.7686438,13.6390401 C19.4777639,13.1581409 19.332324,12.3776046 19.332324,11.2974311 L19.332324,11.2974311 L19.332324,10.9534032 C19.3546994,10.0581909 19.4945455,9.3830825 19.7518623,8.9280779 C20.0091791,8.47307331 20.4585512,8.24557102 21.0999786,8.24557102 C21.6891968,8.24557102 22.1105997,8.48047176 22.3641873,8.95027325 C22.6177749,9.42007474 22.7445687,10.1950622 22.7445687,11.2752357 C22.7445687,12.3776046 22.6177749,13.167389 22.3641873,13.6445889 C22.1105997,14.1217889 21.7041137,14.3603888 21.1447294,14.3603888 Z M34.0665084,23.0942574 L34.0665084,18.0448162 C34.0665084,17.8302612 33.9993823,17.282776 33.86513,16.4023606 L33.86513,16.4023606 L34.0665084,16.4023606 C34.5662251,16.9498458 35.0696711,17.3290163 35.5768462,17.5398721 C36.0840214,17.7507279 36.6583227,17.8561558 37.2997501,17.8561558 C38.7243156,17.8561558 39.8524075,17.273528 40.6840256,16.1082723 C41.5156437,14.9430167 41.9314527,13.3468014 41.9314527,11.3196264 C41.9314527,9.3072484 41.5324252,7.72398039 40.7343702,6.5698224 C39.9363151,5.41566441 38.8361925,4.83858541 37.4340024,4.83858541 C36.0019784,4.83858541 34.8794804,5.4452582 34.0665084,6.65860378 L34.0665084,6.65860378 L33.86513,6.65860378 L33.2498072,5.06053887 L29.6921226,5.06053887 L29.6921226,23.0942574 L34.0665084,23.0942574 Z M35.8789138,14.3603888 C35.2524033,14.3603888 34.7937081,14.1199392 34.5028282,13.6390401 C34.2119484,13.1581409 34.0665084,12.3776046 34.0665084,11.2974311 L34.0665084,11.2974311 L34.0665084,10.9534032 C34.0888838,10.0581909 34.2287299,9.3830825 34.4860467,8.9280779 C34.7433635,8.47307331 35.1927356,8.24557102 35.834163,8.24557102 C36.4233813,8.24557102 36.8447841,8.48047176 37.0983717,8.95027325 C37.3519593,9.42007474 37.4787531,10.1950622 37.4787531,11.2752357 C37.4787531,12.3776046 37.3519593,13.167389 37.0983717,13.6445889 C36.8447841,14.1217889 36.4382982,14.3603888 35.8789138,14.3603888 Z M45.8471434,23.0942574 C47.3537519,23.0942574 48.5750745,22.7428311 49.511111,22.0399785 C50.4471475,21.3371259 51.2358795,20.134878 51.8773069,18.4332348 L51.8773069,18.4332348 L56.8893909,5.06053887 L52.4255036,5.06053887 L50.2215292,12.2962217 C50.1021938,12.680941 50.0126923,13.1285471 49.9530247,13.6390401 L49.9530247,13.6390401 L49.8635232,13.6390401 C49.8262309,13.1063518 49.7553755,12.6513472 49.6509571,12.2740263 L49.6509571,12.2740263 L47.5029211,5.06053887 L42.8935939,5.06053887 L47.8833025,17.4566396 C47.6371734,18.0707108 47.4059611,18.5127681 47.1896659,18.7828115 C46.9733706,19.0528549 46.719783,19.2618611 46.4289031,19.40983 C46.1380232,19.557799 45.7986634,19.6317835 45.4108235,19.6317835 C44.9036484,19.6317835 44.4524116,19.5873928 44.0571134,19.4986114 L44.0571134,19.4986114 L44.0571134,22.905597 C44.6687069,23.0313706 45.2653836,23.0942574 45.8471434,23.0942574 Z M69.0280318,17.6342023 L69.0280318,11.7302403 L70.1468006,11.7302403 L73.6149837,17.6342023 L78.6270677,17.6342023 L73.8611128,10.5649847 C75.7108105,9.5366003 76.6356593,8.08280515 76.6356593,6.20359919 C76.6356593,3.00746937 74.4130388,1.40940447 69.9677976,1.40940447 L69.9677976,1.40940447 L64.6088953,1.40940447 L64.6088953,17.6342023 L69.0280318,17.6342023 Z M69.8559207,8.43423146 L69.0280318,8.43423146 L69.0280318,4.72760868 L69.9006715,4.72760868 C71.4147385,4.72760868 72.171772,5.28619156 72.171772,6.4033573 C72.171772,7.75727341 71.3998216,8.43423146 69.8559207,8.43423146 L69.8559207,8.43423146 Z M85.9773784,17.8561558 C86.9917287,17.8561558 87.8643683,17.7895698 88.5952973,17.6563977 C89.3262262,17.5232256 90.0347797,17.282776 90.7209579,16.935049 L90.7209579,16.935049 L90.7209579,13.8166028 C89.9676536,14.1643299 89.2684231,14.4103284 88.6232665,14.5545981 C87.9781098,14.6988678 87.2714209,14.7710027 86.5031997,14.7710027 C85.6603939,14.7710027 84.9947265,14.5712446 84.5061975,14.1717284 C84.0176685,13.7722122 83.758487,13.2210277 83.7286532,12.5181751 L83.7286532,12.5181751 L91.5488468,12.5181751 L91.5488468,10.58718 C91.5488468,8.7301694 91.0286193,7.30781765 89.9881644,6.32012476 C88.9477094,5.33243186 87.4727993,4.83858541 85.563434,4.83858541 C83.5571087,4.83858541 82.0132078,5.40641635 80.9317313,6.54207822 C79.8502549,7.67774008 79.3095166,9.3072484 79.3095166,11.4306032 C79.3095166,13.4873719 79.893141,15.0724895 81.0603897,16.185956 C82.2276385,17.2994225 83.8666347,17.8561558 85.9773784,17.8561558 Z M87.5772177,9.78814756 L83.8181547,9.78814756 C83.8778224,9.10009183 84.0810654,8.59514771 84.4278837,8.2733152 C84.774702,7.95148268 85.205428,7.79056642 85.7200616,7.79056642 C86.279446,7.79056642 86.7250888,7.97182842 87.0569902,8.3343524 C87.3888916,8.69687638 87.5623008,9.18147477 87.5772177,9.78814756 L87.5772177,9.78814756 Z M98.7872806,17.8561558 C99.5032926,17.8561558 100.127938,17.8025171 100.661218,17.6952395 C101.194498,17.587962 101.755747,17.4085497 102.344965,17.1570024 L102.344965,17.1570024 L102.344965,13.9941656 C101.524535,14.2827051 100.81971,14.4269749 100.230492,14.4269749 C99.4398957,14.4269749 99.0445974,14.0200602 99.0445974,13.2062308 L99.0445974,13.2062308 L99.0445974,8.31215705 L102.154775,8.31215705 L102.154775,5.06053887 L99.0445974,5.06053887 L99.0445974,2.54136711 L96.1805494,2.54136711 L95.050593,5.18261328 L93.1039353,6.54762705 L93.1039353,8.31215705 L94.6366485,8.31215705 L94.6366485,13.4947703 C94.6366485,14.9744601 94.9610915,16.0712801 95.6099773,16.7852304 C96.2588632,17.4991807 97.3179643,17.8561558 98.7872806,17.8561558 Z M107.726243,17.8561558 C108.695842,17.8561558 109.486439,17.7229837 110.098033,17.4566396 C110.709626,17.1902954 111.310032,16.6945994 111.89925,15.9695514 L111.89925,15.9695514 L111.988752,15.9695514 L112.827828,17.6342023 L115.859692,17.6342023 L115.859692,9.38863133 C115.859692,7.95333229 115.414049,6.83616655 114.522763,6.0371341 C113.631477,5.23810164 112.372862,4.83858541 110.746919,4.83858541 C108.494464,4.83858541 106.62985,5.2159063 105.153075,5.97054806 L105.153075,5.97054806 L106.417283,8.83374768 C107.841849,8.212278 109.016556,7.90154315 109.941405,7.90154315 C110.970672,7.90154315 111.485306,8.41943456 111.485306,9.45521737 L111.485306,9.45521737 L111.485306,9.63278014 L109.370833,9.69936618 C107.588261,9.78074911 106.227093,10.1488219 105.287327,10.8035846 C104.347561,11.4583473 103.877678,12.4552883 103.877678,13.7944075 C103.877678,15.0817376 104.220767,16.0805281 104.906946,16.7907792 C105.593124,17.5010303 106.53289,17.8561558 107.726243,17.8561558 Z M109.583399,14.7931981 C108.75551,14.7931981 108.341566,14.4084787 108.341566,13.6390401 C108.341566,12.6402495 109.061307,12.1149597 110.500789,12.0631705 L110.500789,12.0631705 L111.507681,12.0187798 L111.507681,12.995375 C111.507681,13.5280633 111.319355,13.9608726 110.942703,14.2938028 C110.566051,14.626733 110.11295,14.7931981 109.583399,14.7931981 Z M121.061966,3.83979485 C122.620784,3.83979485 123.400193,3.20352826 123.400193,1.9309951 C123.400193,1.29472851 123.213732,0.813829351 122.840809,0.488297611 C122.467886,0.16276587 121.874938,0 121.061966,0 C120.248994,0 119.659776,0.159066646 119.294312,0.477199938 C118.928847,0.795333229 118.746115,1.27993162 118.746115,1.9309951 C118.746115,3.20352826 119.518065,3.83979485 121.061966,3.83979485 Z M123.232378,17.6342023 L123.232378,5.06053887 L118.857992,5.06053887 L118.857992,17.6342023 L123.232378,17.6342023 Z M130.661002,17.6342023 L130.661002,0.366223208 L126.286616,0.366223208 L126.286616,17.6342023 L130.661002,17.6342023 Z"></path>
                    </g>
                    <g id="Path">
                        <polyline fill-opacity="0.85" fill="#000000" points="5.81632642 11.9327627 5.81632642 19.6312929 1.16293561 19.6312929 1.16293561 10.3928931"></polyline>
                        <polyline fill-opacity="0.85" fill="#000000" points="1.16293561 7.88099086 1.16293561 0 5.81632642 0 5.81632642 9.2383999"></polyline>
                        <polyline fill-opacity="0.85" fill="#000000" points="16.2860437 10.3928931 16.2860437 19.6321112 11.6326528 19.6321112 11.6326528 11.9229442"></polyline>
                        <polyline fill-opacity="0.85" fill="#000000" points="11.6326528 9.2383999 11.6326528 0 16.2860437 0 16.2860437 7.78935143"></polyline>
                        <path d="M0,10.3928931 C2.3405401,12.6351621 5.47232855,13.8786658 8.72490173,13.8571907 C11.9771903,13.8784515 15.1086436,12.6349634 17.4489793,10.3928931" stroke-opacity="0.85" stroke="#000000" stroke-width="3.29387818"></path>
                    </g>
                </g>
            </g>
        </g>
    </g>
</svg>