<?xml version="1.0" encoding="UTF-8"?>
<svg width="146px" height="26px" viewBox="0 0 146 26" version="1.1" xmlns="http://www.w3.org/2000/svg" xmlns:xlink="http://www.w3.org/1999/xlink">
    <title>Group 30</title>
    <g id="Page-1" stroke="none" stroke-width="1" fill="none" fill-rule="evenodd">
        <g id="Our-Works" transform="translate(-110.000000, -1413.000000)">
            <g id="Group-13" transform="translate(81.000000, 832.000000)">
                <g id="Group-30" transform="translate(31.000000, 581.000000)">
                    <path d="M23.8874253,20.7096873 C24.8574582,20.7096873 25.6484081,20.5751878 26.260275,20.3061889 C26.8721418,20.0371899 27.472816,19.536553 28.0622976,18.804278 L28.0622976,18.804278 L28.1518391,18.804278 L28.9912906,20.4855215 L32.0245087,20.4855215 L32.0245087,12.1577623 C32.0245087,10.7081568 31.5786667,9.57985566 30.6869827,8.77285881 C29.7952986,7.96586195 28.5361213,7.56236352 26.9094508,7.56236352 C24.6559898,7.56236352 22.790542,7.94344537 21.3131073,8.70560907 L21.3131073,8.70560907 L22.5778809,11.5973478 C24.0030831,10.9696836 25.1783152,10.6558515 26.1035773,10.6558515 C27.1333045,10.6558515 27.6481681,11.178905 27.6481681,12.225012 L27.6481681,12.225012 L27.6481681,12.4043447 L25.5327503,12.4715944 C23.7493822,12.5537885 22.3876053,12.9255301 21.4474196,13.5868192 C20.5072339,14.2481083 20.037141,15.2549863 20.037141,16.6074533 C20.037141,17.9076149 20.3803834,18.9163609 21.0668682,19.6336915 C21.753353,20.351022 22.6935387,20.7096873 23.8874253,20.7096873 Z M25.7454114,17.6161993 C24.9171525,17.6161993 24.5030231,17.2276453 24.5030231,16.4505372 C24.5030231,15.4417911 25.223086,14.9112654 26.6632117,14.8589601 L26.6632117,14.8589601 L27.6705535,14.8141269 L27.6705535,15.8004564 C27.6705535,16.3384543 27.4821433,16.7755776 27.1053228,17.1118263 C26.7285024,17.448075 26.2751985,17.6161993 25.7454114,17.6161993 Z M39.3781041,26 L39.3781041,20.9002282 C39.3781041,20.6835346 39.310948,20.1305923 39.1766357,19.2414013 L39.1766357,19.2414013 L39.3781041,19.2414013 C39.8780441,19.7943436 40.381715,20.1772935 40.8891168,20.390251 C41.3965186,20.6032085 41.9710766,20.7096873 42.6127906,20.7096873 C44.0379928,20.7096873 45.1665887,20.1212521 45.9985784,18.9443817 C46.8305682,17.7675113 47.246563,16.1553856 47.246563,14.1080047 C47.246563,12.0755682 46.8473572,10.4765188 46.0489455,9.31085671 C45.2505338,8.14519459 44.1499196,7.56236352 42.7471029,7.56236352 C41.3144389,7.56236352 40.1914393,8.17508336 39.3781041,9.40052303 L39.3781041,9.40052303 L39.1766357,9.40052303 L38.5610379,7.78652932 L35.0017635,7.78652932 L35.0017635,26 L39.3781041,26 Z M41.1913194,17.179076 C40.5645289,17.179076 40.1056287,16.9362298 39.8146189,16.4505372 C39.523609,15.9648447 39.3781041,15.1765283 39.3781041,14.0855881 L39.3781041,14.0855881 L39.3781041,13.7381311 C39.4004895,12.8339958 39.540398,12.1521581 39.7978298,11.6926183 C40.0552616,11.2330784 40.5048346,11.0033084 41.1465486,11.0033084 C41.7360301,11.0033084 42.1576213,11.2405506 42.4113222,11.7150348 C42.6650232,12.1895191 42.7918736,12.9722313 42.7918736,14.0631715 C42.7918736,15.1765283 42.6650232,15.9741849 42.4113222,16.4561414 C42.1576213,16.9380978 41.7509537,17.179076 41.1913194,17.179076 Z M54.1188728,26 L54.1188728,20.9002282 C54.1188728,20.6835346 54.0517167,20.1305923 53.9174044,19.2414013 L53.9174044,19.2414013 L54.1188728,19.2414013 C54.6188128,19.7943436 55.1224837,20.1772935 55.6298856,20.390251 C56.1372874,20.6032085 56.7118453,20.7096873 57.3535593,20.7096873 C58.7787615,20.7096873 59.9073574,20.1212521 60.7393472,18.9443817 C61.5713369,17.7675113 61.9873317,16.1553856 61.9873317,14.1080047 C61.9873317,12.0755682 61.5881259,10.4765188 60.7897142,9.31085671 C59.9913026,8.14519459 58.8906884,7.56236352 57.4878716,7.56236352 C56.0552077,7.56236352 54.9322081,8.17508336 54.1188728,9.40052303 L54.1188728,9.40052303 L53.9174044,9.40052303 L53.3018067,7.78652932 L49.7425322,7.78652932 L49.7425322,26 L54.1188728,26 Z M55.9320881,17.179076 C55.3052976,17.179076 54.8463975,16.9362298 54.5553876,16.4505372 C54.2643777,15.9648447 54.1188728,15.1765283 54.1188728,14.0855881 L54.1188728,14.0855881 L54.1188728,13.7381311 C54.1412582,12.8339958 54.2811668,12.1521581 54.5385986,11.6926183 C54.7960304,11.2330784 55.2456033,11.0033084 55.8873174,11.0033084 C56.4767989,11.0033084 56.8983901,11.2405506 57.152091,11.7150348 C57.4057919,12.1895191 57.5326423,12.9722313 57.5326423,14.0631715 C57.5326423,15.1765283 57.4057919,15.9741849 57.152091,16.4561414 C56.8983901,16.9380978 56.4917225,17.179076 55.9320881,17.179076 Z M65.9047722,26 C67.412054,26 68.6339224,25.6450708 69.5703772,24.9352125 C70.506832,24.2253541 71.2959164,23.0111228 71.9376305,21.2925183 L71.9376305,21.2925183 L76.9519542,7.78652932 L72.4860721,7.78652932 L70.2811128,15.0943342 C70.1617241,15.4828882 70.0721826,15.9349559 70.0124883,16.4505372 L70.0124883,16.4505372 L69.9229468,16.4505372 C69.8856379,15.9125393 69.8147508,15.4529994 69.7102858,15.0719176 L69.7102858,15.0719176 L67.5612899,7.78652932 L62.9499028,7.78652932 L67.9418412,20.3061889 C67.6956021,20.9263809 67.4642866,21.3728444 67.2478946,21.6455795 C67.0315027,21.9183145 66.7778018,22.129404 66.4867919,22.2788478 C66.195782,22.4282917 65.8562705,22.5030136 65.4682574,22.5030136 C64.9608556,22.5030136 64.5094172,22.4581805 64.1139423,22.3685142 L64.1139423,22.3685142 L64.1139423,25.8094591 C64.7258092,25.9364864 65.3227525,26 65.9047722,26 Z M91.726301,20.7096873 C93.4499748,20.7096873 94.9945656,20.4070635 96.3600734,19.8018158 L96.3600734,19.8018158 L96.3600734,16.0582471 C95.6735886,16.3421904 94.9908347,16.5850367 94.3118117,16.7867859 C93.6327887,16.9885351 92.9313803,17.0894097 92.2075866,17.0894097 C89.8123515,17.0894097 88.614734,15.512777 88.614734,12.3595115 C88.614734,10.8426563 88.9094748,9.65270954 89.4989563,8.78967124 C90.0884378,7.92663294 90.9092349,7.49511379 91.9613474,7.49511379 C92.655294,7.49511379 93.3044699,7.5922523 93.908875,7.78652932 C94.5132801,7.98080634 95.1176852,8.21991652 95.7220903,8.50385985 L95.7220903,8.50385985 L97.0764054,5.01808177 C95.4646585,4.24844588 93.7745627,3.86362794 92.0061182,3.86362794 C90.3869095,3.86362794 88.9784964,4.20921687 87.7808789,4.90039473 C86.5832614,5.59157259 85.665461,6.57977013 85.0274779,7.86498734 C84.3894947,9.15020456 84.0705031,10.6409071 84.0705031,12.3370949 C84.0705031,15.049501 84.7290062,17.1230346 86.0460124,18.5576957 C87.3630185,19.9923567 89.2564481,20.7096873 91.726301,20.7096873 Z M103.668898,20.4855215 L103.668898,3.04542279 L99.2925574,3.04542279 L99.2925574,20.4855215 L103.668898,20.4855215 Z M109.869647,20.7096873 C110.839679,20.7096873 111.630629,20.5751878 112.242496,20.3061889 C112.854363,20.0371899 113.455037,19.536553 114.044519,18.804278 L114.044519,18.804278 L114.13406,18.804278 L114.973512,20.4855215 L118.00673,20.4855215 L118.00673,12.1577623 C118.00673,10.7081568 117.560888,9.57985566 116.669204,8.77285881 C115.77752,7.96586195 114.518343,7.56236352 112.891672,7.56236352 C110.638211,7.56236352 108.772763,7.94344537 107.295329,8.70560907 L107.295329,8.70560907 L108.560102,11.5973478 C109.985304,10.9696836 111.160536,10.6558515 112.085799,10.6558515 C113.115526,10.6558515 113.630389,11.178905 113.630389,12.225012 L113.630389,12.225012 L113.630389,12.4043447 L111.514972,12.4715944 C109.731603,12.5537885 108.369827,12.9255301 107.429641,13.5868192 C106.489455,14.2481083 106.019362,15.2549863 106.019362,16.6074533 C106.019362,17.9076149 106.362605,18.9163609 107.049089,19.6336915 C107.735574,20.351022 108.67576,20.7096873 109.869647,20.7096873 Z M111.727633,17.6161993 C110.899374,17.6161993 110.485244,17.2276453 110.485244,16.4505372 C110.485244,15.4417911 111.205307,14.9112654 112.645433,14.8589601 L112.645433,14.8589601 L113.652775,14.8141269 L113.652775,15.8004564 C113.652775,16.3384543 113.464365,16.7755776 113.087544,17.1118263 C112.710724,17.448075 112.25742,17.6161993 111.727633,17.6161993 Z M125.405096,20.7096873 C127.136232,20.7096873 128.464431,20.3622303 129.389693,19.6673163 C130.314955,18.9724024 130.777586,17.9449758 130.777586,16.5850367 C130.777586,15.9050671 130.674986,15.3278402 130.469787,14.8533559 C130.264588,14.3788717 129.943731,13.966033 129.507216,13.6148399 C129.070701,13.2636469 128.408467,12.9049816 127.520514,12.5388441 C126.326627,12.068096 125.604699,11.7561319 125.354729,11.6029519 C125.104759,11.449772 124.979774,11.2648352 124.979774,11.0481416 C124.979774,10.6969485 125.33794,10.521352 126.054272,10.521352 C126.46467,10.521352 126.994458,10.6128864 127.643633,10.7959551 C128.292809,10.9790238 128.908407,11.2013216 129.490427,11.4628483 L129.490427,11.4628483 L130.676852,8.63835933 C129.885902,8.28716625 129.122934,8.02003535 128.387947,7.83696662 C127.652961,7.65389789 126.867607,7.56236352 126.031887,7.56236352 C124.367907,7.56236352 123.080748,7.89114002 122.17041,8.54869301 C121.260071,9.20624601 120.804902,10.1253258 120.804902,11.3059323 C120.804902,12.2399564 121.036217,13.0114603 121.498848,13.6204441 C121.961479,14.2294278 122.774815,14.7730299 123.938854,15.2512502 C125.21482,15.7593594 125.98525,16.1012122 126.250144,16.2768087 C126.515038,16.4524053 126.647484,16.6522864 126.647484,16.8764522 C126.647484,17.3098394 126.173661,17.526533 125.226013,17.526533 C124.591761,17.526533 123.869833,17.4293945 123.060228,17.2351175 C122.250624,17.0408405 121.50631,16.7942581 120.827287,16.4953704 L120.827287,16.4953704 L120.827287,20.003565 C121.551081,20.272564 122.259951,20.4575008 122.953898,20.5583754 C123.647844,20.65925 124.46491,20.7096873 125.405096,20.7096873 Z M137.62751,20.7096873 C139.358646,20.7096873 140.686845,20.3622303 141.612107,19.6673163 C142.537369,18.9724024 143,17.9449758 143,16.5850367 C143,15.9050671 142.8974,15.3278402 142.692201,14.8533559 C142.487002,14.3788717 142.166145,13.966033 141.72963,13.6148399 C141.293115,13.2636469 140.630881,12.9049816 139.742928,12.5388441 C138.549041,12.068096 137.827113,11.7561319 137.577143,11.6029519 C137.327173,11.449772 137.202188,11.2648352 137.202188,11.0481416 C137.202188,10.6969485 137.560354,10.521352 138.276686,10.521352 C138.687085,10.521352 139.216872,10.6128864 139.866048,10.7959551 C140.515223,10.9790238 141.130821,11.2013216 141.712841,11.4628483 L141.712841,11.4628483 L142.899266,8.63835933 C142.108316,8.28716625 141.345348,8.02003535 140.610361,7.83696662 C139.875375,7.65389789 139.090021,7.56236352 138.254301,7.56236352 C136.590321,7.56236352 135.303162,7.89114002 134.392824,8.54869301 C133.482485,9.20624601 133.027316,10.1253258 133.027316,11.3059323 C133.027316,12.2399564 133.258631,13.0114603 133.721263,13.6204441 C134.183894,14.2294278 134.997229,14.7730299 136.161268,15.2512502 C137.437235,15.7593594 138.207665,16.1012122 138.472558,16.2768087 C138.737452,16.4524053 138.869899,16.6522864 138.869899,16.8764522 C138.869899,17.3098394 138.396075,17.526533 137.448427,17.526533 C136.814175,17.526533 136.092247,17.4293945 135.282642,17.2351175 C134.473038,17.0408405 133.728724,16.7942581 133.049701,16.4953704 L133.049701,16.4953704 L133.049701,20.003565 C133.773495,20.272564 134.482365,20.4575008 135.176312,20.5583754 C135.870258,20.65925 136.687325,20.7096873 137.62751,20.7096873 Z" id="appyClass" fill-opacity="0.85" fill="#000000" fill-rule="nonzero"></path>
                    <polyline id="Path" fill-opacity="0.85" fill="#000000" points="5.72623163 11.8061356 5.72623163 19.4229712 1.14492176 19.4229712 1.14492176 10.2826066"></polyline>
                    <polyline id="Path" fill-opacity="0.85" fill="#000000" points="1.14492176 7.79735999 1.14492176 0 5.72623163 0 5.72623163 9.14036458"></polyline>
                    <polyline id="Path" fill-opacity="0.85" fill="#000000" points="16.0337731 10.2826066 16.0337731 19.4237807 11.4524633 19.4237807 11.4524633 11.7964213"></polyline>
                    <polyline id="Path" fill-opacity="0.85" fill="#000000" points="11.4524633 9.14036458 11.4524633 0 16.0337731 0 16.0337731 7.70669302"></polyline>
                    <path d="M0,10.2826066 C2.30428518,12.5010813 5.38756229,13.7313892 8.58975316,13.7101421 C11.7916638,13.7311773 14.874611,12.5008847 17.1786949,10.2826066" id="Path" stroke-opacity="0.85" stroke="#000000" stroke-width="3.22799059"></path>
                </g>
            </g>
        </g>
    </g>
</svg>