<?xml version="1.0" encoding="UTF-8"?>
<svg width="170px" height="54px" viewBox="0 0 170 54" version="1.1" xmlns="http://www.w3.org/2000/svg" xmlns:xlink="http://www.w3.org/1999/xlink">
    <title>pepul</title>
    <defs>
        <linearGradient x1="0.0698181818%" y1="49.5106453%" x2="92.2951969%" y2="74.4476009%" id="linearGradient-1">
            <stop stop-color="#FFC75E" offset="0%"></stop>
            <stop stop-color="#F4648F" offset="100%"></stop>
        </linearGradient>
    </defs>
    <g id="pepul" stroke="none" stroke-width="1" fill="none" fill-rule="evenodd">
        <g id="pepul-new-logo-copy-2" transform="translate(1.000000, 1.000000)" fill-rule="nonzero">
            <g id="Group" fill="url(#linearGradient-1)">
                <path d="M0,38.478678 L0,1.07356077 C0,0.508528785 0.455493811,0 1.0817978,0 L14.0633714,0 C21.0665888,0 26.8171981,5.65031983 26.8171981,12.4872068 C26.8171981,19.4936034 21.0665888,25.2004264 14.1203081,25.2004264 L5.86448282,25.2004264 L5.86448282,38.478678 C5.86448282,39.04371 5.35205228,39.5522388 4.78268502,39.5522388 L1.0817978,39.5522388 C0.455493811,39.5522388 0,39.04371 0,38.478678 Z M5.86448282,19.663113 L13.949498,19.663113 C17.8781321,19.663113 20.9527153,16.4989339 20.9527153,12.4307036 C20.9527153,8.58848614 17.8781321,5.65031983 13.949498,5.65031983 L5.86448282,5.65031983 L5.86448282,19.663113 Z M29.3793508,26.5 C29.3793508,19.1545842 34.5605929,12.8827292 42.4747979,12.8827292 C49.3072051,12.8827292 54.4884471,17.9115139 54.4884471,24.8614072 C54.4884471,25.3134328 54.4315105,26.217484 54.3745737,26.6695096 C54.317637,27.347548 53.7482697,27.7995736 53.1789025,27.7995736 L35.0160867,27.7995736 C35.0730235,31.3027719 38.2614801,34.9189765 42.873355,34.9189765 C45.8910015,34.9189765 47.7129767,33.8454158 49.3072051,32.7153518 C49.8765724,32.3198294 50.3890029,32.1503198 50.8444967,32.8283582 L52.3817883,35.2014925 C52.8372821,35.7665245 53.065029,36.2750533 52.2679148,36.9530917 C50.3890029,38.5916844 46.9158626,40.173774 42.5317346,40.173774 C34.5605929,40.173774 29.3793508,33.9584222 29.3793508,26.5 Z M35.3007704,23.6183369 L48.8517113,23.6183369 C48.7378378,20.4541578 46.2326218,17.6855011 42.3609245,17.6855011 C38.2045434,17.6855011 35.6993275,20.3411514 35.3007704,23.6183369 Z M66.2743496,38.3656716 L66.2743496,51.7569296 C66.2743496,52.4914712 65.761919,53 64.9078681,53 L61.7194115,53 C61.0361707,53 60.4668035,52.434968 60.4668035,51.7569296 L60.4668035,14.6908316 C60.4668035,14.0692964 61.0361707,13.4477612 61.7194115,13.4477612 L63.1428296,13.4477612 C63.7121968,13.4477612 64.0538172,13.673774 64.2815641,14.2953092 L64.9648048,15.9904051 C65.4202987,15.5383795 68.3810084,12.8827292 73.2206301,12.8827292 C80.4515944,12.8827292 85.6328367,19.0415778 85.6328367,26.5 C85.6328367,34.1279318 80.1669106,40.173774 72.9928832,40.173774 C69.5766797,40.173774 66.7298434,38.6481876 66.2743496,38.3656716 Z M66.1604761,32.8848614 C66.1604761,32.8848614 68.7226288,34.8059701 72.2527058,34.8059701 C76.5229602,34.8059701 79.9391642,31.1897655 79.9391642,26.5 C79.9391642,21.8667377 76.9784545,18.250533 72.4804527,18.250533 C68.665692,18.250533 66.388223,21.1321962 66.1604761,21.9232409 L66.1604761,32.8848614 Z M91.7250661,28.1950959 C91.7250661,35.0319829 93.6609149,40.173774 101.518183,40.173774 C106.870235,40.173774 109.261578,37.1791045 109.830945,36.6140725 L110.514186,38.478678 C110.741933,39.1002132 111.026617,39.5522388 111.709857,39.5522388 L113.076339,39.5522388 C113.759579,39.5522388 114.385883,38.9872068 114.385883,38.3091684 L114.385883,14.6908316 C114.385883,14.0692964 113.759579,13.4477612 113.076339,13.4477612 L110.172565,13.4477612 C109.204641,13.4477612 108.692211,13.6172708 108.692211,14.6908316 L108.692211,30.5117271 C108.464464,31.6982942 106.357805,34.8059701 102.543044,34.8059701 C99.1837775,34.8059701 97.4187393,32.8848614 97.4187393,28.5906183 L97.4187393,14.6908316 C97.4187393,14.0692964 96.8493718,13.4477612 96.1661311,13.4477612 L92.9776742,13.4477612 C92.3513701,13.4477612 91.7250661,14.0692964 91.7250661,14.6908316 L91.7250661,28.1950959 Z M122.527836,38.3091684 C122.527836,38.9872068 123.097202,39.5522388 123.780443,39.5522388 L126.9689,39.5522388 C127.595204,39.5522388 128.221508,38.9872068 128.221508,38.3091684 L128.221508,1.24307036 C128.221508,0.621535181 127.595204,0 126.9689,0 L123.780443,0 C123.097202,0 122.527836,0.621535181 122.527836,1.24307036 L122.527836,38.3091684 Z" id="Pepul"></path>
            </g>
            <path d="M136.799444,1.18768871 L135.030434,1.18768871 L135.030434,6.44894171 L133.77667,6.44894171 L133.77667,1.18768871 L132.016248,1.18768871 L132.016248,0.226046201 L136.799444,0.226046201 L136.799444,1.18768871 Z M139.135223,0.226046201 L140.728191,4.81201249 L140.753954,4.81201249 L142.359802,0.226046201 L144,0.226046201 L144,6.44894171 L142.746236,6.44894171 L142.746236,4.59404013 L142.86646,1.84587958 L142.840698,1.84160561 L141.16615,6.44894171 L140.324582,6.44894171 L138.658622,1.85870148 L138.632859,1.86297544 L138.753083,4.59404013 L138.753083,6.44894171 L137.499319,6.44894171 L137.499319,0.226046201 L139.135223,0.226046201 Z" id="TM" fill="#34373D"></path>
        </g>
    </g>
</svg>