<?xml version="1.0" encoding="UTF-8"?>
<svg width="195px" height="45px" viewBox="0 0 195 45" version="1.1" xmlns="http://www.w3.org/2000/svg" xmlns:xlink="http://www.w3.org/1999/xlink">
    <title>Artboard</title>
    <defs>
        <linearGradient x1="24.0426609%" y1="50.0013022%" x2="89.301044%" y2="50.0013022%" id="linearGradient-1">
            <stop stop-color="#FF8741" offset="0%"></stop>
            <stop stop-color="#ED2D7B" offset="100%"></stop>
        </linearGradient>
        <linearGradient x1="0.0114942529%" y1="50.0000477%" x2="99.954023%" y2="50.0000477%" id="linearGradient-2">
            <stop stop-color="#ED3557" offset="0%"></stop>
            <stop stop-color="#8A479A" offset="100%"></stop>
        </linearGradient>
        <linearGradient x1="0.000533111453%" y1="49.9952473%" x2="100.001022%" y2="49.9952473%" id="linearGradient-3">
            <stop stop-color="#FF3563" offset="0%"></stop>
            <stop stop-color="#8A479A" offset="100%"></stop>
        </linearGradient>
        <linearGradient x1="106.787851%" y1="49.5806421%" x2="6.79935573%" y2="50.4994775%" id="linearGradient-4">
            <stop stop-color="#8A479A" offset="0%"></stop>
            <stop stop-color="#5A5DA8" offset="100%"></stop>
        </linearGradient>
        <linearGradient x1="5.34246994%" y1="65.3793273%" x2="196.44226%" y2="-0.480541012%" id="linearGradient-5">
            <stop stop-color="#F28F41" offset="0%"></stop>
            <stop stop-color="#ED2D7B" offset="100%"></stop>
        </linearGradient>
    </defs>
    <g id="Page-1" stroke="none" stroke-width="1" fill="none" fill-rule="evenodd">
        <g id="About-Us" transform="translate(-786.000000, -6533.000000)" fill-rule="nonzero">
            <g id="Group-22" transform="translate(211.000000, 6488.000000)">
                <g id="Artboard" transform="translate(575.000000, 45.000000)">
                    <path d="M79.0154729,32 C82.1350137,32 84.4746693,31.0598291 85.9720489,29.4301994 C87.5006239,27.7692308 88.0309458,25.6695157 88.0309458,22.6296296 L88.0309458,10.031339 L82.9460943,10.031339 L82.9460943,22.6296296 C82.9460943,24.1652422 82.8213127,25.3561254 82.1038183,26.2336182 C81.4175193,27.048433 80.4192663,27.5811966 79.0154729,27.5811966 C77.6116796,27.5811966 76.6134265,27.048433 75.9271275,26.2336182 C75.2096331,25.3561254 75.0848515,24.1652422 75.0848515,22.6296296 L75.0848515,10.031339 L70,10.031339 L70,22.6296296 C70,25.6695157 70.5303219,27.7692308 72.0277015,29.4301994 C73.5562765,31.0598291 75.8647367,32 79.0154729,32 Z M104.314949,31.6552707 L104.314949,14.042735 L109.867731,14.042735 L109.867731,10.031339 L93.7085101,10.031339 L93.7085101,14.042735 L99.2612927,14.042735 L99.2612927,31.6552707 L104.314949,31.6552707 Z M120.754929,31.6552707 L120.754929,22.5982906 L129.396057,22.5982906 L129.396057,31.6552707 L134.449713,31.6552707 L134.449713,10.031339 L129.396057,10.031339 L129.396057,18.3988604 L120.754929,18.3988604 L120.754929,10.031339 L115.701273,10.031339 L115.701273,31.6552707 L120.754929,31.6552707 Z M145.27452,31.6552707 L146.803095,27.2991453 L154.477165,27.2991453 L156.00574,31.6552707 L161.496132,31.6552707 L153.385326,10 L148.144497,10 L140.033691,31.6552707 L145.27452,31.6552707 Z M153.322935,23.3504274 L147.957325,23.3504274 L150.64013,15.5783476 L153.322935,23.3504274 Z M176.376341,31.6552707 L184.362366,10.031339 L179.027951,10.031339 L174.00549,24.9173789 L168.951834,10.031339 L163.586224,10.031339 L171.572249,31.6552707 L176.376341,31.6552707 Z M195,31.6552707 L195,10.031339 L189.946344,10.031339 L189.946344,31.6552707 L195,31.6552707 Z" id="UTHAVI" fill-opacity="0.85" fill="#000000"></path>
                    <g id="logo">
                        <path d="M52.8123324,3.98163101 C51.7554247,2.46770287 49.1303328,0.118086395 45.5503865,0.100589002 C38.4773907,0.0645942672 34.3619175,5.8377069 27.523341,13.1267662 C20.683754,5.8377069 16.5713122,0.0645942672 9.4983164,0.100589002 C5.91938052,0.118086395 3.29428865,2.46770287 2.23738098,3.98163101 C1.50299428,5.03411124 0.939960059,6.19603619 0.569164398,7.42430359 C2.57688479,5.0343157 5.35556171,3.4204683 9.2962308,4.25413807 C13.7997083,4.95458215 17.1462458,8.97355672 23.8150704,15.6358498 C23.9848223,15.8054098 24.1545742,15.9709326 24.3202844,16.1303997 C17.0755158,21.6007267 12.5033292,15.569237 12.3638901,15.413807 C12.4649329,15.7054905 16.1459221,27.4243036 27.5273827,18.8958417 C38.9017705,27.42935 42.5898325,15.7054905 42.6868336,15.413807 C42.5463841,15.569237 37.9741976,21.6007267 30.729429,16.1303997 C30.8961496,15.9709326 31.0659015,15.8054098 31.234643,15.6358498 C37.9034676,8.97456601 41.2510154,4.95458215 45.7534825,4.25413807 C49.6941516,3.4204683 52.4697973,5.0343157 54.4765073,7.42430359 C54.1074234,6.19610425 53.5457259,5.03412242 52.8123324,3.98163101 Z" id="Path" fill="url(#linearGradient-1)"></path>
                        <path d="M9.2962308,4.25413807 C8.48250339,4.73806981 7.80548216,5.4209248 7.32892754,6.23839322 C5.27472747,6.06277755 2.8123145,6.28885748 0.505507436,7.64331853 C0.525715995,7.5696407 0.544914127,7.49697214 0.56815397,7.42430359 C2.57688479,5.0343157 5.35556171,3.4204683 9.2962308,4.25413807 Z" id="Path" fill="url(#linearGradient-2)"></path>
                        <path d="M43.3911019,30.9709326 C38.3995877,35.021195 27.5273827,45 27.5273827,45 C27.5273827,45 16.6501256,35.0252321 11.6636635,30.9709326 C1.72913572,22.9107792 -1.3344819,14.1118288 0.505507436,7.64331853 C2.8123145,6.28885748 5.27472747,6.06277755 7.32892754,6.23839322 C5.11912156,9.89705289 5.53743874,17.0569237 13.6491545,24.8284215 C16.2014956,27.2719015 27.523341,36.8611223 27.523341,36.8611223 C27.523341,36.8611223 38.8451865,27.2729107 41.396517,24.8284215 C49.5082328,17.0569237 49.9245292,9.89806217 47.7177545,6.24041179 C49.7679128,6.06075898 52.2303258,6.28381105 54.5361225,7.63120711 C56.3821743,14.1027452 53.3236089,22.9107792 43.3911019,30.9709326 Z" id="Path" fill="url(#linearGradient-3)"></path>
                        <path d="M54.5361225,7.63322568 C52.2303258,6.28582963 49.7679128,6.06277755 47.7177545,6.24243036 C47.24406,5.42273448 46.5677409,4.73814482 45.7534825,4.25413807 C49.6941516,3.4204683 52.4697973,5.0343157 54.4765073,7.42430359 C54.4967158,7.49394429 54.5169244,7.56358498 54.5361225,7.63322568 Z" id="Path" fill="url(#linearGradient-4)"></path>
                        <path d="M31.3437702,3.81509891 C31.3445866,5.35907039 30.4141507,6.75148538 28.9863659,7.34299776 C27.5585811,7.93451013 25.9146602,7.60861714 24.8212381,6.51729744 C23.7278158,5.42597774 23.4002499,3.78417483 23.9912989,2.35753572 C24.582348,0.930896611 25.9756007,0.000408457977 27.5213201,0 C29.6312172,0 31.342096,1.70758827 31.3437702,3.81509891 L31.3437702,3.81509891 Z" id="Path" fill="url(#linearGradient-5)"></path>
                    </g>
                </g>
            </g>
        </g>
    </g>
</svg>