<?xml version="1.0" encoding="UTF-8"?>
<svg width="30px" height="30px" viewBox="0 0 30 30" version="1.1" xmlns="http://www.w3.org/2000/svg" xmlns:xlink="http://www.w3.org/1999/xlink">
    <title>youtube</title>
    <g id="youtube" stroke="none" stroke-width="1" fill="none" fill-rule="evenodd">
        <rect id="Rectangle" fill="#D8D8D8" opacity="0" x="0" y="0" width="30" height="30"></rect>
        <path d="M28.4150876,8.12300962 C28.0930515,6.8936133 27.1444337,5.9256343 25.9396274,5.59702537 C23.7558517,5 15,5 15,5 C15,5 6.2441483,5 4.0603726,5.59702537 C2.85590926,5.9256343 1.90694854,6.8936133 1.58491236,8.12300962 C1,10.3511811 1,15.000175 1,15.000175 C1,15.000175 1,19.6489939 1.58491236,21.8769904 C1.90694854,23.1063867 2.85590926,24.0747157 4.0603726,24.4031496 C6.2441483,25 15,25 15,25 C15,25 23.7558517,25 25.9396274,24.4031496 C27.1444337,24.0747157 28.0930515,23.1063867 28.4150876,21.8769904 C29,19.6489939 29,15.000175 29,15.000175 C29,15.000175 29,10.3511811 28.4150876,8.12300962 L28.4150876,8.12300962 Z M12.1999314,19.2859143 L12.1999314,10.7142607 L19.4743824,15.000175 L12.1999314,19.2859143 Z" id="Shape" fill="#000000"></path>
    </g>
</svg>