<svg width="32" height="32" viewBox="0 0 32 32" fill="none" xmlns="http://www.w3.org/2000/svg">
<path d="M16.0003 29.3337C23.3641 29.3337 29.3337 23.3641 29.3337 16.0003C29.3337 8.63653 23.3641 2.66699 16.0003 2.66699C8.63653 2.66699 2.66699 8.63653 2.66699 16.0003C2.66699 23.3641 8.63653 29.3337 16.0003 29.3337Z" stroke="#00C950" stroke-width="2.66667" stroke-linecap="round" stroke-linejoin="round"/>
<path d="M16 24C20.4183 24 24 20.4183 24 16C24 11.5817 20.4183 8 16 8C11.5817 8 8 11.5817 8 16C8 20.4183 11.5817 24 16 24Z" stroke="#00C950" stroke-width="2.66667" stroke-linecap="round" stroke-linejoin="round"/>
<path d="M15.9997 18.6663C17.4724 18.6663 18.6663 17.4724 18.6663 15.9997C18.6663 14.5269 17.4724 13.333 15.9997 13.333C14.5269 13.333 13.333 14.5269 13.333 15.9997C13.333 17.4724 14.5269 18.6663 15.9997 18.6663Z" stroke="#00C950" stroke-width="2.66667" stroke-linecap="round" stroke-linejoin="round"/>
</svg>
