<?xml version="1.0" encoding="UTF-8"?>
<svg width="32px" height="32px" viewBox="0 0 32 32" version="1.1" xmlns="http://www.w3.org/2000/svg" xmlns:xlink="http://www.w3.org/1999/xlink">
    <title>3</title>
    <g id="3" stroke="none" stroke-width="1" fill="none" fill-rule="evenodd" fill-opacity="0.85">
        <g id="iconfinder_location_located_gps_map_position_tracking_3351789" transform="translate(1.000000, 1.000000)" fill="#000000" fill-rule="nonzero">
            <path d="M15.75,25.47363 L15.75,30 L14.25,30 L14.25,25.47363 C9.0487695,25.10655 4.89345,20.951235 4.526373,15.75 L0,15.75 L0,14.25 L4.526373,14.25 C4.89345,9.048765 9.0487695,4.89345 14.25,4.52637 L14.25,0 L15.75,0 L15.75,4.52637 C20.9512305,4.89345 25.10655,9.048765 25.473627,14.25 L30,14.25 L30,15.75 L25.473627,15.75 C25.10655,20.951235 20.9512305,25.10655 15.75,25.47363 Z M6,15 C6,19.970565 10.029438,24 15,24 C19.970562,24 24,19.970565 24,15 C24,10.029435 19.970562,6 15,6 C10.029438,6 6,10.029435 6,15 Z M15,16.5 C14.1715725,16.5 13.5,15.82842 13.5,15 C13.5,14.17158 14.1715725,13.5 15,13.5 C15.8284275,13.5 16.5,14.17158 16.5,15 C16.5,15.82842 15.8284275,16.5 15,16.5 Z" id="Shape"></path>
        </g>
    </g>
</svg>