<?xml version="1.0" encoding="UTF-8"?>
<svg width="32px" height="32px" viewBox="0 0 32 32" version="1.1" xmlns="http://www.w3.org/2000/svg" xmlns:xlink="http://www.w3.org/1999/xlink">
    <title>4</title>
    <g id="4" stroke="none" stroke-width="1" fill="none" fill-rule="evenodd" fill-opacity="0.85" stroke-opacity="0.85">
        <g id="iconfinder_clock_1814097" transform="translate(4.000000, 4.000000)" fill="#000000" fill-rule="nonzero" stroke="#000000" stroke-width="0.3">
            <path d="M11.9998108,24 C5.39729482,24 0,18.6026201 0,12 C0,5.39737991 5.39729482,0 11.9998108,0 C18.6023268,0 23.9996216,5.39737991 23.9996216,12 C24.0520226,18.6026201 18.6547277,24 11.9998108,24 L11.9998108,24 Z M11.9998108,1.25764192 C6.07850679,1.25764192 1.31002302,6.07860262 1.31002302,11.9475983 C1.31002302,17.8165939 6.13090771,22.6375546 11.9998108,22.6375546 C17.8687139,22.6375546 22.6895986,17.8165939 22.6895986,11.9475983 C22.6895986,6.07860262 17.9211149,1.25764192 11.9998108,1.25764192 L11.9998108,1.25764192 Z" id="Fill-131"></path>
            <polyline id="Fill-132" points="15.7726771 18.1310044 11.3185989 13.6768559 11.3185989 5.55458515 12.7334237 5.55458515 12.7334237 13.1004367 16.7682946 17.1353712 15.7726771 18.1310044"></polyline>
        </g>
    </g>
</svg>