<?xml version="1.0" encoding="UTF-8"?>
<svg width="24px" height="24px" viewBox="0 0 24 24" version="1.1" xmlns="http://www.w3.org/2000/svg" xmlns:xlink="http://www.w3.org/1999/xlink">
    <title>9</title>
    <g id="9" stroke="none" stroke-width="1" fill="none" fill-rule="evenodd">
        <rect id="Rectangle" stroke="#979797" fill="#D8D8D8" opacity="0" x="0.5" y="0.5" width="23" height="23"></rect>
        <g id="iconfinder_Process_scrum_3788629" opacity="0.85" transform="translate(1.000000, 4.000000)" fill="#000000" fill-rule="nonzero">
            <polygon id="Line" points="8.9686901 16.0870626 19.7929713 16.0870626 19.7929713 15.1741253 8.9686901 15.1741253"></polygon>
            <polygon id="Path-2-Copy" transform="translate(20.875399, 15.630594) rotate(90.000000) translate(-20.875399, -15.630594) " points="19.5059933 16.7551946 20.8753994 14.5059933 22.2448054 16.7551946"></polygon>
            <path d="M8.20686241,1.26554002 L8.44758808,2.14955308 C5.78105558,3.0557483 3.8658147,5.54741748 3.8658147,8.47925137 C3.8658147,12.1767281 6.91199488,15.1741253 10.6696486,15.1741253 L10.6696486,16.0870626 C6.39958757,16.0870626 2.93801917,12.6809295 2.93801917,8.47925137 C2.93801917,5.12483926 5.14429693,2.27747861 8.20686241,1.26554002 Z" id="Combined-Shape"></path>
            <path d="M11.3303513,0.898828728 C15.2911404,1.22865674 18.401278,4.49656484 18.401278,8.47925137 C18.401278,12.6300928 15.0229669,16.0045236 10.8242812,16.0855714 L10.8242812,16.0870626 L0,16.0870626 L0,15.1741253 L10.8242812,15.1741253 L10.8242812,15.1724303 C14.5105172,15.0915436 17.4734824,12.125875 17.4734824,8.47925137 C17.4734824,5.00110515 14.7779762,2.14244593 11.3303513,1.81553913 L11.3303513,2.73881206 L9.08115005,1.36940603 L11.3303513,0 L11.3303513,0.898828728 Z" id="Combined-Shape"></path>
        </g>
    </g>
</svg>