<?xml version="1.0" encoding="UTF-8"?>
<svg width="24px" height="24px" viewBox="0 0 24 24" version="1.1" xmlns="http://www.w3.org/2000/svg" xmlns:xlink="http://www.w3.org/1999/xlink">
    <title>8</title>
    <g id="8" stroke="none" stroke-width="1" fill="none" fill-rule="evenodd">
        <rect id="Rectangle" stroke="#979797" fill="#D8D8D8" opacity="0" x="0.5" y="0.5" width="23" height="23"></rect>
        <g id="iconfinder_chart-line_355302" opacity="0.85" transform="translate(3.000000, 4.000000)" fill="#000000" fill-rule="nonzero" stroke="#000000" stroke-width="0.5">
            <path d="M16.875,0 L1.125,0 C0.50315625,0 0,0.50315625 0,1.125 L0,16.875 C0,17.4968438 0.50315625,18 1.125,18 L16.875,18 C17.4968438,18 18,17.4968438 18,16.875 L18,1.125 C18,0.50315625 17.4968438,0 16.875,0 Z M1.125,0.5625 L16.875,0.5625 C17.1855,0.5625 17.4375,0.8145 17.4375,1.125 L17.4375,7.151625 L14.2287188,9.03965625 C13.9190625,8.6715 13.456125,8.4375 12.9375,8.4375 C12.43125,8.4375 11.9784375,8.661375 11.6690625,9.01434375 L7.18875,6.25725 C7.2680625,6.06178125 7.3125,5.848875 7.3125,5.625 C7.3125,4.6929375 6.5570625,3.9375 5.625,3.9375 C4.6929375,3.9375 3.9375,4.6929375 3.9375,5.625 C3.9375,5.9895 4.0539375,6.325875 4.25025,6.60178125 L0.5625,10.2898125 L0.5625,1.125 C0.5625,0.8145 0.8145,0.5625 1.125,0.5625 Z M12.9375,9 C13.5587813,9 14.0625,9.50371875 14.0625,10.125 C14.0625,10.7462813 13.5587813,11.25 12.9375,11.25 C12.3162187,11.25 11.8125,10.7462813 11.8125,10.125 C11.8125,9.50371875 12.3162187,9 12.9375,9 Z M4.5,5.625 C4.5,5.00371875 5.00371875,4.5 5.625,4.5 C6.24628125,4.5 6.75,5.00371875 6.75,5.625 C6.75,6.24628125 6.24628125,6.75 5.625,6.75 C5.00371875,6.75 4.5,6.24628125 4.5,5.625 Z M16.875,17.4375 L1.125,17.4375 C0.8145,17.4375 0.5625,17.1855 0.5625,16.875 L0.5625,11.0851875 L4.6479375,6.99946875 C4.92384375,7.1960625 5.2605,7.3125 5.625,7.3125 C6.13125,7.3125 6.5840625,7.08890625 6.8934375,6.73565625 L11.37375,9.49303125 C11.2944375,9.68821875 11.25,9.90140625 11.25,10.125 C11.25,11.0570625 12.0054375,11.8125 12.9375,11.8125 C13.8695625,11.8125 14.625,11.0570625 14.625,10.125 C14.625,9.9135 14.5842187,9.71128125 14.5133438,9.52453125 L17.4375,7.804125 L17.4375,16.875 C17.4375,17.1855 17.1855,17.4375 16.875,17.4375 Z" id="Shape"></path>
        </g>
    </g>
</svg>