<?xml version="1.0" encoding="UTF-8"?>
<svg width="32px" height="32px" viewBox="0 0 32 32" version="1.1" xmlns="http://www.w3.org/2000/svg" xmlns:xlink="http://www.w3.org/1999/xlink">
    <title>4</title>
    <g id="4" stroke="none" stroke-width="1" fill="none" fill-rule="evenodd">
        <g id="iconfinder_route_3803289" transform="translate(3.000000, 2.000000)" fill="#000000" fill-rule="nonzero" stroke="#F6F5DE" stroke-width="0.6">
            <path d="M20.5107998,3.22903895 L11.6734154,3.22903895 C11.1018164,1.1180723 9.03469978,-0.247294863 6.84147374,0.0374559218 C4.64824769,0.322206707 3.00848601,2.16884507 3.00848601,4.35402352 C3.00848601,6.53920197 4.64824769,8.38584033 6.84147374,8.67059111 C9.03469978,8.9553419 11.1018164,7.58997473 11.6734154,5.47900808 L20.5107998,5.47900808 C22.2133755,5.57911724 23.5422144,6.97224838 23.5422144,8.65708947 C23.5422144,10.3419306 22.2133755,11.7350617 20.5107998,11.8351709 L5.25036788,11.8351709 C2.3128175,11.9673107 0,14.3583984 0,17.2632214 C0,20.1680443 2.3128175,22.5591321 5.25036788,22.6912719 L12.4022718,22.6912719 L9.98793481,25.0762391 C9.77233834,25.2874737 9.65106838,25.5750151 9.65106838,25.8749782 C9.65106838,26.1749413 9.77233834,26.4624827 9.98793481,26.6737172 C10.202855,26.8842992 10.4938033,27.0016916 10.7965099,26.9999816 C11.0992165,27.0016916 11.3901649,26.8842992 11.6050851,26.6737172 L15.955447,22.3650264 C16.3970015,21.9262402 16.3970015,21.2175842 15.955447,20.7787981 L11.6050851,16.4701072 C11.3912493,16.2571334 11.100167,16.1373387 10.7965099,16.1373387 C10.4928529,16.1373387 10.2017706,16.2571334 9.98793481,16.4701072 C9.54638037,16.9088934 9.54638037,17.6175494 9.98793481,18.0563355 L12.4022718,20.4413028 L5.25036788,20.4413028 C3.54779218,20.3411936 2.21895335,18.9480625 2.21895335,17.2632214 C2.21895335,15.5783803 3.54779218,14.1852491 5.25036788,14.08514 L20.5107998,14.08514 C23.4483502,13.9530002 25.7611677,11.5619124 25.7611677,8.65708947 C25.7611677,5.75226649 23.4483502,3.36117877 20.5107998,3.22903895 L20.5107998,3.22903895 Z M7.43693723,6.45774465 C6.26077647,6.45774465 5.30730979,5.51587662 5.30730979,4.35402352 C5.30730979,3.19217042 6.26077647,2.25030239 7.43693723,2.25030239 C8.61309799,2.25030239 9.56656468,3.19217042 9.56656468,4.35402352 C9.56656468,5.51587662 8.61309799,6.45774465 7.43693723,6.45774465 L7.43693723,6.45774465 Z" id="Shape"></path>
            <path d="M21.5926961,25.8749782 C19.1586094,25.8749782 17.1853923,23.9257647 17.1853923,21.5212879 C17.1853923,19.1168112 19.1586094,17.1675977 21.5926961,17.1675977 C24.0267828,17.1675977 26,19.1168112 26,21.5212879 C26,22.6759584 25.5356604,23.7833365 24.7091306,24.5998118 C23.8826008,25.4162871 22.7615858,25.8749782 21.5926961,25.8749782 L21.5926961,25.8749782 Z M21.5926961,19.4175668 C20.4165354,19.4175668 19.4630687,20.3594348 19.4630687,21.5212879 C19.4630687,22.683141 20.4165354,23.6250091 21.5926961,23.6250091 C22.7688569,23.6250091 23.7223236,22.683141 23.7223236,21.5212879 C23.6975408,20.3770455 22.7512944,19.4623043 21.5926961,19.4625662 L21.5926961,19.4175668 Z" id="Shape"></path>
        </g>
    </g>
</svg>