<?xml version="1.0" encoding="UTF-8"?>
<svg width="32px" height="32px" viewBox="0 0 32 32" version="1.1" xmlns="http://www.w3.org/2000/svg" xmlns:xlink="http://www.w3.org/1999/xlink">
    <title>3</title>
    <g id="3" stroke="none" stroke-width="1" fill="none" fill-rule="evenodd">
        <g id="iconfinder_taxi-travel-transportation-traffic-car-cab_3185556" transform="translate(-2.000000, -6.000000)">
            <g id="_x36_4px_boxes">
                <rect id="Rectangle" x="0" y="0" width="38" height="38"></rect>
            </g>
            <g id="Production" transform="translate(2.562500, 8.187541)" fill="#000000" fill-opacity="0.85" fill-rule="nonzero" stroke="#000000" stroke-opacity="0.85" stroke-width="0.4">
                <g id="Group">
                    <path d="M30.863125,10.3593344 C30.863125,9.213575 29.9426344,8.28120938 28.796875,8.28120938 L26.8586969,8.28120938 L25.7825844,5.02371875 C25.48945,4.13742813 24.7002969,3.50253125 23.7714344,3.40658125 C22.80665,3.30700938 21.3104594,3.1692 19.59375,3.06867813 L19.59375,1.1875 C19.59375,0.53259375 19.0611563,0 18.40625,0 L12.46875,0 C11.8138438,0 11.28125,0.53259375 11.28125,1.1875 L11.28125,3.06867813 C9.56448125,3.1692 8.06829063,3.30700938 7.10356563,3.40658125 C6.17464375,3.50253125 5.38549063,4.1374875 5.09241563,5.02401563 L4.0163625,8.28120938 L2.078125,8.28120938 C0.932365625,8.28120938 0,9.213575 0,10.3593344 C0,11.4958906 0.918175,12.4199438 2.0512875,12.4347281 C1.1145875,13.7997 0.59375,15.3793719 0.59375,16.9509094 C0.59375,22.4810969 0.59375,20.5471344 0.59375,26.0937094 C0.59375,26.7486156 1.12634375,27.2812094 1.78125,27.2812094 L5.34375,27.2812094 C5.99865625,27.2812094 6.53125,26.7486156 6.53125,26.0937094 L6.53125,23.7187094 L24.34375,23.7187094 L24.34375,26.0937094 C24.34375,26.7486156 24.8763438,27.2812094 25.53125,27.2812094 L29.09375,27.2812094 C29.7486563,27.2812094 30.28125,26.7486156 30.28125,26.0937094 C30.28125,20.5336563 30.28125,22.5686156 30.28125,16.9509094 C30.28125,15.3793719 29.7604125,13.7997 28.8237125,12.4347875 C29.956825,12.4199438 30.863125,11.4958906 30.863125,10.3593344 Z M28.796875,9.46870938 C29.2879656,9.46870938 29.675625,9.86824375 29.675625,10.3593344 C29.675625,10.850425 29.2879656,11.2499594 28.796875,11.2499594 L27.8525156,11.2499594 C27.8452125,11.2424781 27.8390375,11.234225 27.8317344,11.2267438 L27.2509875,9.46870938 L28.796875,9.46870938 Z M12.46875,1.15620938 L18.40625,1.15620938 L18.40625,3.00752188 C16.3091844,2.91448125 14.5698531,2.91430313 12.46875,3.00752188 L12.46875,1.15620938 Z M6.22018438,5.39653438 C6.36660313,4.95324063 6.76115,4.63582188 7.22534375,4.58766875 C13.1409344,3.97729375 17.7106719,3.97485938 23.6497156,4.58766875 C24.11385,4.63582188 24.5084563,4.95324063 24.654875,5.3962375 L26.3927219,10.6562094 L4.48227813,10.6562094 L6.22018438,5.39653438 Z M1.1875,10.3593344 C1.1875,9.86824375 1.58703438,9.46870938 2.078125,9.46870938 L3.6240125,9.46870938 L3.04326563,11.2267438 C3.0359625,11.234225 3.0297875,11.2424781 3.02248438,11.2499594 L2.078125,11.2499594 C1.58703438,11.2499594 1.1875,10.850425 1.1875,10.3593344 Z M1.78125,26.0937094 L1.78125,23.7187094 L5.34404688,23.7187094 L5.34464063,26.0937094 L1.78125,26.0937094 Z M29.0946406,26.0937094 L25.53125,26.0937094 L25.53125,23.7187094 L29.0940469,23.7187094 L29.0946406,26.0937094 Z M29.09375,16.9509094 L29.09375,22.5312094 C22.6041219,22.5312094 7.50606875,22.5312094 1.78125,22.5312094 L1.78125,16.9509094 C1.78125,15.2549813 2.47486875,13.4530094 4.0814375,11.8692406 L4.08986875,11.8437094 L26.7851313,11.8437094 L26.7935625,11.8692406 C28.3936,13.4465969 29.09375,15.2462531 29.09375,16.9509094 Z" id="Shape"></path>
                    <rect id="Rectangle" x="10.6875" y="18.3749594" width="9.5" height="1.1875"></rect>
                    <path d="M7.866,15.9396344 L4.3035,15.4943219 C3.5888625,15.4021719 2.96875,15.9686688 2.96875,16.6725594 L2.96875,18.3749594 C2.96875,19.0298656 3.50134375,19.5624594 4.15625,19.5624594 L7.71875,19.5624594 C8.37365625,19.5624594 8.90625,19.0298656 8.90625,18.3749594 L8.90625,17.1178719 C8.90625,16.5200844 8.45891875,16.0135563 7.866,15.9396344 Z M4.15625,18.3749594 L4.15625,16.6725594 L7.71875,17.1178719 L7.71964063,18.3749594 L4.15625,18.3749594 Z" id="Shape"></path>
                    <path d="M23.009,15.9396344 C22.4160813,16.0135563 21.96875,16.5200844 21.96875,17.1178719 L21.96875,18.3749594 C21.96875,19.0298656 22.5013438,19.5624594 23.15625,19.5624594 L26.71875,19.5624594 C27.3736563,19.5624594 27.90625,19.0298656 27.90625,18.3749594 L27.90625,16.6725594 C27.90625,15.9686688 27.2843563,15.4021719 26.5715,15.4943219 L23.009,15.9396344 Z M26.7196406,18.3749594 L23.15625,18.3749594 L23.15625,17.1178719 L26.71875,16.6725594 L26.7196406,18.3749594 Z" id="Shape"></path>
                </g>
            </g>
        </g>
    </g>
</svg>