<?xml version="1.0" encoding="UTF-8"?>
<svg width="24px" height="24px" viewBox="0 0 24 24" version="1.1" xmlns="http://www.w3.org/2000/svg" xmlns:xlink="http://www.w3.org/1999/xlink">
    <title>info</title>
    <g id="info" stroke="none" stroke-width="1" fill="none" fill-rule="evenodd" opacity="0.561232067">
        <g id="iconfinder_information-2_240273" transform="translate(2.000000, 2.000000)" fill="#000000" fill-rule="nonzero">
            <path d="M10,0 C4.47713725,0 0,4.47713725 0,10 C0,15.5228627 4.47717647,20 10,20 C15.5228235,20 20,15.522902 20,10 C20,4.47713725 15.5228627,0 10,0 Z M12.248549,16.0718039 C12.0704706,16.2196471 11.8695686,16.3516471 11.6456078,16.4676078 C11.4216863,16.5837255 11.1761569,16.6763922 10.9091373,16.746 C10.6421176,16.8156078 9.98776471,16.8504314 9.66623529,16.8504314 C8.98858824,16.8504314 8.46894118,16.689451 8.10717647,16.3675686 C7.74541176,16.0456863 7.3845098,15.5976078 7.3845098,15.023451 C7.3845098,14.7901961 7.40607843,14.5103922 7.44454902,14.1946275 C7.46168627,14.1942353 8.17784314,10.0585098 8.17784314,10.0585098 C8.19505882,9.98321569 8.21078431,9.90490196 8.22521569,9.82360784 C8.23945098,9.74247059 8.25239216,9.66564706 8.26396078,9.59305882 C8.27541176,9.52062745 8.28403922,9.45823529 8.28980392,9.406 C8.29545098,9.35384314 8.29843137,9.31619608 8.29843137,9.29294118 C8.29843137,9.13062745 8.28121569,9.00011765 8.2467451,8.90141176 C8.21227451,8.80286275 8.15764706,8.72741176 8.08309804,8.6752549 C8.00839216,8.62301961 7.91215686,8.58823529 7.79454902,8.57082353 C7.67678431,8.55345098 7.53466667,8.54470588 7.36815686,8.54470588 C7.36815686,8.54470588 6.77164706,8.44439216 6.77164706,8.04203922 C6.77164706,7.51588235 7.57521569,7.59647059 7.53243137,7.59647059 C8.254,7.59647059 10.1678431,7.59647059 11.0823922,7.59647059 C12.1032157,7.59647059 11.5541569,9.38023529 11.7007843,8.68576471 C11.3465098,10.3640392 10.8876078,13.0755686 10.8876078,13.0755686 C10.8187059,13.4004314 10.7612157,13.5459608 10.7153333,13.8272157 C10.6692941,14.1086275 10.6464314,14.3739608 10.6464314,14.6232941 C10.6464314,14.8842745 10.699451,15.0843529 10.8057647,15.2235686 C10.9119608,15.3627843 11.0627059,15.4323529 11.258,15.4323529 C11.4416863,15.4323529 11.6111373,15.3975686 11.7661961,15.3279608 C12.038,15.2059608 12.5765882,14.7339216 12.7919216,15.0401569 C13.0708627,15.4368627 12.5084314,15.8557647 12.248549,16.0718039 Z M7.51156363,14.1099608 C7.4982303,14.1577607 7.49369696,14.1966676 7.4814303,14.2432941 C7.47689696,14.2432941 7.4850303,14.2046342 7.51156363,14.1099608 Z M10.2718431,6.78576471 C9.27768627,6.78576471 8.47176471,5.97180392 8.47176471,4.96768627 C8.47176471,3.96360784 9.27768627,3.14960784 10.2718431,3.14960784 C11.2659608,3.14960784 12.0718824,3.96360784 12.0718824,4.96768627 C12.0718824,5.97180392 11.2659608,6.78576471 10.2718431,6.78576471 Z" id="Shape"></path>
        </g>
    </g>
</svg>