<?xml version="1.0" encoding="UTF-8"?>
<svg width="568px" height="184px" viewBox="0 0 568 184" version="1.1" xmlns="http://www.w3.org/2000/svg" xmlns:xlink="http://www.w3.org/1999/xlink">
    <title>1</title>
    <defs>
        <filter color-interpolation-filters="auto" id="filter-1">
            <feColorMatrix in="SourceGraphic" type="matrix" values="0 0 0 0 0.000000 0 0 0 0 0.000000 0 0 0 0 0.000000 0 0 0 0.850000 0"></feColorMatrix>
        </filter>
    </defs>
    <g id="1" stroke="none" stroke-width="1" fill="none" fill-rule="evenodd">
        <g id="Group" transform="translate(0.000000, 18.000000)">
            <g id="scientific-atlanta-1" transform="translate(345.000000, 0.000000)" fill="#000000" fill-opacity="0.85" fill-rule="nonzero">
                <path d="M0,48.8706165 C20.0452807,35.2303328 27.3350479,24.488467 29.4786513,17.6145336 C13.9353165,12.0290671 0,16.4336498 0,16.4336498 L0,48.8706165 Z M11.2561281,55.7432842 C31.0866695,37.5933661 33.6597515,22.6633497 33.9805972,19.4409165 L33.8732276,19.4409165 C35.2665066,20.08515 36.5536791,20.8369667 37.9469581,21.5887834 C37.733482,29.1069504 35.1591369,39.5260666 22.510993,55.7432842 L11.2561281,55.7432842 Z M34.6235519,55.7432842 C38.5899128,49.0857829 43.3065981,36.626383 42.8783827,25.026383 C44.1642921,26.0996836 45.4514646,27.2818331 46.8447436,28.5703001 C47.8098072,41.0296999 44.8085099,50.803317 42.771013,55.6369667 L42.771013,55.7432842 L34.6235519,55.7432842 L34.6235519,55.7432842 Z M50.4889956,55.6369667 C51.5614289,49.9439171 52.5252293,42.2118494 51.8822746,34.1545008 L51.7761681,34.1545008 C52.9695373,35.6926635 54.1132977,37.2688315 55.2056809,38.8805674 L55.2056809,55.7420185 L50.4889956,55.7420185 L50.4889956,55.6369667 L50.4889956,55.6369667 Z" id="Shape"></path>
                <path d="M39.7697157,12.6733006 C39.7697157,12.6733006 45.1293557,7.08909984 50.059517,23.9518167 C51.774905,25.4554501 53.4902929,27.1742499 55.2044177,29.0006328 L55.2044177,2.25545008 L0,2.25545008 L0,15.7881506 C0,15.7881506 13.8279468,9.55845063 30.2289756,13.639018 C30.4437149,11.2759847 29.6933905,9.77235134 29.0491727,9.34328423 C26.6908301,7.94723404 22.9392084,11.062084 22.9392084,11.062084 C22.9392084,11.062084 26.0478754,6.33601746 30.5498213,8.59146754 C31.4075153,8.91421713 32.05047,9.55845063 32.4799486,10.2026841 L32.4799486,10.3102673 C33.3376425,9.66603382 36.8745249,7.51816694 39.7697157,12.6733006 Z" id="Path"></path>
                <path d="M40.0905615,13.2112166 C40.7335162,14.4996836 41.2691012,16.1109002 41.8059494,18.258767 L41.9133191,18.258767 C43.1992284,18.9030005 44.3790313,19.7624004 45.6649407,20.6218003 C43.3065981,10.4178505 40.0905615,13.2112166 40.0905615,13.2112166 L40.0905615,13.2112166 Z M37.7322189,16.2184834 C37.1953706,9.45213312 33.979334,10.2039498 32.8007943,10.7406001 C33.443749,11.9227496 33.8732276,13.426383 33.979334,14.71485 C35.2665066,15.1439171 36.4463095,15.5742499 37.7322189,16.2184834 Z M70.4269067,18.9030005 C70.4269067,20.4066339 71.177231,23.0924168 76.1073924,23.0924168 C78.8952136,23.0924168 81.8965109,22.5557665 81.8965109,19.7624004 C81.8965109,17.7221167 79.7529076,17.0766176 76.8589799,16.4336498 L73.9637891,15.7894163 C69.5692127,14.8224332 65.2807429,13.8554501 65.2807429,8.05608292 C65.2807429,5.15513366 66.9961308,0 75.7852835,0 C84.1462207,0 86.3971937,5.26271686 86.3971937,8.48515003 L80.9301841,8.48515003 C80.8240777,7.30300055 80.3945991,4.51090016 75.3558049,4.51090016 C73.2122016,4.51090016 70.6391196,5.26271686 70.6391196,7.62575014 C70.6391196,9.77361702 72.3545076,10.2039498 73.5330473,10.4191162 L80.1785966,12.0303328 C83.9314814,12.8897327 87.3609942,14.3933661 87.3609942,19.1194326 C87.3609942,26.9603492 79.0000569,27.7121658 76.5343446,27.7121658 C66.5641259,27.7121658 64.9573708,22.1266994 64.9573708,18.9055319 L70.4269067,18.9055319 L70.4269067,18.9030005 Z M107.623541,19.8699836 C107.516171,21.9102673 105.800783,27.4957338 98.4049093,27.4957338 C90.7942964,27.4957338 89.0789084,21.9102673 89.0789084,17.8296999 C89.0789084,11.4924168 91.9728361,6.98151664 98.7270182,6.98151664 C101.943055,6.98151664 107.195325,8.37883252 107.73091,14.4996836 L102.263901,14.4996836 C102.050424,13.2112166 101.3001,11.1709329 98.7270182,11.2772504 C95.403612,11.2772504 94.545918,14.4996836 94.545918,16.9703001 C94.545918,19.1181669 94.6532877,23.3075832 98.6196486,23.3075832 C101.406207,23.3075832 102.263901,20.8369667 102.263901,19.8712493 L107.623541,19.8712493 L107.623541,19.8699836 Z M110.089253,26.9590835 L110.089253,7.51816694 L115.448893,7.51816694 L115.448893,26.9590835 L110.089253,26.9590835 L110.089253,26.9590835 Z M110.089253,5.15513366 L110.089253,0.429067103 L115.448893,0.429067103 L115.448893,5.15513366 L110.089253,5.15513366 L110.089253,5.15513366 Z M136.886189,21.2660338 C135.494173,25.9921004 131.527813,27.4957338 128.0983,27.4957338 C122.307918,27.4957338 118.021975,24.9175341 118.021975,16.8627169 C118.021975,14.4996836 118.772299,6.98151664 127.668821,6.98151664 C131.633919,6.98151664 137.209561,8.80789962 137.209561,17.7221167 L137.209561,18.5815166 L123.272982,18.5815166 C123.487721,20.08515 123.811093,23.4151664 128.0983,23.4151664 C129.492842,23.4151664 131.098334,22.6633497 131.421706,21.2672995 L136.886189,21.2672995 L136.886189,21.2660338 L136.886189,21.2660338 Z M131.742552,15.2515003 C131.421706,12.1366503 129.278103,11.1696672 127.560188,11.1696672 C125.095739,11.1696672 123.80983,12.7796181 123.486458,15.2515003 L131.742552,15.2515003 L131.742552,15.2515003 Z M158.005166,26.9590835 L152.64679,26.9590835 L152.64679,15.1451828 C152.64679,13.7491326 152.64679,11.2785161 149.214751,11.2785161 C146.856408,11.2785161 145.034914,12.8897327 145.034914,15.7894163 L145.034914,26.9590835 L139.782643,26.9590835 L139.782643,7.51816694 L144.820174,7.51816694 L144.820174,10.311533 L144.926281,10.311533 C145.570499,9.13064921 147.178517,6.98151664 150.928875,6.98151664 C154.8965,6.98151664 158.005166,9.23696672 158.005166,13.5339662 L158.005166,26.9590835 L158.005166,26.9590835 Z M167.974122,7.51816694 L171.297528,7.51816694 L171.297528,11.1709329 L167.974122,11.1709329 L167.974122,21.8039498 C167.974122,22.8772504 167.974122,23.3075832 170.117725,23.3075832 C170.438571,23.3075832 170.86805,23.3075832 171.297528,23.2 L171.297528,27.1742499 L168.080229,27.1742499 C163.472176,27.1742499 162.613219,25.5630333 162.613219,22.9848336 L162.613219,11.1709329 L159.934031,11.1709329 L159.934031,7.51816694 L162.613219,7.51816694 L162.613219,2.25545008 L167.974122,2.25545008 L167.974122,7.51816694 Z M173.868084,26.9590835 L173.868084,7.51816694 L179.120354,7.51816694 L179.120354,26.9590835 L173.868084,26.9590835 Z M173.868084,5.15513366 L173.868084,0.429067103 L179.120354,0.429067103 L179.120354,5.15513366 L173.868084,5.15513366 Z M189.413945,26.9590835 L184.053042,26.9590835 L184.053042,11.1709329 L181.159114,11.1709329 L181.159114,7.51816694 L184.053042,7.51816694 L184.053042,5.90695035 C184.053042,1.82511729 186.411384,0.321483906 190.055636,0.321483906 C191.557548,0.321483906 192.307873,0.321483906 192.734825,0.429067103 L192.734825,4.51090016 L191.234176,4.51090016 C189.413945,4.51090016 189.413945,5.15513366 189.413945,6.76635025 L189.413945,7.51816694 L192.843458,7.51816694 L192.843458,11.1709329 L189.413945,11.1709329 L189.413945,26.9590835 L189.413945,26.9590835 Z M195.093167,26.9590835 L195.093167,7.51816694 L200.454071,7.51816694 L200.454071,26.9590835 L195.093167,26.9590835 Z M195.093167,5.15513366 L195.093167,0.429067103 L200.454071,0.429067103 L200.454071,5.15513366 L195.093167,5.15513366 Z M221.893894,19.8699836 C221.785261,21.9102673 220.071136,27.4957338 212.673999,27.4957338 C205.172019,27.4957338 203.347998,21.9102673 203.347998,17.8296999 C203.347998,11.4924168 206.241926,6.98151664 213.103478,6.98151664 C216.212145,6.98151664 221.464415,8.37883252 222,14.4996836 L216.641623,14.4996836 C216.318251,13.2112166 215.567927,11.1709329 213.103478,11.2772504 C209.671439,11.2772504 208.815008,14.4996836 208.815008,16.9703001 C208.815008,19.1181669 208.921114,23.3075832 212.994845,23.3075832 C215.67656,23.3075832 216.53299,20.8369667 216.53299,19.8712493 L221.893894,19.8712493 L221.893894,19.8699836 Z M88.1138448,57.2481833 L82.1112502,57.2481833 L91.8654665,30.9333333 L98.4049093,30.9333333 L108.053019,57.2481833 L101.835685,57.2481833 L100.120297,51.7703001 L90.0439721,51.7703001 L88.1138448,57.2481833 Z M91.5446207,47.2593999 L98.5122789,47.2593999 L95.0815031,36.8428151 L94.9753966,36.8428151 L91.5446207,47.2593999 L91.5446207,47.2593999 Z M115.34026,37.6996836 L118.55756,37.6996836 L118.55756,41.3511839 L115.34026,41.3511839 L115.34026,51.9854664 C115.34026,53.058767 115.34026,53.4890998 117.483863,53.4890998 L118.55756,53.4890998 L118.55756,57.3557665 C117.807235,57.3557665 116.949541,57.4646154 116.090584,57.4646154 L115.448893,57.4646154 C110.838314,57.4646154 109.98062,55.7445499 109.98062,53.1676159 L109.98062,41.3511839 L107.192799,41.3511839 L107.192799,37.6996836 L109.98062,37.6996836 L109.98062,32.4369667 L115.34026,32.4369667 L115.34026,37.6996836 L115.34026,37.6996836 Z M121.130642,57.2481833 L121.130642,30.9333333 L126.490282,30.9333333 L126.490282,57.2481833 L121.130642,57.2481833 Z M146.965041,53.3827823 C146.965041,55.7432842 147.500626,56.173617 148.144844,56.3887834 L148.144844,57.249449 L142.463095,57.249449 C142.142249,56.2824659 142.033616,55.9584506 141.92751,54.8864157 C140.747707,56.0685652 139.033582,57.6797818 135.386804,57.6797818 C132.38677,57.6797818 129.278103,56.0685652 129.278103,51.9867321 C129.278103,48.226383 131.742552,46.2936825 135.172065,45.7570322 L139.88875,45.111533 C140.747707,45.0052155 141.817614,44.6812002 141.817614,43.6078996 C141.817614,41.4600327 139.674011,41.2448663 138.279468,41.2448663 C135.60028,41.2448663 135.170801,42.8560829 135.064695,44.0382324 L129.918531,44.0382324 C130.456642,38.0211675 134.849956,37.1630333 138.923686,37.1630333 C141.817614,37.1630333 146.963778,38.0211675 146.963778,42.8560829 L146.963778,53.3827823 L146.965041,53.3827823 L146.965041,53.3827823 Z M141.817614,47.6897327 C141.282029,48.1200655 140.423072,48.4415494 138.173362,48.7630333 C136.244498,49.0870486 134.52911,49.6236989 134.52911,51.6627169 C134.52911,53.4890998 136.029759,54.0257501 136.993559,54.0257501 C139.351902,54.0257501 141.816351,52.6284343 141.816351,50.1590835 L141.816351,47.6897327 L141.817614,47.6897327 L141.817614,47.6897327 Z M169.045292,57.2481833 L163.686915,57.2481833 L163.686915,45.3254337 C163.686915,43.9281178 163.686915,41.5650846 160.254876,41.5650846 C157.896534,41.5650846 156.075039,43.0687179 156.075039,45.9696672 L156.075039,57.2469176 L150.822769,57.2469176 L150.822769,37.6984179 L155.8603,37.6984179 L155.8603,40.5981015 L155.968933,40.5981015 C156.610624,39.415952 158.218643,37.1617676 161.971527,37.1617676 C165.936625,37.1617676 169.045292,39.415952 169.045292,43.7129514 L169.045292,57.2481833 L169.045292,57.2481833 Z M179.015511,37.6996836 L182.338917,37.6996836 L182.338917,41.3511839 L179.015511,41.3511839 L179.015511,51.9854664 C179.015511,53.058767 179.015511,53.4890998 181.159114,53.4890998 L182.338917,53.4890998 L182.338917,57.3557665 C181.47996,57.3557665 180.624792,57.4646154 179.765835,57.4646154 L179.121617,57.4646154 C174.513565,57.4646154 173.657134,55.7445499 173.657134,53.1676159 L173.657134,41.3511839 L170.975419,41.3511839 L170.975419,37.6996836 L173.657134,37.6996836 L173.657134,32.4369667 L179.015511,32.4369667 L179.015511,37.6996836 L179.015511,37.6996836 Z M201.095762,53.3827823 C201.095762,55.7432842 201.633874,56.173617 202.278091,56.3887834 L202.278091,57.249449 L196.48771,57.249449 C196.166864,56.2824659 196.166864,55.9584506 196.058231,54.8864157 C194.772322,56.0685652 193.058197,57.6797818 189.520051,57.6797818 C186.411384,57.6797818 183.302718,56.0685652 183.302718,51.9867321 C183.302718,48.226383 185.875799,46.2936825 189.199206,45.7570322 L194.021997,45.111533 C194.880955,45.0052155 195.842229,44.6812002 195.842229,43.6078996 C195.842229,41.4600327 193.701152,41.2448663 192.412716,41.2448663 C189.733528,41.2448663 189.304049,42.8560829 189.08931,44.0382324 L183.945672,44.0382324 C184.587364,38.0211675 188.87457,37.1630333 193.056934,37.1630333 C195.842229,37.1630333 201.094499,38.0211675 201.094499,42.8560829 L201.094499,53.3827823 L201.095762,53.3827823 L201.095762,53.3827823 Z M195.843492,47.6897327 C195.307907,48.1200655 194.451476,48.4415494 192.307873,48.7630333 C190.270376,49.0870486 188.661094,49.6236989 188.661094,51.6627169 C188.661094,53.4890998 190.055636,54.0257501 191.12807,54.0257501 C193.486412,54.0257501 195.842229,52.6284343 195.842229,50.1590835 L195.842229,47.6897327 L195.843492,47.6897327 Z M59.0646721,55.7432842 C59.0646721,54.4548172 60.0297358,53.5979487 61.3156451,53.5979487 C62.495448,53.5979487 63.5666181,54.4560829 63.5666181,55.7432842 C63.5666181,57.0342826 62.4941849,58 61.3156451,58 C60.0284726,58 59.0646721,57.0330169 59.0646721,55.7432842 L59.0646721,55.7432842 Z M61.314382,57.6785161 C62.2794456,57.6785161 63.1371395,56.8178505 63.1371395,55.7432842 C63.1408854,55.2579879 62.9499666,54.7915146 62.6072438,54.4485861 C62.264521,54.1056576 61.7987093,53.9150062 61.314382,53.9194326 C60.2419487,53.9194326 59.4928875,54.6712493 59.4928875,55.7432842 C59.4928875,56.8178505 60.2432119,57.6785161 61.314382,57.6785161 L61.314382,57.6785161 Z M60.7800601,57.0330169 L60.4579512,57.0330169 L60.4579512,54.4548172 L61.4230148,54.4548172 C62.0672326,54.4548172 62.2807087,54.6699836 62.2807087,55.2066339 C62.2807087,55.6369667 62.0672326,55.8521331 61.6377541,55.9584506 L62.3880784,57.0342826 L61.9585998,57.0342826 L61.3156451,55.9584506 L60.7800601,55.9584506 L60.7800601,57.0330169 L60.7800601,57.0330169 Z M61.314382,55.6369667 C61.6364909,55.6369667 61.9573366,55.6369667 61.9573366,55.2066339 C61.9573366,54.88515 61.6364909,54.7763011 61.314382,54.7763011 L60.7787969,54.7763011 L60.7787969,55.6369667 L61.314382,55.6369667 Z" id="Shape"></path>
            </g>
            <g filter="url(#filter-1)" id="iconfinder_intel_294676">
                <g>
                    <path d="M64.4407849,48.7566783 C63.6198227,49.0600224 62.8140928,49.2584922 62.0016369,49.57826 C60.7862172,50.0563287 58.3355956,50.7130796 56.9807112,51.0037596 C55.2363149,51.3779434 53.57718,51.8524504 51.7493027,52.2185212 C49.8642548,52.595871 48.184942,52.7990898 46.227689,53.1428006 C44.4174179,53.4609854 42.274212,53.5710046 40.3426759,53.7039773 C38.3254828,53.8428864 36.2319302,53.9317327 34.0489621,53.9317327 L33.593971,53.9317327 C25.8229209,53.9317327 18.4091376,52.709254 13.2204587,50.1135149 C8.22960203,47.6165161 3.56416288,42.9885891 3.56416288,35.5749621 L3.56416288,34.8922894 C3.56416288,31.4047226 4.63517236,28.725282 5.64208744,26.1995911 C6.08402227,25.0908911 6.91744727,23.6778577 7.55285223,22.725282 C7.94988142,22.1300706 8.27233163,21.6969197 8.68914304,21.1311919 C9.06184009,20.6256184 9.6424483,20.0808654 9.93403825,19.6455379 L9.93403825,17.2181914 C8.72494886,18.0280984 7.45413894,19.621397 6.42843075,20.6903239 C5.26464265,21.9031067 4.40174214,23.2557879 3.44270003,24.6822769 C2.01897354,26.7993536 0,31.7260735 0,35.1954357 L0,37.62298 C0,41.9054152 1.69810591,45.7123541 3.4272699,48.303542 C5.38452291,51.2372535 7.99221537,52.972825 10.9805178,54.8571994 C13.3381629,56.3440406 18.0991502,57.9933382 21.315146,58.6287184 C25.279701,59.4117143 29.2808532,60 34.0491599,60 L36.3998813,60 C51.0543533,60 65.9434424,55.7438823 75.529907,50.6701405 L75.529907,43.7674296 C72.9360621,45.1402942 69.7424203,46.9530374 66.7479854,47.8781083 C66.1111957,48.0751929 65.1076435,48.5099268 64.4407849,48.7566783 Z M90.5903102,17.0972891 C90.4474825,16.3038058 90.1600469,15.2908779 89.8856675,14.6159224 C89.2006091,12.9308093 88.6316724,11.7916364 87.6075468,10.4470681 C85.7135969,7.95936943 83.4574345,6.1616648 80.6362919,4.60081789 C75.4573063,1.73576941 67.5744866,0 59.5288592,0 L58.8463726,0 C50.5445654,0 43.6785519,1.38097751 37.1889941,3.21647649 C35.4750624,3.701273 34.0810093,4.20170173 32.484584,4.73082251 C31.1629338,5.16872238 29.2280347,5.90205132 28.0318037,6.49686696 C26.6138141,7.20189961 25.1995831,7.80759844 23.8114646,8.49541587 C23.0761594,8.86010158 20.2526429,10.5879559 19.7925084,10.6954027 L19.7925084,12.5156652 C20.4182201,12.3700284 22.7228489,11.0964976 23.6086968,10.7195436 C24.8377662,10.1967548 26.3805817,9.42068465 27.6183553,9.04155399 C28.1795769,8.86959963 29.1071653,8.5183695 29.6640348,8.28111602 C30.3399933,7.9928105 31.0464165,7.81650287 31.764709,7.5758855 C33.1338365,7.11681288 34.664387,6.59877317 36.1124456,6.23586835 C39.2319042,5.45346613 41.9806439,4.81828375 45.3930771,4.21654244 C48.300668,3.70404327 52.3900489,3.18600356 55.6620284,3.18600356 L59.0744616,3.18600356 C65.7183207,3.18600356 72.9111365,4.71202427 77.1724249,7.08060154 C79.7579613,8.51797375 81.4954338,9.72719478 83.2786032,11.9715058 C84.6226074,13.662951 86.2983594,17.036739 86.2983594,20.0256579 L86.2983594,21.3152167 C86.2983594,24.4656025 84.6621718,27.8534397 83.2964072,29.6905217 C82.4681256,30.8043665 81.6475591,31.7969131 80.6309507,32.7132775 C80.1367908,33.1588945 77.8289968,34.9912275 77.2739077,35.1204406 L77.2739077,40.1267067 C78.3429389,40.0380582 81.5595282,37.9662951 82.3862272,37.3518897 C83.9092605,36.2186531 85.2738381,34.9152431 86.4362415,33.4382956 C87.7582873,31.7591188 88.4712386,30.5283293 89.4326546,28.4708133 C89.8680613,27.5396082 90.1196911,26.5828771 90.4368001,25.5307697 C90.5653846,25.1037531 90.991098,22.087923 91,22.0738738 L91,19.8740848 C90.9738875,19.8331245 90.6468873,17.4125058 90.5903102,17.0972891 Z M66.6569871,32.3893543 L66.6569871,30.3411384 C66.6569871,27.9286327 65.7944823,25.6051712 64.7404855,24.2178616 C63.7399007,22.900996 61.7102448,21.3906075 59.4528955,21.3906075 L58.0121563,21.3906075 C55.6270138,21.3906075 53.4687734,22.888134 52.3043919,24.1769013 C51.1154803,25.4927775 50.125578,27.9986808 50.125578,30.4929094 L50.125578,31.4033375 C50.125578,36.6183629 53.3243632,40.429655 58.5429133,40.429655 L59.5286614,40.429655 C61.1082718,40.429655 62.2364519,40.0469626 63.366808,39.5665194 C64.5978557,39.043137 65.2237652,38.1521008 66.1454189,37.5270101 L63.1683924,34.7407163 C62.5820473,35.6167139 60.9575313,36.4853901 59.4526977,36.4853901 L58.6184814,36.4853901 C56.6446113,36.4853901 54.8270208,34.8068069 54.8270208,32.9202559 L54.8270208,32.3891564 L66.6569871,32.3891564 L66.6569871,32.3893543 Z M54.8272186,28.672449 C54.8272186,26.9627993 56.4936729,25.2590858 58.239454,25.2590858 L58.6186792,25.2590858 C60.6014513,25.2590858 61.9555443,26.9410329 61.9555443,28.82422 L61.9555443,29.2035486 L54.8272186,29.2035486 L54.8272186,28.672449 Z M37.3096657,40.1263109 L37.3096657,27.1553328 C37.3096657,24.0775674 35.2157175,21.6937537 32.153034,21.6937537 L22.143032,21.6937537 L22.143032,40.1261131 L26.7689067,40.1261131 L26.7689067,25.4864455 L30.9395925,25.4864455 C31.8586745,25.4864455 32.6080251,26.1982059 32.6080251,27.0795462 L32.6080251,40.1263109 L37.3096657,40.1263109 L37.3096657,40.1263109 Z M40.7220989,16.6117011 L40.7220989,34.6647319 C40.7220989,37.7798958 42.7470071,40.1263109 45.8029647,40.1263109 L48.9881002,40.1263109 L48.9881002,36.1818482 L46.637181,36.1818482 C45.9408468,36.1818482 45.4239374,35.3758987 45.4239374,34.6647319 L45.4239374,25.4864455 L48.9881002,25.4864455 L48.9881002,21.6937537 L45.4239374,21.6937537 L45.4239374,16.6117011 L40.7220989,16.6117011 L40.7220989,16.6117011 Z M74.0887722,39.9747378 L74.0887722,14.0329794 L69.3871316,14.0329794 L69.3871316,35.6511444 C69.3871316,36.9102302 70.1495384,38.0521733 70.8076929,38.7055603 C71.1612012,39.0561968 71.7194555,39.3456896 72.2371562,39.5514808 C72.9613834,39.8397863 73.3358608,39.7992217 74.0887722,39.9747378 Z M17.9723462,40.3538685 L17.9723462,21.6937537 L13.2881139,21.6943473 L13.1763444,26.0171493 L13.1947418,35.1958314 C13.1947418,38.3052569 15.0170801,40.2879757 17.9723462,40.3538685 Z M17.9723462,14.6394697 L13.2707056,14.6394697 L13.2707056,19.115032 L17.9723462,19.115032 L17.9723462,14.6394697 Z M78.6624218,16.0760504 L78.8541115,16.0760504 C78.9690463,16.0760504 79.0566815,16.099004 79.1164238,16.1459007 C79.2030699,16.2090232 79.3166199,16.3665326 79.457865,16.6170437 L79.6376853,16.9364158 L80.0372862,16.9364158 L79.7902063,16.5400699 C79.6717108,16.3520876 79.5720084,16.2183233 79.4905056,16.1381835 C79.447776,16.0966295 79.3896163,16.0606161 79.3184003,16.0309346 C79.4928795,16.0172812 79.6335311,15.9559396 79.7391681,15.8461183 C79.8448052,15.7360992 79.8974259,15.6074797 79.8974259,15.4592705 C79.8974259,15.354594 79.8659722,15.2558538 79.8026691,15.1620606 C79.7391681,15.0690588 79.6546981,15.0035618 79.5482697,14.9661632 C79.4418414,14.9287646 79.269736,14.9107579 79.0315581,14.9107579 L78.3356195,14.9107579 L78.3356195,16.9364158 L78.6624218,16.9364158 L78.6624218,16.0760504 Z M78.6624218,15.1850142 L79.0339319,15.1850142 C79.1939701,15.1850142 79.3029702,15.1960952 79.3625146,15.2200383 C79.4214657,15.2429919 79.4673604,15.2788075 79.5003967,15.3255062 C79.5336309,15.3731944 79.5508414,15.4268188 79.5508414,15.4863795 C79.5508414,15.5801728 79.5158269,15.6551679 79.4467869,15.7113647 C79.377747,15.7675615 79.248569,15.7966493 79.059451,15.7966493 L78.6624218,15.7966493 L78.6624218,15.1850142 L78.6624218,15.1850142 Z M78.2248391,17.5292527 C78.5229572,17.6952708 78.8353184,17.777983 79.1615273,17.777983 C79.4875383,17.777983 79.7993061,17.6952708 80.0982155,17.5292527 C80.3963335,17.3640261 80.6289725,17.1313238 80.7939562,16.8315415 C80.959929,16.5325506 81.0428166,16.2208957 81.0428166,15.896181 C81.0428166,15.5684981 80.9583465,15.2530836 80.790791,14.9517182 C80.62284,14.6493635 80.388025,14.4176506 80.0871374,14.2549964 C79.7858542,14.0933316 79.4774494,14.0122024 79.1615273,14.0122024 C78.8454074,14.0122024 78.5364091,14.0931337 78.2359171,14.2549964 C77.9344361,14.4176506 77.6992254,14.6493635 77.5306809,14.9517182 C77.3619386,15.2530836 77.2778641,15.5684981 77.2778641,15.896181 C77.2778641,16.2208957 77.3605538,16.5325506 77.5273179,16.8315415 C77.6934886,17.1313238 77.9257319,17.3640261 78.2248391,17.5292527 Z M77.5896319,15.896181 C77.5896319,15.6229141 77.6600567,15.3605303 77.8014995,15.1084361 C77.9429424,14.8571334 78.1385886,14.663017 78.3892293,14.5274718 C78.6394744,14.3919267 78.8964455,14.3238573 79.1615273,14.3238573 C79.4238395,14.3238573 79.6810084,14.3921245 79.9322426,14.5274718 C80.1834768,14.6628191 80.3793208,14.8571334 80.5199724,15.1084361 C80.6604262,15.3605303 80.7302575,15.6231119 80.7302575,15.896181 C80.7302575,16.1670734 80.6612175,16.4270826 80.5233354,16.6756151 C80.3854533,16.9241475 80.1919832,17.1184618 79.9425294,17.2573709 C79.6930756,17.3960821 79.4325437,17.4661302 79.1617251,17.4661302 C78.8901152,17.4661302 78.6303746,17.3960821 78.3809208,17.2573709 C78.1312692,17.1184618 77.9374034,16.9241475 77.7983344,16.6756151 C77.6592654,16.4268848 77.5896319,16.1670734 77.5896319,15.896181 Z" id="Shape" fill="#0072BB"></path>
                </g>
            </g>
            <g id="cisco" transform="translate(179.000000, 2.000000)" fill="#000000" fill-opacity="0.85">
                <g id="形状_5">
                    <path d="M2.38269565,15.5990535 C1.76645652,15.5990535 1.17413043,15.8374931 0.730065217,16.2642497 C0.28576087,16.6910064 0.0241521739,17.2733812 0,17.8886937 L0,23.1830539 C0.0449565217,23.784523 0.315173913,24.3461328 0.757086957,24.7564207 C1.19923913,25.1664699 1.7796087,25.3944076 2.38269565,25.3944076 C2.98554348,25.3944076 3.56615217,25.1664699 4.00782609,24.7564207 C4.44997826,24.3461328 4.72043478,23.784523 4.76491304,23.1830539 L4.76491304,17.8886937 C4.74076087,17.2733812 4.4793913,16.6910064 4.03484783,16.2642497 C3.59102174,15.8377318 2.99893478,15.5990535 2.38269565,15.5990535 Z M15.5731304,9.02466206 C14.9568913,9.02466206 14.3645652,9.2631016 13.9202609,9.68985825 C13.4764348,10.1168536 13.214587,10.6992284 13.1901957,11.3145409 L13.1901957,23.1832926 C13.2351522,23.7847617 13.5056087,24.3463715 13.9472826,24.7566594 C14.3894348,25.1667085 14.9698043,25.3946462 15.5728913,25.3946462 C16.1757391,25.3946462 16.7563478,25.1667085 17.1980217,24.7566594 C17.6401739,24.3463715 17.9106304,23.7847617 17.9553478,23.1832926 L17.9553478,11.3145409 C17.9309565,10.6992284 17.669587,10.1168536 17.2252826,9.68985825 C16.7812174,9.2631016 16.1891304,9.02466206 15.5731304,9.02466206 Z M28.6927826,0 C28.0765435,0 27.4842174,0.238678217 27.0403913,0.665434869 C26.596087,1.0924302 26.3342391,1.67456637 26.3103261,2.29035617 L26.3103261,27.9633012 C26.3550435,28.5645316 26.6255,29.1263802 27.067413,29.5361907 C27.5093261,29.9464785 28.0896957,30.1741775 28.6927826,30.1741775 C29.2956304,30.1741775 29.8762391,29.9464785 30.3181522,29.5361907 C30.7600652,29.1263802 31.0305217,28.5645316 31.0754783,27.9633012 L31.0754783,2.29035617 C31.0513261,1.67456637 30.7894783,1.0924302 30.345413,0.665434869 C29.9011087,0.238678217 29.3087826,0 28.6927826,0 Z M41.8810652,9.02466206 C41.2650652,9.02466206 40.6727391,9.2631016 40.2286739,9.68985825 C39.7843696,10.1168536 39.5227609,10.6992284 39.4986087,11.3145409 L39.4986087,23.1832926 C39.5435652,23.7847617 39.8137826,24.3463715 40.2559348,24.7566594 C40.6978478,25.1667085 41.2784565,25.3946462 41.8810652,25.3946462 C42.4841522,25.3946462 43.0647609,25.1667085 43.5066739,24.7566594 C43.948587,24.3463715 44.2190435,23.7847617 44.2637609,23.1832926 L44.2637609,11.3145409 C44.2393696,10.6992284 43.9777609,10.1168536 43.5336957,9.68985825 C43.0891522,9.2631016 42.4973043,9.02466206 41.8810652,9.02466206 Z M55.011,15.5990535 C54.3947609,15.5990535 53.8026739,15.8374931 53.3583696,16.2642497 C52.9143043,16.6910064 52.6524565,17.2733812 52.6283043,17.8886937 L52.6283043,23.1830539 C52.6732609,23.784523 52.9439565,24.3461328 53.3856304,24.7564207 C53.8277826,25.1664699 54.4081522,25.3944076 55.011,25.3944076 C55.614087,25.3944076 56.1946957,25.1664699 56.6363696,24.7564207 C57.0785217,24.3461328 57.3487391,23.784523 57.3934565,23.1830539 L57.3934565,17.8886937 C57.3690652,17.2733812 57.1076957,16.6910064 56.6633913,16.2642497 C56.219087,15.8374931 55.6274783,15.5990535 55.011,15.5990535 Z M68.1892391,9.02466206 C67.573,9.02466206 66.9806739,9.2631016 66.5366087,9.68985825 C66.0925435,10.1168536 65.8309348,10.6992284 65.8065435,11.3145409 L65.8065435,23.1832926 C65.8515,23.7847617 66.1217174,24.3463715 66.5636304,24.7566594 C67.0055435,25.1667085 67.5863913,25.3946462 68.1892391,25.3946462 C68.792087,25.3946462 69.3726957,25.1667085 69.8146087,24.7566594 C70.2567609,24.3463715 70.5269783,23.7847617 70.5719348,23.1832926 L70.5719348,11.3145409 C70.5475435,10.6992284 70.2861739,10.1168536 69.8418696,9.68985825 C69.3978043,9.2631016 68.8054783,9.02466206 68.1892391,9.02466206 Z M81.3136739,0 C80.6974348,0 80.1051087,0.238678217 79.6608043,0.665434869 C79.2169783,1.0924302 78.9553696,1.67456637 78.9312174,2.29035617 L78.9312174,27.9633012 C78.9759348,28.5645316 79.2461522,29.1263802 79.6883043,29.5361907 C80.1302174,29.9464785 80.710587,30.1741775 81.3136739,30.1741775 C81.9165217,30.1741775 82.4971304,29.9464785 82.9392826,29.5361907 C83.3811957,29.1263802 83.6516522,28.5645316 83.6963696,27.9633012 L83.6963696,2.29035617 C83.6719783,1.67456637 83.4103696,1.0924302 82.9663043,0.665434869 C82.5222391,0.238678217 81.929913,0 81.3136739,0 Z M94.4813913,9.02466206 C93.8651522,9.02466206 93.2728261,9.2631016 92.829,9.68985825 C92.3849348,10.1168536 92.123087,10.6992284 92.0989348,11.3145409 L92.0989348,23.1832926 C92.1436522,23.7847617 92.4138696,24.3463715 92.8560217,24.7566594 C93.2979348,25.1667085 93.8783043,25.3946462 94.4813913,25.3946462 C95.0844783,25.3946462 95.6648478,25.1667085 96.107,24.7566594 C96.548913,24.3463715 96.8193696,23.7847617 96.864087,23.1832926 L96.864087,11.3145409 C96.8396957,10.6992284 96.5783261,10.1168536 96.1337826,9.68985825 C95.6894783,9.2631016 95.0973913,9.02466206 94.4813913,9.02466206 Z M109.269935,16.2644884 C108.82587,15.8377318 108.233543,15.5992922 107.617065,15.5992922 C107.001065,15.5992922 106.408739,15.8377318 105.964913,16.2644884 C105.520609,16.6912451 105.259,17.2736199 105.234848,17.8889324 L105.234848,23.1832926 C105.279565,23.7847617 105.549783,24.3463715 105.991935,24.7566594 C106.433848,25.1667085 107.014217,25.3946462 107.617065,25.3946462 C108.219913,25.3946462 108.800761,25.1667085 109.242913,24.7566594 C109.684826,24.3463715 109.955283,23.7847617 110,23.1832926 L110,17.8889324 C109.975609,17.2733812 109.714,16.6912451 109.269935,16.2644884 Z" id="Shape"></path>
                </g>
                <g id="形状_5_1_" transform="translate(9.874130, 38.176518)">
                    <path d="M43.8993702,9.42451038 C43.3180441,8.90085037 42.6348484,8.50321246 41.8923484,8.25594183 L38.5837397,7.02841976 C38.188218,6.86062897 37.8665876,6.55488218 37.6798267,6.16798479 C37.5341963,5.84600787 37.5478267,5.47462457 37.7168919,5.16434289 C37.7759571,5.05550562 37.8503267,4.95526077 37.9373702,4.86718851 C38.0387615,4.76455687 38.1523484,4.67481386 38.2757397,4.59939155 C38.3247615,4.56931809 38.3749789,4.54091538 38.4259136,4.51489946 C38.7958484,4.33183327 39.1951963,4.21583565 39.6055441,4.17168018 C40.3059571,4.0707193 41.0178484,4.07787964 41.7161093,4.19411594 C42.5408702,4.28338159 43.3586963,4.42945266 44.1628919,4.63185179 L44.3338702,4.66980162 L44.3338702,0.623012454 L44.0175006,0.55522784 C43.1975223,0.359034346 42.3665441,0.211053852 41.5288702,0.11224107 C40.4429789,-0.0323979297 39.3434571,-0.0374101723 38.2563702,0.0981590549 C36.8794571,0.224181153 35.5695006,0.7507053 34.4888702,1.61281102 C33.7561745,2.18778684 33.1987615,2.95609202 32.8795223,3.83060901 C32.3991093,5.16291082 32.3974354,6.62051869 32.8756963,7.95377521 C33.1229571,8.61610726 33.5184789,9.21328016 34.0328484,9.69922901 C34.4785876,10.1288498 34.9829136,10.4940275 35.5302832,10.7840215 C36.2512615,11.1711576 37.0155223,11.4714148 37.8072832,11.6776327 C38.0686528,11.7559192 38.3283484,11.8385019 38.5870876,11.9253807 L38.9790223,12.0693037 C39.0165658,12.0843404 39.0538702,12.0993772 39.0911745,12.1148912 C39.4776093,12.2530859 39.830805,12.4707605 40.1275658,12.7543102 C40.3336963,12.9471622 40.4924789,13.1851244 40.5914789,13.4491025 C40.6526963,13.6908835 40.6536528,13.9436437 40.5943484,14.1859021 C40.4704789,14.576141 40.1983484,14.9021755 39.8370223,15.0938341 C39.4429354,15.29862 39.0156093,15.4325185 38.5748919,15.4881305 C37.9282832,15.5907621 37.2721093,15.6239384 36.6183267,15.5867046 C35.7617615,15.5222615 34.9095006,15.4086506 34.0658484,15.2461108 C33.6246528,15.1558904 33.1858484,15.0530201 32.7503919,14.9384545 L32.5868267,14.8974019 L32.5684136,19.2838302 L32.8890876,19.3387262 C33.8960658,19.5268046 34.9126093,19.6573616 35.9341745,19.7303971 C36.8290006,19.8132185 37.7283702,19.830642 38.6258267,19.7829063 C39.4831093,19.72085 40.3308267,19.5609356 41.1517615,19.3065046 C42.115218,19.0339341 43.0088484,18.5575324 43.7719136,17.9097597 C44.4594136,17.3233273 44.9845441,16.5702975 45.2980441,15.7229898 C45.8446963,14.3042865 45.8334571,12.7311584 45.2676745,11.3198541 C44.9699571,10.5875893 44.5007832,9.93742987 43.8993702,9.42451038 Z M9.7281093,0.0329999017 C8.29858756,0.0692789907 6.89082669,0.391255905 5.58756582,0.97959771 C4.2721093,1.58202153 3.11232669,2.47778088 2.19765278,3.59861378 C-0.66186896,7.21530481 -0.738151569,12.3003442 2.0116093,16.00105 C3.36508756,17.7319444 5.265218,18.9530222 7.40184843,19.4661803 C9.654218,20.0134695 12.0141963,19.9306481 14.2225658,19.2272634 L14.596805,19.1243931 L14.596805,14.0312386 L14.4970876,14.0749168 C13.3487832,14.6307983 12.0993267,14.9480017 10.8250006,15.0067165 C9.50069626,15.1105415 8.18476147,14.7226894 7.12852234,13.9176278 C6.37382669,13.3357303 5.81330495,12.5392611 5.51917452,11.6329999 C5.19467452,10.6453495 5.15713104,9.58609553 5.41084843,8.57791875 C5.64639191,7.54706753 6.22389191,6.62624697 7.0496093,5.96534698 C7.78158756,5.35313736 8.67617452,4.96719468 9.62408756,4.8552546 C11.2999136,4.66980162 12.9929571,4.98748233 14.4872832,5.76772142 L14.5970441,5.82404948 L14.5970441,0.702014944 L14.3643702,0.639719929 C12.868131,0.159499357 11.2975223,-0.0460025881 9.7281093,0.0329999017 Z M21.237218,19.4606907 L26.0549789,19.4606907 L26.0549789,0.358079633 L21.237218,0.358079633 L21.237218,19.4606907 Z M60.0710441,0.0329999017 C58.6412832,0.0692789907 57.2335223,0.391255905 55.9305006,0.979359032 C54.6150441,1.58202153 53.4552615,2.47801956 52.5405876,3.59861378 C49.6810658,7.21530481 49.6050223,12.3003442 52.3550223,16.00105 C53.7080223,17.7319444 55.6081528,18.9530222 57.7450223,19.4661803 C59.9973919,20.0134695 62.357131,19.9306481 64.5655006,19.2272634 L64.9395006,19.1243931 L64.9395006,14.0312386 L64.8395441,14.0749168 C63.6912397,14.6307983 62.4420223,14.9480017 61.1674571,15.0067165 C59.8433919,15.1105415 58.5274571,14.7226894 57.4714571,13.9176278 C56.7170006,13.3354916 56.1557615,12.5390224 55.8621093,11.6327612 C55.5376093,10.6451108 55.4998267,9.58585686 55.7535441,8.57768007 C55.9890876,7.54682885 56.5668267,6.62600829 57.3925441,5.9651083 C58.1245223,5.35289868 59.0191093,4.966956 59.9670223,4.85501592 C61.6428484,4.66956294 63.3358919,4.98724365 64.8304571,5.76748274 L64.9397397,5.8238108 L64.9397397,0.701776266 L64.7070658,0.639481251 C63.2110658,0.159499357 61.6404571,-0.0460025881 60.0710441,0.0329999017 Z M85.4568919,1.5242614 C82.3675658,-0.386835082 78.4905441,-0.495672349 75.2988702,1.23951829 C72.1069571,2.97470893 70.0908484,6.28660786 70.0160006,9.91761958 C70.0628702,12.9371377 71.4653702,15.7757377 73.835631,17.6479297 C76.2058919,19.5203603 79.2923484,20.2282799 82.2417832,19.5754949 C86.2469789,18.8215105 89.3681093,15.670242 90.0823919,11.6592545 C90.7966745,7.64826709 88.9556093,3.61388919 85.4568919,1.5242614 Z M85.1395658,10.4835256 C84.9910658,11.807235 84.3226963,13.0180496 83.2812832,13.8496045 C82.2401093,14.6806821 80.9110223,15.0644766 79.586718,14.9160188 C78.2624136,14.7680383 77.0509789,14.0997393 76.2197615,13.0586249 C75.3880658,12.0179879 75.0045006,10.6892663 75.1527615,9.36531818 C75.3010223,8.04137011 75.9693919,6.83055552 77.010805,5.99923929 C78.052218,5.16792306 79.381305,4.78436717 80.7056093,4.93234766 C82.0299136,5.08080551 83.2411093,5.74910452 84.0725658,6.78998022 C84.9040223,7.83085593 85.2878267,9.15957756 85.1395658,10.4835256 Z" id="Shape"></path>
                </g>
            </g>
            <g id="adp" transform="translate(179.000000, 109.000000)" fill="#000000" fill-opacity="0.85" fill-rule="nonzero">
                <path d="M73.592957,0.0391642468 L59.1098631,0.0391642468 L59.1307962,6.75875954 C53.0026289,-0.42097333 44.8334836,0.00478615201 44.8334836,0.00478615201 L23.6648783,0.00478615201 L0,40.9332302 L15.9222451,40.9332302 L20.8127424,32.2831727 L30.1070423,32.2725948 L30.1070423,40.9755417 L44.5142537,40.9996719 C44.5142537,40.9996719 52.8377807,41.163299 59.0784634,34.1819013 L59.0679969,40.9358747 L72.6457339,40.9358747 L72.6562005,32.3201953 L74.0613353,32.3201953 C79.5667427,32.7459547 89.0415906,26.9915906 88.9998626,15.8451544 C88.9709413,6.60273588 81.9792833,0.0391642468 73.592957,0.0391642468 Z M72.6771336,27.377683 L67.3784407,27.3909054 L67.3679741,36.0224516 L64.0160602,36.030385 L64.0160602,27.3697496 L58.0867574,27.3697496 C58.0867574,27.3697496 54.876142,35.6945375 44.1296078,35.9880735 L35.3978853,36.0330295 L35.3978853,27.332727 L17.9187403,27.3300826 L12.8058287,36.0171627 L8.80498846,36.0171627 L26.4725314,5.33603531 L44.056342,5.33603531 C55.1325726,5.39950257 58.8481992,14.8429008 59.3479772,18.3626888 L64.0186769,18.3626888 L64.0239101,5.24612337 L73.0382297,5.24876784 C79.875506,5.58461538 83.863263,11.3707132 83.9810118,15.2818826 C84.1720264,21.4487839 79.8938225,27.0920804 72.6771336,27.377683 L72.6771336,27.377683 Z" id="Shape"></path>
                <path d="M39.0530574,9.26286655 L39.0582842,14.2804608 L43.5663956,14.2804608 C52.4467217,14.2569286 52.4519485,27.5317207 43.3285764,27.5055738 L39.0556708,27.5055738 L39.0556708,32.5312236 L43.3599372,32.5312236 C50.2645345,32.5676178 55.6638145,27.8507131 55.6533761,20.4798959 C55.6481342,15.8963406 51.7437177,9.26025186 44.1622504,9.26025186 L39.0530574,9.26286655 Z M67.7350995,9.29947224 L67.7350995,14.33014 L72.6090866,14.33014 C75.7530042,14.4844068 75.8157258,19.0339712 72.6404473,19.0156683 L67.7612334,19.0156683 L67.7612334,24.0934005 C67.7612334,24.0934005 71.9870979,24.1195474 72.3764942,24.0934005 C76.4847557,24.080327 80.1696467,21.235542 80.1696467,16.4062055 C80.1696467,11.6239336 76.3880599,9.30208694 72.3764942,9.30208694 C73.0742714,9.29947224 67.7350995,9.29947224 67.7350995,9.29947224 Z M30.5464473,9.20011394 L35.6007588,9.18965517 L35.6007588,24.1169327 L20.3228346,24.1169327 L23.2576805,18.9973655 L30.5333803,19.0261271 L30.5464473,9.20011394 Z M80.2010075,36.5079589 C80.6574293,36.9523317 80.9107622,37.5651713 80.9013981,38.2022794 C80.9013981,38.8742553 80.6661923,39.4416435 80.2010075,39.9096734 C79.7600124,40.3718598 79.1460958,40.628733 78.5075256,40.6182549 C77.8685849,40.6306702 77.2539206,40.3734842 76.8140438,39.9096734 C76.3575234,39.4603887 76.1060866,38.8428341 76.11888,38.2022794 C76.11888,37.5381476 76.3540858,36.9733741 76.8192706,36.5079589 C77.2582845,36.0460446 77.8705162,35.7890833 78.5075256,35.7993773 C79.1634885,35.7993773 79.7358227,36.0346996 80.2010075,36.5079589 L80.2010075,36.5079589 Z M80.4754143,36.2360309 C79.9344409,35.6921749 79.2758646,35.4228616 78.5049122,35.4228616 C77.7339599,35.4228616 77.0806104,35.6921749 76.539637,36.2360309 C76.0104452,36.7520475 75.7165536,37.463031 75.7268703,38.2022794 C75.7268703,38.9814577 75.9934369,39.6377454 76.5344102,40.184216 C77.0753836,40.7306867 77.7339599,41 78.5049122,41 C79.2758646,41 79.9344409,40.728072 80.4754143,40.184216 C81.0216144,39.6351307 81.2907944,38.978843 81.2907944,38.2022794 C81.3057951,37.4616197 81.0100825,36.7485235 80.4754143,36.2360309 L80.4754143,36.2360309 Z M78.9204425,38.0741595 C78.7561651,38.127848 78.5834283,38.150891 78.4108299,38.1421415 L77.9247379,38.1421415 L77.9247379,37.033512 L78.3794691,37.033512 C78.9779373,37.033512 79.2314369,37.1459438 79.2314369,37.5956708 C79.2314369,37.8336078 79.1295143,37.993104 78.9204425,38.0741595 L78.9204425,38.0741595 Z M77.3837645,39.7240302 L77.9247379,39.7240302 L77.9247379,38.5160424 L78.3481084,38.5160424 C78.6329687,38.5160424 78.8289736,38.5552628 78.9465765,38.6154007 C79.1399679,38.7304472 79.2314369,38.9683842 79.2314369,39.3213676 L79.2314369,39.564534 L79.2471172,39.6638923 L79.252344,39.6978833 C79.2575708,39.7057274 79.2575708,39.7161861 79.2575708,39.7266449 L79.7671834,39.7266449 L79.7462762,39.6900392 C79.730493,39.6382781 79.7217037,39.5846367 79.7201423,39.530543 C79.7096887,39.4494875 79.7096887,39.3710468 79.7096887,39.3030648 L79.7096887,39.0755866 C79.7014493,38.6804914 79.4061325,38.3505947 79.0145248,38.299023 C79.5554982,38.2231969 79.7593432,37.9721865 79.7593432,37.5486063 C79.7593432,37.1668613 79.599926,36.9106215 79.2837048,36.7772722 C79.0158207,36.6895554 78.7341927,36.6514548 78.4526443,36.6648404 L77.3811511,36.6648404 L77.3811511,39.7240302 L77.3837645,39.7240302 Z" id="Shape"></path>
            </g>
            <g id="AT&amp;T_logo_2016" transform="translate(0.000000, 105.000000)" fill="#000000" fill-opacity="0.85" fill-rule="nonzero">
                <path d="M114.725646,35.0219069 C114.39391,35.0219069 114.165438,34.7962691 114.165438,34.4717399 L114.165438,18.3512262 L108.584313,18.3512262 C108.252453,18.3512262 108.02361,18.1265615 108.02361,17.8016674 L108.02361,15.5780099 C108.02361,15.2523859 108.252577,15.027113 108.584313,15.027113 L123.440288,15.027113 C123.771776,15.027113 124,15.2526292 124,15.5780099 L124,17.8015458 C124,18.1261966 123.771776,18.3512262 123.440288,18.3512262 L117.859535,18.3512262 L117.859535,34.4714967 C117.859535,34.7962691 117.629948,35.0219069 117.299328,35.0219069 L114.725646,35.0219069 M71.9733431,26.9736314 L69.0436274,18.7266 L66.0876308,26.9736314 L71.9733431,26.9736314 Z M78.4712051,34.3705374 C78.5992632,34.696283 78.3949653,35.0219069 78.0381879,35.0219069 L75.388638,35.0219069 C75.0061994,35.0219069 74.7766122,34.8474786 74.6488021,34.4959458 L73.1460723,30.248603 L64.9163892,30.248603 L63.4110561,34.4959458 C63.2846096,34.8476002 63.0544026,35.0219069 62.6729557,35.0219069 L60.1766292,35.0219069 C59.8448931,35.0219069 59.615182,34.6961614 59.7427442,34.3705374 L66.6479623,15.5280168 C66.7757724,15.1769706 67.0049877,15.0279645 67.3864346,15.0279645 L70.8009857,15.0279645 C71.1835484,15.0279645 71.4384248,15.1770922 71.5657391,15.5280168 L78.4712051,34.3705374 M98.264296,32.3221597 C99.89434,32.3221597 100.990581,31.548666 101.882649,30.223424 L97.7554108,25.8741488 C96.1748297,26.7495749 95.1550759,27.6231763 95.1550759,29.373177 C95.1553238,31.0979986 96.5815659,32.3221597 98.264296,32.3221597 M99.4107442,17.676259 C98.0861552,17.676259 97.3217737,18.5018136 97.3217737,19.6012962 C97.3217737,20.450935 97.7794604,21.200831 98.8246275,22.3008001 C100.633556,21.2753949 101.398433,20.6509073 101.398433,19.5515464 C101.398433,18.5260195 100.736201,17.676259 99.4107442,17.676259 M110.699813,34.322004 C111.030681,34.6721987 110.827251,35.0219069 110.418407,35.0219069 L107.182369,35.0219069 C106.749351,35.0219069 106.520012,34.9214343 106.239846,34.5961752 L104.303356,32.4976828 C103.004056,34.1973254 101.193392,35.4716013 98.1873124,35.4716013 C94.4673062,35.4716013 91.5361029,33.2723929 91.5361029,29.4991935 C91.5361029,26.5991091 93.116808,25.0492024 95.5123492,23.7498692 C94.3392481,22.4253571 93.8051976,21.0256728 93.8051976,19.8016334 C93.8051976,16.7016983 96.0218542,14.577662 99.3592978,14.577662 C102.773849,14.577662 104.863687,16.5528138 104.863687,19.4763743 C104.863687,21.9756627 103.029469,23.374009 101.092235,24.4244715 L103.946578,27.4495994 L105.551581,24.6993726 C105.755259,24.374965 105.984722,24.2495566 106.39183,24.2495566 L108.862991,24.2495566 C109.271339,24.2495566 109.500678,24.5251875 109.24667,24.9498245 L106.392202,29.7476992 L110.699813,34.322004 M85.2703074,35.0219069 C85.6015476,35.0219069 85.8320025,34.7962691 85.8320025,34.4717399 L85.8320025,18.3512262 L91.4115159,18.3512262 C91.7427562,18.3512262 91.9718475,18.1265615 91.9718475,17.8016674 L91.9718475,15.5780099 C91.9718475,15.2523859 91.7427562,15.027113 91.4115159,15.027113 L76.5555408,15.027113 C76.2238047,15.027113 75.9949613,15.2526292 75.9949613,15.5780099 L75.9949613,17.8015458 C75.9949613,18.1261966 76.2239287,18.3512262 76.5555408,18.3512262 L82.1350542,18.3512262 L82.1350542,34.4714967 C82.1350542,34.7962691 82.3651372,35.0219069 82.6960056,35.0219069 L85.2703074,35.0219069 L85.2703074,35.0219069 Z" id="path5"></path>
                <path d="M9.85873544,44.7456192 C14.1801063,48.0278891 19.6041649,50 25.4890094,50 C31.9289788,50 37.799939,47.653975 42.2806076,43.8029276 C42.3349053,43.7558538 42.3081283,43.7247146 42.2545745,43.7558538 C40.2439514,45.0734326 34.5134459,47.9495544 25.4892573,47.9495544 C17.6468476,47.9495544 12.6907649,46.2326393 9.89195863,44.6997618 C9.83840482,44.673853 9.81857008,44.7132636 9.85873544,44.7456192 M27.2192189,46.0235442 C33.4917087,46.0235442 40.3844061,44.3457963 44.5068097,41.0247241 C45.6349107,40.1198617 46.709458,38.9155275 47.671815,37.2970172 C48.2258242,36.3657595 48.7676846,35.2593436 49.2090076,34.1717815 C49.2285944,34.1187475 49.1952473,34.0929603 49.154586,34.1525628 C45.3210259,39.6880481 34.2198917,43.1407323 22.7573933,43.1407323 C14.6552724,43.1407323 5.93753055,40.5985058 2.52446702,35.7443128 C2.49087192,35.6994285 2.45727682,35.7186473 2.4777314,35.7702216 C5.65724083,42.4011755 15.3031247,46.0235442 27.2192189,46.0235442 M20.365943,35.0231233 C7.3203841,35.0231233 1.16913418,29.0614197 0.0533058739,24.9930058 C0.0395455204,24.9341332 0,24.9470268 0,24.9999392 C0,26.3695789 0.139710977,28.1370953 0.380083278,29.3102903 C0.49475289,29.881379 0.968431366,30.7776051 1.66289533,31.4919829 C4.82182622,34.7228 12.6974592,39.2499094 26.3368207,39.2499094 C44.9198682,39.2499094 49.1688423,33.1760559 50.0364883,31.1786443 C50.6569439,29.750132 50.9783907,27.1686165 50.9783907,25.0000608 C50.9783907,24.4753161 50.9650023,24.0561528 50.9447956,23.6446527 C50.9447956,23.5778736 50.9053741,23.5723999 50.8917377,23.6374761 C49.9630998,28.5249977 34.0860072,35.0231233 20.365943,35.0231233 M2.45727682,14.2749059 C1.70975491,15.7305435 0.881158493,18.1862856 0.634835769,19.4572772 C0.526860382,20.0018489 0.572852194,20.2633698 0.767480618,20.6697611 C2.33107826,23.9249058 10.2400584,29.1331859 28.6886015,29.1331859 C39.943579,29.1331859 48.686734,26.4200585 50.1031827,21.469042 C50.3640095,20.5576112 50.3780178,19.5953359 50.0429346,18.2986788 C49.6685538,16.8497313 48.9673956,15.160063 48.3739649,13.9736095 C48.3543781,13.9349287 48.3197913,13.9406457 48.3268574,13.9863815 C48.547271,20.4801281 30.0914138,24.6653141 20.7793735,24.6653141 C10.6927864,24.6653141 2.27777239,20.7220653 2.27777239,15.7429505 C2.27777239,15.2645497 2.37868165,14.7860272 2.50463227,14.2880428 C2.51727692,14.2425503 2.47760743,14.2350088 2.45727682,14.2749059 M42.3218887,6.30192406 C42.4289963,6.46662142 42.4824262,6.6423878 42.4824262,6.87897299 C42.4824262,9.65668995 33.8182382,14.570607 20.0260251,14.570607 C9.89195863,14.570607 7.99464142,10.8818242 7.99464142,8.53592081 C7.99464142,7.69735098 8.32241056,6.83931912 9.04427127,5.96790713 C9.08369282,5.9160895 9.05022169,5.89614092 9.00472575,5.93470005 C7.68819463,7.02943874 6.47852319,8.26126304 5.4173644,9.59100563 C4.91033876,10.2198722 4.59558617,10.7769725 4.59558617,11.1107462 C4.59558617,15.9722374 17.0190779,19.4970527 28.6354196,19.4970527 C41.0127956,19.4970527 46.5367718,15.5323958 46.5367718,12.0482074 C46.5367718,10.803003 46.0427627,10.0760965 44.7790416,8.6668029 C43.9587509,7.75002007 43.1828405,7.00352992 42.3615582,6.26871699 C42.3218887,6.23660466 42.294244,6.26275675 42.3218887,6.30192406 M38.5273782,3.52481529 C34.7074545,1.27816823 30.271538,0 25.4892573,0 C20.6736295,0 16.1040764,1.32280925 12.2703923,3.62893711 C11.1204731,4.32336635 10.4732406,4.87985851 10.4732406,5.59520942 C10.4732406,7.70391941 15.4957696,9.97124486 24.4064043,9.97124486 C33.2245595,9.97124486 40.064075,7.48776934 40.064075,5.09722496 C40.064075,4.52662283 39.5558097,4.12740812 38.5273782,3.52481529" id="path9"></path>
            </g>
            <g id="astro" transform="translate(345.000000, 98.000000)" fill="#000000" fill-opacity="0.85">
                <path d="M23.1155332,30.7350991 C23.1155332,34.9415331 19.2878897,37.8139517 14.1814302,37.8139517 C10.5386758,37.8139517 7.65968916,36.0272062 7.65968916,32.8339207 L7.65968916,32.7130461 C7.65968916,29.2670228 10.5386758,27.295669 15.3942144,27.295669 C18.3898572,27.295669 21.1411823,27.8670759 23.1155332,28.6296844 L23.1155332,30.7350991 M30.5903333,42.9126596 L30.5903333,22.9551741 C30.5903333,13.9621083 25.7325937,8.7359327 15.7816009,8.7359327 C10.2833528,8.7359327 6.64279939,9.88753742 2.93621418,11.5380243 L5.04703081,17.7268008 C8.10870542,16.4521238 10.9216602,15.6213861 14.6898751,15.6213861 C20.0494565,15.6213861 22.9856706,18.1773332 22.9856706,22.8321019 L22.9856706,23.6606419 C20.3774144,22.8321019 17.7537508,22.2519041 13.6707843,22.2519041 C5.81299973,22.2519041 0,25.8231973 0,33.0954492 L0,33.2251146 C0,39.9809026 5.62370856,43.6159297 12.0089839,43.6159297 C17.1132423,43.6159297 20.6305363,41.5083172 22.9306441,38.7699595 L22.9306441,42.9126596 L30.5903333,42.9126596" id="Fill-1"></path>
                <path d="M61.9466355,32.9701792 L61.9466355,32.8339207 C61.9466355,26.779205 56.3889588,24.5441249 51.4761926,23.0233034 C47.5164855,21.744231 43.8781331,20.7266871 43.8781331,18.3004054 L43.8781331,18.1773332 C43.8781331,16.1949907 45.59496,14.7972415 48.6038092,14.7972415 C51.4101608,14.7972415 54.859222,16.0037892 58.118992,17.9795385 L61.1850687,12.4984275 C57.606145,10.1336819 53.0015273,8.67000114 48.7886982,8.67000114 C42.079867,8.67000114 36.7907196,12.5621613 36.7907196,18.9355462 L36.7907196,19.0652116 C36.7907196,25.5045281 42.3439943,27.5484067 47.3227922,28.9483536 C51.2824993,30.1614944 54.859222,31.055966 54.859222,33.6668561 L54.859222,33.7899284 C54.859222,36.0272062 52.9465008,37.4315486 49.6229,37.4315486 C46.1738388,37.4315486 42.2119306,36.0272062 38.5735783,33.2888485 L35.1267182,38.5128263 C39.3373462,41.8313819 44.6396999,43.5565913 49.438011,43.5565913 C56.4571916,43.5565913 61.9466355,40.0446364 61.9466355,32.9701792" id="Fill-2"></path>
                <path d="M75.9387746,15.8763215 L85.0093433,15.8763215 L85.0093433,9.24800121 L75.9387746,9.24800121 L75.9387746,0 L68.2108526,0 L68.2108526,9.24800121 L63.9385949,9.24800121 L63.9385949,15.8763215 L68.2108526,15.8763215 L68.2108526,33.60532 C68.2108526,41.0028419 72.2387926,43.4928574 77.9241308,43.4928574 C80.7921121,43.4928574 82.9623574,42.8555189 84.8794807,41.7654503 L84.8794807,35.4557993 C83.349744,36.2206055 81.813404,36.6030086 80.0943761,36.6030086 C77.4729135,36.6030086 75.9387746,35.3920655 75.9387746,32.3965746 L75.9387746,15.8763215" id="Fill-3"></path>
                <path d="M97.3242745,30.0977606 C97.3242745,21.1684286 102.058755,16.7729908 108.824814,16.7729908 L109.276031,16.7729908 L109.276031,8.60846501 C103.33537,8.35133189 99.4350912,11.7995529 97.3242745,16.8323292 L97.3242745,9.24800121 L89.6073578,9.24800121 L89.6073578,42.9126596 L97.3242745,42.9126596 L97.3242745,30.0977606" id="Fill-4"></path>
                <path d="M139.274279,26.2077981 C139.274279,32.1372438 135.314572,36.983214 129.054757,36.983214 C123.059069,36.983214 118.775806,32.0779053 118.775806,26.0803304 C118.775806,20.1486871 122.731111,15.3027168 128.9359,15.3027168 C134.99982,15.3027168 139.274279,20.2080255 139.274279,26.2077981 M147,26.0803304 C147,16.38839 139.395337,8.54253344 129.054757,8.54253344 C118.716378,8.54253344 111.052286,16.5158577 111.052286,26.2077981 C111.052286,35.8382024 118.652547,43.6796635 128.9359,43.6796635 C139.342512,43.6796635 147,35.708537 147,26.0803304" id="Fill-5"></path>
                <path d="M100.621463,58 C80.017339,58 62.4286677,51.9299003 36.2492588,50.9431246 C14.5093882,50.1277708 0.464423682,51.7079307 0.464423682,51.7079307 C0.464423682,51.7079307 12.8850058,45.9521049 44.4460066,45.9521049 C67.4756985,45.9521049 79.0972958,51.2903641 103.498248,51.2903641 C125.246923,51.2903641 138.219971,47.5740214 144.862771,43.4994506 C144.862771,43.4994506 133.892687,58 100.621463,58" id="Fill-6"></path>
            </g>
        </g>
    </g>
</svg>