<?xml version="1.0" encoding="UTF-8"?>
<svg width="32px" height="32px" viewBox="0 0 32 32" version="1.1" xmlns="http://www.w3.org/2000/svg" xmlns:xlink="http://www.w3.org/1999/xlink">
    <title>3</title>
    <g id="3" stroke="none" stroke-width="1" fill="none" fill-rule="evenodd" fill-opacity="0.85">
        <g id="iconfinder_poses-08_4718026" transform="translate(1.000000, 1.000000)" fill="#000000" fill-rule="nonzero">
            <path d="M15.01199,7.53650189 C17.4316254,7.53650189 18.5337679,5.59136531 18.5337679,3.78408588 C18.5337679,1.90368627 17.3239502,0 15.01199,0 C12.7002649,0 11.4906822,1.90368627 11.4906822,3.78408588 C11.4906822,5.59136531 12.5925897,7.53650189 15.01199,7.53650189 Z M15.01199,1.90764502 C16.5307274,1.90764502 16.6078397,3.47064716 16.6078397,3.78408588 C16.6078397,4.09216869 16.5307274,5.62885687 15.01199,5.62885687 C13.4934877,5.62885687 13.4166104,4.09216869 13.4166104,3.78408588 C13.4166104,3.47064716 13.4934878,1.90764502 15.01199,1.90764502 Z" id="Shape"></path>
            <path d="M24.9971004,17.6995087 C24.3392944,16.8386 24.1582684,15.8246979 23.9668981,14.750949 C23.7219253,13.3744731 23.4440387,11.8142655 22.0541354,10.610344 C19.6020563,8.48683141 10.906227,8.12705213 7.95832483,10.6007964 C6.62343464,11.7211187 6.20307822,13.5221108 5.83209254,15.1111939 C5.59323227,16.1341779 5.36753756,17.1005752 4.95023744,17.7786834 C4.07096843,19.2070885 1.07863268,21.0986657 0,21.7069138 L0.952149602,23.3651585 C1.39319468,23.1166896 5.2986537,20.8774422 6.59451751,18.7716275 C7.17380061,17.8303799 7.44557465,16.6665115 7.70841499,15.5410661 C8.04131467,14.1147568 8.35587672,12.7673893 9.2034074,12.0562141 C11.335047,10.2673311 19.0218328,10.5183616 20.7864834,12.0464337 C21.6652822,12.8076753 21.852891,13.8618634 22.0705923,15.0825513 C22.2826513,16.2734322 22.5233923,17.6233612 23.461436,18.8508023 C25.2858016,21.2374543 28.8978575,23.2801621 29.0511418,23.3658571 L30,21.7059824 C29.9661457,21.6868873 26.5835462,19.7752836 24.9971004,17.6995087 Z" id="Path"></path>
            <path d="M4.39822577,27.7975456 C4.11869346,27.6666744 3.96799521,27.4936544 3.89440934,27.2191044 C3.64097298,26.2743637 4.17135556,25.898051 6.88180803,25.1000163 C8.49529014,24.6252009 10.3238876,24.0868128 11.4173314,22.844934 C13.5884676,20.3791072 11.3254078,15.3137881 11.0602166,14.7441958 L9.31155275,15.5433948 C9.98628591,16.992525 11.0341206,20.37771 9.96583232,21.591179 C9.23961254,22.4159933 7.76201747,22.8509885 6.33332288,23.271546 C4.1856966,23.9037794 1.2446123,24.7693454 2.03289815,27.7090562 C2.25177498,28.5252544 2.78521387,29.1521319 3.57514538,29.5221573 C4.17676285,29.804159 4.91967464,29.919661 5.7342915,29.919661 C9.19847028,29.919661 13.953811,27.8280511 14.5977462,27.5372005 L13.799116,25.8014112 C11.1077065,27.0151131 6.17439619,28.6319074 4.39822577,27.7975456 Z" id="Path"></path>
            <path d="M22.7208751,22.8989591 C21.4602761,22.5463987 20.0308762,22.1465664 19.6025265,21.6195888 C18.4853376,20.2461402 19.7167844,16.6779219 20.2363524,15.5364087 L18.4811058,14.7504832 C18.2257887,15.3098293 16.0450135,20.2864262 18.102597,22.8165242 C18.9165086,23.8171529 20.5104775,24.26286 22.1975455,24.7348811 C23.6565678,25.1428638 25.4724699,25.6507463 25.8382834,26.4292201 C25.8853031,26.5293528 26.0287133,26.8339427 25.7028665,27.548611 C25.5730921,27.8341057 25.3901853,27.9850034 25.09161,28.0525348 C22.9639672,28.5355005 17.6610817,24.9751997 14.8161528,22.6190532 L13.5804742,24.0821554 C13.6611131,24.1492211 15.5837499,25.7376057 17.9605974,27.2558974 C20.8396157,29.0955453 23.0547153,30 24.6919424,30 C24.9867561,30 25.2632321,29.9706588 25.5209003,29.9122092 C26.4095732,29.7107794 27.0796044,29.1647067 27.4585835,28.3333721 C27.9156153,27.3301819 27.957933,26.4185083 27.5845964,25.6239667 C26.8459163,24.0525814 24.7488362,23.4662227 22.7208751,22.8989591 Z" id="Path"></path>
        </g>
    </g>
</svg>