<?xml version="1.0" encoding="UTF-8"?>
<svg width="32px" height="32px" viewBox="0 0 32 32" version="1.1" xmlns="http://www.w3.org/2000/svg" xmlns:xlink="http://www.w3.org/1999/xlink">
    <title>4</title>
    <g id="4" stroke="none" stroke-width="1" fill="none" fill-rule="evenodd" fill-opacity="0.85" stroke-opacity="0.85">
        <g id="iconfinder_mat_spa_yoga_3228901" transform="translate(4.000000, 3.000000)" fill="#000000" fill-rule="nonzero" stroke="#000000" stroke-width="0.3">
            <path d="M24.3055556,5.55555556 L11.1111111,5.55555556 C11.1111111,2.48730695 8.62380417,0 5.55555556,0 C2.48730695,0 0,2.48730695 0,5.55555556 L0,18.0555556 C0,19.6875 0.604166667,25 8.33333333,25 L24.3055556,25 C24.6890866,25 25,24.6890866 25,24.3055556 L25,6.25 C25,5.86646892 24.6890866,5.55555556 24.3055556,5.55555556 Z M1.38888889,5.55555556 C1.38888889,3.25436912 3.25436912,1.38888895 5.55555556,1.38888895 C7.85674199,1.38888895 9.72222222,3.25436912 9.72222222,5.55555556 L9.72222222,13.9930556 C8.57955734,12.9737814 7.0855264,12.4384203 5.55555556,12.5 C3.95545515,12.509029 2.43694587,13.2075433 1.38888889,14.4166667 L1.38888889,5.55555556 Z M23.6111111,23.6111111 L8.33333333,23.6111111 C2.29166667,23.6111111 1.38888889,20.1388889 1.38888889,18.0555556 C1.38888889,15.7543691 3.2543691,13.8888889 5.55555556,13.8888889 C7.47916667,13.8888889 9.72222222,14.7986111 9.72222222,17.3611111 C9.72222222,18.4444444 9.38888889,19.4444444 6.94444444,19.4444444 C6.16169261,19.4324514 5.48814855,18.8878839 5.3125,18.125 C5.26637611,17.9545103 5.29130522,17.7726067 5.38159681,17.6208121 C5.4718884,17.4690176 5.61983559,17.3602885 5.79166667,17.3194444 C6.14137931,17.181647 6.3179748,16.7906122 6.19012387,16.437142 C6.06227294,16.0836717 5.67638942,15.8960868 5.31944444,16.0138889 C4.31870466,16.3188369 3.71615533,17.3371453 3.93055556,18.3611111 C4.22560928,19.7933355 5.48217312,20.8240653 6.94444444,20.8333333 C10.4166667,20.8333333 11.1111111,18.9444444 11.1111111,17.3611111 L11.1111111,6.94444444 L23.6111111,6.94444444 L23.6111111,23.6111111 Z" id="Shape"></path>
        </g>
    </g>
</svg>