<?xml version="1.0" encoding="UTF-8"?>
<svg width="32px" height="32px" viewBox="0 0 32 32" version="1.1" xmlns="http://www.w3.org/2000/svg" xmlns:xlink="http://www.w3.org/1999/xlink">
    <title>2</title>
    <g id="2" stroke="none" stroke-width="1" fill="none" fill-rule="evenodd" fill-opacity="0.85" stroke-opacity="0.85">
        <path d="M30.6139895,19.2893005 C29.079276,18.9636201 27.5145932,18.8184652 25.9490727,18.8565384 C26.8490566,16.4729459 27.0345533,13.5990292 26.492063,10.2897341 C26.4683644,10.1466914 26.3889527,10.0203813 26.2728125,9.94100004 C26.1566723,9.86161882 26.0142428,9.83630161 25.8795739,9.8711009 C24.1901113,10.3686866 22.5809567,11.1270716 21.105159,12.1212541 C20.1450887,9.38106522 18.5015482,6.9598709 16.3452438,5.10914869 C16.1449844,4.94727029 15.8607419,4.96749233 15.6832556,5.15624492 C13.4657952,7.51681266 11.9833216,9.94226854 11.2573345,12.377667 C9.68455305,11.2586425 7.94988684,10.4119372 6.1199261,9.87005432 C5.98525722,9.83525503 5.84282768,9.86057224 5.72668749,9.93995346 C5.61054731,10.0193347 5.53113561,10.1456448 5.50743702,10.2886875 C4.96494669,13.5979826 5.15244335,16.471376 6.05042734,18.8554918 C4.48490677,18.8174186 2.92022403,18.9625735 1.38551049,19.2882539 C1.24362912,19.322786 1.12336587,19.4207256 1.05651635,19.5561791 C0.989342546,19.6912002 0.981676255,19.8501429 1.03551673,19.9915576 C3.20847799,25.6860152 7.4439025,26.9979068 10.8853412,26.9979068 C12.6242094,26.9863742 14.3503728,26.6868334 15.99975,26.1104045 C17.6491624,26.687659 19.3755106,26.9879091 21.1146588,27 C24.5555975,27 28.791522,25.687585 30.9644833,19.9936507 C31.0183237,19.8522361 31.0106575,19.6932933 30.9434836,19.5582723 C30.8767509,19.4222985 30.7562481,19.32393 30.6139895,19.2893005 Z M24.8405924,18.9130539 C23.0097233,19.0309058 21.2225748,19.5477968 19.5936859,20.4305991 C19.5062256,20.4529295 19.4263148,20.4999967 19.3626901,20.5666549 L19.3626901,20.5666549 C18.3506128,21.178244 17.4679154,21.9988153 16.7682363,22.9785052 C16.7900947,22.0120631 16.7046914,21.046232 16.5137408,20.1004022 C17.1137301,17.4436515 18.6562027,15.1814626 21.1136589,13.3719207 C22.4933682,12.3758073 24.0034713,11.593765 25.5970789,11.0500765 C26.0240713,14.1280769 25.7660759,16.7675589 24.8405924,18.9130539 Z M16.0742487,6.23265543 C16.954733,7.04846681 19.2946913,9.45979382 20.2466743,12.7460641 C18.3474389,14.1444155 16.8730679,16.0855268 15.99975,18.3374333 C15.1897051,16.231412 13.8457618,14.3967514 12.1128193,13.031258 C12.7173085,10.7606964 14.0427849,8.47705247 16.0742487,6.23265543 Z M6.40442103,11.0469368 C8.13719403,11.6371237 9.76947423,12.5114328 11.2403348,13.6372295 L11.2403348,13.6372295 C13.3523822,15.185571 14.8599426,17.4792741 15.4862592,20.0972625 C15.2949171,21.0430362 15.2093435,22.0088949 15.2312637,22.9753654 C13.2057998,20.1286599 9.98635719,19.1480118 7.15840759,18.9104374 C6.23342408,16.7675589 5.97542868,14.1275536 6.40442103,11.0485067 L6.40442103,11.0469368 Z M10.1968534,25.9544637 C6.45342016,25.7420073 3.76696804,23.8026892 2.20249593,20.189885 C4.46895553,19.785904 12.6428098,18.8251409 15.3382618,25.238601 C13.6767157,25.7858074 11.9373424,26.0285197 10.1968534,25.9560336 L10.1968534,25.9544637 Z M21.8026466,25.9544637 C20.0621851,26.0263306 18.3229128,25.7836324 16.6612382,25.2370311 C19.3561902,18.8256642 27.5295445,19.7864273 29.799504,20.189885 C28.232532,23.8026892 25.5460799,25.7420073 21.8026466,25.9560336 L21.8026466,25.9544637 Z" id="Shape" stroke="#000000" stroke-width="0.5" fill="#000000" fill-rule="nonzero"></path>
    </g>
</svg>