<?xml version="1.0" encoding="UTF-8"?>
<svg width="60px" height="60px" viewBox="0 0 60 60" version="1.1" xmlns="http://www.w3.org/2000/svg" xmlns:xlink="http://www.w3.org/1999/xlink">
    <title>7</title>
    <g id="7" stroke="none" stroke-width="1" fill="none" fill-rule="evenodd" fill-opacity="0.85">
        <g id="iconfinder_Detective_Bottle_Lab_2_2624527" transform="translate(10.000000, 7.000000)" fill="#000000" fill-rule="nonzero" stroke="#FFFFFF" stroke-width="0.2">
            <path d="M40.0346457,37.6041131 L31.3046322,24.8329049 C29.4068032,21.9948586 28.2681058,18.6838046 28.2681058,15.2544987 L28.2681058,7.56812339 L29.0272374,7.56812339 C31.3046322,7.56812339 33.0759393,5.9125964 33.0759393,3.7840617 C33.0759393,1.65552699 31.3046322,0 29.0272374,0 L11.9467763,0 C9.66938148,0 7.8980744,1.65552699 7.8980744,3.7840617 C7.8980744,5.9125964 9.66938148,7.56812339 11.9467763,7.56812339 L12.7059079,7.56812339 L12.7059079,15.2544987 C12.7059079,18.6838046 11.6937324,21.9948586 9.66938148,24.8329049 L0.939368023,37.6041131 C-0.199329384,39.2596401 -0.325851318,41.3881748 0.686324155,43.1619537 C1.69849963,44.9357326 3.59632864,46 5.74720152,46 L35.1002902,46 C37.2511631,46 39.1489921,44.9357326 40.1611676,43.1619537 C41.299865,41.3881748 41.299865,39.2596401 40.0346457,37.6041131 Z M15.3628685,15.2544987 L15.3628685,7.56812339 L19.2850485,7.56812339 C20.0441801,7.56812339 20.5502678,7.09511568 20.5502678,6.38560411 C20.5502678,5.67609254 20.0441801,5.20308483 19.2850485,5.20308483 L12.0732982,5.20308483 C11.1876447,5.20308483 10.555035,4.61182519 10.555035,3.7840617 C10.555035,2.9562982 11.1876447,2.36503856 12.0732982,2.36503856 L29.1537593,2.36503856 C30.0394129,2.36503856 30.6720226,2.9562982 30.6720226,3.7840617 C30.6720226,4.61182519 29.9128909,5.20308483 29.1537593,5.20308483 L24.5989697,5.20308483 C23.8398381,5.20308483 23.3337504,5.67609254 23.3337504,6.38560411 C23.3337504,7.09511568 23.8398381,7.56812339 24.5989697,7.56812339 L25.7376671,7.56812339 L25.7376671,15.2544987 C25.7376671,19.0385604 26.8763645,22.8226221 29.1537593,26.0154242 L29.9128909,27.0796915 C28.2681058,27.7892031 24.8520136,28.8534704 20.9298336,27.7892031 C17.0076537,26.6066838 13.4650395,26.8431877 11.1876447,27.1979434 L11.9467763,26.0154242 C14.0976492,22.8226221 15.3628685,19.1568123 15.3628685,15.2544987 Z M38.0102947,41.9794344 C37.3776851,42.9254499 36.3655096,43.5167095 35.1002902,43.5167095 L5.87372346,43.5167095 C4.60850411,43.5167095 3.59632864,42.9254499 2.96371897,41.9794344 C2.3311093,41.033419 2.45763123,39.8508997 3.0902409,38.9048843 L9.16329374,30.1542416 C10.4285131,29.7994859 14.8567808,28.6169666 20.170702,30.1542416 C21.6889652,30.6272494 23.0807065,30.7455013 24.3459258,30.7455013 C27.3824523,30.7455013 29.9128909,29.7994859 31.1781103,29.2082262 L37.8837728,38.9048843 C38.6429044,39.8508997 38.6429044,41.033419 38.0102947,41.9794344 Z" id="Shape"></path>
        </g>
    </g>
</svg>