<?xml version="1.0" encoding="UTF-8"?>
<svg width="14px" height="14px" viewBox="0 0 14 14" version="1.1" xmlns="http://www.w3.org/2000/svg" xmlns:xlink="http://www.w3.org/1999/xlink">
    <title>iconfinder_info_553673</title>
    <g id="Page-1" stroke="none" stroke-width="1" fill="none" fill-rule="evenodd">
        <g id="Careers" transform="translate(-161.000000, -3920.000000)" fill="#666666" fill-rule="nonzero">
            <g id="Group-11" transform="translate(161.000000, 3912.000000)">
                <g id="iconfinder_info_553673" transform="translate(0.000000, 8.000000)">
                    <path d="M7,0 C3.13409091,0 0,3.13409091 0,7 C0,10.8659091 3.13409091,14 7,14 C10.8659091,14 14,10.8659091 14,7 C14,3.13409091 10.8659091,0 7,0 Z M7.51227273,2.83181818 C7.99272727,2.83181818 8.39681818,3.20727273 8.39681818,3.70363636 C8.39681818,4.2 7.99272727,4.57545455 7.51227273,4.57545455 C7.03181818,4.57545455 6.62772727,4.2 6.62772727,3.70363636 C6.62772727,3.20727273 7.03181818,2.83181818 7.51227273,2.83181818 Z M8.58136364,9.80636364 C8.18363636,10.8818182 7.58227273,11.1681818 6.90454545,11.1681818 C6.02,11.1681818 5.60636364,10.6622727 5.60636364,9.89545455 C5.60636364,9.70136364 5.63181818,9.47863636 5.68272727,9.25909091 L6.265,6.89181818 C6.30954545,6.71363636 6.195,6.56727273 6.01045455,6.56727273 L5.65090909,6.56727273 C5.46636364,6.56727273 5.355,6.42409091 5.40272727,6.24590909 L5.54590909,5.69545455 C5.59363636,5.51727273 5.77818182,5.37409091 5.96272727,5.37409091 L7.76681818,5.37409091 C7.95136364,5.37409091 8.06272727,5.52045455 8.01818182,5.69863636 L7.12409091,9.24954545 C7.06045455,9.49772727 7.03181818,9.70454545 7.03181818,9.84772727 C7.03181818,10.0927273 7.14954545,10.2136364 7.34363636,10.2136364 C7.54409091,10.2136364 7.75090909,10.1086364 7.98636364,9.58681818 C8.06272727,9.41818182 8.23772727,9.32590909 8.39681818,9.38954545 C8.55590909,9.44045455 8.645,9.63454545 8.58136364,9.80636364 Z" id="Shape"></path>
                </g>
            </g>
        </g>
    </g>
</svg>