<?xml version="1.0" encoding="UTF-8"?>
<svg width="151px" height="44px" viewBox="0 0 151 44" version="1.1" xmlns="http://www.w3.org/2000/svg" xmlns:xlink="http://www.w3.org/1999/xlink">
    <title>swiggy-logo</title>
    <g id="Page-1" stroke="none" stroke-width="1" fill="none" fill-rule="evenodd" fill-opacity="0.85">
        <g id="New-to-MacAppStudio" transform="translate(-884.000000, -4213.000000)" fill="#000000" fill-rule="nonzero">
            <g id="swiggy-logo" transform="translate(884.000000, 4213.000000)">
                <path d="M14.9022571,44 C14.8720575,43.9819178 14.8418578,43.9517808 14.8116582,43.9216438 C14.2801444,43.2646575 11.0065023,39.16 7.67246092,33.8920548 C6.66983254,32.2164384 6.02356003,30.9024658 6.14435863,30.5649315 C6.47051485,29.6849315 12.2869674,29.2027397 14.0808267,29.9983562 C14.6244204,30.2394521 14.6123405,30.5589041 14.6123405,30.7457534 C14.6123405,31.5534247 14.570061,33.7112329 14.570061,33.7112329 C14.570061,34.1572603 14.9324568,34.5189041 15.3794116,34.5189041 C15.8263664,34.5189041 16.1887622,34.1572603 16.1887622,33.7052055 L16.1827223,28.3167123 C16.1827223,27.8465753 15.6753682,27.7320548 15.5787293,27.7139726 C14.6425402,27.7079452 12.7460021,27.7019178 10.7045058,27.7019178 C6.20475793,27.7019178 5.20212955,27.8887671 4.43505844,27.3884932 C2.77407769,26.3156164 0.0681890434,19.010411 0.00174981335,14.899726 C-0.0888491368,9.10136986 3.34787104,4.08054795 8.17981504,1.59123288 C10.1971517,0.57260274 12.4802452,0 14.8901773,0 C22.5427686,0 28.8424156,5.78027397 29.6819659,13.2180822 L29.6819659,13.2361644 C29.8329641,15.0323288 19.9335188,15.4180822 17.9765815,14.8936986 C17.674585,14.8153425 17.6021059,14.5079452 17.6021059,14.3753425 C17.6021059,13.0071233 17.590026,9.16164384 17.590026,9.16164384 C17.590026,8.71561644 17.2276302,8.3539726 16.7806754,8.3539726 C16.3337206,8.3539726 15.9713248,8.71561644 15.9713248,9.16767123 L15.9894445,16.2558904 C16.0015244,16.7019178 16.3760001,16.8224658 16.4786789,16.8405479 L22.6212877,16.8405479 C25.9009697,16.8405479 27.2780737,17.220274 28.1901032,17.9194521 C28.8001361,18.3835616 29.0356934,19.2756164 28.8303357,20.4328767 C26.994197,30.7156164 15.343172,43.4635616 14.9022571,44 Z M46.4910911,19.9808219 C49.432537,21.2405479 51.2505559,22.6389041 51.2505559,25.7128767 C51.2505559,28.8471233 48.8768634,30.8723288 45.204586,30.8723288 C42.2269005,30.8723288 39.8411281,29.5221918 38.6512619,27.1715068 L38.4579842,26.7917808 L41.9551036,24.7605479 L42.184621,25.1342466 C42.9698119,26.4241096 43.8516417,26.9726027 45.1321068,26.9726027 C46.2313741,26.9726027 46.9742855,26.4843836 46.9742855,25.7550685 C46.9742855,24.9473973 46.4367317,24.6460274 44.7817909,23.9227397 L43.9422406,23.5610959 C41.6953867,22.6027397 39.6176507,21.2706849 39.6176507,18.0460274 C39.6176507,15.1468493 41.834305,13.1276712 45.0113082,13.1276712 C47.4152004,13.1276712 49.0701412,14.0619178 50.205648,16.0630137 L50.4170456,16.4367123 L47.0286449,18.6186301 L46.7930876,18.2027397 C46.2253342,17.190137 45.6938203,16.9852055 45.0173482,16.9852055 C44.3106763,16.9852055 43.8516417,17.3769863 43.8516417,17.9857534 C43.8516417,18.6849315 44.1898777,18.9923288 45.6575807,19.6252055 L46.4910911,19.9808219 Z M71.260844,20.5715068 L73.7311754,13.6761644 L77.9712063,13.6761644 L71.6896791,31.1556164 L70.74745,31.1556164 L66.9362542,22.970411 C66.7610962,22.5967123 66.5738584,22.1326027 66.4168202,21.7046575 C66.2537421,22.1326027 66.0665042,22.5967123 65.8913463,22.9764384 L61.9291522,31.1616438 L60.992963,31.1616438 L54.608757,13.6821918 L59.1387045,13.6821918 L61.6331956,20.5775342 C61.7902338,21.0175342 61.9533119,21.5539726 62.0982702,22.0482192 C62.2673883,21.5358904 62.4727459,20.9813699 62.6841434,20.5353425 L65.9638254,13.5375342 L66.8698149,13.5375342 L70.1978164,20.5353425 C70.4092139,20.9813699 70.6145715,21.5358904 70.7836896,22.0482192 C70.9346878,21.5479452 71.1038059,21.0115068 71.260844,20.5715068 L71.260844,20.5715068 Z M82.911869,30.6553425 L82.911869,13.3205479 L87.1881395,13.3205479 L87.1881395,30.6553425 L82.911869,30.6553425 Z M101.218897,24.8268493 L101.218897,20.9512329 L109.161405,20.9512329 L109.161405,28.7205479 L108.998327,28.8531507 C108.092337,29.6005479 105.682405,30.8663014 102.414803,30.8663014 C96.9063869,30.8663014 93.0649914,27.2136986 93.0649914,21.9819178 C93.0649914,16.8465753 96.7735084,13.1216438 101.889329,13.1216438 C104.697897,13.1216438 106.763553,13.9172603 108.188976,15.5446575 L108.466813,15.8641096 L105.549527,18.7572603 L105.23545,18.4317808 C104.42006,17.5939726 103.57447,17.069589 101.895369,17.069589 C99.2800793,17.069589 97.4499806,19.0887671 97.4499806,21.9819178 C97.4499806,24.9956164 99.4008779,26.9424658 102.426883,26.9424658 C103.429511,26.9424658 104.474419,26.7676712 105.187131,26.490411 L105.187131,24.8208219 L101.218897,24.8268493 Z M122.902246,24.8268493 L122.902246,20.9512329 L130.844754,20.9512329 L130.844754,28.7205479 L130.681675,28.8531507 C129.769646,29.6005479 127.365754,30.8663014 124.098152,30.8663014 C118.589736,30.8663014 114.74834,27.2136986 114.74834,21.9819178 C114.74834,16.8465753 118.456857,13.1216438 123.566638,13.1216438 C126.381245,13.1216438 128.440861,13.9172603 129.866285,15.5446575 L130.144122,15.8641096 L127.226835,18.7572603 L126.906719,18.4317808 C126.091329,17.5939726 125.245738,17.069589 123.560598,17.069589 C120.945308,17.069589 119.115209,19.0887671 119.115209,21.9819178 C119.115209,24.9956164 121.066107,26.9424658 124.092112,26.9424658 C125.09474,26.9424658 126.139648,26.7676712 126.85236,26.490411 L126.85236,24.8208219 L122.902246,24.8268493 Z M146.530452,13.3205479 L151,13.3205479 L144.863431,24.8569863 L144.863431,30.6553425 L140.563001,30.6553425 L140.563001,25.1041096 L134.021757,13.3265753 L138.793301,13.3265753 L141.813266,18.8536986 C142.139423,19.4564384 142.477659,20.2520548 142.737376,20.8969863 C142.985013,20.2580822 143.305129,19.4684932 143.631285,18.859726 L146.530452,13.3205479 Z" id="Shape"></path>
            </g>
        </g>
    </g>
</svg>