<?xml version="1.0" encoding="UTF-8"?>
<svg width="138px" height="42px" viewBox="0 0 138 42" version="1.1" xmlns="http://www.w3.org/2000/svg" xmlns:xlink="http://www.w3.org/1999/xlink">
    <title>Amazon_logo</title>
    <g id="Page-1" stroke="none" stroke-width="1" fill="none" fill-rule="evenodd" fill-opacity="0.85">
        <g id="New-to-MacAppStudio" transform="translate(-474.000000, -4131.000000)" fill="#000000">
            <g id="Amazon_logo" transform="translate(474.000000, 4131.000000)">
                <path d="M85.6125008,32.8452957 C77.5930876,38.8149655 65.969436,42 55.9616939,42 C41.9292178,42 29.2963915,36.7583419 19.7391697,28.0404447 C18.9882897,27.3548993 19.6610755,26.4206254 20.5621369,26.9544946 C30.876243,33.0151654 43.6292177,36.6612728 56.8026825,36.6612728 C65.6871059,36.6612728 75.4605805,34.8048487 84.4471309,30.9524763 C85.8047238,30.3700655 86.9400567,31.8503521 85.6125008,32.8452957" id="path8"></path>
                <path d="M88.9464152,28.9929219 C87.9252125,27.6703741 82.1704579,28.3680475 79.5874277,28.6774513 C78.8005007,28.7745205 78.6803648,28.0829111 79.3891921,27.5854358 C83.9725737,24.3276008 91.4934053,25.2679458 92.370434,26.3599557 C93.2474612,27.4580367 92.1421668,35.0717903 87.8351081,38.7057599 C87.1743324,39.2638979 86.5435924,38.9666319 86.8379394,38.2264879 C87.8050738,35.7876601 89.9736224,30.3215365 88.9464152,28.9929219" id="path10"></path>
                <path d="M79.7676392,4.58645014 L79.7676392,1.41961585 C79.7676392,0.940344125 80.1280621,0.618807545 80.5605706,0.618807545 L94.599047,0.618807545 C95.0495784,0.618807545 95.4100013,0.946411645 95.4100013,1.41961585 L95.4100013,4.13144597 C95.4039983,4.58645014 95.0255498,5.18098997 94.352757,6.1213334 L87.0782195,16.6107168 C89.7813953,16.5439873 92.6347454,16.9504533 95.0856226,18.3458029 C95.6382698,18.6612721 95.7884469,19.1223437 95.8304955,19.5773526 L95.8304955,22.956524 C95.8304955,23.4175942 95.3259027,23.9575288 94.7972826,23.678462 C90.4782111,21.3913019 84.7414766,21.1425664 79.9658707,23.7027306 C79.4793006,23.9696681 78.968702,23.435796 78.968702,22.9747217 L78.968702,19.7654213 C78.968702,19.2497498 78.974705,18.3700688 79.4853036,17.5874613 L87.9131996,5.38119303 L80.5785907,5.38119303 C80.1280621,5.38119303 79.7676392,5.05965909 79.7676392,4.58645014" id="path12"></path>
                <path d="M28.5575215,24.3458013 L24.2865085,24.3458013 C23.8780312,24.3154714 23.5536498,24.0060676 23.5236127,23.6117255 L23.5236127,1.47422074 C23.5236127,1.03134911 23.8900441,0.679475771 24.3465785,0.679475771 L28.329253,0.679475771 C28.7437442,0.697663696 29.0741273,1.01921184 29.1041657,1.41961585 L29.1041657,4.31345148 L29.1822572,4.31345148 C30.2214758,1.51668376 32.173766,0.212336006 34.804856,0.212336006 C37.4779933,0.212336006 39.1479548,1.51668376 40.3493648,4.31345148 C41.3825777,1.51668376 43.7313336,0.212336006 46.2482907,0.212336006 C48.0383922,0.212336006 49.9966909,0.958544175 51.1920952,2.63296281 C52.543681,4.49544975 52.2673553,7.20121249 52.2673553,9.57330835 L52.2613523,23.544996 C52.2613523,23.9878657 51.8949209,24.3458013 51.4383865,24.3458013 L47.1733765,24.3458013 C46.7468792,24.3154714 46.4044777,23.9696681 46.4044777,23.544996 L46.4044777,11.8119317 C46.4044777,10.8776557 46.4885708,8.54802968 46.2843349,7.66228404 C45.965962,6.17593842 45.010842,5.75732962 43.7733849,5.75732962 C42.740172,5.75732962 41.6589048,6.45500446 41.2203891,7.57128602 C40.7818734,8.68756507 40.8239233,10.5561149 40.8239233,11.8119317 L40.8239233,23.544996 C40.8239233,23.9878657 40.4574933,24.3458013 40.0009562,24.3458013 L35.7359531,24.3458013 C35.3034445,24.3154714 34.9670488,23.9696681 34.9670488,23.544996 L34.9610458,11.8119317 C34.9610458,9.34277243 35.3635131,5.70879671 32.3299571,5.70879671 C29.26035,5.70879671 29.3804914,9.25176758 29.3804914,11.8119317 L29.3804914,23.544996 C29.3804914,23.9878657 29.01406,24.3458013 28.5575257,24.3458013" id="path14"></path>
                <path d="M107.49619,0.212336006 C113.83363,0.212336006 117.263654,5.70879671 117.263654,12.697675 C117.263654,19.4499479 113.473201,24.8068728 107.49619,24.8068728 C101.272883,24.8068728 97.8849043,19.3104124 97.8849043,12.4610717 C97.8849043,5.56926118 101.314932,0.212336006 107.49619,0.212336006 M107.53223,4.73205541 C104.384537,4.73205541 104.186276,9.06369915 104.186276,11.763399 C104.186276,14.4691618 104.144253,20.2446905 107.49619,20.2446905 C110.806075,20.2446905 110.96226,15.5854433 110.96226,12.7462056 C110.96226,10.8776557 110.884168,8.64509745 110.325509,6.87360853 C109.844945,5.33266263 108.889827,4.73205541 107.53223,4.73205541" id="path16"></path>
                <path d="M125.481302,24.3458013 L121.228311,24.3458013 C120.801808,24.3154714 120.459407,23.9696681 120.459407,23.544996 L120.453404,1.4014158 C120.489446,0.994944414 120.843865,0.679475771 121.276371,0.679475771 L125.235021,0.679475771 C125.607454,0.697663696 125.913814,0.952479025 125.997916,1.2982829 L125.997916,4.6835179 L126.076004,4.6835179 C127.271411,1.65621928 128.947373,0.212336006 131.896835,0.212336006 C133.813086,0.212336006 135.68128,0.910011406 136.88269,2.82103124 C138,4.59251752 138,7.57128602 138,9.71283913 L138,23.6481306 C137.951946,24.0363975 137.597527,24.3458013 137.177038,24.3458013 L132.894008,24.3458013 C132.503547,24.3154714 132.179166,24.0242681 132.137121,23.6481306 L132.137121,11.6238637 C132.137121,9.20323704 132.413444,5.66026157 129.46398,5.66026157 C128.424762,5.66026157 127.46964,6.36400644 126.995082,7.43174812 C126.394379,8.78463312 126.316287,10.1314479 126.316287,11.6238637 L126.316287,23.544996 C126.310284,23.9878657 125.937844,24.3458013 125.481309,24.3458013" id="path18"></path>
                <path d="M68.5765002,13.7714864 C68.5765002,15.4519704 68.6185488,16.8533855 67.7775617,18.3458029 C67.0987659,19.5591535 66.0174972,20.3053602 64.8220957,20.3053602 C63.1821699,20.3053602 62.2210413,19.0434764 62.2210413,17.1809897 C62.2210413,13.5045506 65.4828687,12.8372107 68.5765002,12.8372107 L68.5765002,13.7714864 M72.8835575,24.2851345 C72.6012288,24.5399368 72.1927447,24.5581359 71.8743732,24.3882704 C70.4567061,23.1991913 70.1984046,22.6471202 69.4234959,21.5126411 C67.0807445,23.9271989 65.4167888,24.6491382 62.3832286,24.6491382 C58.7850042,24.6491382 55.9917283,22.4105128 55.9917283,17.9272019 C55.9917283,14.4266941 57.8659311,12.0424678 60.5450755,10.8776557 C62.8637957,9.84630742 66.1015917,9.66430873 68.5765002,9.37917267 L68.5765002,8.82103321 C68.5765002,7.79575204 68.654593,6.58240508 68.0538873,5.69666655 C67.5372816,4.90192129 66.5401074,4.57431761 65.657073,4.57431761 C64.0291601,4.57431761 62.5814642,5.41759326 62.2270457,7.16481225 C62.1549614,7.55308583 61.8726327,7.93528994 61.48217,7.95348999 L57.3433141,7.5045486 C56.9949027,7.42568534 56.6044469,7.14054468 56.7065669,6.60060973 C57.6556812,1.52882103 62.1970142,0 66.2577773,0 C68.3362188,0 71.0514046,0.558140713 72.6913304,2.14762369 C74.7697677,4.1071784 74.5715376,6.72194061 74.5715376,9.56724097 L74.5715376,16.2891808 C74.5715376,18.3094062 75.4005105,19.1951442 76.1814263,20.2871611 C76.4517476,20.675428 76.5118176,21.1425664 76.1633883,21.4337697 C75.2923668,22.1678482 73.7425454,23.5328624 72.8895453,24.2972695 L72.8835423,24.2851163" id="path28"></path>
                <path d="M12.5847741,13.7714864 C12.5847741,15.4519704 12.6268192,16.8533855 11.785836,18.3458029 C11.1070354,19.5591535 10.0317742,20.3053602 8.8303636,20.3053602 C7.19043812,20.3053602 6.23531873,19.0434764 6.23531873,17.1809897 C6.23531873,13.5045506 9.49714648,12.8372107 12.5847741,12.8372107 L12.5847741,13.7714864 M16.8918282,24.2851345 C16.6094981,24.5399368 16.201014,24.5581359 15.8826411,24.3882704 C14.4649809,23.1991913 14.212681,22.6471202 13.4317649,21.5126411 C11.0890143,23.9271989 9.43107235,24.6491382 6.39150023,24.6491382 C2.79928171,24.6491382 0,22.4105128 0,17.9272019 C0,14.4266941 1.88020668,12.0424678 4.55334354,10.8776557 C6.87206494,9.84630742 10.1098661,9.66430873 12.5847741,9.37917267 L12.5847741,8.82103321 C12.5847741,7.79575204 12.6628661,6.58240508 12.0681673,5.69666655 C11.5455503,4.90192129 10.5483833,4.57431761 9.67135119,4.57431761 C8.04344371,4.57431761 6.58973405,5.41759326 6.23531873,7.16481225 C6.1632325,7.55308583 5.88090133,7.93528994 5.49645196,7.95348999 L1.35158667,7.5045486 C1.00317696,7.42568534 0.618725199,7.14054468 0.714838141,6.60060973 C1.66995982,1.52882103 6.2052822,0 10.2660523,0 C12.3444883,0 15.0596753,0.558140713 16.6996011,2.14762369 C18.7780425,4.1071784 18.5798069,6.72194061 18.5798069,9.56724097 L18.5798069,16.2891808 C18.5798069,18.3094062 19.4087839,19.1951442 20.1897011,20.2871611 C20.466024,20.675428 20.526094,21.1425664 20.1776813,21.4337697 C19.3066598,22.1678482 17.7568425,23.5328624 16.9038369,24.2972695 L16.8918309,24.2851163" id="path30"></path>
            </g>
        </g>
    </g>
</svg>