<?xml version="1.0" encoding="UTF-8"?>
<svg width="158px" height="48px" viewBox="0 0 158 48" version="1.1" xmlns="http://www.w3.org/2000/svg" xmlns:xlink="http://www.w3.org/1999/xlink">
    <title>spotify-1</title>
    <g id="Page-1" stroke="none" stroke-width="1" fill="none" fill-rule="evenodd" fill-opacity="0.85">
        <g id="New-to-MacAppStudio" transform="translate(-674.000000, -4210.000000)" fill="#000000" fill-rule="nonzero">
            <g id="spotify-1" transform="translate(674.000000, 4210.000000)">
                <path d="M23.6940825,0 C10.6084818,0 0,10.7450922 0,23.999566 C0,37.2554646 10.6084818,48 23.6940825,48 C36.7802653,48 47.3881651,37.2554809 47.3881651,23.999566 C47.3881651,10.7459438 36.780815,0.00114635978 23.6937915,0.00114635978 L23.6940825,0 Z M34.5600384,34.614268 C34.1344989,35.3212936 33.2251344,35.5428194 32.5293804,35.1120666 C26.9654019,31.6675502 19.9621069,30.8894503 11.7144644,32.7978609 C10.919698,32.9824412 10.1274701,32.4777482 9.94640561,31.6729872 C9.76446803,30.8679643 10.2604512,30.0655124 11.0572062,29.8821112 C20.0829297,27.7920026 27.8249692,28.6916166 34.0702637,32.5571254 C34.7662926,32.9898926 34.9869685,33.9098463 34.5597474,34.6148412 L34.5600384,34.614268 L34.5600384,34.614268 Z M37.4601424,28.0803284 C36.9242568,28.9610111 35.7874097,29.2372839 34.9190794,28.6964804 C28.5515554,24.7318115 18.8419613,23.5834374 11.3087466,25.8996737 C10.3317517,26.1985789 9.29988294,25.6408748 9.00336334,24.6530075 C8.70910724,23.6634042 9.25999668,22.6202168 10.2352778,22.3192974 C18.8402798,19.6746617 29.5375882,20.9557024 36.8515335,25.5081919 C37.720171,26.0498469 37.9946052,27.2019384 37.4598514,28.0806068 L37.4601424,28.0803284 Z M37.7091283,21.2755368 C30.0714851,16.6812216 17.4733794,16.258788 10.182344,18.5001998 C9.01156047,18.859862 7.77342138,18.1903878 7.41861644,17.0044787 C7.06381149,15.8180127 7.72419007,14.5647466 8.89583052,14.2042165 C17.2654277,11.6306552 31.1789228,12.1278805 39.9709229,17.414597 C41.0240202,18.047666 41.3694963,19.4252957 40.7453176,20.4905587 C40.1228528,21.5572465 38.759089,21.9088842 37.7094032,21.2755368 L37.7091283,21.2755368 L37.7091283,21.2755368 Z M64.4637652,22.1559411 C60.3727487,21.167779 59.6444648,20.4742477 59.6444648,19.0169132 C59.6444648,17.6401515 60.9241878,16.7136144 62.8272325,16.7136144 C64.6719918,16.7136144 66.5011815,17.4171845 68.418939,18.8656101 C68.4769495,18.9094666 68.5496728,18.926924 68.6212481,18.9154768 C68.6928397,18.9045864 68.7562179,18.8647422 68.7980928,18.8048531 L70.795639,15.9527099 C70.8776911,15.8352081 70.8553309,15.6732929 70.74471,15.5835821 C68.4622528,13.7284936 65.892039,12.8265868 62.8878137,12.8265868 C58.4705771,12.8265868 55.3851403,15.5116398 55.3851403,19.3533862 C55.3851403,23.4731085 58.0467351,24.9318513 62.6461842,26.057855 C66.5609219,26.971209 67.2215915,27.7364205 67.2215915,29.1043061 C67.2215915,30.6200721 65.8855395,31.5623799 63.7354976,31.5623799 C61.3475124,31.5623799 59.3997634,30.7476129 57.2208456,28.8363363 C57.1668124,28.7890408 57.0926663,28.7675711 57.0242114,28.7715834 C56.9520539,28.7775936 56.8861212,28.8114112 56.8403013,28.8673044 L54.6005597,31.5672601 C54.5066241,31.6793086 54.5185076,31.8466771 54.6271721,31.9435609 C57.1622854,34.2359857 60.280252,35.4468364 63.6449734,35.4468364 C68.4048244,35.4468364 71.4806839,32.8125016 71.4806839,28.7351946 C71.4891456,25.2932494 69.4548336,23.3874263 64.4722857,22.159675 L64.4637652,22.1559411 L64.4637652,22.1559411 Z M82.2492501,18.0691685 C80.1860784,18.0691685 78.4938149,18.8922548 77.0983619,20.5788284 L77.0983619,18.6804566 C77.0983619,18.5305783 76.978396,18.408491 76.8307021,18.408491 L73.1675047,18.408491 C73.019536,18.408491 72.8998449,18.5305783 72.8998449,18.6804566 L72.8998449,39.774017 C72.8998449,39.9238954 73.0195198,40.0459827 73.1675047,40.0459827 L76.8307021,40.0459827 C76.978396,40.0459827 77.0983619,39.9239117 77.0983619,39.774017 L77.0983619,33.115681 C78.4941059,34.7022429 80.1866443,35.4774769 82.2492501,35.4774769 C86.0827765,35.4774769 89.963584,32.4883602 89.963584,26.7743299 C89.9692365,21.0588748 86.0873196,18.0688901 82.2535023,18.0688901 L82.2492501,18.0691685 Z M85.7039298,26.7743299 C85.7039298,29.6840858 83.9344321,31.7145673 81.4007093,31.7145673 C78.8958786,31.7145673 77.006415,29.5917874 77.006415,26.7743299 C77.006415,23.9571671 78.8958786,21.8341088 81.4007093,21.8341088 C83.8934141,21.833814 85.7042208,23.9110179 85.7042208,26.7740351 L85.7039298,26.7743299 L85.7039298,26.7743299 Z M99.9102582,18.0691685 C94.9732716,18.0691685 91.1055016,21.919791 91.1055016,26.8365117 C91.1055016,31.6996483 94.9466753,35.5098534 99.8497094,35.5098534 C104.804238,35.5098534 108.683875,31.6721356 108.683875,26.7743135 C108.683875,21.8934083 104.830252,18.0697417 99.9099672,18.0697417 L99.9102582,18.0691685 L99.9102582,18.0691685 Z M99.9102582,31.7435047 C97.2842975,31.7435047 95.3045845,29.6063953 95.3045845,26.7728887 C95.3045845,23.927329 97.2158425,21.8624566 99.8496932,21.8624566 C102.49263,21.8624566 104.485633,23.9995496 104.485633,26.8350706 C104.485633,29.6800571 102.561667,31.7435047 99.9105169,31.7435047 L99.9102582,31.7435047 L99.9102582,31.7435047 Z M119.226425,18.4085074 L115.195407,18.4085074 L115.195407,14.2340382 C115.195407,14.0844383 115.076007,13.962351 114.928038,13.962351 L111.265407,13.962351 C111.117147,13.962351 110.996906,14.0844383 110.996906,14.2340382 L110.996906,18.4085074 L109.235606,18.4085074 C109.088203,18.4085074 108.968787,18.5305783 108.968787,18.680473 L108.968787,21.8693512 C108.968787,22.0189511 109.088203,22.1413168 109.235606,22.1413168 L110.996906,22.1413168 L110.996906,30.3925197 C110.996906,33.7269855 112.635395,35.4175878 115.866828,35.4175878 C117.180811,35.4175878 118.270949,35.1427399 119.298307,34.5526594 C119.381766,34.5053638 119.433536,34.4142446 119.433536,34.3173772 L119.433536,31.2806702 C119.433536,31.1869471 119.38542,31.098399 119.306213,31.0494003 C119.226425,30.9986657 119.127121,30.9960945 119.045344,31.0370687 C118.339679,31.3967473 117.657538,31.5626747 116.895011,31.5626747 C115.7197,31.5626747 115.195407,31.022166 115.195407,29.8107585 L115.195407,22.1427743 L119.226425,22.1427743 C119.374393,22.1427743 119.493519,22.020687 119.493519,21.8708087 L119.493519,18.6822089 C119.499177,18.5323306 119.380343,18.4102433 119.230402,18.4102433 L119.226425,18.4085074 L119.226425,18.4085074 Z M133.271494,18.4248348 L133.271494,17.9121172 C133.271494,16.4037861 133.842448,15.7311677 135.123044,15.7311677 C135.886687,15.7311677 136.500114,15.8847799 137.187073,16.1169178 C137.271679,16.1438736 137.35994,16.1303957 137.428702,16.0790879 C137.499437,16.0277801 137.539339,15.945537 137.539339,15.8584136 L137.539339,12.7317174 C137.539339,12.6122012 137.463512,12.5064577 137.349754,12.4711989 C136.624009,12.2525226 135.695421,12.0281309 134.305077,12.0281309 C130.921681,12.0281309 129.133235,13.9580275 129.133235,17.6071691 L129.133235,18.3924256 L127.373357,18.3924256 C127.225663,18.3924256 127.104565,18.5145129 127.104565,18.6641128 L127.104565,21.8693348 C127.104565,22.0189347 127.225663,22.1413004 127.373357,22.1413004 L129.133235,22.1413004 L129.133235,34.8684487 C129.133235,35.0183271 129.252635,35.1404144 129.400345,35.1404144 L133.063542,35.1404144 C133.211511,35.1404144 133.332043,35.0183271 133.332043,34.8684487 L133.332043,22.1421848 L136.752204,22.1421848 L141.991369,34.8661888 C141.396632,36.2031227 140.811774,36.4690781 140.013354,36.4690781 C139.367963,36.4690781 138.688345,36.2739022 137.993431,35.8887253 C137.928081,35.8523202 137.850555,35.84631 137.780112,35.8683856 C137.710218,35.8933108 137.651383,35.9460433 137.621666,36.0148249 L136.380132,38.7738181 C136.32099,38.9042247 136.371644,39.0572801 136.495571,39.124899 C137.791704,39.8359204 138.961679,40.139411 140.40777,40.139411 C143.112647,40.139411 144.60771,38.8632342 145.925638,35.4298866 L152.280696,18.796239 C152.31266,18.7125547 152.303057,18.61798 152.252402,18.5437614 C152.202072,18.4700996 152.120844,18.4256864 152.031985,18.4256864 L148.218539,18.4256864 C148.104265,18.4256864 148.002067,18.4993318 147.964752,18.6079576 L144.058243,29.9104754 L139.779372,18.6005062 C139.740342,18.4953195 139.640182,18.42567 139.52927,18.42567 L133.270653,18.42567 L133.271494,18.4248348 L133.271494,18.4248348 Z M125.128523,18.4085074 L121.465325,18.4085074 C121.31734,18.4085074 121.196825,18.5305783 121.196825,18.680473 L121.196825,34.8684651 C121.196825,35.0183435 121.31734,35.1404308 121.465325,35.1404308 L125.128523,35.1404308 C125.276217,35.1404308 125.397024,35.0183435 125.397024,34.8684651 L125.397024,18.681603 C125.397183,18.6093698 125.368904,18.540053 125.318449,18.4890055 C125.267994,18.437958 125.199528,18.409393 125.128215,18.4096373 L125.128523,18.4085074 Z M123.317716,11.0377088 C121.866532,11.0377088 120.688942,12.2276138 120.688942,13.6975418 C120.688942,15.1683214 121.866823,16.359684 123.317732,16.359684 C124.768366,16.359684 125.944792,15.1683214 125.944792,13.6975418 C125.944792,12.2279086 124.767784,11.0377088 123.319155,11.0377088 L123.317716,11.0377088 L123.317716,11.0377088 Z M155.408558,23.6132428 C153.958781,23.6132428 152.830729,22.433917 152.830729,21.0018352 C152.830729,19.5697534 153.97351,18.3769661 155.422139,18.3769661 C156.871948,18.3769661 158,19.5559971 158,20.9869325 C158,22.4190307 156.856912,23.6132428 155.408299,23.6132428 L155.408558,23.6132428 L155.408558,23.6132428 Z M155.422705,18.6366166 C154.102239,18.6366166 153.103174,19.6998653 153.103174,21.0018352 C153.103174,22.3032483 154.095157,23.3521675 155.409415,23.3521675 C156.72959,23.3521675 157.729802,22.2897868 157.729802,20.9869325 C157.729802,19.6855358 156.736671,18.6366166 155.423853,18.6366166 L155.422705,18.6366166 L155.422705,18.6366166 Z M155.994273,21.2554591 L156.723414,22.289492 L156.108596,22.289492 L155.452146,21.3408793 L154.887724,21.3408793 L154.887724,22.289492 L154.373067,22.289492 L154.373067,19.5485458 L155.579792,19.5485458 C156.208482,19.5485458 156.621863,19.8743904 156.621863,20.4229399 C156.624676,20.8723129 156.367218,21.1468661 155.996553,21.2554755 L155.994273,21.2554755 L155.994273,21.2554591 Z M155.558548,20.0188481 L154.887385,20.0188481 L154.887385,20.8857908 L155.558548,20.8857908 C155.893531,20.8857908 156.093544,20.7198471 156.093544,20.4518937 C156.093544,20.1698892 155.892674,20.0188644 155.558806,20.0188644 L155.558548,20.0188644 L155.558548,20.0188481 Z" id="Shape"></path>
            </g>
        </g>
    </g>
</svg>