<?xml version="1.0" encoding="UTF-8"?>
<svg width="105px" height="36px" viewBox="0 0 105 36" version="1.1" xmlns="http://www.w3.org/2000/svg" xmlns:xlink="http://www.w3.org/1999/xlink">
    <title>uber-2</title>
    <g id="Page-1" stroke="none" stroke-width="1" fill="none" fill-rule="evenodd" fill-opacity="0.85">
        <g id="New-to-MacAppStudio" transform="translate(-477.000000, -4213.000000)" fill="#000000" fill-rule="nonzero">
            <g id="uber-2" transform="translate(477.000000, 4213.000000)">
                <path d="M6.04100744,25.7107376 C6.48472605,26.8737169 7.09904467,27.868095 7.88407658,28.6938718 C8.66910848,29.5197606 9.59913907,30.1517635 10.6741683,30.5899924 C11.7493109,31.0282214 12.9182494,31.2472799 14.1810973,31.2472799 C15.4098478,31.2472799 16.5616811,31.0197186 17.6368236,30.564596 C18.7119662,30.1094733 19.6504928,29.4690795 20.4525167,28.6433027 C21.2545406,27.8174139 21.8774686,26.8315386 22.3211872,25.685453 C22.7649058,24.5393673 22.9867085,23.2585797 22.9867085,21.8427545 L22.9867085,0 L28.3621946,0 L28.3621946,35.3932817 L23.0379111,35.3932817 L23.0379111,32.1067323 C21.8433712,33.3538444 20.4354114,34.314547 18.8142582,34.9888401 C17.1929917,35.6629094 15.4439452,36 13.5667787,36 C11.6554016,36 9.87214439,35.6713003 8.21678058,35.0140128 C6.56153004,34.3567253 5.12796889,33.4214192 3.91643696,32.2078707 C2.70490503,30.9943222 1.74915984,29.5366543 1.04954122,27.8343076 C0.349809312,26.1320728 0,24.2360641 0,22.1460577 L0,0 L5.37548616,0 L5.37548616,21.8427545 C5.37548616,23.2585797 5.59728883,24.5477582 6.04100744,25.7107376 Z M37.6280633,0 L37.6280633,12.8932397 C38.8226032,11.7134786 40.2049617,10.7781725 41.7749122,10.0870976 C43.3448627,9.39602271 45.0514292,9.05054121 46.8943851,9.05054121 C48.8057622,9.05054121 50.5974021,9.40441362 52.2698712,10.1122703 C53.9422271,10.820127 55.392667,11.7808296 56.6214175,12.9943781 C57.850168,14.2079266 58.8229053,15.6404218 59.5396292,17.2920874 C60.2563531,18.9438649 60.6146585,20.6966688 60.6146585,22.5506111 C60.6146585,24.4044416 60.2563531,26.1488546 59.5396292,27.7836265 C58.8229053,29.4185103 57.850168,30.8427265 56.6214175,32.0560512 C55.392667,33.2695998 53.9422271,34.2303024 52.2698712,34.938159 C50.5974021,35.6460157 48.8056489,35.9998881 46.8943851,35.9998881 C45.0513159,35.9998881 43.3363667,35.6544066 41.7493109,34.9633317 C40.162255,34.2723688 38.7714005,33.3369507 37.5768606,32.1571896 L37.5768606,35.3931698 L32.4573878,35.3931698 L32.4573878,0 L37.6280633,0 Z M38.2167806,26.0393254 C38.6774912,27.11806 39.3175244,28.0618689 40.1366537,28.870864 C40.955783,29.679859 41.9114149,30.3203647 43.0035494,30.7922692 C44.0957973,31.2641736 45.2732319,31.5001259 46.5360797,31.5001259 C47.7648303,31.5001259 48.9251595,31.2641736 50.0172941,30.7922692 C51.1094287,30.3203647 52.0564513,29.6799709 52.8587018,28.870864 C53.6607257,28.0619808 54.3006457,27.11806 54.7784617,26.0393254 C55.2562776,24.9607026 55.4951856,23.7978351 55.4951856,22.5506111 C55.4951856,21.3033871 55.2562776,20.1320169 54.7784617,19.0365004 C54.3006457,17.940984 53.6607257,16.9887842 52.8587018,16.1797891 C52.0565646,15.3709059 51.109542,14.7387912 50.0172941,14.2837804 C48.9250463,13.8287696 47.764717,13.6010964 46.5360797,13.6010964 C45.3074425,13.6010964 44.147,13.8286577 43.0548654,14.2837804 C41.9627308,14.738903 41.0070989,15.3709059 40.1878564,16.1797891 C39.3688404,16.9887842 38.7203111,17.940984 38.2424952,19.0365004 C37.7646792,20.1320169 37.5257712,21.3033871 37.5257712,22.5506111 C37.5257712,23.7978351 37.7560699,24.9607026 38.2167806,26.0393254 L38.2167806,26.0393254 Z M63.5323037,17.3427684 C64.2148171,15.7247783 65.1535702,14.3006741 66.3479968,13.0703437 C67.5424234,11.8400134 68.9589926,10.8709199 70.5972511,10.1630632 C72.2355096,9.45520656 74.0102707,9.10133415 75.9215346,9.10133415 C77.7987011,9.10133415 79.5393649,9.43842475 81.143526,10.1124941 C82.7475739,10.7866752 84.1298191,11.7220933 85.2902617,12.9187481 C86.4507042,14.115291 87.3552468,15.5311163 88.0035494,17.1658882 C88.6520787,18.800772 88.9762867,20.5788605 88.9762867,22.5002657 L88.9762867,24.168825 L67.7303553,24.168825 C67.9010686,25.2137723 68.2423819,26.1828658 68.7542952,27.0759936 C69.2663218,27.9692334 69.9061285,28.7445529 70.6740551,29.4018404 C71.4419816,30.0592398 72.3123136,30.5733225 73.2850508,30.9439767 C74.257788,31.3147428 75.2901106,31.5002377 76.3823585,31.5002377 C79.4882755,31.5002377 81.9968659,30.23612 83.9081297,27.7079965 L87.6453574,30.4382849 C86.3484122,32.1574134 84.7443643,33.5057757 82.8331005,34.4832601 C80.9217234,35.4607446 78.7715516,35.9495427 76.3824718,35.9495427 C74.4369973,35.9495427 72.6196428,35.6123402 70.9301816,34.9382709 C69.2407205,34.2642016 67.7731752,33.3202808 66.5274327,32.1067323 C65.2816901,30.8931838 64.3004569,29.4690795 63.583733,27.8343076 C62.867009,26.1995357 62.5085903,24.4213353 62.5085903,22.500042 C62.5085903,20.679887 62.8497904,18.9607585 63.5323037,17.3427684 L63.5323037,17.3427684 Z M70.7252577,15.3455095 C69.2747045,16.5421643 68.3105766,18.1348698 67.8327606,20.123626 L83.7545218,20.123626 C83.3108032,18.1348698 82.3636673,16.5421643 80.9131141,15.3455095 C79.4625609,14.1489665 77.7646037,13.5506391 75.8192425,13.5506391 C73.8737681,13.5506391 72.1758109,14.1489665 70.7252577,15.3455095 L70.7252577,15.3455095 Z M98.6518899,15.9269432 C97.5597553,17.1067043 97.0136314,18.7078007 97.0136314,20.7303443 L97.0136314,35.3933936 L91.8428426,35.3933936 L91.8428426,9.60680223 L96.9623154,9.60680223 L96.9623154,12.7922132 C97.6108447,11.747266 98.4555753,10.9213772 99.4965072,10.3146589 C100.537439,9.70782871 101.774686,9.40441362 103.208247,9.40441362 L105,9.40441362 L105,14.1572455 L102.849828,14.1572455 C101.143375,14.1573574 99.7440245,14.7471821 98.6518899,15.9269432 Z" id="Shape"></path>
            </g>
        </g>
    </g>
</svg>