<?xml version="1.0" encoding="UTF-8"?>
<svg width="60px" height="60px" viewBox="0 0 60 60" version="1.1" xmlns="http://www.w3.org/2000/svg" xmlns:xlink="http://www.w3.org/1999/xlink">
    <title>1</title>
    <g id="1" stroke="none" stroke-width="1" fill="none" fill-rule="evenodd">
        <g id="iconfinder_571_-_Handshake_1419521" transform="translate(1.000000, 1.000000)">
            <g id="Layer_x0020_1" transform="translate(5.686127, 14.162255)" fill="#000000" fill-rule="nonzero">
                <g id="_252504128">
                    <path d="M25.7676726,26.1823034 C26.1270308,26.0656755 26.3236456,25.6802623 26.2068168,25.3215221 C26.0899879,24.962782 25.7039107,24.7665052 25.3445526,24.8831332 C24.5474333,25.1443411 23.6806156,25.3997568 22.9000568,25.4925407 C22.2216551,25.5731663 21.6223675,25.5330555 21.2418525,25.2544695 C19.9257312,24.2910028 12.1178383,17.7522093 10.4071232,16.317916 L13.1990319,5.62149378 L14.0403458,5.2984865 C17.8923512,5.4345797 19.8733412,5.23597973 21.3549641,5.08739123 C23.9270437,4.82945024 24.9172688,4.73043635 32.4491627,7.06961939 L36.9663111,17.6750242 C36.8194239,17.7725565 36.6723678,17.8717723 36.5251421,17.9724705 C36.2453677,18.163796 35.9351296,18.3824353 35.6035033,18.620237 C35.2973809,18.8401893 35.2278504,19.26632 35.4481816,19.5719159 C35.6685129,19.8775118 36.0953776,19.9469228 36.4015,19.7269705 C36.6754047,19.5305928 36.9705964,19.3233375 37.2963521,19.1005563 C37.5803776,18.9063001 37.865482,18.7166923 38.1519702,18.5329441 C38.4557987,18.3654628 38.5894956,17.9922402 38.4507378,17.66644 L37.8198709,17.934215 L38.4491525,17.6668771 L33.6023033,6.287397 C33.5334814,6.08936922 33.3747527,5.92535662 33.1589758,5.85803371 L32.9545007,6.51122273 L33.1580315,5.85894303 C25.0884928,3.34153448 24.0305041,3.44765012 21.2211575,3.72936768 C19.7670582,3.87516056 17.8194701,4.07042702 14.0086902,3.93221151 C13.9014765,3.91941382 13.7896408,3.93174001 13.6818197,3.97313049 L13.6829667,3.97612785 L12.4436322,4.45196731 C12.2156762,4.51501292 12.0266184,4.69421464 11.9626885,4.93912235 L12.6260439,5.11168922 L11.9646114,4.94060395 L8.99002015,16.336936 C8.89815619,16.5978744 8.97122911,16.8995978 9.19587838,17.0879935 L9.63684426,16.5640277 L9.19766588,17.0879935 C9.22553201,17.1113661 18.9066856,25.2382904 20.4331673,26.3557681 C21.1388279,26.8723917 22.067387,26.9685434 23.0607483,26.8504671 C23.95213,26.7445158 24.9015666,26.4660642 25.7677126,26.1822577 L25.7676726,26.1823034 Z" id="_252504320"></path>
                    <path d="M19.4491491,5.17465755 C19.659123,4.86168613 19.575188,4.43794727 19.2616765,4.22833359 C18.948166,4.01872077 18.5236971,4.1025115 18.3137223,4.41548377 C18.3006664,4.43494977 13.7109868,11.1854391 17.6436874,13.0266331 L17.6425403,13.029058 C17.6664593,13.0402392 17.6906819,13.0499048 17.7151407,13.0581223 C19.2682891,13.7042053 20.461608,12.8276285 21.7628792,11.8714406 C23.6071679,10.5162314 25.7329569,8.95419725 29.6147824,13.8338657 L29.6137366,13.8347076 C29.6397472,13.8674091 29.6681531,13.897046 29.698482,13.9236856 C30.1641771,14.3993232 34.8073626,19.1581507 35.329429,20.3742761 C35.4243966,20.5955758 35.4479442,20.846983 35.4001738,21.0866709 C35.3568565,21.3039963 35.2536911,21.5073114 35.0911166,21.6621975 C34.9235823,21.8217987 34.6855398,21.9364728 34.3745254,21.9722724 C33.9545433,22.0206007 33.417291,21.9315891 32.7556271,21.6398349 L27.4307733,16.3241643 C27.1631103,16.0569616 26.7290596,16.0569616 26.4613966,16.3241643 C26.1937336,16.5913669 26.1937336,17.0246712 26.4613966,17.2918739 L31.856122,22.6772875 C31.9136423,22.7379082 31.9833751,22.7889642 32.0637686,22.8264148 L32.0648819,22.8239899 C33.0322363,23.274537 33.8568826,23.4077346 34.529849,23.3302407 C35.1589961,23.2577989 35.6612912,23.0060546 36.0337085,22.6512546 C36.4111155,22.2917394 36.6480115,21.8322677 36.744429,21.3486113 C36.8443222,20.8475804 36.7921658,20.3151964 36.5879942,19.8395879 C35.9605009,18.3779551 31.0575445,13.3586555 30.6662754,12.9594023 C25.9770444,7.07979182 23.2876894,9.05532199 20.9541708,10.770084 C19.9827718,11.4838261 19.0916986,12.1385266 18.2453214,11.8000344 C18.2384392,11.7965319 18.2314895,11.793063 18.2244386,11.7897626 L18.2238314,11.7910423 L18.2093585,11.7850139 C15.7618636,10.6129772 19.4387101,5.19024989 19.4491643,5.17462125 L19.4491491,5.17465755 Z" id="_252504224"></path>
                    <path d="M24.8057167,19.3045045 C24.5276964,19.0491229 24.0948273,19.0670732 23.839005,19.3446152 C23.5831835,19.6221575 23.6011647,20.0542821 23.8791848,20.3096645 L28.9113815,24.9467853 C29.3757947,25.3748013 30.1582053,25.6537918 30.9101522,25.6523102 C31.3458558,25.6514345 31.781628,25.561345 32.1575158,25.3588048 C32.5673094,25.1380107 32.9025124,24.793516 33.0941675,24.2997956 C33.3152408,23.7301962 33.3286342,22.9716264 33.0016968,21.9924712 C32.8833838,21.6352126 32.4973066,21.4412935 32.1394326,21.559403 C31.7815586,21.6775126 31.5873054,22.0629258 31.7056184,22.4201844 C31.9215307,23.0668396 31.9334733,23.514326 31.8195459,23.8078912 C31.7569989,23.9690415 31.6459054,24.0824026 31.50951,24.155888 C31.3392097,24.2476608 31.1286282,24.2885125 30.9101522,24.2889505 C30.4861889,24.2897924 30.0666455,24.1524193 29.8379132,23.9416268 L24.8057165,19.304506 L24.8057167,19.3045045 Z" id="_252504296"></path>
                    <path d="M23.3083696,22.4082479 C23.0392225,22.1440084 22.606386,22.147579 22.3416922,22.4162633 C22.0769975,22.6849476 22.0805742,23.1170397 22.3497214,23.3812783 L25.8659763,26.7915296 L26.3453004,26.3050144 L25.865403,26.7936853 C25.927174,26.8541713 25.9975481,26.9005126 26.0724763,26.9329444 C26.5849291,27.2069169 29.8676693,28.7933941 30.232623,24.6643452 C30.2651448,24.28789 29.985775,23.9563284 29.6086713,23.9238624 C29.2315676,23.8913966 28.8994348,24.170286 28.8669129,24.5467411 C28.6847711,26.6077455 27.1145524,25.9339775 26.7575593,25.7528581 L23.3083654,22.4082437 L23.3083696,22.4082479 Z" id="_252504416"></path>
                    <g id="Group">
                        <path d="M6.15940132,0.0693875405 L12.1327055,1.66717854 C12.6790633,1.81334182 13.1156812,2.16884931 13.3788181,2.62381039 L13.3788181,2.62647097 C13.6421966,3.08190167 13.7327109,3.63651563 13.5868357,4.18014763 L10.0142739,17.4902395 C9.86785887,18.0356918 9.51173894,18.4715247 9.0559941,18.734209 L9.05332894,18.734209 C8.59704683,18.9971346 8.04150999,19.0874933 7.49694147,18.9418689 L1.52363724,17.3440779 C0.977279514,17.1979146 0.540661543,16.8424071 0.277524691,16.3874461 L0.277524691,16.3847855 C0.0141461935,15.9293214 -0.0763681535,15.3747408 0.0695070749,14.8311088 L3.64206885,1.52101697 C3.78848392,0.975598843 4.14460385,0.539731744 4.60034869,0.27704742 L4.60301385,0.27704742 C5.05926254,0.0141218656 5.6148328,-0.0762368199 6.15940132,0.0693875405 Z M11.7792172,2.98776864 L5.80591293,1.38997763 C5.62299478,1.34104323 5.43724371,1.37051164 5.28519451,1.45746872 L5.28586924,1.45861378 C5.13301027,1.54671585 5.01368523,1.69230685 4.96493619,1.87389932 L1.39237442,15.1839912 C1.34335571,15.3665948 1.37290865,15.5520264 1.45998177,15.7037807 L1.4611288,15.7031072 C1.54938265,15.8557033 1.69522446,15.9748231 1.87712976,16.0234883 L7.85043399,17.6212793 C8.03335215,17.6702137 8.21913749,17.6407116 8.37115241,17.5537882 L8.37047768,17.5526431 C8.52333665,17.4645411 8.64266169,17.3189501 8.69141073,17.1373576 L12.2639725,3.82726575 C12.3129912,3.64466216 12.2834383,3.45923054 12.1963651,3.30747619 L12.1952181,3.30814976 C12.1069643,3.15555367 11.9611225,3.03643384 11.7792172,2.98776864 L11.7792172,2.98776864 Z" id="_252503840"></path>
                        <path d="M4.86771026,12.1487775 C5.3941305,12.1487775 5.87082311,12.3618591 6.21584532,12.7062862 C6.56086583,13.0507134 6.77431448,13.5265862 6.77431448,14.0521028 C6.77431448,14.5776178 6.56086583,15.0534906 6.21584532,15.3979195 C5.87082482,15.7423466 5.39413221,15.9554282 4.86771026,15.9554282 C4.34129003,15.9554282 3.86459741,15.7423466 3.5195752,15.3979195 C3.1745547,15.0534923 2.96110605,14.5776195 2.96110605,14.0521028 C2.96110605,13.5265879 3.1745547,13.0507151 3.5195752,12.7062862 C3.8645957,12.3618591 4.34128831,12.1487775 4.86771026,12.1487775 Z M5.24646692,13.6739941 C5.14961065,13.5773044 5.01564376,13.517458 4.86771026,13.517458 C4.71977676,13.517458 4.58581073,13.5773041 4.48895361,13.6739941 C4.39209734,13.7706838 4.33214776,13.9044203 4.33214776,14.0520994 C4.33214776,14.1997785 4.392097,14.3335142 4.48895361,14.4302047 C4.58580987,14.5268944 4.71977676,14.5867409 4.86771026,14.5867409 C5.01564376,14.5867409 5.1496098,14.5268948 5.24646692,14.4302047 C5.34332318,14.333515 5.40327276,14.1997785 5.40327276,14.0520994 C5.40327276,13.9044203 5.34332352,13.7706847 5.24646692,13.6739941 Z" id="_252503552"></path>
                    </g>
                    <g id="Group" transform="translate(31.898984, 0.865609)">
                        <path d="M7.44241281,1.42284048 L1.77772969,3.89919712 C1.60661961,3.97399637 1.4809518,4.1136602 1.41651634,4.2782793 C1.35201268,4.44299935 1.34975235,4.63142924 1.42532151,4.80372665 L6.96230939,17.4260557 C7.0372375,17.5968715 7.17714193,17.7223232 7.34204463,17.7866479 C7.50704843,17.8510406 7.69580294,17.853297 7.86839716,17.7778578 L13.5330803,15.3015012 C13.7041904,15.226702 13.8298582,15.0870381 13.8942936,14.922419 C13.9587973,14.757699 13.9610239,14.5692357 13.8854885,14.3969717 L8.34850058,1.77464261 C8.27357248,1.6038268 8.13366804,1.4783751 7.96876535,1.41401624 C7.80376154,1.34965722 7.61497362,1.34740077 7.44241281,1.42280626 L7.44241281,1.42284048 Z M1.23147307,2.64811897 L6.8961562,0.171762333 C7.41431077,-0.0547237695 7.97729836,-0.0493688005 8.46684533,0.141620359 C8.95649255,0.33271063 9.37421674,0.71071498 9.60173226,1.22935484 L15.1387201,13.8516839 C15.3655964,14.3688798 15.3602999,14.9309668 15.168914,15.4196719 C14.9775289,15.908477 14.5988733,16.3254828 14.0793314,16.5526071 L8.41464829,19.0289637 C7.89649372,19.2554498 7.33354041,19.2501624 6.84395916,19.0591057 C6.35431193,18.8680496 5.93658775,18.4900453 5.70907223,17.9713969 L0.172084347,5.34906779 C-0.0547919242,4.83180431 -0.0494954253,4.26978492 0.141890448,3.78107985 C0.333275635,3.29227469 0.711931176,2.87526888 1.23147307,2.64814463 L1.23147307,2.64811897 Z" id="_252503504"></path>
                        <path d="M10.1965751,13.2720352 C10.0500589,13.2942629 9.92702264,13.3729353 9.84662914,13.4819851 C9.7652574,13.5923145 9.7262244,13.7346387 9.74876002,13.8825872 C9.77102596,14.0288514 9.84983394,14.1516761 9.95907155,14.2319314 C10.0695911,14.3131295 10.2121604,14.352129 10.3603638,14.3296322 C10.50688,14.3074045 10.6299163,14.2287321 10.7103098,14.1196823 C10.7916478,14.0093528 10.8307145,13.8670287 10.8081789,13.7190802 C10.785913,13.572816 10.707105,13.4499913 10.5978674,13.369736 C10.4873478,13.2885378 10.3447785,13.2495384 10.1965751,13.2720352 Z M8.7433841,12.6746516 C9.03338048,12.2812231 9.4729299,11.9983593 9.99307849,11.9193846 C10.5115364,11.8406786 11.0138006,11.9798033 11.406595,12.2683917 C11.8007013,12.5578894 12.0840524,12.9966829 12.1631632,13.5159369 C12.2420047,14.0334699 12.1026404,14.5349037 11.8135548,14.9270226 C11.5235584,15.3204511 11.084009,15.603315 10.5638604,15.6822896 C10.0454359,15.7609956 9.54313829,15.621871 9.1503439,15.3332825 C8.75627101,15.0438182 8.47288647,14.6049914 8.39377575,14.0857373 C8.31493418,13.568171 8.45429851,13.0667363 8.7433841,12.6746516 Z" id="_252503480"></path>
                    </g>
                </g>
            </g>
            <rect id="Rectangle" x="0" y="0" width="58.4976495" height="58.3970486"></rect>
        </g>
    </g>
</svg>