<?xml version="1.0" encoding="UTF-8"?>
<svg width="60px" height="60px" viewBox="0 0 60 60" version="1.1" xmlns="http://www.w3.org/2000/svg" xmlns:xlink="http://www.w3.org/1999/xlink">
    <title>3</title>
    <g id="3" stroke="none" stroke-width="1" fill="none" fill-rule="evenodd" stroke-opacity="0.85">
        <g id="iconfinder_release-promote-startup-rocket-marketing-launch_4573410" transform="translate(17.000000, 12.000000)" stroke="#000000" stroke-width="1.7">
            <path d="M21.2310513,17.1029677 C21.2310513,17.1029677 21.2310513,7.12762619 14.8863081,0.584083353 C14.5201214,0.210335442 14.0208951,0 13.5,0 C12.9791049,0 12.4798786,0.210335442 12.1136919,0.584083353 C5.76894866,7.12762619 5.76894866,17.1029677 5.76894866,17.1029677 L5.76894866,24.7028755 C5.76894866,25.7797908 6.63427605,26.6528032 7.70171149,26.6528032 L19.2982885,26.6528032 C20.3657239,26.6528032 21.2310513,25.7797908 21.2310513,24.7028755 L21.2310513,17.1029677 Z" id="Path"></path>
            <path d="M5.79828851,15.928201 C3.11847091,16.9412195 1.00410109,19.074367 0,21.777984 L0,24.7028755 L2.78728606,24.7028755" id="Path" stroke-linecap="round" stroke-linejoin="round"></path>
            <path d="M21.2017115,15.928201 C23.8815291,16.9412195 25.9958989,19.074367 27,21.777984 L27,24.7028755 L24.2127139,24.7028755" id="Path" stroke-linecap="round" stroke-linejoin="round"></path>
            <path d="M11.2665037,29.5776947 C11.2665037,29.5776947 11.8606357,37 1.60268949,37" id="Path" stroke-linecap="round" stroke-linejoin="round"></path>
            <path d="M15.7334963,29.5776947 C15.7334963,29.5776947 15.1393643,37 25.3973105,37" id="Path" stroke-linecap="round" stroke-linejoin="round"></path>
            <path d="M10.6008557,12.1282471 C10.6008557,11.2883352 11.8991443,10.6093756 13.5,10.6093756 C15.1008557,10.6093756 16.3991443,11.2883352 16.3991443,12.1282471" id="Path" stroke-linecap="round" stroke-linejoin="round"></path>
        </g>
    </g>
</svg>