<?xml version="1.0" encoding="UTF-8"?>
<svg width="60px" height="60px" viewBox="0 0 60 60" version="1.1" xmlns="http://www.w3.org/2000/svg" xmlns:xlink="http://www.w3.org/1999/xlink">
    <title>10</title>
    <g id="10" stroke="none" stroke-width="1" fill="none" fill-rule="evenodd" stroke-linecap="round" stroke-linejoin="round">
        <g id="iconfinder_logo_brand_brands_logos_apple_ios_1907149" transform="translate(14.000000, 11.000000)" stroke="#000000" stroke-width="1.7">
            <path d="M16.72,8.34562294 C20.6753101,7.54049044 23.4893905,4.0289393 23.408,0 C19.4526899,0.805132505 16.6386095,4.31668364 16.72,8.34562294 Z" id="_Path_"></path>
            <path d="M26.752,20.0294951 C26.7817304,17.0778257 28.37116,14.3614019 30.932,12.8856418 C29.2014392,11.0392348 26.7768936,9.99847311 24.244,10.0145595 C21.2344,10.0145595 19.94696,11.6838721 16.72,11.6838721 C13.49304,11.6838721 12.2056,10.0145595 9.196,10.0145595 C6.1864,10.0145595 0,11.6838721 0,20.8640574 C0,30.0442426 6.27,38.3898655 9.196,38.3898655 C13.07504,38.3898655 13.86088,36.7207409 16.72,36.7207409 C19.57912,36.7207409 20.36496,38.3898655 24.244,38.3898655 C26.40088,38.3898655 29.81176,33.5494042 31.768,27.5405557 C28.7108216,26.3011676 26.7221836,23.3233405 26.752,20.0294951 Z" id="_Path_2"></path>
        </g>
    </g>
</svg>