<?xml version="1.0" encoding="UTF-8"?>
<svg width="60px" height="60px" viewBox="0 0 60 60" version="1.1" xmlns="http://www.w3.org/2000/svg" xmlns:xlink="http://www.w3.org/1999/xlink">
    <title>9</title>
    <g id="9" stroke="none" stroke-width="1" fill="none" fill-rule="evenodd" fill-opacity="0.85">
        <g id="iconfinder_android_robot_279386" transform="translate(14.000000, 10.000000)" fill="#000000">
            <path d="M0,26.2623049 L0,18.1311856 C0,16.334156 1.2865964,14.77831 3.00472212,14.77831 C4.73283716,14.77831 6.01144196,16.3420635 6.01144196,18.1311856 L6.01144196,26.2623049 C6.01144196,28.0613114 4.72284737,29.6151794 3.00472212,29.6151794 C1.27660732,29.6151794 0,28.053404 0,26.2623049 Z M4.5130767,26.2623049 L4.5130767,18.1311856 C4.5130767,17.0300355 3.75790049,16.2610096 3.00472212,16.2610096 C2.24155468,16.2610096 1.49836538,17.0399198 1.49836538,18.1311856 L1.49836538,26.2623049 C1.49836538,27.3654319 2.25154375,28.132481 3.00472212,28.132481 C3.76788956,28.132481 4.5130767,27.3555476 4.5130767,26.2623049 Z" id="path3332"></path>
            <path d="M26.988558,26.2800967 L26.988558,18.1410711 C26.988558,16.3440403 28.2751552,14.7881955 29.9932809,14.7881955 C31.7213952,14.7881955 33,16.3519478 33,18.1410711 L33,26.2800967 C33,28.0791044 31.7114066,29.6329724 29.9932809,29.6329724 C28.2651654,29.6329724 26.988558,28.071197 26.988558,26.2800967 Z M31.5016353,26.2800967 L31.5016353,18.1410711 C31.5016353,17.0399198 30.7464588,16.2708939 29.9932809,16.2708939 C29.2301132,16.2708939 28.4869239,17.0498041 28.4869239,18.1410711 L28.4869239,26.2800967 C28.4869239,27.3832249 29.2401018,28.150274 29.9932809,28.150274 C30.7564474,28.150274 31.5016353,27.3733394 31.5016353,26.2800967 Z" id="path3336"></path>
            <path d="M12.7540871,8.85740077 C13.167636,8.85740077 13.5032689,9.5216504 13.5032689,10.3400992 C13.5032689,11.1585491 13.167636,11.8227987 12.7540871,11.8227987 C12.3405382,11.8227987 12.0049042,11.1585491 12.0049042,10.3400992 C12.0049042,9.5216504 12.3405382,8.85740077 12.7540871,8.85740077 Z" id="path3338"></path>
            <path d="M20.2459141,8.85740077 C20.659463,8.85740077 20.995097,9.5216504 20.995097,10.3400992 C20.995097,11.1585491 20.659463,11.8227987 20.2459141,11.8227987 C19.8323652,11.8227987 19.4967311,11.1585491 19.4967311,10.3400992 C19.4967311,9.5216504 19.8323652,8.85740077 20.2459141,8.85740077 Z" id="path3340"></path>
            <path d="M17.9983653,36.6471245 L17.9983653,32.5983693 L15.0016347,32.5983693 L15.0016347,36.6411938 C15.0016347,38.4402012 13.7130401,39.9940692 11.9949144,39.9940692 C10.2668001,39.9940692 8.99019278,38.4322935 8.99019278,36.6411938 L8.99019278,32.5983693 L7.70159818,32.5983693 C5.99745721,32.5983693 4.55702903,31.2817335 4.55702903,29.5875033 L4.55702903,16.2708939 L4.51107886,16.2708939 L4.51107886,14.7901724 C4.50908102,14.6794643 4.50908102,14.5687562 4.50908102,14.460025 C4.50908102,10.407315 6.67072275,6.84686247 9.93316355,4.7829464 L7.60370492,1.13748506 C7.38194758,0.791521594 7.48583328,0.332873183 7.83545206,0.115410768 C8.18507084,-0.104028512 8.64856511,-0.00122790407 8.86832497,0.344735567 L11.243734,4.06136646 C12.832002,3.31210921 14.6160553,2.89102244 16.5000006,2.89102244 C18.3339993,2.89102244 20.0741009,3.29233936 21.6324007,4.0079887 L23.9738466,0.344735567 C24.1936077,-0.00122790407 24.6571019,-0.104028512 25.0067207,0.115410768 C25.3563383,0.332873183 25.4602252,0.791521594 25.2384679,1.13748506 L22.9509623,4.7137537 C25.8178351,6.4890378 27.8576101,9.40896546 28.3630586,12.8112639 L28.4669455,13.8827611 L28.4889214,13.9816068 L28.4889214,29.5875033 C28.4889214,31.2817335 27.0484932,32.5983693 25.3443522,32.5983693 L24.0098072,32.5983693 L24.0098072,36.6471245 C24.0098072,38.4461321 22.7212138,40 21.0030881,40 C19.2749726,40 17.9983653,38.4382242 17.9983653,36.6471245 Z M22.5114426,36.6471245 L22.5114426,32.5983693 L19.4967311,32.5983693 L19.4967311,36.6471245 C19.4967311,37.7502522 20.249909,38.5173015 21.0030881,38.5173015 C21.7662558,38.5173015 22.5114426,37.7403675 22.5114426,36.6471245 Z M13.5032689,36.6411938 L13.5032689,32.5983693 L10.4885586,32.5983693 L10.4885586,36.6411938 C10.4885586,37.7443214 11.2417365,38.5113708 11.9949144,38.5113708 C12.7580821,38.5113708 13.5032689,37.7344368 13.5032689,36.6411938 Z M8.99019278,31.1156708 L8.99019278,31.0959009 L10.4885586,31.0959009 L10.4885586,31.1156708 L13.5032689,31.1156708 L13.5032689,31.0959009 L15.0016347,31.0959009 L15.0016347,31.1156708 L17.9983653,31.1156708 L17.9983653,31.0959009 L19.4967311,31.0959009 L19.4967311,31.1156708 L22.5114426,31.1156708 L22.5114426,31.0959009 L24.0098072,31.0959009 L24.0098072,31.1156708 L25.3443522,31.1156708 C26.283328,31.1156708 26.9905555,30.4019983 26.9905555,29.5875033 L26.9785694,16.2708939 L6.05539369,16.2708939 L6.05539369,29.5875033 C6.05539369,30.4019983 6.76262237,31.1156708 7.70159818,31.1156708 L8.99019278,31.1156708 Z M26.9785694,14.7901724 L26.9785694,14.0231233 C26.734835,8.67354627 22.1498365,4.37372083 16.5000006,4.37372083 C10.6883401,4.37372083 6.007447,8.91473227 6.007447,14.460025 L6.01144196,14.7130722 L6.02742419,14.7901724 L26.9785694,14.7901724 Z" id="path3342"></path>
        </g>
    </g>
</svg>