<?xml version="1.0" encoding="UTF-8"?>
<svg width="60px" height="60px" viewBox="0 0 60 60" version="1.1" xmlns="http://www.w3.org/2000/svg" xmlns:xlink="http://www.w3.org/1999/xlink">
    <title>4</title>
    <g id="4" stroke="none" stroke-width="1" fill="none" fill-rule="evenodd" fill-opacity="0.85">
        <g id="iconfinder_clipboard_note_document_3178328" transform="translate(16.000000, 13.000000)" fill="#000000" fill-rule="nonzero">
            <path d="M23.625,1.7 L21,1.7 L21,0.85 C21,0.380557963 20.6082492,0 20.125,0 L7.875,0 C7.39175084,0 7,0.380557963 7,0.85 L7,1.7 L4.375,1.7 C1.95875422,1.7 0,3.60278981 0,5.95 L0,29.75 C0,32.0972102 1.95875422,34 4.375,34 L23.625,34 C26.0412458,34 28,32.0972102 28,29.75 L28,5.95 C28,3.60278981 26.0412458,1.7 23.625,1.7 Z M8.75,1.7 L19.25,1.7 L19.25,3.4 L8.75,3.4 L8.75,1.7 Z M26.25,29.75 C26.25,31.1583261 25.0747475,32.3 23.625,32.3 L4.375,32.3 C2.92525253,32.3 1.75,31.1583261 1.75,29.75 L1.75,5.95 C1.75,4.54167389 2.92525253,3.4 4.375,3.4 L7,3.4 L7,4.25 C7,4.71944204 7.39175084,5.1 7.875,5.1 L20.125,5.1 C20.6082492,5.1 21,4.71944204 21,4.25 L21,3.4 L23.625,3.4 C25.0747475,3.4 26.25,4.54167389 26.25,5.95 L26.25,29.75 Z" id="Shape"></path>
            <path d="M20.125,10.2 L7.875,10.2 C7.39175084,10.2 7,10.580558 7,11.05 C7,11.519442 7.39175084,11.9 7.875,11.9 L20.125,11.9 C20.6082492,11.9 21,11.519442 21,11.05 C21,10.580558 20.6082492,10.2 20.125,10.2 Z" id="Path"></path>
            <path d="M20.125,15.3 L7.875,15.3 C7.39175084,15.3 7,15.680558 7,16.15 C7,16.619442 7.39175084,17 7.875,17 L20.125,17 C20.6082492,17 21,16.619442 21,16.15 C21,15.680558 20.6082492,15.3 20.125,15.3 Z" id="Path"></path>
            <path d="M20.125,20.4 L7.875,20.4 C7.39175084,20.4 7,20.780558 7,21.25 C7,21.719442 7.39175084,22.1 7.875,22.1 L20.125,22.1 C20.6082492,22.1 21,21.719442 21,21.25 C21,20.780558 20.6082492,20.4 20.125,20.4 Z" id="Path"></path>
            <path d="M14.875,25.5 L7.875,25.5 C7.39175084,25.5 7,25.880558 7,26.35 C7,26.819442 7.39175084,27.2 7.875,27.2 L14.875,27.2 C15.3582492,27.2 15.75,26.819442 15.75,26.35 C15.75,25.880558 15.3582492,25.5 14.875,25.5 Z" id="Path"></path>
        </g>
    </g>
</svg>