<?xml version="1.0" encoding="UTF-8"?>
<svg width="60px" height="60px" viewBox="0 0 60 60" version="1.1" xmlns="http://www.w3.org/2000/svg" xmlns:xlink="http://www.w3.org/1999/xlink">
    <title>15</title>
    <g id="15" stroke="none" stroke-width="1" fill="none" fill-rule="evenodd" stroke-opacity="0.85">
        <g id="iconfinder_headset-customer-service-support-listen_3209292" transform="translate(11.000000, 12.000000)" fill="#000000" fill-rule="nonzero" stroke="#000000" stroke-width="0.2">
            <path d="M38,19.5652174 C38,17.4075652 36.2242917,15.6521739 34.0416667,15.6521739 L32.4583333,15.6521739 L32.4583333,13.3043478 C32.4583333,5.96817391 26.4210833,0 19,0 C11.5789167,0 5.54166667,5.96817391 5.54166667,13.3043478 L5.54166667,15.6521739 L3.95833333,15.6521739 C1.77570833,15.6521739 0,17.4075652 0,19.5652174 L0,24.2608696 C0,26.4185217 1.77570833,28.173913 3.95833333,28.173913 L8.70833333,28.173913 L8.70833333,15.6521739 L7.125,15.6521739 L7.125,13.3043478 C7.125,6.8313913 12.452125,1.56521739 19,1.56521739 C25.547875,1.56521739 30.875,6.8313913 30.875,13.3043478 L30.875,15.6521739 L29.2916667,15.6521739 L29.2916667,28.173913 L30.875,28.173913 L30.875,32.0869565 C30.875,33.3813913 29.8094167,34.4347826 28.5,34.4347826 L20.5833333,34.4347826 L20.5833333,36 L28.5,36 C30.682625,36 32.4583333,34.2446087 32.4583333,32.0869565 L32.4583333,28.173913 L34.0416667,28.173913 C36.2242917,28.173913 38,26.4185217 38,24.2608696 L38,19.5652174 Z M7.125,26.6086957 L3.95833333,26.6086957 C2.64891667,26.6086957 1.58333333,25.5553043 1.58333333,24.2608696 L1.58333333,19.5652174 C1.58333333,18.2707826 2.64891667,17.2173913 3.95833333,17.2173913 L7.125,17.2173913 L7.125,26.6086957 Z M36.4166667,24.2608696 C36.4166667,25.5553043 35.3510833,26.6086957 34.0416667,26.6086957 L30.875,26.6086957 L30.875,17.2173913 L34.0416667,17.2173913 C35.3510833,17.2173913 36.4166667,18.2707826 36.4166667,19.5652174 L36.4166667,24.2608696 Z" id="Shape"></path>
        </g>
    </g>
</svg>