<?xml version="1.0" encoding="UTF-8"?>
<svg width="60px" height="60px" viewBox="0 0 60 60" version="1.1" xmlns="http://www.w3.org/2000/svg" xmlns:xlink="http://www.w3.org/1999/xlink">
    <title>2</title>
    <g id="2" stroke="none" stroke-width="1" fill="none" fill-rule="evenodd">
        <g id="iconfinder_business-and-marketing-outline-2-13_1954609" transform="translate(9.000000, 10.000000)" fill="#000000" fill-rule="nonzero">
            <g id="Layer_2" transform="translate(4.788000, 0.000000)">
                <path d="M24.1452,32.7755374 L24.624,33.4583611 L24.624,33.4583611 L24.624,34.8240085 L24.624,35.5068321 L23.94,35.5068321 L23.94,40.9694217 L36.252,40.9694217 L36.252,35.5068321 L35.568,35.5068321 L35.568,33.4583611 L34.2684,33.4583611 L34.8156,25.3327591 C35.0208,23.6939822 34.6788,22.0552054 33.7896,20.6212756 L30.5064,13.5199092 C30.096,12.8370855 29.412,12.2908265 28.6596,12.017697 L28.044,11.8128499 L28.044,0 L0,0 L0,32.7755374 L24.1452,32.7755374 Z M26.676,16.1146392 C25.992,15.9780745 25.7184,16.0463568 25.2396,16.3194863 C24.7608,16.5926158 24.4188,17.0705924 24.3504,17.548569 L23.3928,22.2600525 C23.3244,22.738029 23.1876,23.2160056 22.9824,23.6256999 L22.4352,25.2644767 C21.7512,27.1763831 21.9564,29.3614189 23.1876,31.40989 L1.368,31.40989 L1.368,1.36564739 L26.676,1.36564739 L26.676,16.1146392 Z M34.2,35.5068321 L25.992,35.5068321 L25.992,34.8240085 L34.2,34.8240085 L34.2,35.5068321 Z M25.308,36.8724795 L34.884,36.8724795 L34.884,39.6037743 L25.308,39.6037743 L25.308,36.8724795 Z M24.4872,31.0001958 C23.3928,29.2248542 23.1192,27.3812302 23.7348,25.7424533 L24.3504,24.1719588 C24.5556,23.6256999 24.6924,23.1477233 24.8292,22.6014643 L25.7868,17.8899808 C25.8552,17.6851337 25.992,17.6168513 26.0604,17.548569 C26.1288,17.4802866 26.2656,17.4120042 26.4708,17.4802866 C26.676,17.548569 26.8128,17.7534161 26.8128,17.9582632 L27.36,26.0155828 L28.728,25.879018 L28.1124,17.8216984 C28.1124,17.6851337 28.044,17.6168513 28.044,17.4802866 L28.044,13.2467797 L28.2492,13.3150621 C28.728,13.4516268 29.07,13.7930386 29.3436,14.2027329 L32.6268,21.3040993 C33.3108,22.4648996 33.6528,23.8988293 33.4476,25.1961943 L32.9004,33.4583611 L26.334,33.4583611 L24.4872,31.0001958 Z" id="Shape"></path>
                <path d="M17.784,13.5881915 C17.784,12.4956736 17.1,11.4714381 16.1424,10.8568968 C15.5952,10.5154849 15.048,10.3106378 14.364,10.2423554 L14.364,6.14541326 C15.2532,6.35026036 15.9372,6.82823695 16.2792,7.51106065 L17.7156,7.51106065 C17.3736,6.14541326 16.074,4.98461297 14.364,4.77976587 L14.364,2.73129478 L12.996,2.73129478 L12.996,4.77976587 C11.0808,5.05289534 9.576,6.4868251 9.576,8.12560197 C9.576,9.21811988 10.26,10.2423554 11.2176,10.8568968 C11.6964,11.1983086 12.312,11.4031557 12.996,11.4714381 L12.996,15.5683802 C12.1068,15.3635331 11.4228,15.0221213 11.0808,14.3392976 L9.6444,14.3392976 C9.9864,15.704945 11.286,16.7291805 12.996,16.9340276 L12.996,19.1190635 L14.364,19.1190635 L14.364,16.9340276 C16.2792,16.6608982 17.784,15.2952508 17.784,13.5881915 Z M10.944,8.12560197 C10.944,7.1696488 11.8332,6.35026036 12.996,6.14541326 L12.996,10.1057907 C11.8332,9.90094358 10.944,9.08155514 10.944,8.12560197 Z M14.364,15.5683802 L14.364,11.6080028 C15.5268,11.8128499 16.416,12.6322384 16.416,13.5881915 C16.416,14.5441447 15.5268,15.3635331 14.364,15.5683802 Z" id="Shape"></path>
                <rect id="Rectangle" x="4.788" y="22.4847109" width="17.784" height="1.36564739"></rect>
                <rect id="Rectangle" x="2.736" y="25.9473004" width="20.52" height="1.36564739"></rect>
            </g>
        </g>
    </g>
</svg>