<?xml version="1.0" encoding="UTF-8"?>
<svg width="32px" height="32px" viewBox="0 0 32 32" version="1.1" xmlns="http://www.w3.org/2000/svg" xmlns:xlink="http://www.w3.org/1999/xlink">
    <title>star</title>
    <g id="star" stroke="none" stroke-width="1" fill="none" fill-rule="evenodd" stroke-opacity="0.85">
        <g id="iconfinder_star_hand_rating_review_feedback_7517906" transform="translate(1.000000, 1.000000)" stroke="#000000" stroke-width="1.39126531">
            <g id="Group" transform="translate(0.000000, 17.271699)">
                <path d="M22.3724344,3.17506095 L27.9315872,0.314475906 C29.0062836,-0.266573236 30.2657362,-0.0336010764 30.785249,0.940185719 C31.3043045,1.91443293 30.8497308,3.18657143 29.7741198,3.76762057 L18.2396553,9.99248935 L17.6305082,10.1462694 L6.87256893,10.4395565 C6.87256893,10.4395565 5.48735391,10.8309129 3.82317516,12.7283008" id="Path" stroke-linejoin="round"></path>
                <path d="M0,7.033835 L4.87957882,2.51251759 C7.26449011,0.892762532 10.0916275,1.78689679 10.0916275,1.78689679 C11.4603791,2.14924677 14.0044369,2.23212224 14.0044369,2.23212224 L18.2259357,2.23212224 C19.4835591,2.23212224 20.5125237,3.13592531 20.5125237,4.2409316 C20.5125237,5.34593789 19.4835591,6.25112221 18.2259357,6.25112221 L12.3850753,6.25112221" id="Path"></path>
            </g>
            <polygon id="Path" stroke-linecap="round" stroke-linejoin="round" points="15.5977315 0 18.0315757 5.49326253 23.973046 6.12587863 19.5361507 10.154087 20.7741094 16.0377851 15.5977315 13.0340096 10.4222682 16.0377851 11.6597696 10.154087 7.22287421 6.12587863 13.1652591 5.49326253"></polygon>
        </g>
    </g>
</svg>