<?xml version="1.0" encoding="UTF-8"?>
<svg width="60px" height="60px" viewBox="0 0 60 60" version="1.1" xmlns="http://www.w3.org/2000/svg" xmlns:xlink="http://www.w3.org/1999/xlink">
    <title>streamilne</title>
    <g id="streamilne" stroke="none" stroke-width="1" fill="none" fill-rule="evenodd" fill-opacity="0.85" stroke-opacity="0.85">
        <g id="Group-4" transform="translate(0.000000, 3.000000)" fill="#000000" fill-rule="nonzero" stroke="#000000">
            <g id="iconfinder_1250_415274" transform="translate(0.000000, 17.000000)" stroke-width="0.3">
                <path d="M24.6384756,37 C23.8544146,37 23.1412341,36.6955 22.6266941,36.139 L15.3802557,28.894875 C14.8438389,28.355 14.5498161,27.650625 14.5498161,26.910375 L14.5498161,18.512375 L0.830499288,4.795 C0.0271868231,4.032875 -0.227457978,2.79125 0.217076589,1.72025 C0.676487312,0.6685 1.69419145,0 2.81340348,0 L39.1882319,0 C40.3091941,0 41.3260232,0.6685 41.7775583,1.7045 C42.2308435,2.79125 41.9761987,4.032875 41.1518846,4.813375 L27.4535695,18.512375 L27.4535695,34.185125 C27.4535695,35.306 26.7815172,36.32275 25.7463117,36.77425 C25.4470384,36.887125 25.0628836,37 24.6384756,37 Z M2.04946907,2.499 C1.92608448,2.797375 1.99083951,3.1535 2.21835721,3.36875 L16.5405959,17.689 L16.5405959,26.910375 C16.5405959,27.120375 16.6298528,27.32775 16.7882401,27.486125 L24.0626808,34.76 C24.2280687,34.937625 24.4065825,35.009375 24.6384756,35.009375 C24.7119813,35.009375 24.8449916,34.9875 24.9990036,34.928875 C25.2553985,34.816 25.4619146,34.508875 25.4619146,34.185125 L25.4619146,17.689 L39.7640267,3.388 C40.0099208,3.152625 40.076426,2.797375 39.9469159,2.484125 C39.819156,2.1945 39.5128822,1.99062219 39.1882319,1.99062219 L2.81340348,1.99062219 C2.49050337,1.98975 2.18247942,2.193625 2.04946907,2.499 Z" id="Shape"></path>
            </g>
            <g id="iconfinder_filter_funnel_edit_seo_gear_7805836" transform="translate(1.000000, 0.000000)" stroke-width="0.6">
                <path d="M40,18 C40,17.5481307 39.6418278,17.1818182 39.2,17.1818182 L37.6,17.1818182 L37.6,15.6845455 C37.5966683,14.6326982 36.8313637,13.7463874 35.8112,13.6129091 L32.48,13.1866364 C32.3121873,13.156725 32.1724454,13.0380939 32.1128,12.8749091 L32.0912,12.8282727 C32.0362566,12.6766984 32.0577989,12.5071757 32.1488,12.375 L34.2152,9.66518182 C34.8372359,8.83065825 34.7642549,7.65525799 34.044,6.90790909 L30.8408,3.63027273 C30.1091701,2.89683172 28.9616208,2.82500529 28.148,3.46172727 L25.508,5.56363636 C25.3779602,5.66173662 25.208385,5.68633652 25.0568,5.62909091 L25.0112,5.607 C24.8508952,5.54594611 24.734474,5.40225519 24.7056,5.22981818 L24.2896,1.82290909 C24.1561522,0.782156529 23.2903332,0.00297541556 22.264,0 L17.736,0 C16.7075272,0.00340740741 15.8409121,0.786105274 15.7104,1.82945455 L15.2936,5.23636364 C15.2643533,5.40799028 15.1483585,5.55090811 14.9888,5.61190909 L14.9432,5.634 C14.794994,5.69019207 14.6292385,5.66816025 14.5,5.57509091 L11.8504,3.46009091 C11.0345284,2.82355644 9.8849903,2.89821284 9.1544,3.63518182 L5.9496,6.91281818 C5.23245769,7.66107604 5.16222739,8.83470602 5.7848,9.66681818 L7.8432,12.3668182 C7.93912025,12.4998134 7.96317348,12.6732427 7.9072,12.8282727 L7.8856,12.8749091 C7.82590286,13.0388572 7.68540508,13.1579243 7.5168,13.1874545 L4.1856,13.6129091 C3.1667057,13.7478902 2.40312156,14.6337934 2.4,15.6845455 L2.4,17.1818182 L0.8,17.1818182 C0.3581722,17.1818182 0,17.5481307 0,18 L40,18 Z M4,15.6845455 C4.00097847,15.4569761 4.16651357,15.2652924 4.3872,15.2361818 L7.7136,14.8115455 C8.42288629,14.7146295 9.03330815,14.2508144 9.3288,13.5842727 C9.34539113,13.5538889 9.36008712,13.5224626 9.3728,13.4901818 C9.66338496,12.7863904 9.56359082,11.9773838 9.1112,11.3694545 L7.0488,8.66372727 C6.91243736,8.48321027 6.92818657,8.22724662 7.0856,8.06563636 L10.2808,4.79781818 C10.4376297,4.63374757 10.6893812,4.61480541 10.868,4.75363636 L13.52,6.87272727 C14.1134399,7.33169544 14.9013886,7.43153057 15.5864,7.13454545 C15.6179634,7.12154365 15.6486914,7.10651366 15.6784,7.08954545 C16.3299871,6.7880161 16.7835587,6.16425207 16.8784,5.43927273 L17.2944,2.03809091 C17.3204174,1.8088813 17.510379,1.63607161 17.736,1.63636327 L22.264,1.63636327 C22.4865123,1.63736434 22.6739363,1.80666161 22.7024,2.03236364 L23.12,5.43436364 C23.2147623,6.15977007 23.6682704,6.78406516 24.32,7.08627273 C24.3497086,7.10324093 24.3804366,7.11827092 24.412,7.13127273 C25.0986962,7.42537 25.8865414,7.3234433 26.48,6.86372727 L29.1256,4.75445455 C29.3021055,4.61499275 29.5523811,4.6310999 29.7104,4.79209091 L32.9056,8.05990909 C33.0660246,8.22030312 33.0845458,8.47777621 32.9488,8.66045455 L30.88,11.3727273 C30.4312311,11.9796544 30.3336146,12.785511 30.624,13.4860909 C30.6367129,13.5183717 30.6514089,13.549798 30.668,13.5801818 C30.9628287,14.2465777 31.5727313,14.7104577 32.2816,14.8074545 L35.6072,15.2329091 C35.8313161,15.2595178 36,15.4537967 36,15.6845455 L36,17.1818182 L27.056,17.1818182 C26.6507312,13.5095027 23.6135066,10.7341182 20,10.7341182 C16.3864934,10.7341182 13.3492688,13.5095027 12.944,17.1818182 L4,17.1818182 L4,15.6845455 Z M25.4464,17.1818182 L14.5536,17.1818182 C14.9503977,14.4180526 17.268675,12.3698033 20,12.3698033 C22.731325,12.3698033 25.0496023,14.4180526 25.4464,17.1818182 L25.4464,17.1818182 Z" id="Shape"></path>
            </g>
        </g>
    </g>
</svg>