<?xml version="1.0" encoding="UTF-8"?>
<svg width="32px" height="32px" viewBox="0 0 32 32" version="1.1" xmlns="http://www.w3.org/2000/svg" xmlns:xlink="http://www.w3.org/1999/xlink">
    <title>2</title>
    <g id="2" stroke="none" stroke-width="1" fill="none" fill-rule="evenodd" fill-opacity="0.85">
        <g id="iconfinder_7_promotion_announcement_marketing_branding_reaching_audience_1052608" transform="translate(0.000000, 3.000000)" fill="#000000" fill-rule="nonzero">
            <path d="M26.4505213,0 L23.622396,2.88859341 L24.565104,3.8514578 L27.3958333,0.962864517 L26.4505213,0 Z M21.9791667,4.83028119 C21.9317768,4.83136411 21.8846352,4.83760577 21.8385413,4.84890028 L3.17187493,9.61534529 C2.875354,9.69096981 2.66714274,9.96282776 2.66666667,10.2749872 L0.666666667,10.2749872 C0.298492083,10.2750248 0,10.5798614 0,10.9559079 L0,15.0414322 C0,15.4174788 0.298492083,15.7223154 0.666666667,15.722353 L2.66666667,15.722353 C2.66594692,16.0355039 2.87441159,16.3087902 3.17187493,16.3846546 L6,17.1054732 L6,19.1269565 C6.00011289,19.4516689 6.22467119,19.731131 6.5364584,19.7945775 L13.2031253,21.1564189 C13.3988789,21.1962109 13.6017904,21.1443365 13.7561092,21.0150483 C13.9104281,20.8857601 13.9999212,20.6926582 14,20.488798 L14,19.1482353 L21.8385413,21.1510996 C22.0379522,21.2019136 22.2491633,21.155955 22.4109817,21.0265391 C22.5728001,20.8971232 22.6671392,20.698715 22.6666667,20.488798 L22.6666667,17.2916628 C24.2881587,16.5031252 25.3403293,14.8337664 25.333368,12.9827107 C25.3264093,11.1443922 24.275264,9.49114127 22.6666667,8.70833711 L22.6666667,5.50854223 C22.6660329,5.32467069 22.5926279,5.14887488 22.4631441,5.02113109 C22.3336602,4.8933873 22.1591029,4.82455299 21.9791667,4.83028119 Z M30.502604,5.76654717 L26.7890627,7.29063975 L27.2864587,8.55406635 L31,7.03263481 L30.502604,5.76654717 Z M21.3333333,6.38363157 L21.3333333,19.619028 L4,15.1930433 L4,15.0414322 L4,10.9559079 L4,10.8096162 L21.3333333,6.38363157 Z M22.6666667,10.2803066 C23.4880067,10.9097361 23.9958933,11.9006555 24,12.9853704 C24.0041787,14.0779076 23.494036,15.0759454 22.6666667,15.7117142 L22.6666667,10.2803066 Z M1.33333333,11.6368287 L2.66666667,11.6368287 L2.66666667,14.3605115 L1.33333333,14.3605115 L1.33333333,11.6368287 Z M28,12.3177494 L28,13.6795908 L32,13.6795908 L32,12.3177494 L28,12.3177494 Z M7.33333333,17.4459335 L12.6666667,18.8077749 L12.6666667,19.6589258 L7.33333333,18.5710488 L7.33333333,17.4459335 Z M27.1875,17.7305366 L26.6640627,18.9833245 L30.3411453,20.5898725 L30.864584,19.3370846 L27.1875,17.7305366 Z M24.565104,22.1485422 L23.622396,23.1114063 L26.4505213,26 L27.3958333,25.0371359 L24.565104,22.1485422 Z" id="path10455"></path>
        </g>
    </g>
</svg>