<?xml version="1.0" encoding="UTF-8"?>
<svg width="75px" height="75px" viewBox="0 0 75 75" version="1.1" xmlns="http://www.w3.org/2000/svg" xmlns:xlink="http://www.w3.org/1999/xlink">
    <title>deep analysis</title>
    <g id="deep-analysis" stroke="none" stroke-width="1" fill="none" fill-rule="evenodd">
        <rect id="Rectangle" stroke="#979797" fill="#D8D8D8" opacity="0" x="0.5" y="0.5" width="74" height="74"></rect>
        <g id="Group-8" transform="translate(2.000000, 2.000000)">
            <circle id="Oval" stroke-opacity="0.85" stroke="#000000" stroke-width="1.4" fill="#FFFFFF" cx="36" cy="36" r="35.3"></circle>
            <g id="Group" transform="translate(21.000000, 21.000000)" fill="#000000" fill-opacity="0.85" fill-rule="nonzero">
                <g>
                    <path d="M11.2727273,22.5454545 C5.05722727,22.5454545 0,17.4882273 0,11.2727273 C0,5.05722727 5.05722727,0 11.2727273,0 C17.4882273,0 22.5454545,5.05722727 22.5454545,11.2727273 C22.5454545,17.4882273 17.4882273,22.5454545 11.2727273,22.5454545 Z M11.2727273,1.40909091 C5.83504545,1.40909091 1.40909091,5.83504545 1.40909091,11.2727273 C1.40909091,16.7104091 5.83504545,21.1363636 11.2727273,21.1363636 C16.7104091,21.1363636 21.1363636,16.7104091 21.1363636,11.2727273 C21.1363636,5.83504545 16.7104091,1.40909091 11.2727273,1.40909091 Z" id="Shape"></path>
                    <g transform="translate(18.126193, 18.124784)">
                        <path d="M2.92421591,2.925625 C3.06089773,2.78894318 3.21730682,2.68185227 3.38076136,2.58885227 C3.35680682,2.44653409 3.30326136,2.30985227 3.19476136,2.19994318 L1.20230682,0.206079545 C0.927534091,-0.0686931818 0.480852273,-0.0686931818 0.206079545,0.206079545 C-0.0686931818,0.482261364 -0.0686931818,0.927534091 0.206079545,1.20371591 L2.19853409,3.19617045 C2.30703409,3.30607955 2.445125,3.35821591 2.58603409,3.38076136 C2.68185227,3.21871591 2.78894318,3.06230682 2.92421591,2.925625 Z" id="Path"></path>
                        <path d="M4.41926136,3.01157955 C4.77998864,3.01157955 5.14071591,3.14967045 5.41548864,3.42444318 L11.0518523,9.06080682 C11.6028068,9.61176136 11.6028068,10.5023068 11.0518523,11.0532614 C10.7770795,11.3280341 10.4163523,11.466125 10.055625,11.466125 C9.69489773,11.466125 9.33417045,11.3280341 9.05939773,11.0532614 L3.42303409,5.41689773 C2.87207955,4.86594318 2.87207955,3.97539773 3.42303409,3.42444318 C3.69780682,3.14967045 4.05853409,3.01157955 4.41926136,3.01157955 L4.41926136,3.01157955 Z M4.41926136,1.60248864 C3.66680682,1.60248864 2.95944318,1.89557955 2.42680682,2.42821591 C1.89417045,2.96085227 1.60107955,3.66821591 1.60107955,4.42067045 C1.60107955,5.173125 1.89417045,5.88048864 2.42680682,6.413125 L8.06317045,12.0494886 C8.59580682,12.582125 9.30317045,12.8752159 10.055625,12.8752159 C10.8080795,12.8752159 11.5154432,12.582125 12.0480795,12.0494886 C12.5807159,11.5168523 12.8738068,10.8094886 12.8738068,10.0570341 C12.8738068,9.30457955 12.5807159,8.59721591 12.0480795,8.06457955 L6.41171591,2.42821591 C5.87907955,1.89557955 5.17171591,1.60248864 4.41926136,1.60248864 L4.41926136,1.60248864 Z" id="Shape"></path>
                    </g>
                </g>
                <g transform="translate(10.568182, 10.600591)" id="Path">
                    <path d="M8.19527273,2.78013636 C7.83313636,2.64063636 7.4245,2.82381818 7.285,3.18736364 C6.25072727,5.89704545 3.60586364,7.71759091 0.704545455,7.71759091 C0.315636364,7.71759091 0,8.03322727 0,8.42213636 C0,8.81104545 0.315636364,9.12668182 0.704545455,9.12668182 C4.18640909,9.12668182 7.36109091,6.94118182 8.60109091,3.689 C8.74059091,3.32545455 8.55881818,2.91822727 8.19527273,2.78013636 Z"></path>
                    <path d="M8.45454545,-5.00609655e-15 C8.06563636,-5.00609655e-15 7.75,0.348045455 7.75,0.736954545 C7.75,1.12586364 8.06563636,1.4415 8.45454545,1.4415 C8.84345455,1.4415 9.15909091,1.12586364 9.15909091,0.736954545 L9.15909091,0.672136364 C9.15909091,0.283227273 8.84345455,-5.00609655e-15 8.45454545,-5.00609655e-15 Z"></path>
                </g>
            </g>
        </g>
    </g>
</svg>