<?xml version="1.0" encoding="UTF-8"?>
<svg width="75px" height="75px" viewBox="0 0 75 75" version="1.1" xmlns="http://www.w3.org/2000/svg" xmlns:xlink="http://www.w3.org/1999/xlink">
    <title>execute</title>
    <g id="execute" stroke="none" stroke-width="1" fill="none" fill-rule="evenodd">
        <rect id="Rectangle" stroke="#979797" fill="#D8D8D8" opacity="0" x="0.5" y="0.5" width="74" height="74"></rect>
        <g id="Group-18" transform="translate(2.000000, 2.000000)">
            <circle id="Oval" stroke-opacity="0.85" stroke="#000000" stroke-width="1.4" fill="#FFFFFF" cx="36" cy="36" r="35.3"></circle>
            <g id="iconfinder_sport-target-bulls-eye-arrow_3185424" opacity="0.85" transform="translate(15.000000, 14.000000)">
                <g id="box">
                    <rect id="Rectangle" x="0" y="0" width="42" height="42"></rect>
                </g>
                <g id="icon" transform="translate(5.906250, 5.250000)" fill="#000000" fill-rule="nonzero" stroke="#000000" stroke-width="0.5">
                    <g id="Group">
                        <path d="M21.7051406,9.71112187 L22.9070625,9.13014375 C21.1067062,6.77709375 18.2785969,5.25 15.09375,5.25 C9.66590625,5.25 5.25,9.66590625 5.25,15.09375 C5.25,20.5215938 9.66590625,24.9375 15.09375,24.9375 C20.5215938,24.9375 24.9375,20.5215938 24.9375,15.09375 C24.9375,14.257425 24.8213438,13.4496469 24.6241406,12.6738281 L23.42025,13.255725 C23.5510406,13.8485156 23.625,14.4622406 23.625,15.09375 C23.625,19.7980781 19.7980781,23.625 15.09375,23.625 C10.3894219,23.625 6.5625,19.7980781 6.5625,15.09375 C6.5625,10.3894219 10.3894219,6.5625 15.09375,6.5625 C17.7582562,6.5625 20.139525,7.79165625 21.7051406,9.71112187 Z" id="Path"></path>
                        <path d="M15.09375,11.8125 C15.6327937,11.8125 16.1341688,11.9555625 16.5833063,12.1868906 L17.9694375,11.5168594 C17.1816094,10.8821344 16.1819438,10.5 15.09375,10.5 C12.5606906,10.5 10.5,12.5606906 10.5,15.09375 C10.5,17.6268094 12.5606906,19.6875 15.09375,19.6875 C17.6268094,19.6875 19.6875,17.6268094 19.6875,15.09375 C19.6875,15.0826594 19.685925,15.0719625 19.6857938,15.0608719 L18.3111469,15.7253906 C18.0155063,17.2329937 16.6866,18.375 15.09375,18.375 C13.2846,18.375 11.8125,16.9029 11.8125,15.09375 C11.8125,13.2846 13.2846,11.8125 15.09375,11.8125 Z" id="Path"></path>
                        <path d="M30.1875,15.09375 C30.1875,14.3762719 30.1338187,13.6713938 30.0364969,12.9804281 L28.785225,13.5656719 C28.8409406,14.0680313 28.875,14.5767563 28.875,15.09375 C28.875,22.6928625 22.6928625,28.875 15.09375,28.875 C7.4946375,28.875 1.3125,22.6928625 1.3125,15.09375 C1.3125,7.4946375 7.4946375,1.3125 15.09375,1.3125 C18.8641688,1.3125 22.2832312,2.83703437 24.7738969,5.29875938 L26.0325844,4.71010313 C23.2806,1.81236562 19.3959937,0 15.09375,0 C6.77112188,0 0,6.77112188 0,15.09375 C0,19.3825406 1.8010125,23.2561875 4.68293438,26.0067281 L1.33015312,33.1912875 C1.17698437,33.5197406 1.31893125,33.9103406 1.64738437,34.0635094 C1.97616562,34.2176625 2.36578125,34.0747313 2.51960625,33.7462781 L5.71232812,26.9048063 C8.29047187,28.9569 11.5501969,30.1875 15.09375,30.1875 C18.6373031,30.1875 21.8970281,28.9569 24.4751719,26.9047406 L27.6678938,33.7462125 C27.7793906,33.9849563 28.0159031,34.1252625 28.2629156,34.1249344 C28.3558406,34.1249344 28.4503406,34.1053781 28.5401156,34.0633781 C28.8685688,33.9102094 29.0105156,33.5196094 28.8573469,33.1911563 L25.5045656,26.0065969 C28.3864875,23.2561875 30.1875,19.3825406 30.1875,15.09375 Z" id="Path"></path>
                        <path d="M25.0397437,6.6234 L24.9489187,9.60113438 L14.8082812,14.5028625 C14.4817312,14.6604938 14.3452312,15.0530625 14.5029281,15.3792188 C14.6163281,15.6135 14.8502156,15.75 15.0940781,15.75 C15.1898906,15.75 15.2872781,15.7291969 15.3792844,15.6846375 L25.5365906,10.7748375 L27.7954687,12.5795906 L34.9949906,9.212175 L32.1332156,6.92520938 L32.2456969,3.25335938 L25.0397437,6.6234 Z M32.5250625,8.91863438 L27.9781031,11.0453438 L26.2595812,9.6726 L26.327175,7.47055313 L30.8683594,5.34640313 L30.8013562,7.54103438 L32.5250625,8.91863438 Z" id="Shape"></path>
                    </g>
                </g>
            </g>
        </g>
    </g>
</svg>