<?xml version="1.0" encoding="UTF-8"?>
<svg width="60px" height="60px" viewBox="0 0 60 60" version="1.1" xmlns="http://www.w3.org/2000/svg" xmlns:xlink="http://www.w3.org/1999/xlink">
    <title>cloud</title>
    <g id="cloud" stroke="none" stroke-width="1" fill="none" fill-rule="evenodd">
        <rect id="Rectangle" stroke="#979797" fill="#D8D8D8" opacity="0" x="0.5" y="0.5" width="59" height="59"></rect>
        <g id="iconfinder_cloud_computing_data_database_network_server_storage_3425451" opacity="0.85" transform="translate(2.000000, 2.000000)" fill="#000000" fill-rule="nonzero">
            <path d="M28.002117,26.7187405 C20.9931392,26.7187405 13.9098663,28.612423 13.7634868,32.2275353 L13.7498759,32.2275353 L13.7498759,50.379879 C13.7498759,54.0693283 20.9197062,56 28.002117,56 C35.0845278,56 42.254356,54.0693283 42.254356,50.379879 L42.254356,32.3388596 C42.254356,28.6494141 35.0845258,26.7187405 28.002117,26.7187405 Z M40.254108,50.379879 C40.254108,51.8554611 35.4810635,53.9999962 28.0021169,53.9999962 C20.5231703,53.9999962 15.7501257,51.8554611 15.7501257,50.379879 L15.7501257,47.3734131 C18.368059,49.0964928 23.2016656,49.9872971 28.0021169,49.9872971 C32.8009793,49.9872971 37.632568,49.0980835 40.254108,47.3784752 L40.254108,50.379879 Z M40.254108,44.3662071 C40.254108,45.8427696 35.4810635,47.9873047 28.0021169,47.9873047 C20.5290259,47.9873047 15.7598856,45.8427696 15.7598856,44.3662071 L15.7501257,44.3662071 L15.7501257,41.3546676 C18.3643969,43.0811767 23.2001302,43.9736366 28.0021169,43.9736366 C32.8009793,43.9736366 37.632568,43.0844078 40.254108,41.3647995 L40.254108,44.3662071 Z M40.254108,38.3525352 C40.254108,39.8290977 35.4810635,41.9736328 28.0021169,41.9736328 C20.5348948,41.9736328 15.7696589,39.8290977 15.7696589,38.3525352 L15.7501257,38.3525352 L15.7501257,35.3511276 C18.3716658,37.0707359 23.2032544,37.9599609 28.0021169,37.9599609 C32.8009793,37.9599609 37.632568,37.0707359 40.254108,35.3511276 L40.254108,38.3525352 L40.254108,38.3525352 Z M28.002117,35.9599571 C20.5231704,35.9599571 15.7501258,33.815422 15.7501258,32.3388595 C15.7501258,30.8632812 20.5231704,28.7187423 28.002117,28.7187423 C35.4810636,28.7187423 40.2541081,30.8632812 40.2541081,32.3388595 C40.2541081,33.8154221 35.4810635,35.9599571 28.002117,35.9599571 Z" id="Shape"></path>
            <path d="M54.5473666,20.7226601 C52.7424578,17.0927716 49.0252147,14.7812519 44.8948246,14.6455098 C44.2892719,6.4833965 37.4046361,0 29.1067427,0 C20.6066722,0 13.8006668,6.3837795 13.2981605,14.6650391 L12.8420429,14.6738282 C10.2523804,14.7255822 7.8516904,15.37109 5.89929683,16.540041 C2.55856046,18.5400315 0.430856789,21.7880764 0.0611759937,25.45117 C-0.601010099,32.0263634 4.18864455,37.9550782 10.7377907,38.667965 C11.2842346,38.7304612 11.7808853,38.3320351 11.8404652,37.7822266 C11.9000327,37.2333985 11.5035101,36.7392578 10.9546162,36.6796837 C5.49251623,36.084961 1.49885528,31.1386681 2.05166697,25.6523399 C2.36126877,22.5790996 4.09243555,19.9521484 6.92726011,18.2558536 C8.5807816,17.265623 10.6401135,16.7177658 12.8825765,16.6738185 L14.0619283,16.6494159 C14.7290025,16.6386756 15.259831,16.1064452 15.2705732,15.4365196 C15.3819128,7.9023371 21.4598107,2 29.1067433,2 C36.6467403,2 42.8511088,8.1269559 42.9370616,15.6455116 L42.9376109,15.7378463 C42.9391177,15.9870147 43.0531924,16.2221584 43.2479937,16.3775672 L43.3861773,16.4878177 C43.5808566,16.6431445 43.8353083,16.7021922 44.0785182,16.6485004 L44.0788005,16.6484336 C47.773102,16.475582 51.1734202,18.4287051 52.7561342,21.6132716 C54.4130747,24.9472579 54.4101526,28.5732421 52.7473413,31.5634764 C51.1348382,34.4628828 48.2052843,36.380863 44.9104388,36.6943281 C44.3605769,36.7460974 43.9572032,37.2343672 44.0094607,37.7841757 C44.0587809,38.30175 44.494385,38.6894491 45.0042117,38.6894491 C45.0354579,38.6894491 45.0676844,38.6884802 45.0999263,38.6845625 C49.0501177,38.3095701 52.5627596,36.010742 54.4956057,32.5351599 C56.4831613,28.9609261 56.5021967,24.6552734 54.5473666,20.7226601 Z" id="Path"></path>
        </g>
    </g>
</svg>