<?xml version="1.0" encoding="UTF-8"?>
<svg width="60px" height="60px" viewBox="0 0 60 60" version="1.1" xmlns="http://www.w3.org/2000/svg" xmlns:xlink="http://www.w3.org/1999/xlink">
    <title>cyber</title>
    <g id="cyber" stroke="none" stroke-width="1" fill="none" fill-rule="evenodd">
        <rect id="Rectangle" stroke="#979797" fill="#D8D8D8" opacity="0" x="0.5" y="0.5" width="59" height="59"></rect>
        <g id="iconfinder_cyber_security_-_shield_3430897" transform="translate(7.000000, 5.000000)" fill="#000000" fill-rule="nonzero" opacity="0.85">
            <path d="M45.9477612,11.2761739 C35.3832836,11.2761739 24.3558209,0.407864714 24.2435821,0.309190052 C23.8327634,-0.103063351 23.1672366,-0.103063351 22.7564179,0.309190052 C22.6441791,0.407864714 11.6167164,11.2761739 1.05223881,11.2761739 C0.474262179,11.283766 0.00755621428,11.752685 0,12.3334024 C0,42.7111019 21.5638806,49.9284487 21.7743284,49.9848342 C21.8809491,50.0050553 21.9903942,50.0050553 22.0970149,49.9848342 C22.1899693,50 22.2846576,50 22.3776119,49.9848342 C26.9632805,48.4612768 31.1724729,45.9718439 34.7238806,42.6829092 C40.3358209,37.5941159 47,28.1918303 47,12.3334024 C46.9924438,11.752685 46.5257378,11.283766 45.9477612,11.2761739 Z M22.0970149,47.9267627 C18.3843881,46.4198037 15.0357609,44.1319393 12.2761194,41.2168856 C7.77253731,36.4664055 2.35701493,27.8394207 2.11850746,13.3624382 C11.658806,12.798583 20.8483582,4.90461002 23.5,2.50822538 C26.1516418,4.96099555 35.341194,12.798583 44.8814925,13.3624382 C44.3904478,39.7931512 24.9029851,46.9682088 22.0970149,47.8703771 L22.0970149,47.9267627 Z" id="Shape"></path>
            <path d="M29.1119403,22.5532781 L27.358209,22.5532781 L27.358209,19.3815926 C27.358209,17.2406582 25.63083,15.505088 23.5,15.505088 C21.36917,15.505088 19.641791,17.2406582 19.641791,19.3815926 L19.641791,22.5532781 L17.8880597,22.5532781 C17.3100831,22.5608702 16.8433771,23.0297893 16.8358209,23.6105067 L16.8358209,32.0683348 C16.8433771,32.6490522 17.3100831,33.1179713 17.8880597,33.1255634 L29.1119403,33.1255634 C29.6899169,33.1179713 30.1566229,32.6490522 30.1641791,32.0683348 L30.1641791,23.6105067 C30.1566229,23.0297893 29.6899169,22.5608702 29.1119403,22.5532781 L29.1119403,22.5532781 Z M21.7462687,19.3815926 C21.7462687,18.4084406 22.5314409,17.619545 23.5,17.619545 C24.4685591,17.619545 25.2537313,18.4084406 25.2537313,19.3815926 L25.2537313,22.5532781 L21.7462687,22.5532781 L21.7462687,19.3815926 Z M28.0597015,31.0111063 L18.9402985,31.0111063 L18.9402985,24.6677352 L28.0597015,24.6677352 L28.0597015,31.0111063 Z" id="Shape"></path>
        </g>
    </g>
</svg>