<?xml version="1.0" encoding="UTF-8"?>
<svg width="24px" height="24px" viewBox="0 0 24 24" version="1.1" xmlns="http://www.w3.org/2000/svg" xmlns:xlink="http://www.w3.org/1999/xlink">
    <title>14</title>
    <g id="14" stroke="none" stroke-width="1" fill="none" fill-rule="evenodd">
        <rect id="Rectangle" stroke="#979797" fill="#D8D8D8" opacity="0" x="0.5" y="0.5" width="23" height="23"></rect>
        <g id="iconfinder_Searchicons-search-people_825445" transform="translate(1.000000, 2.000000)" stroke="#000000" stroke-linejoin="round" stroke-opacity="0.85" stroke-width="0.996">
            <path d="M14.2177204,13.2021975 C13.5638233,11.9838993 12.2577978,10.9275603 10.6397546,10.4499776 C11.5430889,9.84375212 12.1389631,8.81270653 12.1389631,7.64268328 C12.1389631,5.7771598 10.6273066,4.26533582 8.76268304,4.26533582 C6.89887578,4.26533582 5.38762739,5.7771598 5.38762739,7.64268328 C5.38762739,8.81311449 5.98268527,9.84450005 6.88649575,10.4504535 C5.24886217,10.9339516 3.93059266,12.0105525 3.28553849,13.2476848" id="dp_path002" stroke-linecap="round"></path>
            <path d="M17.5031909,8.75654432 C17.5031909,13.5925452 13.5849102,17.5129527 8.75166345,17.5129527 C3.91828065,17.5129527 -7.73322459e-15,13.5925452 -7.73322459e-15,8.75654432 C-7.73322459e-15,3.92040741 3.91828065,0 8.75166345,0 C13.5849102,0 17.5031909,3.92040741 17.5031909,8.75654432 Z" id="dp_path003"></path>
            <line x1="15.7413488" y1="14.3368644" x2="22" y2="20" id="dp_path004" stroke-linecap="round"></line>
        </g>
    </g>
</svg>