<?xml version="1.0" encoding="UTF-8"?>
<svg width="24px" height="24px" viewBox="0 0 24 24" version="1.1" xmlns="http://www.w3.org/2000/svg" xmlns:xlink="http://www.w3.org/1999/xlink">
    <title>11</title>
    <g id="11" stroke="none" stroke-width="1" fill="none" fill-rule="evenodd">
        <rect id="Rectangle" stroke="#979797" fill="#D8D8D8" opacity="0" x="0.5" y="0.5" width="23" height="23"></rect>
        <g id="iconfinder_02_venture_capital_824378" transform="translate(0.000000, 1.000000)" stroke="#000000" stroke-opacity="0.85">
            <path d="M4.74603175,14.1935484 L8.03174603,14.1935484 L12.047619,15.6129032 L15.3333333,15.6129032 C15.9379048,15.6129032 16.4285714,16.0894516 16.4285714,16.6774194 C16.4285714,17.2653871 15.9379048,17.7419355 15.3333333,17.7419355 L11.3174603,17.7419355 C10.7128889,17.7419355 10.2222222,18.2184839 10.2222222,18.8064516" id="Path"></path>
            <path d="M16.0634921,17.3870968 L21.9047619,15.6129032 C22.5093333,15.6129032 23,16.0894516 23,16.6774194 C23,17.0311935 22.6349206,17.3870968 22.6349206,17.3870968 L13.5079365,22 L12.7777778,22 L6.57142857,19.8709677 L5.11111111,19.8709677" id="Path"></path>
            <path d="M0,13.483871 L4.38095238,13.483871 C4.58284127,13.483871 4.74603175,13.6424839 4.74603175,13.8387097 L4.74603175,20.2258065 C4.74603175,20.4220323 4.58284127,20.5806452 4.38095238,20.5806452 L0,20.5806452" id="Path"></path>
            <g id="Group" transform="translate(12.412698, 7.096774)">
                <path d="M0,4.25806452 C0,4.84567742 0.490666667,5.32258065 1.0952381,5.32258065 C1.69980952,5.32258065 2.19047619,4.84567742 2.19047619,4.25806452 C2.19047619,3.67045161 1.0952381,3.19354839 1.0952381,3.19354839 C1.0952381,3.19354839 0,2.71664516 0,2.12903226 C0,1.54141935 0.490666667,1.06451613 1.0952381,1.06451613 C1.69980952,1.06451613 2.19047619,1.54141935 2.19047619,2.12903226" id="Path"></path>
                <line x1="1.0952381" y1="1.06451613" x2="1.0952381" y2="0" id="Path"></line>
                <line x1="1.0952381" y1="5.32258065" x2="1.0952381" y2="6.38709677" id="Path"></line>
            </g>
            <polygon id="Path" stroke-linejoin="round" points="16.4285714 0.709677419 14.968254 0 13.5079365 0.709677419 12.047619 0 10.5873016 0.709677419 12.047619 3.5483871 14.968254 3.5483871"></polygon>
            <path d="M14.968254,4.96774194 C16.1777619,4.96774194 20.0793651,6.38709677 20.0793651,12.4193548 L20.0793651,15.2580645" id="Path"></path>
            <path d="M6.93650794,13.1290323 L6.93650794,12.4193548 C6.93650794,6.03225806 10.8381111,4.96774194 12.047619,4.96774194" id="Path"></path>
            <path d="M15.6984127,4.25806452 C15.6984127,4.64980645 15.3713016,4.96774194 14.968254,4.96774194 L12.047619,4.96774194 C11.6445714,4.96774194 11.3174603,4.64980645 11.3174603,4.25806452 L11.3174603,4.25806452 C11.3174603,3.86632258 11.6445714,3.5483871 12.047619,3.5483871 L14.968254,3.5483871 C15.3713016,3.5483871 15.6984127,3.86632258 15.6984127,4.25806452 L15.6984127,4.25806452 Z" id="Path"></path>
        </g>
    </g>
</svg>