<?xml version="1.0" encoding="UTF-8"?>
<svg width="24px" height="24px" viewBox="0 0 24 24" version="1.1" xmlns="http://www.w3.org/2000/svg" xmlns:xlink="http://www.w3.org/1999/xlink">
    <title>13</title>
    <g id="13" stroke="none" stroke-width="1" fill="none" fill-rule="evenodd">
        <rect id="Rectangle" stroke="#979797" fill="#D8D8D8" opacity="0" x="0.5" y="0.5" width="23" height="23"></rect>
        <g id="iconfinder_international_business_world_global_2716896" transform="translate(1.000000, 2.000000)" stroke="#000000" stroke-opacity="0.85" stroke-width="1.00726154">
            <g id="Group" transform="translate(11.865505, 0.000000)" stroke-linejoin="round">
                <path d="M-2.56454707e-15,20 L1.4895495,20 L1.95009351,17.3158422 C2.65823408,17.1350848 3.32595072,16.8580428 3.93916724,16.496528 L6.1639269,18.0800344 L8.19847754,16.0623524 L6.60173245,13.8563963 C6.96987893,13.2436109 7.25104177,12.5760613 7.43294944,11.8666333 L10.1344949,11.4267306 L10.1344949,8.57326938 L7.43294944,8.13336674 C7.25248548,7.43002362 6.97457099,6.76748515 6.61111658,6.15792111 L8.19883847,3.93800558 L6.1639269,1.92032357 L3.92509105,3.49488152 C3.3115136,3.13444055 2.64271418,2.85883027 1.93349083,2.67986255 L1.4895495,6.35821046e-16 L-2.56454707e-15,6.35821046e-16" id="Path"></path>
                <path d="M-2.56454707e-15,6.63325936 C1.87465958,6.63325936 3.44577878,8.14088338 3.44577878,10 C3.44577878,11.8594746 1.87465958,13.3670986 -2.56454707e-15,13.3670986" id="Path"></path>
            </g>
            <g id="Group" transform="translate(-0.000000, 0.007875)">
                <line x1="0.0404239262" y1="9.98568258" x2="10.0742199" y2="9.98568258" id="Path" stroke-linejoin="round"></line>
                <path d="M9.31410572,19.9284129 C8.36450438,19.1416708 -1.10263477,10.8196721 9.38917872,0.0365094137" id="Path" stroke-linejoin="round"></path>
                <path d="M2.52938281,3.6785024 C4.25606195,4.70864056 6.84102766,5.80356504 10.0157496,5.79640633" id="Path" stroke-linejoin="round"></path>
                <path d="M2.44925682,16.3300881 C4.17557502,15.2870642 6.79158054,14.15742 10.0161105,14.1642208" id="Path" stroke-linejoin="round"></path>
                <path d="M10.0756636,19.9842508 C4.51087705,19.9842508 -1.28227353e-15,15.5107739 -1.28227353e-15,9.99212542 C-1.28227353e-15,4.47347698 4.51087705,-1.27164209e-15 10.0756636,-1.27164209e-15 L10.0756636,19.9842508 Z" id="Path"></path>
            </g>
        </g>
    </g>
</svg>