<?xml version="1.0" encoding="UTF-8"?>
<svg width="32px" height="32px" viewBox="0 0 32 32" version="1.1" xmlns="http://www.w3.org/2000/svg" xmlns:xlink="http://www.w3.org/1999/xlink">
    <title>diamond</title>
    <g id="diamond" stroke="none" stroke-width="1" fill="none" fill-rule="evenodd" fill-opacity="0.85">
        <g id="iconfinder_diamond-sparkle-ol_4480052" fill="#000000" fill-rule="nonzero">
            <path d="M24.4007009,10.002 C24.3064512,9.875 24.1574516,9.80025 23.999452,9.80025 L8.00099623,9.80025 C7.84274667,9.80025 7.69399708,9.875 7.59974734,10.002 L2.34876184,17.06875 C2.23626215,17.22 2.2187622,17.42325 2.30351196,17.5915 C2.31601193,17.61675 2.33426188,17.6375 2.35051183,17.6595 C2.35151183,17.6615 2.35426182,17.66425 2.35526182,17.66625 C2.36526179,17.6795 2.37301177,17.69475 2.38426174,17.707 C2.38476174,17.7075 2.38476174,17.708 2.38551174,17.70875 L15.6354751,31.84175 C15.7297249,31.94275 15.8617245,32 15.9999741,32 C16.1382238,32 16.2702234,31.94275 16.3647231,31.842 L29.5884366,17.737 C29.6899363,17.6455 29.7549362,17.51425 29.7549362,17.367 C29.7549362,17.2325 29.7019363,17.1105 29.6154365,17.0205 L24.4007009,10.002 Z M17.0037214,10.80025 L23.276204,10.80025 L21.1854598,16.3415 L17.0037214,10.80025 Z M20.3287122,16.867 L11.6712361,16.867 L15.9999741,11.13025 L20.3287122,16.867 Z M10.8147385,16.34125 L8.72399423,10.8 L14.9962269,10.8 L10.8147385,16.34125 Z M20.6097114,17.867 L15.9999741,30.08375 L11.3904869,17.867 L20.6097114,17.867 Z M24.1437016,11.33325 L28.2554403,16.867 L22.0559574,16.867 L24.1437016,11.33325 Z M7.85624663,11.33325 L9.94424086,16.867 L3.74450798,16.867 L7.85624663,11.33325 Z M10.3217398,17.867 L14.6442279,29.32275 L3.90425754,17.867 L10.3217398,17.867 L10.3217398,17.867 Z M17.3559704,29.32275 L21.6784585,17.867 L28.0959407,17.867 L17.3559704,29.32275 Z" id="Shape"></path>
            <path d="M15.9999755,5.19025 C16.2759734,5.19025 16.4999755,4.96625 16.4999755,4.69025 L16.4999755,0.5 C16.4999755,0.224 16.2759734,0 15.9999755,0 C15.7239749,0 15.4999755,0.224 15.4999755,0.5 L15.4999755,4.69025 C15.4999755,4.96625 15.7239749,5.19025 15.9999755,5.19025 Z" id="Path"></path>
            <path d="M31.8994302,6.7605 C31.7331807,6.54025 31.4199316,6.4955 31.1991822,6.662 L27.8521914,9.18375 C27.631442,9.35 27.5874421,9.66325 27.7534417,9.884 C27.8519414,10.01425 28.001441,10.083 28.1534406,10.083 C28.2581903,10.083 28.36369,10.05025 28.4536897,9.98225 L31.8006805,7.4605 C32.0214299,7.2945 32.0654298,6.981 31.8994302,6.7605 Z" id="Path"></path>
            <path d="M3.8457577,10.08275 C3.99725729,10.08275 4.14725687,10.014 4.2455066,9.88375 C4.41175614,9.66325 4.36775626,9.34975 4.14700687,9.1835 L0.801016113,6.662 C0.580766721,6.4955 0.267017588,6.53975 0.100768047,6.7605 C-0.0654814942,6.981 -0.0214816157,7.2945 0.199267775,7.46075 L3.54525853,9.98225 C3.63525829,10.05 3.74075799,10.08275 3.8457577,10.08275 Z" id="Path"></path>
            <path d="M9.00449346,6.1815 C9.09199322,6.357 9.26874273,6.4585 9.45249222,6.4585 C9.52749201,6.4585 9.6034918,6.4415 9.67524161,6.406 C9.92224092,6.28275 10.0227406,5.9825 9.89949099,5.73525 L8.02999615,1.98525 C7.90674649,1.73825 7.60649732,1.638 7.359248,1.761 C7.11224868,1.88425 7.01174896,2.1845 7.13499862,2.43175 L9.00449346,6.1815 Z" id="Path"></path>
            <path d="M22.3249567,6.406 C22.3967065,6.44175 22.4727063,6.4585 22.5477061,6.4585 C22.7312055,6.4585 22.9082051,6.357 22.9957048,6.1815 L24.8651997,2.4315 C24.9884493,2.1845 24.8879496,1.88425 24.6409503,1.761 C24.393451,1.638 24.0934518,1.73825 23.9702021,1.9855 L22.1007073,5.7355 C21.9772076,5.9825 22.0779574,6.28275 22.3249567,6.406 Z" id="Path"></path>
        </g>
    </g>
</svg>