<?xml version="1.0" encoding="UTF-8"?>
<svg width="60px" height="60px" viewBox="0 0 60 60" version="1.1" xmlns="http://www.w3.org/2000/svg" xmlns:xlink="http://www.w3.org/1999/xlink">
    <title>15</title>
    <g id="15" stroke="none" stroke-width="1" fill="none" fill-rule="evenodd" stroke-opacity="0.85">
        <g id="iconfinder_umbrella_protection_insurance_logistics_shipping_2851532" transform="translate(2.000000, 3.000000)" stroke="#000000" stroke-width="2.2">
            <path d="M0,31.4028777 C2.05985729,17.8029884 13.7863372,7.38793581 28,7.38793581 C42.2136628,7.38793581 53.9401427,17.8029884 56,31.4028777" id="Path" stroke-linecap="round"></path>
            <path d="M39.8578224,31.9489024 C39.8578224,31.9489024 27.2794662,24.2012544 16.1403277,31.9258439" id="Path" stroke-linecap="round"></path>
            <g id="Group" transform="translate(0.000000, 29.072642)" stroke-linecap="round">
                <path d="M16.1412526,2.85320173 C16.1412526,2.85320173 10.0588002,-3.20287648 0,2.33115783" id="Path"></path>
                <path d="M39.8578224,2.87626021 C39.8578224,2.87626021 45.9411998,-3.20287648 56,2.33023549" id="Path"></path>
            </g>
            <g id="Group" transform="translate(16.093155, 7.387936)">
                <path d="M11.9068446,0 C11.9068446,0 1.15618393,3.27338129 0,24.3718871" id="Path"></path>
                <path d="M11.9068446,0 C11.9068446,0 22.6565803,3.27338129 23.8127643,24.3718871" id="Path"></path>
            </g>
            <path d="M19.6042548,50.0802435 L19.6042548,51.3106438 C19.6042548,53.3388674 21.2691596,55 23.3040433,55 L24.2289905,55 C26.2638742,55 27.9287791,53.3388674 27.9287791,51.3106438 L27.9287791,33.4191109" id="Path" stroke-linecap="round"></path>
            <line x1="28" y1="2.7255119" x2="28" y2="0" id="Path" stroke-linecap="round"></line>
        </g>
    </g>
</svg>