<?xml version="1.0" encoding="UTF-8"?>
<svg width="60px" height="60px" viewBox="0 0 60 60" version="1.1" xmlns="http://www.w3.org/2000/svg" xmlns:xlink="http://www.w3.org/1999/xlink">
    <title>13</title>
    <g id="13" stroke="none" stroke-width="1" fill="none" fill-rule="evenodd" stroke-linecap="round" stroke-linejoin="round" stroke-opacity="0.85">
        <g id="iconfinder_appointment-date-schedule-event-calendar-confirm_5038523" transform="translate(4.000000, 6.000000)" stroke="#000000" stroke-width="2.4">
            <line x1="5.47983674" y1="19.0555556" x2="51.9922068" y2="19.0555556" id="Path"></line>
            <path d="M12.2487546,5.44444444 L4.90253615,5.44444444 C2.04164223,5.60680896 -0.147675312,8.04199664 0.00779320192,10.8888889 L0.00779320192,43.5555556 C-0.147675312,46.4024478 2.04164223,48.8376355 4.90253615,49 L47.0974639,49 C49.9583578,48.8376355 52.1476753,46.4024478 51.9922068,43.5555556 L51.9922068,10.8888889 C52.1476753,8.04199664 49.9583578,5.60680896 47.0974639,5.44444444 L43.7841415,5.44444444" id="Path"></path>
            <line x1="38.312098" y1="0" x2="38.312098" y2="10.8888889" id="Path"></line>
            <line x1="13.687902" y1="0" x2="13.687902" y2="10.8888889" id="Path"></line>
            <line x1="19.1599456" y1="5.44444444" x2="38.2026571" y2="5.40633333" id="Path"></line>
            <polyline id="Path" points="17.7919347 33.1212778 23.7619342 40.3787222 34.2080653 27.6768333"></polyline>
        </g>
    </g>
</svg>