<?xml version="1.0" encoding="UTF-8"?>
<svg width="60px" height="60px" viewBox="0 0 60 60" version="1.1" xmlns="http://www.w3.org/2000/svg" xmlns:xlink="http://www.w3.org/1999/xlink">
    <title>1</title>
    <g id="1" stroke="none" stroke-width="1" fill="none" fill-rule="evenodd" fill-opacity="0.85">
        <g id="iconfinder_user_profile_account_2264093" transform="translate(8.000000, 8.000000)" fill="#000000" fill-rule="nonzero">
            <path d="M22.5,0 C10.0936709,0 0,10.0936709 0,22.5 C0,34.9063291 10.0936709,45 22.5,45 C34.9063291,45 45,34.9063291 45,22.5 C45,10.0936709 34.9063291,0 22.5,0 Z M22.5,42.721519 C11.3496835,42.721519 2.27848101,33.6503165 2.27848101,22.5 C2.27848101,11.3496835 11.3496835,2.27848101 22.5,2.27848101 C33.6503165,2.27848101 42.721519,11.3496835 42.721519,22.5 C42.721519,33.6503165 33.6503165,42.721519 22.5,42.721519 Z" id="Shape"></path>
            <path d="M22.5712025,23.710443 C27.1327949,23.710443 30.8306962,20.0125418 30.8306962,15.4509494 C30.8306962,10.889357 27.1327949,7.1914557 22.5712025,7.1914557 C18.0096101,7.1914557 14.3117089,10.889357 14.3117089,15.4509494 C14.3172015,20.0102647 18.0118872,23.7049504 22.5712025,23.710443 Z M22.5712025,9.46993671 C25.8744246,9.46993671 28.5522152,12.1477273 28.5522152,15.4509494 C28.5522152,18.7541714 25.8744246,21.431962 22.5712025,21.431962 C19.2679805,21.431962 16.5901899,18.7541714 16.5901899,15.4509494 C16.5901899,12.1477273 19.2679805,9.46993671 22.5712025,9.46993671 L22.5712025,9.46993671 Z" id="Shape"></path>
            <path d="M22.5712025,25.7041139 C14.7389241,25.7041139 8.61550633,29.3325949 8.61550633,33.9636076 L8.61550633,35.1028481 L10.8939873,35.1028481 L10.8939873,33.9636076 C10.8939873,32.4939873 12.0189873,31.0599684 14.0625,29.925 C16.3167722,28.6718354 19.3386076,27.9825949 22.5712025,27.9825949 C25.8037975,27.9825949 28.8256329,28.6718354 31.0799051,29.925 C33.1219937,31.0642405 34.2484177,32.4882911 34.2484177,33.9636076 L34.2484177,35.1028481 L36.5268987,35.1028481 L36.5268987,33.9636076 C36.5268987,29.3325949 30.403481,25.7041139 22.5712025,25.7041139 Z" id="Path"></path>
        </g>
    </g>
</svg>