<?xml version="1.0" encoding="UTF-8"?>
<svg width="60px" height="60px" viewBox="0 0 60 60" version="1.1" xmlns="http://www.w3.org/2000/svg" xmlns:xlink="http://www.w3.org/1999/xlink">
    <title>singapore</title>
    <g id="singapore" stroke="none" stroke-width="1" fill="none" fill-rule="evenodd">
        <g id="iconfinder_singapore_4232323" transform="translate(10.000000, 5.000000)" fill="#000000" fill-rule="nonzero" stroke="#000000">
            <path d="M23.7761178,17.8374718 L19.4625986,17.8374718 C18.4773141,17.8350992 17.679173,17.0386441 17.6768017,16.0554408 L17.6768017,15.3064738 C17.6768017,14.6860093 18.1808523,14.1830234 18.8026302,14.1830234 L21.0456602,14.1830234 C21.7055548,14.1830234 22.240505,13.6492031 22.240505,12.9907025 C22.240505,12.3322018 21.7055548,11.7983815 21.0456602,11.7983815 L18.1556023,11.7983815 C17.2431849,11.7983815 16.5035245,11.0602835 16.5035245,10.1497934 L16.5035245,7.73932507 C16.5058969,6.64439091 17.3948049,5.75736055 18.4920568,5.75499311 L22.689111,5.75499311 L23.5518148,4.23553719 C23.8876045,3.64265493 24.5171177,3.27594053 25.1995792,3.27564707 L29.0429248,3.27564707 C29.1575794,3.27499279 29.2677804,3.31990939 29.3491846,3.40048209 L32.0580747,6.10365014 C32.138818,6.18488242 32.1838296,6.29485064 32.183174,6.40926309 L32.183174,10.3822314 C32.1852924,12.0337711 31.2655568,13.5490422 29.7977906,14.3121556 L25.3117307,16.6666667 C24.8562527,16.9028943 24.457455,17.2347685 24.142767,17.6394628 L24.1168858,17.6738981 C24.0345744,17.7778461 23.9088795,17.8381792 23.7761178,17.8374718 Z M18.8155708,15.043905 C18.670251,15.043905 18.5524461,15.161461 18.5524461,15.3064738 L18.5524461,16.0597452 C18.5524461,16.5684785 18.9657289,16.9808884 19.4755392,16.9808884 L23.5647554,16.9808884 C23.9368047,16.5377958 24.3926427,16.1721406 24.9062599,15.9047865 L29.4052604,13.5545799 C30.5893145,12.9401748 31.3313204,11.7182851 31.329095,10.3865358 L31.329095,6.59004821 L28.870384,4.13653558 L25.2038927,4.13653558 C24.832663,4.13628613 24.4899656,4.33522264 24.3066807,4.65736915 L23.3231983,6.37913223 C23.2469465,6.51450022 23.1035384,6.59838942 22.9479221,6.59865702 L18.5093109,6.59865702 C17.8885152,6.60101699 17.3858473,7.10262307 17.3834824,7.72210744 L17.3834824,10.1325758 C17.3834824,10.5676141 17.7368972,10.9202824 18.1728564,10.9202824 L21.0629143,10.9202824 C22.199267,10.9202824 23.1204629,11.8395324 23.1204629,12.9734848 C23.1204629,14.1074373 22.199267,15.0266873 21.0629143,15.0266873 L18.8155708,15.043905 Z" id="Shape"></path>
            <path d="M18.7249868,8.79390496 L16.9478169,8.79390496 C16.7095879,8.79390496 16.516465,8.60119006 16.516465,8.36346419 C16.516465,8.12573831 16.7095879,7.93302342 16.9478169,7.93302342 L18.7249868,7.93302342 C18.9632159,7.93302342 19.1563388,8.12573831 19.1563388,8.36346419 C19.1563388,8.60119006 18.9632159,8.79390496 18.7249868,8.79390496 Z" id="Path"></path>
            <path d="M28.8143083,8.20851824 C28.6904123,8.20834895 28.5725656,8.15503799 28.4907943,8.06215565 L27.2873225,6.68474518 C27.0265012,6.38627738 26.6489256,6.21515732 26.2520779,6.21556474 L25.7344555,6.21556474 C25.6360878,6.21790254 25.5575734,6.2981621 25.5576013,6.39634986 L25.5576013,7.77806474 C25.5576013,8.01579061 25.3644784,8.20851824 25.1262493,8.20851824 L25.1262493,8.20851824 C24.8880203,8.20851824 24.6948974,8.01579061 24.6948974,7.77806474 L24.6948974,6.39634986 C24.6914373,6.11899373 24.7994324,5.851807 24.9947637,5.65446197 C25.1900949,5.45711693 25.4564908,5.34607421 25.7344555,5.34607421 L26.2477643,5.34607421 C26.8945932,5.34582419 27.5097909,5.62529705 27.9343503,6.11225895 L29.1378222,7.48966942 C29.2524356,7.61638295 29.2811853,7.79870809 29.211106,7.95442173 C29.1410267,8.11013536 28.9853605,8.20981397 28.8143083,8.20851824 L28.8143083,8.20851824 Z" id="Path"></path>
            <path d="M31.7647554,6.83971106 C31.6501008,6.84036534 31.5398998,6.79544874 31.4584955,6.71487603 L28.7496055,4.01170799 C28.6598061,3.92259471 28.6137879,3.79860418 28.6237551,3.67261951 C28.6337223,3.54663483 28.6986679,3.4313861 28.8013677,3.35743802 L30.2809048,2.2899449 C30.6486052,2.02479026 31.1341953,1.98761325 31.5381265,2.19369139 C31.9420576,2.39976953 32.1961965,2.81434243 32.1961073,3.26704545 L32.1961073,6.40926309 C32.1961073,6.64698896 32.0029845,6.83971106 31.7647554,6.83971106 L31.7647554,6.83971106 Z M29.7201473,3.75774793 L31.3377189,5.37190083 L31.3377189,3.26704545 C31.3381432,3.13737438 31.265534,3.01845865 31.1498582,2.95937955 C31.0341824,2.90030044 30.8950552,2.91107609 30.7899001,2.98725895 L29.7201473,3.75774793 Z" id="Shape"></path>
            <path d="M38.649132,29.0848829 L36.8805892,29.0848829 C36.6423601,29.0848829 36.4492372,28.892168 36.4492372,28.6544421 C36.4492372,28.4167163 36.6423601,28.2240014 36.8805892,28.2240014 L38.6706996,28.2240014 C39.0596652,28.2240014 39.4326998,28.0698118 39.70774,27.7953526 C39.9827802,27.5208933 40.1372962,27.1486467 40.1372962,26.7605028 L40.1372962,22.9769284 C40.1372962,22.7392025 40.330419,22.5464876 40.5686481,22.5464876 C40.8068772,22.5464876 41,22.7392025 41,22.9769284 L41,26.7605028 C41,27.3807138 40.7516605,27.9752141 40.3101562,28.411744 C39.8686518,28.8482738 39.2706293,29.0906256 38.649132,29.0848829 Z" id="Path"></path>
            <path d="M40.5470805,24.3500344 C40.3088514,24.3500344 40.1157286,24.1573195 40.1157286,23.9195937 L40.1157286,8.45385675 C40.1109743,4.25758452 36.7032085,0.857016963 32.4980537,0.852272727 L31.1651762,0.852272727 C29.885026,0.854035443 28.6637875,1.38924668 27.7963177,2.32868457 L26.9336139,3.27565427 L29.0688059,3.27565427 C29.1834605,3.27499279 29.2936615,3.31990939 29.3750658,3.40048209 L32.0839558,6.10365014 C32.1646991,6.18488242 32.2097108,6.29485064 32.2090479,6.40926309 L32.2090479,10.3822314 C32.2111736,12.0337711 31.2914379,13.5490422 29.8236718,14.3121556 L25.3117307,16.6666667 C24.1290541,17.2803591 23.3872822,18.5002037 23.3879011,19.8304063 L23.3879011,22.1375689 C23.3879011,22.3752947 23.1947783,22.5680096 22.9565492,22.5680096 C22.7183201,22.5680096 22.5251936,22.3752947 22.5251936,22.1375689 L22.5251936,19.8304063 C22.5230716,18.1788666 23.4428072,16.6635955 24.9105734,15.9004821 L29.4095739,13.5502755 C30.593628,12.9358704 31.335634,11.7139807 31.3334035,10.3822314 L31.3334035,6.59004821 L28.8746975,4.13653581 L25.937191,4.13653581 C25.7651442,4.1377049 25.6088544,4.03673771 25.5395001,3.87961728 C25.4701458,3.72249686 25.500992,3.53927487 25.6179905,3.41339532 L27.1622304,1.75189394 C28.1936286,0.636845265 29.6445245,0.00185894462 31.1651762,0 L32.4980537,0 C37.1763042,0.00473464154 40.9689262,3.78549535 40.9784324,8.45385675 L40.9784324,23.9195937 C40.9784324,24.1573195 40.7853096,24.3500344 40.5470805,24.3500344 Z" id="Path"></path>
            <path d="M26.3908469,22.4073691 C26.1526178,22.4073691 25.9594913,22.2146542 25.9594913,21.9769284 L25.9594913,21.2064394 C25.9573693,19.5548997 26.877105,18.0396286 28.3448711,17.2765152 L32.8611257,14.9263085 C34.0451798,14.3119035 34.7871858,13.0900137 34.7849553,11.7582645 L34.7849553,7.36346419 C34.7849553,7.12573831 34.9780781,6.93302342 35.2163072,6.93302342 C35.4545363,6.93302342 35.6476628,7.12573831 35.6476628,7.36346419 L35.6476628,11.7582645 C35.6497848,13.4098042 34.7300492,14.9250753 33.262283,15.6881887 L28.7460284,18.0383953 C27.5619743,18.6528004 26.8199683,19.8746901 26.8221988,21.2064394 L26.8221988,21.9769284 C26.8221988,22.2146542 26.629076,22.4073691 26.3908469,22.4073691 Z" id="Path"></path>
            <path d="M32.4297738,27.6227618 C32.1915447,27.6227618 31.9984219,27.4300468 31.9984219,27.1923209 L31.9984219,23.413051 C31.9984219,21.9796832 32.5505523,20.6668388 33.4434508,19.9695248 L36.1135192,17.9292355 C36.7864282,17.4127066 37.2220936,16.3366047 37.2220936,15.1830234 L37.2220936,9.84986226 C37.2220936,9.61213639 37.4152165,9.41942149 37.6534456,9.41942149 C37.8916746,9.41942149 38.0847975,9.61213639 38.0847975,9.84986226 L38.0847975,15.2346763 C38.0847975,16.6680441 37.5283535,17.9808884 36.6397685,18.6782025 L33.9697002,20.7184917 C33.2924776,21.2005854 32.8611257,22.2809917 32.8611257,23.413051 L32.8611257,27.1751033 C32.865824,27.2922163 32.8224607,27.4061768 32.7410518,27.4906633 C32.6596428,27.5751498 32.5472286,27.6227618 32.4297738,27.6227618 Z" id="Path"></path>
            <path d="M36.7856917,47.1763085 L24.5094161,47.1763085 C23.4135623,47.1763085 22.5251973,46.28982 22.5251973,45.196281 L22.5251973,32.8942837 C22.5251973,32.6565579 22.7183201,32.463843 22.9565492,32.463843 L25.721515,32.463843 C25.9597441,32.463843 26.1528669,32.6565579 26.1528669,32.8942837 L26.1528669,37.2589532 C26.1528669,38.0909937 26.8287968,38.7654959 27.6625986,38.7654959 C28.4964004,38.7654959 29.1723304,38.0909937 29.1723304,37.2589532 L29.1723304,32.8942837 C29.1723304,32.6565579 29.3654532,32.463843 29.6036823,32.463843 C29.8419114,32.463843 30.0350342,32.6565579 30.0350342,32.8942837 L30.0350342,37.2589532 C30.0350342,38.5664455 28.9728586,39.6263774 27.6625986,39.6263774 C26.3523387,39.6263774 25.2901631,38.5664455 25.2901631,37.2589532 L25.2901631,33.3247245 L23.3879011,33.3247245 L23.3879011,45.196281 C23.3879011,45.8143683 23.8900205,46.315427 24.5094161,46.315427 L36.7856917,46.315427 C37.3788822,46.315427 37.859758,45.8355669 37.859758,45.2436295 L37.859758,28.6544421 C37.859758,28.4167163 38.0528809,28.2240014 38.2911099,28.2240014 C38.529339,28.2240014 38.7225388,28.4167163 38.7225388,28.6544421 L38.7225388,45.2264118 C38.7270647,45.7419669 38.5250465,46.2379862 38.1613315,46.6041662 C37.7976166,46.9703462 37.3023586,47.1763085 36.7856917,47.1763085 Z" id="Path"></path>
            <path d="M29.5907417,33.3247245 C29.4331485,33.3244628 29.2882416,33.2384602 29.2127776,33.1004018 C29.1373136,32.9623435 29.1433054,32.7942063 29.2284061,32.6618457 C30.7899001,30.2083333 30.3930563,26.2913223 28.3657023,24.2854683 C26.0730322,21.9982482 22.3967405,21.8740827 19.9543398,24.0013774 C22.1645485,26.4100236 23.3869924,29.5595406 23.3792741,32.8254132 L23.3792741,32.8985882 C23.3792741,33.136314 23.1861512,33.3290289 22.9479221,33.3290289 C22.7096931,33.3290289 22.5165702,33.136314 22.5165702,32.8985882 L22.5165702,32.8254132 C22.5236246,29.6333426 21.2734613,26.566323 19.0355602,24.2854683 C18.8683149,24.1175803 18.8683149,23.8464349 19.0355602,23.6785468 C21.7778038,20.950992 26.2144109,20.950992 28.9566544,23.6785468 C31.2687007,25.9857094 31.7129932,30.3159435 29.9271962,33.1267218 C29.853132,33.2425159 29.7281301,33.3160793 29.5907417,33.3247245 Z" id="Path"></path>
            <path d="M25.7258285,33.3247245 C25.4875994,33.3247245 25.2944766,33.1320096 25.2944766,32.8942837 L25.2944766,32.3131887 C25.2944766,31.3622852 26.0669679,30.5914256 27.0198843,30.5914256 C27.2581134,30.5914256 27.4512362,30.7841405 27.4512362,31.0218664 C27.4512362,31.2595923 27.2581134,31.4523072 27.0198843,31.4523072 C26.5434261,31.4523072 26.1571804,31.837737 26.1571804,32.3131887 L26.1571804,32.8985882 C26.1548149,33.1346313 25.9623832,33.3247245 25.7258285,33.3247245 Z" id="Path"></path>
            <path d="M35.3277223,34.0952135 C34.9130255,34.0957294 34.5159539,33.9279131 34.2277749,33.6303375 C33.7937679,34.0774878 33.1313223,34.2172212 32.5531046,33.983585 C31.974887,33.7499488 31.5965281,33.1896522 31.5965281,32.5671488 C31.5965281,32.3294229 31.789651,32.136708 32.0278801,32.136708 C32.2661092,32.136708 32.459232,32.3294229 32.459232,32.5671488 C32.459232,32.8055104 32.5866655,33.0257656 32.7935297,33.1449464 C33.0003939,33.2641272 33.255261,33.2641272 33.4621252,33.1449464 C33.6689894,33.0257656 33.796423,32.8055104 33.7964229,32.5671488 C33.7964229,32.3294229 33.9895458,32.136708 34.2277749,32.136708 C34.4660039,32.136708 34.6591268,32.3294229 34.6591268,32.5671488 C34.6591268,32.9356239 34.9584672,33.234332 35.3277223,33.234332 C35.6969773,33.234332 35.9963177,32.9356239 35.9963177,32.5671488 C35.9963177,32.3294229 36.1894406,32.136708 36.4276696,32.136708 C36.6658987,32.136708 36.8590216,32.3294229 36.8590216,32.5671488 C36.8590216,32.9724167 36.6976887,33.361086 36.4105144,33.6476537 C36.1233401,33.9342214 35.7338481,34.0952135 35.3277223,34.0952135 Z" id="Path"></path>
            <path d="M35.3277223,40.5346074 C34.9117493,40.5328731 34.5144896,40.3618682 34.2277749,40.0611226 C33.7937679,40.5082729 33.1313223,40.6480063 32.5531046,40.4143701 C31.974887,40.1807339 31.5965281,39.6204373 31.5965281,38.9979339 C31.5965281,38.760208 31.789651,38.5674931 32.0278801,38.5674931 C32.2661092,38.5674931 32.459232,38.760208 32.459232,38.9979339 C32.459232,39.366409 32.7585724,39.665117 33.1278275,39.665117 C33.4970825,39.665117 33.7964229,39.366409 33.7964229,38.9979339 C33.7964229,38.760208 33.9895458,38.5674931 34.2277749,38.5674931 C34.4660039,38.5674931 34.6591268,38.760208 34.6591268,38.9979339 C34.6591268,39.366409 34.9584672,39.6651171 35.3277223,39.6651171 C35.6969773,39.6651171 35.9963177,39.366409 35.9963177,38.9979339 C35.9963177,38.760208 36.1894406,38.5674931 36.4276696,38.5674931 C36.6658987,38.5674931 36.8590459,38.760208 36.8590459,38.9979339 C36.861318,39.4046914 36.7009996,39.7955759 36.413576,40.0840083 C36.1261523,40.3724406 35.7353472,40.5346074 35.3277223,40.5346074 Z" id="Path"></path>
            <path d="M19.1951604,12.5344353 C18.9569314,12.5344353 18.7638085,12.3417204 18.7638085,12.1039945 L18.7638085,11.3679408 C18.7638085,11.1302149 18.9569314,10.9375 19.1951604,10.9375 C19.4333895,10.9375 19.6265124,11.1302149 19.6265124,11.3679408 L19.6265124,12.1039945 C19.6265124,12.3417204 19.4333895,12.5344353 19.1951604,12.5344353 Z" id="Path"></path>
            <path d="M19.1951604,14.9664256 C18.9569314,14.9664256 18.7638085,14.7737107 18.7638085,14.5359848 L18.7638085,13.8042355 C18.7638085,13.5665097 18.9569314,13.3737948 19.1951604,13.3737948 C19.4333895,13.3737948 19.6265124,13.5665097 19.6265124,13.8042355 L19.6265124,14.5359848 C19.6265124,14.7737107 19.4333895,14.9664256 19.1951604,14.9664256 Z" id="Path"></path>
            <path d="M3.54139926,26.7691331 C3.30317018,26.7691331 3.11004734,26.5763967 3.11004734,26.3386708 C3.11021277,25.7145436 3.1447731,25.0908977 3.2135718,24.4705579 C3.23052359,24.3167762 3.32840291,24.1837006 3.47033955,24.1214594 C3.6122762,24.0592183 3.77670662,24.0772674 3.90169148,24.1688079 C4.02667633,24.2603484 4.09322744,24.4114731 4.07627564,24.5652548 C4.01057824,25.1541255 3.97745769,25.7461622 3.9770647,26.3386708 C3.97707046,26.4535805 3.93103294,26.5637222 3.84920342,26.6445704 C3.76737391,26.7254186 3.65654645,26.7702607 3.54139926,26.7691331 Z" id="Path"></path>
            <path d="M3.96412415,23.0587165 L3.8649132,23.0587165 C3.75333415,23.0330908 3.65654064,22.9642537 3.59585838,22.8673672 C3.53517611,22.7704806 3.51558424,22.6534944 3.54139926,22.5421832 C4.93035245,16.6236226 9.43366649,12.5129132 14.4934245,12.5129132 L17.2540768,12.5129132 C17.4923059,12.5129132 17.6854287,12.7056281 17.6854287,12.943354 C17.6854287,13.1810799 17.4923059,13.3737948 17.2540768,13.3737948 L14.4934245,13.3737948 C9.83482378,13.3737948 5.68090479,17.2133264 4.38684903,22.7229683 C4.34232434,22.9199873 4.16651633,23.0596205 3.96412415,23.0587165 Z" id="Path"></path>
            <path d="M0.43135192,26.7691116 C0.193122833,26.7691116 0,26.5763967 0,26.3386708 C0,26.0517103 0.0086270384,25.7647498 0.0258811152,25.4777893 C0.0401748604,25.2400634 0.244885063,25.0589114 0.48311415,25.0731749 C0.721343238,25.0874385 0.902878701,25.2917163 0.888584955,25.5294421 C0.871330878,25.7963154 0.86270384,26.0646235 0.86270384,26.3343664 C0.86385537,26.4492704 0.818918358,26.5598637 0.737899034,26.6415204 C0.656879711,26.723177 0.546504864,26.7691116 0.43135192,26.7691116 Z" id="Path"></path>
            <path d="M6.75497107,24.0487259 L6.68595476,24.0487259 C6.45030099,24.0174879 6.28439513,23.8018809 6.31499211,23.5666322 C6.92751184,18.9695248 9.00231457,15.2634298 11.6939506,13.5459711 C6.46080631,14.4495274 2.29482927,18.4212986 1.15170963,23.5967631 C1.10168151,23.834489 0.868002888,23.9867337 0.629773807,23.9368113 C0.391544725,23.8868888 0.238977688,23.6537038 0.289005786,23.415978 C1.69740846,17.0564146 7.34118052,12.5248143 13.8679642,12.5129132 L17.2540768,12.5129132 C17.4923059,12.5129132 17.6854287,12.7056281 17.6854287,12.943354 C17.6854287,13.1810799 17.4923059,13.3737948 17.2540768,13.3737948 L15.0973172,13.3737948 C11.2971068,13.3737948 7.98001052,17.6782025 7.18200947,23.6742424 C7.15389012,23.8882585 6.97127541,24.0483991 6.75497107,24.0487259 L6.75497107,24.0487259 Z" id="Path"></path>
            <path d="M6.57811678,26.7691119 C6.33988769,26.7691119 6.14676486,26.5763967 6.14676486,26.3386708 C6.14676486,26.140668 6.14676486,25.9426653 6.14676486,25.7446625 C6.14676486,25.5069367 6.33988769,25.3142218 6.57811678,25.3142218 L6.57811678,25.3142218 C6.81634587,25.3142218 7.0094687,25.5069367 7.0094687,25.7446625 C7.0094687,25.9340565 7.0094687,26.1248852 7.0094687,26.3171488 C7.01538072,26.4349899 6.97255841,26.5500867 6.89101461,26.6355268 C6.80947081,26.720967 6.6963552,26.7692592 6.57811678,26.7691119 L6.57811678,26.7691119 Z" id="Path"></path>
            <path d="M40.1157286,50 L20.7048922,50 C20.4666631,50 20.2735402,49.8072851 20.2735402,49.5695592 L20.2735402,46.9481749 C20.2735402,46.7104491 20.4666631,46.5177342 20.7048922,46.5177342 L40.1157286,46.5177342 C40.3539577,46.5177342 40.5470805,46.7104491 40.5470805,46.9481749 L40.5470805,49.5695592 C40.5470805,49.8072851 40.3539577,50 40.1157286,50 Z M21.1362441,49.1391185 L39.6843766,49.1391185 L39.6843766,47.3786157 L21.1362441,47.3786157 L21.1362441,49.1391185 Z" id="Shape"></path>
        </g>
    </g>
</svg>