<?xml version="1.0" encoding="UTF-8"?>
<svg width="172px" height="33px" viewBox="0 0 172 33" version="1.1" xmlns="http://www.w3.org/2000/svg" xmlns:xlink="http://www.w3.org/1999/xlink">
    <title>facebook-7</title>
    <g id="Page-1" stroke="none" stroke-width="1" fill="none" fill-rule="evenodd" fill-opacity="0.85">
        <g id="New-to-MacAppStudio" transform="translate(-1094.000000, -4213.000000)" fill="#000000" fill-rule="nonzero">
            <g id="facebook-7" transform="translate(1094.000000, 4213.000000)">
                <path d="M10.8962,32.4913896 L4.415068,32.4913896 L4.415068,16.4753623 L0,16.4753623 L0,11.2608696 L4.414896,11.2608696 L4.414896,7.55038363 C4.414896,3.15345269 6.367612,0 12.8312,0 C14.198256,0 16.344472,0.27314578 16.344472,0.27314578 L16.344472,5.11508951 L14.09024,5.11508951 C11.793352,5.11508951 10.896544,5.80767263 10.896544,7.72242114 L10.896544,11.2608696 L16.258472,11.2608696 L15.781,16.4753623 L10.896372,16.4753623 L10.8962,32.4913896 Z M25.76732,10.8441603 C25.672892,10.8441603 25.575712,10.8475703 25.479564,10.8499574 C19.469884,10.8499574 16.720292,15.3311168 16.720292,21.6922421 C16.720292,29.7055413 20.286884,32.9127025 25.52652,32.9127025 C28.524308,32.9127025 30.49388,31.6618926 31.691,29.3277067 L31.691,32.4936061 L37.85548,32.4936061 L37.85548,11.2630861 L31.691,11.2630861 L31.691,14.5280477 C30.713524,12.427451 28.688912,10.8690537 25.76732,10.8441603 Z M27.334756,15.8608696 C29.858856,15.8608696 31.373832,17.6061381 31.373832,20.5747656 L31.37968,23.6068201 C31.37968,25.6076726 30.12838,27.9485081 27.334756,27.9485081 C23.039916,27.9485081 23.15464,23.3514066 23.15464,21.8202899 C23.15464,16.6699062 25.442928,15.8608696 27.334756,15.8608696 Z M40.344948,21.8794544 C40.344948,19.2995737 40.22048,10.857971 51.315168,10.857971 C55.768764,10.857971 57.628428,12.2617221 57.628428,12.2617221 L56.133748,16.857289 C56.133748,16.857289 54.276492,15.8434783 51.856452,15.8434783 C48.75684,15.8434783 46.779012,17.6247229 46.779012,20.7587383 L46.782452,23.0059676 C46.782452,26.0173913 48.690792,28.0276215 51.862816,28.0276215 C54.067512,28.0276215 56.09952,27.0042626 56.09952,27.0042626 L57.590416,31.5038363 C57.590416,31.5038363 55.890024,32.9164535 51.3463,32.9164535 C40.782404,32.9164535 40.34518,25.342711 40.34518,21.8794544 L40.344948,21.8794544 Z M93.773024,10.8499574 C99.782876,10.8499574 102.575812,15.3311168 102.575812,21.6922421 C102.575812,29.7055413 99.009048,32.9127025 93.769412,32.9127025 C90.771624,32.9127025 88.555576,31.6620631 87.358456,29.3277067 L87.358456,32.4936061 L81.271548,32.4912191 L81.271548,0.645524297 L87.734276,0.0867860188 L87.734276,14.2404092 C88.667032,11.7641944 91.732416,10.8499574 93.773196,10.8499574 L93.773024,10.8499574 Z M91.961176,15.8608696 C89.437076,15.8608696 87.734276,17.6061381 87.734276,20.5747656 L87.728247,23.6068201 C87.724472,25.6076726 88.907488,27.9485081 91.961176,27.9485081 C96.256016,27.9485081 96.141292,23.3514066 96.141292,21.8202899 C96.141292,16.6699062 93.853176,15.8608696 91.961176,15.8608696 Z M68.841796,10.8673487 C62.025436,10.8673487 58.426852,14.5515772 58.426852,21.0985507 L58.426852,22.314919 C58.426852,30.8122762 63.480384,33 69.5052,33 C75.361284,33 78.011976,31.3763001 78.011976,31.3763001 L76.802644,27.0523444 C76.802644,27.0523444 73.684628,28.3674339 70.28006,28.3674339 C66.75062,28.3674339 65.23272,27.4757033 64.843656,24.1133845 L78.528664,24.1133845 L78.528664,20.6445013 C78.528664,13.542711 74.489932,10.8673487 68.841624,10.8673487 L68.841796,10.8673487 Z M69.006056,15.197272 C71.365552,15.197272 72.89446,16.6315431 72.810524,19.9578858 L64.855524,19.9578858 C64.993468,16.456948 66.64226,15.1974425 69.006056,15.1974425 L69.006056,15.197272 Z M115.462224,10.8383632 C108.46234,10.8383632 104.77724,14.7486786 104.77724,21.7561807 C104.77724,31.370844 111.129544,32.9184996 115.47392,32.9184996 C121.833792,32.9184996 126.064992,29.5242967 126.064992,21.8434783 C126.064992,13.8491049 121.307472,10.8383632 115.462224,10.8383632 L115.462224,10.8383632 Z M115.37416,15.8782609 C118.4521,15.8782609 119.671752,18.1618073 119.671752,20.7611253 L119.671752,22.9959079 C119.671752,26.144757 117.965168,27.9660699 115.362464,27.9660699 C112.92832,27.9660699 111.217608,26.2624041 111.217608,22.9959079 L111.217608,20.7611253 C111.217608,17.2774084 113.253228,15.8782609 115.37416,15.8782609 L115.37416,15.8782609 Z M138.93988,10.8383632 C131.939996,10.8383632 128.254896,14.7486786 128.254896,21.7561807 C128.254896,31.370844 134.6072,32.9184996 138.951576,32.9184996 C145.311276,32.9184996 149.542648,29.5242967 149.542648,21.8434783 C149.542648,13.8491049 144.784956,10.8383632 138.93988,10.8383632 Z M138.851816,15.8782609 C141.929756,15.8782609 143.149236,18.1618073 143.149236,20.7611253 L143.149236,22.9959079 C143.149236,26.144757 141.442652,27.9660699 138.84012,27.9660699 C136.405976,27.9660699 134.695264,26.2624041 134.695264,22.9959079 L134.695264,20.7611253 C134.695264,17.2774084 136.730884,15.8782609 138.851816,15.8782609 L138.851816,15.8782609 Z M151.984876,32.4913896 L151.984876,0.645524297 L158.466352,0.0867860188 L158.466352,21.4318841 L164.896744,11.2608696 L171.741656,11.2608696 L165.033656,21.7950554 L172,32.4913896 L165.135652,32.4913896 L158.466352,22.1053708 L158.466352,32.4913896 L151.984876,32.4913896 Z" id="Shape"></path>
            </g>
        </g>
    </g>
</svg>