<?xml version="1.0" encoding="UTF-8"?>
<svg width="142px" height="44px" viewBox="0 0 142 44" version="1.1" xmlns="http://www.w3.org/2000/svg" xmlns:xlink="http://www.w3.org/1999/xlink">
    <title>airbnb</title>
    <g id="Page-1" stroke="none" stroke-width="1" fill="none" fill-rule="evenodd" fill-opacity="0.85">
        <g id="New-to-MacAppStudio" transform="translate(-884.000000, -4122.000000)" fill="#000000" fill-rule="nonzero">
            <g id="airbnb" transform="translate(884.000000, 4122.000000)">
                <path d="M74.8385158,11.0556589 C74.8385158,12.6413872 73.5515764,13.9182416 71.9544243,13.9182416 C70.3572723,13.9182416 69.0712192,12.6413872 69.0712192,11.0556589 C69.0712192,9.4699306 70.3133994,8.19307614 71.9544243,8.19307614 C73.5967788,8.23707526 74.8385158,9.51436971 74.8385158,11.0556589 L74.8385158,11.0556589 Z M62.949394,16.8257035 L62.949394,17.5305694 C62.949394,17.5305694 61.5747087,15.7679646 58.6467444,15.7679646 C53.8118585,15.7679646 50.0405588,19.4238515 50.0405588,24.4885902 C50.0405588,29.5097698 53.7675424,33.2092158 58.6467444,33.2092158 C61.6190248,33.2092158 62.949394,31.4034919 62.949394,31.4034919 L62.949394,32.151917 C62.949394,32.5043499 63.2161768,32.7679046 63.5707056,32.7679046 L67.1634114,32.7679046 L67.1634114,16.2070759 L63.5707056,16.2070759 C63.2161768,16.2083958 62.949394,16.5172697 62.949394,16.8257035 L62.949394,16.8257035 Z M62.949394,27.4396112 C62.2846525,28.4089118 60.9533971,29.2457751 59.3566882,29.2457751 C56.5177992,29.2457751 54.3436516,27.4840503 54.3436516,24.4885902 C54.3436516,21.4935701 56.5177992,19.7318454 59.3566882,19.7318454 C60.9095241,19.7318454 62.3289686,20.6127077 62.949394,21.5375692 L62.949394,27.4396112 Z M69.8254792,16.2083958 L74.0838127,16.2083958 L74.0838127,32.7692246 L69.8254792,32.7692246 L69.8254792,16.2083958 L69.8254792,16.2083958 Z M133.439017,15.7675246 C130.511053,15.7675246 129.135481,17.5301294 129.135481,17.5301294 L129.135481,8.23707526 L124.877147,8.23707526 L124.877147,32.7692246 L128.47074,32.7692246 C128.825711,32.7692246 129.091165,32.4607908 129.091165,32.152357 L129.091165,31.4039319 C129.091165,31.4039319 130.466736,33.2096558 133.393814,33.2096558 C138.229587,33.2096558 142,29.5110898 142,24.4899102 C142,19.4687306 138.229587,15.7675246 133.439017,15.7675246 L133.439017,15.7675246 Z M132.729073,29.201336 C131.087162,29.201336 129.801109,28.3653527 129.135481,27.3956121 L129.135481,21.4935701 C129.801109,20.6127077 131.220553,19.6878462 132.729073,19.6878462 C135.567962,19.6878462 137.741666,21.449571 137.741666,24.4445911 C137.741666,27.4396112 135.568405,29.201336 132.729073,29.201336 Z M122.65957,22.947741 L122.65957,32.8132237 L118.40035,32.8132237 L118.40035,23.4317314 C118.40035,20.701586 117.513142,19.599848 115.119187,19.599848 C113.833134,19.599848 112.501878,20.2607148 111.657656,21.2300154 L111.657656,32.7696646 L107.400209,32.7696646 L107.400209,16.2088358 L110.770448,16.2088358 C111.12542,16.2088358 111.39176,16.5172697 111.39176,16.8257035 L111.39176,17.5305694 C112.63394,16.2528349 114.274965,15.7679646 115.91599,15.7679646 C117.779482,15.7679646 119.332318,16.2972741 120.574498,17.3541329 C122.082131,18.5874283 122.65957,20.1727165 122.65957,22.947741 L122.65957,22.947741 Z M97.0625939,15.7675246 C94.1355159,15.7675246 92.7599443,17.5301294 92.7599443,17.5301294 L92.7599443,8.23707526 L88.5016108,8.23707526 L88.5016108,32.7692246 L92.0943166,32.7692246 C92.4492885,32.7692246 92.7156282,32.4607908 92.7156282,32.152357 L92.7156282,31.4039319 C92.7156282,31.4039319 94.0911998,33.2096558 97.0182779,33.2096558 C101.85405,33.2096558 105.624463,29.5110898 105.624463,24.4899102 C105.668779,19.4682906 101.898366,15.7675246 97.0625939,15.7675246 L97.0625939,15.7675246 Z M96.3526501,29.201336 C94.7116251,29.201336 93.4255721,28.3653527 92.7599443,27.3956121 L92.7599443,21.4935701 C93.4255721,20.6127077 94.8450166,19.6878462 96.3526501,19.6878462 C99.1924254,19.6878462 101.365687,21.449571 101.365687,24.4445911 C101.365687,27.4396112 99.1924254,29.201336 96.3526501,29.201336 Z M84.8193865,15.7675246 C86.1054396,15.7675246 86.7710673,15.9884002 86.7710673,15.9884002 L86.7710673,19.9078418 C86.7710673,19.9078418 83.2222345,18.7185456 81.0046571,21.2295754 L81.0046571,32.8127837 L76.7454373,32.8127837 L76.7454373,16.2083958 L80.3390294,16.2083958 C80.6940013,16.2083958 80.9594547,16.5168297 80.9594547,16.8252635 L80.9594547,17.5301294 C81.7589171,16.6048279 83.4890174,15.7675246 84.8193865,15.7675246 L84.8193865,15.7675246 Z M40.5923675,31.2714946 C40.370787,30.7430651 40.1487634,30.1706366 39.9271829,29.6857663 C39.5717678,28.8933421 39.2167959,28.1440371 38.9070264,27.4396112 L38.8627103,27.3956121 C35.8013545,20.7887042 32.5193046,14.0946781 29.0586608,7.48865023 L28.9257125,7.22377552 C28.5617314,6.53847603 28.207023,5.84836112 27.861683,5.15361693 C27.4176358,4.36031279 26.9744748,3.52432951 26.264531,2.73102538 C24.8450865,0.969300614 22.8043304,0 20.6310691,0 C18.4126054,0 16.4166085,0.969300614 14.9532911,2.64258715 C14.2876633,3.4350113 13.7993,4.27187456 13.356139,5.0651787 C13.0099246,5.75948678 12.6552219,6.44959063 12.2921096,7.13533729 L12.1587182,7.400212 C8.7428336,14.0062399 5.41602439,20.700706 2.35511175,27.3071739 L2.3103525,27.3947321 C2.00013984,28.100478 1.64472476,28.848903 1.28975284,29.6408872 C1.06817237,30.1257575 0.846591898,30.6541869 0.625011426,31.2266155 C0.0480158768,32.8559029 -0.129691662,34.397632 0.0927751321,35.9838003 C0.580695332,39.2872543 2.7982727,42.0609588 5.8596285,43.2951341 C7.01317643,43.7800044 8.21104047,44 9.45277743,44 C9.80774935,44 10.2509103,43.9560009 10.6063254,43.9115618 C12.0705291,43.7355653 13.5786058,43.251575 15.0428096,42.4147117 C16.8615421,41.401412 18.5916424,39.948561 20.5433232,37.8344033 C22.495004,39.948561 24.2694204,41.401412 26.0438369,42.4147117 C27.5084838,43.251575 29.0161173,43.7355653 30.4798779,43.9115618 C30.8348498,43.9564409 31.2788971,44 31.633869,44 C32.8760491,44 34.1177861,43.7800044 35.2265748,43.2951341 C38.3322467,42.0609588 40.5055079,39.2432551 40.9938713,35.9838003 C41.3461843,34.4425111 41.1689199,32.901662 40.5923675,31.2714946 L40.5923675,31.2714946 Z M20.5863098,33.5616488 C18.1905818,30.5666287 16.6377458,27.748045 16.1059527,25.3703326 C15.8843722,24.3570329 15.839613,23.4761705 15.9730044,22.6833063 C16.0611934,21.9784404 16.3279763,21.3615728 16.6829482,20.8331433 C17.5258404,19.6447271 18.9452849,18.8954221 20.586753,18.8954221 C22.2286643,18.8954221 23.6924249,19.600288 24.4910009,20.8331433 C24.8459728,21.3615728 25.1118694,21.9788804 25.2013879,22.6833063 C25.333893,23.4766105 25.2895769,24.401032 25.0679965,25.3703326 C24.5339875,27.7040459 22.9811516,30.5230695 20.5863098,33.5616488 Z M38.2852716,35.6318074 C37.975059,37.9219616 36.422223,39.9045619 34.2489617,40.7854243 C33.1844891,41.2254155 32.030498,41.3578528 30.8778364,41.2254155 C29.7690478,41.0929781 28.6593727,40.7405452 27.5067111,40.0805584 C25.9095591,39.198816 24.3128502,37.8344033 22.4493584,35.8078038 C25.3768796,32.2407952 27.1512961,28.9809004 27.8169238,26.0747585 C28.1275796,24.7090258 28.1723389,23.4761705 28.0385043,22.3304334 C27.861683,21.2295754 27.4619519,20.2162757 26.8410834,19.3354133 C25.4650687,17.3528129 23.1579728,16.2083958 20.5858667,16.2083958 C18.0137605,16.2083958 15.7066647,17.397692 14.3315363,19.3354133 C13.7106678,20.2162757 13.3109366,21.2295754 13.1336722,22.3304334 C12.9564079,23.4761705 13.0002808,24.7530249 13.3552527,26.0747585 C14.0204373,28.9809004 15.8391698,32.2843543 18.7223749,35.851803 C16.9036424,37.8779624 15.2621742,39.2436951 13.6650222,40.1245575 C12.5114743,40.7854243 11.4031287,41.1378572 10.2943401,41.2694146 C9.09691919,41.401852 7.9429281,41.2254155 6.9227716,40.8294234 C4.74951033,39.948561 3.19667438,37.9659607 2.88646172,35.6758065 C2.75351344,34.5749485 2.84170247,33.4740905 3.28574973,32.2407952 C3.41825486,31.799924 3.64072165,31.3599328 3.86230212,30.8315034 C4.17295794,30.1266375 4.52704354,29.3773325 4.88245862,28.6289074 L4.92721787,28.5413492 C7.98768735,21.9784404 11.2701805,15.2839743 14.686065,8.76594468 L14.8190133,8.50106998 C15.1744284,7.84108318 15.5294003,7.13621728 15.8839291,6.47535049 C16.238901,5.77048459 16.6377458,5.10961781 17.1261092,4.53674927 C18.0576335,3.48077038 19.2993704,2.90746185 20.674942,2.90746185 C22.0505136,2.90746185 23.2922506,3.48077038 24.2237749,4.53674927 C24.7121382,5.11093778 25.1109831,5.77180456 25.465955,6.47535049 C25.8213701,7.13621728 26.176342,7.84108318 26.5304276,8.50106998 L26.663819,8.76594468 C30.0276154,15.3110565 33.2665185,21.9187043 36.3787932,28.5853483 L36.3787932,28.6293474 C36.7342083,29.3350933 37.044421,30.1270775 37.3993929,30.8328233 C37.6209734,31.3603728 37.842997,31.800364 37.9759453,32.2412352 C38.3300309,33.3852123 38.4629792,34.4869503 38.2852716,35.6318074 L38.2852716,35.6318074 Z" id="Shape"></path>
            </g>
        </g>
    </g>
</svg>