<?xml version="1.0" encoding="UTF-8"?>
<svg width="132px" height="36px" viewBox="0 0 132 36" version="1.1" xmlns="http://www.w3.org/2000/svg" xmlns:xlink="http://www.w3.org/1999/xlink">
    <title>netflix-3</title>
    <g id="Page-1" stroke="none" stroke-width="1" fill="none" fill-rule="evenodd" fill-opacity="0.85">
        <g id="New-to-MacAppStudio" transform="translate(-679.000000, -4128.000000)" fill="#000000" fill-rule="nonzero">
            <g id="netflix-3" transform="translate(679.000000, 4128.000000)">
                <path d="M124.938606,17.1359583 L132,36 C129.918939,35.7001062 127.839027,35.3244422 125.721211,34.9860114 L121.743291,24.5628924 L117.656113,34.1255916 C115.649996,33.7871607 113.679484,33.6744471 111.673224,33.4116416 L118.845311,16.9116899 L112.340254,0 L118.36119,0 L122.002436,9.4488265 L125.905413,0 L131.998851,0 L124.938606,17.1359583 Z M107.586046,0 L102.122884,0 L102.122884,32.7000097 C103.906753,32.8128682 105.76413,32.8871897 107.586046,33.111603 L107.586046,0 Z M97.4029885,32.3244905 C92.4239476,31.9872187 87.4434711,31.688484 82.3525885,31.5744664 L82.3525885,0.000144876211 L87.9264438,0.000144876211 L87.9264438,26.2499759 C91.1229076,26.3244422 94.3182229,26.5860887 97.4029885,26.7360355 L97.4029885,32.3244905 Z M76.4054487,12.788368 L76.4054487,18.4127523 L68.7875737,18.4127523 L68.7875737,31.1999614 L63.288806,31.1999614 L63.288806,0 L78.8968356,0 L78.8968356,5.62438428 L68.7887223,5.62438428 L68.7887223,12.7885129 L76.4065973,12.7885129 L76.4054487,12.788368 Z M53.9226675,5.62438428 L53.9226675,31.5 C52.0639978,31.5 50.1697226,31.5 48.3478072,31.5744664 L48.3478072,5.62438428 L42.5874532,5.62438428 L42.5874532,0 L59.718627,0 L59.718627,5.62438428 L53.9226675,5.62438428 Z M36.5678101,18.711632 C34.1156181,18.711632 31.2163462,18.711632 29.1352852,18.8256495 L29.1352852,27.1871801 C32.4055444,26.9616078 35.6758037,26.6999614 38.9828172,26.5872477 L38.9828172,31.9872187 L23.5615735,33.2256206 L23.5615735,0 L38.9818122,0 L38.9818122,5.62438428 L29.1351416,5.62438428 L29.1351416,13.1999614 C31.2911467,13.1999614 34.5983037,13.0872477 36.5675229,13.0872477 L36.5675229,18.712791 L36.5678101,18.711632 Z M5.68440493,15.5615885 L5.68440493,35.2115837 C3.67943651,35.4371559 1.89441879,35.6999614 0,36 L0,0 L5.31456614,0 L12.5604488,20.4385564 L12.5604488,0 L18.1353091,0 L18.1353091,33.6744471 C16.1659463,34.0128779 14.1586807,34.1255916 12.0407219,34.4244712 L5.68440493,15.5615885 Z" id="Shape"></path>
            </g>
        </g>
    </g>
</svg>