<?xml version="1.0" encoding="UTF-8"?>
<svg width="60px" height="60px" viewBox="0 0 60 60" version="1.1" xmlns="http://www.w3.org/2000/svg" xmlns:xlink="http://www.w3.org/1999/xlink">
    <title>scale</title>
    <g id="scale" stroke="none" stroke-width="1" fill="none" fill-rule="evenodd" fill-opacity="0.85">
        <path d="M39.26,10 C39.9123864,10 40.4489702,10.4958097 40.5134948,11.1311723 L40.52,11.26 L40.52,49.26 C40.52,49.9123864 40.0241903,50.4489702 39.3888277,50.5134948 L39.26,50.52 L24.0599558,50.52 C23.364077,50.52 22.7999558,49.9558788 22.7999558,49.26 C22.7999558,48.6076136 23.2957654,48.0710298 23.9311281,48.0065052 L24.0599558,48 L38,48 L38,12.52 L2.52,12.52 L2.52,26.721657 C2.52,27.3740434 2.02419034,27.9106272 1.38882768,27.9751518 L1.26,27.981657 C0.607613639,27.981657 0.0710298299,27.4858474 0.00650523796,26.8504847 L0,26.721657 L0,11.26 C0,10.6076136 0.495809662,10.0710298 1.13117232,10.0065052 L1.26,10 L39.26,10 Z M16.96266,32.2973035 C17.6585388,32.2973035 18.22266,32.8614247 18.22266,33.5573035 L18.22266,33.5573035 L18.22266,49.26 C18.22266,49.9558788 17.6585388,50.52 16.96266,50.52 L16.96266,50.52 L1.26,50.52 C0.564121215,50.52 9.09494702e-13,49.9558788 9.09494702e-13,49.26 L9.09494702e-13,49.26 L9.09494702e-13,33.5573035 C9.09494702e-13,32.8614247 0.564121215,32.2973035 1.26,32.2973035 L1.26,32.2973035 Z M15.702,34.817 L2.52,34.817 L2.52,47.999 L15.702,47.999 L15.702,34.817 Z M33.0310328,16.723356 C33.6834192,16.723356 34.220003,17.2191657 34.2845276,17.8545283 L34.2910328,17.983356 L34.2910328,22.4519663 C34.2910328,23.1478451 33.7269116,23.7119663 33.0310328,23.7119663 C32.3786464,23.7119663 31.8420626,23.2161566 31.777538,22.580794 L31.7710328,22.4519663 L31.771,21.025 L22.6290844,30.1683902 C22.1370243,30.6604513 21.3392365,30.6604523 20.8471753,30.1683922 C20.3879182,29.7091362 20.3573002,28.9835573 20.755322,28.4887906 L20.8471732,28.3864832 L29.99,19.243 L28.4739458,19.243356 C27.8215594,19.243356 27.2849756,18.7475463 27.220451,18.1121837 L27.2139458,17.983356 C27.2139458,17.3309696 27.7097555,16.7943858 28.3451181,16.7298612 L28.4739458,16.723356 L33.0310328,16.723356 Z" id="Combined-Shape" fill="#000000" fill-rule="nonzero"></path>
    </g>
</svg>