<?xml version="1.0" encoding="UTF-8"?>
<svg width="60px" height="60px" viewBox="0 0 60 60" version="1.1" xmlns="http://www.w3.org/2000/svg" xmlns:xlink="http://www.w3.org/1999/xlink">
    <title>13</title>
    <g id="13" stroke="none" stroke-width="1" fill="none" fill-rule="evenodd" stroke-opacity="0.85">
        <g id="iconfinder_box_package_delivery_logistics_hands_2851582" transform="translate(14.000000, 12.000000)" stroke="#000000" stroke-width="1.7424">
            <g id="Group" transform="translate(0.000000, 6.432806)">
                <g transform="translate(18.176459, 0.000000)" id="Path">
                    <path d="M10.9420191,10.1216679 L10.9420191,2.35691538 C10.9341126,1.06867371 11.7264559,0.00720565464 12.821505,0 C13.9148598,-0.00595798526 14.815635,1.04234643 14.8235415,2.33178479 L14.8235415,17.4029558 L8.30125101,26.4260326 C8.30125101,26.4260326 7.59418479,27.2990212 7.80370681,30.4918023" stroke-linejoin="round"></path>
                    <path d="M0,30.567194 L0.0079064912,23.5647359 C0.0079064912,20.8440509 3.00277241,19.0011413 3.00277241,19.0011413 C4.3581709,18.0395973 5.90050143,16.3636266 5.90050143,16.3636266 L8.45712183,13.4281349 C9.50924991,12.218875 11.0306847,11.8730303 11.8365821,12.6580619 C12.6419147,13.4442902 12.4386049,15.0759832 11.3853473,16.2852431 L7.79297657,20.4084541"></path>
                </g>
                <g id="Path">
                    <path d="M3.88208718,10.1216679 L3.88152243,2.35691538 C3.88942892,1.06867371 3.09708555,0.00720565464 2.00203652,0 C0.908681738,-0.00595798526 0.0079064912,1.04234643 0,2.33178479 L0.000564749371,17.4029558 L6.52229049,26.4260326 C6.52229049,26.4260326 7.2293567,27.2990212 7.01983468,30.4918023" stroke-linejoin="round"></path>
                    <path d="M14.8235415,30.567194 L14.815635,23.5647359 C14.815635,20.8440509 11.8207691,19.0011413 11.8207691,19.0011413 C10.4653706,18.0395973 8.92247531,16.3636266 8.92247531,16.3636266 L6.36641966,13.4281349 C5.31372683,12.218875 3.79229203,11.8730303 2.98695942,12.6580619 C2.18106207,13.4442902 2.38437184,15.0759832 3.43762942,16.2852431 L7.03000017,20.4084541"></path>
                </g>
            </g>
            <g id="Group" transform="translate(8.345866, 0.000000)">
                <polygon id="Path" points="8.11431896 0 0 4.44272846 0 14.4452997 8.11431896 19.4050002 16.3077028 14.4452997 16.3077028 4.44272846"></polygon>
                <g transform="translate(2.788732, 6.099552)" id="Path" stroke-linecap="round">
                    <line x1="10.7302381" y1="0" x2="5.38206151" y2="3.11798761"></line>
                    <line x1="0" y1="0" x2="5.34817654" y2="3.11798761"></line>
                </g>
                <line x1="8.15385142" y1="9.31148018" x2="8.15385142" y2="15.88971" id="Path" stroke-linecap="round"></line>
            </g>
        </g>
    </g>
</svg>