<?xml version="1.0" encoding="UTF-8"?>
<svg width="60px" height="60px" viewBox="0 0 60 60" version="1.1" xmlns="http://www.w3.org/2000/svg" xmlns:xlink="http://www.w3.org/1999/xlink">
    <title>8</title>
    <g id="8" stroke="none" stroke-width="1" fill="none" fill-rule="evenodd">
        <g id="iconfinder_above-the-fold_454457" transform="translate(9.000000, 11.000000)" fill="#000000" fill-rule="nonzero" stroke="#000000" stroke-width="0.5">
            <path d="M41.078,0 L1.786,0 C0.8037,0 0,0.802317842 0,1.78292854 L0,28.5268566 C0,29.5074673 0.8037,30.3097851 1.786,30.3097851 L16.0383693,30.3097851 L16.0439059,30.3976835 C16.0800724,30.973926 16.0357796,31.6444854 15.9299591,32.3314478 L15.1964489,34.9018959 C14.972038,35.4001353 14.7077993,35.8514836 14.400518,36.2113677 L14.1105609,36.550035 L12.502,36.550035 L12.502,37.4414993 L30.362,37.4414993 L30.362,36.550035 L29.1883301,36.550035 L28.8995339,36.2113677 C28.5918954,35.8509487 28.3273888,35.3987981 28.10271,34.8997564 L27.3697356,32.3311804 C27.2638258,31.644218 27.219533,30.9736586 27.2556995,30.3976835 L27.2611468,30.3097851 L41.078,30.3097851 C42.0603,30.3097851 42.864,29.5074673 42.864,28.5268566 L42.864,1.78292854 C42.864,0.802317842 42.0603,0 41.078,0 Z M28.0456473,36.550035 L15.2535116,36.550035 C16.4924598,34.9122369 17.0504062,32.1850694 16.9351199,30.341967 L16.9331553,30.3097851 L26.3664501,30.3097851 L26.3643962,30.341967 C26.2487527,32.1842671 26.8070563,34.9121477 28.0456473,36.550035 Z M41.971,28.5268566 C41.971,29.01841 41.5704002,29.4183209 41.078,29.4183209 L1.786,29.4183209 C1.2935998,29.4183209 0.893,29.01841 0.893,28.5268566 L0.893,23.178071 L41.971,23.178071 L41.971,28.5268566 Z M41.971,22.2866067 L0.893,22.2866067 L0.893,1.78292854 C0.893,1.29137514 1.2935998,0.891464269 1.786,0.891464269 L41.078,0.891464269 C41.5704002,0.891464269 41.971,1.29137514 41.971,1.78292854 L41.971,22.2866067 Z M6.251,8.91464269 L36.613,8.91464269 L36.613,3.56585707 L6.251,3.56585707 L6.251,8.91464269 Z M7.144,4.45732134 L35.72,4.45732134 L35.72,8.02317842 L7.144,8.02317842 L7.144,4.45732134 Z M19.646,19.6122139 L26.79,19.6122139 L26.79,10.6975712 L19.646,10.6975712 L19.646,19.6122139 Z M20.539,11.5890355 L25.897,11.5890355 L25.897,18.7207496 L20.539,18.7207496 L20.539,11.5890355 Z M29.469,19.6122139 L36.613,19.6122139 L36.613,10.6975712 L29.469,10.6975712 L29.469,19.6122139 Z M30.362,11.5890355 L35.72,11.5890355 L35.72,18.7207496 L30.362,18.7207496 L30.362,11.5890355 Z M21.432,27.6353923 C22.1717612,27.6353923 22.7715,27.0366849 22.7715,26.2981959 C22.7715,25.5597069 22.1717612,24.9609995 21.432,24.9609995 C20.6922388,24.9609995 20.0925,25.5597069 20.0925,26.2981959 C20.0925,27.0366849 20.6922388,27.6353923 21.432,27.6353923 Z M21.432,25.8524638 C21.6782001,25.8524638 21.8785,26.0524192 21.8785,26.2981959 C21.8785,26.5439726 21.6782001,26.7439281 21.432,26.7439281 C21.1857999,26.7439281 20.9855,26.5439726 20.9855,26.2981959 C20.9855,26.0524192 21.1857999,25.8524638 21.432,25.8524638 Z M6.251,10.6975712 L16.074,10.6975712 L16.074,11.5890355 L6.251,11.5890355 L6.251,10.6975712 Z M6.251,14.2634283 L16.074,14.2634283 L16.074,15.1548926 L6.251,15.1548926 L6.251,14.2634283 Z M6.251,17.8292854 L16.074,17.8292854 L16.074,18.7207496 L6.251,18.7207496 L6.251,17.8292854 Z" id="Shape"></path>
        </g>
    </g>
</svg>