<?xml version="1.0" encoding="UTF-8"?>
<svg width="60px" height="60px" viewBox="0 0 60 60" version="1.1" xmlns="http://www.w3.org/2000/svg" xmlns:xlink="http://www.w3.org/1999/xlink">
    <title>6</title>
    <g id="6" stroke="none" stroke-width="1" fill="none" fill-rule="evenodd">
        <g id="iconfinder_020_cloud_hosting_storage_backup_database_1586935" transform="translate(9.000000, 8.000000)" fill="#000000" fill-rule="nonzero">
            <path d="M33.30928,28.8303338 L32.68,28.8303338 C32.26048,28.8303338 31.92,28.491198 31.92,28.0716408 C31.92,27.6520836 32.26048,27.3129478 32.68,27.3129478 L33.30928,27.3129478 C37.57212,27.3129478 41.04,23.9769747 41.04,19.8777565 C41.04,19.5219294 41.00504,19.172172 40.95336,18.8277254 C40.94272,18.7548908 40.93208,18.6820563 40.91916,18.6107392 C40.8576,18.2693273 40.77704,17.933985 40.66836,17.6085057 C40.66076,17.5857449 40.65088,17.5645015 40.64328,17.5417407 C40.5346,17.2291592 40.40236,16.925682 40.2534,16.6313091 C40.22832,16.5827528 40.20552,16.532679 40.17968,16.4841227 C40.0178,16.1829216 39.8354,15.8923422 39.63324,15.6154192 C39.60208,15.5729324 39.56788,15.5327217 39.53596,15.4902349 C39.33912,15.2322793 39.12556,14.9849453 38.89528,14.7520266 C38.87172,14.7285071 38.8512,14.7034702 38.82764,14.6807094 C38.57608,14.4341342 38.304,14.2065263 38.01748,13.994851 C37.97492,13.9629859 37.93236,13.9326382 37.88904,13.9022904 C37.27496,13.4668007 36.5902,13.1109736 35.84312,12.8613636 C35.04816,12.5950624 34.19772,12.4425651 33.30928,12.4425651 C32.889,12.4425651 32.54928,12.1034293 32.54928,11.6838721 C32.54928,11.2650736 32.889,10.9251791 33.30928,10.9251791 C34.01836,10.9251791 34.70616,11.0101527 35.36964,11.1573392 C35.37116,11.1072654 35.37952,11.0503635 35.37952,11.0010484 C35.37952,5.77137761 30.9586,1.51738599 25.52612,1.51738599 C21.6258,1.51738599 18.09104,3.79422367 16.53152,7.21365299 C17.01716,7.66886879 17.442,8.19236696 17.76728,8.79173442 C17.96792,9.15970052 17.83036,9.62098586 17.46176,9.81976343 C17.34624,9.88197625 17.22236,9.91232397 17.1,9.91232397 C16.82944,9.91232397 16.56876,9.7681723 16.4312,9.51476884 C16.10972,8.923747 15.67196,8.41769877 15.15212,8.01635018 C15.1468,8.01255672 15.1392,8.01255672 15.13388,8.00876325 C14.92868,7.8517138 14.71284,7.71514906 14.4894,7.59375818 C14.44152,7.56720393 14.3906,7.54444314 14.3412,7.51940627 C14.17172,7.43443265 13.99768,7.36008074 13.81908,7.29407445 C13.7408,7.26600281 13.66252,7.23793117 13.58272,7.21365299 C13.4178,7.16206187 13.24984,7.12260983 13.0796,7.08922734 C12.9998,7.07329479 12.92076,7.05281008 12.83944,7.04067099 C12.59092,7.00349503 12.33784,6.97997555 12.08172,6.97997555 C9.57144,6.97997555 7.51944,8.80766697 7.23748,11.1452001 C7.88652,11.0056006 8.55912,10.9251791 9.25148,10.9251791 C9.671,10.9251791 10.01072,11.2650736 10.01072,11.6838721 C10.01072,12.1034293 9.671,12.4425651 9.25148,12.4425651 C8.34632,12.4425651 7.48144,12.6011319 6.67432,12.8765375 C5.92952,13.129941 5.24628,13.4895614 4.63448,13.928086 C4.60104,13.9523642 4.5676,13.9758837 4.53492,14.0001618 C4.24232,14.217148 3.96568,14.4515842 3.71032,14.7042289 C3.69436,14.7201615 3.67992,14.7368527 3.66396,14.7527853 C3.41924,15.0001192 3.19352,15.262627 2.98604,15.5387912 C2.96704,15.5638281 2.94728,15.5873476 2.92904,15.6131431 C2.72004,15.8984117 2.53308,16.1988541 2.3674,16.5099183 C2.34764,16.5478529 2.3294,16.5873049 2.30964,16.6252396 C2.15156,16.9363037 2.01172,17.2557135 1.9,17.5872623 C1.89696,17.5940905 1.89392,17.6009188 1.89164,17.6085057 C1.78144,17.9362611 1.70164,18.2753969 1.63932,18.6190848 C1.62716,18.6888845 1.61652,18.759443 1.60588,18.8300014 C1.55496,19.1744481 1.52,19.5226881 1.52,19.8777565 C1.52,23.9769747 4.98788,27.3129478 9.25148,27.3129478 L9.88,27.3129478 C10.29952,27.3129478 10.64,27.6520836 10.64,28.0716408 C10.64,28.491198 10.29952,28.8303338 9.88,28.8303338 L9.25148,28.8303338 C4.1496,28.8303338 0,24.8145718 0,19.8777565 C0,19.4703383 0.038,19.0712658 0.09272,18.6782628 C0.10564,18.586461 0.12084,18.4954178 0.13604,18.4051334 C0.2736,17.6092644 0.5168,16.8498127 0.85652,16.1389174 C0.88692,16.0751872 0.91884,16.0129743 0.95076,15.9507615 C1.31328,15.235314 1.76928,14.5744924 2.30736,13.9819532 C2.35752,13.9265686 2.40844,13.8734601 2.46012,13.8188342 C3.02328,13.2285711 3.66472,12.7134185 4.37152,12.2862744 C4.41864,12.257444 4.46576,12.2301311 4.51364,12.2028181 C4.88224,11.9888667 5.26148,11.7908478 5.66124,11.6269701 C5.69316,8.22271468 8.56064,5.46258956 12.08172,5.46258956 C12.37432,5.46258956 12.66312,5.48307427 12.94812,5.52025023 C13.0264,5.53011324 13.10088,5.55135664 13.17764,5.56425442 C13.38132,5.59763691 13.585,5.63329548 13.78336,5.68640399 C13.8966,5.71599302 14.00452,5.75923852 14.11548,5.79489709 C14.26748,5.84421214 14.42024,5.88973372 14.56844,5.95042916 C14.72804,6.01567675 14.88004,6.09533952 15.0328,6.17196751 C15.1088,6.21066085 15.1886,6.24024988 15.26308,6.2812193 C17.13192,2.48927172 21.1432,0 25.52612,0 C31.79688,0 36.89952,4.93529793 36.89952,11.0010484 C36.89952,11.2028608 36.89268,11.4092253 36.87976,11.6201419 C37.27572,11.7817435 37.65344,11.9759689 38.01976,12.1868856 C38.07676,12.2195094 38.133,12.2528919 38.18924,12.2862744 C38.54416,12.5009845 38.88768,12.7308684 39.20916,12.9888241 C39.21144,12.9911001 39.21372,12.9933762 39.21676,12.9956523 C39.52076,13.2407101 39.80196,13.5092875 40.07176,13.7892452 C40.13636,13.8567689 40.20096,13.9235338 40.26328,13.9933336 C40.52472,14.2823956 40.77324,14.582838 40.9944,14.9030065 C41.00656,14.9196977 41.01644,14.9379064 41.02784,14.9553563 C41.23836,15.2633857 41.4238,15.5873476 41.5948,15.9204138 C41.63356,15.9970418 41.67232,16.0729111 41.7088,16.1502978 C41.87904,16.5068835 42.0318,16.8718148 42.15188,17.25192 C42.15416,17.2579895 42.15492,17.2640591 42.1572,17.2701286 C42.27196,17.6358187 42.35632,18.0128891 42.42244,18.3967877 C42.4384,18.490107 42.4536,18.5834262 42.46728,18.6782628 C42.522,19.0712658 42.56,19.4703383 42.56,19.8777565 C42.56,24.8145718 38.4104,28.8303338 33.30928,28.8303338 Z M21.28,19.7260179 C24.66732,19.7260179 30.4,20.3655961 30.4,22.7607898 L30.4,28.8303338 L30.4,34.8998777 L30.4,40.9694217 C30.4,43.3646155 24.66732,44.0041937 21.28,44.0041937 C17.89268,44.0041937 12.16,43.3646155 12.16,40.9694217 L12.16,34.8998777 L12.16,28.8303338 L12.16,22.7607898 C12.16,20.3655961 17.89268,19.7260179 21.28,19.7260179 Z M21.28,21.2434038 C16.70556,21.2434038 13.91256,22.2433612 13.68,22.7858267 L13.68,22.7987245 C13.91256,23.2782185 16.70556,24.2781758 21.28,24.2781758 C25.78452,24.2781758 28.56308,23.3085662 28.86936,22.7607898 C28.56308,22.2130135 25.78452,21.2434038 21.28,21.2434038 Z M28.88152,24.5642031 C26.9458,25.4996715 23.57672,25.7955618 21.28,25.7955618 C18.98404,25.7955618 15.61572,25.4996715 13.68,24.5649618 L13.68,28.8303338 C13.88748,29.3394168 16.68656,30.3477198 21.28,30.3477198 C25.87344,30.3477198 28.67252,29.3394168 28.88456,28.7984687 L28.88152,24.5642031 Z M28.88152,30.633747 C26.9458,31.5692155 23.57672,31.8651058 21.28,31.8651058 C18.98404,31.8651058 15.61572,31.5692155 13.68,30.6345057 L13.68,34.8998777 C13.88748,35.4089607 16.68656,36.4172637 21.28,36.4172637 C25.87344,36.4172637 28.67252,35.4089607 28.88456,34.8680126 L28.88152,30.633747 Z M21.28,42.4868077 C25.87344,42.4868077 28.67252,41.4785047 28.88456,40.9375566 L28.88152,36.703291 C26.9458,37.6387595 23.57672,37.9346497 21.28,37.9346497 C18.98404,37.9346497 15.61572,37.6387595 13.68,36.7040497 L13.68,40.9694217 C13.88748,41.4785047 16.68656,42.4868077 21.28,42.4868077 Z" id="Shape"></path>
        </g>
    </g>
</svg>