<?xml version="1.0" encoding="UTF-8"?>
<svg width="60px" height="60px" viewBox="0 0 60 60" version="1.1" xmlns="http://www.w3.org/2000/svg" xmlns:xlink="http://www.w3.org/1999/xlink">
    <title>11</title>
    <g id="11" stroke="none" stroke-width="1" fill="none" fill-rule="evenodd">
        <g id="iconfinder_Usability_testing_2621094" transform="translate(12.000000, 12.000000)" stroke="#000000" stroke-width="1.52">
            <g id="XMLID_446_">
                <path d="M35.5202791,29.8672472 L35.5202791,0.261993396 C35.5202791,0.174662264 35.4327907,0 35.257814,0 L0.262465116,0 C0.174976744,0 0,0.087331132 0,0.261993396 L0,35.718433" id="XMLID_454_"></path>
                <line x1="0.0874883721" y1="5.06520566" x2="35.5202791" y2="5.06520566" id="XMLID_453_"></line>
                <polyline id="XMLID_442_" points="8.92381395 17.3788953 4.46190698 17.3788953 4.46190698 8.38378867 30.3584651 8.38378867 30.3584651 12.9250075"></polyline>
                <polyline id="XMLID_445_" points="9.01130233 21.3087962 4.46190698 21.3087962 4.46190698 27.5093066 11.3734884 27.5093066"></polyline>
                <path d="M36.3076744,33.8844792 L34.1204651,36.0677575 C34.0329767,36.1550887 33.9454884,36.1550887 33.858,36.0677575 L28.3462326,30.5658962 C28.2587442,30.4785651 28.2587442,30.3912339 28.3462326,30.3039028 L30.5334419,28.1206245 C30.6209302,28.0332934 30.7084186,28.0332934 30.795907,28.1206245 L36.3076744,33.6224858 C36.3076744,33.709817 36.3076744,33.7971481 36.3076744,33.8844792 Z" id="XMLID_460_"></path>
                <line x1="27.1213953" y1="26.8979887" x2="29.0461395" y2="28.8192736" id="XMLID_458_"></line>
                <ellipse id="XMLID_455_" cx="20.6472558" cy="19.9988292" rx="9.62372093" ry="9.60642452"></ellipse>
                <polyline id="XMLID_443_" points="17.0602326 19.3875113 19.6848837 22.0074453 24.1467907 17.4662264"></polyline>
            </g>
        </g>
    </g>
</svg>