<?xml version="1.0" encoding="UTF-8"?>
<svg width="60px" height="60px" viewBox="0 0 60 60" version="1.1" xmlns="http://www.w3.org/2000/svg" xmlns:xlink="http://www.w3.org/1999/xlink">
    <title>5</title>
    <g id="5" stroke="none" stroke-width="1" fill="none" fill-rule="evenodd">
        <g id="iconfinder_pencil-ruler-measure_3554097" transform="translate(14.000000, 14.000000)">
            <polygon id="Path" points="4.84283021 24.6449281 3.01276004 29.967642 8.33895482 28.1344545"></polygon>
            <polygon id="Rectangle" transform="translate(15.834780, 17.152151) rotate(-45.000000) translate(-15.834780, -17.152151) " points="4.49020495 14.13456 27.1773856 14.1419759 27.1793559 20.1697415 4.4921753 20.1623255"></polygon>
            <polygon id="Rectangle" transform="translate(26.544807, 6.452361) rotate(-45.000000) translate(-26.544807, -6.452361) " points="24.4748783 3.4378015 28.6127646 3.43915409 28.614735 9.46691965 24.4768487 9.46556706"></polygon>
            <path d="M32.3068313,25.6197526 L24.908859,18.213675 C24.5715551,17.8765915 24.0246774,17.8765915 23.6873735,18.213675 C23.3500696,18.5507584 23.3500696,19.0972787 23.6873735,19.4343622 L31.0853458,26.8404398 C31.334943,27.0925433 31.334943,27.49846 31.0853458,27.7505635 L27.7446045,31.0848081 C27.4887182,31.3252864 27.0897719,31.3252864 26.8338856,31.0848081 L25.1074043,29.3594551 L25.8454751,28.6218667 C26.0636725,28.4038119 26.1488883,28.0859902 26.0690225,27.7881218 C25.9891567,27.4902534 25.7563429,27.2575918 25.4582797,27.1777782 C25.1602166,27.0979646 24.8421869,27.1831247 24.6239896,27.4011795 L23.8988674,28.1344545 L21.7407658,25.9777633 L23.5535712,24.1661427 C23.7982969,23.9535371 23.9031541,23.6218064 23.8250471,23.3072896 C23.7469402,22.9927728 23.4990459,22.7485297 23.1832472,22.6749427 C22.8674486,22.6013556 22.5370215,22.7108389 22.3277695,22.9583956 L20.5149641,24.7700162 L19.4661267,23.7175509 C19.2479294,23.4994961 18.9298998,23.4143361 18.6318366,23.4941497 C18.3337735,23.5739632 18.1009596,23.8066249 18.0210939,24.1044933 C17.9412281,24.4023616 18.0264438,24.7201834 18.2446412,24.9382381 L25.6167163,32.3054953 C26.0604684,32.7501166 26.6630221,33 27.2914032,33 C27.9197842,33 28.5223379,32.7501166 28.96609,32.3054953 L32.3068313,28.9669373 C33.2310562,28.0423567 33.2310562,26.5443331 32.3068313,25.6197526 Z" id="Path" fill-opacity="0.85" fill="#000000" fill-rule="nonzero"></path>
            <path d="M8.38643305,14.7327901 C8.73713758,14.7348136 9.05421879,14.5246083 9.18870383,14.2009194 C9.32318887,13.8772305 9.24834426,13.5044021 8.99933391,13.2575986 L8.21378492,12.4768764 L10.0265903,10.6652558 C10.3638942,10.3281723 10.3638942,9.78165204 10.0265903,9.44456858 C9.68928635,9.10748512 9.14240868,9.10748511 8.80510477,9.44456856 L6.98366701,11.2561892 L4.82556539,9.09949796 L5.56363614,8.36190957 C5.90094005,8.0248261 5.90094004,7.47830583 5.56363614,7.14122236 C5.22633223,6.8041389 4.67945454,6.80413889 4.34215063,7.14122235 L3.61271229,7.86155721 L1.886231,6.13620425 C1.76443111,6.01694322 1.69579394,5.8537075 1.69579394,5.6832991 C1.69579394,5.5128907 1.76443111,5.34965499 1.886231,5.23039395 L5.25718572,1.91340288 C5.37710367,1.79276184 5.54022942,1.72491862 5.71038705,1.72491862 C5.88054469,1.72491862 6.04367044,1.79276184 6.16358839,1.91340288 L13.4579718,9.20301914 C13.7952758,9.5401026 14.3421534,9.5401026 14.6794573,9.20301913 C15.0167613,8.86593567 15.0167613,8.31941539 14.6794574,7.98233192 L7.38507391,0.692715665 C6.45988871,-0.230905222 4.9608854,-0.230905222 4.0357002,0.692715665 L0.694958908,4.03127364 C0.250046778,4.47473575 0,5.07689564 0,5.70486601 C0,6.33283639 0.250046778,6.93499628 0.694958908,7.37845839 L7.7778484,14.4782858 C7.93899397,14.6402912 8.15785692,14.7318123 8.38643305,14.7327901 Z" id="Path" fill-opacity="0.85" fill="#000000" fill-rule="nonzero"></path>
            <path d="M27.8222962,11.8730028 L27.8222962,11.8730028 L31.9701675,7.72784236 C32.3048662,7.39136622 32.3048662,6.84794466 31.9701675,6.51146852 L26.4842732,1.02915949 C26.3223566,0.867168654 26.1026425,0.776147992 25.8735304,0.776147992 C25.6444184,0.776147992 25.4247042,0.867168654 25.2627877,1.02915949 L21.1192326,5.1700066 L21.1192326,5.1700066 L3.88463309,22.3933425 C3.79313827,22.4859269 3.72378695,22.5979961 3.68177154,22.7211596 L0.802863989,31.0761813 C0.712258914,31.3396595 0.75455848,31.6306466 0.916436671,31.8574703 C1.07831486,32.0842941 1.33984184,32.2192592 1.6186264,32.2192592 C1.71385754,32.2200317 1.80859405,32.2054663 1.89917961,32.1760938 L10.2596653,29.2990677 C10.3848571,29.2564101 10.4985656,29.1855732 10.5920129,29.0920254 L27.8222962,11.8730028 Z M25.8756885,2.85803363 L30.1357811,7.11965544 L27.2137115,10.0441287 L22.9536189,5.7825069 L25.8756885,2.85803363 Z M4.82556539,24.6449281 L8.33895482,28.1344545 L3.01276004,29.967642 L4.82556539,24.6449281 Z M9.9273176,27.3019717 L5.68880604,23.0403499 L21.7278172,6.99888073 L25.9749612,11.2648159 L9.9273176,27.3019717 Z" id="Shape" fill-opacity="0.85" fill="#000000" fill-rule="nonzero"></path>
        </g>
    </g>
</svg>