<?xml version="1.0" encoding="UTF-8"?>
<svg width="60px" height="60px" viewBox="0 0 60 60" version="1.1" xmlns="http://www.w3.org/2000/svg" xmlns:xlink="http://www.w3.org/1999/xlink">
    <title>7</title>
    <g id="7" stroke="none" stroke-width="1" fill="none" fill-rule="evenodd">
        <g id="iconfinder_24_3692633" transform="translate(9.000000, 8.000000)" fill="#000000" fill-rule="nonzero">
            <path d="M26.90324,10.9084879 C26.90324,8.14684538 24.62096,5.86849031 21.85456,5.86849031 C19.08816,5.86849031 16.80588,8.14684538 16.80588,10.9084879 C16.80588,13.6701304 19.08816,15.9484854 21.85456,15.9484854 C24.62096,15.9484854 26.90324,13.6701304 26.90324,10.9084879 Z M21.7854,14.5676642 C19.77976,14.5676642 18.11992,12.9106787 18.11992,10.9084879 C18.11992,8.90629706 19.77976,7.24931156 21.7854,7.24931156 C23.79104,7.24931156 25.45088,8.90629706 25.45088,10.9084879 C25.45088,12.9106787 23.8602,14.5676642 21.7854,14.5676642 Z" id="Shape"></path>
            <path d="M12.31048,38.8010771 L4.77204,38.8010771 C4.35708,38.8010771 4.08044,39.0772414 4.08044,39.4914878 C4.08044,39.9057341 4.35708,40.1818984 4.77204,40.1818984 L12.24132,40.1818984 C12.65628,40.1818984 12.93292,39.9057341 12.93292,39.4914878 C12.93292,39.0772414 12.65628,38.8010771 12.31048,38.8010771 Z" id="Path"></path>
            <path d="M12.31048,34.7276544 L4.77204,34.7276544 C4.35708,34.7276544 4.08044,35.0038187 4.08044,35.4180651 C4.08044,35.8323114 4.35708,36.1084757 4.77204,36.1084757 L12.24132,36.1084757 C12.65628,36.1084757 12.93292,35.8323114 12.93292,35.4180651 C12.93292,35.0038187 12.65628,34.7276544 12.31048,34.7276544 Z" id="Path"></path>
            <path d="M7.88424,31.2756013 C7.88424,31.6898477 8.16088,31.9660119 8.57584,31.9660119 L12.31048,31.9660119 C12.72544,31.9660119 13.00208,31.6898477 13.00208,31.2756013 C13.00208,30.8613549 12.72544,30.5851907 12.31048,30.5851907 L8.57584,30.5851907 C8.16088,30.5851907 7.88424,30.8613549 7.88424,31.2756013 Z" id="Path"></path>
            <path d="M38.24548,38.8010771 L30.70704,38.8010771 C30.29208,38.8010771 30.01544,39.0772414 30.01544,39.4914878 C30.01544,39.9057341 30.29208,40.1818984 30.70704,40.1818984 L38.17632,40.1818984 C38.59128,40.1818984 38.86792,39.9057341 38.86792,39.4914878 C38.86792,39.0772414 38.59128,38.8010771 38.24548,38.8010771 Z" id="Path"></path>
            <path d="M38.24548,34.7276544 L30.70704,34.7276544 C30.29208,34.7276544 30.01544,35.0038187 30.01544,35.4180651 C30.01544,35.8323114 30.29208,36.1084757 30.70704,36.1084757 L38.17632,36.1084757 C38.59128,36.1084757 38.86792,35.8323114 38.86792,35.4180651 C38.86792,35.0038187 38.59128,34.7276544 38.24548,34.7276544 Z" id="Path"></path>
            <path d="M34.44168,31.9660119 L38.17632,31.9660119 C38.59128,31.9660119 38.86792,31.6898477 38.86792,31.2756013 C38.86792,30.8613549 38.59128,30.5851907 38.17632,30.5851907 L34.44168,30.5851907 C34.02672,30.5851907 33.75008,30.8613549 33.75008,31.2756013 C33.75008,31.6898477 34.09588,31.9660119 34.44168,31.9660119 Z" id="Path"></path>
            <path d="M9.6824,23.5430023 C9.26744,23.5430023 8.9908,23.8191666 8.9908,24.2334129 L8.9908,26.5808091 L0.6916,26.5808091 C0.27664,26.5808091 0,26.8569733 0,27.2712197 L0,43.4958694 C0,43.9101158 0.27664,44.18628 0.6916,44.18628 L16.39092,44.18628 C16.80588,44.18628 17.08252,43.9101158 17.08252,43.4958694 L17.08252,27.2712197 C17.08252,26.8569733 16.80588,26.5808091 16.39092,26.5808091 L10.374,26.5808091 L10.374,24.9238236 L33.1968,24.9238236 L33.1968,26.5808091 L26.55744,26.5808091 C26.14248,26.5808091 25.86584,26.8569733 25.86584,27.2712197 L25.86584,43.4958694 C25.86584,43.9101158 26.14248,44.18628 26.55744,44.18628 L42.25676,44.18628 C42.67172,44.18628 42.94836,43.9101158 42.94836,43.4958694 L42.94836,27.2712197 C42.94836,26.8569733 42.67172,26.5808091 42.25676,26.5808091 L34.58,26.5808091 L34.58,24.2334129 C34.58,23.8191666 34.30336,23.5430023 33.8884,23.5430023 L22.477,23.5430023 L22.477,21.7479347 L23.30692,21.7479347 C23.58356,21.7479347 23.8602,21.5408115 23.92936,21.2646473 L24.5518,19.4695796 C25.03592,19.3314975 25.45088,19.1243743 25.935,18.9172511 L27.59484,19.7457439 C27.87148,19.883826 28.14812,19.8147849 28.3556,19.6076618 L30.49956,17.4673888 C30.70704,17.2602656 30.7762,16.9150603 30.63788,16.6388961 L29.80796,14.9819106 C30.01544,14.5676642 30.22292,14.0843768 30.36124,13.6010893 L32.1594,12.9797198 C32.43604,12.9106787 32.64352,12.6345144 32.64352,12.3583502 L32.64352,9.32054344 C32.64352,9.04437919 32.43604,8.76821494 32.1594,8.69917388 L30.49956,8.14684538 C30.36124,7.66355794 30.15376,7.24931156 29.94628,6.76602413 L30.7762,5.10903863 C30.91452,4.83287438 30.84536,4.55671013 30.63788,4.28054588 L28.42476,2.14027294 C28.21728,1.93314975 27.87148,1.86410869 27.59484,2.00219081 L25.935,2.83068356 C25.52004,2.62356038 25.03592,2.41643719 24.5518,2.27835506 L23.92936,0.483287438 C23.92936,0.207123188 23.65272,0 23.37608,0 L20.33304,0 C20.0564,0 19.77976,0.207123188 19.7106,0.483287438 L19.08816,2.27835506 C18.60404,2.41643719 18.18908,2.62356038 17.70496,2.83068356 L15.97596,2.00219081 C15.69932,1.86410869 15.42268,1.93314975 15.14604,2.14027294 L13.00208,4.28054588 C12.7946,4.48766906 12.72544,4.83287438 12.86376,5.10903863 L13.69368,6.76602413 C13.4862,7.1802705 13.27872,7.66355794 13.1404,8.14684538 L11.34224,8.76821494 C11.0656,8.837256 10.85812,9.11342025 10.85812,9.3895845 L10.85812,12.4273913 C10.85812,12.7035555 11.0656,12.9797198 11.34224,13.0487608 L13.1404,13.6701304 C13.27872,14.1534178 13.4862,14.5676642 13.69368,15.0509516 L12.86376,16.7079371 C12.72544,16.9841014 12.7946,17.2602656 13.00208,17.5364299 L15.14604,19.6767028 C15.35352,19.883826 15.69932,19.9528671 15.9068,19.8147849 L17.56664,18.9862922 C17.9816,19.1934154 18.46572,19.4005386 18.94984,19.5386207 L19.57228,21.3336883 C19.64144,21.6098526 19.91808,21.8169758 20.19472,21.8169758 L21.02464,21.8169758 L21.02464,23.6120434 L9.6824,23.6120434 L9.6824,23.5430023 Z M15.69932,42.8054588 L1.3832,42.8054588 L1.3832,27.9616303 L15.69932,27.9616303 L15.69932,42.8054588 L15.69932,42.8054588 Z M41.63432,42.8054588 L27.3182,42.8054588 L27.3182,27.9616303 L41.63432,27.9616303 L41.63432,42.8054588 L41.63432,42.8054588 Z M20.19472,18.779169 C20.12556,18.5720458 19.91808,18.3649226 19.7106,18.3649226 C19.08816,18.2268405 18.53488,17.9506763 17.9816,17.674512 C17.77412,17.5364299 17.56664,17.5364299 17.35916,17.674512 L15.76848,18.4339637 L14.31612,16.9841014 L15.07688,15.3961569 C15.14604,15.1890338 15.14604,14.9128695 15.07688,14.7747874 C14.73108,14.2224589 14.5236,13.6701304 14.38528,13.0487608 C14.31612,12.8416376 14.1778,12.6345144 13.97032,12.5654734 L12.31048,12.0131449 L12.31048,9.941913 L13.97032,9.3895845 C14.1778,9.32054344 14.38528,9.11342025 14.38528,8.90629706 C14.5236,8.2849275 14.80024,7.732599 15.07688,7.1802705 C15.2152,6.97314731 15.2152,6.76602413 15.07688,6.55890094 L14.31612,5.03999756 L15.83764,3.45205313 L17.35916,4.21150481 C17.56664,4.28054588 17.77412,4.28054588 17.9816,4.21150481 C18.53488,3.8662995 19.08816,3.65917631 19.7106,3.52109419 C19.91808,3.45205313 20.12556,3.313971 20.19472,3.10684781 L20.748,1.38082125 L22.8228,1.38082125 L23.37608,3.03780675 C23.44524,3.24492994 23.65272,3.45205313 23.8602,3.45205313 C24.48264,3.59013525 25.03592,3.8662995 25.5892,4.14246375 C25.79668,4.28054588 26.00416,4.28054588 26.21164,4.14246375 L27.80232,3.45205313 L29.25468,4.90191544 L28.49392,6.42081881 C28.42476,6.627942 28.42476,6.90410625 28.49392,7.04218838 C28.83972,7.59451688 29.0472,8.14684538 29.18552,8.76821494 C29.25468,8.97533813 29.393,9.18246131 29.60048,9.25150238 L31.26032,9.80383088 L31.26032,11.8750628 L29.60048,12.4273913 C29.393,12.4964323 29.18552,12.7035555 29.18552,12.9106787 C29.0472,13.5320483 28.77056,14.0843768 28.49392,14.6367053 C28.3556,14.8438284 28.3556,15.0509516 28.49392,15.2580748 L29.25468,16.8460193 L27.80232,18.2958816 L26.21164,17.5364299 C26.00416,17.4673888 25.79668,17.4673888 25.5892,17.5364299 C25.03592,17.8816352 24.48264,18.0887584 23.8602,18.2268405 C23.65272,18.2958816 23.44524,18.4339637 23.37608,18.6410869 L22.8228,20.2980724 L20.748,20.2980724 L20.19472,18.779169 Z" id="Shape"></path>
        </g>
    </g>
</svg>