<?xml version="1.0" encoding="UTF-8"?>
<svg width="60px" height="60px" viewBox="0 0 60 60" version="1.1" xmlns="http://www.w3.org/2000/svg" xmlns:xlink="http://www.w3.org/1999/xlink">
    <title>12</title>
    <g id="12" stroke="none" stroke-width="1" fill="none" fill-rule="evenodd">
        <g id="iconfinder_Bug_3778796" transform="translate(11.000000, 10.000000)" fill="#000000" fill-rule="nonzero">
            <path d="M25.238806,4.79801413 C25.238806,2.06574928 25.8447871,1.70212766 28.8696775,1.70212766 C29.3523294,1.70212766 29.7204238,1.32109339 29.7204238,0.85106383 C29.7204238,0.38103427 29.3395317,0 28.8696775,0 C27.415857,0 26.1702934,0.0903702128 25.2966615,0.614596823 C24.1076025,1.32809679 23.5373134,2.68208618 23.5373134,4.79801413 C23.5373134,5.26804369 23.9182055,5.64907796 24.3880597,5.64907796 C24.8579139,5.64907796 25.238806,5.26804369 25.238806,4.79801413 Z" id="Path-2"></path>
            <path d="M10.4925374,4.79801413 C10.4925374,2.06574928 11.0985186,1.70212766 14.123409,1.70212766 C14.6060609,1.70212766 14.9741552,1.32109339 14.9741552,0.85106383 C14.9741552,0.38103427 14.5932631,0 14.123409,0 C12.6695885,0 11.4240248,0.0903702128 10.550393,0.614596823 C9.36133397,1.32809679 8.79104489,2.68208618 8.79104489,4.79801413 C8.79104489,5.26804369 9.17193698,5.64907796 9.64179116,5.64907796 C10.1116453,5.64907796 10.4925374,5.26804369 10.4925374,4.79801413 Z" id="Path-2" transform="translate(11.882600, 2.824539) scale(-1, 1) translate(-11.882600, -2.824539) "></path>
            <path d="M26.6726512,15.0354614 C27.0349224,14.1238178 27.2238806,13.1467518 27.2238806,12.1418439 C27.2238806,7.7874741 23.6701161,4.25531915 19.2835821,4.25531915 C14.8970481,4.25531915 11.3432836,7.7874741 11.3432836,12.1418439 C11.3432836,13.1467516 11.5322418,14.1238175 11.8945128,15.0354614 L26.6726512,15.0354614 Z M10.5710006,16.253641 C9.96207665,14.9796203 9.64179104,13.5825049 9.64179104,12.1418439 C9.64179104,6.84493991 13.9597962,2.55319149 19.2835821,2.55319149 C24.607368,2.55319149 28.9253731,6.84493991 28.9253731,12.1418439 C28.9253731,13.5825051 28.6050875,14.9796207 27.9961633,16.2536415 L27.7648584,16.7375891 L10.8023055,16.7375891 L10.5710006,16.253641 Z" id="Combined-Shape"></path>
            <path d="M7.00685857,15.4907957 L7.24591702,15.0354609 L7.76003881,15.0354609 L30.7540829,15.0354609 L30.9931414,15.4907957 C32.2328535,17.8520755 32.8955224,20.5427461 32.8955224,23.3389568 C32.8955224,31.893086 26.6979834,38.8652482 19,38.8652482 C11.3020166,38.8652482 5.10447761,31.893086 5.10447761,23.3389568 C5.10447761,20.5427461 5.76714645,17.8520755 7.00685857,15.4907957 Z M6.80597015,23.3389568 C6.80597015,30.9946364 12.2891216,37.1631206 19,37.1631206 C25.7108784,37.1631206 31.1940299,30.9946364 31.1940299,23.3389568 C31.1940299,20.9972691 30.6798386,18.7432429 29.7156501,16.7375887 L8.28434994,16.7375887 C7.32016142,18.7432429 6.80597015,20.9972691 6.80597015,23.3389568 Z" id="Combined-Shape"></path>
            <path d="M6.52238806,17.8723404 L0.850746269,17.8723404 C0.380892093,17.8723404 0,18.2533747 0,18.7234043 C0,19.1934338 0.380892093,19.5744681 0.850746269,19.5744681 L6.52238806,19.5744681 C6.99224224,19.5744681 7.37313433,19.1934338 7.37313433,18.7234043 C7.37313433,18.2533747 6.99224224,17.8723404 6.52238806,17.8723404 Z" id="Path-3"></path>
            <path d="M5.95522388,25.8156028 L2.55223881,25.8156028 C2.08238463,25.8156028 1.70149254,26.1966371 1.70149254,26.6666667 C1.70149254,27.1366962 2.08238463,27.5177305 2.55223881,27.5177305 L5.95522388,27.5177305 C6.42507806,27.5177305 6.80597015,27.1366962 6.80597015,26.6666667 C6.80597015,26.1966371 6.42507806,25.8156028 5.95522388,25.8156028 Z" id="Path-3-Copy-2"></path>
            <path d="M37.1492537,17.8723404 L31.4776119,17.8723404 C31.0077578,17.8723404 30.6268657,18.2533747 30.6268657,18.7234043 C30.6268657,19.1934338 31.0077578,19.5744681 31.4776119,19.5744681 L37.1492537,19.5744681 C37.6191079,19.5744681 38,19.1934338 38,18.7234043 C38,18.2533747 37.6191079,17.8723404 37.1492537,17.8723404 Z" id="Path-3-Copy"></path>
            <path d="M36.0149254,25.8156028 L32.6119403,25.8156028 C32.1420861,25.8156028 31.761194,26.1966371 31.761194,26.6666667 C31.761194,27.1366962 32.1420861,27.5177305 32.6119403,27.5177305 L36.0149254,27.5177305 C36.4847795,27.5177305 36.8656716,27.1366962 36.8656716,26.6666667 C36.8656716,26.1966371 36.4847795,25.8156028 36.0149254,25.8156028 Z" id="Path-3-Copy-3"></path>
            <path d="M6.23880597,35.4609929 L10.4925373,35.4609929 C10.9623915,35.4609929 11.3432836,35.0799586 11.3432836,34.6099291 C11.3432836,34.1398995 10.9623915,33.7588652 10.4925373,33.7588652 L5.3880597,33.7588652 C4.91820553,33.7588652 4.53731343,34.1398995 4.53731343,34.6099291 L4.53731343,39.1489362 C4.53731343,39.6189657 4.91820553,40 5.3880597,40 C5.85791388,40 6.23880597,39.6189657 6.23880597,39.1489362 L6.23880597,35.4609929 Z" id="Path-4"></path>
            <path d="M28.358209,35.4609929 L32.6119403,35.4609929 C33.0817945,35.4609929 33.4626866,35.0799586 33.4626866,34.6099291 C33.4626866,34.1398995 33.0817945,33.7588652 32.6119403,33.7588652 L27.5074627,33.7588652 C27.0376085,33.7588652 26.6567164,34.1398995 26.6567164,34.6099291 L26.6567164,39.1489362 C26.6567164,39.6189657 27.0376085,40 27.5074627,40 C27.9773169,40 28.358209,39.6189657 28.358209,39.1489362 L28.358209,35.4609929 Z" id="Path-4-Copy" transform="translate(30.059701, 36.879433) scale(-1, 1) translate(-30.059701, -36.879433) "></path>
            <path d="M19.8507463,38.0141844 L19.8507463,24.3971631 C19.8507463,23.9271336 19.4698542,23.5460993 19,23.5460993 C18.5301458,23.5460993 18.1492537,23.9271336 18.1492537,24.3971631 L18.1492537,38.0141844 C18.1492537,38.484214 18.5301458,38.8652482 19,38.8652482 C19.4698542,38.8652482 19.8507463,38.484214 19.8507463,38.0141844 Z" id="Path-5"></path>
        </g>
    </g>
</svg>