<svg width="22" height="22" viewBox="0 0 22 22" fill="none" xmlns="http://www.w3.org/2000/svg">
<g clip-path="url(#clip0_3116_18837)">
<path fill-rule="evenodd" clip-rule="evenodd" d="M11 7.90625C7.96242 7.90625 5.5 10.3687 5.5 13.4062C5.5 16.4438 7.96242 18.9062 11 18.9062C14.0376 18.9062 16.5 16.4438 16.5 13.4062C16.5 10.3687 14.0376 7.90625 11 7.90625ZM7.0532 12.2031C6.93732 12.5838 6.875 12.9877 6.875 13.4062C6.875 13.8248 6.93732 14.2287 7.0532 14.6094H8.31108C8.2709 14.2208 8.25 13.8178 8.25 13.4062C8.25 12.9947 8.2709 12.5917 8.31108 12.2031H7.0532ZM7.77972 10.8281H8.54772C8.63122 10.4925 8.73104 10.1773 8.84568 9.88783C8.4382 10.1378 8.07751 10.4567 7.77972 10.8281ZM11 9.28125C10.9477 9.28125 10.8404 9.30304 10.6801 9.46127C10.5169 9.62239 10.3383 9.88962 10.1735 10.2741C10.1012 10.443 10.0341 10.6283 9.97342 10.8281H12.0266C11.9659 10.6283 11.8988 10.443 11.8265 10.2741C11.6617 9.88962 11.4831 9.62239 11.3199 9.46127C11.1596 9.30304 11.0523 9.28125 11 9.28125ZM13.4523 10.8281C13.3688 10.4925 13.269 10.1773 13.1543 9.88783C13.5618 10.1378 13.9225 10.4567 14.2203 10.8281H13.4523ZM9.69444 12.2031C9.64954 12.5826 9.625 12.9859 9.625 13.4062C9.625 13.8266 9.64954 14.2299 9.69444 14.6094H12.3056C12.3505 14.2299 12.375 13.8266 12.375 13.4062C12.375 12.9859 12.3505 12.5826 12.3056 12.2031H9.69444ZM13.6889 14.6094C13.7291 14.2208 13.75 13.8178 13.75 13.4062C13.75 12.9947 13.7291 12.5917 13.6889 12.2031H14.9468C15.0627 12.5838 15.125 12.9877 15.125 13.4062C15.125 13.8248 15.0627 14.2287 14.9468 14.6094H13.6889ZM9.97342 15.9844C10.0341 16.1842 10.1012 16.3695 10.1735 16.5384C10.3383 16.9229 10.5169 17.1901 10.6801 17.3512C10.8404 17.5095 10.9477 17.5312 11 17.5312C11.0523 17.5312 11.1596 17.5095 11.3199 17.3512C11.4831 17.1901 11.6617 16.9229 11.8265 16.5384C11.8988 16.3695 11.9659 16.1842 12.0266 15.9844H9.97342ZM13.1543 16.9247C13.269 16.6352 13.3688 16.32 13.4523 15.9844H14.2203C13.9225 16.3558 13.5618 16.6747 13.1543 16.9247ZM8.84568 16.9247C8.73104 16.6352 8.63122 16.32 8.54772 15.9844H7.77972C8.07751 16.3558 8.4382 16.6747 8.84568 16.9247Z" fill="#FB2C36"/>
<path fill-rule="evenodd" clip-rule="evenodd" d="M0.6875 5.5C0.6875 2.84213 2.84213 0.6875 5.5 0.6875H16.5C19.1579 0.6875 21.3125 2.84213 21.3125 5.5V16.5C21.3125 19.1579 19.1579 21.3125 16.5 21.3125H5.5C2.84213 21.3125 0.6875 19.1579 0.6875 16.5V5.5ZM19.9375 7.21875H2.0625V16.5C2.0625 18.3985 3.60154 19.9375 5.5 19.9375H16.5C18.3985 19.9375 19.9375 18.3985 19.9375 16.5V7.21875ZM6.53125 4.125C6.53125 4.50471 6.22346 4.8125 5.84375 4.8125H4.46875C4.08904 4.8125 3.78125 4.50471 3.78125 4.125C3.78125 3.74529 4.08904 3.4375 4.46875 3.4375H5.84375C6.22346 3.4375 6.53125 3.74529 6.53125 4.125Z" fill="#FB2C36"/>
</g>
<defs>
<clipPath id="clip0_3116_18837">
<rect width="22" height="22" fill="white"/>
</clipPath>
</defs>
</svg>
