<svg width="22" height="22" viewBox="0 0 22 22" fill="none" xmlns="http://www.w3.org/2000/svg">
<path d="M19.9375 17.1875H19.25V10.2836C19.25 9.16231 18.3377 8.25 17.2164 8.25C16.8362 8.25 16.5289 8.55731 16.5289 8.9375C16.5289 9.31769 16.8362 9.625 17.2164 9.625C17.5794 9.625 17.875 9.92063 17.875 10.2836V17.1875H4.125V10.2836C4.125 9.92063 4.42063 9.625 4.78363 9.625C5.16381 9.625 5.47113 9.31769 5.47113 8.9375C5.47113 8.55731 5.16381 8.25 4.78363 8.25C3.66231 8.25 2.75 9.16231 2.75 10.2836V17.1875H2.0625C1.68231 17.1875 1.375 17.4948 1.375 17.875C1.375 19.3916 2.60837 20.625 4.125 20.625H17.875C19.3916 20.625 20.625 19.3916 20.625 17.875C20.625 17.4948 20.3177 17.1875 19.9375 17.1875ZM17.875 19.25H4.125C3.61694 19.25 3.17212 18.9736 2.93494 18.5625H19.0658C18.8279 18.9736 18.3831 19.25 17.875 19.25Z" fill="#FB2C36"/>
<path d="M4.8125 7.56204C4.8125 7.8226 4.95962 8.06048 5.19269 8.17735L6.71275 8.93704L5.19269 9.69673C4.95962 9.8136 4.8125 10.0515 4.8125 10.312C4.8125 10.5726 4.95962 10.8105 5.19269 10.9274L6.71275 11.687L5.19269 12.4467C4.95962 12.5636 4.8125 12.8015 4.8125 13.062C4.8125 13.3226 4.95962 13.5605 5.19269 13.6774L10.6927 16.4274C10.7889 16.4755 10.8948 16.4995 11 16.4995C11.1052 16.4995 11.2111 16.4755 11.3073 16.4274L16.8073 13.6774C17.0404 13.5605 17.1875 13.3226 17.1875 13.062C17.1875 12.8015 17.0404 12.5636 16.8073 12.4467L15.2873 11.687L16.8073 10.9274C17.0404 10.8105 17.1875 10.5726 17.1875 10.312C17.1875 10.0515 17.0404 9.8136 16.8073 9.69673L15.2873 8.93704L16.8073 8.17735C17.0404 8.06048 17.1875 7.8226 17.1875 7.56204C17.1875 7.30148 17.0404 7.0636 16.8073 6.94673L15.2873 6.18704L16.8073 5.42735C17.0404 5.31048 17.1875 5.0726 17.1875 4.81204C17.1875 4.55148 17.0404 4.3136 16.8073 4.19673L11.3073 1.44673C11.1141 1.34979 10.8859 1.34979 10.692 1.44673L5.192 4.19673C4.95963 4.3136 4.8125 4.55148 4.8125 4.81204C4.8125 5.0726 4.95962 5.31048 5.19269 5.42735L6.71275 6.18704L5.19269 6.94673C4.95962 7.0636 4.8125 7.30148 4.8125 7.56204ZM14.9627 13.062L11 15.0434L7.03725 13.062L8.25 12.4557L10.6927 13.6767C10.7889 13.7255 10.8948 13.7495 11 13.7495C11.1052 13.7495 11.2111 13.7255 11.3073 13.6774L13.75 12.4557L14.9627 13.062ZM14.9627 10.312L11 12.2934L7.03725 10.312L8.25 9.70566L10.6927 10.9267C10.7889 10.9755 10.8948 10.9995 11 10.9995C11.1052 10.9995 11.2111 10.9755 11.3073 10.9274L13.75 9.70566L14.9627 10.312ZM11 2.83066L14.9627 4.81204L11 6.79341L7.03725 4.81204L11 2.83066ZM10.6927 8.17735C10.7889 8.22548 10.8948 8.24954 11 8.24954C11.1052 8.24954 11.2111 8.22548 11.3073 8.17735L13.75 6.95566L14.9627 7.56204L11 9.54341L7.03725 7.56204L8.25 6.95566L10.6927 8.17735Z" fill="#FB2C36"/>
</svg>
