<?xml version="1.0" encoding="UTF-8"?>
<svg width="32px" height="32px" viewBox="0 0 32 32" version="1.1" xmlns="http://www.w3.org/2000/svg" xmlns:xlink="http://www.w3.org/1999/xlink">
    <title>4</title>
    <g id="4" stroke="none" stroke-width="1" fill="none" fill-rule="evenodd" stroke-linecap="round" stroke-linejoin="round" stroke-opacity="0.85">
        <g id="iconfinder_aami17-78_853802" transform="translate(1.000000, 4.000000)" stroke="#000000" stroke-width="1.4">
            <polygon id="Path" points="15 14.1842697 17.9464286 15.7483146 17.4107143 12.458427 19.7678571 10.0853933 16.5 9.6 15 6.57977528 13.5 9.6 10.2321429 10.0853933 12.5892857 12.458427 12.0535714 15.7483146"></polygon>
            <polyline id="Path" points="25.1785714 6.63370787 30 6.63370787 26.7857143 10.4089888 30 14.1842697 24.6428571 14.1842697"></polyline>
            <polyline id="Path" points="5.35714286 14.1842697 0 14.1842697 3.21428571 10.4089888 0 6.63370787 5.35714286 6.63370787"></polyline>
            <path d="M25.2857143,3.72134831 C20.5714286,3.72134831 15,0 15,0 C15,0 9.42857143,3.72134831 4.71428571,3.72134831 C6.10714286,7.33483146 5.41071429,14.9932584 5.41071429,14.9932584 C5.41071429,19.847191 13.7142857,23.5685393 15,24 C16.2857143,23.5685393 24.5892857,19.7932584 24.5892857,14.9932584 C24.5892857,14.9932584 24.2142857,10.8404494 24.5892857,7.22696629 L25.2857143,3.72134831 Z" id="Path"></path>
        </g>
    </g>
</svg>