<?xml version="1.0" encoding="UTF-8"?>
<svg width="32px" height="32px" viewBox="0 0 32 32" version="1.1" xmlns="http://www.w3.org/2000/svg" xmlns:xlink="http://www.w3.org/1999/xlink">
    <title>1</title>
    <g id="1" stroke="none" stroke-width="1" fill="none" fill-rule="evenodd" fill-opacity="0.85" stroke-opacity="0.85">
        <g id="iconfinder_Video_record_interface__3178349" transform="translate(1.000000, 7.000000)" fill="#000000" fill-rule="nonzero" stroke="#000000" stroke-width="0.2">
            <path d="M28.6592471,1.53571429 C28.4349314,1.40811943 28.158563,1.40811943 27.9342472,1.53571429 L20.299998,5.27142857 L20.299998,3.57142857 C20.299998,1.59898304 18.6770303,0 16.6749983,0 L3.62499964,0 C1.62296762,0 0,1.59898304 0,3.57142857 L0,16.4285714 C0,18.401017 1.62296762,20 3.62499964,20 L16.6749983,20 C18.6770303,20 20.299998,18.401017 20.299998,16.4285714 L20.299998,14.7285714 L27.9487472,18.4928571 C28.0497559,18.5438456 28.161504,18.5707582 28.2749972,18.5714286 C28.4107354,18.5718577 28.5438697,18.534735 28.6592471,18.4642857 C28.8716616,18.333489 29.0004983,18.1039296 29,17.8571429 L29,2.14285714 C29.0004983,1.89607038 28.8716616,1.66651104 28.6592471,1.53571429 Z M18.8499981,16.4285714 C18.8499981,17.6120387 17.8762175,18.5714286 16.6749983,18.5714286 L3.62499964,18.5714286 C2.42378043,18.5714286 1.44999985,17.6120387 1.44999985,16.4285714 L1.44999985,3.57142857 C1.44999985,2.38796125 2.42378043,1.42857143 3.62499964,1.42857143 L16.6749983,1.42857143 C17.8762175,1.42857143 18.8499981,2.38796125 18.8499981,3.57142857 L18.8499981,16.4285714 Z M27.5499972,16.7 L20.299998,13.1285714 L20.299998,6.87142857 L27.5499972,3.3 L27.5499972,16.7 Z" id="Shape"></path>
        </g>
    </g>
</svg>