<?xml version="1.0" encoding="UTF-8"?>
<svg width="30px" height="30px" viewBox="0 0 30 30" version="1.1" xmlns="http://www.w3.org/2000/svg" xmlns:xlink="http://www.w3.org/1999/xlink">
    <title>3</title>
    <g id="3" stroke="none" stroke-width="1" fill="none" fill-rule="evenodd">
        <g id="iconfinder_flash_thunder_storm_instant_fast_3070490" transform="translate(8.000000, 3.000000)" fill="#000000" fill-rule="nonzero" stroke="#FFFFFF" stroke-width="0.2">
            <path d="M14.9026839,8.9115566 C14.7768915,8.69585965 14.5478058,8.56355246 14.3003454,8.56367925 L10.9449587,8.56367925 L12.657604,2.39386792 C12.8141426,1.82600129 12.6994387,1.21671509 12.3475486,0.746909088 C11.9956585,0.277103087 11.4470359,0.000786891142 10.8645692,0 L4.74914396,0 C3.8960697,0.000667585849 3.15229649,0.587386149 2.94329349,1.4245283 L0.0213109073,13.1875 C-0.0315182638,13.399102 0.0150899204,13.6235392 0.147615258,13.7957065 C0.280140596,13.9678737 0.483749489,14.0685003 0.699378635,14.0683962 L5.5495435,14.0683962 L4.67924007,23.7134434 C4.62559724,24.2688716 4.96704966,24.7853092 5.49478545,24.946934 C5.60804282,24.9820888 5.72584162,25 5.8443049,25 C6.26727145,25 6.65625452,24.7654763 6.85791129,24.3891509 L14.9131695,9.61320755 C15.0325782,9.39392146 15.0285906,9.12708688 14.9026839,8.9115566 Z M6.17285318,22.7158019 L7.01053478,13.4257075 C7.02859982,13.227095 6.96300636,13.0299899 6.82990231,12.8829161 C6.69679826,12.7358423 6.50854821,12.652462 6.31149589,12.6533019 L1.59647855,12.6533019 L4.29942894,1.76886792 C4.352414,1.56115531 4.53720038,1.41579094 4.74914396,1.41509434 L10.8645692,1.41509434 C11.0091545,1.41618091 11.1450518,1.4851338 11.2324246,1.60174036 C11.3197974,1.71834692 11.3487477,1.86939736 11.310789,2.01061321 L9.34881989,9.08018868 C9.28974202,9.29343336 9.33272035,9.52237514 9.46495422,9.69882605 C9.5971881,9.87527697 9.80342055,9.97887835 10.0222274,9.97877358 L13.1166395,9.97877358 L6.17285318,22.7158019 Z" id="Shape"></path>
        </g>
    </g>
</svg>