<?xml version="1.0" encoding="UTF-8"?>
<svg width="117px" height="72px" viewBox="0 0 117 72" version="1.1" xmlns="http://www.w3.org/2000/svg" xmlns:xlink="http://www.w3.org/1999/xlink">
    <title>Path 2</title>
    <defs>
        <path d="M40.8690543,39.6284983 L40.7741114,46.9791115 C37.9494094,46.8251204 36.0431835,46.4576354 35.0554295,45.8766608 C34.0676756,45.295682 32.9842208,43.9095479 31.805057,41.7182459 L31.4336004,41.7182459 C27.7166767,45.9076317 23.3342054,48.0023204 18.2861865,48.0023204 C13.2381676,48.0023204 8.81859239,46.1206477 5.02746499,42.3572983 C1.66251383,38.7690957 -0.0132816247,34.3263981 0,29.0292014 C0.0134401492,23.7320047 1.65042525,19.365695 4.91103352,15.9301886 C7.58236004,13.5339465 10.3281766,11.8450896 13.1484832,10.8636182 C15.9687898,9.88214668 19.7208092,9.81450524 24.4045372,10.6606938 C29.0905765,12.5904447 32.6408754,15.0786356 35.0554295,18.1252247 C37.4699837,21.1718137 40.8718288,25.3287031 45.2609605,30.59583 C47.714589,33.3929714 50.0602695,35.5425653 52.2979598,37.0446161 C54.5356923,38.5466626 57.3374574,39.3996615 60.7032973,39.6036084 L61.136142,39.6036084 C68.4550524,38.7938137 72.0433984,35.2718319 71.9011377,29.0376671 C71.6877677,19.6864261 63.6840356,17.2553574 61.363195,17.2553574 C59.0423964,17.2553574 59.0752776,17.5336345 56.3002048,18.4035018 C54.4501422,18.9834412 52.7507185,19.9705704 51.2018915,21.3649313 L51.0185399,21.0473015 L46.451336,15.3574156 C49.6563485,13.0201816 52.059329,11.5222212 53.6602354,10.8636182 C55.2611839,10.2050151 57.742052,9.69372294 61.1029661,9.32974156 L61.4993509,8.74003725 C63.2143522,6.0279255 64.6249602,4.22017229 65.731217,3.31681956 C66.8374739,2.41346682 68.9946242,1.3078603 72.2027101,0 L72.3370557,0.320982538 L75.1395787,6.39572061 C73.4407023,7.10624913 72.196016,7.74088009 71.4054777,8.2995716 C70.6149815,8.8582631 69.6855506,9.76023283 68.6171429,11.0054808 C71.4096036,12.8885867 73.5837629,14.7192224 75.1395787,16.4973877 C76.0444224,17.5315809 77.6907141,20.3020303 80.1288914,23.451674 C81.7543429,25.5514086 83.8830748,28.3156973 86.5150028,31.7445066 C89.4991092,35.0979926 91.7961625,37.2485378 93.4060365,38.1961551 C94.4819804,38.8294701 97.5223342,40.4256279 102.696725,39.3108894 C107.871157,38.1961551 108.620984,36.6018999 108.859109,35.1780727 C109.097235,33.7542412 107.44067,31.9529253 106.23598,31.4594361 C105.432896,31.1304405 102.729901,30.8425704 98.127079,30.59583 C93.6829375,30.8506002 90.4498855,30.1200056 88.4279228,28.4040419 C86.4059601,26.6880699 85.2548653,24.2384773 84.9746382,21.0552643 C84.8732159,19.1209034 85.4971168,17.2216205 86.8463831,15.3574156 C88.1956914,13.4931688 90.4426862,11.9276089 93.5874094,10.6606938 C96.2099067,9.897695 98.7960284,9.51615367 101.345648,9.51615367 C105.170099,9.51615367 110.298304,12.1936903 110.793206,12.4677346 C111.123155,12.6504587 112.405312,13.6508312 114.639592,15.4688941 L109.941368,21.130617 C107.47111,18.8069616 104.851644,17.5151944 102.08297,17.2553574 C99.9686371,17.0569173 97.1144557,17.0830687 95.265614,17.9845774 C93.4167724,18.8860862 92.6634517,20.5811455 92.8297523,21.3649313 C92.9582458,21.9705611 93.3710081,23.3813085 94.9297289,23.8389988 C96.4884918,24.2966892 101.782114,24.234454 103.160388,24.3748079 C104.6408,24.5255972 106.882869,24.8644331 109.886552,25.3913155 L110.160338,25.5272689 C114.837553,27.017518 117.115955,30.3129346 116.995461,35.4134724 C116.875009,40.5140103 113.081166,44.4380564 105.61389,47.1856023 L105.125303,47.3373094 C100.003876,48.2282864 95.6770291,47.8828373 92.1448044,46.3009621 C88.6125375,44.719091 84.2787439,40.8133928 79.1434656,34.5838589 L78.7407656,34.5806906 C78.4855047,35.8502207 78.2273809,36.7595581 77.9662679,37.3087069 C77.705197,37.8578598 77.1498372,38.6595912 76.3002306,39.7139134 L76.2380468,40.2325649 C79.7330539,44.2781644 81.3242348,49.0487469 81.0116318,54.5443083 C80.6989867,60.0398696 78.1087812,64.6578482 73.2409311,68.398239 L72.7797522,68.8098975 C68.6303206,71.2145873 64.3157674,72.2597912 59.8361344,71.9455088 C53.1166219,71.4740853 50.5377417,68.8332787 48.0438221,66.5558235 C45.5499025,64.2783646 44.1635871,61.358312 43.2064955,58.7774137 C42.5684486,57.0568149 42.259382,54.7880438 42.279296,51.9711004 L49.9555212,51.8867413 C49.6466231,55.5843856 50.7341869,58.4934203 53.2182126,60.6138496 C55.7022384,62.7342748 58.7158999,63.8447721 62.2591973,63.9453332 L62.6954943,63.9842794 C67.9274796,63.2947935 71.1413334,61.1061653 72.3370557,57.4183949 C73.532736,53.7306245 72.87768,49.6621425 70.3718037,45.2129532 L70.0223619,45.2682608 C67.1616127,47.0909672 63.7661755,48.0023204 59.8361344,48.0023204 C55.9060513,48.0023204 52.2089153,46.8064792 48.7447265,44.4147884 L48.399537,44.256841 C45.0989543,41.5739902 42.6486518,39.1699153 41.0486,37.0446161 C38.6485161,33.8566673 34.5469581,28.5029057 32.5383247,26.4343935 C27.8140952,21.5692806 25.1468104,19.8500396 23.7118678,19.1267707 C22.2769252,18.4035018 20.1585629,18.0085495 18.2861865,18.1252247 C16.4138102,18.2418999 14.342551,18.9225891 12.5797394,20.0341886 C10.816932,21.1457881 6.29454083,25.0219697 7.81622079,31.7445066 C9.33790495,38.4670603 15.1782852,40.2325649 17.0178266,40.2325649 C18.8573681,40.2325649 22.1508483,40.2844401 25.238802,37.8408908 C27.297435,36.2118594 28.5752846,34.166787 29.0723466,31.7056778 L34.5610663,31.733472 C34.480922,34.0117229 35.0043689,35.870136 36.1314028,37.3087069 C37.2584325,38.747282 38.8376525,39.5205444 40.8690543,39.6284983 Z" id="path-1"></path>
    </defs>
    <g id="Page-1" stroke="none" stroke-width="1" fill="none" fill-rule="evenodd">
        <g id="5" transform="translate(-101.000000, -57.000000)">
            <g id="Path-2" transform="translate(101.000000, 57.000000)">
                <mask id="mask-2" fill="white">
                    <use xlink:href="#path-1"></use>
                </mask>
                <g id="Clip-2"></g>
                <polygon id="Fill-1" fill="#343434" mask="url(#mask-2)" points="-1 73 117 73 117 0 -1 0"></polygon>
            </g>
        </g>
    </g>
</svg>