<?xml version="1.0" encoding="UTF-8"?>
<svg width="88px" height="35px" viewBox="0 0 88 35" version="1.1" xmlns="http://www.w3.org/2000/svg" xmlns:xlink="http://www.w3.org/1999/xlink">
    <title>amazon_aws-ar21</title>
    <g id="Page-1" stroke="none" stroke-width="1" fill="none" fill-rule="evenodd" fill-opacity="0.85">
        <g id="App-Development" transform="translate(-135.000000, -5536.000000)" fill="#000000">
            <g id="amazon_aws-ar21" transform="translate(135.000000, 5536.000000)">
                <path d="M6.08972886,30.8650655 L6.08972886,23.2694396 L11.204186,25.0356845 L11.204186,32.7257621 L6.08972886,30.8650655 Z M17.2557852,30.8650655 L17.2557852,23.2694396 L12.1413281,25.0356845 L12.1413281,32.7257621 L17.2557852,30.8650655 Z M11.7905353,21.2241331 L16.5897873,22.7920297 L11.7905353,24.4432154 L6.62184931,22.7001541 L11.7905353,21.2241331 Z M0,20.2538576 L0,12.6479279 L5.11445713,14.4133141 L5.11445713,22.1033917 L0,20.2538576 Z M11.167751,20.252999 L11.167751,12.6479279 L6.05329386,14.4133141 L6.05329386,22.1033917 L11.167751,20.252999 Z M5.70250107,10.6103493 L10.5017531,12.1791045 L5.70250107,13.8302902 L0.533815108,12.0872288 L5.70250107,10.6103493 Z M11.9345806,20.252999 L11.9345806,12.6479279 L17.0490377,14.4133141 L17.0490377,22.1033917 L11.9345806,20.252999 Z M23.100637,20.252999 L23.100637,12.6479279 L17.9861798,14.4133141 L17.9861798,22.1033917 L23.100637,20.252999 Z M17.6438603,10.6103493 L22.4431123,12.1791045 L17.6438603,13.8302902 L12.4751743,12.0872288 L17.6438603,10.6103493 Z M18.0319354,9.64007374 L18.0319354,2.04358916 L23.1463925,3.80983408 L23.1463925,11.499053 L18.0319354,9.64007374 Z M29.1912131,9.63921509 L29.1912131,2.04358916 L24.076756,3.80983408 L24.076756,11.499053 L29.1912131,9.63921509 Z M23.7251159,0 L28.5243679,1.56789656 L23.7251159,3.21908225 L18.5564299,1.47602091 L23.7251159,0 Z M29.9571954,9.64007374 L29.9571954,2.04358916 L35.0716526,3.80983408 L35.0716526,11.499053 L29.9571954,9.64007374 Z M41.1147785,9.64007374 L41.1147785,2.04358916 L36.0003214,3.80983408 L36.0003214,11.499053 L41.1147785,9.64007374 Z M35.6580019,0 L40.4572539,1.56789656 L35.6580019,3.21908225 L30.4893159,1.47602091 L35.6580019,0 Z" id="Shape"></path>
                <path d="M32.4703631,27.7756396 L30.7519868,33.8239766 L30.0063403,33.8239766 L28.6506194,29.331515 L27.423692,33.8239766 L26.6627936,33.8239766 L24.8774787,27.7756396 L25.8095368,27.7756396 L27.1101815,32.2835568 L28.3472769,27.7756396 L29.0285266,27.7756396 L30.3740796,32.2972952 L31.7111594,27.7756396 L32.4610425,27.7756396 L32.4703631,27.7756396 Z M37.2221649,32.0190924 L38.0864369,32.1908225 C37.9277398,32.7098152 37.6042333,33.1611105 37.1662414,33.4745056 C36.7086856,33.8136728 36.1731758,33.982827 35.5563228,33.982827 C34.7428903,33.982827 34.083671,33.692603 33.5803596,33.1104377 C33.0770482,32.5282723 32.8177666,31.766649 32.8177666,30.8238503 C32.8177666,29.860444 33.0719642,29.0825063 33.60239,28.4883198 C34.0946216,27.9078999 34.8173855,27.5812229 35.572422,27.5978988 C36.3519615,27.5978988 36.9772878,27.8709498 37.4517901,28.4179104 C37.9262924,28.9648711 38.1686275,29.7814481 38.1804901,30.8702174 L33.8481145,30.8702174 C33.8481145,31.7846807 34.0362207,32.4020507 34.4141279,32.7214688 C34.7920351,33.0408869 35.1902782,33.200596 35.6105516,33.200596 C36.368908,33.200596 36.9035705,32.8038993 37.2136916,32.0096472 L37.2221649,32.0190924 Z M37.1713253,30.1781448 C37.1628521,29.8389777 37.1086232,29.5375912 37.0060968,29.2739854 C36.9035705,29.0103796 36.730716,28.7862717 36.4866863,28.6008031 C36.2426565,28.4153345 35.9503292,28.3226002 35.6080097,28.3226002 C35.1653405,28.3153441 34.7402854,28.4981186 34.4378531,28.8257696 C34.117564,29.16923 33.9294577,29.6114352 33.8981067,30.1781448 L37.170478,30.1781448 L37.1713253,30.1781448 Z M39.8573474,33.8239766 L39.4108068,33.8239766 L39.4108068,25.6667929 L40.340323,25.6667929 L40.340323,28.7922822 C40.7639857,28.008334 41.3571136,27.6159305 42.0968289,27.6159305 C42.7797733,27.6159305 43.3525654,27.8906988 43.8143578,28.4376594 C44.2761502,28.98462 44.5066228,29.7805894 44.5066228,30.8229916 C44.5066228,31.7219991 44.2778449,32.4758946 43.825373,33.0855368 C43.3729012,33.6951789 42.7797733,34 42.0527679,34 C41.2427247,34 40.6123145,33.6101725 40.1886517,32.8322348 L39.8497215,33.8325631 L39.8573474,33.8239766 Z M40.340323,31.4541001 C40.3826892,32.0749047 40.5716428,32.5256964 40.9037945,32.8056166 C41.2359461,33.0855368 41.5875862,33.234942 41.9578675,33.234942 C42.4298278,33.234942 42.810277,33.0271485 43.1000623,32.6115615 C43.3898477,32.1959744 43.533893,31.6266889 43.533893,30.9045635 C43.533893,30.1257671 43.3940843,29.513549 43.1153142,29.0670505 C42.8365441,28.6205521 42.448469,28.3990201 41.9527835,28.3990201 C41.5630138,28.3990201 41.212221,28.5578705 40.8987105,28.8747127 C40.5852,29.1915549 40.3903152,29.60199 40.3411703,30.1043008 L40.3411703,31.4523828 L40.340323,31.4541001 Z M46.8757451,32.25608 L47.7620476,32.0706114 C47.9586271,32.8305175 48.5822588,33.2100412 49.6295532,33.2100412 C50.0150863,33.2100412 50.3430013,33.1224588 50.6107562,32.947294 C50.867912,32.7928385 51.0220372,32.5090746 51.0132358,32.2062783 C51.0132358,31.7340203 50.6717636,31.4334924 49.9896665,31.3046948 L48.7330827,31.0625552 C48.2416339,30.9663863 47.8493221,30.7792004 47.5578421,30.4992802 C47.2663621,30.2193601 47.1214695,29.8509988 47.1214695,29.3830341 C47.1214695,28.8678435 47.3197437,28.4522565 47.7179867,28.1105134 C48.1162297,27.7687704 48.6500448,27.5987575 49.3236686,27.5987575 C50.6183821,27.5987575 51.4165628,28.1113721 51.7216,29.1374599 L50.8708851,29.3229285 C50.6268554,28.6961133 50.1252386,28.3809885 49.3668822,28.3809885 C48.988975,28.3809885 48.6788539,28.4668535 48.4373661,28.6162588 C48.2069001,28.7518146 48.0678289,29.0040397 48.0747107,29.2739854 C48.0747107,29.7187666 48.3839846,29.9978281 49.0016849,30.113746 L50.1625209,30.330126 C51.3792805,30.5533753 51.9868129,31.1518549 51.9868129,32.1229891 C51.9976051,32.6589034 51.742381,33.1645646 51.3072578,33.4693537 C50.8547859,33.8110968 50.2523374,33.982827 49.499065,33.982827 C48.0840313,33.982827 47.211286,33.4040963 46.8757451,32.2483521 L46.8757451,32.25608 Z M56.9301102,32.0190924 L57.7943823,32.1908225 C57.6376271,32.7077304 57.3308952,33.1353385 56.8741868,33.4745056 C56.4174783,33.8136728 55.8811212,33.982827 55.2642682,33.982827 C54.4508356,33.982827 53.7916163,33.692603 53.288305,33.1104377 C52.7849936,32.5282723 52.5257119,31.766649 52.5257119,30.8238503 C52.5257119,29.860444 52.7866882,29.0825063 53.3103354,28.4883198 C53.802567,27.9078999 54.5253309,27.5812229 55.2803674,27.5978988 C56.0582122,27.5978988 56.6852332,27.8709498 57.1588882,28.4179104 C57.6325431,28.9648711 57.8757256,29.7814481 57.8875881,30.8702174 L53.5560598,30.8702174 C53.5560598,31.7846807 53.7441661,32.4020507 54.121226,32.7214688 C54.4982859,33.0408869 54.8973762,33.200596 55.318497,33.200596 C56.0768534,33.200596 56.6115158,32.8038993 56.921637,32.0096472 L56.9301102,32.0190924 Z M56.8792707,30.1781448 C56.8707975,29.8389777 56.8157213,29.5375912 56.7140422,29.2739854 C56.6123632,29.0103796 56.4395087,28.7862717 56.195479,28.6008031 C55.9514492,28.4153345 55.6591219,28.3226002 55.3168024,28.3226002 C54.8738399,28.3151003 54.44843,28.4978949 54.1457984,28.8257696 C53.8255094,29.16923 53.6374031,29.6114352 53.6068994,30.1781448 L56.8792707,30.1781448 Z M59.8254217,33.8239766 L58.8959056,33.8239766 L58.8959056,27.7756396 L59.7093381,27.7756396 L59.7093381,29.1855444 C59.9974288,28.5243832 60.2855195,28.096775 60.5736102,27.9018613 C60.8617009,27.7069475 61.1667381,27.6082026 61.4616074,27.6082026 C61.5838963,27.6099324 61.7060412,27.617382 61.827652,27.6305276 L61.827652,28.5286764 L61.6395458,28.5286764 C61.1286084,28.5286764 60.7040983,28.7210142 60.3660154,29.1056898 C60.0279325,29.4903654 59.8474522,29.9961108 59.8237271,30.6220673 L59.8237271,33.8248352 L59.8254217,33.8239766 Z M67.6038704,27.7756396 L65.5431746,33.8239766 L64.5797655,33.8239766 L62.4504363,27.7756396 L63.4790896,27.7756396 L65.135611,32.691416 L66.7794226,27.7756396 L67.6038704,27.7756396 L67.6038704,27.7756396 Z M69.3408878,25.6564891 L69.3408878,26.7014673 L68.3478223,26.7014673 L68.3478223,25.6564891 L69.3425825,25.6564891 L69.3408878,25.6564891 Z M69.3188574,27.7747809 L69.3188574,33.8231179 L68.3986618,33.8231179 L68.3986618,27.7747809 L69.328178,27.7747809 L69.3188574,27.7747809 Z M74.1774222,31.7056848 L75.0137325,31.85509 C74.8951069,32.5231204 74.6341307,33.0460388 74.229109,33.4247039 C73.8240874,33.8033689 73.3182341,33.9914135 72.703923,33.9914135 C71.8820172,33.9914135 71.2634696,33.6822992 70.8228603,33.0683638 C70.382251,32.4544284 70.1763509,31.6945223 70.1763509,30.8144051 C70.1763509,29.8956487 70.4034341,29.1314494 70.8584479,28.5218072 C71.3134618,27.9121651 71.9320094,27.607344 72.7225642,27.607344 C73.3716156,27.607344 73.8918735,27.8048337 74.2841852,28.2083996 C74.6764969,28.6119656 74.9196794,29.1099831 75.0128852,29.7350809 L74.1765749,29.8965073 C74.0189723,28.8978963 73.5436227,28.3990201 72.7488313,28.3990201 C72.2655416,28.3825644 71.8124225,28.6365623 71.5693541,29.0601813 C71.2939733,29.5006692 71.1558592,30.0716721 71.1558592,30.7740485 C71.1558592,31.5468344 71.2914313,32.14789 71.5659648,32.5772154 C71.8063925,32.9881167 72.2479754,33.2343815 72.7191749,33.220345 C73.4860045,33.220345 73.9715221,32.7188928 74.1765749,31.7151299 L74.1774222,31.7056848 Z M80.2578305,32.0190924 L81.1221025,32.1908225 C80.9634054,32.7098152 80.6398989,33.1611105 80.201907,33.4745056 C79.7443512,33.8136728 79.2088414,33.982827 78.5919884,33.982827 C77.7785558,33.982827 77.1176419,33.692603 76.6151778,33.1104377 C76.1127138,32.5282723 75.8525848,31.766649 75.8525848,30.8238503 C75.8525848,29.860444 76.1067825,29.0825063 76.6372083,28.4883198 C77.1294398,27.9078999 77.8522038,27.5812229 78.6072403,27.5978988 C79.3867798,27.5978988 80.0138007,27.8709498 80.4866084,28.4179104 C80.959416,28.9648711 81.2034458,29.7814481 81.2153083,30.8702174 L76.88378,30.8702174 C76.88378,31.7846807 77.0718863,32.4020507 77.4497935,32.7214688 C77.8277007,33.0408869 78.2259437,33.200596 78.6462172,33.200596 C79.4045736,33.200596 79.939236,32.8038993 80.2493572,32.0096472 L80.2578305,32.0190924 Z M80.2069909,30.1781448 C80.1985177,29.8389777 80.1442888,29.5375912 80.0417624,29.2739854 C79.9351321,29.0044559 79.7553364,28.7710509 79.5231992,28.6008031 C79.2791694,28.4153345 78.9868421,28.3226002 78.6445226,28.3226002 C78.2019383,28.3145033 77.7768211,28.4974369 77.4752133,28.8257696 C77.1566189,29.16923 76.966818,29.6114352 76.9354669,30.1781448 L80.2078382,30.1781448 L80.2069909,30.1781448 Z M81.7491235,32.25608 L82.635426,32.0706114 C82.8320055,32.8305175 83.4547898,33.2100412 84.5029316,33.2100412 C84.8884647,33.2100412 85.214685,33.1224588 85.4841346,32.947294 C85.7409648,32.7926195 85.8947429,32.5088973 85.8857669,32.2062783 C85.8857669,31.7340203 85.5442947,31.4334924 84.8630449,31.3046948 L83.6064611,31.0625552 C83.1150123,30.9663863 82.7227005,30.7792004 82.4312205,30.4992802 C82.1397405,30.2193601 81.9948479,29.8509988 81.9948479,29.3830341 C81.9948479,28.8678435 82.1931221,28.4522565 82.5913651,28.1105134 C82.9896081,27.7687704 83.5234232,27.5987575 84.197047,27.5987575 C85.4917605,27.5987575 86.2899412,28.1113721 86.5949784,29.1374599 L85.7442635,29.3229285 C85.5002337,28.6961133 84.998617,28.3809885 84.2402606,28.3809885 C83.8623534,28.3809885 83.5624002,28.4668535 83.3107445,28.6162588 C83.0802785,28.7518146 82.9412073,29.0040397 82.9480891,29.2739854 C82.9480891,29.7187666 83.257363,29.9978281 83.8750633,30.113746 L85.0358993,30.330126 C86.2526588,30.5533753 86.8601913,31.1518549 86.8601913,32.1229891 C86.8709835,32.6589034 86.6157594,33.1645646 86.1806362,33.4693537 C85.7281643,33.8110968 85.1257158,33.982827 84.3724434,33.982827 C82.9591044,33.982827 82.0846644,33.4040963 81.7499708,32.2483521 L81.7491235,32.25608 Z" id="Shape" stroke-opacity="0.85" stroke="#000000" stroke-width="0.5" fill-rule="nonzero"></path>
                <path d="M60.7896782,14.8495088 L60.7896782,13.3966715 C60.7873318,13.2980385 60.8249646,13.2027382 60.8938087,13.1329739 C60.9626528,13.0632096 61.0566962,13.0250738 61.1540282,13.0273467 L67.579298,13.0273467 C67.7843508,13.0273467 67.9495793,13.1785741 67.9504266,13.3940955 L67.9504266,14.6391393 C67.9487319,14.8477915 67.7750302,15.1199838 67.467451,15.5536025 L64.1400035,20.3689168 C65.3754042,20.3397227 66.6819802,20.5269086 67.8046866,21.1674622 C68.0588843,21.3117155 68.1249757,21.524661 68.1453115,21.7341718 L68.1453115,23.2840367 C68.1453115,23.4986994 67.9148389,23.7451322 67.6725038,23.6163346 C65.6948459,22.5662045 63.071526,22.4511453 60.8837313,23.6283557 C60.6600374,23.7485668 60.4261755,23.5055686 60.4261755,23.2917645 L60.4261755,21.8183196 C60.4261755,21.5821906 60.4304122,21.1794833 60.6651214,20.8197086 L64.5204527,15.2127181 L61.1625015,15.2127181 C61.0646196,15.2172182 60.9692372,15.1806231 60.8988397,15.1115597 C60.8284422,15.0424962 60.7892584,14.9470754 60.7905255,14.8477915 L60.7896782,14.8495088 Z M37.7958043,23.9237316 L35.8410242,23.9237316 C35.6546126,23.9117105 35.5063306,23.7691744 35.4919261,23.5802712 L35.4927734,13.4138445 C35.4927734,13.2103442 35.6622385,13.0480592 35.8698333,13.0480592 L37.6898886,13.0472005 C37.8805368,13.0575044 38.0330554,13.203475 38.0457653,13.3889436 L38.0457653,14.7164179 L38.0822003,14.7164179 C38.5567026,13.4327348 39.4506311,12.8333965 40.6546807,12.8333965 C41.8773715,12.8333965 42.6433539,13.4327348 43.1915735,14.7164179 C43.6660758,13.4327348 44.7421793,12.8333965 45.8920001,12.8333965 C46.7139059,12.8333965 47.606987,13.1768568 48.1543593,13.946208 C48.7746017,14.8014244 48.6475028,16.0430336 48.6475028,17.1343789 L48.6458082,23.5502185 C48.6458082,23.7537187 48.4763431,23.9160037 48.2687483,23.9160037 L46.3173575,23.9160037 C46.1224726,23.903124 45.9665647,23.7459909 45.9665647,23.5510771 L45.9665647,18.1690532 C45.9665647,17.7397278 46.0029997,16.671566 45.9114886,16.2645655 C45.7657486,15.5802207 45.3183607,15.3870243 44.7625151,15.3870243 C44.2880128,15.3870243 43.7948693,15.7081597 43.5932058,16.221633 C43.3915423,16.7351062 43.4110308,17.5911812 43.4110308,18.1690532 L43.4110308,23.5579463 C43.4110308,23.7614466 43.2415657,23.9237316 43.0339709,23.9237316 L41.0808855,23.9237316 C40.884306,23.9108518 40.7300927,23.7537187 40.7300927,23.558805 L40.7283981,18.1690532 C40.7283981,17.035634 40.9105731,15.3664166 39.5251958,15.3664166 C38.12033,15.3664166 38.1745588,16.9918428 38.1745588,18.1690532 L38.1745588,23.5579463 C38.1745588,23.7614466 38.0050937,23.9237316 37.7974989,23.9237316 L37.7958043,23.9237316 Z M72.6717246,12.8411243 C75.5500896,12.8411243 77.1066267,15.365558 77.1066267,18.5751951 C77.1066267,21.6775008 75.3865558,24.1375357 72.6717246,24.1375357 C69.8475885,24.1375357 68.307998,21.613102 68.307998,18.4678637 C68.307998,15.3020178 69.8653824,12.8411243 72.6717246,12.8411243 Z M72.6903658,15.1783721 C71.2600803,15.1783721 71.1694084,17.1678663 71.1694084,18.4086168 C71.1694084,19.6493674 71.1524699,22.0407102 72.672572,22.0407102 C74.1757275,22.0407102 74.2485975,20.1628406 74.2485975,18.8576912 C74.2485975,18.0024749 74.2130099,16.9746698 73.9605068,16.1615274 C73.7427442,15.4557163 73.3080661,15.1775134 72.6929078,15.1775134 L72.6903658,15.1783721 Z M81.2720792,23.9237316 L79.324925,23.9237316 C79.1300401,23.9108518 78.9741322,23.7537187 78.9741322,23.558805 L78.9707429,13.388085 C78.9876894,13.2017577 79.140208,13.0566457 79.3461081,13.0566457 L81.1593849,13.0557871 C81.3247951,13.0621227 81.4662768,13.1782196 81.5067883,13.3408592 L81.5067883,14.8864308 L81.5440707,14.8864308 C82.091443,13.4954163 82.8574253,12.8325378 84.2080623,12.8325378 C85.0833496,12.8325378 85.9416904,13.1536733 86.4890627,14.0303558 C87,14.8434982 87,16.2113291 87,17.1970604 L87,23.5940096 C86.9779695,23.7657398 86.8186723,23.9142864 86.6254821,23.9142864 L84.6656181,23.9142864 C84.4851377,23.9022653 84.3393977,23.7683158 84.3266878,23.5940096 L84.3266878,18.0728843 C84.3266878,16.9609314 84.4537867,15.3252014 83.103997,15.3252014 C82.6294947,15.3252014 82.1914274,15.6463368 81.9728174,16.1383438 C81.6991312,16.7591484 81.6618489,17.3790944 81.6618489,18.0642978 L81.6618489,23.539056 C81.6584596,23.7425563 81.4898418,23.9048413 81.2805524,23.9048413 L81.2720792,23.9237316 Z" id="Shape" fill-rule="nonzero"></path>
                <path d="M54.8321321,12.7423795 C55.7828314,12.7423795 57.0351786,12.9999747 57.7757412,13.729828 C58.7272878,14.6314115 58.6349293,15.8309468 58.6349293,17.1386721 L58.6349293,20.2246635 C58.6349293,21.1520065 59.0162258,21.5598656 59.3721025,22.0604591 C59.4966594,22.2321893 59.5246211,22.4554385 59.3653239,22.5868121 L57.8655577,23.9022653 L57.861321,23.8979721 C57.7316802,24.0156072 57.5452686,24.0233351 57.3995286,23.9443392 C56.7504772,23.3973786 56.6343936,23.1457939 56.2793642,22.6237341 C55.20665,23.7399803 54.446599,24.0636917 53.0569851,24.0636917 C51.4114788,24.0636917 50.1311699,23.0333106 50.1311699,20.975983 C50.1311699,19.3677299 50.990358,18.2746673 52.2155908,17.7388691 C53.2764424,17.2666111 54.7575675,17.180746 55.8912891,17.0519484 L55.8912891,16.7943531 C55.8912891,16.3220951 55.9277241,15.7656893 55.6540379,15.3578301 C55.4167868,14.9929035 54.959231,14.8426396 54.5567513,14.8426396 C53.8111048,14.8426396 53.1484962,15.2290325 52.9849624,16.0327298 C52.9510694,16.2113291 52.8222759,16.3873526 52.6460322,16.3967977 L50.7514122,16.1890042 C50.5819471,16.1520822 50.412482,16.0224259 50.4599322,15.7751345 C50.8954576,13.4456146 52.9714052,12.7423795 54.8321321,12.7423795 Z M55.8887471,18.6404526 C54.4762554,18.6404526 52.9824204,18.9478496 52.9824204,20.63424 C52.9824204,21.4920322 53.4213351,22.0707629 54.1712182,22.0707629 C54.7194378,22.0707629 55.2134286,21.7273026 55.5243971,21.1691795 C55.9090829,20.4831174 55.8904418,19.8408465 55.8904418,19.0680607 L55.8904418,19.0680607 L55.8887471,19.069778 Z" id="Combined-Shape" fill-rule="nonzero"></path>
                <path d="M29.4284643,12.7423795 C30.3791636,12.7423795 31.6315108,12.9999747 32.3729206,13.729828 C33.3236199,14.6314115 33.2321088,15.8309468 33.2321088,17.1386721 L33.2321088,20.2246635 C33.2321088,21.1520065 33.6134053,21.5598656 33.969282,22.0604591 C34.0938389,22.2321893 34.1218006,22.4554385 33.9633507,22.5868121 L32.4720577,23.9022653 L32.4669738,23.8971134 L32.4576532,23.8979721 C32.3280124,24.0156072 32.1416008,24.0233351 31.9958608,23.9443392 C31.3468094,23.3973786 31.2298785,23.1457939 30.8756964,22.6237341 C29.8029822,23.7399803 29.0429312,24.0636917 27.6533172,24.0636917 C26.007811,24.0636917 24.727502,23.0333106 24.727502,20.975983 C24.727502,19.3677299 25.5866902,18.2746673 26.8119229,17.7388691 C27.8727746,17.2666111 29.3538996,17.180746 30.4876213,17.0519484 L30.4876213,16.7943531 C30.4876213,16.3220951 30.5240563,15.7656893 30.2503701,15.3578301 C30.0131189,14.9929035 29.5555631,14.8426396 29.1530835,14.8426396 C28.407437,14.8426396 27.7448284,15.2290325 27.5812946,16.0327298 C27.5474015,16.2113291 27.4118294,16.3873526 27.2423643,16.3967977 L25.3477444,16.1890042 C25.1782792,16.1520822 25.0088141,16.0224259 25.0562644,15.7751345 C25.4909424,13.4456146 27.56689,12.7423795 29.4284643,12.7423795 Z M30.4850793,18.6404526 C29.0717402,18.6404526 27.5787526,18.9478496 27.5787526,20.63424 C27.5787526,21.4920322 28.0176672,22.0707629 28.7675504,22.0707629 C29.31577,22.0707629 29.8097608,21.7273026 30.1207293,21.1691795 C30.5054151,20.4831174 30.4867739,19.8408465 30.4867739,19.0680607 L30.4867739,19.0680607 L30.4850793,19.069778 Z" id="Combined-Shape" fill-rule="nonzero"></path>
            </g>
        </g>
    </g>
</svg>