<?xml version="1.0" encoding="UTF-8"?>
<svg width="118px" height="32px" viewBox="0 0 118 32" version="1.1" xmlns="http://www.w3.org/2000/svg" xmlns:xlink="http://www.w3.org/1999/xlink">
    <title>angular</title>
    <g id="Page-1" stroke="none" stroke-width="1" fill="none" fill-rule="evenodd" fill-opacity="0.85">
        <g id="App-Development" transform="translate(-1155.000000, -5218.000000)" fill-rule="nonzero">
            <g id="angular" transform="translate(1155.000000, 5218.000000)">
                <g id="Group" transform="translate(34.708594, 7.272727)" fill="#000000">
                    <path d="M0,16.4617605 L0,1.91630592 L1.86679687,1.91630592 L10.7398438,13.6219336 L10.7398438,1.91630592 L12.5144531,1.91630592 L12.5144531,16.4617605 L10.6476563,16.4617605 L1.77460937,4.64069264 L1.77460937,16.4617605 L0,16.4617605 Z M26.9648437,15.8845599 C25.7894531,16.3232323 24.521875,16.5541126 23.1851562,16.5541126 C17.9304687,16.5541126 15.303125,14.037518 15.303125,8.98124098 C15.303125,4.2020202 17.8382812,1.8008658 22.9085937,1.8008658 C24.3605469,1.8008658 25.7203125,2.00865801 26.9648437,2.4011544 L26.9648437,4.01731602 C25.7203125,3.53246753 24.4296875,3.3015873 23.1160156,3.3015873 C19.1519531,3.3015873 17.1699219,5.19480519 17.1699219,8.93506494 C17.1699219,12.975469 19.1289062,14.984127 23.0238281,14.984127 C23.6460937,14.984127 24.3375,14.8917749 25.0980469,14.7301587 L25.0980469,9.85858586 L26.9648437,9.85858586 L26.9648437,15.8845599 L26.9648437,15.8845599 Z M29.9609375,10.8513709 L29.9609375,1.91630592 L31.8277344,1.91630592 L31.8277344,10.8513709 C31.8277344,13.6450216 33.2105469,15.0533911 35.9992188,15.0533911 C38.7648438,15.0533911 40.1707031,13.6450216 40.1707031,10.8513709 L40.1707031,1.91630592 L42.0375,1.91630592 L42.0375,10.8513709 C42.0375,14.6608947 40.0324219,16.5772006 35.9992188,16.5772006 C31.9660156,16.5772006 29.9609375,14.6608947 29.9609375,10.8513709 L29.9609375,10.8513709 Z M47.2460937,1.91630592 L47.2460937,14.9379509 L54.8515625,14.9379509 L54.8515625,16.4617605 L45.3792969,16.4617605 L45.3792969,1.91630592 L47.2460937,1.91630592 L47.2460937,1.91630592 Z M57.5480469,16.4617605 L55.5890625,16.4617605 L62.8027344,0 L70.0164062,16.4617605 L67.9421875,16.4617605 L66.0753906,11.8903319 L61.2816406,11.8903319 L61.7886719,10.3665224 L65.453125,10.3665224 L62.7335937,3.78643579 L57.5480469,16.4617605 L57.5480469,16.4617605 Z M72.0214844,16.4617605 L72.0214844,1.91630592 L78.2210938,1.91630592 C80.9867188,1.91630592 82.3695313,3.07070707 82.3695313,5.4025974 C82.3695313,7.2958153 81.0097656,8.7041847 78.3132813,9.6046176 L83.2914063,16.4617605 L80.8253906,16.4617605 L76.2160156,9.92784993 L76.2160156,8.7041847 C78.9816406,8.26551227 80.3875,7.2034632 80.3875,5.49494949 C80.3875,4.15584416 79.6269531,3.48629149 78.0828125,3.48629149 L73.934375,3.48629149 L73.934375,16.4617605 L72.0214844,16.4617605 L72.0214844,16.4617605 Z" id="Shape"></path>
                </g>
                <polygon id="Path" fill="#000000" points="0 5.31024531 14.8652344 0 30.1222656 5.21789322 27.65625 24.9119769 14.8652344 32 2.28164062 25.004329"></polygon>
                <polygon id="Path" fill="#000000" points="30.1222656 5.21789322 14.8652344 0 14.8652344 32 27.65625 24.9119769"></polygon>
                <path d="M14.8882812,3.74025974 L5.6234375,24.3809524 L9.08046875,24.3116883 L10.9472656,19.6479076 L19.2210937,19.6479076 L21.2492187,24.3578644 L24.5449219,24.4271284 L14.8882812,3.74025974 Z M14.9113281,10.3665224 L18.0457031,16.9235209 L12.16875,16.9235209 L14.9113281,10.3665224 L14.9113281,10.3665224 Z" id="Shape" fill="#FFFFFF"></path>
            </g>
        </g>
    </g>
</svg>