<?xml version="1.0" encoding="UTF-8"?>
<svg width="164px" height="70px" viewBox="0 0 164 70" version="1.1" xmlns="http://www.w3.org/2000/svg" xmlns:xlink="http://www.w3.org/1999/xlink">
    <title>apple</title>
    <g id="apple" stroke="none" stroke-width="1" fill="none" fill-rule="evenodd">
        <g id="Group" transform="translate(1.000000, 9.000000)" fill="#000000" fill-rule="nonzero">
            <g id="iconfinder_16-apple_104490">
                <path d="M32.3030966,25.194346 C32.2432433,19.1884873 37.2091325,16.3079495 37.4311688,16.1624288 C34.6402696,12.0888145 30.2922204,11.529861 28.7447242,11.4662559 C25.0473378,11.0913716 21.5266151,13.6403922 19.6508914,13.6403922 C17.7790292,13.6403922 14.8809734,11.5211876 11.8149423,11.5751555 C7.78160536,11.6349057 4.06394611,13.9169778 1.98838979,17.521264 C-2.20037249,24.7751309 0.916823498,35.5253482 4.99842914,41.4126702 C6.99385934,44.2903169 9.37350879,47.5283922 12.4955317,47.4098555 C15.5046056,47.2913188 16.6398867,45.4670103 20.2774198,45.4670103 C23.9149529,45.4670103 24.9363197,47.4098555 28.1191612,47.3491416 C31.3550983,47.2903551 33.4065203,44.4165633 35.3855391,41.5273521 C37.676374,38.184232 38.6195454,34.9471205 38.6755372,34.7832893 C38.6050648,34.750523 32.3677767,32.3653336 32.3030966,25.194346 Z" id="Path"></path>
                <path d="M26.3225983,7.56996473 C27.9782164,5.5635145 29.0999822,2.77549312 28.7949237,0 C26.4056205,0.0963712888 23.5133569,1.5853077 21.7978855,3.58983051 C20.2610084,5.3688445 18.9172064,8.20119668 19.2772913,10.9265767 C21.9426917,11.1328113 24.6611878,9.57256012 26.3225983,7.56996473 Z" id="Path"></path>
            </g>
            <path d="M66.0314931,40.9415555 L68.4961087,33.4192703 L79.3444576,33.4192703 L81.8090732,40.9415555 L87.2837521,40.9415555 L76.8596403,11.8405969 L71.0011278,11.8405969 L60.577016,40.9415555 L66.0314931,40.9415555 Z M78.0313428,29.4060404 L69.8092236,29.4060404 L73.8697787,17.0235119 L73.9909893,17.0235119 L78.0313428,29.4060404 Z M93.6069051,48 L93.6069051,37.3316652 L93.707914,37.3316652 C94.92002,39.8323713 97.3644338,41.3650621 100.414901,41.3650621 C105.788571,41.3650621 109.222871,37.1299954 109.222871,30.2732207 L109.222871,30.2530537 C109.222871,23.355945 105.788571,19.1208783 100.354295,19.1208783 C97.2836267,19.1208783 94.9402218,20.6939031 93.707914,23.2551101 L93.6069051,23.2551101 L93.6069051,19.564552 L88.5766651,19.564552 L88.5766651,48 L93.6069051,48 Z M98.8593646,37.1299954 C95.7482924,37.1299954 93.5665016,34.4477865 93.5665016,30.2732207 L93.5665016,30.2530537 C93.5665016,26.058321 95.7482924,23.355945 98.8593646,23.355945 C102.071446,23.355945 104.091622,25.977653 104.091622,30.2530537 L104.091622,30.2732207 C104.091622,34.4881204 102.071446,37.1299954 98.8593646,37.1299954 Z M116.192481,48 L116.192481,37.3316652 L116.29349,37.3316652 C117.505596,39.8323713 119.950009,41.3650621 123.000476,41.3650621 C128.374146,41.3650621 131.808447,37.1299954 131.808447,30.2732207 L131.808447,30.2530537 C131.808447,23.355945 128.374146,19.1208783 122.939871,19.1208783 C119.869202,19.1208783 117.525797,20.6939031 116.29349,23.2551101 L116.192481,23.2551101 L116.192481,19.564552 L111.162241,19.564552 L111.162241,48 L116.192481,48 Z M121.44494,37.1299954 C118.333868,37.1299954 116.152077,34.4477865 116.152077,30.2732207 L116.152077,30.2530537 C116.152077,26.058321 118.333868,23.355945 121.44494,23.355945 C124.657021,23.355945 126.677198,25.977653 126.677198,30.2530537 L126.677198,30.2732207 C126.677198,34.4881204 124.657021,37.1299954 121.44494,37.1299954 Z M138.919469,40.9415555 L138.919469,11.8405969 L133.889229,11.8405969 L133.889229,40.9415555 L138.919469,40.9415555 Z M151.323354,41.3650621 C156.919243,41.3650621 160.070719,38.0576767 160.737377,34.7704582 L160.797982,34.5486214 L156.090971,34.5486214 L156.050567,34.6897903 C155.565725,36.1216462 153.929382,37.4526672 151.424362,37.4526672 C148.151676,37.4526672 146.091096,35.2342989 146.010289,31.4832398 L161,31.4832398 L161,29.869881 C161,23.416446 157.202068,19.1208783 151.080932,19.1208783 C144.959797,19.1208783 141.020452,23.5576149 141.020452,30.2933877 L141.020452,30.3135547 C141.020452,37.1098284 144.899192,41.3650621 151.323354,41.3650621 Z M156.111172,28.1355204 L146.070894,28.1355204 C146.474929,24.8483019 148.474904,23.0534403 151.141538,23.0534403 C153.808171,23.0534403 155.747541,24.747467 156.111172,28.1355204 Z" id="Apple"></path>
        </g>
    </g>
</svg>