<?xml version="1.0" encoding="UTF-8"?>
<svg width="115px" height="32px" viewBox="0 0 115 32" version="1.1" xmlns="http://www.w3.org/2000/svg" xmlns:xlink="http://www.w3.org/1999/xlink">
    <title>azure</title>
    <g id="Page-1" stroke="none" stroke-width="1" fill="none" fill-rule="evenodd" fill-opacity="0.85">
        <g id="App-Development" transform="translate(-135.000000, -5472.000000)" fill="#000000" fill-rule="nonzero">
            <g id="azure" transform="translate(135.000000, 5472.000000)">
                <path d="M58.3632106,15.3829959 L56.5206899,15.3829959 L56.5206899,8.20462479 C56.51127,7.49444875 56.5381166,6.78403771 56.6007585,6.07644669 C56.541092,6.43092997 56.4328484,6.775539 56.279071,7.1005854 L52.9044132,15.4497364 L51.619547,15.4497364 L48.2394728,7.18401111 L47.9177853,6.07080664 C47.9978539,6.54386566 47.9978539,7.25286669 47.9978539,8.27865042 L47.9978539,15.4664216 L46.2297499,15.4664216 L46.2297499,4.34730198 L48.8809639,4.34730198 L51.8557495,11.75762 L52.3373388,13.0195807 C52.4593755,12.560214 52.6204903,12.112083 52.8189281,11.6800694 L55.8718984,4.26975132 L58.4435147,4.26975132 L58.3632106,15.3829959 Z M61.817937,5.76483404 C61.5170577,5.78067928 61.2240594,5.66564591 61.0146601,5.44946135 C60.7989458,5.2788499 60.6790783,5.01470766 60.6929726,4.74069533 C60.6623581,4.46339297 60.7855225,4.19173066 61.0146601,4.0319293 C61.243842,3.84737746 61.5241781,3.73731535 61.817937,3.71655661 C62.1188164,3.70071137 62.4118146,3.81574474 62.6212139,4.0319293 C62.8369282,4.20254075 62.9567957,4.46668299 62.9429014,4.74069533 C62.9735159,5.01799768 62.8503515,5.28965999 62.6212139,5.44946135 C62.4118146,5.66564591 62.1188164,5.78067928 61.817937,5.76483404 L61.817937,5.76483404 Z M62.701047,15.3829959 L60.8528744,15.3829959 L60.8528744,7.42159813 L62.701047,7.42159813 L62.701047,15.3829959 Z M70.9744927,15.0697382 C70.3311176,15.4631315 69.5280762,15.6266929 68.6447307,15.6266929 C67.4399332,15.6266929 66.4748705,15.2332996 65.7516623,14.5226535 C65.0284541,13.8120075 64.6361177,12.8677695 64.6361177,11.6838294 C64.6361177,10.344318 65.0376384,9.31829926 65.8409153,8.52963255 C66.6441922,7.74096585 67.6890879,7.3475725 69.0537873,7.3475725 C69.7164541,7.34772142 70.3722539,7.48153183 70.9817931,7.74096585 L70.9817931,9.39232489 C70.4683299,9.0114166 69.8527725,8.79182545 69.2136891,8.76157953 C68.4130027,8.76157953 67.7672726,8.99728653 67.2856833,9.55001123 C66.7911345,10.1125528 66.5322084,10.8432776 66.562475,11.5910036 C66.562475,12.3794353 66.8040939,13.0879663 67.2854478,13.5614954 C67.7818734,14.0347894 68.4473851,14.2900016 69.1336204,14.2702614 C69.8146749,14.2613313 70.4700603,14.0098792 70.9817931,13.5614954 L70.9817931,15.0702082 L70.9744927,15.0697382 Z M77.4821893,9.1582629 C77.1908808,8.98788645 76.856241,8.90610576 76.5166557,8.9225559 C75.9585302,8.9225559 75.5511221,9.1582629 75.1500724,9.63132193 C74.7490227,10.1043809 74.5919469,10.7445264 74.5919469,11.6018137 L74.5919469,15.3869909 L72.7437742,15.3869909 L72.7437742,7.42159813 L74.5919469,7.42159813 L74.5919469,9.07648221 C74.7438424,8.57028876 75.0198519,8.10989158 75.3949882,7.73697081 C75.7463483,7.42042312 76.2065075,7.25098668 76.6798544,7.26391179 C76.9298623,7.26033142 77.1773345,7.31428958 77.4030627,7.42159813 L77.4821893,9.1582629 Z M82.3805063,15.6259879 C81.09564,15.6259879 80.1308129,15.2325946 79.4057207,14.5219485 C78.6806285,13.8113025 78.2901761,12.7871638 78.2901761,11.6079237 C78.2901761,10.2684123 78.6916968,9.24239362 79.4949737,8.45372691 C80.2982506,7.6650602 81.3431463,7.34052244 82.6277771,7.34052244 C83.9124078,7.34052244 84.8774704,7.73391579 85.6025626,8.45372691 C86.3276548,9.17353803 86.638274,10.1828716 86.638274,11.522383 C86.6721855,12.6515676 86.2732552,13.751142 85.5227295,14.5966792 C84.6247832,15.2899351 83.515597,15.6541882 82.3805063,15.630688 L82.3805063,15.6259879 Z M82.4605749,8.68872891 C81.7379162,8.68872891 81.1758657,8.92498425 80.7744235,9.39749494 C80.3729028,9.87055396 80.1310484,10.579555 80.1310484,11.4384873 C80.1310484,12.2974196 80.3726673,12.93545 80.7744235,13.4089791 C81.1761797,13.8825081 81.7399571,14.1177451 82.4605749,14.1177451 C83.1811927,14.1177451 83.7454411,13.8820381 84.1467263,13.4089791 C84.5480115,12.93592 84.7048518,12.3049397 84.7048518,11.3679867 C84.7048518,10.5015343 84.5447145,9.7934733 84.1467263,9.32699434 C83.692522,8.89891122 83.0846108,8.67153921 82.4603394,8.69624897 L82.4605749,8.68872891 Z M87.9250242,15.1472888 L87.9250242,13.4881747 C88.647997,13.9612338 89.3714407,14.2766064 90.1747176,14.2766064 C91.2988185,14.2766064 91.860869,13.9612338 91.860869,13.3304884 C91.844294,13.1626887 91.7895213,13.0008858 91.7007317,12.8574294 C91.6051203,12.7112581 91.4640582,12.6005722 91.299211,12.5420567 C91.1195275,12.4494659 90.9330147,12.3705052 90.7410855,12.3063497 L90.0181127,12.0706427 C89.7172359,11.9545698 89.4224835,11.8232683 89.1350027,11.6772493 C88.9067633,11.5391336 88.6914372,11.3808093 88.4916276,11.2041903 C88.3129085,11.0259861 88.1758073,10.810615 88.0901069,10.5734449 C87.9907736,10.3220584 87.9366441,10.0551607 87.9302051,9.78501323 C87.9246142,9.42894516 88.0076336,9.07705496 88.171824,8.76087452 C88.3273407,8.45103824 88.5817852,8.20167494 88.8950323,8.05210849 C89.2167198,7.81640149 89.5384074,7.73673581 89.939928,7.57904947 C90.3354971,7.48786881 90.7389728,7.4350611 91.1447256,7.42136313 C91.828108,7.39781717 92.5097006,7.50486283 93.1528,7.73673581 L93.1528,9.31594924 C92.5853018,8.93158072 91.9102898,8.73666818 91.2247942,8.75922951 C91.0072435,8.74093734 90.7882476,8.7674945 90.5814192,8.83725017 C90.4212819,8.91527083 90.2597316,8.91527083 90.0998298,8.99470151 C89.9568838,9.05580203 89.8421972,9.16860299 89.7781423,9.31007419 C89.7136164,9.43063022 89.6858279,9.56740138 89.6980736,9.70346754 C89.6851964,9.86531023 89.7126213,10.0278193 89.7779068,10.1765266 C89.8416122,10.3182551 89.9564611,10.4308494 90.0995943,10.4918992 C90.2792778,10.58449 90.4657906,10.6634507 90.6577199,10.7276063 C90.8993388,10.8056269 91.0592406,10.8850576 91.3806926,10.9633133 C91.6864529,11.1276373 92.0086487,11.2594904 92.3419873,11.3567066 C92.6636748,11.4347273 92.8235766,11.6720793 93.06496,11.8297656 C93.244269,12.0250524 93.405459,12.2361657 93.5465494,12.460511 C93.6455107,12.73906 93.6995616,13.0315123 93.7066867,13.3269634 C93.7066867,13.7203567 93.626618,14.1153951 93.3849991,14.3511021 C93.2085073,14.6464114 92.9604678,14.8927185 92.6636748,15.0673882 C92.3045022,15.2533219 91.9315588,15.4114727 91.5481303,15.5404472 C90.3317934,15.8468898 89.0457497,15.7065936 87.9243177,15.1451738 L87.9250242,15.1472888 Z M99.0953063,15.6259879 C97.81044,15.6259879 96.8456129,15.2325946 96.1205207,14.5219485 C95.3954285,13.8113025 95.0049761,12.7871638 95.0049761,11.6079237 C95.0049761,10.2684123 95.4064968,9.24239362 96.2097737,8.45372691 C97.0130506,7.6650602 98.0579464,7.34052244 99.3425771,7.34052244 C100.627208,7.34052244 101.59227,7.73391579 102.317363,8.45372691 C103.042455,9.17353803 103.362258,10.1885117 103.362258,11.5280231 C103.39617,12.6572077 102.99724,13.756782 102.246714,14.6023192 C101.336693,15.2854441 100.224496,15.6464682 99.0858864,15.6283379 L99.0953063,15.6259879 Z M99.1753749,8.68872891 C98.4527162,8.68872891 97.8906657,8.92498425 97.4892235,9.39749494 C97.0877028,9.87055396 96.8458484,10.579555 96.8458484,11.4384873 C96.8458484,12.2974196 97.0874673,12.93545 97.4892235,13.4089791 C97.8909797,13.8825081 98.4547571,14.1177451 99.1753749,14.1177451 C99.8959927,14.1177451 100.460241,13.8820381 100.861526,13.4089791 C101.262811,12.93592 101.419652,12.3049397 101.419652,11.3679867 C101.419652,10.5015343 101.259515,9.7934733 100.861526,9.32699434 C100.408547,8.89316365 99.7988234,8.66087463 99.1713715,8.68308886 L99.1753749,8.68872891 Z M109.693333,5.13549868 C109.427269,4.97506437 109.121021,4.89332495 108.810223,4.89979168 C107.927113,4.89979168 107.44364,5.3728507 107.44364,6.39675441 L107.44364,7.50126381 L109.291812,7.50126381 L109.291812,8.92067588 L107.44364,8.92067588 L107.44364,15.4683016 L105.603003,15.4683016 L105.603003,8.91879586 L104.23642,8.91879586 L104.23642,7.49938379 L105.603003,7.49938379 L105.603003,6.23742306 C105.603003,5.37097069 105.844622,4.74046032 106.403689,4.2669313 C107.295179,3.58420962 108.46358,3.37648944 109.536493,3.70997656 L109.536493,5.12938863 L109.690743,5.12938863 L109.693333,5.13549868 Z M115,15.3047402 C114.67894,15.4618782 114.196802,15.5404472 113.553584,15.5404472 C111.947501,15.5404472 111.223822,14.8316812 111.223822,13.3326034 L111.223822,8.8410102 L109.857238,8.8410102 L109.857238,7.42159813 L111.223822,7.42159813 L111.223822,5.6073827 L113.071994,5.13432367 L113.071994,7.4998538 L115,7.4998538 L115,8.91926587 L113.071994,8.91926587 L113.071994,12.8672995 C113.046317,13.2252532 113.130603,13.5825124 113.313613,13.8914382 C113.47375,14.1271452 113.795202,14.2068108 114.196723,14.2068108 C114.482729,14.2108621 114.762792,14.125211 114.99741,13.9619388 L114.99741,15.3014502 L115,15.3047402 Z M57.4909334,31.7548801 L55.4011418,31.7548801 L54.3562461,28.917936 L49.8568594,28.917936 L48.8913258,31.7567601 L46.8034182,31.7567601 L51.061186,20.6411656 L53.1453256,20.6411656 L57.4909334,31.7548801 Z M53.8746567,27.4190932 L52.268574,23.0052857 C52.1979696,22.7732521 52.1445254,22.5363605 52.1086722,22.2965197 C52.0728189,22.5363605 52.0193748,22.7732521 51.9487704,23.0052857 L50.4222853,27.4190932 L53.8746567,27.4190932 Z M64.8110912,24.576274 L60.4716063,30.327948 L64.8094428,30.327948 L64.8094428,31.74736 L57.8929251,31.74736 L57.8929251,31.0517541 L62.3941957,25.2128945 L58.3782824,25.2128945 L58.3782824,23.7934824 L64.8857435,23.7934824 L64.8857435,24.5765091 L64.8110912,24.576274 Z M73.4773443,31.7548801 L71.6291716,31.7548801 L71.6291716,30.4952694 C71.1412058,31.4069687 70.1726789,31.9587819 69.1378594,31.9146815 C67.2098536,31.9146815 66.2447909,30.8106421 66.2447909,28.5250126 L66.2447909,23.7930124 L68.0929636,23.7930124 L68.0929636,28.3647413 C68.0929636,29.7835267 68.6550141,30.4929194 69.779115,30.4929194 C70.2939618,30.5137177 70.7925298,30.3106107 71.1456983,29.9361996 C71.5067103,29.4895159 71.7035902,28.9329564 71.7035883,28.3591012 L71.7035883,23.7930124 L73.549877,23.7930124 L73.4773443,31.7548801 Z M80.5478763,25.5280321 C80.2565678,25.3576557 79.921928,25.275875 79.5823427,25.2923251 C79.0242172,25.2923251 78.6168091,25.5280321 78.2157594,26.0010912 C77.8147097,26.4741502 77.6576339,27.1142956 77.6576339,27.9715829 L77.6576339,31.7565251 L75.8094612,31.7565251 L75.8094612,23.7930124 L77.6576339,23.7930124 L77.6576339,25.4478965 C77.8095294,24.941703 78.0855389,24.4813058 78.4606752,24.1083851 C78.8087383,23.7948924 79.2613617,23.625691 79.7323537,23.635326 C79.9823615,23.6317457 80.2298337,23.6857038 80.4555619,23.7930124 L80.5478763,25.5280321 Z M88.7417244,28.2869556 L83.1993259,28.2869556 C83.1993259,28.9957216 83.4409448,29.626467 83.9222986,30.0217404 C84.3238193,30.4151337 84.9671944,30.6524857 85.7704713,30.6524857 C86.6426046,30.6717448 87.4952431,30.393627 88.1876023,29.864054 L88.1876023,31.2834661 C87.4588206,31.7597368 86.492031,31.9978722 85.2872335,31.9978722 C84.2358285,32.0330947 83.2172292,31.6297284 82.4761176,30.8846677 C81.7531449,30.1759017 81.4312219,29.149883 81.4312219,27.8103716 C81.3931973,26.7039239 81.7940541,25.6271659 82.5467664,24.8138611 C83.2677235,24.0315478 84.2932516,23.5997183 85.3578823,23.630156 C86.4734268,23.630156 87.2858881,23.9455287 87.9294986,24.6542947 C88.5731092,25.3630607 88.8126087,26.3091788 88.8126087,27.5683195 L88.7417244,28.2869556 Z M86.9736204,27.0249949 C86.9736204,26.3942495 86.8134831,25.8429348 86.492031,25.5280321 C86.1804676,25.1442911 85.7008661,24.9363968 85.2071648,24.9710774 C84.692318,24.9502791 84.19375,25.1533861 83.8405815,25.5277971 C83.4390608,25.9211905 83.282456,26.3942495 83.1972064,27.0247599 L86.9736204,27.0249949 Z" id="Shape"></path>
                <path d="M25.1462635,4.75315043 L19.1552451,16.7939479 L29.7054662,28.9933716 L10.1286832,31.2110855 L40.506255,31.5283382 L25.1462635,4.75315043 Z M23.96478,0 L10.2104003,11.4864277 L0,28.6768239 L8.69145109,27.8073165 L23.96478,0 Z" id="Shape"></path>
            </g>
        </g>
    </g>
</svg>