<?xml version="1.0" encoding="UTF-8"?>
<svg width="30px" height="30px" viewBox="0 0 30 30" version="1.1" xmlns="http://www.w3.org/2000/svg" xmlns:xlink="http://www.w3.org/1999/xlink">
    <title>c11</title>
    <g id="c11" stroke="none" stroke-width="1" fill="none" fill-rule="evenodd" fill-opacity="0.85">
        <g id="iconfinder_Compass-01_1976058" transform="translate(4.000000, 4.000000)" fill="#000000" fill-rule="nonzero">
            <path d="M11.5,0 C5.1594066,0 0,5.15831995 0,11.5 C0,17.8416801 5.1594066,23 11.5,23 C17.8405934,23 23,17.8416801 23,11.5 C23,5.15831995 17.8405934,0 11.5,0 Z M11.5,21.7221015 C5.86355476,21.7221015 1.27789852,17.1364452 1.27789852,11.5 C1.27789852,5.86355476 5.86355476,1.27789852 11.5,1.27789852 C17.1364452,1.27789852 21.7221015,5.86355476 21.7221015,11.5 C21.7221015,17.1364452 17.1364452,21.7221015 11.5,21.7221015 Z" id="Shape"></path>
            <path d="M16.2453936,5.93201361 L9.01700841,8.64320136 C8.84423131,8.70731362 8.70840026,8.84423131 8.64320136,9.01700841 L5.93201361,16.2453936 C5.84399509,16.4801096 5.90158745,16.7441652 6.07871114,16.9212889 C6.20041576,17.0429935 6.36341302,17.1081924 6.53075687,17.1081924 C6.60573561,17.1081924 6.68288765,17.0951526 6.75569309,17.0679864 L13.9840782,14.3567986 C14.1557687,14.2915997 14.2926864,14.1557687 14.3578853,13.9829916 L17.069073,6.75460644 C17.1570916,6.51989039 17.0994992,6.25583483 16.9223755,6.07871114 C16.7452518,5.90158745 16.4801096,5.84508173 16.2453936,5.93201361 Z M13.2625437,13.2625437 L7.62175187,15.3771615 L9.73636965,9.73636965 L15.3771615,7.62175187 L13.2625437,13.2625437 Z" id="Shape"></path>
        </g>
    </g>
</svg>