<?xml version="1.0" encoding="UTF-8"?>
<svg width="30px" height="30px" viewBox="0 0 30 30" version="1.1" xmlns="http://www.w3.org/2000/svg" xmlns:xlink="http://www.w3.org/1999/xlink">
    <title>c4</title>
    <g id="c4" stroke="none" stroke-width="1" fill="none" fill-rule="evenodd">
        <g id="iconfinder_web-development-website-20_3830825" transform="translate(4.000000, 6.000000)">
            <g id="Group">
                <path d="M21.8326879,18 L1.16726365,18 C0.522583077,18 0,17.463233 0,16.8010546 L0,1.19894537 C0,0.536766962 0.522583077,0 1.16726365,0 L21.8327364,0 C22.4774169,0 23,0.536766962 23,1.19894537 L23,16.8010546 C23,17.463233 22.4773685,18 21.8326879,18 Z" id="Path" stroke-opacity="0.85" stroke="#000000" stroke-width="1.2" stroke-linecap="round" stroke-linejoin="round"></path>
                <line x1="1.57622486" y1="3.90709511" x2="21.4237267" y2="3.90709511" id="Path" stroke-opacity="0.85" stroke="#000000" stroke-width="1.2" stroke-linecap="round" stroke-linejoin="round"></line>
                <ellipse id="Oval" fill-opacity="0.85" fill="#000000" fill-rule="nonzero" cx="2.00664152" cy="1.84209898" rx="1" ry="1"></ellipse>
                <ellipse id="Oval" fill-opacity="0.85" fill="#000000" fill-rule="nonzero" cx="3.70874158" cy="1.84209898" rx="1" ry="1"></ellipse>
                <ellipse id="Oval" fill-opacity="0.85" fill="#000000" fill-rule="nonzero" cx="5.41089008" cy="1.84209898" rx="1" ry="1"></ellipse>
            </g>
            <g id="Group" transform="translate(4.672818, 9.975848)" stroke="#000000" stroke-linecap="round" stroke-linejoin="round" stroke-opacity="0.85" stroke-width="1.2">
                <path d="M14.0202404,7.83028082 C14.0955525,7.66925073 14.1377369,7.48881943 14.1377369,7.29828954 L14.1377369,7.22317202 C14.1377369,6.54378125 13.6014959,5.99298571 12.9400578,5.99298571 L12.9400094,5.99298571 C11.8730003,5.99298571 11.3386482,4.66793244 12.0931245,3.89292851 L12.0931245,3.89292851 C12.560834,3.41252456 12.560834,2.63364038 12.0931245,2.15318669 L12.041399,2.10005721 C11.5736895,1.61965327 10.8153387,1.61965327 10.3476292,2.10005721 C9.59315296,2.8750114 8.30306533,2.32615599 8.30306533,1.2301863 L8.30306533,1.2301863 C8.30306533,0.550795533 7.76687282,0 7.10538629,0 L7.03225372,0 C6.37081562,0 5.83457467,0.550795533 5.83457467,1.2301863 L5.83457467,1.23023605 C5.83457467,2.32620574 4.54448705,2.87506115 3.79001076,2.10010696 L3.79001076,2.10010696 C3.32230133,1.61970301 2.56395046,1.61970301 2.09624103,2.10010696 L2.04451548,2.15323644 C1.57680605,2.63364038 1.57680605,3.41257431 2.04451548,3.89297825 L2.04456391,3.89297825 C2.7990402,4.66793244 2.26468811,5.99303546 1.19767905,5.99303546 L1.19767905,5.99303546 C0.536240948,5.99303546 0,6.54378125 0,7.22322176 L0,7.29833929 C0,7.48886917 0.0421844171,7.66925073 0.117496436,7.83028082" id="Path"></path>
                <path d="M4.61326073,7.83023107 C4.56860627,7.63721385 4.54429332,7.43608792 4.54429332,7.22904213 C4.54429332,5.7968842 5.67460322,4.63594531 7.06886844,4.63594531 C8.46313365,4.63594531 9.59344355,5.79693394 9.59344355,7.22904213 C9.59344355,7.43608792 9.5691306,7.63721385 9.52447614,7.83023107" id="Path"></path>
            </g>
        </g>
    </g>
</svg>