<?xml version="1.0" encoding="UTF-8"?>
<svg width="30px" height="30px" viewBox="0 0 30 30" version="1.1" xmlns="http://www.w3.org/2000/svg" xmlns:xlink="http://www.w3.org/1999/xlink">
    <title>c5</title>
    <g id="c5" stroke="none" stroke-width="1" fill="none" fill-rule="evenodd" fill-opacity="0.85">
        <g id="iconfinder_task_todo_ok_validated_2723890" transform="translate(7.000000, 3.000000)" fill="#000000" fill-rule="nonzero" stroke="#FFFFFF" stroke-width="0.2">
            <path d="M15.7261024,3.41782093 L14.3467438,3.41782093 L14.3994743,3.26731393 C14.4815115,3.04160676 14.4462678,2.78981953 14.3057791,2.5930191 C14.1651824,2.39771199 13.9367196,2.28048507 13.6936304,2.28048507 L11.7050915,2.28048507 L11.0519781,0.489067753 C10.9436026,0.195360434 10.6624092,0 10.3461882,0 L6.65095133,0 C6.33473025,0 6.05062242,0.196800437 5.9452154,0.490507757 L5.29501649,2.28048507 L3.30647757,2.28048507 C3.06338835,2.28048507 2.83497947,2.39771199 2.69432883,2.5930191 C2.55378613,2.7897662 2.51859648,3.04016676 2.59766524,3.26731393 L2.65331022,3.41782093 L1.2739516,3.41782093 C0.571076167,3.41782093 0,3.98214218 0,4.67958373 L0,22.7411172 C0,23.4356254 0.571076167,24 1.2739516,24 L15.7260484,24 C16.4289238,24 17,23.4356254 17,22.7411172 L17,4.67958373 C17,3.98214218 16.4289778,3.41782093 15.7261024,3.41782093 Z M5.82215957,3.76219503 C6.13838065,3.76219503 6.419574,3.56544792 6.52794948,3.27168727 L7.17809441,1.48170996 L9.81974671,1.48170996 L10.4721045,3.27312727 C10.58048,3.56688793 10.8616193,3.76219503 11.1778944,3.76219503 L12.6334613,3.76219503 L12.123913,5.19190487 L4.87322647,5.19190487 L4.36367821,3.76219503 L5.82215957,3.76219503 L5.82215957,3.76219503 Z M15.500608,22.51829 L1.49944599,22.51829 L1.49944599,4.89958422 L3.1804533,4.89958422 L3.63435658,6.1786804 C3.73981758,6.47532106 4.0239254,6.67350816 4.34316891,6.67350816 L12.6539166,6.67350816 C12.9701917,6.67350816 13.2542995,6.47526772 13.3597065,6.1786804 L13.8165782,4.89958422 L15.500608,4.89958422 L15.500608,22.51829 L15.500608,22.51829 Z M11.9335003,11.8379463 L7.65838992,16.0617957 L5.06655364,13.49907 C4.77370237,13.2096827 4.29923582,13.2096827 4.00638455,13.49907 C3.71347931,13.7885106 3.71347931,14.2573117 4.00638455,14.5467523 L7.12833237,17.6332125 C7.26887507,17.7720928 7.45923379,17.8502263 7.65838992,17.8502263 C7.85754606,17.8502263 8.04790478,17.7720928 8.18844748,17.6332125 L12.9936154,12.8855753 C13.2865207,12.5961347 13.2865207,12.1272803 12.9936154,11.837893 C12.7008181,11.548559 12.2263516,11.548559 11.9335003,11.8379463 Z" id="Shape"></path>
        </g>
    </g>
</svg>