<?xml version="1.0" encoding="UTF-8"?>
<svg width="30px" height="30px" viewBox="0 0 30 30" version="1.1" xmlns="http://www.w3.org/2000/svg" xmlns:xlink="http://www.w3.org/1999/xlink">
    <title>c7</title>
    <g id="c7" stroke="none" stroke-width="1" fill="none" fill-rule="evenodd" fill-opacity="0.85">
        <g id="iconfinder_Image-01_1976052" transform="translate(5.000000, 5.000000)" fill="#000000" fill-rule="nonzero">
            <path d="M17.485,0 L3.015,0 C1.353,0 0,1.352 0,3.015 L0,17.486 C0,19.148 1.352,20.501 3.015,20.501 L17.486,20.501 C19.148,20.501 20.501,19.149 20.501,17.486 L20.501,3.015 C20.5,1.352 19.148,0 17.485,0 Z M19.294,17.485 C19.294,18.482 18.483,19.294 17.485,19.294 L3.015,19.294 C2.018,19.294 1.206,18.483 1.206,17.485 L1.206,15.304 L6.072,9.897 L12.645,15.872 L16.28,12.843 L19.295,15.355 L19.295,17.485 L19.294,17.485 Z M19.294,13.786 L16.279,11.274 L12.678,14.274 L5.987,8.19 L1.206,13.502 L1.206,3.015 C1.206,2.018 2.017,1.206 3.015,1.206 L17.486,1.206 C18.483,1.206 19.295,2.017 19.295,3.015 L19.295,13.786 L19.294,13.786 Z" id="Shape"></path>
            <path d="M14.471,9.044 C16.133,9.044 17.486,7.692 17.486,6.029 C17.486,4.366 16.134,3.014 14.471,3.014 C12.809,3.014 11.456,4.366 11.456,6.029 C11.456,7.692 12.808,9.044 14.471,9.044 Z M14.471,4.221 C15.468,4.221 16.28,5.032 16.28,6.03 C16.28,7.028 15.469,7.839 14.471,7.839 C13.473,7.839 12.662,7.028 12.662,6.03 C12.662,5.032 13.473,4.221 14.471,4.221 Z" id="Shape"></path>
        </g>
    </g>
</svg>