<?xml version="1.0" encoding="UTF-8"?>
<svg width="30px" height="30px" viewBox="0 0 30 30" version="1.1" xmlns="http://www.w3.org/2000/svg" xmlns:xlink="http://www.w3.org/1999/xlink">
    <title>Reporting</title>
    <g id="Reporting" stroke="none" stroke-width="1" fill="none" fill-rule="evenodd">
        <g id="iconfinder_1806469_archive_document_library_icon" transform="translate(4.000000, 4.000000)">
            <g id="Layer_1-2" transform="translate(1.375000, 0.458333)" stroke="#000000" stroke-linecap="round" stroke-linejoin="round" stroke-opacity="0.85" stroke-width="1.1">
                <polyline id="Path" points="0 8.25 3.66666667 0 14.6666667 0 18.3333333 8.25"></polyline>
                <path d="M11,8.25 C11,9.26252204 10.1791887,10.0833333 9.16666667,10.0833333 C8.15414463,10.0833333 7.33333333,9.26252204 7.33333333,8.25 L0,8.25 L0.916666667,21.0833333 L17.4166667,21.0833333 L18.3333333,8.25 L11,8.25 Z" id="Path"></path>
                <polyline id="Path" points="11.9166667 13.75 11.9166667 14.6666667 6.41666667 14.6666667 6.41666667 13.75"></polyline>
                <path d="M2.75,6.41666667 C3.33693081,5.82973535 4.13297997,5.5 4.96302583,5.5 L13.3703075,5.5 C14.2003534,5.5 14.9964025,5.82973535 15.5833333,6.41666667" id="Path"></path>
                <path d="M4.19546417,4.125 C4.71268542,3.81448431 5.30679779,3.65566216 5.90997,3.66666667 L12.4233633,3.66666667 C13.0265355,3.65566216 13.6206479,3.81448431 14.1378692,4.125" id="Path"></path>
                <path d="M5.3794675,2.10191667 C5.78950733,1.91650709 6.23569714,1.82475776 6.68562583,1.83333333 L11.6477167,1.83333333 C12.0976454,1.82475776 12.5438352,1.91650709 12.953875,2.10191667" id="Path"></path>
            </g>
            <g id="Layer_2-2">
                <rect id="Rectangle" x="0" y="0" width="22" height="22"></rect>
            </g>
        </g>
    </g>
</svg>