<?xml version="1.0" encoding="UTF-8"?>
<svg width="30px" height="30px" viewBox="0 0 30 30" version="1.1" xmlns="http://www.w3.org/2000/svg" xmlns:xlink="http://www.w3.org/1999/xlink">
    <title>Sync</title>
    <g id="Sync" stroke="none" stroke-width="1" fill="none" fill-rule="evenodd" fill-opacity="0.85">
        <g id="iconfinder_4317449_arrows_loading_refresh_reload_sync_icon" transform="translate(4.000000, 4.000000)" fill="#000000" fill-rule="nonzero" stroke="#FFFFFF" stroke-width="0.5">
            <path d="M12.0638298,1.9574761 C15.9510638,2.71917705 18.7659574,6.07962245 18.9893617,10.067351 L20.7765957,9.97773911 C20.5531915,5.13869774 17.112766,1.1509692 12.4212766,0.210044491 C8.4893617,-0.596462404 4.60212766,0.971745447 2.1893617,4.01854927 L1.87659574,1.82305828 L0.0893617021,2.09189391 L0.893617021,7.51341248 L6.25531915,6.70690559 L5.98723404,4.91466804 L3.44042553,5.31792149 C5.40638298,2.62956518 8.75744681,1.28538702 12.0638298,1.9574761 Z" id="Path"></path>
            <path d="M8.35531915,20.8207762 C9.02553191,20.9551941 9.69574468,21 10.3659574,21 C13.7170213,21 16.8893617,19.3421803 18.8553191,16.653824 L19.212766,19.0285387 L21,18.7597031 L20.1957447,13.3381845 L14.8340426,14.1446914 L15.1021277,15.9369289 L17.4702128,15.5784814 C15.5489362,18.3116437 12.1085106,19.7454337 8.75744681,19.0733446 C4.78085106,18.2668377 1.87659574,14.7271686 1.78723404,10.6946341 L0,10.7394401 C0.0446808511,15.6232874 3.57446809,19.8798515 8.35531915,20.8207762 Z" id="Path"></path>
        </g>
    </g>
</svg>