<?xml version="1.0" encoding="UTF-8"?>
<svg width="30px" height="30px" viewBox="0 0 30 30" version="1.1" xmlns="http://www.w3.org/2000/svg" xmlns:xlink="http://www.w3.org/1999/xlink">
    <title>XML</title>
    <g id="XML" stroke="none" stroke-width="1" fill="none" fill-rule="evenodd">
        <g id="iconfinder_315638_file_xml_icon-2" transform="translate(3.000000, 9.000000)" fill-rule="nonzero">
            <g id="iconfinder_315638_file_xml_icon">
                <path d="M2.37447792,0 C1.06308998,0 0,1.0638446 0,2.35420191 L0,10.6457981 C0,11.9459879 1.07421875,13 2.37447792,13 L22.625522,13 C23.93691,13 25,11.9361554 25,10.6457981 L25,2.35420191 C25,1.05401211 23.9257812,0 22.625522,0 L2.37447792,0 L2.37447792,0 Z" id="file-xml-path" stroke-opacity="0.85" stroke="#000000" stroke-width="1.18342152"></path>
                <polygon id="file-xml-path" fill-opacity="0.85" fill="#000000" points="4.76190476 6.5 2.38095238 2.36363636 3.57142857 2.36363636 5.35714286 5.46590909 7.14285714 2.36363636 8.33333333 2.36363636 5.95238095 6.5 8.33333333 10.6363636 7.14285714 10.6363636 5.35714286 7.53409091 3.57142857 10.6363636 2.38095238 10.6363636"></polygon>
                <polygon id="file-xml-path" fill-opacity="0.85" fill="#000000" points="12.5 5.90909091 10.7142857 2.36363636 10.1190476 2.36363636 9.52380952 2.36363636 9.52380952 10.6363636 10.7142857 10.6363636 10.7142857 4.72727273 11.9047619 7.09090909 12.5 7.09090909 13.0952381 7.09090909 14.2857143 4.72727273 14.2857143 10.6363636 15.4761905 10.6363636 15.4761905 2.36363636 14.8809524 2.36363636 14.2857143 2.36363636"></polygon>
                <polygon id="file-xml-path" fill-opacity="0.85" fill="#000000" points="22.6190476 9.45454545 22.6190476 10.6363636 16.6666667 10.6363636 16.6666667 2.36363636 17.8571429 2.36363636 17.8571429 9.45454545"></polygon>
            </g>
        </g>
    </g>
</svg>