<?xml version="1.0" encoding="UTF-8"?>
<svg width="30px" height="30px" viewBox="0 0 30 30" version="1.1" xmlns="http://www.w3.org/2000/svg" xmlns:xlink="http://www.w3.org/1999/xlink">
    <title>export</title>
    <g id="export" stroke="none" stroke-width="1" fill="none" fill-rule="evenodd" fill-opacity="0.85">
        <g id="iconfinder_1489952_export_share_cloud_network_sharing_icon" transform="translate(6.000000, 4.000000)" fill="#000000" fill-rule="nonzero">
            <path d="M9.69230631,14.4375002 L9.69230631,2.34716799 L12.6643629,5.29858326 C12.9347956,5.56713794 13.3728966,5.56713794 13.6433292,5.29858326 C13.9137617,5.03002858 13.9137618,4.59496993 13.6433292,4.32641539 L9.48948162,0.201416215 C9.21904892,-0.0671387384 8.78094789,-0.0671387384 8.51051534,0.201416215 L4.35667057,4.32641539 C4.22145429,4.46069266 4.15384546,4.63659599 4.15384546,4.81249919 C4.15384546,4.98840238 4.22145429,5.16430585 4.35667071,5.29858312 C4.6271034,5.5671378 5.06520443,5.5671378 5.33563698,5.29858312 L8.30769092,2.34716786 L8.30769092,14.4375002 C8.30769092,14.8175051 8.61733634,15.1250002 8.99999862,15.1250002 C9.38266089,15.1250002 9.69230631,14.8175051 9.69230631,14.4375002 Z" id="Path"></path>
            <path d="M16.6153846,6.8750005 L14.5384615,6.8750005 C14.1557993,6.8750005 13.8461538,7.18249559 13.8461538,7.56250047 C13.8461538,7.94250536 14.1557993,8.25000045 14.5384615,8.25000045 L16.6153846,8.25000045 L16.6153846,20.625 L1.38461538,20.625 L1.38461538,8.25000045 L3.46153846,8.25000045 C3.84420074,8.25000045 4.15384615,7.94250536 4.15384615,7.56250047 C4.15384615,7.18249559 3.84420074,6.8750005 3.46153846,6.8750005 L1.38461538,6.8750005 C0.621319154,6.8750005 0,7.49200491 0,8.25000045 L0,20.625 C0,21.383667 0.621319154,22 1.38461538,22 L16.6153846,22 C17.379357,22 18,21.383667 18,20.625 L18,8.25000045 C18,7.49200491 17.379357,6.8750005 16.6153846,6.8750005 Z" id="Path"></path>
        </g>
    </g>
</svg>