<?xml version="1.0" encoding="UTF-8"?>
<svg width="30px" height="30px" viewBox="0 0 30 30" version="1.1" xmlns="http://www.w3.org/2000/svg" xmlns:xlink="http://www.w3.org/1999/xlink">
    <title>push notifications</title>
    <g id="push-notifications" stroke="none" stroke-width="1" fill="none" fill-rule="evenodd" fill-opacity="0.85">
        <g id="iconfinder_3178363_bell_notification_ring_alarm_icon" transform="translate(5.000000, 3.000000)" fill="#000000" fill-rule="nonzero">
            <path d="M19.8198464,20.3936842 C17.5008375,18.0568421 17.5008375,15.7263158 17.5008375,13.2631579 L17.5008375,10.1052632 C17.4977279,6.87648881 15.4704673,4.00420561 12.4502736,2.94947368 C12.4795945,2.81024292 12.4963319,2.66860779 12.5002792,2.52631579 C12.5002792,1.13107011 11.380866,0 10,0 C8.61913395,0 7.49972084,1.13107011 7.49972084,2.52631579 C7.50366811,2.66860779 7.52040547,2.81024292 7.54972643,2.94947368 C4.52953268,4.00420561 2.50227211,6.87648881 2.49916253,10.1052632 L2.49916253,13.2631579 C2.49916253,15.7263158 2.49916253,18.0568421 0.180153618,20.3936842 C0.00279346483,20.5753015 -0.0489949223,20.8469071 0.0488889627,21.0821053 C0.144776918,21.317953 0.371611316,21.4724115 0.623953168,21.4736842 L7.49972084,21.4736842 C7.49972084,22.8689299 8.61913395,24 10,24 C11.380866,24 12.5002792,22.8689299 12.5002792,21.4736842 L19.3760468,21.4736842 C19.6283887,21.4724115 19.8552231,21.317953 19.951111,21.0821053 C20.0489949,20.8469071 19.9972065,20.5753015 19.8198464,20.3936842 L19.8198464,20.3936842 Z M8.74986042,2.52631579 C8.74986042,1.82869295 9.30956698,1.26315789 10,1.26315789 C10.690433,1.26315789 11.2501396,1.82869295 11.2501396,2.52631579 C11.2501396,2.56421053 11.2501396,2.59578947 11.2501396,2.63368421 C10.4395303,2.49047749 9.61047528,2.49047749 8.79986601,2.63368421 C8.74986042,2.59578947 8.74986042,2.56421053 8.74986042,2.52631579 Z M10,22.7368421 C9.30956698,22.7368421 8.74986042,22.1713071 8.74986042,21.4736842 L11.2501396,21.4736842 C11.2501396,22.1713071 10.690433,22.7368421 10,22.7368421 Z M1.9991067,20.2105263 C3.74930211,17.8610526 3.74930211,15.5305263 3.74930211,13.2631579 L3.74930211,10.1052632 C3.74930211,6.61714895 6.54783488,3.78947368 10,3.78947368 C13.4521651,3.78947368 16.2506979,6.61714895 16.2506979,10.1052632 L16.2506979,13.2631579 C16.2506979,15.5305263 16.2506979,17.8610526 18.0008933,20.2105263 L1.9991067,20.2105263 Z" id="Shape"></path>
        </g>
    </g>
</svg>