<?xml version="1.0" encoding="UTF-8"?>
<svg width="93px" height="32px" viewBox="0 0 93 32" version="1.1" xmlns="http://www.w3.org/2000/svg" xmlns:xlink="http://www.w3.org/1999/xlink">
    <title>digitalocean-ar21</title>
    <g id="Page-1" stroke="none" stroke-width="1" fill="none" fill-rule="evenodd" fill-opacity="0.85">
        <g id="App-Development" transform="translate(-317.000000, -5538.000000)" fill="#000000" fill-rule="nonzero">
            <g id="digitalocean-ar21" transform="translate(317.000000, 5538.000000)">
                <path d="M15.9798817,31.7381757 L15.9798817,25.5848634 C22.5390533,25.5848634 27.6292899,19.1247671 25.1112426,12.2688489 C24.1881657,9.74934081 22.139645,7.7164557 19.5852071,6.79874824 C12.6825444,4.31538426 6.17840237,9.35528198 6.17840237,15.8682721 L0,15.8682721 C0,5.48257415 10.1183432,-2.61370375 21.0710059,0.787367692 C25.8550296,2.28073602 29.6769231,6.05911658 31.1627219,10.8107431 C34.5869822,21.6980506 26.4337278,31.7390572 15.9798817,31.7390572 L15.9798817,31.7381757 Z" id="Path"></path>
                <path d="M15.9976331,19.4835634 L15.9976331,25.6192444 L9.82011834,25.6192444 L9.82011834,19.4835634 L15.9976331,19.4835634 Z M9.82011834,25.6192444 L9.82011834,30.3073983 L5.09112426,30.3073983 L5.09112426,25.6104288 L9.82011834,25.6192444 Z M5.09112426,25.6192444 L1.12366864,25.6192444 L1.12366864,21.6786562 L5.09112426,21.6786562 L5.09112426,25.6192444 Z" id="Shape"></path>
                <path d="M47.7106509,1.89196658 C46.308284,0.910786562 44.5153846,0.435623912 42.4739645,0.435623912 L38.0121302,0.435623912 L38.0121302,14.5230064 L42.5147929,14.5230064 C44.5544379,14.5230064 46.3313609,14.0161075 47.7514793,12.9714549 C48.516568,12.4425169 49.1218935,11.6737936 49.5683432,10.7234683 C49.9828402,9.77402458 50.2056213,8.63416316 50.2056213,7.39997445 C50.2056213,6.16578575 49.9837278,5.05766061 49.5683432,4.10821687 C49.1218935,3.15877313 48.516568,2.39798395 47.7195266,1.89196658 L47.7106509,1.89196658 Z M40.6349112,2.80879248 L42.0372781,2.80879248 C43.5994083,2.80879248 44.8739645,3.12615528 45.8538462,3.72561837 C46.9366864,4.39031714 47.4781065,5.62538741 47.4781065,7.39732976 C47.4781065,9.23362624 46.9455621,10.5312875 45.8538462,11.2277226 C44.9307692,11.8289488 43.6544379,12.1445485 42.0612426,12.1445485 L40.6269231,12.1445485 L40.6269231,2.80262153 L40.6349112,2.80879248 Z M53.2881657,0.246087789 C52.841716,0.246087789 52.4911243,0.404769194 52.1724852,0.689514159 C51.8792972,0.970939826 51.7175037,1.36102338 51.7260355,1.76590302 C51.7260355,2.20932939 51.8857988,2.55754692 52.1724852,2.87402816 C52.4591716,3.15877313 52.841716,3.31745453 53.2881657,3.31745453 C53.7029391,3.31410305 54.1012437,3.15579718 54.4038462,2.87402816 C54.6905325,2.5892832 54.8502959,2.20932939 54.8502959,1.76590302 C54.8588276,1.36102338 54.6970342,0.970939826 54.4038462,0.689514159 C54.0843195,0.404769194 53.693787,0.246087789 53.2881657,0.246087789 L53.2881657,0.246087789 Z M52.0118343,4.58337952 L54.5298817,4.58337952 L54.5298817,14.5230064 L52.0118343,14.5230064 L52.0118343,4.58337952 Z M63.6781065,5.40587813 C62.9130178,4.74117936 62.0849112,4.33037083 61.1600592,4.33037083 C59.7576923,4.33037083 58.6100592,4.80641505 57.7180473,5.75497722 C56.8260355,6.67180312 56.3476331,7.87601867 56.3476331,9.33236134 C56.3476331,10.7252314 56.7940828,11.9285654 57.6860947,12.8780092 C58.5781065,13.7948351 59.7576923,14.2708793 61.1281065,14.2708793 C62.0840237,14.2708793 62.9449704,14.0178706 63.6133136,13.4792354 L63.6133136,13.6996262 C63.6133136,14.5230064 63.3914201,15.1559689 62.9440828,15.5993953 C62.4967456,16.0428216 61.8923077,16.264094 61.1272189,16.264094 C59.9795858,16.264094 59.2455621,15.8206677 58.3544379,14.6182152 L56.6325444,16.264094 L56.664497,16.3275666 C57.0461538,16.8344655 57.587574,17.3413645 58.3535503,17.8156455 C59.0866864,18.2916898 60.0426036,18.5438169 61.158284,18.5438169 C62.6565089,18.5438169 63.8671598,18.1003905 64.7600592,17.1826831 C65.6529586,16.2649756 66.0985207,15.0616416 66.0985207,13.5735627 L66.0985207,4.55164324 L63.6133136,4.55164324 L63.6133136,5.4067597 L63.6781065,5.40587813 Z M63.0177515,11.2938398 C62.5713018,11.8007387 61.9970414,12.0220111 61.295858,12.0220111 C60.5627219,12.0220111 60.0213018,11.7690025 59.5739645,11.2938398 C59.1275148,10.7869409 58.9366864,10.1539784 58.9366864,9.35440042 C58.9366864,8.53102024 59.1585799,7.89805775 59.5739645,7.39204038 C59.9893491,6.88602301 60.5946746,6.66386905 61.295858,6.66386905 C62.0289941,6.66386905 62.5704142,6.91687773 63.0177515,7.39204038 C63.4642012,7.89893931 63.6869822,8.56451965 63.6869822,9.35440042 C63.6869822,10.1442812 63.4650888,10.7790068 63.0177515,11.2938398 Z M68.2988166,4.58337952 L70.8168639,4.58337952 L70.8168639,14.5230064 L68.2988166,14.5230064 L68.2988166,4.58337952 Z M69.5742604,0.246087789 C69.1278107,0.246087789 68.7772189,0.404769194 68.4585799,0.689514159 C68.1653919,0.970939826 68.0035984,1.36102338 68.0121302,1.76590302 C68.0121302,2.20932939 68.1718935,2.55754692 68.4585799,2.87402816 C68.7452663,3.15877313 69.1278107,3.31745453 69.5742604,3.31745453 C69.9890338,3.31410305 70.3873384,3.15579718 70.6899408,2.87402816 C70.9766272,2.5892832 71.1363905,2.20932939 71.1363905,1.76590302 C71.1449223,1.36102338 70.9831288,0.970939826 70.6899408,0.689514159 C70.3704142,0.404769194 70.0207101,0.246087789 69.5742604,0.246087789 Z M76.3313609,1.89196658 L73.8461538,1.89196658 L73.8461538,4.58249795 L72.4118343,4.58249795 L72.4118343,6.86133924 L73.8461538,6.86133924 L73.8461538,10.976477 C73.8461538,12.2741383 74.1008876,13.1927273 74.6112426,13.7304809 C75.1215976,14.2682346 76.0455621,14.5221248 77.3201183,14.5221248 L78.5316568,14.4903886 L78.6594675,14.4903886 L78.6594675,12.2115473 L77.7985207,12.2432835 C77.1931953,12.2432835 76.8106509,12.1480747 76.6180473,11.9259207 C76.4254438,11.7037668 76.3313609,11.2621035 76.3313609,10.5974048 L76.3313609,6.83136609 L78.689645,6.83136609 L78.689645,4.5525248 L76.3313609,4.5525248 L76.3313609,1.89461127 L76.3313609,1.89196658 Z M90.4819527,0.404769194 L93,0.404769194 L93,14.5230064 L90.4819527,14.5230064 L90.4819527,0.404769194 Z" id="Shape"></path>
                <path d="M87.3266272,5.34152401 C86.5615385,4.70856152 85.5097633,4.36034399 84.2023669,4.36034399 C83.3733728,4.36034399 82.5781065,4.54988011 81.8769231,4.889282 C81.2076923,5.20664481 80.5704142,5.77525318 80.1550296,6.47168823 L80.1869822,6.50342452 L81.8112426,8.02323975 C82.4804734,6.97858717 83.2136095,6.59863336 84.2014793,6.59863336 C84.7340237,6.59863336 85.1573964,6.72557848 85.5079882,7.01032345 C85.8275148,7.29506841 86.0183432,7.64328594 86.0183432,8.08583075 L86.0183432,8.56187496 C85.3810651,8.37233884 84.7757396,8.27712999 84.1695266,8.27712999 C82.9269231,8.27712999 81.906213,8.56187496 81.1517751,9.13224645 C80.3973373,9.70261795 80.004142,10.5568528 80.004142,11.6332417 C80.004142,12.5826854 80.3236686,13.3108568 80.9920118,13.8812283 C81.6612426,14.4101663 82.458284,14.7046084 83.4150888,14.7046084 C84.3718935,14.7046084 85.2639053,14.3255362 86.0920118,13.6599559 L86.0920118,14.483336 L88.5772189,14.483336 L88.5772189,8.08847544 C88.4813609,6.91599617 88.097929,5.96743399 87.3346154,5.3344715 L87.3266272,5.34152401 Z M82.8647929,10.7225868 C83.1514793,10.5330506 83.5748521,10.4378418 84.0763314,10.4378418 C84.6816568,10.4378418 85.3189349,10.5647869 85.9890533,10.7860593 L85.9890533,11.7672393 C85.4565089,12.2741383 84.714497,12.527147 83.8215976,12.527147 C83.3751479,12.527147 83.0565089,12.4319381 82.8008876,12.242402 C82.5747457,12.0683354 82.4447519,11.798341 82.4502959,11.5142307 C82.4319388,11.1948396 82.5909895,10.8910703 82.8647929,10.7225868 L82.8647929,10.7225868 Z" id="A"></path>
                <path d="M60.5076923,28.1916463 C60.0612426,28.6985452 59.5846154,29.14109 59.2331361,29.3641256 C58.8816568,29.5871611 58.4360947,29.7123431 57.9266272,29.7123431 C57.1934911,29.7123431 56.5881657,29.4593344 56.1097633,28.8889629 C55.6304734,28.3600249 55.3766272,27.6230379 55.3766272,26.7996577 C55.3766272,25.9445413 55.6313609,25.2481062 56.1097633,24.7103526 C56.5881657,24.1725989 57.1926036,23.8869724 57.9266272,23.8869724 C58.7236686,23.8869724 59.5837278,24.3938713 60.3168639,25.2481062 L61.9739645,23.6657 C60.8911243,22.2728299 59.5198225,21.6081311 57.8627219,21.6081311 C56.4923077,21.6081311 55.2887574,22.11503 54.2928994,23.0962101 C53.2970414,24.0773901 52.8266272,25.3124604 52.8266272,26.7987762 C52.8266272,28.285092 53.3369822,29.5210438 54.2928994,30.5013423 C55.2807692,31.4842854 56.4585799,32 57.8609467,32 C59.6778107,32 61.1449704,31.2083561 62.1639053,29.7837497 L60.5059172,28.1916463 L60.5076923,28.1916463 Z M70.8656805,23.1905373 C70.5150888,22.6836384 70.0366864,22.3045662 69.4313609,22.0180581 C68.8260355,21.73155 68.1248521,21.5746317 67.3597633,21.5746317 C65.9573964,21.5746317 64.8097633,22.0815306 63.9497041,23.0944469 C63.1207101,24.1082448 62.6751479,25.3424335 62.6751479,26.8296309 C62.6751479,28.3494461 63.1544379,29.5836348 64.0455621,30.532197 C64.9686391,31.4816407 66.1810651,31.9568034 67.6792899,31.9568034 C69.3683432,31.9568034 70.7707101,31.2515527 71.8224852,29.9309708 L71.8863905,29.8674982 L70.2292899,28.285092 C70.0695266,28.4746281 69.8476331,28.6641642 69.6559172,28.8545819 C69.4011834,29.0749728 69.1766272,29.266272 68.9227811,29.3835199 C68.5267574,29.5777127 68.0898254,29.6753264 67.6482249,29.6682649 C66.9381657,29.6682649 66.3736686,29.4787288 65.9263314,29.0670387 C65.5118343,28.6879665 65.2571006,28.1810675 65.1931953,27.5472235 L71.8544379,27.5472235 L71.8863905,26.6303976 C71.8863905,25.9974351 71.7905325,25.3644726 71.6316568,24.7941011 C71.4727811,24.2237296 71.2171598,23.685976 70.866568,23.1808402 L70.8656805,23.1905373 Z M65.352071,25.5328512 C65.4798817,25.056807 65.7026627,24.64688 66.0213018,24.3603719 C66.3718935,24.0121544 66.8183432,23.853473 67.3278107,23.853473 C67.9331361,23.853473 68.4106509,24.0121544 68.7301775,24.3603719 C69.0305243,24.6815764 69.2106922,25.0954904 69.2405325,25.5328512 L65.3529586,25.5328512 L65.352071,25.5328512 Z" id="Shape"></path>
                <g id="A-link" transform="translate(73.200000, 21.568461)">
                    <path d="M7.32248521,0.981180019 C6.55739645,0.348217527 5.5056213,0 4.19822485,0 C3.36923077,0 2.5739645,0.189536122 1.87278107,0.528938016 C1.2035503,0.846300825 0.566272189,1.41490919 0.150887574,2.11134425 L0.182840237,2.14308053 L1.80710059,3.66289576 C2.47633136,2.61824318 3.20946746,2.23828937 4.19733728,2.23828937 C4.72988166,2.23828937 5.15325444,2.36523449 5.50384615,2.64997946 C5.82337278,2.93472442 6.01420118,3.28294195 6.01420118,3.72548676 L6.01420118,4.20153097 C5.37692308,4.01199485 4.77159763,3.91678601 4.16538462,3.91678601 C2.92278107,3.91678601 1.90207101,4.20153097 1.14763314,4.77190247 C0.393195266,5.34227396 0,6.19650885 0,7.27289772 C0,8.22234145 0.319526627,8.95051279 0.987869822,9.52088428 C1.65710059,10.0498223 2.45414201,10.3442645 3.41094675,10.3442645 C4.36775148,10.3442645 5.25976331,9.96519222 6.08786982,9.29961188 L6.08786982,10.1229921 L8.57307692,10.1229921 L8.57307692,3.72813145 C8.47721893,2.55565218 8.09378698,1.60709 7.33047337,0.974127512 L7.32248521,0.981180019 Z M2.86065089,6.36224277 C3.14733728,6.17270664 3.57071006,6.0774978 4.07218935,6.0774978 C4.67751479,6.0774978 5.3147929,6.20444292 5.98491124,6.42571533 L5.98491124,7.40689535 C5.45236686,7.91379428 4.71035503,8.16680296 3.81745562,8.16680296 C3.37100592,8.16680296 3.05236686,8.07159412 2.79674556,7.882058 C2.57060369,7.70799142 2.44060985,7.43799704 2.44615385,7.15388666 C2.42779682,6.83449559 2.58684746,6.5307263 2.86065089,6.36224277 L2.86065089,6.36224277 Z" id="A"></path>
                </g>
                <path d="M91.3579882,22.7391769 C90.647929,21.947533 89.6689349,21.5666976 88.4254438,21.5666976 C87.437574,21.5666976 86.6085799,21.8514426 86.0023669,22.4218141 L86.0023669,21.8205879 L83.5482249,21.8205879 L83.5482249,31.72936 L86.0662722,31.72936 L86.0662722,26.2522069 C86.0662722,25.4922993 86.2571006,24.8910731 86.5988166,24.4890802 C86.9405325,24.0870873 87.4278107,23.8561177 88.0970414,23.8561177 C88.6704142,23.8561177 89.0849112,24.0456538 89.4035503,24.4256076 C89.7221893,24.8055614 89.8828402,25.3424335 89.8828402,25.9771591 L89.8828402,31.7381757 L92.4008876,31.7381757 L92.4008876,25.9771591 C92.4008876,24.6160253 92.0502959,23.5087817 91.3491124,22.7479925 L91.3579882,22.7391769 Z M44.2215976,31.951514 C40.173292,31.9510273 36.8916143,28.691573 36.8911243,24.6706822 C36.8916143,20.6497915 40.173292,17.3903372 44.2215976,17.3898504 C48.2699033,17.3903372 51.5515809,20.6497915 51.552071,24.6706822 C51.5515809,28.691573 48.2699033,31.9510273 44.2215976,31.951514 L44.2215976,31.951514 Z M44.2215976,19.9622523 C41.6076923,19.9622523 39.4730769,22.0832938 39.4730769,24.6786163 C39.4730769,27.2739388 41.6085799,29.3949803 44.2215976,29.3949803 C46.8346154,29.3949803 48.9701183,27.2739388 48.9701183,24.6786163 C48.9701183,22.0832938 46.8346154,19.9622523 44.2215976,19.9622523 Z" id="Shape"></path>
            </g>
        </g>
    </g>
</svg>