<?xml version="1.0" encoding="UTF-8"?>
<svg width="30px" height="30px" viewBox="0 0 30 30" version="1.1" xmlns="http://www.w3.org/2000/svg" xmlns:xlink="http://www.w3.org/1999/xlink">
    <title>doctor</title>
    <g id="doctor" stroke="none" stroke-width="1" fill="none" fill-rule="evenodd" fill-opacity="0.85" stroke-opacity="0.85">
        <g id="iconfinder_stethoscope-doctor-checkin_1182459" transform="translate(3.000000, 4.000000)" fill="#000000" fill-rule="nonzero" stroke="#000000" stroke-width="0.5">
            <path d="M25,10.0131291 C25,8.42450766 23.6918605,7.12472648 22.0930233,7.12472648 C20.494186,7.12472648 19.1860465,8.42450766 19.1860465,10.0131291 C19.1860465,11.6017505 20.494186,12.9015317 22.0930233,12.9015317 C22.1899225,12.9015317 22.2383721,12.9015317 22.3352713,12.9015317 C22.6744186,14.297593 23.1589147,17.1859956 21.753876,19.1115974 C20.7848837,20.4113786 19.1375969,21.0853392 16.7635659,21.0853392 C14.0988372,21.0853392 12.2577519,20.4113786 11.2403101,19.0153173 C9.93217054,17.2341357 10.3682171,14.7308534 10.5620155,13.8643326 C15.9399225,13.7199125 18.6531008,9.96498906 18.6531008,2.79212254 C18.6531008,2.55142232 18.6531008,2.3107221 18.6046512,2.07002188 L20.3488372,0.7702407 L19.8643411,0 L17.6356589,1.58862144 L17.6841085,1.87746171 C17.7325581,2.16630197 17.7325581,2.50328228 17.7325581,2.79212254 C17.7325581,9.57986871 15.2616279,12.9015317 10.2228682,12.9015317 C5.18410853,12.9015317 2.71317829,9.57986871 2.71317829,2.79212254 C2.71317829,2.50328228 2.71317829,2.16630197 2.76162791,1.87746171 L2.81007752,1.58862144 L0.581395349,0 L0,0.7702407 L1.74418605,2.07002188 C1.74418605,2.3107221 1.69573643,2.55142232 1.69573643,2.79212254 C1.69573643,9.86870897 4.36046512,13.5754923 9.54457364,13.8161926 C9.30232558,14.9715536 8.96317829,17.571116 10.4166667,19.5448578 C11.627907,21.1816193 13.7596899,22 16.7151163,22 C19.4282946,22 21.3662791,21.1816193 22.5290698,19.5929978 C24.127907,17.3304158 23.6434109,14.1050328 23.255814,12.6126915 C24.2732558,12.1794311 25,11.1684902 25,10.0131291 Z M22.0930233,11.9387309 C21.0271318,11.9387309 20.1550388,11.0722101 20.1550388,10.0131291 C20.1550388,8.95404814 21.0271318,8.08752735 22.0930233,8.08752735 C23.1589147,8.08752735 24.0310078,8.95404814 24.0310078,10.0131291 C24.0310078,11.0722101 23.1589147,11.9387309 22.0930233,11.9387309 Z" id="Shape"></path>
        </g>
    </g>
</svg>