<?xml version="1.0" encoding="UTF-8"?>
<svg width="103px" height="34px" viewBox="0 0 103 34" version="1.1" xmlns="http://www.w3.org/2000/svg" xmlns:xlink="http://www.w3.org/1999/xlink">
    <title>firebase-ar21</title>
    <g id="Page-1" stroke="none" stroke-width="1" fill="none" fill-rule="evenodd">
        <g id="App-Development" transform="translate(-319.000000, -5604.000000)">
            <g id="firebase-ar21" transform="translate(319.000000, 5604.000000)">
                <g id="Group">
                    <path d="M0,27.4436731 L0.202788731,27.1553672 L9.79336799,8.68042402 L9.81361821,8.48482602 L5.5860033,0.422639425 C5.2316245,-0.252692466 4.23439682,-0.0820169737 4.11824463,0.673997878 L0,27.4436731 Z" id="Path" fill="#FFC24A" fill-rule="nonzero"></path>
                    <g id="D-link" transform="translate(0.119686, 0.126162)" fill="#FFA712" fill-rule="nonzero">
                        <path d="M0,27.0975728 L0.153309427,26.7940419 L9.64244656,8.51266023 L5.42638956,0.417696183 C5.07583155,-0.250653529 4.18587272,-0.0802689609 4.07000709,0.667890939 L0,27.0975728 Z" id="D"></path>
                    </g>
                    <g transform="translate(0.119686, 0.126162)" fill="#000000" fill-rule="nonzero" id="D">
                        <path d="M0,27.0975728 L0.153309427,26.7940419 L9.64244656,8.51266023 L5.42638956,0.417696183 C5.07583155,-0.250653529 4.18587272,-0.0802689609 4.07000709,0.667890939 L0,27.0975728 Z"></path>
                    </g>
                    <path d="M12.8956631,14.5830808 L16.0435211,11.3101842 L12.8948034,5.20756564 C12.5958261,4.62988729 11.7612688,4.62823872 11.4655392,5.20756564 L9.78314736,8.46591595 L9.78314736,8.74326363 L12.8956631,14.5830808 Z" id="Path" fill-rule="nonzero"></path>
                    <g id="C-link" transform="translate(9.813618, 4.896681)"></g>
                    <g transform="translate(0.000000, 4.896681)" fill="#000000" fill-opacity="0.75" fill-rule="nonzero" id="Combined-Shape">
                        <path d="M11.5554234,0.393797885 C11.8429383,-0.168461493 12.5489258,-0.110470615 12.8394974,0.451982712 L12.8394974,0.451982712 L15.8997637,6.36811894 L12.8394974,9.55005318 L12.831,9.535 L12.6980324,9.90265323 L0.42582768,22.3154163 L0.0918901363,22.4531204 L0,22.5469919 L9.79203071,3.55032475 L9.867,3.695 Z"></path>
                    </g>
                    <path d="M13.2887274,33.7035846 L24.3953029,27.4149685 L21.2245201,7.58344608 C21.1251794,6.96300187 20.3755393,6.71765585 19.9381537,7.16257583 L0,27.4436731 L11.0428637,33.7031967 C11.7407914,34.0987076 12.5907296,34.098891 13.2888229,33.7036816" id="Path" fill-opacity="0.85" fill="#000000" fill-rule="nonzero"></path>
                    <path d="M24.2958667,27.3624083 L21.1482952,7.68216633 C21.0499097,7.06637692 20.4261648,6.81162435 19.9921224,7.25315021 L0.12417586,27.4050771 L11.0457293,33.6017612 C11.7382485,33.9943148 12.5816892,33.9945088 13.2745905,33.602343 L24.2958667,27.3624083 Z" id="Path" fill-opacity="0.85" fill="#000000" fill-rule="nonzero"></path>
                    <path d="M13.2887274,33.5183629 C12.5914322,33.9136319 11.7406365,33.9134379 11.0427682,33.5177811 L0.0888334998,27.3483469 L0,27.4436731 L11.0428637,33.7031967 C11.740732,34.0988536 12.590668,34.0988536 13.2888229,33.7036816 L24.3953984,27.4150655 L24.3681752,27.2451658 L13.2887274,33.5183629 Z" id="Path" fill="#ECB22F" fill-rule="nonzero"></path>
                </g>
                <path d="M32.8047447,24.5313736 L30.9145303,24.5313736 L30.9145303,9.59647458 L39.4919737,9.59647458 L39.4919737,11.4316223 L32.8047447,11.4316223 L32.8047447,16.3339502 L38.8460181,16.3339502 L38.8460181,18.1293203 L32.8047447,18.1293203 L32.8047447,24.5313736 Z M42.8149388,11.7444683 C42.5544387,12.008936 42.2399324,12.1422449 41.8703611,12.1422449 C41.514771,12.1484834 41.1726231,12.0043995 40.9257834,11.7444683 C40.6708215,11.4931299 40.5291004,11.1462634 40.5339742,10.7855041 C40.5278293,10.4244982 40.6697516,10.0771392 40.9257834,9.82653997 C41.1733512,9.56769491 41.5150139,9.42381534 41.8703611,9.42876337 C42.2259512,9.42252486 42.5680991,9.56660873 42.8149388,9.82653997 C43.0699007,10.0778784 43.2116217,10.4247448 43.2067479,10.7855041 C43.2128929,11.1465101 43.0709705,11.493869 42.8149388,11.7444683 L42.8149388,11.7444683 Z M42.8149388,24.5313736 L40.9247244,24.5313736 L40.9247244,14.3106649 L42.8149388,14.3106649 L42.8149388,24.5313736 Z M46.8950486,24.5313736 L45.0037753,24.5313736 L45.0037753,14.3106649 L46.8113921,14.3106649 L46.8113921,15.9791765 L46.8929307,15.9791765 C47.0835406,15.4233643 47.4785266,14.9643086 48.0747118,14.6030845 C48.6708971,14.2418603 49.2395498,14.0601732 49.8113794,14.0601732 C50.3832089,14.0601732 50.8459673,14.1440288 51.2303638,14.3106649 L50.5102822,16.106035 C50.2635483,15.9985278 49.9278632,15.9598252 49.5042857,15.9598252 C48.8191492,15.9598252 48.2123745,16.2339686 47.6860795,16.7833303 C47.1597845,17.3326921 46.8950486,18.0519152 46.8950486,18.9420747 L46.8950486,24.5324486 L46.8950486,24.5313736 Z M56.2010452,24.8538951 C54.6804022,24.8538951 53.444615,24.3400108 52.4926246,23.3100919 C51.5406343,22.280173 51.0630507,20.9814861 51.0630507,19.409731 C51.0630507,17.9218315 51.5247502,16.6424959 52.4396775,15.5717243 C53.3546048,14.5009526 54.5575647,13.9655668 55.9839618,13.9655668 C57.4664829,13.9655668 58.6715607,14.4600999 59.5695449,15.4470159 C60.4675291,16.4339319 60.9144033,17.7551953 60.9144033,19.4108061 L60.8932245,19.7655798 L52.9511472,19.7655798 C53.0062123,20.7944236 53.3450743,21.608253 53.9677331,22.205993 C54.5512192,22.7879395 55.3386623,23.1104987 56.1565696,23.102603 C57.5120174,23.102603 58.4301216,22.518839 58.909823,21.3502358 L60.6041328,22.0597832 C60.2864498,22.8521112 59.7336812,23.5165057 58.9807723,24.0518915 C58.2278633,24.5872773 57.3023466,24.8549702 56.2063399,24.8549702 L56.2010452,24.8538951 Z M58.9119409,18.1884493 C58.8695832,17.6046852 58.6069652,17.0488731 58.12091,16.5199377 C57.6348549,15.9910023 56.9115964,15.7276097 55.9532524,15.7276097 C55.2543496,15.7276097 54.6486339,15.9501496 54.1350462,16.3941543 C53.6214585,16.838159 53.2688303,17.436974 53.0761026,18.1895244 L58.9002925,18.1895244 L58.9119409,18.1884493 Z M67.7678865,24.8538951 C67.0001524,24.8538951 66.311839,24.687259 65.7029464,24.3529116 C65.0940538,24.0185643 64.6376491,23.6025114 64.3263197,23.1015279 L64.2553705,23.1015279 L64.2553705,24.5206229 L62.4477537,24.5206229 L62.4477537,9.59647458 L64.3379681,9.59647458 L64.3379681,14.3106649 L64.2553705,15.7297598 L64.3379681,15.7297598 C64.639767,15.2287763 65.0951128,14.8116484 65.7145948,14.4783761 C66.3340768,14.1451038 67.0128597,13.9773926 67.7795349,13.9773926 C69.0820355,13.9773926 70.2151052,14.4988025 71.1490935,15.5416223 C72.0830818,16.584442 72.568078,17.8777535 72.568078,19.4118811 C72.568078,20.9460087 72.0957891,22.250071 71.1490935,23.28214 C70.2023979,24.314209 69.0809766,24.8463696 67.7795349,24.8463696 L67.7678865,24.8538951 Z M67.4502034,23.1015279 C68.3270087,23.1015279 69.0809766,22.7639553 69.7099891,22.0909603 C70.3390016,21.4179653 70.6545668,20.5235055 70.6545668,19.4108061 C70.6545668,18.2981066 70.3390016,17.4047219 69.7099891,16.7306518 C69.0809766,16.0565817 68.3259498,15.7200842 67.4502034,15.7200842 C66.5863223,15.7029002 65.7577437,16.0677856 65.1798283,16.7199011 C64.5571694,17.3971964 64.244781,18.2841307 64.244781,19.4108061 C64.244781,20.5374814 64.5561105,21.4340914 65.1798283,22.1017111 C65.8035461,22.7693307 66.5596318,23.1036781 67.4502034,23.1036781 L67.4502034,23.1015279 Z M77.5239342,24.8538951 C76.4649905,24.8538951 75.5617116,24.5313736 74.8426889,23.9153574 C74.1236662,23.2993412 73.7625664,22.4618601 73.7625664,21.442692 C73.7625664,20.3299925 74.1861438,19.4581092 75.0364756,18.8248919 C75.8868073,18.1916745 76.9341026,17.8756034 78.1815382,17.8756034 C79.2913111,17.8756034 80.2020026,18.0841673 80.9136127,18.5012952 L80.9136127,18.2088757 C80.9136127,17.4563253 80.6594662,16.8564352 80.1532912,16.404905 C79.6471161,15.9533748 79.0233983,15.7276097 78.2831967,15.7276097 C77.7346639,15.7276097 77.2380194,15.8598435 76.7932631,16.1253863 C76.3700612,16.3636308 76.0456143,16.7487442 75.8793947,17.2101339 L74.1533166,16.4597337 C74.3862842,15.8469427 74.8448068,15.2814548 75.5299433,14.76112 C76.2150798,14.2407852 77.1183587,13.9784677 78.240839,13.9784677 C79.5285144,13.9784677 80.5969886,14.3611933 81.4462614,15.1255694 C82.2955342,15.8899456 82.7201705,16.9682427 82.7201705,18.3583107 L82.7201705,24.5324486 L80.9231432,24.5324486 L80.9231432,23.1133537 L80.8405456,23.1133537 C80.0865777,24.2808818 78.9842174,24.8657209 77.5324057,24.8657209 L77.5239342,24.8538951 Z M77.8416172,23.1015279 C78.6220587,23.1015279 79.3315509,22.8058832 79.9679761,22.2145936 C80.6044012,21.6233041 80.9231432,20.9245073 80.9231432,20.1182034 C80.3894356,19.6731236 79.5888742,19.4516588 78.5193412,19.4516588 C77.601237,19.4516588 76.9097469,19.6537723 76.4438117,20.0569243 C75.9778765,20.4600762 75.7449089,20.9331079 75.7449089,21.4760192 C75.7449089,21.9770027 75.9566976,22.3726292 76.3823929,22.6650487 C76.8080883,22.9574683 77.2930844,23.1036781 77.8416172,23.1036781 L77.8416172,23.1015279 Z M88.2192648,24.8538951 C87.0967846,24.8538951 86.168091,24.5743764 85.4342431,24.0196393 C84.7192937,23.4868273 84.161567,22.7655738 83.8214719,21.9339998 L85.5157817,21.2244524 C86.0494893,22.5145387 86.9612398,23.1434557 88.2478563,23.1434557 C88.836629,23.1434557 89.3195072,23.0112219 89.6964912,22.7456791 C90.0734751,22.4801364 90.2619671,22.1328881 90.2619671,21.7028594 C90.2619671,21.0363148 89.8034445,20.5847846 88.8853404,20.3482688 L86.8521686,19.8472853 C86.2083309,19.6806491 85.5983793,19.3635029 85.0233729,18.8979968 C84.4483666,18.4324906 84.1635107,17.8261501 84.1635107,17.0219963 C84.1635107,16.1189359 84.5574377,15.3846618 85.3452918,14.8213241 C86.1331459,14.2579864 87.0681931,13.9763175 88.1514924,13.9763175 C89.0410051,13.9763175 89.8458022,14.1913319 90.5341156,14.5912587 C91.222429,14.9911854 91.7328398,15.5889254 92.0346387,16.3543766 L90.3911582,17.0424226 C90.0205279,16.1393622 89.2538527,15.687832 88.0900737,15.687832 C87.5288336,15.687832 87.0554858,15.7953392 86.6710892,16.0426058 C86.2866927,16.2898723 86.0960828,16.5984179 86.0960828,17.0015699 C86.0960828,17.585334 86.5408392,17.9820355 87.4303518,18.1905994 L89.4232837,18.6700815 C90.3678614,18.8926214 91.0667642,19.275347 91.5199921,19.8171832 C91.97322,20.3590195 92.197716,20.9718105 92.197716,21.652331 C92.197716,22.5704424 91.8270858,23.3348185 91.0879431,23.9465345 C90.3488005,24.5582504 89.3957512,24.8646459 88.2319721,24.8646459 L88.2192648,24.8538951 Z M98.2866419,24.8538951 C96.7659989,24.8538951 95.5291527,24.3400108 94.5782213,23.3100919 C93.6272899,22.280173 93.1486474,20.9814861 93.1486474,19.409731 C93.1486474,17.9218315 93.6103468,16.6424959 94.5252741,15.5717243 C95.4402014,14.5009526 96.6431614,13.9655668 98.0695585,13.9655668 C99.5520795,13.9655668 100.757157,14.4600999 101.655142,15.4470159 C102.553126,16.4339319 103,17.7551953 103,19.4108061 L103,19.7655798 L95.0579228,19.7655798 C95.11087,20.7944236 95.4518498,21.608253 96.0745087,22.205993 C96.6577346,22.7876748 97.4447447,23.1102126 98.2622862,23.102603 C99.617734,23.102603 100.535838,22.518839 101.01554,21.3502358 L102.709849,22.0597832 C102.392166,22.8521112 101.839398,23.5165057 101.086489,24.0518915 C100.33358,24.5872773 99.4080632,24.8549702 98.3120566,24.8549702 L98.2866419,24.8538951 Z M100.997538,18.1884493 C100.95518,17.6046852 100.692562,17.0488731 100.206507,16.5199377 C99.7204516,15.9910023 98.9971931,15.7276097 98.0388491,15.7276097 C97.3725545,15.715704 96.725284,15.9533726 96.2206429,16.3952293 C95.7070552,16.8403091 95.354427,17.4380491 95.1616993,18.1905994 L100.985889,18.1905994 L100.997538,18.1884493 Z" id="Shape" fill-opacity="0.85" fill="#000000" fill-rule="nonzero"></path>
            </g>
        </g>
    </g>
</svg>