<?xml version="1.0" encoding="UTF-8"?>
<svg width="154px" height="36px" viewBox="0 0 154 36" version="1.1" xmlns="http://www.w3.org/2000/svg" xmlns:xlink="http://www.w3.org/1999/xlink">
    <title>google vr</title>
    <g id="Page-1" stroke="none" stroke-width="1" fill="none" fill-rule="evenodd">
        <g id="App-Development" transform="translate(-314.000000, -5809.000000)">
            <g id="google-vr" transform="translate(314.000000, 5809.000000)">
                <path d="M127.544139,9.94461967 L129.690015,9.94461967 L133.7334,21.8442546 L134.279804,23.4687441 L134.369215,23.4687441 L134.935488,21.8442546 L139.157696,9.94461967 L141.303571,9.94461967 L135.313003,26.3589402 L133.306212,26.3589402 L127.544139,9.94461967 L127.544139,9.94461967 Z M142.754024,9.94461967 L148.287601,9.94461967 C149.19165,9.94461967 150.026157,10.1539097 150.801056,10.5625237 C151.575956,10.9711376 152.201836,11.5491768 152.668763,12.2966413 C153.135689,13.0341396 153.364185,13.8712999 153.364185,14.808122 C153.364185,15.5755189 153.195297,16.2831187 152.847585,16.9408874 C152.499874,17.5986562 152.032948,18.1467968 151.426937,18.5952755 C150.820926,19.033788 150.155307,19.3327738 149.43008,19.4922329 L149.380407,19.5619963 L154,26.2792106 L154,26.3689064 L151.71504,26.3689064 L147.264336,19.6716244 L144.681338,19.6716244 L144.681338,26.3689064 L142.763959,26.3689064 L142.763959,9.94461967 L142.754024,9.94461967 Z M148.17832,17.8577772 C148.744592,17.8577772 149.271127,17.7282167 149.767857,17.4690957 C150.264587,17.2099746 150.661972,16.8511917 150.96001,16.3827806 C151.258048,15.9143695 151.407067,15.3961274 151.407067,14.808122 C151.407067,14.2998462 151.277917,13.8214689 151.019618,13.363024 C150.761318,12.9045791 150.403672,12.5258638 149.936745,12.2368442 C149.469819,11.9478245 148.93335,11.7983316 148.327339,11.7983316 L144.691273,11.7983316 L144.691273,17.847811 L148.17832,17.847811 L148.17832,17.8577772 Z" id="_x28_product_name_here_x29_" fill-opacity="0.85" fill="#000000" fill-rule="nonzero"></path>
                <path d="M57.8329967,26.7276893 C52.7365429,26.7276893 48.4447924,22.5618205 48.4447924,17.4391971 C48.4447924,12.3165737 52.7365429,8.15070487 57.8329967,8.15070487 C60.6544253,8.15070487 62.6612161,9.25695233 64.1812111,10.7120166 L62.3929817,12.5059314 C61.3101094,11.4893796 59.8397875,10.6920842 57.8329967,10.6920842 C54.1075188,10.6920842 51.1966787,13.7018746 51.1966787,17.4391971 C51.1966787,21.1765196 54.1075188,24.18631 57.8329967,24.18631 C60.2471064,24.18631 61.6280169,23.2096231 62.512197,22.332598 C63.2374234,21.6050659 63.7043499,20.5685818 63.8931075,19.1434162 L57.8329967,19.1434162 L57.8329967,16.6020368 L66.3469556,16.6020368 C66.4363671,17.0505155 66.4860401,17.5986562 66.4860401,18.1866616 C66.4860401,20.0902045 65.9694405,22.4422262 64.3004264,24.1165467 C62.6711507,25.8207657 60.5948177,26.7276893 57.8329967,26.7276893 L57.8329967,26.7276893 Z" id="Path" fill-opacity="0.85" fill="#000000" fill-rule="nonzero"></path>
                <path d="M79.6493954,20.7479733 C79.6493954,24.18631 77.0067897,26.7276893 73.7780422,26.7276893 C70.5492947,26.7276893 67.906689,24.18631 67.906689,20.7479733 C67.906689,17.279738 70.5492947,14.7682573 73.7780422,14.7682573 C77.0067897,14.7682573 79.6493954,17.279738 79.6493954,20.7479733 Z M77.076332,20.7479733 C77.076332,18.5952755 75.5464024,17.1202789 73.7780422,17.1202789 C72.009682,17.1202789 70.4797524,18.5952755 70.4797524,20.7479733 C70.4797524,22.8807387 72.009682,24.3756677 73.7780422,24.3756677 C75.5464024,24.3756677 77.076332,22.8707725 77.076332,20.7479733 Z" id="Shape" fill-opacity="0.85" fill="#000000" fill-rule="nonzero"></path>
                <path d="M92.8226853,20.7479733 C92.8226853,24.18631 90.1800796,26.7276893 86.9513321,26.7276893 C83.71265,26.7276893 81.0799789,24.18631 81.0799789,20.7479733 C81.0799789,17.279738 83.7225846,14.7682573 86.9513321,14.7682573 C90.1800796,14.7682573 92.8226853,17.279738 92.8226853,20.7479733 Z M90.2496219,20.7479733 C90.2496219,18.5952755 88.7196923,17.1202789 86.9413975,17.1202789 C85.1730373,17.1202789 83.6431077,18.5952755 83.6431077,20.7479733 C83.6431077,22.8807387 85.1730373,24.3756677 86.9413975,24.3756677 C88.7196923,24.3657015 90.2496219,22.8707725 90.2496219,20.7479733 Z" id="Shape" fill-opacity="0.85" fill="#000000" fill-rule="nonzero"></path>
                <path d="M105.658199,15.1270402 L105.658199,25.8606305 C105.658199,30.2756542 103.065266,32.0895014 99.9954721,32.0895014 C97.1045013,32.0895014 95.3659449,30.1460936 94.7102608,28.5515027 L96.9952206,27.6047143 C97.4025395,28.5814013 98.3960003,29.7374797 99.9954721,29.7374797 C101.962524,29.7374797 103.184481,28.5116379 103.184481,26.2293796 L103.184481,25.372287 L103.085135,25.372287 C102.498993,26.0998191 101.366448,26.7276893 99.9457991,26.7276893 C96.9654168,26.7276893 94.2333996,24.1265128 94.2333996,20.7679057 C94.2333996,17.3893661 96.9654168,14.7682573 99.9457991,14.7682573 C101.366448,14.7682573 102.498993,15.4060936 103.085135,16.1037272 L103.174547,16.1037272 L103.174547,15.1270402 L105.658199,15.1270402 Z M103.363304,20.7679057 C103.363304,18.6650389 101.962524,17.1202789 100.18423,17.1202789 C98.3761311,17.1202789 96.8660707,18.6650389 96.8660707,20.7679057 C96.8660707,22.8508401 98.3761311,24.3657015 100.18423,24.3657015 C101.962524,24.3657015 103.363304,22.8508401 103.363304,20.7679057 Z" id="Shape" fill-opacity="0.85" fill="#000000" fill-rule="nonzero"></path>
                <polygon id="Path" fill-opacity="0.85" fill="#000000" fill-rule="nonzero" points="110.247987 8.78854124 110.247987 26.3689064 107.625251 26.3689064 107.625251 8.78854124"></polygon>
                <path d="M120.550176,22.7113134 L122.58677,24.0667157 C121.931086,25.0434026 120.351483,26.7177231 117.619466,26.7177231 C114.231765,26.7177231 111.787852,24.0866481 111.787852,20.7380071 C111.787852,17.1800761 114.251634,14.7582911 117.331363,14.7582911 C120.421026,14.7582911 121.941021,17.229907 122.437751,18.5653769 L122.705986,19.2430781 L114.73843,22.5518543 C115.344441,23.7477975 116.298163,24.3657015 117.629401,24.3657015 C118.960638,24.3657015 119.874622,23.7079327 120.550176,22.7113134 Z M114.291373,20.5685818 L119.616322,18.3461207 C119.318284,17.5986562 118.444039,17.0804141 117.400905,17.0804141 C116.079602,17.0804141 114.231765,18.2564249 114.291373,20.5685818 Z" id="Shape" fill-opacity="0.85" fill="#000000" fill-rule="nonzero"></path>
                <polygon id="Path" points="0 0 35.8269802 0 35.8269802 36 0 36"></polygon>
                <path d="M39.6836987,7.45794393 C38.8979838,6.56074766 37.6632891,6 36.4285943,6 L9.60204416,6 C8.36734939,6 7.24489959,6.56074766 6.34693976,7.45794393 C5.44897992,8.35514019 5,9.58878505 5,10.8224299 L5,25.1775701 C5,26.411215 5.44897992,27.6448598 6.34693976,28.5420561 C7.24489959,29.5514019 8.36734939,30 9.60204416,30 L16,30 C16.8979678,30 17.6836827,29.7757009 18.4693976,29.3271028 C19.1428674,28.8785047 19.8163373,28.2056075 20.1530722,27.4205607 L21.9489919,23.9439252 C22.1734819,23.4953271 22.5102168,23.271028 22.9591967,23.271028 C23.4081767,23.271028 23.8571566,23.4953271 23.9694016,23.9439252 L25.7653212,27.4205607 C26.1020562,28.2056075 26.775526,28.7663551 27.4489959,29.2149533 C28.1224658,29.6635514 29.0204256,29.8878505 29.8061405,29.8878505 L36.2041043,29.8878505 C37.4387991,29.8878505 38.5612489,29.3271028 39.4592087,28.4299065 C40.3571686,27.5327103 40.8061485,26.2990654 40.8061485,25.0654206 L40.8061485,10.8224299 C40.9183935,9.58878505 40.5816585,8.35514019 39.6836987,7.45794393 Z M14.8775582,21.7009346 C12.8571486,21.7009346 11.2857189,20.0186916 11.2857189,18 C11.2857189,15.9813084 12.9693936,14.411215 14.9898032,14.411215 C17.0102128,14.411215 18.5816425,16.0934579 18.5816425,18.1121495 C18.4693976,20.0186916 16.8979678,21.7009346 14.8775582,21.7009346 Z M31.2653252,21.7009346 C29.2449156,21.7009346 27.5612409,20.1308411 27.5612409,18.1121495 C27.5612409,16.0934579 29.1326706,14.411215 31.1530802,14.411215 C33.1734899,14.411215 34.8571646,15.9813084 34.8571646,18 C34.8571646,20.0186916 33.2857349,21.7009346 31.2653252,21.7009346 Z" id="Shape" fill-opacity="0.85" fill="#000000" fill-rule="nonzero"></path>
            </g>
        </g>
    </g>
</svg>