<?xml version="1.0" encoding="UTF-8"?>
<svg width="111px" height="26px" viewBox="0 0 111 26" version="1.1" xmlns="http://www.w3.org/2000/svg" xmlns:xlink="http://www.w3.org/1999/xlink">
    <title>html</title>
    <g id="Page-1" stroke="none" stroke-width="1" fill="none" fill-rule="evenodd">
        <g id="App-Development" transform="translate(-969.000000, -5151.000000)" fill-rule="nonzero">
            <g id="html" transform="translate(969.000000, 5151.000000)">
                <g id="Group-34">
                    <polygon id="Path" fill-opacity="0.85" fill="#000000" points="2.12840487 23.400948 0 0 23.3881455 0 21.2574195 23.3972823 11.6797265 26"></polygon>
                    <polygon id="Path" fill-opacity="0.85" fill="#000000" points="11.6940405 24.0105304 19.4332843 21.9074238 21.2541311 1.9133745 11.6940405 1.9133745"></polygon>
                    <g id="Group" transform="translate(4.352108, 4.783436)" fill="#EBEBEB">
                        <path d="M7.34193293,5.80901356 L3.46747522,5.80901356 L3.19989327,2.87006174 L7.34193293,2.87006174 L7.34193293,0 L0,0 L0.070087128,0.769988818 L0.789721383,8.67901211 L7.34193293,8.67901211 L7.34193293,5.80901356 Z M7.34193293,13.2627935 L7.32916636,13.2661432 L4.06821282,12.403058 L3.85975681,10.1140746 L0.92054639,10.1140746 L1.33075275,14.6204337 L7.32845711,16.2524965 L7.34193293,16.2488308 L7.34193293,13.2627935 Z" id="Shape"></path>
                    </g>
                    <g id="Group" transform="translate(11.683982, 4.783436)" fill="#FFFFFF">
                        <path d="M0,5.80901356 L0,8.67901211 L3.60539277,8.67901211 L3.26553145,12.4012251 L0,13.2651952 L0,16.251106 L6.00241123,14.6204337 L6.04644942,14.1355486 L6.73448966,6.5796976 L6.80593081,5.80901356 L6.01691868,5.80901356 L0,5.80901356 Z M0,0 L0,2.87006174 L7.07235217,2.87006174 L7.13109124,2.22495989 L7.26449535,0.769988818 L7.334518,0 L0,0 Z" id="Shape"></path>
                    </g>
                </g>
                <path d="M34.6907857,3.05195313 L40.642582,3.05195313 L40.642582,8.84101563 L46.0870687,8.84101563 L46.0870687,3.05195313 L52.039123,3.05195313 L52.039123,20.5826563 L46.0873267,20.5826563 L46.0873267,14.7123438 L40.6428399,14.7123438 L40.6428399,20.5826563 L34.6913015,20.5826563 L34.6913015,3.05195313 L34.6907857,3.05195313 Z M59.8659273,8.86539063 L54.6264793,8.86539063 L54.6264793,3.05195313 L71.0605245,3.05195313 L71.0605245,8.86539063 L65.8184974,8.86539063 L65.8184974,20.5826563 L59.8664431,20.5826563 L59.8659273,8.86539063 Z M73.6685136,3.05195313 L79.8743516,3.05195313 L83.6919401,9.21171875 L87.5059178,3.05195313 L93.7143349,3.05195313 L93.7143349,20.5826563 L87.78704,20.5826563 L87.78704,11.8934766 L83.692198,18.1266211 L83.5900655,18.1266211 L79.4921285,11.8934766 L79.4921285,20.5826563 L73.6687715,20.5826563 L73.6687715,3.05195313 L73.6685136,3.05195313 Z M96.6764349,3.05195313 L102.630037,3.05195313 L102.630037,14.7880078 L111,14.7880078 L111,20.5826563 L96.6764349,20.5826563 L96.6764349,3.05195313 Z" id="Shape" fill-opacity="0.85" fill="#000000"></path>
            </g>
        </g>
    </g>
</svg>