<?xml version="1.0" encoding="UTF-8"?>
<svg width="150px" height="30px" viewBox="0 0 150 30" version="1.1" xmlns="http://www.w3.org/2000/svg" xmlns:xlink="http://www.w3.org/1999/xlink">
    <title>ibm</title>
    <g id="Page-1" stroke="none" stroke-width="1" fill="none" fill-rule="evenodd" fill-opacity="0.85">
        <g id="App-Development" transform="translate(-317.000000, -5413.000000)" fill="#000000" fill-rule="nonzero">
            <g id="ibm" transform="translate(317.000000, 5413.000000)">
                <g id="ibm_cloud-ar21" transform="translate(45.218295, 9.473684)">
                    <path d="M0,16.9105263 L0,15.3189474 L2.2047817,15.3189474 L2.2047817,2.58631579 L0,2.58631579 L0,0.994736842 L6.30873181,0.994736842 L6.30873181,2.58631579 L4.10550936,2.58631579 L4.10550936,15.3189474 L6.31029106,15.3189474 L6.31029106,16.9105263 L0,16.9105263 Z M9.75779626,0.994736842 L16.2193347,0.994736842 C18.8170478,0.994736842 20.4106029,2.60842105 20.4106029,5.10631579 C20.4106029,7.47157895 18.9043659,8.31157895 17.8565489,8.48842105 L17.8565489,8.62105263 C18.991684,8.68736842 20.9345114,9.66 20.9345114,12.3126316 C20.9345114,14.9431579 19.2099792,16.9105263 16.8742204,16.9105263 L9.73440748,16.9105263 L9.75779626,0.994736842 Z M11.6351351,7.86947368 L15.97921,7.86947368 C17.4636175,7.86947368 18.3586279,7.07368421 18.3586279,5.65894737 L18.3586279,4.86947368 C18.3586279,3.45473684 17.4636175,2.65894737 15.97921,2.65894737 L11.6366944,2.65894737 L11.6351351,7.86947368 Z M11.6351351,15.2084211 L16.3066528,15.2084211 C17.9220374,15.2084211 18.9261954,14.3463158 18.9261954,12.7547368 L18.9261954,11.9652632 C18.9261954,10.3736842 17.9438669,9.51157895 16.3066528,9.51157895 L11.6366944,9.51157895 L11.6351351,15.2084211 Z M36.6735967,3.49263158 L36.5644491,3.49263158 L35.2328482,6.16736842 L31.4781705,13.1084211 L27.7453222,6.16736842 L26.4137214,3.51473684 L26.3045738,3.51473684 L26.3045738,16.9105263 L24.4334719,16.9105263 L24.4334719,0.994736842 L26.9017672,0.994736842 L31.3986486,9.57157895 L31.4859667,9.57157895 L36.0046778,0.994736842 L38.4714137,0.994736842 L38.4714137,16.9105263 L36.6595634,16.9105263 L36.6735967,3.49263158 Z M46.1476091,9.06315789 C46.1476091,3.69157895 48.8762994,0.707368421 53.1112266,0.707368421 C55.9927235,0.707368421 57.8482328,1.90105263 58.983368,4.44315789 L56.02079,5.99052632 C55.6060291,4.66421053 54.7765073,3.78 53.0956341,3.78 C51.0873181,3.78 49.7557173,5.15052632 49.7557173,7.64842105 L49.7557173,10.2126316 C49.7557173,12.7105263 51.0873181,14.0810526 53.0956341,14.0810526 C54.7765073,14.0810526 55.7588358,13.02 56.2172557,11.7157895 L59.0114345,13.3515789 C57.8326403,15.7610526 55.977131,17.1538169 53.0956341,17.1538169 C48.8607069,17.1757895 46.1320166,14.4347368 46.1320166,9.06315789 L46.1476091,9.06315789 Z M64.549896,16.9105263 C62.2796258,16.9105263 61.2318087,15.7389474 61.2318087,13.6168421 L61.2318087,0.0378947368 L64.5717256,0.0378947368 L64.5717256,14.2957895 L66.0561331,14.2957895 L66.0561331,16.9263158 L64.549896,16.9105263 Z M67.3222453,10.8978947 C67.3222453,7.05157895 69.3960499,4.64210526 72.8669439,4.64210526 C76.3378378,4.64210526 78.4116424,7.02947368 78.4116424,10.8978947 C78.4116424,14.7442105 76.3378378,17.1757895 72.8669439,17.1757895 C69.3960499,17.1757895 67.3222453,14.7663158 67.3222453,10.8978947 Z M74.9407484,12.1357895 L74.9407484,9.70421053 C74.9407484,8.20105263 74.1611227,7.33894737 72.8669439,7.33894737 C71.5727651,7.33894737 70.7931393,8.20105263 70.7931393,9.70421053 L70.7931393,12.1357895 C70.7931393,13.6389474 71.5727651,14.5010526 72.8669439,14.5010526 C74.1611227,14.5010526 74.9407484,13.6389474 74.9407484,12.1357895 Z M87.7546778,14.8989474 L87.6455301,14.8989474 C87.2307692,16.1147368 86.2702703,17.1757895 84.3274428,17.1757895 C81.9261954,17.1757895 80.6382536,15.4736842 80.6382536,12.4452632 L80.6382536,4.92947368 L83.9781705,4.92947368 L83.9781705,12.1578947 C83.9781705,13.6168421 84.45842,14.4347368 85.6590437,14.4347368 C86.6850312,14.4347368 87.7546778,13.8378947 87.7546778,12.7105263 L87.7546778,4.92947368 L91.0945946,4.92947368 L91.0945946,16.9105263 L87.7546778,16.9105263 L87.7546778,14.8989474 Z M101.441788,14.8989474 L101.33264,14.8989474 C101.02079,16.2031579 99.6954262,17.1757895 98.1673597,17.1757895 C95.1767152,17.1757895 93.6268191,14.9652632 93.6268191,10.8978947 C93.6268191,6.83052632 95.1767152,4.64210526 98.1673597,4.64210526 C99.6954262,4.64210526 101.005198,5.59263158 101.33264,6.91894737 L101.441788,6.91894737 L101.441788,0 L104.781705,0 L104.781705,16.8663158 L101.441788,16.8663158 L101.441788,14.8989474 Z M101.441788,12.6884211 L101.441788,9.15157895 C101.441788,8.04631579 100.524948,7.40526316 99.2588358,7.40526316 C97.9927235,7.40526316 97.0758836,8.37789474 97.0758836,9.88105263 L97.0758836,11.9431579 C97.0758836,13.4463158 97.9927235,14.4189474 99.2588358,14.4189474 C100.524948,14.4189474 101.441788,13.7557895 101.441788,12.6726316 L101.441788,12.6884211 Z" id="Shape"></path>
                </g>
                <g id="dfhgdr">
                    <path d="M4.3587033,11.979942 C4.25269578,11.9789311 4.14877647,11.9496968 4.05719236,11.8951217 L1.13059991,10.1449976 C0.859758424,9.98706053 0.73446724,9.65657655 0.83047205,9.35334216 C0.884635939,9.19372513 0.999077507,9.06292363 1.14824337,8.99014402 C1.29740923,8.9173644 1.4688765,8.90866794 1.62435866,8.96599644 C1.6597967,8.9772802 1.69336784,8.99396047 1.72394025,9.01547491 L4.65191578,10.7670127 C4.94036901,10.9424327 5.05260158,11.3122058 4.91193439,11.623697 C4.80757756,11.8391844 4.59392129,11.9767652 4.3587033,11.979942 L4.3587033,11.979942 Z M9.41800159,6.72675445 C9.19698257,6.72813574 8.99197183,6.60908807 8.87998435,6.41432116 L7.19262954,3.38482526 C7.02827471,3.10949253 7.07817048,2.75368254 7.31157423,2.53662295 C7.43442638,2.42224923 7.5983298,2.36533636 7.76392115,2.37955264 C7.9295125,2.39376891 8.08183125,2.47782994 8.18429626,2.61154748 C8.20829573,2.64121204 8.23046774,2.67237289 8.25068399,2.70484974 L9.93665573,5.72586362 C10.1104714,6.01845582 10.0400316,6.39797007 9.77345256,6.60516668 C9.66968069,6.68141431 9.54577124,6.72379532 9.41800159,6.72675445 L9.41800159,6.72675445 Z M15.708239,4.1255886 L15.708239,0.686128246 C15.7004877,0.330127745 15.9654256,0.0295852291 16.312644,0.00049804761 C16.4790909,-0.0062567072 16.6411616,0.0559278926 16.7621443,0.17296585 C16.8840985,0.291476373 16.9547842,0.454800443 16.9585413,0.626754085 L16.9585413,4.16093037 C16.9596454,4.3307742 16.8946923,4.49410957 16.7779717,4.61500267 C16.6612511,4.73589576 16.5023247,4.80444305 16.3361563,4.80556412 L16.3084948,4.80556412 C15.9650873,4.77450876 15.7032762,4.4779267 15.708239,4.1255886 Z M23.236331,6.72674235 C23.1092062,6.7278703 22.9850882,6.68723435 22.8822631,6.61082137 C22.6167738,6.39999063 22.5488618,6.0188216 22.7245923,5.72586362 L24.4133302,2.69919506 C24.4950978,2.55256301 24.6305229,2.44515327 24.7897938,2.4006103 C24.9490648,2.35606733 25.1191255,2.37805464 25.2625399,2.46169841 C25.2939727,2.48273037 25.3240053,2.50587116 25.3524399,2.53096827 C25.5843159,2.74885311 25.6340464,3.10348446 25.4713846,3.37917057 L23.7895621,6.40159813 C23.6779071,6.60594726 23.4652873,6.73090789 23.236331,6.72674235 L23.236331,6.72674235 Z M28.2983955,11.9799454 C28.0662535,11.9807211 27.8529808,11.8493821 27.7451644,11.6392474 C27.5964965,11.321605 27.7137201,10.940539 28.0134815,10.7670127 L30.9179447,9.03102528 C31.1784743,8.86445533 31.5188798,8.91664558 31.7201297,9.15401462 C31.8307191,9.28180805 31.886053,9.44987843 31.8735497,9.62001036 C31.8610464,9.79014229 31.7817685,9.94787732 31.653742,10.0573501 C31.626247,10.0832038 31.5961063,10.1059539 31.563842,10.1252063 L28.6040557,11.8951217 C28.5111279,11.9501045 28.4057682,11.9793417 28.2983955,11.9799454 L28.2983955,11.9799454 Z M8.45952873,26.6255685 C5.51561922,23.5846419 4.44447643,19.1363284 5.67124405,15.0461933 C6.87761278,10.9719385 10.199931,7.92099793 14.2919675,7.12963844 C18.3777199,6.36156447 22.5398053,7.99987567 25.0661429,11.37065 C25.2556245,11.6208697 25.4368077,11.8838124 25.602777,12.1467551 L24.571001,12.8535904 C24.4252864,12.6128177 24.2664428,12.3806093 24.0952223,12.1580645 C21.8571901,9.14301374 18.1501854,7.67103158 14.5077276,8.35104977 C10.8579526,9.05127706 7.89523975,11.7741355 6.82749702,15.4095066 C5.73928083,19.0551882 6.70368256,23.017142 9.3364,25.7165783 L8.45952873,26.6255685 Z M24.2611916,30 L7.13730643,30 C5.22440314,29.9836233 3.39788003,29.1835855 2.06694353,27.7791236 C0.725052589,26.3640001 -0.0173288583,24.4654702 0.000307181491,22.4948232 L1.24539536,22.4948232 C1.22560247,24.1281597 1.83805584,25.7033231 2.94934711,26.8772018 C4.05089775,28.0394214 5.56251836,28.7014431 7.1456049,28.7149735 L24.2542762,28.7149735 C27.1378539,28.7210116 29.7504804,26.9788565 30.9068801,24.2788754 C32.0798544,21.5671455 31.5989703,18.4053955 29.6759409,16.1856117 L30.5818568,15.3289274 C32.8176244,17.9316129 33.3713738,21.624391 32.0008945,24.7920378 C30.65191,27.9467767 27.6074359,29.9895297 24.2390624,30 L24.2611916,30 Z M1.24539536,22.5103736 L0.000625420835,22.5103736 C0.000531431662,18.9161815 2.52607955,15.841142 5.98935193,15.2186611 L6.19543051,16.4697595 C3.32948125,16.9879842 1.24185765,19.5355476 1.24539536,22.5103736 L1.24539536,22.5103736 Z M16.9972675,21.1419406 L15.7524975,21.1419406 C15.7659255,17.5236151 17.9448556,14.2824756 21.2446991,12.9723387 C24.5339193,11.6858844 28.2589415,12.6257578 30.5846229,15.3289274 L29.678707,16.1856117 C27.700711,13.8515677 24.5064555,13.0298337 21.6831348,14.1287212 C18.8499652,15.2487157 16.9847317,18.0370716 16.9917352,21.1419406 L16.9972675,21.1419406 Z" id="Shape"></path>
                </g>
            </g>
        </g>
    </g>
</svg>