<?xml version="1.0" encoding="UTF-8"?>
<svg width="108px" height="36px" viewBox="0 0 108 36" version="1.1" xmlns="http://www.w3.org/2000/svg" xmlns:xlink="http://www.w3.org/1999/xlink">
    <title>illustrator</title>
    <g id="Page-1" stroke="none" stroke-width="1" fill="none" fill-rule="evenodd">
        <g id="App-Development" transform="translate(-742.000000, -5604.000000)">
            <g id="Group-57" transform="translate(742.000000, 5604.000000)">
                <g id="Adobe-Illustrator-CC-logo" fill-rule="nonzero">
                    <g id="vlpb" fill="#000000" fill-opacity="0.85">
                        <g id="vlpd">
                            <path d="M6.55208333,0 L30.4479167,0 C34.0708333,0 37,2.92307692 37,6.53846154 L37,29.4615385 C37,33.0769231 34.0708333,36 30.4479167,36 L6.55208333,36 C2.92916667,36 0,33.0769231 0,29.4615385 L0,6.53846154 C0,2.92307692 2.92916667,0 6.55208333,0 Z" id="Path"></path>
                        </g>
                    </g>
                    <g id="vlpf" transform="translate(7.598944, 7.984615)" fill="#FFFFFF">
                        <path d="M10.2843898,13.5538462 L4.5493898,13.5538462 L3.37772313,17.1692308 C3.3468898,17.3076923 3.22355647,17.4 3.08480647,17.3846154 L0.186473134,17.3846154 C0.0168898011,17.3846154 -0.0293601989,17.2923077 0.0168898011,17.1076923 L4.98105647,2.84615385 C5.02730647,2.69230769 5.07355647,2.52307692 5.13522313,2.33846154 C5.1968898,2.01538462 5.22772313,1.67692308 5.22772313,1.33846154 C5.21230647,1.26153846 5.27397313,1.18461538 5.35105647,1.16923077 L5.39730647,1.16923077 L9.34397313,1.16923077 C9.46730647,1.16923077 9.52897313,1.21538462 9.5443898,1.29230769 L15.1714731,17.1384615 C15.2177231,17.3076923 15.1714731,17.3846154 15.0173065,17.3846154 L11.7952231,17.3846154 C11.6873065,17.4 11.5793898,17.3230769 11.5485565,17.2153846 L10.2843898,13.5538462 L10.2843898,13.5538462 Z M5.44355647,10.4307692 L9.3593898,10.4307692 C9.2668898,10.1076923 9.14355647,9.72307692 9.00480647,9.32307692 C8.86605647,8.90769231 8.72730647,8.46153846 8.58855647,8 C8.4343898,7.52307692 8.2956398,7.06153846 8.14147313,6.58461538 C7.98730647,6.10769231 7.84855647,5.66153846 7.72522313,5.21538462 C7.6018898,4.78461538 7.49397313,4.38461538 7.38605647,4.01538462 L7.35522313,4.01538462 C7.21647313,4.67692308 7.0468898,5.33846154 6.83105647,6 C6.59980647,6.73846154 6.36855647,7.50769231 6.1218898,8.27692308 C5.90605647,9.06153846 5.67480647,9.78461538 5.44355647,10.4307692 L5.44355647,10.4307692 Z" id="Shape"></path>
                        <path d="M18.6093898,3.86153846 C18.1006398,3.87692308 17.6073065,3.67692308 17.2373065,3.32307692 C16.8827231,2.93846154 16.6977231,2.43076923 16.7131398,1.90769231 C16.6977231,1.38461538 16.8981398,0.892307692 17.2681398,0.538461538 C17.6381398,0.184615385 18.1314731,0 18.6402231,0 C19.2414731,0 19.7039731,0.184615385 20.0431398,0.538461538 C20.3823065,0.907692308 20.5673065,1.4 20.5518898,1.90769231 C20.5673065,2.43076923 20.3823065,2.93846154 20.0123065,3.32307692 C19.6577231,3.69230769 19.1335565,3.89230769 18.6093898,3.86153846 Z M16.8827231,17.2153846 L16.8827231,5.36923077 C16.8827231,5.21538462 16.9443898,5.15384615 17.0831398,5.15384615 L20.1356398,5.15384615 C20.2743898,5.15384615 20.3360565,5.23076923 20.3360565,5.36923077 L20.3360565,17.2153846 C20.3360565,17.3846154 20.2743898,17.4615385 20.1356398,17.4615385 L17.1139731,17.4615385 C16.9598065,17.4615385 16.8827231,17.3692308 16.8827231,17.2153846 L16.8827231,17.2153846 Z" id="Shape"></path>
                    </g>
                </g>
                <text id="Adobe" font-family="AvenirNext-Regular, Avenir Next" font-size="11" font-weight="normal" letter-spacing="-0.510714286" fill="#000000" fill-opacity="0.85">
                    <tspan x="45" y="12">Adobe</tspan>
                </text>
                <text id="Illustrator" font-family="AvenirNext-DemiBold, Avenir Next" font-size="16" font-weight="500" letter-spacing="-0.742857143" fill="#000000" fill-opacity="0.85">
                    <tspan x="45" y="30">Illustrator</tspan>
                </text>
            </g>
        </g>
    </g>
</svg>