<?xml version="1.0" encoding="UTF-8"?>
<svg width="98px" height="43px" viewBox="0 0 98 43" version="1.1" xmlns="http://www.w3.org/2000/svg" xmlns:xlink="http://www.w3.org/1999/xlink">
    <title>java</title>
    <g id="Page-1" stroke="none" stroke-width="1" fill="none" fill-rule="evenodd" fill-opacity="0.85">
        <g id="App-Development" transform="translate(-742.000000, -5140.000000)" fill="#000000" fill-rule="nonzero">
            <g id="java" transform="translate(742.000000, 5140.000000)">
                <g>
                    <path d="M10.2632297,33.2536694 C10.2632297,33.2536694 8.6128681,34.2092776 11.4389869,34.5320941 C14.8637381,34.9212575 16.6130354,34.8652551 20.3858538,34.1550587 C20.3858538,34.1550587 21.3791535,34.773939 22.7656867,35.3093507 C14.3056119,38.9166917 3.61912624,35.1006793 10.2632297,33.2536694 Z M9.22906523,28.5462553 C9.22906523,28.5462553 7.37760613,29.9099322 10.2062342,30.2010021 C13.864703,30.5769675 16.7524773,30.6076439 21.7526715,29.6502522 C21.7526715,29.6502522 22.4430704,30.3476072 23.5295704,30.7285664 C13.3022752,33.7052558 1.91176909,30.9629205 9.22906523,28.5462553 Z" id="Shape"></path>
                    <path d="M17.94329,20.5600241 C20.0288251,22.9488664 17.3966346,25.0972907 17.3966346,25.0972907 C17.3966346,25.0972907 22.6896927,22.3788545 20.2585996,18.9734076 C17.9888147,15.7991046 16.2477621,14.2221191 25.6721011,8.78381988 C25.6717427,8.78346317 10.8783514,12.4589344 17.94329,20.5600241 Z" id="Path"></path>
                    <path d="M29.1319817,36.7358074 C29.1319817,36.7358074 30.3536221,37.7381438 27.7863133,38.5132602 C22.9044117,39.9846615 7.46363715,40.4284004 3.17463267,38.5717595 C1.63396061,37.9040109 4.52460265,36.9783657 5.43402216,36.7828923 C6.38251408,36.5788579 6.92379254,36.6159551 6.92379254,36.6159551 C5.20926613,35.4145782 -4.15843583,38.9755477 2.1662775,39.9971461 C19.412628,42.7797889 33.6048775,38.744404 29.1319817,36.7358074 Z M11.0572243,23.6683371 C11.0572243,23.6683371 3.2040266,25.524978 8.27663022,26.1998607 C10.4191609,26.4848667 14.6870161,26.4192333 18.665592,26.0871425 C21.9161305,25.8156912 25.1788566,25.2349782 25.1788566,25.2349782 C25.1788566,25.2349782 24.0335688,25.7240184 23.203728,26.2868963 C15.2275776,28.374681 -0.178426075,27.4023077 4.25718959,25.2681516 C8.00742484,23.4628759 11.0572243,23.6683371 11.0572243,23.6683371 L11.0572243,23.6683371 Z M25.1462365,31.5040395 C33.2535842,27.3127751 29.5051412,23.2841676 26.8880061,23.8270701 C26.2481504,23.9601204 25.9610219,24.0749789 25.9610219,24.0749789 C25.9610219,24.0749789 26.199758,23.703294 26.6535716,23.5434909 C31.8301294,21.7332214 35.8104976,28.8840534 24.9845692,31.7159212 C24.9842115,31.7159212 25.1089564,31.6039164 25.1462365,31.5040395 Z" id="Shape"></path>
                    <path d="M20.2585996,0 C20.2585996,0 24.7476262,4.46984962 15.999706,11.3410262 C8.98423531,16.8549465 14.4002461,19.9978596 15.9975552,23.590219 C11.901762,19.9136777 8.89748737,16.6765948 10.9127639,13.6645917 C13.8715138,9.24325379 22.0699109,7.09910998 20.2585996,0 Z" id="Path"></path>
                    <path d="M11.8548035,42.865041 C19.6355917,43.3601452 31.5863748,42.5900227 31.8699187,38.9256093 C31.8699187,38.9256093 31.3257725,40.3146121 25.438742,41.4164687 C18.7967893,42.66065 10.6034107,42.5158284 5.74552612,41.717883 C5.74552612,41.717883 6.74097663,42.5375873 11.8548035,42.865041 Z" id="Path"></path>
                </g>
                <path d="M95.6179098,20.1498467 L95.2227905,20.1498467 L95.2227905,19.9302341 L96.2890138,19.9302341 L96.2890138,20.1498467 L95.8938946,20.1498467 L95.8938946,21.2467228 L95.6179098,21.2467228 L95.6179098,20.1498467 Z M97.7455671,20.2044531 L97.7407778,20.2044531 L97.3480532,21.2461292 L97.1678549,21.2461292 L96.7775249,20.2044531 L96.7727356,20.2044531 L96.7727356,21.2461292 L96.5105201,21.2461292 L96.5105201,19.9296405 L96.895462,19.9296405 L97.257056,20.8609168 L97.61865,19.9296405 L98,19.9296405 L98,21.2461292 L97.7461658,21.2461292 L97.7461658,20.2044531 L97.7455671,20.2044531 L97.7455671,20.2044531 Z M60.661828,32.5104768 C59.4363596,33.5634304 58.1408473,34.1557909 56.9776401,34.1557909 C55.3205339,34.1557909 54.4213382,33.1687212 54.4213382,31.5892908 C54.4213382,29.87928 55.3839924,28.6280815 59.2370039,28.6280815 L60.6612293,28.6280815 L60.6612293,32.5104768 L60.661828,32.5104768 L60.661828,32.5104768 Z M64.0442883,36.2937496 L64.0442883,24.5818671 C64.0442883,21.5886062 62.3225262,19.6132796 58.1719779,19.6132796 C55.7503757,19.6132796 53.6275077,20.2062337 51.9015549,20.9618199 L52.3984473,23.036269 C53.7580168,22.5412502 55.5156988,22.0824379 57.241053,22.0824379 C59.6321232,22.0824379 60.6612293,23.036269 60.6612293,25.0110021 L60.6612293,26.4919035 L59.4662928,26.4919035 C53.6580396,26.4919035 51.0370818,28.7260169 51.0370818,32.0849031 C51.0370818,34.9790415 52.7642319,36.6243557 56.0155846,36.6243557 C58.105526,36.6243557 59.6668458,35.7690535 61.1245964,34.5172615 L61.3898053,36.2937496 L64.0442883,36.2937496 L64.0442883,36.2937496 Z M75.3333247,36.2937496 L71.1157259,36.2937496 L66.037246,19.9112405 L69.7214338,19.9112405 L72.873408,29.9784025 L73.575044,33.0031214 C75.1650997,28.6280815 76.2935843,24.1865644 76.8581259,19.9112405 L80.4405406,19.9112405 C79.4814784,25.3054017 77.7537296,31.2278203 75.3333247,36.2937496 L75.3333247,36.2937496 Z M91.5194454,32.5104768 C90.290385,33.5634304 88.9948727,34.1557909 87.8340602,34.1557909 C86.1769539,34.1557909 85.2789556,33.1687212 85.2789556,31.5892908 C85.2789556,29.87928 86.2422085,28.6280815 90.0928253,28.6280815 L91.5194454,28.6280815 L91.5194454,32.5104768 L91.5194454,32.5104768 Z M94.9031031,36.2937496 L94.9031031,24.5818671 C94.9031031,21.5886062 93.175953,19.6132796 89.0295953,19.6132796 C86.6055985,19.6132796 84.4833291,20.2062337 82.7573763,20.9618199 L83.2542687,23.036269 C84.6138382,22.5412502 86.3751122,22.0824379 88.101065,22.0824379 C90.4885433,22.0824379 91.5188467,23.036269 91.5188467,25.0110021 L91.5188467,26.4919035 L90.3239102,26.4919035 C84.5150584,26.4919035 81.8958966,28.7260169 81.8958966,32.0849031 C81.8958966,34.9790415 83.6194547,36.6243557 86.871406,36.6243557 C88.9631434,36.6243557 90.5220685,35.7690535 91.9834112,34.5172615 L92.2498173,36.2937496 L94.9031031,36.2937496 L94.9031031,36.2937496 Z M47.3283487,39.0774882 C46.3644972,40.4741058 44.805572,41.5798851 43.1011712,42.2037037 L41.4308943,40.2533061 C42.7293999,39.5926875 43.8417205,38.5260824 44.3595662,37.5336707 C44.805572,36.6492847 44.991757,35.5120473 44.991757,32.7900378 L44.991757,14.0843831 L48.5867437,14.0843831 L48.5867437,32.5318445 C48.5867437,36.1726659 48.2933976,37.6440706 47.3283487,39.0774882 L47.3283487,39.0774882 Z" id="Shape"></path>
            </g>
        </g>
    </g>
</svg>