<?xml version="1.0" encoding="UTF-8"?>
<svg width="117px" height="26px" viewBox="0 0 117 26" version="1.1" xmlns="http://www.w3.org/2000/svg" xmlns:xlink="http://www.w3.org/1999/xlink">
    <title>kotlin</title>
    <g id="Page-1" stroke="none" stroke-width="1" fill="none" fill-rule="evenodd">
        <g id="App-Development" transform="translate(-551.000000, -5221.000000)" fill="#000000" fill-rule="nonzero">
            <g id="kotlin" transform="translate(551.000000, 5221.000000)">
                <g id="Group" transform="translate(32.454158, 0.000000)" fill-opacity="0.85">
                    <polygon id="Path" points="4.93110505e-15 1.05126667 5.4013346 1.05126667 5.4013346 11.7736667 15.3621923 1.05126667 21.8858844 1.05126667 11.8899801 11.4582 22.3418367 25.5796667 15.8531912 25.5796667 8.24236165 15.13772 5.4013346 18.08092 5.4013346 25.5794933 0 25.5794933"></polygon>
                    <path d="M19.471315,16.29368 L19.471315,16.224 C19.471315,10.8276133 23.8205588,6.44748 29.6778457,6.44748 C35.500086,6.44748 39.8142832,10.7575867 39.8142832,16.1538 L39.8142832,16.224 C39.8142832,21.6202133 35.4650394,26 29.6077525,26 C23.7855122,26 19.471315,21.6900667 19.471315,16.29368 L19.471315,16.29368 Z M34.5531348,16.29368 L34.5531348,16.224 C34.5531348,13.45552 32.5539193,11.0378667 29.6077525,11.0378667 C26.5562726,11.0378667 24.7324634,13.38532 24.7324634,16.1538 L24.7324634,16.224 C24.7324634,18.9921333 26.7316789,21.4097867 29.6778457,21.4097867 C32.7293256,21.4097867 34.5531348,19.06216 34.5531348,16.29368 L34.5531348,16.29368 Z" id="Shape"></path>
                    <path d="M41.2858918,20.25348 L41.2858918,11.35316 L39.0411768,11.35316 L39.0411768,6.79813333 L41.2858918,6.79813333 L41.2858918,1.99732 L46.6171333,1.99732 L46.6171333,6.79796 L51.0364701,6.79796 L51.0364701,11.35316 L46.6171333,11.35316 L46.6171333,19.3776267 C46.6171333,20.6037867 47.1431787,21.1997067 48.3358028,21.1997067 C49.2549621,21.2041461 50.1601452,20.9749184 50.9662035,20.5335867 L50.9662035,24.80868 C49.843846,25.4744533 48.5462557,25.89496 46.757493,25.89496 C43.4957337,25.89496 41.2858918,24.5984267 41.2858918,20.25348 Z M52.566721,0 L57.8979625,0 L57.8979625,25.5794933 L52.566721,25.5794933 L52.566721,0 Z M59.825003,0 L65.4366169,0 L65.4366169,4.73044 L59.825003,4.73044 L59.825003,0 Z M59.9655362,6.79796 L65.2966042,6.79796 L65.2966042,25.5794933 L59.9653627,25.5794933 L59.9655362,6.79796 Z M67.3246204,6.79796 L72.6558619,6.79796 L72.6558619,9.46088 C73.8835325,7.88406667 75.4618423,6.44748 78.1623361,6.44748 C82.1959873,6.44748 84.545842,9.11057333 84.545842,13.42068 L84.545842,25.5794933 L79.2146005,25.5794933 L79.2146005,15.1025333 C79.2146005,12.5796667 78.0219764,11.2831333 75.9877143,11.2831333 C73.9532787,11.2831333 72.6558619,12.5796667 72.6558619,15.1025333 L72.6558619,25.5794933 L67.3244469,25.5794933 L67.3246204,6.79796 Z" id="Shape"></path>
                </g>
                <polygon id="Path" fill-opacity="0.85" points="12.3244187 1.03896 0 13.9873067 0 25.56268 12.3065484 13.2461333 24.5469942 1.03896"></polygon>
                <polygon id="Path" fill-opacity="0.75" points="0 25.56268 12.3065484 13.2461333 24.5469942 25.56268"></polygon>
                <polygon id="Path" fill-opacity="0.85" points="0 1.03896 12.3244187 1.03896 0 13.9873067"></polygon>
            </g>
        </g>
    </g>
</svg>