<?xml version="1.0" encoding="UTF-8"?>
<svg width="111px" height="31px" viewBox="0 0 111 31" version="1.1" xmlns="http://www.w3.org/2000/svg" xmlns:xlink="http://www.w3.org/1999/xlink">
    <title>nodejs-ar21</title>
    <g id="Page-1" stroke="none" stroke-width="1" fill="none" fill-rule="evenodd" fill-opacity="0.85">
        <g id="App-Development" transform="translate(-551.000000, -5809.000000)" fill="#000000" fill-rule="nonzero">
            <g id="nodejs-ar21" transform="translate(551.000000, 5809.000000)">
                <path d="M102.106684,11.0003557 C101.836321,11.0003557 101.573559,11.0555523 101.340982,11.1857046 L93.9818948,15.388808 C93.505665,15.6600661 93.2161919,16.1727287 93.2161919,16.717822 L93.2161919,25.1089948 C93.2161919,25.6538734 93.505665,26.1656769 93.9818948,26.4377941 L95.9037526,27.5331353 C96.8375367,27.9884536 97.1819509,27.9811513 97.6069313,27.9811513 C98.9893659,27.9811513 99.778522,27.151484 99.778522,25.7094995 L99.778522,17.4310825 C99.778522,17.3140313 99.6760229,17.2302699 99.5598428,17.2302699 L98.6380025,17.2302699 C98.519868,17.2302699 98.4193234,17.316179 98.4193234,17.4310825 L98.4193234,25.713795 C98.4193234,26.3529588 97.7461302,26.9959885 96.6538201,26.4556202 L94.6559566,25.2967062 C94.5853799,25.2586915 94.530873,25.1893198 94.530873,25.1113573 L94.530873,16.7201845 C94.530873,16.6407186 94.5847284,16.5595345 94.6559566,16.519372 L101.999625,12.3313026 C102.068464,12.292214 102.150333,12.292214 102.218304,12.3313026 L109.561973,16.519372 C109.631898,16.5608231 109.687056,16.6381413 109.687056,16.7201845 L109.687056,25.1113573 C109.687056,25.1914676 109.646447,25.2735108 109.577608,25.3121699 L102.218521,29.5002392 C102.153374,29.5373949 102.06651,29.5373949 101.999842,29.5002392 L100.109255,28.3877162 C100.052794,28.3550707 99.9761368,28.357648 99.921847,28.3877162 C99.4000137,28.6802367 99.3018578,28.7141708 98.8125984,28.8821231 C98.6920752,28.9235743 98.5085757,28.9882209 98.8751403,29.191396 L101.343805,30.6303736 C101.578771,30.7648214 101.840665,30.8311862 102.109508,30.8311862 C102.382042,30.8311862 102.640027,30.7667543 102.87521,30.6303736 L110.234297,26.4423043 C110.710527,26.1682542 111,25.6583836 111,25.1135051 L111,16.7223323 C111,16.1772389 110.710527,15.6656502 110.234297,15.3933183 L102.87521,11.1902148 C102.644587,11.0600625 102.380088,11.0048659 102.109508,11.0048659 L102.106684,11.0003557 Z M104.075449,16.9963824 C101.979864,16.9963824 100.73185,17.8784542 100.73185,19.3451375 C100.73185,20.9344562 101.970526,21.3734517 103.981853,21.5701836 C106.387976,21.8032121 106.575601,22.1526474 106.575601,22.6210669 C106.575601,23.4335523 105.920649,23.7799808 104.372522,23.7799808 C102.427646,23.7799808 102.000059,23.2997489 101.856951,22.3410032 C101.840013,22.2383418 101.760099,22.1556542 101.653908,22.1556542 L100.698408,22.1556542 C100.578747,22.1582687 100.482372,22.2535842 100.479729,22.3719304 C100.479729,23.5967796 101.153356,25.0452073 104.370351,25.0452073 C106.698947,25.0452073 108.042076,24.1431616 108.042076,22.5572793 C108.042076,20.989438 106.95715,20.5656913 104.698478,20.2699492 C102.418308,19.9692673 102.198543,19.8253695 102.198543,19.2963841 C102.198543,18.8599658 102.383128,18.2762134 104.073494,18.2762134 C105.583401,18.2762134 106.1415,18.5983726 106.370386,19.6052274 C106.390364,19.6997274 106.474622,19.7770456 106.573429,19.7770456 L107.528929,19.7770456 C107.587562,19.7770456 107.644458,19.7413933 107.685284,19.6997274 C107.725241,19.6552695 107.753472,19.6052274 107.747826,19.545091 C107.600158,17.8110155 106.430973,16.9953085 104.0761,16.9953085 L104.075449,16.9963824 Z" id="Shape"></path>
                <path d="M58.8420821,5.69697948e-05 C58.7598717,0.000484650233 58.679117,0.0218023396 58.6077674,0.0621924286 C58.4633455,0.145770871 58.3742631,0.298543578 58.3734528,0.464032313 L58.3734528,12.285556 C58.3734528,12.4015333 58.3187287,12.5054834 58.2170983,12.5636868 C58.1157091,12.6221488 57.9903601,12.6221488 57.8889709,12.5636868 L55.9358422,11.4511638 C55.6458705,11.2852293 55.2883382,11.2852293 54.9983665,11.4511638 L47.2019214,15.9014707 C46.9104939,16.0677048 46.7328568,16.3877163 46.7328568,16.7203993 L46.7328568,25.6212279 C46.7323817,25.9527624 46.911217,26.2592335 47.2017042,26.4246929 L54.9983665,30.8752146 C55.288217,31.0415951 55.6459917,31.0415951 55.9358422,30.8752146 L63.7325044,26.4246929 C64.0229917,26.2592335 64.201827,25.9527624 64.2013518,25.6212279 L64.2013518,3.43090359 C64.2013518,3.09328077 64.0150284,2.77649091 63.7170861,2.61197495 L59.0766139,0.0465140151 C59.0036484,0.006351504 58.9228653,-0.000735997969 58.8420821,5.69697948e-05 L58.8420821,5.69697948e-05 Z M8.68702231,11.1109637 C8.53826834,11.1169773 8.39863506,11.1425353 8.26508222,11.2192092 L0.468637143,15.6695161 C0.177903056,15.834703 -0.000964729895,16.1413719 3.91434984e-06,16.4729811 L0.015860473,28.4184287 C0.015860473,28.5846628 0.102724103,28.7388697 0.250392273,28.8200538 C0.395237376,28.9059629 0.57482793,28.9059629 0.719021555,28.8200538 L5.34385836,26.1929531 C5.63702311,26.0211349 5.82812309,25.721312 5.82812309,25.3897029 L5.82812309,19.8109797 C5.82812309,19.4780819 6.00510774,19.1731045 6.29718669,19.0077295 L8.26595086,17.8797428 C8.40821476,17.7979216 8.57001216,17.7552102 8.73458014,17.7560337 C8.89923529,17.7550672 9.06114008,17.7977871 9.20342658,17.8797428 L11.1713221,19.0070852 C11.4629668,19.1724602 11.6399514,19.4778671 11.6399514,19.8103354 L11.6399514,25.3888438 C11.6399514,25.7208825 11.8353946,26.0224235 12.1242161,26.192094 L16.7490529,28.8191947 C16.8945495,28.9051038 17.0737058,28.9051038 17.2176822,28.8191947 C17.3610072,28.7375811 17.452214,28.583589 17.452214,28.4175696 L17.4678642,16.4725515 C17.469734,16.1407029 17.2906204,15.8336126 16.9992202,15.6690865 L9.20277511,11.2189944 C9.07095955,11.1425353 8.93067479,11.1167625 8.78083503,11.1107489 L8.68745662,11.1107489 L8.68702231,11.1109637 Z M78.7477515,11.2192057 C78.5831639,11.218761 78.421394,11.2614454 78.278905,11.3429183 L70.4822428,15.79344 C70.1912496,15.9598889 70.0131792,16.2642219 70.0131792,16.5966902 L70.0131792,25.4975188 C70.0131792,25.8321348 70.2038448,26.135394 70.4974439,26.300769 L78.2315643,30.6606566 C78.5171285,30.8217362 78.8656688,30.8339782 79.1534046,30.6756907 L83.8407832,28.0949809 C83.9895372,28.0133672 84.0900818,27.8608785 84.0905162,27.6933558 C84.0909505,27.525833 84.0030011,27.3750625 83.8559844,27.2917307 L76.0121986,22.841209 C75.8653991,22.7583067 75.7624657,22.5905691 75.7624657,22.4239054 L75.7624657,19.6406649 C75.7624657,19.4744308 75.866702,19.3219421 76.0121986,19.2390398 L78.4495921,17.8481712 C78.5946543,17.7652689 78.7727248,17.7652689 78.9186557,17.8481712 L81.3571349,19.2390398 C81.5024682,19.3216142 81.5918968,19.4748987 81.5914495,19.6406649 L81.5914495,21.8349985 C81.5910023,22.0007647 81.6804309,22.1540491 81.8257642,22.2366236 C81.9719122,22.3199554 82.1488969,22.320385 82.2948278,22.2366236 L86.9663538,19.5483126 C87.2562611,19.3816489 87.4354174,19.0764568 87.4354174,18.7450624 L87.4354174,16.5973345 C87.4354174,16.2659188 87.2567295,15.9596541 86.9665709,15.7938695 L79.2168151,11.3433478 C79.0743661,11.2617793 78.9125696,11.2192057 78.7479686,11.2196387 L78.7477515,11.2192057 Z M55.4357248,17.8642792 C55.4793508,17.8640882 55.5223384,17.8746432 55.5608085,17.8949917 L58.2325166,19.4248183 C58.3050477,19.4662694 58.3576002,19.5429433 58.3576002,19.6256308 L58.3576002,22.6852839 C58.3576002,22.768401 58.305482,22.8448601 58.2325166,22.8860965 L55.5608085,24.415923 C55.4880602,24.4567299 55.3992421,24.4567299 55.3262767,24.415923 L52.6545686,22.8860965 C52.5818203,22.8446453 52.529485,22.7679715 52.529485,22.6852839 L52.529485,19.6252013 C52.529485,19.542299 52.5820375,19.4662694 52.6545686,19.4243887 L55.3262767,17.8947769 C55.3627594,17.873944 55.3948989,17.8640644 55.4357248,17.8640644 L55.4357248,17.8638496 L55.4357248,17.8642792 Z" id="Shape"></path>
                <path d="M32.1084971,11.1726035 C31.9438627,11.1723804 31.7820657,11.2149931 31.6394335,11.2963126 L23.8427713,15.7313706 C23.5513438,15.8976048 23.3741386,16.217831 23.3741386,16.5502993 L23.3741386,25.4511279 C23.3732474,25.7826604 23.5521047,26.0892292 23.8427713,26.2543781 L31.6394335,30.7048998 C31.929284,30.8712803 32.2870587,30.8712803 32.5769092,30.7048998 L40.3735715,26.2543781 C40.6640587,26.0889187 40.842894,25.7824476 40.8424188,25.4509131 L40.8424188,16.5500845 C40.8424188,16.2171867 40.6652161,15.8971752 40.3733543,15.7311559 L32.5766921,11.2960978 C32.4342197,11.2143963 32.2723166,11.1716966 32.1076285,11.1723804 L32.1084971,11.1726035 Z M78.7325503,19.1155454 C78.7014966,19.1155454 78.6669683,19.1155454 78.6387376,19.1305795 L77.1388199,19.9961139 C77.0819415,20.0273577 77.0461951,20.0861986 77.0450072,20.1505355 L77.0450072,21.8504621 C77.0450072,21.9144644 77.0825757,21.9728826 77.1388199,22.0050985 L78.6387376,22.8549544 C78.6912886,22.8871549 78.7577423,22.8871549 78.8102933,22.8549544 L80.310211,22.0050985 C80.3658037,21.9735269 80.4040237,21.9144644 80.4040237,21.8504621 L80.4040237,20.1505355 C80.4040237,20.0865332 80.3660209,20.028115 80.310211,19.9958991 L78.8102933,19.1303648 C78.7824969,19.114042 78.7633869,19.1153067 78.732116,19.1153067 L78.7325503,19.1155454 Z" id="Shape"></path>
            </g>
        </g>
    </g>
</svg>