<?xml version="1.0" encoding="UTF-8"?>
<svg width="73px" height="28px" viewBox="0 0 73 28" version="1.1" xmlns="http://www.w3.org/2000/svg" xmlns:xlink="http://www.w3.org/1999/xlink">
    <title>obf</title>
    <g id="Page-1" stroke="none" stroke-width="1" fill="none" fill-rule="evenodd" fill-opacity="0.85">
        <g id="App-Development" transform="translate(-317.000000, -5150.000000)" fill="#000000" fill-rule="nonzero">
            <g id="obf" transform="translate(317.000000, 5150.000000)">
                <polygon id="path10" points="0 27.9500446 0 0.0749330955 6.68786907 0.0749330955 6.68786907 2.57270294 3.140712 2.57270294 3.140712 25.5022302 6.68786907 25.5022302 6.68786907 28"></polygon>
                <path d="M22.699342,13.7377342 C22.699342,18.8206958 19.6571621,21.7181088 15.5311287,21.7181088 C11.4050953,21.7181088 8.65851189,18.4585192 8.65851189,14 C8.65851189,9.34165923 11.540577,6.05709188 15.7528261,6.05709188 C19.9650751,6.05709188 22.699342,9.47903657 22.699342,13.7377342 Z M11.540577,13.9625335 C11.540577,17.0472792 13.0678252,19.4950937 15.6912435,19.4950937 C18.3146617,19.4950937 19.8172769,16.9973238 19.8172769,13.8501338 C19.8172769,10.9901873 18.4255104,8.2925959 15.6912435,8.2925959 C12.9569765,8.2925959 11.515944,10.9027654 11.515944,14.0249777 L11.540577,13.9625335 Z" id="path12"></path>
                <path d="M25.0148473,6.58162355 C26.3246067,6.35227517 27.6516292,6.23944618 28.980766,6.24442462 C30.4738679,6.09655314 31.9747095,6.43328237 33.2669141,7.20606601 C34.2534635,7.79525637 34.8474947,8.88042945 34.8187953,10.0410348 C34.7824484,11.5600779 33.7893974,12.8842116 32.3554918,13.3256021 L32.3554918,13.3256021 C34.1120437,13.6879361 35.3738687,15.2546466 35.3730386,17.0722569 C35.3918943,18.2823496 34.8604073,19.4338956 33.9320061,20.1944692 C32.8727856,21.1436218 31.1115235,21.6057092 28.3895731,21.6057092 C27.2698241,21.611294 26.1508612,21.5445517 25.0394803,21.4058876 L25.0148473,6.58162355 Z M27.7244812,12.5637823 L29.1162477,12.5637823 C31.0006749,12.5637823 32.0598954,11.6645852 32.0598954,10.3782337 C32.0598954,9.09188225 31.0006749,8.30508475 29.2640459,8.30508475 C28.7442928,8.28707695 28.2241169,8.32475225 27.7121647,8.41748439 L27.7244812,12.5637823 Z M27.7244812,19.5325602 C28.2031576,19.5826332 28.6843696,19.6034855 29.1655138,19.5950045 C30.9144593,19.5950045 32.4663405,18.9206066 32.4663405,17.0972346 C32.4663405,15.2738626 30.9637253,14.5994648 29.0792981,14.5994648 L27.7244812,14.5994648 L27.7244812,19.5325602 Z" id="path14"></path>
                <path d="M40.7553568,6.38180196 L43.4773072,6.38180196 L43.4773072,16.235504 C43.4773072,20.4192685 41.4820314,21.8180196 38.5507002,21.8180196 C37.7667557,21.8114392 36.9890074,21.6764864 36.2475114,21.4183764 L36.5800574,19.1953613 C37.1266177,19.3684774 37.6948862,19.461009 38.2674203,19.470116 C39.8193015,19.470116 40.7307238,18.7457627 40.7307238,16.1231044 L40.7553568,6.38180196 Z" id="path16"></path>
                <polygon id="path18" points="51.2243968 14.5869759 51.2243968 16.4977698 45.5587987 16.4977698 45.5587987 14.5869759"></polygon>
                <path d="M64.4523368,21.0811775 C63.2277964,21.5762644 61.9146204,21.8059887 60.5972667,21.7555754 C55.8554075,21.7555754 52.9733423,18.7457627 52.9733423,14.1373773 C52.8599874,11.965568 53.667456,9.84817768 55.1922995,8.31870131 C56.7171429,6.78922494 58.8139623,5.99350315 60.9544458,6.13202498 C62.2200001,6.07887452 63.4815589,6.30913241 64.649401,6.80642284 L64.0458917,9.0044603 C63.1195353,8.60467 62.1212534,8.40477194 61.1145605,8.41748439 C58.0723806,8.41748439 55.8800405,10.353256 55.8800405,14 C55.8800405,17.3220339 57.8137338,19.470116 61.0899275,19.470116 C62.1063826,19.4849886 63.1155357,19.293921 64.0582082,18.9081178 L64.4523368,21.0811775 Z" id="path20"></path>
                <polygon id="path22" points="73 0 73 27.9500446 66.3121309 27.9500446 66.3121309 25.4522748 69.859288 25.4522748 69.859288 2.49776985 66.3121309 2.49776985 66.3121309 0"></polygon>
            </g>
        </g>
    </g>
</svg>