<?xml version="1.0" encoding="UTF-8"?>
<svg width="142px" height="26px" viewBox="0 0 142 26" version="1.1" xmlns="http://www.w3.org/2000/svg" xmlns:xlink="http://www.w3.org/1999/xlink">
    <title>oculus</title>
    <g id="Page-1" stroke="none" stroke-width="1" fill="none" fill-rule="evenodd" fill-opacity="0.85">
        <g id="App-Development" transform="translate(-319.000000, -5875.000000)" fill="#000000" fill-rule="nonzero">
            <g id="oculus" transform="translate(319.000000, 5875.000000)">
                <path d="M38.2888581,2.94671158 C36.7704114,1.73327719 35.0348631,0.888251932 33.1475543,0.433249126 C32.0628893,0.173327719 30.9782243,0.0649803515 29.8717788,0.0216133351 C29.0473547,0 28.2230711,0 27.3987875,0 C23.5156895,0 19.6108111,0 15.7277132,0 C14.9034296,0 14.0790054,0 13.2547219,0.0216133351 C12.1484169,0.0649803515 11.0637519,0.173327719 9.97894635,0.433249126 C8.09163764,0.888251932 6.35608928,1.73327719 4.83764256,2.94671158 C1.77882816,5.39505333 0,9.10005614 0,13 C0,16.9216975 1.77882816,20.605087 4.83764256,23.0534288 C6.35608928,24.2667228 8.09163764,25.1117481 9.97894635,25.5667509 C11.0636114,25.8268126 12.1484169,25.9350196 13.2547219,25.9783867 C14.079146,26 14.9035701,26 15.7277132,26 C19.6109517,26 23.5158301,26 27.3987875,26 C28.2232116,26 29.0474952,26 29.8717788,25.9783867 C30.9782243,25.9350196 32.0628893,25.8266723 33.1475543,25.5667509 C35.0348631,25.1117481 36.7704114,24.2667228 38.2888581,23.0534288 C41.3476725,20.605087 43.1266412,16.9000842 43.1266412,13 C43.1266412,9.07830246 41.3476725,5.39505333 38.2888581,2.94671158 Z M32.6051516,16.4884484 C32.019469,16.8784709 31.3903661,17.1167789 30.6962029,17.2251263 C30.0020398,17.3334737 29.3295166,17.31172 28.6353534,17.31172 C23.9278313,17.31172 19.1986693,17.31172 14.4911472,17.31172 C13.7969841,17.31172 13.1244609,17.3333333 12.4302977,17.2251263 C11.7361346,17.1167789 11.1070317,16.8784709 10.5213491,16.4884484 C9.37148335,15.6867902 8.67746074,14.3867621 8.67746074,13 C8.67746074,11.5917649 9.37162387,10.2915965 10.5213491,9.51155158 C11.1071722,9.12166947 11.7361346,8.88322106 12.4302977,8.77501403 C13.1244609,8.66652632 13.7971246,8.68828 14.4911472,8.68828 C19.1986693,8.68828 23.9278313,8.68828 28.6353534,8.68828 C29.3295166,8.68828 30.0020398,8.66652632 30.6962029,8.77501403 C31.3903661,8.88322106 32.019469,9.12166947 32.6051516,9.51155158 C33.7550173,10.3132098 34.4491805,11.6133782 34.4491805,13 C34.4491805,14.4083754 33.7550173,15.7084035 32.6051516,16.4884484 Z" id="Shape"></path>
                <path d="M63.7496803,5.52150914 C61.7959668,5.51467027 59.8857153,6.2548973 58.4950699,7.67913514 C57.1023483,9.10548108 56.3909004,11.0526703 56.3840712,13.0328865 C56.3774743,15.0133838 57.0757729,16.9656324 58.4585286,18.4019568 C59.839485,19.8358919 61.744892,20.5896108 63.6987439,20.5962638 C65.652319,20.6031027 67.5627089,19.8630162 68.9534927,18.4386378 C70.3460758,17.0122919 71.0575238,15.0651027 71.0640781,13.0848865 C71.0708115,11.1043892 70.3723745,9.15214054 68.9894803,7.71581622 C67.6086623,6.28188108 65.7035322,5.5283027 63.7496803,5.52150914 Z M67.6651353,13.9421838 C67.6133684,14.2191892 67.5368255,14.4914162 67.4343991,14.7532432 C67.3373709,15.0021405 67.2169507,15.2421838 67.0730002,15.466627 C66.9350014,15.6824973 66.7756869,15.8843135 66.5974097,16.0668757 C66.419963,16.2488757 66.2234151,16.4116216 66.0128874,16.5528649 C65.7955775,16.6986054 65.5634572,16.8210162 65.3219248,16.9195351 C65.0701497,17.0221297 64.8085473,17.0991459 64.5416851,17.1504432 C64.2679023,17.2031459 63.9888596,17.2285838 63.7100939,17.2278952 C63.4313281,17.2268973 63.1527007,17.1990703 62.8789179,17.1445405 C62.6128862,17.0915568 62.3514221,17.0128541 62.1004776,16.9084324 C61.8594988,16.8083676 61.628209,16.6841297 61.411868,16.5369838 C61.2024476,16.3943351 61.0071454,16.2300432 60.830806,16.0470595 C60.6534977,15.8629514 60.4955673,15.6600108 60.3590911,15.4434378 C60.21694,15.2177297 60.0980424,14.9769838 60.0023983,14.7272432 C59.9017713,14.4644324 59.8273046,14.1916432 59.7773371,13.9143568 C59.7258471,13.6276541 59.7007942,13.336173 59.701736,13.0446919 C59.702732,12.7532108 59.7295843,12.4620108 59.7832889,12.1757297 C59.8350558,11.8987243 59.9115987,11.6264973 60.0137482,11.3646703 C60.1111917,11.115773 60.2316119,10.8757297 60.3751472,10.6512865 C60.5132843,10.4354162 60.6725988,10.2336 60.8510145,10.0508973 C61.028738,9.86903784 61.2251475,9.70629189 61.4356752,9.56504865 C61.6527083,9.41930811 61.8851054,9.2968973 62.1264994,9.19837838 C62.3782744,9.09578378 62.6402921,9.01876757 62.9067391,8.96747027 C63.1807988,8.91476757 63.4595645,8.88904865 63.7383303,8.89000525 C64.0170961,8.89101622 64.2958619,8.9187027 64.5695063,8.97337297 C64.8358149,9.02635676 65.0968636,9.10505946 65.348085,9.20948108 C65.5889254,9.30954595 65.8203536,9.43378378 66.0364178,9.58092973 C66.2458382,9.72357838 66.4414172,9.88758919 66.617895,10.0708541 C66.7950649,10.2548216 66.9528569,10.4579027 67.0894715,10.6744757 C67.231761,10.9001838 67.3505202,11.1409297 67.4460259,11.3906703 C67.5466529,11.6532 67.6213964,11.9261297 67.6710871,12.2034162 C67.7227155,12.4899784 67.74763,12.7816 67.7468196,13.0730811 C67.7455538,13.3645622 67.7185631,13.6559027 67.6651353,13.9421838 Z" id="Shape"></path>
                <path d="M123.655256,12.6372649 C123.652626,13.0340108 123.650965,13.4439676 123.625358,13.8401514 C123.608472,14.0956541 123.580927,14.3552324 123.53442,14.6072216 C123.446527,15.0811243 123.29358,15.5373189 123.035023,15.9484 C122.408284,16.9456757 121.307478,17.4354595 120.187708,17.4500757 C119.050084,17.4646919 117.968102,16.9910703 117.35908,15.9580973 C117.112426,15.5399892 116.968199,15.0805622 116.878091,14.6079243 C116.757394,13.9729622 116.728604,13.3079243 116.71324,12.6660757 C116.703551,12.2472649 116.700506,11.8287351 116.698707,11.4097838 C116.695247,10.6969622 116.695385,9.95687568 116.695247,9.24391351 C116.695108,8.1112973 116.695108,6.94663784 116.695108,5.8188 C115.569526,5.8188 114.444081,5.8188 113.318499,5.8188 C113.318499,6.94663784 113.316976,10.4990811 113.323759,11.6718919 C113.326942,12.2329297 113.331787,12.8077405 113.34895,13.3687784 C113.361407,13.7790162 113.380508,14.1950162 113.416357,14.6039892 C113.501759,15.5747027 113.678098,16.5234919 114.113964,17.4138162 C115.007426,19.2391568 116.742584,20.2961622 118.677335,20.5286162 C119.626716,20.6427351 120.601289,20.557427 121.517867,20.2840757 C122.39818,20.0215459 123.332197,19.5521405 123.986757,18.8654595 C124.018177,19.3274162 124.050151,19.8039892 124.081848,20.2551243 C125.066525,20.2551243 126.140479,20.2551243 127.029097,20.2551243 C127.029097,15.5182054 127.029097,10.5557189 127.029097,5.8188 C125.918324,5.8188 124.785267,5.8188 123.659685,5.8188 C123.659685,6.72107027 123.661207,11.7151784 123.655256,12.6372649 Z" id="Path"></path>
                <path d="M141.782367,14.6013189 C141.291413,13.2068757 140.093024,12.3529514 138.832488,11.8509405 C138.120071,11.5674703 137.386477,11.3920757 136.644301,11.2252541 C136.318475,11.1518919 135.992648,11.0803568 135.66959,10.9936432 C135.39207,10.9191568 135.120087,10.8353946 134.855577,10.7187459 C134.574182,10.5943676 134.285727,10.4244541 134.085857,10.1726054 C133.917684,9.96095135 133.828546,9.70558919 133.860381,9.42914595 C133.898306,9.10281081 134.090563,8.83578378 134.331819,8.63930811 C134.501653,8.50087568 134.685051,8.40221622 134.886997,8.32309189 C135.148461,8.22091892 135.412832,8.16301622 135.68966,8.13069189 C136.240133,8.06618378 136.80237,8.11185946 137.341216,8.22597838 C138.157582,8.39926486 138.915675,8.72925405 139.623247,9.16774054 C140.186039,8.38436757 140.748691,7.60141622 141.311898,6.81818378 C140.183962,5.99264865 138.902526,5.46014054 137.527244,5.24947027 C136.759877,5.13225946 135.976454,5.11820541 135.206042,5.22136216 C134.604633,5.30217297 134.035336,5.44664865 133.474344,5.68486486 C132.731892,6.0000973 132.077885,6.45516757 131.564785,7.09659459 C131.19688,7.55686486 130.926281,8.08557838 130.771396,8.65771892 C130.580523,9.36463784 130.574571,10.1110486 130.793957,10.8161405 C130.995488,11.464173 131.36796,12.0149514 131.869988,12.4575135 C132.922626,13.3852216 134.392721,13.7220973 135.657963,13.9995243 C136.101026,14.0964973 136.544228,14.1896757 136.980647,14.3167243 C137.334572,14.4196 137.703307,14.551427 138.022905,14.7460757 C138.274403,14.8987027 138.505416,15.0967243 138.659055,15.3584108 C138.789165,15.5803243 138.852143,15.8310486 138.827228,16.0903459 C138.804113,16.3310919 138.708192,16.5520216 138.563688,16.7409081 C138.392055,16.9653514 138.162149,17.1337189 137.91508,17.2573946 C137.589807,17.42 137.232422,17.5081189 136.876837,17.5535135 C136.382699,17.6168973 135.865169,17.6032649 135.373107,17.5418486 C134.823742,17.4735459 134.300122,17.3446703 133.781346,17.1486162 C132.988234,16.8492649 132.294642,16.4291892 131.628317,15.9077838 C131.027738,16.7222162 130.427437,17.536227 129.827412,18.3506595 C130.899567,19.2546162 132.110413,19.9171243 133.454413,20.3038919 C134.197419,20.5179351 134.938903,20.6380973 135.710837,20.6671892 C136.331347,20.6903784 136.938154,20.6536973 137.550636,20.5453405 C138.332952,20.4070486 139.101288,20.1546378 139.789067,19.7361081 C140.292894,19.4298703 140.731528,19.0460541 141.090574,18.5718703 C141.552046,17.9622054 141.854481,17.2377189 141.959399,16.4757081 C142.047015,15.8436973 141.994971,15.2056432 141.782367,14.6013189 Z" id="Path"></path>
                <path d="M81.9909833,17.0998486 C81.2035461,17.2783351 80.3647574,17.255427 79.5930994,16.9993622 C78.8114755,16.7399243 78.1457042,16.2567459 77.6694217,15.5709081 C77.1999214,14.8954703 76.9539598,14.079773 76.9098057,13.2640757 C76.8659285,12.4554054 77.0205369,11.6048541 77.3946699,10.8805081 C77.788873,10.1170919 78.3743642,9.58767568 79.1492057,9.24911351 C79.4791846,9.10463784 79.8147002,9.00696216 80.1687631,8.94667027 C80.6242836,8.86895135 81.0676236,8.85981622 81.5257739,8.91603243 C82.3454616,9.01694054 83.0927587,9.31854054 83.7821988,9.76602162 C84.4607042,8.89143784 85.1394864,8.01685405 85.8179918,7.14227027 C84.6432722,6.20261622 83.3179583,5.6583027 81.8319457,5.49738378 C80.3935475,5.34138378 78.8924477,5.56667027 77.5766843,6.20078919 C76.2350375,6.84741622 75.172987,7.87476757 74.4731658,9.20526486 C73.786494,10.5103243 73.4956862,12.0202919 73.5650316,13.4852865 C73.6345154,14.9557622 74.0683049,16.4189297 74.9102772,17.6386811 C75.7626306,18.874173 76.9581122,19.7498811 78.3547094,20.2353081 C79.7270841,20.7121622 81.2446551,20.7925514 82.6600766,20.4882811 C84.0921077,20.1804973 85.4116083,19.482573 86.431581,18.3971784 C85.6600614,17.5885081 84.8881266,16.7796973 84.1164686,15.971027 C83.519489,16.5372649 82.7852028,16.9196757 81.9909833,17.0998486 Z" id="Path"></path>
                <rect id="Rectangle" x="106.146578" y="0.0427243243" width="3.55447129" height="20.2124"></rect>
                <path d="M98.8511916,12.6372649 C98.8487001,13.0340108 98.8469008,13.4439676 98.8212942,13.8401514 C98.8045461,14.0956541 98.7768633,14.3552324 98.7303562,14.6072216 C98.6426017,15.0811243 98.4895158,15.5373189 98.2310969,15.9484 C97.60422,16.9456757 96.5032751,17.4354595 95.3836443,17.4500757 C94.2461581,17.4646919 93.1641759,16.9910703 92.555016,15.9580973 C92.3083622,15.5399892 92.1641349,15.0805622 92.0743042,14.6079243 C91.9536072,13.9729622 91.9246787,13.3079243 91.9094531,12.6660757 C91.8997641,12.2472649 91.8965806,11.8287351 91.8949196,11.4097838 C91.8913209,10.6969622 91.8917361,9.95687568 91.8913209,9.24391351 C91.8910441,8.1112973 91.8910441,6.94663784 91.8910441,5.8188 C90.7654615,5.8188 89.6400173,5.8188 88.5144347,5.8188 C88.5144347,6.94663784 88.5129122,10.4990811 88.5196945,11.6718919 C88.5230164,12.2329297 88.5277225,12.8077405 88.5447474,13.3687784 C88.5573431,13.7790162 88.5764442,14.1950162 88.6122934,14.6039892 C88.6975565,15.5747027 88.8740343,16.5234919 89.3098999,17.4138162 C90.2035007,19.2391568 91.9383816,20.2961622 93.8731324,20.5286162 C94.8226524,20.6427351 95.7970869,20.557427 96.7136643,20.2840757 C97.5939773,20.0215459 98.5279949,19.5521405 99.1824163,18.8654595 C99.2139747,19.3274162 99.2458099,19.8039892 99.2775067,20.2551243 C100.262322,20.2551243 101.258765,20.2551243 102.147382,20.2551243 C102.147382,15.5182054 102.147382,10.5557189 102.147382,5.8188 C101.03661,5.8188 99.9809266,5.8188 98.855344,5.8188 C98.8557593,6.72107027 98.8572818,11.7151784 98.8511916,12.6372649 Z" id="Path"></path>
            </g>
        </g>
    </g>
</svg>