<?xml version="1.0" encoding="UTF-8"?>
<svg width="58px" height="30px" viewBox="0 0 58 30" version="1.1" xmlns="http://www.w3.org/2000/svg" xmlns:xlink="http://www.w3.org/1999/xlink">
    <title>php-1</title>
    <g id="Page-1" stroke="none" stroke-width="1" fill="none" fill-rule="evenodd">
        <g id="App-Development" transform="translate(-548.000000, -5870.000000)" fill-rule="nonzero">
            <g id="php-1" transform="translate(548.000000, 5870.000000)">
                <ellipse id="Oval" fill-opacity="0.85" fill="#000000" cx="29" cy="15" rx="29" ry="15"></ellipse>
                <path d="M22.69975,19.7368303 L25.8777422,3.75011256 L29.6518203,3.75011256 L28.8572656,7.89464205 L32.4324219,7.89464205 C35.6106406,8.09207564 36.8023594,9.67086898 36.4051953,11.6447546 L35.0147813,19.7368303 L31.0422344,19.7368303 L32.4326484,12.4342638 C32.6311172,11.447321 32.6311172,10.8552454 31.2409297,10.8552454 L28.2614063,10.8552454 L26.4738281,19.7368303 L22.69975,19.7368303 L22.69975,19.7368303 Z" id="Shape" fill="#FFFFFF"></path>
                <path d="M18.6710156,7.89464205 C21.8490078,8.09207564 23.4381172,9.67086898 23.4381172,12.4342638 C23.4381172,17.1710941 19.6642656,19.9342638 16.2873516,19.7368303 L12.7124219,19.7368303 L11.9178672,23.8815849 L8.14378906,23.8815849 L11.3220078,7.89464205 L18.6710156,7.89464205 Z M17.0821328,10.8552454 L14.5,10.8552454 L13.50675,16.776452 L15.8904141,16.776452 C17.6779922,16.5790185 19.2671016,15.9869428 19.4655703,12.6314723 C19.4655703,11.447321 18.4725469,10.8552454 17.0821328,10.8552454 L17.0821328,10.8552454 Z" id="Combined-Shape" fill="#FFFFFF"></path>
                <path d="M45.2875781,7.89464205 C48.4657969,8.09207564 50.0549063,9.67086898 50.0549063,12.4342638 C50.0549063,17.1710941 46.2808281,19.9342638 42.9041406,19.7368303 L39.3287578,19.7368303 L38.5342031,23.8815849 L34.7603516,23.8815849 L37.9383438,7.89464205 L45.2875781,7.89464205 Z M43.6986953,10.8552454 L41.1163359,10.8552454 L40.1233125,16.776452 L42.5069766,16.776452 C44.2945547,16.5790185 45.8836641,15.9869428 46.0821328,12.6314723 C46.0821328,11.447321 45.0891094,10.8552454 43.6986953,10.8552454 L43.6986953,10.8552454 Z" id="Combined-Shape" fill="#FFFFFF"></path>
            </g>
        </g>
    </g>
</svg>