<?xml version="1.0" encoding="UTF-8"?>
<svg width="32px" height="32px" viewBox="0 0 32 32" version="1.1" xmlns="http://www.w3.org/2000/svg" xmlns:xlink="http://www.w3.org/1999/xlink">
    <title>2</title>
    <g id="2" stroke="none" stroke-width="1" fill="none" fill-rule="evenodd">
        <g id="iconfinder_904097_exellent_quality_seal_seller_shop_icon" transform="translate(7.000000, 3.000000)" fill="#000000" fill-rule="nonzero">
            <path d="M17,8.71537593 C17,3.90971764 13.1869,0 8.5,0 C3.8131,0 0,3.90971764 0,8.71537593 C0,11.428182 1.21521667,13.8548331 3.11666667,15.4543951 L3.11666667,26 L8.5,22.7529414 L13.8833333,26 L13.8833333,15.4543951 C15.7847833,13.8548331 17,11.428182 17,8.71537593 Z M1.13333333,8.71537593 C1.13333333,4.55058829 4.43785,1.16205012 8.5,1.16205012 C12.56215,1.16205012 15.8666667,4.55058829 15.8666667,8.71537593 C15.8666667,12.8801636 12.56215,16.2687017 8.5,16.2687017 C4.43785,16.2687017 1.13333333,12.8801636 1.13333333,8.71537593 Z M12.75,23.9681554 L8.5,21.4049633 L4.25,23.9681554 L4.25,16.2582433 C5.5012,17.0022459 6.95243333,17.4307519 8.5,17.4307519 C10.0475667,17.4307519 11.4988,17.0022459 12.75,16.2582433 L12.75,23.9681554 Z M5.20001667,13.5541527 L8.5,11.7753444 L11.7999833,13.5544432 L11.16985,9.78649564 L13.8397,7.11813804 L10.1501333,6.56819782 L8.5,3.13985944 L6.84986667,6.5679073 L3.1603,7.11784753 L5.83015,9.78620512 L5.20001667,13.5541527 Z M5.59555,7.92924903 L7.6024,7.63031163 L8.5,5.76551169 L9.3976,7.63002112 L11.40445,7.92895851 L9.95208333,9.38035912 L10.2949167,11.429925 L8.5,10.4622278 L6.70508333,11.429925 L7.04791667,9.38035912 L5.59555,7.92924903 Z" id="Shape"></path>
        </g>
    </g>
</svg>