<?xml version="1.0" encoding="UTF-8"?>
<svg width="32px" height="32px" viewBox="0 0 32 32" version="1.1" xmlns="http://www.w3.org/2000/svg" xmlns:xlink="http://www.w3.org/1999/xlink">
    <title>4</title>
    <g id="4" stroke="none" stroke-width="1" fill="none" fill-rule="evenodd" opacity="0.85">
        <g id="iconfinder_290143_cash_money_payment_wallet_icon" transform="translate(5.000000, 6.000000)" fill="#000000" fill-rule="nonzero" stroke="#000000" stroke-width="0.2">
            <path d="M22,16.6825871 L22,16.6825871 C22,17.962726 20.9296522,19 19.6086957,19 L19.6086957,19 L2.39130435,19 L2.39130435,19 C1.07034783,19 0,17.962726 0,16.6825871 L0,3.24159241 C0,2.2177594 0.856565217,1.38766211 1.91304348,1.38766211 L1.91304348,1.38766211 L11.5600435,1.38766211 L15.4334783,0.0278042318 C15.6788261,-0.0588670099 15.9504783,0.0639558728 16.039913,0.300795469 L16.4478696,1.38766211 L18.173913,1.38766211 C19.2303913,1.38766211 20.0869565,2.2177594 20.0869565,3.24159241 L20.0869565,4.16855757 L20.0869565,4.16855757 C21.1434348,4.16855757 22,4.99865486 22,6.02248787 L22,16.6825871 Z M1.91304348,2.31462726 L1.91304348,2.31462726 C1.38504348,2.31462726 0.956521739,2.72990765 0.956521739,3.24159241 C0.956521739,3.75327718 1.38504348,4.16855757 1.91304348,4.16855757 L3.56065217,4.16855757 L3.56065217,4.16855757 L3.65104348,4.16855757 C3.65726087,4.16624015 3.66108696,4.16114185 3.66730435,4.15882443 L8.91956522,2.31462726 L1.91304348,2.31462726 Z M15.819913,2.39851761 L15.312,1.04329456 L15.3115217,1.04329456 L15.3115217,1.04329456 L14.3306087,1.38766211 L14.3320435,1.38766211 L11.694913,2.31462726 L11.6901304,2.31462726 L6.4106087,4.16855757 L16.4837391,4.16855757 L15.819913,2.39851761 Z M19.1304348,3.24159241 C19.1304348,2.72990765 18.701913,2.31462726 18.173913,2.31462726 L16.795087,2.31462726 L17.4904783,4.16855757 L19.1304348,4.16855757 L19.1304348,4.16855757 L19.1304348,3.24159241 Z M20.0869565,5.09552272 L1.91304348,5.09552272 L1.91304348,5.09552272 C1.56295652,5.09552272 1.23869565,4.99772789 0.956521739,4.83828989 L0.956521739,16.6825871 C0.956521739,17.4505777 1.59930435,18.0730348 2.39130435,18.0730348 L19.6086957,18.0730348 C20.4011739,18.0730348 21.0434783,17.4505777 21.0434783,16.6825871 L21.0434783,13.4382091 L19.1304348,13.4382091 C18.0739565,13.4382091 17.2173913,12.6081118 17.2173913,11.5842788 C17.2173913,10.5604458 18.0739565,9.73034848 19.1304348,9.73034848 L21.0434783,9.73034848 L21.0434783,6.02248787 C21.0434783,5.51080311 20.6149565,5.09552272 20.0869565,5.09552272 Z M21.0434783,12.5112439 L21.0434783,10.6573136 L19.1304348,10.6573136 C18.6024348,10.6573136 18.173913,11.072594 18.173913,11.5842788 C18.173913,12.0959635 18.6024348,12.5112439 19.1304348,12.5112439 L21.0434783,12.5112439 Z M19.1304348,11.1207962 L20.0869565,11.1207962 L20.0869565,12.0477614 L19.1304348,12.0477614 L19.1304348,11.1207962 Z" id="Shape"></path>
        </g>
    </g>
</svg>