<?xml version="1.0" encoding="UTF-8"?>
<svg width="32px" height="32px" viewBox="0 0 32 32" version="1.1" xmlns="http://www.w3.org/2000/svg" xmlns:xlink="http://www.w3.org/1999/xlink">
    <title>1</title>
    <g id="1" stroke="none" stroke-width="1" fill="none" fill-rule="evenodd" stroke-opacity="0.85">
        <g id="iconfinder_2728475_clean_cleaning_house_housekeeping_icon" transform="translate(3.000000, 2.000000)" stroke="#000000" stroke-width="1.2">
            <g id="Group" transform="translate(3.991487, 6.342357)" stroke-linejoin="round">
                <polyline id="Path" stroke-linecap="round" points="5.56284868 2.59674009 2.87415737 6.56337917 0 6.56337917 4.30311483 0 8.0199907 6.56337917 18.6142201 6.56337917 14.9207636 0 4.30311483 0"></polyline>
                <line x1="2.75668294" y1="6.64575699" x2="2.75668294" y2="10.9709602" id="Path"></line>
                <line x1="16.2703975" y1="6.59169655" x2="16.2703975" y2="11.0606932" id="Path"></line>
                <line x1="10.1605939" y1="6.59169655" x2="10.1605939" y2="11.584013" id="Path"></line>
            </g>
            <line x1="13.6519642" y1="2.54488619" x2="13.6685844" y2="0" id="Path" stroke-linecap="round" stroke-linejoin="round"></line>
            <g id="Group" transform="translate(1.320171, 4.899274)" stroke-linecap="round" stroke-linejoin="round">
                <line x1="22.8096815" y1="1.9520601" x2="24.6798291" y2="0.154826169" id="Path"></line>
                <line x1="1.87279172" y1="1.84724904" x2="0" y2="0" id="Path"></line>
            </g>
            <g id="Group" transform="translate(6.981607, 1.238242)" stroke-linecap="round" stroke-linejoin="round">
                <line x1="1.01458624" y1="2.4386041" x2="0" y2="0.110327436" id="Path"></line>
                <line x1="12.3684333" y1="2.38049831" x2="13.3569561" y2="0" id="Path"></line>
            </g>
            <g id="Group" transform="translate(0.000000, 17.834055)">
                <path d="M18.4786146,2.53606761 L23.0703161,0.25118641 C23.9579847,-0.212924338 24.9986344,-0.0268387294 25.4281148,0.750969695 C25.8560844,1.52877812 25.4806195,2.54526156 24.592951,3.00937231 L15.0654347,7.9814621 L14.5615411,8.10429331 L5.67616806,8.33818747 C5.67616806,8.33818747 4.53201999,8.65041412 3.15745583,10.1659453" id="Path" stroke-linejoin="round"></path>
                <path d="M0,5.61824842 L4.03039284,2.00612816 C6.00026151,0.713090609 8.33577406,1.42654136 8.33577406,1.42654136 C9.46670153,1.71670252 11.5672652,1.78216346 11.5672652,1.78216346 L15.0544805,1.78216346 C16.0932415,1.78216346 16.9431369,2.50407265 16.9431369,3.3870599 C16.9431369,4.27004715 16.0932415,4.99195634 15.0544805,4.99195634 L10.2304742,4.99195634" id="Path"></path>
            </g>
        </g>
    </g>
</svg>