<?xml version="1.0" encoding="UTF-8"?>
<svg width="108px" height="38px" viewBox="0 0 108 38" version="1.1" xmlns="http://www.w3.org/2000/svg" xmlns:xlink="http://www.w3.org/1999/xlink">
    <title>react</title>
    <g id="Page-1" stroke="none" stroke-width="1" fill="none" fill-rule="evenodd">
        <g id="App-Development" transform="translate(-315.000000, -5214.000000)">
            <g id="react" transform="translate(317.000000, 5216.000000)">
                <g id="Group">
                    <ellipse id="Oval" fill-opacity="0.85" fill="#000000" fill-rule="nonzero" cx="19.3844266" cy="16.9663047" rx="3.61631083" ry="3.58484139"></ellipse>
                    <g id="Path" stroke="#000000" stroke-opacity="0.85" stroke-width="1.6">
                        <path d="M19.3844987,9.67757267 C24.2398863,9.67757267 28.7504172,10.3682158 32.1513367,11.5288392 C36.2489621,12.9272753 38.7683486,15.0469386 38.7683486,16.9663047 C38.7683486,18.9664186 36.0983035,21.2182795 31.6979913,22.6635207 C28.3712477,23.756116 23.9934983,24.326495 19.3844987,24.326495 C14.659009,24.326495 10.1842326,23.7911305 6.82000454,22.6515158 C2.56364699,21.2093472 1.02439587e-15,18.9283314 1.02439587e-15,16.9663047 C1.02439587e-15,15.0625165 2.40549151,12.9592171 6.44552062,11.5629247 C9.85912717,10.3831505 14.48103,9.67757267 19.3838499,9.67757267 L19.3844987,9.67757267 Z"></path>
                        <path d="M12.9837431,13.3429474 C15.4094186,9.17350683 18.266165,5.64518884 20.9794614,3.30450543 C24.2485366,0.484337777 27.3595284,-0.620119507 29.0367406,0.338634593 C30.7846686,1.33783401 31.4185881,4.75574915 30.4832794,9.25632683 C29.7768419,12.6590214 28.0875915,16.7031244 25.785038,20.6610488 C23.4242395,24.7190146 20.721035,28.2942092 18.0447185,30.6131693 C14.658144,33.5478129 11.3840228,34.6098241 9.66947034,33.6296325 C8.00573813,32.679239 7.36951194,29.5622342 8.16764205,25.3952946 C8.84200145,21.8745512 10.5343516,17.5531191 12.9829502,13.342876 L12.9837431,13.3429474 Z"></path>
                        <path d="M12.9897983,20.6716961 C10.5572748,16.5069717 8.90111152,12.2905831 8.20981204,8.79142006 C7.37765759,4.57538876 7.96601905,1.35191127 9.64171745,0.3903703 C11.3879154,-0.611758903 14.6916637,0.550722405 18.1578927,3.6016999 C20.7786313,5.90836923 23.4697254,9.37816299 25.7789828,13.3323716 C28.1465574,17.3864073 29.9210128,21.4936078 30.6113031,24.9501818 C31.4847625,29.32435 30.7778205,32.6665195 29.0648539,33.6494979 C27.4027797,34.6033214 24.3612782,33.5934747 21.1181538,30.8269007 C18.3779695,28.4895043 15.4463263,24.8777947 12.9897983,20.6716246 L12.9897983,20.6716961 Z"></path>
                    </g>
                </g>
                <path d="M59.5263181,26.1252861 L55.093812,19.4869388 C57.3339965,19.2909652 59.3525556,17.681919 59.3525556,14.7423152 C59.3525556,11.7511394 57.2112181,9.83678693 54.2073108,9.83678693 L47.6105764,9.83678693 L47.6105764,26.1129089 L49.6541074,26.1129089 L49.6541074,19.6457806 L52.9285432,19.6457806 L57.1134116,26.1129089 L59.5263181,26.1252861 Z M53.9627946,17.8768611 L49.6551479,17.8768611 L49.6551479,11.6541841 L53.9627946,11.6541841 C55.9085191,11.6541841 57.2372305,12.9228552 57.2372305,14.753661 C57.2372305,16.5844669 55.9074787,17.878924 53.9627946,17.878924 L53.9627946,17.8768611 Z M67.1333726,26.4171836 C69.0790971,26.4171836 70.678337,25.7828481 71.8603386,24.6121638 L70.9738374,23.4156935 C70.0373924,24.3677125 68.6597779,24.9040613 67.3060947,24.9040613 C64.7464785,24.9040613 63.1701295,23.0495323 63.0223793,20.8298736 L72.6469524,20.8298736 L72.6469524,20.3657256 C72.6469524,16.8278867 70.5295463,14.0450618 66.9346382,14.0450618 C63.537424,14.0450618 61.0766548,16.8031322 61.0766548,20.2192612 C61.0766548,23.904596 63.6123396,26.4079007 67.1323321,26.4079007 L67.1333726,26.4171836 Z M70.8271277,19.4859074 L63.0234198,19.4859074 C63.1222667,17.6808875 64.3760625,15.5561213 66.9127878,15.5561213 C69.6211947,15.5561213 70.8021558,17.7283338 70.8271277,19.4859074 Z M84.9091787,26.1242547 L84.9091787,18.0222941 C84.9091787,15.1672684 82.817785,14.0440304 80.3060316,14.0440304 C78.3603071,14.0440304 76.8349423,14.6783659 75.5551342,15.9965461 L76.4166635,17.2652172 C77.4748463,16.1430106 78.6329166,15.630385 80.0604749,15.630385 C81.7835336,15.630385 83.0643822,16.5328949 83.0643822,18.1192495 L83.0643822,20.2419528 C82.1040059,19.1434693 80.7503227,18.6308437 79.1250704,18.6308437 C77.1065113,18.6308437 74.9630929,19.8757917 74.9630929,22.5111207 C74.9630929,25.0732174 77.1044303,26.4161522 79.1250704,26.4161522 C80.7253508,26.4161522 82.0800745,25.8550489 83.0643822,24.7813199 L83.0643822,26.1221918 L84.9091787,26.1242547 Z M79.7899464,25.0990034 C78.0668876,25.0990034 76.8599142,24.0263059 76.8599142,22.5369067 C76.8599142,21.0237843 78.0668876,19.9500553 79.7899464,19.9500553 C81.0947263,19.9500553 82.3495625,20.4379264 83.0643822,21.4147 L83.0643822,23.6353902 C82.350603,24.6111323 81.0947263,25.1000349 79.7899464,25.1000349 L79.7899464,25.0990034 Z M93.8366206,26.4171836 C96.0029299,26.4171836 97.282738,25.5383968 98.1942111,24.3677125 L96.9633062,23.2455059 C96.175652,24.2944803 95.1663724,24.7823514 93.9458725,24.7823514 C91.4101877,24.7823514 89.8359197,22.8298356 89.8359197,20.2192612 C89.8359197,17.6086867 91.4112282,15.6809255 93.9458725,15.6809255 C95.1767774,15.6809255 96.1860569,16.1450735 96.9633062,17.217771 L98.1942111,16.0955644 C97.2837785,14.9238486 96.0029299,14.0460932 93.8366206,14.0460932 C90.2916562,14.0460932 87.9037216,16.7309314 87.9037216,20.2202926 C87.9037216,23.7344084 90.2916562,26.4089321 93.8366206,26.4089321 L93.8366206,26.4171836 Z M103.783747,26.4171836 C104.865861,26.4171836 105.531778,26.0995001 106,25.6611382 L105.458943,24.2944803 C105.212346,24.5626547 104.730597,24.7823514 104.203066,24.7823514 C103.391481,24.7823514 102.996093,24.1480158 102.996093,23.269229 L102.996093,15.9480685 L105.41004,15.9480685 L105.41004,14.3379907 L102.996093,14.3379907 L102.996093,11.1168039 L101.149215,11.1168039 L101.149215,14.3379907 L99.1795593,14.3379907 L99.1795593,15.9490999 L101.149215,15.9490999 L101.149215,23.6611762 C101.149215,25.4187498 102.035716,26.4192465 103.783747,26.4192465 L103.783747,26.4171836 Z" id="Shape" fill-opacity="0.85" fill="#000000"></path>
            </g>
        </g>
    </g>
</svg>