<?xml version="1.0" encoding="UTF-8"?>
<svg width="140px" height="36px" viewBox="0 0 140 36" version="1.1" xmlns="http://www.w3.org/2000/svg" xmlns:xlink="http://www.w3.org/1999/xlink">
    <title>selenium</title>
    <g id="Page-1" stroke="none" stroke-width="1" fill="none" fill-rule="evenodd" fill-opacity="0.85">
        <g id="App-Development" transform="translate(-968.000000, -5812.000000)" fill="#000000">
            <g id="selenium" transform="translate(968.000000, 5812.000000)">
                <g id="selenium-seeklogo.com" fill-rule="nonzero">
                    <path d="M27.4397899,0.000397355251 C27.5165654,-0.00438630177 27.5894117,0.034324103 27.627579,0.10018824 C27.6657464,0.166052377 27.6625836,0.247592632 27.6194258,0.310389458 L27.6194258,0.310389458 L19.8501708,10.7172672 C19.7932333,10.7806412 19.7114872,10.81692 19.6256258,10.81692 C19.5397644,10.81692 19.4580183,10.7806412 19.4010808,10.7172672 L19.4010808,10.7172672 L16.6616326,7.70591536 C16.5947229,7.63742503 16.4999051,7.60258288 16.4038592,7.61119292 C16.3078134,7.61980295 16.2209216,7.67093449 16.1676337,7.75019994 L16.1676337,7.75019994 L14.5060011,9.8315755 C14.4534283,9.94877753 14.4706985,10.0850174 14.5509101,10.1858522 L14.5509101,10.1858522 L19.4908988,15.234295 C19.5478363,15.297669 19.6295824,15.3339479 19.7154438,15.3339479 C19.8013052,15.3339479 19.8830513,15.297669 19.9399888,15.234295 L19.9399888,15.234295 L29.6403303,4.47314057 C29.6976013,4.41244419 29.7863567,4.39182966 29.8650787,4.42093998 C29.9438008,4.45005031 29.9969254,4.52313012 29.9996022,4.60599433 L29.9996022,4.60599433 L29.9996022,30.7781848 C30.0033186,30.8379582 29.9808574,30.8964325 29.9379147,30.938778 C29.8949722,30.9811235 29.8356734,31.0032725 29.7750573,30.9996078 L29.7750573,30.9996078 L0.224942722,30.9996078 C0.164326576,31.0032725 0.105027768,30.9811235 0.0620851942,30.938778 C0.0191426208,30.8964325 -0.00331866931,30.8379582 0.000397779089,30.7781848 L0.000397779089,30.7781848 L0.000397779089,0.221820286 C-0.00331866931,0.16204693 0.0191426208,0.103572597 0.0620851942,0.0612270853 C0.105027768,0.0188815737 0.164326576,-0.00326742067 0.224942722,0.000397355251 L0.224942722,0.000397355251 L27.4397899,0.000397355251 Z M19.8052618,17.6699472 C18.4682705,17.6467647 17.1797394,18.1633482 16.2384471,19.0999152 C15.2971549,20.0364821 14.7848647,21.3116797 14.8203641,22.629821 C14.8203641,25.6854573 17.0658135,27.6339792 19.9848977,27.6339792 C21.33618,27.6671383 22.6612492,27.2627002 23.7572527,26.4825799 C23.8588516,26.3916078 23.8779256,26.2411375 23.8021618,26.1283032 L23.8021618,26.1283032 L22.9938,24.9326194 C22.9029169,24.8298601 22.748266,24.8107975 22.6345281,24.8883349 C21.931918,25.3614958 21.1049764,25.6230533 20.2543516,25.6411728 C18.682537,25.6411728 17.6945393,24.6669119 17.5149034,23.5155126 C17.5181631,23.4679922 17.556531,23.4301578 17.6047213,23.4269434 L17.6047213,23.4269434 L24.3859786,23.4269434 C24.5305497,23.4173003 24.6456535,23.303797 24.6554326,23.1612359 L24.6554326,23.1612359 L24.6554326,22.8955285 C24.6554326,19.7956074 22.679437,17.6699472 19.8052618,17.6699472 Z M13.1138224,15.987133 C11.7497894,14.8876775 10.0238526,14.3203642 8.26365169,14.3928879 C5.20984046,14.3928879 3.32366294,16.1642714 3.32366294,18.2899314 C3.32366294,23.1169514 10.7785551,21.5669909 10.7785551,23.8255048 C10.7785551,24.5340582 10.0600112,25.2426116 8.53310562,25.2426116 C7.08293004,25.2544112 5.68380981,24.715231 4.62602361,23.7369356 C4.56287241,23.6787146 4.47731985,23.6501894 4.39129653,23.6586722 C4.30527319,23.6671549 4.22714295,23.7118208 4.17693372,23.7812201 L4.17693372,23.7812201 L3.00930002,25.3754653 C2.93353618,25.4882995 2.95261017,25.6387699 3.054209,25.729742 C4.2667517,26.8368566 5.97329327,27.5896946 8.35346966,27.5896946 C11.8563708,27.5896946 13.5629123,25.8183111 13.6527303,23.5155126 C13.6527303,18.7327773 6.19783822,20.1055996 6.19783822,18.0685086 C6.19783822,17.3156705 6.87147304,16.7842556 8.03910674,16.7842556 C9.32624881,16.7668626 10.5798175,17.1893406 11.5869169,17.9799394 C11.6461245,18.02777 11.7223902,18.0500364 11.7984615,18.0417015 C11.8745327,18.0333667 11.9439817,17.9951349 11.9910977,17.9356547 L11.9910977,17.9356547 L13.1587315,16.3856943 C13.2072364,16.3273098 13.2298168,16.2521045 13.2213644,16.1770909 C13.2129121,16.1020773 13.1741413,16.033594 13.1138224,15.987133 Z M19.8501708,19.6184691 C21.071653,19.5510932 22.1261176,20.4535642 22.2303472,21.6555601 C22.2270875,21.7030804 22.1887195,21.7409148 22.1405292,21.7441292 L22.1405292,21.7441292 L17.5598123,21.7441292 C17.5116219,21.7409148 17.473254,21.7030804 17.4699943,21.6555601 C17.6201573,20.4771758 18.6459314,19.5992597 19.8501708,19.6184691 Z" id="Shape"></path>
                </g>
                <text id="Selenium" font-family="AppleSDGothicNeo-Light, Apple SD Gothic Neo" font-size="30" font-weight="300" letter-spacing="-1.39285714">
                    <tspan x="38" y="27">Selenium</tspan>
                </text>
            </g>
        </g>
    </g>
</svg>