<?xml version="1.0" encoding="UTF-8"?>
<svg width="107px" height="25px" viewBox="0 0 107 25" version="1.1" xmlns="http://www.w3.org/2000/svg" xmlns:xlink="http://www.w3.org/1999/xlink">
    <title>sketch</title>
    <g id="Page-1" stroke="none" stroke-width="1" fill="none" fill-rule="evenodd">
        <g id="App-Development" transform="translate(-551.000000, -5422.000000)" fill-rule="nonzero">
            <g id="sketch" transform="translate(551.000000, 5422.000000)">
                <path d="M36.0388073,16.5140044 L36.018167,16.2427906 L35.7413342,16.2427906 L34.0231078,16.2427906 L33.7123288,16.2427906 L33.7250549,16.5478555 C33.8668404,19.9466658 36.1991921,22.1978552 40.3471355,22.1978552 C44.303269,22.1978552 46.9933305,20.1785447 46.9933305,17.1219832 C46.9933305,15.4692273 46.4096847,14.2996286 45.2975249,13.5008713 C44.4420149,12.886441 43.419104,12.5401078 41.7228802,12.1787839 C41.6095466,12.1546419 41.4914165,12.1299309 41.3498572,12.1006661 C41.2657976,12.0832883 40.9641918,12.0212616 40.9801982,12.0245584 C37.8997407,11.3900975 36.9226148,10.8389444 36.9226148,9.19752705 C36.9226148,7.50018055 38.3354722,6.41927837 40.7050993,6.41927837 C43.0105636,6.41927837 44.4676,7.80260936 44.535452,9.9801837 L44.5443042,10.2642808 L44.8336154,10.2642808 L46.5279775,10.2642808 L46.8332443,10.2642808 L46.8262015,9.96445534 C46.7464707,6.57014096 44.42831,4.28577095 40.681235,4.28577095 C37.0087796,4.28577095 34.5839178,6.45677359 34.5839178,9.26786246 C34.5839178,10.9159456 35.1669455,12.06366 36.2808593,12.8304851 C37.1294455,13.4146572 38.1124858,13.7243477 39.8466105,14.0683189 C39.9278252,14.0844282 40.0125597,14.1010576 40.1134376,14.1207178 C40.1758807,14.1328873 40.2464044,14.1465877 40.3787567,14.1722931 C42.0195319,14.4912289 42.7434942,14.6880817 43.4039553,15.0653917 C44.2238522,15.5337843 44.6307692,16.2028405 44.6307692,17.2392089 C44.6307692,19.0385678 43.0908418,20.0643478 40.394864,20.0643478 C37.8139257,20.0643478 36.2122237,18.792716 36.0388073,16.5140044 Z M51.8258422,3.99270675 L51.8258422,3.69964254 L51.527539,3.69964254 L49.8331769,3.69964254 L49.5348737,3.69964254 L49.5348737,3.99270675 L49.5348737,21.5765591 L49.5348737,21.8696233 L49.8331769,21.8696233 L51.527539,21.8696233 L51.8258422,21.8696233 L51.8258422,21.5765591 L51.8258422,18.4413512 L54.2373874,16.1339642 L58.5439723,21.752845 L58.6334769,21.8696233 L58.7822725,21.8696233 L60.882327,21.8696233 L61.4833295,21.8696233 L61.1199167,21.3993497 L55.8604772,14.5933854 L60.7109296,9.85070397 L61.2230926,9.34992044 L60.5004989,9.34992044 L58.2333947,9.34992044 L58.1092133,9.34992044 L58.0217159,9.43649311 L51.8258422,15.5668753 L51.8258422,3.99270675 Z M73.232079,16.3834614 L73.5123204,16.3834614 L73.5298012,16.108678 C73.532876,16.060349 73.5374355,15.9804621 73.5419922,15.8842152 C73.5455991,15.8080291 73.5485739,15.7337895 73.5507001,15.6635995 C73.5530044,15.5875365 73.5542465,15.5183456 73.5542465,15.4573785 C73.5542465,11.7789212 71.0742668,9.0685788 67.4092008,9.0685788 C63.7510207,9.0685788 61.1448338,11.9536577 61.1448338,15.5980493 C61.1448338,19.348192 63.6328926,22.150965 67.433065,22.150965 C70.3064867,22.150965 72.5263411,20.4760036 73.3261496,17.935374 L73.4456681,17.5557182 L73.041165,17.5557182 L71.2752101,17.5557182 L71.0645333,17.5557182 L70.9940809,17.7507789 C70.4918315,19.1413506 69.1320326,20.0643478 67.4569293,20.0643478 C65.2669853,20.0643478 63.7403781,18.5868266 63.4653667,16.3834614 L73.232079,16.3834614 Z M63.5347847,14.4375151 C63.9214777,12.4646731 65.3983591,11.1551959 67.4092008,11.1551959 C69.4817477,11.1551959 70.9120558,12.4217025 71.2249111,14.4375151 L63.5347847,14.4375151 Z M81.0714868,11.342757 L81.36979,11.342757 L81.36979,11.0496928 L81.36979,9.64298464 L81.36979,9.34992044 L81.0714868,9.34992044 L78.5776722,9.34992044 L78.5776722,6.24343985 L78.5776722,5.95037564 L78.279369,5.95037564 L76.5850069,5.95037564 L76.2867037,5.95037564 L76.2867037,6.24343985 L76.2867037,9.34992044 L74.2701741,9.34992044 L73.9718709,9.34992044 L73.9718709,9.64298464 L73.9718709,11.0496928 L73.9718709,11.342757 L74.2701741,11.342757 L76.2867037,11.342757 L76.2867037,18.3645754 C76.2867037,20.6680579 77.5028204,21.9165136 79.7350885,21.9165136 C80.1247117,21.9165136 80.46059,21.8935984 80.742628,21.8551144 C80.9169016,21.8313348 81.0372484,21.8067029 81.1035973,21.7885963 L81.3220615,21.7289776 L81.3220615,21.5062237 L81.3220615,20.005735 L81.3220615,19.6421161 L80.9603899,19.7193596 C80.9459338,19.722447 80.9166493,19.7283014 80.8748189,19.7360068 C80.8039404,19.7490632 80.7249909,19.762165 80.6402913,19.7744021 C80.4233822,19.8057403 80.2082426,19.8258257 80.0101732,19.8293509 C79.9897994,19.8297136 79.9696929,19.8298965 79.9498668,19.8298965 C78.9719886,19.8298965 78.5776722,19.3786495 78.5776722,18.2473497 L78.5776722,11.342757 L81.0714868,11.342757 Z M88.194967,22.150965 C91.3660179,22.150965 93.6049984,20.1795732 94.1672809,17.3899165 L94.2378251,17.0399252 L93.8746597,17.0399252 L92.1564333,17.0399252 L91.9270666,17.0399252 L91.868142,17.2577009 C91.3864545,19.0379388 90.0790482,20.0643478 88.194967,20.0643478 C85.8436924,20.0643478 84.2215685,18.2421436 84.2215685,15.6214944 C84.2215685,12.9805734 85.840875,11.1551959 88.194967,11.1551959 C90.0790482,11.1551959 91.3864545,12.1816049 91.868142,13.9618429 L91.9270666,14.1796186 L92.1564333,14.1796186 L93.8746597,14.1796186 L94.2378251,14.1796186 L94.1672809,13.8296272 C93.6049984,11.0399706 91.3660179,9.0685788 88.194967,9.0685788 C84.5113575,9.0685788 81.9067357,11.9740483 81.9067357,15.6214944 C81.9067357,19.2488794 84.514944,22.150965 88.194967,22.150965 Z M98.4565967,3.99270675 L98.4565967,3.69964254 L98.1582935,3.69964254 L96.4639314,3.69964254 L96.1656282,3.69964254 L96.1656282,3.99270675 L96.1656282,21.5765591 L96.1656282,21.8696233 L96.4639314,21.8696233 L98.1582935,21.8696233 L98.4565967,21.8696233 L98.4565967,21.5765591 L98.4565967,14.519573 C98.4565967,12.3694453 99.7887221,11.1083057 101.809525,11.1083057 C103.739588,11.1083057 104.709032,12.2060068 104.709032,14.2851217 L104.709032,21.5765591 L104.709032,21.8696233 L105.007335,21.8696233 L106.701697,21.8696233 L107,21.8696233 L107,21.5765591 L107,13.9568898 C107,11.0200073 105.148955,9.0685788 102.095896,9.0685788 C100.525196,9.0685788 99.2626579,9.63392793 98.4565967,10.4453475 L98.4565967,3.99270675 Z" id="Shape" fill-opacity="0.85" fill="#000000"></path>
                <polygon id="Path" points="5.91631382 0.803929019 13.5582192 0 21.2001245 0.803929019 27.1164384 8.70696006 13.5582192 24.4176408 0 8.70696006"></polygon>
                <polygon id="Path" fill-opacity="0.85" fill="#000000" points="5.46873607 8.87914209 13.5014618 25 0 8.87914209"></polygon>
                <polygon id="Path" fill-opacity="0.85" fill="#000000" transform="translate(20.252384, 16.939571) scale(-1, 1) translate(-20.252384, -16.939571) " points="18.970389 8.87914209 27.0031148 25 13.5016529 8.87914209"></polygon>
                <polygon id="Path" fill-opacity="0.75" fill="#000000" points="5.46873607 8.87914209 21.5341876 8.87914209 13.5014618 25"></polygon>
                <polygon id="Path" fill-opacity="0.73" fill="#000000" points="13.1917808 0 5.55443403 0.819697752 5.13013699 8.87914209"></polygon>
                <polygon id="Path" fill-opacity="0.73" fill="#000000" transform="translate(17.222603, 4.439571) scale(-1, 1) translate(-17.222603, -4.439571) " points="21.2534247 0 13.6160779 0.819697752 13.1917808 8.87914209"></polygon>
                <polygon id="Path" fill-opacity="0.79" fill="#000000" transform="translate(23.452055, 4.439571) scale(-1, 1) translate(-23.452055, -4.439571) " points="20.5205479 8.13921359 26.3835616 0.739928508 25.9628316 8.13921359"></polygon>
                <polygon id="Path" fill-opacity="0.79" fill="#000000" points="0 8.13921359 5.8630137 0.739928508 5.44228363 8.13921359"></polygon>
                <polygon id="Path" fill-opacity="0.53" fill="#000000" points="13.9246575 0 5.8630137 8.87914209 21.9863014 8.87914209"></polygon>
            </g>
        </g>
    </g>
</svg>