<?xml version="1.0" encoding="UTF-8"?>
<svg width="164px" height="70px" viewBox="0 0 164 70" version="1.1" xmlns="http://www.w3.org/2000/svg" xmlns:xlink="http://www.w3.org/1999/xlink">
    <title>speed</title>
    <g id="speed" stroke="none" stroke-width="1" fill="none" fill-rule="evenodd">
        <path d="M34.2428789,29.5616 C39.4095985,29.44928 44.763518,27.5398401 44.763518,21.3622407 C44.763518,15.2220812 40.0086384,13.9865613 34.4675189,13.4998413 C31.7343992,13.2003214 29.4505594,12.6761614 29.4505594,10.3548816 C29.4505594,8.33312178 31.6595192,7.13504188 33.905919,7.13504188 C36.1523188,7.13504188 38.3612786,8.03360181 38.6607986,10.1676816 L43.9023981,10.1676816 C43.9023981,4.28960213 38.8105586,2.2304023 33.905919,2.2304023 C28.7017594,2.2304023 23.9468798,4.6640021 23.9468798,10.4672016 C23.9468798,15.8960011 28.7391994,17.505921 33.494079,17.917761 C36.0025588,18.1049609 39.2223985,18.3670409 39.2223985,21.3622407 C39.2223985,24.0953604 36.5267187,24.6569604 34.2054389,24.6569604 C31.6595192,24.6569604 29.0387194,23.6460805 28.9263994,21.2499207 L23.5724799,21.2499207 C23.5724799,26.9782402 29.0012794,29.5616 34.2428789,29.5616 Z M54.9471972,28.96256 L54.9471972,21.5494406 L60.5257567,21.5494406 C66.5161562,21.5494406 69.8483159,17.168961 69.8483159,12.3017614 C69.8483159,7.35968186 66.6284762,2.75456226 60.5257567,2.75456226 C56.781757,2.75456226 53.0751973,2.71712226 49.3311976,2.75456226 L49.3311976,28.96256 L54.9471972,28.96256 Z M60.5257567,16.7571211 L54.8348772,16.7571211 L54.8348772,7.65920184 C56.744317,7.65920184 58.6163168,7.62176184 60.5257567,7.65920184 C62.9967965,7.65920184 64.4943963,9.71840166 64.4943963,12.1520015 C64.4943963,14.6604812 62.9219165,16.7571211 60.5257567,16.7571211 Z M90.1782341,29 L90.1782341,23.9081604 L79.4703951,23.9081604 L79.4703951,17.917761 L89.2047942,17.917761 L89.2047942,13.0131214 L79.4703951,13.0131214 L79.4703951,7.69664183 L89.8787142,7.69664183 L89.8787142,2.79200226 L73.8169555,2.79200226 L73.8169555,29 L90.1782341,29 Z M111.593912,29 L111.593912,23.9081604 L100.886073,23.9081604 L100.886073,17.917761 L110.620472,17.917761 L110.620472,13.0131214 L100.886073,13.0131214 L100.886073,7.69664183 L111.294392,7.69664183 L111.294392,2.79200226 L95.2326337,2.79200226 L95.2326337,29 L111.593912,29 Z M126.420151,29 C134.88159,29 139.37439,22.5228806 139.26207,15.8211211 C139.26207,9.15680171 134.76927,2.82944225 126.420151,2.82944225 L116.685752,2.82944225 L116.685752,29 L126.420151,29 Z M126.345271,23.9456004 L122.264311,23.9456004 L122.264311,7.88384182 L126.345271,7.88384182 C131.100151,7.88384182 133.68351,11.6652815 133.68351,15.8585611 C133.68351,20.0518408 131.175031,23.9456004 126.345271,23.9456004 Z" id="SPEED" fill="#1F1F1F" fill-rule="nonzero"></path>
        <path d="M12.5561588,61 L12.5561588,57.5267203 L4.98751948,57.5267203 L4.98751948,42.8560016 L1.09951982,42.8560016 L1.09951982,61 L12.5561588,61 Z M21.2393581,61.2592 C22.8204779,61.18144 24.2719978,61.02592 25.6975977,60.2224001 L25.5679977,57.4230403 C24.5571178,57.9155203 22.9241579,58.3561602 21.4726381,58.3820802 C19.1916783,58.4598402 17.4550384,57.6563203 17.3772784,55.5049605 C18.4918383,56.1270404 19.9692782,56.3862404 21.3948781,56.3084804 C23.6758379,56.2307204 25.9567977,55.0384005 26.0863977,52.4723207 C26.1641577,49.232321 23.1055979,48.0918411 20.2803182,48.1696011 C16.9884785,48.2473611 13.9299187,50.4505609 13.9299187,54.7014405 C13.9299187,59.2633601 16.8588785,61.3888 21.2393581,61.2592 Z M17.5846384,53.1980807 C17.9734384,51.6428808 19.0620783,51.0467209 20.3321582,50.9689609 C21.3171181,50.9689609 22.587198,51.3318408 22.587198,52.4723207 C22.561278,53.4054407 21.705918,53.8201606 20.6691181,53.8460806 C19.5286382,53.9238406 18.1030384,53.5350406 17.5846384,53.1980807 Z M33.680957,61.20736 C35.3398369,61.20736 36.9468767,60.3520001 37.6467167,58.7968002 C37.6467167,61.36288 40.0831965,61.23328 41.7679963,60.8704 L41.7679963,58.5376002 C40.6320242,58.6085985 40.5764604,58.1393926 40.5753867,57.2483578 L40.5756764,49.387841 C38.9167966,48.6880011 37.1023967,48.2473611 35.2620769,48.2214411 C31.0371172,48.1436811 28.1599975,50.3728009 28.0303975,54.5977606 C28.0303975,58.1488002 29.8188773,61.1296 33.680957,61.20736 Z M34.4585569,57.9932803 C32.5923171,58.0192003 31.6591972,56.5676804 31.6591972,54.5977606 C31.7369572,52.2131208 33.0070371,51.1244809 34.9769569,51.1244809 C35.5990368,51.1244809 36.3507168,51.2022408 37.0505567,51.4873608 L37.0505567,54.7273605 C36.9727967,56.6195204 36.1951968,57.9932803 34.4585569,57.9932803 Z M48.3257558,61 L48.3257558,54.2348806 C48.3257558,52.3168007 49.6735956,51.2800008 51.2547155,51.2800008 C52.0582354,51.2540808 52.8358354,51.4614408 53.5875153,51.9539208 L54.3910352,48.921281 C53.6652753,48.3769611 52.6803154,48.0918411 51.7212755,48.1177611 C50.1919956,48.1177611 48.7404757,48.817601 48.2220758,50.2432009 C48.0147158,48.0140811 45.344956,48.0140811 43.5305562,48.4288011 L43.5305562,50.6579209 C44.62145,50.4843696 44.7637405,51.0934161 44.7740514,52.0540644 L44.7747161,61 L48.3257558,61 Z M70.3577539,60.92224 L70.3577539,58.7968002 C69.087674,58.8745602 69.035834,58.3043202 69.035834,57.1379203 L69.035834,53.7424006 C69.113594,50.6320009 67.6361541,48.2214411 64.1110344,48.2214411 C62.4521545,48.2214411 60.9747147,48.869441 60.1711947,50.3468809 C60.1711947,47.9363211 57.242235,48.1177611 55.4019151,48.4547211 L55.4019151,50.5801609 C56.6939273,50.5083824 56.7712272,50.9224889 56.7754745,52.0671217 L56.775675,61 L60.4044747,61 L60.4044747,53.8201606 C60.4044747,52.0835208 61.6745546,51.0208009 63.0223945,51.0985609 C64.3443144,51.0985609 65.4588743,52.0057608 65.4329543,53.7424006 L65.4329543,58.1228802 C65.4329543,61.23328 67.8953541,61.54432 70.3577539,60.92224 Z M76.6563133,44.9036814 C76.6563133,42.1302416 72.4054337,42.1302416 72.4054337,44.9036814 C72.4054337,47.7030411 76.6563133,47.7030411 76.6563133,44.9036814 Z M76.3452733,61 L76.3452733,48.6620811 L72.7164737,48.6620811 L72.7164737,61 L76.3452733,61 Z M93.7894318,60.92224 L93.7894318,58.7968002 C92.5745728,58.8711793 92.4743227,58.3526814 92.4679018,57.2866743 L92.467512,53.7424006 C92.5452719,50.6320009 91.0678321,48.2214411 87.5427124,48.2214411 C85.8838325,48.2214411 84.4063926,48.869441 83.6028727,50.3468809 C83.6028727,47.9363211 80.673913,48.1177611 78.8335931,48.4547211 L78.8335931,50.5801609 C80.1256053,50.5083824 80.2029052,50.9224889 80.2071524,52.0671217 L80.207353,61 L83.8361527,61 L83.8361527,53.8201606 C83.8361527,52.0835208 85.1062326,51.0208009 86.4540725,51.0985609 C87.7759924,51.0985609 88.8905523,52.0057608 88.8646323,53.7424006 L88.8646323,58.1228802 C88.8646323,61.23328 91.3270321,61.54432 93.7894318,60.92224 Z M107.889911,61.23328 L107.889911,49.387841 C106.231031,48.6880011 104.416631,48.2473611 102.628151,48.2214411 C98.7660714,48.1436811 95.4742317,50.0099209 95.3964717,54.7532805 C95.3964717,59.2374402 98.2476715,61.23328 100.891511,61.23328 C102.472631,61.23328 103.924151,60.7408 104.546231,59.2115202 L104.546231,61.23328 C104.546231,65.8470396 99.6732713,65.2249596 96.7443116,63.7475198 L96.4073516,66.4172795 C101.513591,69.1907193 107.889911,67.9465594 107.889911,61.23328 Z M101.902391,58.2265602 C100.010231,58.2265602 99.0252714,56.6713604 99.0252714,54.7273605 C99.0511914,52.2649608 100.399031,51.2022408 102.265271,51.2022408 C102.939191,51.2022408 103.639031,51.3318408 104.364791,51.5910408 L104.364791,54.7273605 C104.364791,56.2307204 103.742711,58.2265602 101.902391,58.2265602 Z M118.93183,61 L120.33151,57.9932803 L127.874229,57.9932803 L129.299829,61 L133.317428,61 L133.317428,60.4816 L125.023029,42.7004816 L123.234549,42.7004816 L114.88831,60.4816 L114.88831,61 L118.93183,61 Z M126.630069,54.7273605 L121.601589,54.7273605 L124.115829,48.7398411 L126.630069,54.7273605 Z M138.656948,67.3763195 L138.656948,59.3670401 C139.356788,60.68896 140.834228,61.2592 142.389428,61.23328 C146.018227,61.15552 147.780787,58.2265602 147.858547,54.7014405 C147.858547,51.1504008 146.070067,48.1696011 142.207988,48.0918411 C140.575028,48.0918411 138.942068,48.973121 138.242228,50.5024009 L138.242228,50.1913609 C138.242228,47.9881611 135.753908,48.0918411 134.095028,48.4288011 L134.095028,50.7097609 C135.183668,50.6417209 135.280058,51.2285658 135.287146,52.1751014 L135.287348,67.3763195 L138.656948,67.3763195 Z M141.456308,58.2265602 C139.693748,58.2265602 138.812468,56.6195204 138.812468,54.7014405 C138.812468,52.7315207 139.667828,51.3318408 141.430388,51.3318408 C143.296628,51.2540808 144.281587,52.7833607 144.281587,54.7014405 C144.281587,56.7491204 143.400308,58.2265602 141.456308,58.2265602 Z M154.312627,67.3763195 L154.312627,59.3670401 C155.012467,60.68896 156.489906,61.2592 158.045106,61.23328 C161.673906,61.15552 163.436466,58.2265602 163.514226,54.7014405 C163.514226,51.1504008 161.725746,48.1696011 157.863666,48.0918411 C156.230706,48.0918411 154.597747,48.973121 153.897907,50.5024009 L153.897907,50.1913609 C153.897907,47.9881611 151.409587,48.0918411 149.750707,48.4288011 L149.750707,50.7097609 C150.891187,50.6384809 150.942667,51.2859408 150.943327,52.3127357 L150.943027,67.3763195 L154.312627,67.3763195 Z M157.111986,58.2265602 C155.349427,58.2265602 154.468147,56.6195204 154.468147,54.7014405 C154.468147,52.7315207 155.323507,51.3318408 157.086066,51.3318408 C158.952306,51.2540808 159.937266,52.7833607 159.937266,54.7014405 C159.937266,56.7491204 159.055986,58.2265602 157.111986,58.2265602 Z" id="LearningApp" fill="#1F1F1F" fill-rule="nonzero"></path>
    </g>
</svg>