<?xml version="1.0" encoding="UTF-8"?>
<svg width="134px" height="30px" viewBox="0 0 134 30" version="1.1" xmlns="http://www.w3.org/2000/svg" xmlns:xlink="http://www.w3.org/1999/xlink">
    <title>sql</title>
    <g id="Page-1" stroke="none" stroke-width="1" fill="none" fill-rule="evenodd">
        <g id="App-Development" transform="translate(-1152.000000, -5547.000000)">
            <g id="sql" transform="translate(1154.000000, 5549.000000)">
                <path d="M41.5219919,9.72270116 L36.8392645,9.72270116 L36.8392645,4.92319104 L41.7767609,4.92319104 C43.5834684,4.92319104 44.4877192,5.7459642 44.4877192,7.36042799 C44.4877192,8.9355815 43.4991434,9.72361536 41.5228889,9.72361536 M44.8887114,4.8674253 C44.2473033,4.28234216 43.349332,3.98980059 42.1947975,3.98980059 L35.4882707,4.02636829 L35.4882707,15.5086249 L36.8392645,15.5086249 L36.8267054,10.6204381 L41.8171293,10.6204381 C43.0685478,10.6204381 44.0535353,10.3278965 44.7720917,9.7428134 C45.4906482,9.15773026 45.8503749,8.34409902 45.8503749,7.30557644 C45.8503749,6.26705387 45.5292224,5.45342263 44.8878143,4.86833949 L44.8887114,4.8674253 Z M53.6324937,13.0988137 C53.5036406,13.4745547 53.2828807,13.8105974 52.9910857,14.0751712 C52.3855606,14.6785382 51.4624712,14.9774791 50.2101556,14.9774791 C49.0888128,14.9774791 48.2365923,14.6849375 47.6265819,14.0998544 C47.0165714,13.5147713 46.7250223,12.7313084 46.7250223,11.7503799 C46.7250223,11.2384322 46.8039648,10.7859069 46.9609528,10.3900616 C47.109838,10.0067692 47.3438078,9.66382399 47.6445234,9.38810674 C48.2652987,8.81216553 49.1211075,8.52236654 50.2101556,8.52236654 C52.632256,8.52236654 53.8280559,9.598371 53.8280559,11.7494657 C53.8280559,12.2614135 53.7589812,12.7093678 53.6217289,13.0969853 M53.8666301,8.86153192 C53.043116,8.09635288 51.8239921,7.71330626 50.2092585,7.71330626 C48.6842324,7.71330626 47.5045798,8.10458061 46.672992,8.88621511 C45.9221409,9.59380004 45.5471639,10.5482169 45.5471639,11.7494657 C45.5471639,12.9424868 45.9346999,13.9051314 46.709772,14.6383137 C47.1376764,15.0332448 47.6364497,15.3193871 48.2051947,15.4958262 C48.7739398,15.6722653 49.4431572,15.7700839 50.2092585,15.7700839 C51.8239921,15.7700839 53.0386306,15.3916083 53.8872628,14.634657 C54.6381139,13.9435275 55.013091,12.9854539 55.013091,11.7595218 C55.013091,10.5253621 54.6336286,9.56271749 53.8738067,8.87067384 L53.8666301,8.86153192 Z M64.0932762,13.4297514 C64.0932762,14.9838785 62.7342087,15.7481433 60.0169709,15.7481433 C59.1862802,15.7481433 58.4865623,15.6932918 57.9178173,15.5872454 C57.3490722,15.4811991 56.8879761,15.3011032 56.5327347,15.0533571 C56.2613158,14.8656792 56.0374902,14.6150235 55.8796646,14.3220032 C55.7181913,14.026719 55.6132336,13.6363589 55.5656887,13.1746917 L56.8215926,13.1628072 C56.8215926,13.7707451 57.0431699,14.2186994 57.4854275,14.50667 C57.9608768,14.8522348 58.8014354,15.0250171 60.0088973,15.0250171 C61.9080034,15.0250171 62.858005,14.5404951 62.858005,13.5696228 C62.858005,13.0028235 62.5395436,12.6124634 61.9026209,12.3994565 C61.7734422,12.3583179 61.0055467,12.249529 59.5971402,12.0730898 C58.1887337,11.8966507 57.3131892,11.7375812 56.9660215,11.5977098 C56.2160675,11.2932837 55.8410905,10.7475109 55.8410905,9.95764861 C55.8128857,9.23055981 56.206293,8.55437474 56.8458136,8.23073916 C57.177731,8.07532645 57.5903852,7.95373886 58.0873643,7.86689058 C58.5843434,7.7800423 59.159368,7.73707526 59.8133351,7.73707526 C62.4292035,7.73707526 63.7371377,8.57356131 63.7371377,10.2465334 L62.5350582,10.2465334 C62.5350582,9.07088198 61.6155572,8.48214207 59.776555,8.48214207 C58.8409066,8.48214207 58.14388,8.60098708 57.6836809,8.84781903 C57.2234818,9.09465098 56.9929337,9.45118602 56.9929337,9.94484992 C56.9929337,10.4056029 57.3033214,10.7383689 57.9240968,10.9440622 C58.2874118,11.0510227 59.1216909,11.1744387 60.428728,11.3143101 C61.5985128,11.4212707 62.4004971,11.5730266 62.8364752,11.7714063 C63.6671659,12.1005156 64.0923791,12.658173 64.0923791,13.4480352 L64.0932762,13.4297514 Z M69.059479,15.5323939 L68.5454555,15.6055293 L68.2243029,15.6302125 C67.4007888,15.6302125 66.8069256,15.5086249 66.4436106,15.2645355 C66.0802955,15.0204462 65.9053661,14.5953467 65.9053661,13.9846662 L65.9053661,8.74634368 L64.4072521,8.74634368 L64.4072521,7.97567948 L65.8963953,7.97567948 L65.9080573,5.50004644 L67.0607977,5.50004644 L67.0607977,7.97567948 L69.0684497,7.97567948 L69.0684497,8.75914237 L67.0607977,8.74634368 L67.0607977,13.8447947 C67.0607977,14.2241846 67.1505051,14.4865578 67.3568321,14.6310002 C67.5631592,14.7754426 67.9076357,14.8476638 68.4153797,14.8476638 C68.4871457,14.8568057 68.5678823,14.8531489 68.6575898,14.8385219 C68.7472972,14.8238948 68.8791671,14.7928122 69.0567878,14.7452742 L69.0693468,15.5314797 L69.059479,15.5323939 Z M77.0317775,13.784458 C76.711724,14.050516 76.3469991,14.2552523 75.9552885,14.3887392 C75.5516051,14.5286106 75.0887148,14.5990035 74.5648235,14.5990035 C72.153488,14.5990035 70.9496144,13.5933918 70.9496144,11.5547427 C70.9496144,10.610382 71.2582079,9.87080033 71.8736008,9.33691197 C72.4889937,8.8030236 73.3591557,8.53607942 74.4796014,8.53607942 C75.6081208,8.53607942 76.4648266,8.80485199 77.049719,9.34331132 C77.6346114,9.88177064 77.9270576,10.6021543 77.9270576,11.5062905 C77.9270576,12.49179 77.6283319,13.2432561 77.0317775,13.7862864 M79.079798,7.97202271 L77.9270576,7.97202271 L77.9144986,9.26743335 C77.4067546,8.74177271 77.0443366,8.40809249 76.8254505,8.26913524 C76.179557,7.90802924 75.345278,7.72701914 74.3208193,7.72701914 C72.8200141,7.72701914 71.6744503,8.07624064 70.885025,8.77468364 C70.135071,9.41461832 69.760094,10.344352 69.760094,11.5602279 C69.760094,12.1599381 69.8551838,12.6965691 70.0444665,13.1692065 C70.2337491,13.641844 70.5109451,14.0422603 70.8742601,14.3704554 C71.6663767,15.0442152 72.7850282,15.3815522 74.2311118,15.3815522 C75.9678475,15.3815522 77.1914567,14.8970302 77.9270576,13.9188443 L77.9270576,15.2599646 C77.9270576,16.1147345 77.6624207,16.777524 77.134044,17.2455905 C76.6056673,17.713657 75.7364024,17.9495186 74.5262493,17.9495186 C73.3887592,17.9495186 72.5778041,17.7895349 72.1041489,17.4704818 C71.7408338,17.2254782 71.4905501,16.7994646 71.3541948,16.193355 L70.1745422,16.193355 C70.3037209,17.038983 70.654477,17.6514919 71.2277074,18.0290534 C71.8897481,18.4642089 73.0075026,18.6817867 74.5809708,18.6817867 C77.5915518,18.6817867 79.0968424,17.5417888 79.0968424,15.2608788 L79.0968424,7.96288078 L79.079798,7.97202271 Z M85.3144638,8.73537337 C84.9949059,8.68028384 84.6715091,8.651546 84.3474178,8.64943928 C82.452797,8.64943928 81.5054866,9.70807409 81.5054866,11.8262579 L81.5054866,15.5086249 L80.3662024,15.5086249 L80.3536434,7.9729369 L81.5063837,7.9848214 L81.5063837,9.32868424 L81.5664877,9.32868424 C81.7602557,8.79845264 82.066158,8.39620798 82.4859888,8.12377865 C82.9452908,7.84952093 83.6306555,7.72610495 84.5420829,7.72610495 L85.3162579,7.72610495 L85.3162579,8.73445917 L85.3144638,8.73537337 Z M86.3873645,11.2640296 C86.5326905,10.4074313 86.8592256,9.74464178 87.3669696,9.27474689 C87.698887,9.00323174 88.072967,8.79936684 88.4919006,8.66223797 C88.9108343,8.52510911 89.3835924,8.45837307 89.9074837,8.45837307 C90.9319425,8.45837307 91.7680157,8.74451529 92.4174974,9.31771393 C93.0669791,9.89091257 93.3997936,10.539075 93.3997936,11.2649438 L86.3963353,11.2649438 M93.512825,8.94015247 C93.0913458,8.51702507 92.5763479,8.2031959 92.0111228,8.02504587 C91.4136713,7.82666612 90.7157476,7.72793334 89.9164545,7.72793334 C88.4228259,7.72793334 87.2647031,8.0817258 86.441189,8.78839653 C85.6176748,9.49506726 85.2059178,10.4586261 85.2059178,11.6772445 C85.2059178,12.895863 85.6006304,13.8713063 86.3918499,14.5770628 C87.2467616,15.3669251 88.4533264,15.7618562 90.0115443,15.7618562 C90.6323197,15.7618562 91.2073443,15.6887208 91.735721,15.547021 C92.2640977,15.4053212 92.7260909,15.1996279 93.1217006,14.939083 C93.8160361,14.4307921 94.2547054,13.8054844 94.4403997,13.0595034 L93.1844958,13.0595034 C92.7565914,14.3393728 91.6926614,14.9921062 89.9909116,14.9921062 C88.7888322,14.9921062 87.8648457,14.677624 87.2099816,14.0468312 C86.6537956,13.4983158 86.3757026,12.8071863 86.3757026,11.9478455 L94.5929024,11.9478455 C94.5929024,10.6698045 94.2340727,9.66693543 93.4912952,8.93101054 L93.512825,8.94015247 Z" id="Shape" fill-opacity="0.85" fill="#000000" fill-rule="nonzero"></path>
                <path d="M106.793112,12.4296249 C106.793112,14.6666537 105.022287,15.784711 101.482432,15.784711 C99.3608518,15.784711 97.8116046,15.4007502 96.8355879,14.6282576 C96.0282211,13.9947223 95.6379938,13.0284209 95.6379938,11.7302677 L97.0733126,11.7302677 C97.0733126,13.8191973 98.5445143,14.8632051 101.491403,14.8632051 C102.903398,14.8632051 103.925165,14.649284 104.554014,14.2232704 C105.086877,13.8457089 105.361381,13.2542264 105.361381,12.4497371 C105.361381,11.6525613 104.998066,11.0939898 104.271436,10.7731082 C103.858782,10.5902698 102.854059,10.3827481 101.257267,10.1194607 C99.2478204,9.80680687 97.9443716,9.49506726 97.3478173,9.18332765 C96.4848319,8.72348887 96.0524421,7.94276855 96.0524421,6.8411667 C96.0524421,5.81452863 96.4112718,5.04934959 97.1540492,4.54837215 C97.9434745,3.99802832 99.3007478,3.72285641 101.221384,3.72285641 C104.693061,3.72285641 106.427105,4.89759365 106.427105,7.24706813 L104.981022,7.24706813 C104.981022,5.48724775 103.691926,4.60779466 101.123603,4.60779466 C99.8318158,4.60779466 98.8862995,4.78514798 98.2888481,5.13802625 C97.7236914,5.51650191 97.441113,6.07050251 97.441113,6.80368481 C97.441113,7.56886386 97.804428,8.10732318 98.5310582,8.41997699 C98.9168001,8.60098708 100.056084,8.8514758 101.945323,9.17327153 C103.72153,9.44478667 104.919124,9.76109725 105.533619,10.1240316 C106.381355,10.5683291 106.804774,11.337165 106.804774,12.4314533 L106.793112,12.4296249 Z M118.372546,13.5723654 C117.835451,14.0095959 117.223474,14.3415713 116.567632,14.5514654 C115.896621,14.7690432 115.14577,14.8778321 114.314182,14.8778321 C112.609741,14.8778321 111.246188,14.4207359 110.2002,13.4791178 C109.154211,12.5374996 108.63032,11.3060824 108.63032,9.7546979 C108.63032,8.13657734 109.148829,6.8777344 110.186743,5.9745123 C111.224658,5.07129021 112.608844,4.61967916 114.313285,4.61967916 C116.05002,4.61967916 117.415367,5.09140244 118.408429,6.03667739 C118.933217,6.49651617 119.320753,7.04228903 119.571934,7.65022698 C119.823115,8.25816493 119.948705,8.96666405 119.948705,9.75561209 C119.948705,11.3645907 119.42302,12.6371466 118.373443,13.5732796 M119.13147,14.3348018 C119.874248,13.8009135 120.423257,13.1463517 120.779396,12.3939714 C121.135534,11.641591 121.313155,10.748425 121.313155,9.76292563 C121.313155,7.98025044 120.731851,6.55045352 119.569243,5.46622133 C118.94757,4.87473884 118.196719,4.43501229 117.326557,4.14795588 C116.456395,3.86089946 115.442701,3.71645706 114.312388,3.71645706 C112.117247,3.71645706 110.393968,4.25857316 109.142549,5.34371954 C107.89113,6.42886593 107.26587,7.89888732 107.26587,9.75561209 C107.26587,11.5629705 107.896513,13.0211074 109.149726,14.1300228 C110.402938,15.2389381 112.136983,15.7938529 114.32405,15.7938529 C115.178961,15.7938529 115.925327,15.7344304 116.563147,15.6174138 C117.200967,15.5003972 117.741005,15.3184729 118.185057,15.0743835 L120.291387,16.5617745 L121.17052,15.7390014 L119.13147,14.3293167 L119.13147,14.3348018 Z M131.986544,15.5077107 L122.246112,15.5077107 L122.246112,4.01174121 L123.585444,3.98705801 L123.585444,14.5459803 L132,14.5459803 L131.987441,15.5058823 L131.986544,15.5077107 Z" id="Shape" fill-opacity="0.85" fill="#000000" fill-rule="nonzero"></path>
                <path d="M18.9650607,19.4396522 C19.1417844,17.9403767 19.088857,17.7209705 20.1850817,17.9641457 L20.4542039,17.9888289 C21.2974537,18.0281392 22.3981638,17.8517 23.0467484,17.5445314 C24.4399047,16.8863129 25.26611,15.7856252 23.8926894,16.07451 C20.7583121,16.7327285 20.5430143,15.6521531 20.5430143,15.6521531 C23.8532181,10.6478639 25.2347124,4.29514085 24.0416037,2.74101377 C20.7852243,-1.500839 15.1462158,0.505813334 15.0529201,0.557922301 L15.0233166,0.563407456 C14.4043354,0.432677942 13.7108971,0.353143203 12.9331337,0.341258701 C11.5157565,0.317489699 10.4392674,0.719734357 9.61395914,1.35144131 C9.61395914,1.35144131 -0.444036948,-2.8721276 0.0152650492,6.66289918 C0.113943213,8.69057794 2.86796105,22.0085329 6.15125267,17.9860863 C7.35153797,16.5142365 8.51055786,15.2709349 8.51055786,15.2709349 C9.0864795,15.661295 9.76646175,15.8596748 10.4993714,15.7883678 L10.55499,15.7399156 C10.5382027,15.9308641 10.545741,16.1232239 10.5774168,16.3122 C9.73147586,17.2748446 9.97996542,17.4457986 8.2898776,17.7995911 C6.57915707,18.1588687 7.58388019,18.7988034 8.24053852,18.9661006 C9.03624334,19.1690513 10.8779367,19.4561077 12.1203845,17.6816602 L12.0710454,17.884611 C12.4029629,18.1552119 12.380536,19.8290982 12.4271839,21.0248619 C12.4738317,22.2206255 12.5527743,23.3377687 12.7922931,23.9959872 C13.0318119,24.6542057 13.3125961,26.3491184 15.5373402,25.8636823 C17.3942838,25.4577808 18.8152494,24.8745261 18.944428,19.443309" id="Path" stroke="#231F20" stroke-width="2.3382" fill="#231F20" fill-rule="nonzero"></path>
                <path d="M23.899866,16.07451 C20.7654887,16.7327285 20.5501909,15.6521531 20.5501909,15.6521531 C23.8603947,10.6478639 25.241889,4.29514085 24.0487803,2.74009957 C20.7924009,-1.50175319 15.1533924,0.504899142 15.0600967,0.557008109 L15.0295962,0.562493263 C14.410615,0.431763749 13.7171766,0.35222901 12.9394132,0.340344509 C11.522036,0.316575506 10.4455469,0.718820165 9.62023866,1.35052712 C9.62023866,1.35052712 -0.437757429,-2.8730418 0.0215445687,6.66198499 C0.120222732,8.69149213 2.87424057,22.0076187 6.15753219,17.9851721 C7.35781749,16.5133224 8.51683737,15.2700207 8.51683737,15.2700207 C9.09275902,15.6603808 9.78171202,15.8587606 10.5047538,15.7874536 L10.5612695,15.7390014 C10.543328,15.9218399 10.5522988,16.1001074 10.5836964,16.3112858 C9.73775538,17.2739304 9.98624494,17.4448844 8.29615712,17.7986769 C6.58543659,18.1579545 7.59015971,18.7978892 8.24681804,18.9651864 C9.04252286,19.1681371 10.8842162,19.4551935 12.126664,17.6807461 L12.0773249,17.8836968 C12.4092424,18.1542977 12.6424817,19.6435171 12.6021133,20.9919509 C12.561745,22.3403847 12.537524,23.26829 12.7994697,23.9923304 C13.0614153,24.7163708 13.3197727,26.3454617 15.5445168,25.8600255 C17.4014604,25.4541241 18.3649181,24.4028028 18.4985822,22.6493818 C18.593672,21.4024233 18.8089698,21.5870902 18.8215289,20.4736039 L18.9937671,19.9461148 C19.1929176,18.2548589 19.0251647,17.7109144 20.1689343,17.9650599 L20.4380566,17.9897431 C21.2813064,18.0290534 22.3829135,17.8526142 23.0306011,17.5454456 C24.4237573,16.887227 25.2499627,15.7865394 23.8765421,16.0754242 L23.899866,16.07451 Z" id="Path" fill-opacity="0.85" fill="#000000" fill-rule="nonzero"></path>
                <g id="Group" transform="translate(0.007611, 0.000000)" stroke="#FFFFFF" stroke-width="0.7794">
                    <g stroke-linecap="round">
                        <path d="M12.2697614,17.0435539 C12.1836423,20.1883758 12.2912912,23.3542241 12.5927081,24.1239741 C12.894125,24.8937241 13.5409156,26.3911713 15.7647625,25.9048209 C17.6217062,25.4989195 18.2981001,24.7136282 18.5905463,22.9794052 L19.2768081,17.4366567 M9.61442172,1.2801343 C9.61442172,1.2801343 -0.450750959,-2.91235207 0.0157276325,6.62084633 C0.105435054,8.65035347 2.86842363,21.9673942 6.15171526,17.9449477 C7.35200055,16.4822398 8.43656328,15.3212155 8.43656328,15.3212155 M15.0417207,0.514955258 C14.682891,0.626486732 20.6394638,-1.70013294 24.0196394,2.70901703 C25.2127482,4.26314412 23.8402246,10.6167813 20.52105,15.6210706" id="Shape" stroke-linejoin="round"></path>
                        <path d="M20.5201529,15.6128428 C20.5201529,15.6128428 20.7354508,16.6943324 23.8707251,16.0351997 C25.2432487,15.7463149 24.4089697,16.8460884 23.0247841,17.5052211 C21.8819116,18.0445946 19.3198676,18.1844661 19.2768081,17.4375709 C19.1691592,15.5086249 20.6260077,16.0955364 20.5201529,15.6128428 C20.4250631,15.1776872 19.7737872,14.7507594 19.3431916,13.6866394 C18.9664204,12.7569058 14.1850148,5.63077596 20.6708614,6.68941076 C20.9085861,6.63913018 18.9789794,0.402509592 12.9093753,0.301034235 C6.83977118,0.199558878 7.0407158,7.90711505 7.0407158,7.90711505" id="Path" stroke-linejoin="bevel"></path>
                    </g>
                    <g stroke-linejoin="round" transform="translate(6.935461, 6.714538)" id="Path">
                        <path d="M3.6352416,9.55652326 C2.78930062,10.5191679 3.03779017,10.6901218 1.34770235,11.0439143 C-0.363018173,11.4031919 0.641704947,12.0431266 1.29836327,12.2104238 C2.0940681,12.4133745 3.93576146,12.7004309 5.17820925,10.9259835 C5.55677457,10.38661 5.1764151,9.52361233 4.65611205,9.30329196 C4.40493127,9.19724564 4.06852844,9.06560194 3.63703575,9.55652326 L3.6352416,9.55652326 Z"></path>
                        <path d="M3.579623,9.5400678 C3.49440095,8.97326851 3.76262614,8.3004229 4.04879281,7.51056066 C4.47938843,6.32759568 5.48411155,5.14463071 4.67943598,1.39278508 C4.087367,-1.40281529 0.106151641,0.810444519 0.104357493,1.18983437 C0.102563344,1.56922422 0.283772336,3.1114668 0.0379740009,4.90785488 C-0.284972716,7.25184421 1.50020497,9.23472753 3.55719614,9.03086263" stroke-linecap="round"></path>
                    </g>
                </g>
                <g id="Group" transform="translate(9.574481, 7.308278)" fill="#FFFFFF" fill-rule="nonzero" stroke="#FFFFFF" stroke-width="0.5">
                    <path d="M0.000904417645,0.540328541 C-0.0170370666,0.670143863 0.234143713,1.01570859 0.559781653,1.06141821 C0.885419593,1.10712783 1.16530675,0.837441073 1.18235116,0.708539944 C1.19939557,0.579638815 0.949111862,0.436110607 0.622576848,0.388572602 C0.296041834,0.341034597 0.0170517535,0.409599027 0,0.539414349 L0.000904417645,0.540328541 Z" id="Path"></path>
                    <path d="M9.93510426,0.276126936 C9.95304575,0.405942258 9.70186497,0.751506987 9.37622703,0.797216607 C9.05058909,0.842926228 8.77070193,0.573239468 8.75276045,0.444338339 C8.73481896,0.31543721 8.98599974,0.171909002 9.31253476,0.126199382 C9.63906977,0.0804897616 9.91805985,0.147225807 9.93600868,0.277041129 L9.93510426,0.276126936 Z" id="Path"></path>
                </g>
                <path d="M20.6766783,6.68849657 C20.7305028,7.70325014 20.4613805,8.39620798 20.4281888,9.47678341 C20.3779526,11.0491943 21.1637896,12.8474108 19.9796517,14.6483698" id="Path" stroke="#FFFFFF" stroke-width="0.7794" stroke-linecap="round" stroke-linejoin="round"></path>
            </g>
        </g>
    </g>
</svg>