<?xml version="1.0" encoding="UTF-8"?>
<svg width="109px" height="34px" viewBox="0 0 109 34" version="1.1" xmlns="http://www.w3.org/2000/svg" xmlns:xlink="http://www.w3.org/1999/xlink">
    <title>swift</title>
    <g id="Page-1" stroke="none" stroke-width="1" fill="none" fill-rule="evenodd">
        <g id="App-Development" transform="translate(-135.000000, -5145.000000)" fill-rule="nonzero">
            <g id="swift" transform="translate(135.000000, 5145.000000)">
                <path d="M33.8580664,9.41690651 C33.8567486,9.07498263 33.8517311,8.73308323 33.843015,8.39126882 C33.8224904,7.64659953 33.7793888,6.89506059 33.6473472,6.15863487 C33.5214845,5.4199435 33.2865112,4.70425502 32.9501949,4.03522825 C32.2689541,2.69111003 31.1810886,1.59829394 29.8427703,0.913662507 C29.1766257,0.5763427 28.464114,0.340641389 27.7287363,0.214332859 C26.9939556,0.0817487507 26.2454918,0.037783036 25.5038695,0.0178610716 C25.162477,0.0082435715 24.8224528,0.00412178575 24.4817444,0.00206089287 C24.0774098,0 23.6730751,0 23.2680563,0 L10.5920626,0 C10.1870438,0 9.78339328,0 9.37905863,0.00206089287 C9.03835025,0.00480875004 8.69764187,0.00893053579 8.35693349,0.0178610716 C8.17152792,0.0226698216 7.9854382,0.0295394645 7.79934849,0.0384700003 C7.24176348,0.0652616077 6.68281018,0.114723037 6.13206671,0.214332859 C5.58292142,0.310272342 5.04570776,0.46551131 4.5297795,0.677346791 C3.66538571,1.03663029 2.87987159,1.56323603 2.21802524,2.22713823 C1.69014295,2.75686739 1.24869468,3.36681632 0.90992399,4.03454128 C0.565110688,4.71463593 0.346865762,5.40984379 0.213455853,6.15794791 C0.0814142517,6.89506059 0.0376284357,7.64659953 0.0177879878,8.39058185 C0.00820984051,8.734064 0.00410492026,9.07548525 0.00205246013,9.41690651 C0,9.82358937 0,10.2295853 0,10.6355812 L0,23.3636555 C0,23.7703384 0,24.1763343 0.00205246013,24.5823302 C0.00478907363,24.9244384 0.00889399389,25.2665466 0.0177879878,25.6079679 C0.038312589,26.3533241 0.0814142517,27.1048631 0.213455853,27.8406018 C0.339050104,28.5797079 0.573791549,29.2958556 0.90992399,29.9653824 C1.59128994,31.3098788 2.67972192,32.4027827 4.01871693,33.0869481 C4.69534462,33.4324912 5.38770784,33.6516328 6.13275086,33.7862778 C6.86616328,33.9188619 7.61531123,33.9628276 8.35693349,33.9827496 C8.69764187,33.9916801 9.03835025,33.9958019 9.37905863,33.9978628 C9.78270912,34.0006106 10.1870438,34 10.5920626,34 L23.2680563,34 C23.6717068,34 24.0767256,34.0006106 24.4810602,33.9978628 C24.8217686,33.9958019 25.1617929,33.9916801 25.5025012,33.9827496 C26.2448077,33.9621406 26.9939556,33.9188619 27.727368,33.7862778 C28.4627457,33.6599692 29.1752574,33.4242679 29.8414019,33.0869481 C31.1800586,32.4025496 32.2682073,31.3096896 32.9495107,29.9653824 C33.294324,29.2852877 33.512569,28.5893929 33.646663,27.8419758 C33.7787046,27.10555 33.8224904,26.3540111 33.8423309,25.6086549 C33.8512249,25.2672336 33.8553298,24.9251254 33.8573823,24.5830172 C33.8601189,24.1770213 33.8595107,23.7710254 33.8595107,23.3643425 L33.8595107,10.6355812 C33.8595107,10.2295853 33.8595107,9.82358937 33.8573823,9.41690651 L33.8580664,9.41690651 Z" id="Path" fill-opacity="0.85" fill="#000000"></path>
                <path d="M26.8304429,20.9867591 L26.8283905,20.9846982 C26.8653348,20.8562359 26.9036474,20.7291475 26.9371709,20.5979373 C28.3424219,14.9758216 24.9120769,8.32875507 19.1084038,4.82935897 C21.652086,8.291659 22.77615,12.484889 21.776602,16.1519044 C21.687662,16.4795864 21.5809341,16.7935291 21.4625756,17.0985412 C21.2972253,16.991598 21.1278893,16.8909997 20.9549338,16.7969639 C20.9549338,16.7969639 15.1806793,13.2178799 8.92341248,6.88613006 C8.75921567,6.7198847 12.2600285,11.9105869 16.2335913,16.1257998 C14.3617477,15.0713096 9.14439402,11.2593447 5.84198568,8.2243365 C6.24768863,8.90443114 6.73070091,9.55842115 7.26091978,10.1883674 C10.018742,13.7001289 13.6160205,18.0334996 17.9248184,21.3611546 C14.8974398,23.2214539 10.6194287,23.3657164 6.35988978,21.3632155 C5.31705888,20.8714376 4.32522582,20.2772983 3.39887397,19.5894737 C5.30353008,22.6269612 8.07796642,25.0155384 11.3583143,26.4419425 C15.389346,28.1813361 19.3971165,28.0631783 22.3820777,26.470795 L22.3800252,26.4742299 C22.3937083,26.4652993 22.4108121,26.4563688 22.4251794,26.4467513 C22.5476428,26.3814897 22.6694221,26.3134802 22.7877806,26.2427229 C24.2224503,25.4953057 27.0555294,24.7368972 28.5757182,27.7073308 C28.9485818,28.4348259 29.7401472,24.5816432 26.8311271,20.9874461 L26.8304429,20.9867591 Z" id="Path" fill="#FFFFFF"></path>
                <path d="M46.7105717,22.0646061 C46.9753391,24.4229545 49.2159414,25.9693111 52.327471,25.9693111 C55.2836977,25.9693111 57.4155196,24.4236414 57.4155196,22.2830607 C57.4155196,20.4399355 56.123838,19.314688 53.1518758,18.56521 L50.2736425,17.8301582 C46.1351987,16.7997117 44.2681442,14.9242992 44.2681442,11.831586 C44.2681442,8.01962114 47.5821831,5.37961737 52.2966841,5.37961737 C56.8702494,5.37961737 60.1220304,8.03542132 60.2314949,11.8631863 L57.1972747,11.8631863 C56.9639784,9.51926418 55.0654528,8.08213489 52.2186906,8.08213489 C49.4020311,8.08213489 47.4419317,9.53506436 47.4419317,11.659158 C47.4419317,13.3147419 48.6556198,14.2998487 51.6426334,15.0651269 L54.0392227,15.6902644 C58.6757301,16.8306251 60.5735716,18.6428369 60.5735716,21.9079782 C60.5735716,26.0641122 57.2903195,28.6725156 52.0627036,28.6725156 C47.2086354,28.6725156 43.8945964,26.0792254 43.6455646,22.0639191 L46.7105717,22.0639191 L46.7105717,22.0646061 Z M79.845488,28.2974331 L76.7962164,28.2974331 L73.2331457,15.8310921 L73.1715719,15.8310921 L69.6235525,28.2974331 L66.574965,28.2974331 L62.0629735,11.9717267 L65.0185161,11.9717267 L68.1615167,25.0790054 L68.2237746,25.0790054 L71.7711099,11.9717267 L74.6342918,11.9717267 L78.2124139,25.0790054 L78.2746719,25.0790054 L81.4176725,11.9717267 L84.3424282,11.9717267 L79.845488,28.2974331 Z M86.3107374,7.58202488 C86.3107374,6.59829202 87.120775,5.80141344 88.1004827,5.80141344 C89.09661,5.80141344 89.9052793,6.59829202 89.9052793,7.58202488 C89.9052793,8.56644471 89.09661,9.37843651 88.1004827,9.37843651 C87.114743,9.37280723 86.3170278,8.57181453 86.3114216,7.58202488 L86.3107374,7.58202488 Z M86.6227114,11.9717267 L89.5939895,11.9717267 L89.5939895,28.2974331 L86.6227114,28.2974331 L86.6227114,11.9717267 Z M109,14.3781626 L109,11.9717267 L105.857684,11.9717267 L105.857684,8.06633471 L102.900773,8.06633471 L102.900773,11.9717267 L97.2209313,11.9717267 L97.2209313,10.5345974 C97.2359827,9.08166793 97.7956202,8.4723306 99.1345083,8.4723306 C99.5696299,8.4723306 100.005436,8.51973114 100.363248,8.58224489 L100.363248,6.23763577 C99.8435574,6.15602432 99.3184369,6.1142279 98.7924316,6.11260826 C95.61796,6.11260826 94.279756,7.4411972 94.279756,10.4871969 L94.279756,11.9710397 L92.0083668,11.9710397 L92.0083668,14.3774757 L94.279756,14.3774757 L94.279756,28.2967461 L97.2359827,28.2967461 L97.2359827,14.3781626 L102.901457,14.3781626 L102.901457,24.0162716 C102.901457,27.1721856 104.098725,28.3901733 107.210939,28.3901733 C107.880041,28.3901733 108.642188,28.3434597 108.984949,28.2658327 L108.984949,25.8284834 C108.613059,25.8746316 108.238977,25.9007736 107.864305,25.9067974 C106.479579,25.9067974 105.857684,25.2507465 105.857684,23.7820168 L105.857684,14.3781626 L109,14.3781626 Z" id="Shape" fill-opacity="0.85" fill="#000000"></path>
            </g>
        </g>
    </g>
</svg>