<?xml version="1.0" encoding="UTF-8"?>
<svg width="344px" height="120px" viewBox="0 0 344 120" version="1.1" xmlns="http://www.w3.org/2000/svg" xmlns:xlink="http://www.w3.org/1999/xlink">
    <title>vr</title>
    <g id="vr" stroke="none" stroke-width="1" fill="none" fill-rule="evenodd">
        <g id="google-vr" transform="translate(183.000000, 8.000000)">
            <path d="M127.544139,9.94461967 L129.690015,9.94461967 L133.7334,21.8442546 L134.279804,23.4687441 L134.369215,23.4687441 L134.935488,21.8442546 L139.157696,9.94461967 L141.303571,9.94461967 L135.313003,26.3589402 L133.306212,26.3589402 L127.544139,9.94461967 L127.544139,9.94461967 Z M142.754024,9.94461967 L148.287601,9.94461967 C149.19165,9.94461967 150.026157,10.1539097 150.801056,10.5625237 C151.575956,10.9711376 152.201836,11.5491768 152.668763,12.2966413 C153.135689,13.0341396 153.364185,13.8712999 153.364185,14.808122 C153.364185,15.5755189 153.195297,16.2831187 152.847585,16.9408874 C152.499874,17.5986562 152.032948,18.1467968 151.426937,18.5952755 C150.820926,19.033788 150.155307,19.3327738 149.43008,19.4922329 L149.380407,19.5619963 L154,26.2792106 L154,26.3689064 L151.71504,26.3689064 L147.264336,19.6716244 L144.681338,19.6716244 L144.681338,26.3689064 L142.763959,26.3689064 L142.763959,9.94461967 L142.754024,9.94461967 Z M148.17832,17.8577772 C148.744592,17.8577772 149.271127,17.7282167 149.767857,17.4690957 C150.264587,17.2099746 150.661972,16.8511917 150.96001,16.3827806 C151.258048,15.9143695 151.407067,15.3961274 151.407067,14.808122 C151.407067,14.2998462 151.277917,13.8214689 151.019618,13.363024 C150.761318,12.9045791 150.403672,12.5258638 149.936745,12.2368442 C149.469819,11.9478245 148.93335,11.7983316 148.327339,11.7983316 L144.691273,11.7983316 L144.691273,17.847811 L148.17832,17.847811 L148.17832,17.8577772 Z" id="_x28_product_name_here_x29_" fill-opacity="0.85" fill="#000000" fill-rule="nonzero"></path>
            <path d="M57.8329967,26.7276893 C52.7365429,26.7276893 48.4447924,22.5618205 48.4447924,17.4391971 C48.4447924,12.3165737 52.7365429,8.15070487 57.8329967,8.15070487 C60.6544253,8.15070487 62.6612161,9.25695233 64.1812111,10.7120166 L62.3929817,12.5059314 C61.3101094,11.4893796 59.8397875,10.6920842 57.8329967,10.6920842 C54.1075188,10.6920842 51.1966787,13.7018746 51.1966787,17.4391971 C51.1966787,21.1765196 54.1075188,24.18631 57.8329967,24.18631 C60.2471064,24.18631 61.6280169,23.2096231 62.512197,22.332598 C63.2374234,21.6050659 63.7043499,20.5685818 63.8931075,19.1434162 L57.8329967,19.1434162 L57.8329967,16.6020368 L66.3469556,16.6020368 C66.4363671,17.0505155 66.4860401,17.5986562 66.4860401,18.1866616 C66.4860401,20.0902045 65.9694405,22.4422262 64.3004264,24.1165467 C62.6711507,25.8207657 60.5948177,26.7276893 57.8329967,26.7276893 L57.8329967,26.7276893 Z" id="Path" fill-opacity="0.85" fill="#000000" fill-rule="nonzero"></path>
            <path d="M79.6493954,20.7479733 C79.6493954,24.18631 77.0067897,26.7276893 73.7780422,26.7276893 C70.5492947,26.7276893 67.906689,24.18631 67.906689,20.7479733 C67.906689,17.279738 70.5492947,14.7682573 73.7780422,14.7682573 C77.0067897,14.7682573 79.6493954,17.279738 79.6493954,20.7479733 Z M77.076332,20.7479733 C77.076332,18.5952755 75.5464024,17.1202789 73.7780422,17.1202789 C72.009682,17.1202789 70.4797524,18.5952755 70.4797524,20.7479733 C70.4797524,22.8807387 72.009682,24.3756677 73.7780422,24.3756677 C75.5464024,24.3756677 77.076332,22.8707725 77.076332,20.7479733 Z" id="Shape" fill-opacity="0.85" fill="#000000" fill-rule="nonzero"></path>
            <path d="M92.8226853,20.7479733 C92.8226853,24.18631 90.1800796,26.7276893 86.9513321,26.7276893 C83.71265,26.7276893 81.0799789,24.18631 81.0799789,20.7479733 C81.0799789,17.279738 83.7225846,14.7682573 86.9513321,14.7682573 C90.1800796,14.7682573 92.8226853,17.279738 92.8226853,20.7479733 Z M90.2496219,20.7479733 C90.2496219,18.5952755 88.7196923,17.1202789 86.9413975,17.1202789 C85.1730373,17.1202789 83.6431077,18.5952755 83.6431077,20.7479733 C83.6431077,22.8807387 85.1730373,24.3756677 86.9413975,24.3756677 C88.7196923,24.3657015 90.2496219,22.8707725 90.2496219,20.7479733 Z" id="Shape" fill-opacity="0.85" fill="#000000" fill-rule="nonzero"></path>
            <path d="M105.658199,15.1270402 L105.658199,25.8606305 C105.658199,30.2756542 103.065266,32.0895014 99.9954721,32.0895014 C97.1045013,32.0895014 95.3659449,30.1460936 94.7102608,28.5515027 L96.9952206,27.6047143 C97.4025395,28.5814013 98.3960003,29.7374797 99.9954721,29.7374797 C101.962524,29.7374797 103.184481,28.5116379 103.184481,26.2293796 L103.184481,25.372287 L103.085135,25.372287 C102.498993,26.0998191 101.366448,26.7276893 99.9457991,26.7276893 C96.9654168,26.7276893 94.2333996,24.1265128 94.2333996,20.7679057 C94.2333996,17.3893661 96.9654168,14.7682573 99.9457991,14.7682573 C101.366448,14.7682573 102.498993,15.4060936 103.085135,16.1037272 L103.174547,16.1037272 L103.174547,15.1270402 L105.658199,15.1270402 Z M103.363304,20.7679057 C103.363304,18.6650389 101.962524,17.1202789 100.18423,17.1202789 C98.3761311,17.1202789 96.8660707,18.6650389 96.8660707,20.7679057 C96.8660707,22.8508401 98.3761311,24.3657015 100.18423,24.3657015 C101.962524,24.3657015 103.363304,22.8508401 103.363304,20.7679057 Z" id="Shape" fill-opacity="0.85" fill="#000000" fill-rule="nonzero"></path>
            <polygon id="Path" fill-opacity="0.85" fill="#000000" fill-rule="nonzero" points="110.247987 8.78854124 110.247987 26.3689064 107.625251 26.3689064 107.625251 8.78854124"></polygon>
            <path d="M120.550176,22.7113134 L122.58677,24.0667157 C121.931086,25.0434026 120.351483,26.7177231 117.619466,26.7177231 C114.231765,26.7177231 111.787852,24.0866481 111.787852,20.7380071 C111.787852,17.1800761 114.251634,14.7582911 117.331363,14.7582911 C120.421026,14.7582911 121.941021,17.229907 122.437751,18.5653769 L122.705986,19.2430781 L114.73843,22.5518543 C115.344441,23.7477975 116.298163,24.3657015 117.629401,24.3657015 C118.960638,24.3657015 119.874622,23.7079327 120.550176,22.7113134 Z M114.291373,20.5685818 L119.616322,18.3461207 C119.318284,17.5986562 118.444039,17.0804141 117.400905,17.0804141 C116.079602,17.0804141 114.231765,18.2564249 114.291373,20.5685818 Z" id="Shape" fill-opacity="0.85" fill="#000000" fill-rule="nonzero"></path>
            <polygon id="Path" points="0 0 35.8269802 0 35.8269802 36 0 36"></polygon>
            <path d="M39.6836987,7.45794393 C38.8979838,6.56074766 37.6632891,6 36.4285943,6 L9.60204416,6 C8.36734939,6 7.24489959,6.56074766 6.34693976,7.45794393 C5.44897992,8.35514019 5,9.58878505 5,10.8224299 L5,25.1775701 C5,26.411215 5.44897992,27.6448598 6.34693976,28.5420561 C7.24489959,29.5514019 8.36734939,30 9.60204416,30 L16,30 C16.8979678,30 17.6836827,29.7757009 18.4693976,29.3271028 C19.1428674,28.8785047 19.8163373,28.2056075 20.1530722,27.4205607 L21.9489919,23.9439252 C22.1734819,23.4953271 22.5102168,23.271028 22.9591967,23.271028 C23.4081767,23.271028 23.8571566,23.4953271 23.9694016,23.9439252 L25.7653212,27.4205607 C26.1020562,28.2056075 26.775526,28.7663551 27.4489959,29.2149533 C28.1224658,29.6635514 29.0204256,29.8878505 29.8061405,29.8878505 L36.2041043,29.8878505 C37.4387991,29.8878505 38.5612489,29.3271028 39.4592087,28.4299065 C40.3571686,27.5327103 40.8061485,26.2990654 40.8061485,25.0654206 L40.8061485,10.8224299 C40.9183935,9.58878505 40.5816585,8.35514019 39.6836987,7.45794393 Z M14.8775582,21.7009346 C12.8571486,21.7009346 11.2857189,20.0186916 11.2857189,18 C11.2857189,15.9813084 12.9693936,14.411215 14.9898032,14.411215 C17.0102128,14.411215 18.5816425,16.0934579 18.5816425,18.1121495 C18.4693976,20.0186916 16.8979678,21.7009346 14.8775582,21.7009346 Z M31.2653252,21.7009346 C29.2449156,21.7009346 27.5612409,20.1308411 27.5612409,18.1121495 C27.5612409,16.0934579 29.1326706,14.411215 31.1530802,14.411215 C33.1734899,14.411215 34.8571646,15.9813084 34.8571646,18 C34.8571646,20.0186916 33.2857349,21.7009346 31.2653252,21.7009346 Z" id="Shape" fill-opacity="0.85" fill="#000000" fill-rule="nonzero"></path>
        </g>
        <g id="oculus" transform="translate(186.000000, 76.000000)" fill="#000000" fill-opacity="0.85" fill-rule="nonzero">
            <path d="M38.2888581,2.94671158 C36.7704114,1.73327719 35.0348631,0.888251932 33.1475543,0.433249126 C32.0628893,0.173327719 30.9782243,0.0649803515 29.8717788,0.0216133351 C29.0473547,0 28.2230711,0 27.3987875,0 C23.5156895,0 19.6108111,0 15.7277132,0 C14.9034296,0 14.0790054,0 13.2547219,0.0216133351 C12.1484169,0.0649803515 11.0637519,0.173327719 9.97894635,0.433249126 C8.09163764,0.888251932 6.35608928,1.73327719 4.83764256,2.94671158 C1.77882816,5.39505333 0,9.10005614 0,13 C0,16.9216975 1.77882816,20.605087 4.83764256,23.0534288 C6.35608928,24.2667228 8.09163764,25.1117481 9.97894635,25.5667509 C11.0636114,25.8268126 12.1484169,25.9350196 13.2547219,25.9783867 C14.079146,26 14.9035701,26 15.7277132,26 C19.6109517,26 23.5158301,26 27.3987875,26 C28.2232116,26 29.0474952,26 29.8717788,25.9783867 C30.9782243,25.9350196 32.0628893,25.8266723 33.1475543,25.5667509 C35.0348631,25.1117481 36.7704114,24.2667228 38.2888581,23.0534288 C41.3476725,20.605087 43.1266412,16.9000842 43.1266412,13 C43.1266412,9.07830246 41.3476725,5.39505333 38.2888581,2.94671158 Z M32.6051516,16.4884484 C32.019469,16.8784709 31.3903661,17.1167789 30.6962029,17.2251263 C30.0020398,17.3334737 29.3295166,17.31172 28.6353534,17.31172 C23.9278313,17.31172 19.1986693,17.31172 14.4911472,17.31172 C13.7969841,17.31172 13.1244609,17.3333333 12.4302977,17.2251263 C11.7361346,17.1167789 11.1070317,16.8784709 10.5213491,16.4884484 C9.37148335,15.6867902 8.67746074,14.3867621 8.67746074,13 C8.67746074,11.5917649 9.37162387,10.2915965 10.5213491,9.51155158 C11.1071722,9.12166947 11.7361346,8.88322106 12.4302977,8.77501403 C13.1244609,8.66652632 13.7971246,8.68828 14.4911472,8.68828 C19.1986693,8.68828 23.9278313,8.68828 28.6353534,8.68828 C29.3295166,8.68828 30.0020398,8.66652632 30.6962029,8.77501403 C31.3903661,8.88322106 32.019469,9.12166947 32.6051516,9.51155158 C33.7550173,10.3132098 34.4491805,11.6133782 34.4491805,13 C34.4491805,14.4083754 33.7550173,15.7084035 32.6051516,16.4884484 Z" id="Shape"></path>
            <path d="M63.7496803,5.52150914 C61.7959668,5.51467027 59.8857153,6.2548973 58.4950699,7.67913514 C57.1023483,9.10548108 56.3909004,11.0526703 56.3840712,13.0328865 C56.3774743,15.0133838 57.0757729,16.9656324 58.4585286,18.4019568 C59.839485,19.8358919 61.744892,20.5896108 63.6987439,20.5962638 C65.652319,20.6031027 67.5627089,19.8630162 68.9534927,18.4386378 C70.3460758,17.0122919 71.0575238,15.0651027 71.0640781,13.0848865 C71.0708115,11.1043892 70.3723745,9.15214054 68.9894803,7.71581622 C67.6086623,6.28188108 65.7035322,5.5283027 63.7496803,5.52150914 Z M67.6651353,13.9421838 C67.6133684,14.2191892 67.5368255,14.4914162 67.4343991,14.7532432 C67.3373709,15.0021405 67.2169507,15.2421838 67.0730002,15.466627 C66.9350014,15.6824973 66.7756869,15.8843135 66.5974097,16.0668757 C66.419963,16.2488757 66.2234151,16.4116216 66.0128874,16.5528649 C65.7955775,16.6986054 65.5634572,16.8210162 65.3219248,16.9195351 C65.0701497,17.0221297 64.8085473,17.0991459 64.5416851,17.1504432 C64.2679023,17.2031459 63.9888596,17.2285838 63.7100939,17.2278952 C63.4313281,17.2268973 63.1527007,17.1990703 62.8789179,17.1445405 C62.6128862,17.0915568 62.3514221,17.0128541 62.1004776,16.9084324 C61.8594988,16.8083676 61.628209,16.6841297 61.411868,16.5369838 C61.2024476,16.3943351 61.0071454,16.2300432 60.830806,16.0470595 C60.6534977,15.8629514 60.4955673,15.6600108 60.3590911,15.4434378 C60.21694,15.2177297 60.0980424,14.9769838 60.0023983,14.7272432 C59.9017713,14.4644324 59.8273046,14.1916432 59.7773371,13.9143568 C59.7258471,13.6276541 59.7007942,13.336173 59.701736,13.0446919 C59.702732,12.7532108 59.7295843,12.4620108 59.7832889,12.1757297 C59.8350558,11.8987243 59.9115987,11.6264973 60.0137482,11.3646703 C60.1111917,11.115773 60.2316119,10.8757297 60.3751472,10.6512865 C60.5132843,10.4354162 60.6725988,10.2336 60.8510145,10.0508973 C61.028738,9.86903784 61.2251475,9.70629189 61.4356752,9.56504865 C61.6527083,9.41930811 61.8851054,9.2968973 62.1264994,9.19837838 C62.3782744,9.09578378 62.6402921,9.01876757 62.9067391,8.96747027 C63.1807988,8.91476757 63.4595645,8.88904865 63.7383303,8.89000525 C64.0170961,8.89101622 64.2958619,8.9187027 64.5695063,8.97337297 C64.8358149,9.02635676 65.0968636,9.10505946 65.348085,9.20948108 C65.5889254,9.30954595 65.8203536,9.43378378 66.0364178,9.58092973 C66.2458382,9.72357838 66.4414172,9.88758919 66.617895,10.0708541 C66.7950649,10.2548216 66.9528569,10.4579027 67.0894715,10.6744757 C67.231761,10.9001838 67.3505202,11.1409297 67.4460259,11.3906703 C67.5466529,11.6532 67.6213964,11.9261297 67.6710871,12.2034162 C67.7227155,12.4899784 67.74763,12.7816 67.7468196,13.0730811 C67.7455538,13.3645622 67.7185631,13.6559027 67.6651353,13.9421838 Z" id="Shape"></path>
            <path d="M123.655256,12.6372649 C123.652626,13.0340108 123.650965,13.4439676 123.625358,13.8401514 C123.608472,14.0956541 123.580927,14.3552324 123.53442,14.6072216 C123.446527,15.0811243 123.29358,15.5373189 123.035023,15.9484 C122.408284,16.9456757 121.307478,17.4354595 120.187708,17.4500757 C119.050084,17.4646919 117.968102,16.9910703 117.35908,15.9580973 C117.112426,15.5399892 116.968199,15.0805622 116.878091,14.6079243 C116.757394,13.9729622 116.728604,13.3079243 116.71324,12.6660757 C116.703551,12.2472649 116.700506,11.8287351 116.698707,11.4097838 C116.695247,10.6969622 116.695385,9.95687568 116.695247,9.24391351 C116.695108,8.1112973 116.695108,6.94663784 116.695108,5.8188 C115.569526,5.8188 114.444081,5.8188 113.318499,5.8188 C113.318499,6.94663784 113.316976,10.4990811 113.323759,11.6718919 C113.326942,12.2329297 113.331787,12.8077405 113.34895,13.3687784 C113.361407,13.7790162 113.380508,14.1950162 113.416357,14.6039892 C113.501759,15.5747027 113.678098,16.5234919 114.113964,17.4138162 C115.007426,19.2391568 116.742584,20.2961622 118.677335,20.5286162 C119.626716,20.6427351 120.601289,20.557427 121.517867,20.2840757 C122.39818,20.0215459 123.332197,19.5521405 123.986757,18.8654595 C124.018177,19.3274162 124.050151,19.8039892 124.081848,20.2551243 C125.066525,20.2551243 126.140479,20.2551243 127.029097,20.2551243 C127.029097,15.5182054 127.029097,10.5557189 127.029097,5.8188 C125.918324,5.8188 124.785267,5.8188 123.659685,5.8188 C123.659685,6.72107027 123.661207,11.7151784 123.655256,12.6372649 Z" id="Path"></path>
            <path d="M141.782367,14.6013189 C141.291413,13.2068757 140.093024,12.3529514 138.832488,11.8509405 C138.120071,11.5674703 137.386477,11.3920757 136.644301,11.2252541 C136.318475,11.1518919 135.992648,11.0803568 135.66959,10.9936432 C135.39207,10.9191568 135.120087,10.8353946 134.855577,10.7187459 C134.574182,10.5943676 134.285727,10.4244541 134.085857,10.1726054 C133.917684,9.96095135 133.828546,9.70558919 133.860381,9.42914595 C133.898306,9.10281081 134.090563,8.83578378 134.331819,8.63930811 C134.501653,8.50087568 134.685051,8.40221622 134.886997,8.32309189 C135.148461,8.22091892 135.412832,8.16301622 135.68966,8.13069189 C136.240133,8.06618378 136.80237,8.11185946 137.341216,8.22597838 C138.157582,8.39926486 138.915675,8.72925405 139.623247,9.16774054 C140.186039,8.38436757 140.748691,7.60141622 141.311898,6.81818378 C140.183962,5.99264865 138.902526,5.46014054 137.527244,5.24947027 C136.759877,5.13225946 135.976454,5.11820541 135.206042,5.22136216 C134.604633,5.30217297 134.035336,5.44664865 133.474344,5.68486486 C132.731892,6.0000973 132.077885,6.45516757 131.564785,7.09659459 C131.19688,7.55686486 130.926281,8.08557838 130.771396,8.65771892 C130.580523,9.36463784 130.574571,10.1110486 130.793957,10.8161405 C130.995488,11.464173 131.36796,12.0149514 131.869988,12.4575135 C132.922626,13.3852216 134.392721,13.7220973 135.657963,13.9995243 C136.101026,14.0964973 136.544228,14.1896757 136.980647,14.3167243 C137.334572,14.4196 137.703307,14.551427 138.022905,14.7460757 C138.274403,14.8987027 138.505416,15.0967243 138.659055,15.3584108 C138.789165,15.5803243 138.852143,15.8310486 138.827228,16.0903459 C138.804113,16.3310919 138.708192,16.5520216 138.563688,16.7409081 C138.392055,16.9653514 138.162149,17.1337189 137.91508,17.2573946 C137.589807,17.42 137.232422,17.5081189 136.876837,17.5535135 C136.382699,17.6168973 135.865169,17.6032649 135.373107,17.5418486 C134.823742,17.4735459 134.300122,17.3446703 133.781346,17.1486162 C132.988234,16.8492649 132.294642,16.4291892 131.628317,15.9077838 C131.027738,16.7222162 130.427437,17.536227 129.827412,18.3506595 C130.899567,19.2546162 132.110413,19.9171243 133.454413,20.3038919 C134.197419,20.5179351 134.938903,20.6380973 135.710837,20.6671892 C136.331347,20.6903784 136.938154,20.6536973 137.550636,20.5453405 C138.332952,20.4070486 139.101288,20.1546378 139.789067,19.7361081 C140.292894,19.4298703 140.731528,19.0460541 141.090574,18.5718703 C141.552046,17.9622054 141.854481,17.2377189 141.959399,16.4757081 C142.047015,15.8436973 141.994971,15.2056432 141.782367,14.6013189 Z" id="Path"></path>
            <path d="M81.9909833,17.0998486 C81.2035461,17.2783351 80.3647574,17.255427 79.5930994,16.9993622 C78.8114755,16.7399243 78.1457042,16.2567459 77.6694217,15.5709081 C77.1999214,14.8954703 76.9539598,14.079773 76.9098057,13.2640757 C76.8659285,12.4554054 77.0205369,11.6048541 77.3946699,10.8805081 C77.788873,10.1170919 78.3743642,9.58767568 79.1492057,9.24911351 C79.4791846,9.10463784 79.8147002,9.00696216 80.1687631,8.94667027 C80.6242836,8.86895135 81.0676236,8.85981622 81.5257739,8.91603243 C82.3454616,9.01694054 83.0927587,9.31854054 83.7821988,9.76602162 C84.4607042,8.89143784 85.1394864,8.01685405 85.8179918,7.14227027 C84.6432722,6.20261622 83.3179583,5.6583027 81.8319457,5.49738378 C80.3935475,5.34138378 78.8924477,5.56667027 77.5766843,6.20078919 C76.2350375,6.84741622 75.172987,7.87476757 74.4731658,9.20526486 C73.786494,10.5103243 73.4956862,12.0202919 73.5650316,13.4852865 C73.6345154,14.9557622 74.0683049,16.4189297 74.9102772,17.6386811 C75.7626306,18.874173 76.9581122,19.7498811 78.3547094,20.2353081 C79.7270841,20.7121622 81.2446551,20.7925514 82.6600766,20.4882811 C84.0921077,20.1804973 85.4116083,19.482573 86.431581,18.3971784 C85.6600614,17.5885081 84.8881266,16.7796973 84.1164686,15.971027 C83.519489,16.5372649 82.7852028,16.9196757 81.9909833,17.0998486 Z" id="Path"></path>
            <rect id="Rectangle" x="106.146578" y="0.0427243243" width="3.55447129" height="20.2124"></rect>
            <path d="M98.8511916,12.6372649 C98.8487001,13.0340108 98.8469008,13.4439676 98.8212942,13.8401514 C98.8045461,14.0956541 98.7768633,14.3552324 98.7303562,14.6072216 C98.6426017,15.0811243 98.4895158,15.5373189 98.2310969,15.9484 C97.60422,16.9456757 96.5032751,17.4354595 95.3836443,17.4500757 C94.2461581,17.4646919 93.1641759,16.9910703 92.555016,15.9580973 C92.3083622,15.5399892 92.1641349,15.0805622 92.0743042,14.6079243 C91.9536072,13.9729622 91.9246787,13.3079243 91.9094531,12.6660757 C91.8997641,12.2472649 91.8965806,11.8287351 91.8949196,11.4097838 C91.8913209,10.6969622 91.8917361,9.95687568 91.8913209,9.24391351 C91.8910441,8.1112973 91.8910441,6.94663784 91.8910441,5.8188 C90.7654615,5.8188 89.6400173,5.8188 88.5144347,5.8188 C88.5144347,6.94663784 88.5129122,10.4990811 88.5196945,11.6718919 C88.5230164,12.2329297 88.5277225,12.8077405 88.5447474,13.3687784 C88.5573431,13.7790162 88.5764442,14.1950162 88.6122934,14.6039892 C88.6975565,15.5747027 88.8740343,16.5234919 89.3098999,17.4138162 C90.2035007,19.2391568 91.9383816,20.2961622 93.8731324,20.5286162 C94.8226524,20.6427351 95.7970869,20.557427 96.7136643,20.2840757 C97.5939773,20.0215459 98.5279949,19.5521405 99.1824163,18.8654595 C99.2139747,19.3274162 99.2458099,19.8039892 99.2775067,20.2551243 C100.262322,20.2551243 101.258765,20.2551243 102.147382,20.2551243 C102.147382,15.5182054 102.147382,10.5557189 102.147382,5.8188 C101.03661,5.8188 99.9809266,5.8188 98.855344,5.8188 C98.8557593,6.72107027 98.8572818,11.7151784 98.8511916,12.6372649 Z" id="Path"></path>
        </g>
        <g id="vive" transform="translate(5.000000, 77.000000)" fill="#000000" fill-opacity="0.85" fill-rule="nonzero">
            <path d="M27.2183867,18.3966741 L17.0443374,1.23376552 C16.7247897,0.694398648 16.1341874,0.362330662 15.495092,0.362330662 L11.9606661,0.362330662 C11.3215707,0.362330662 10.7309684,0.694398648 10.4114207,1.23376552 L0.239606969,18.3977634 C-0.0798689895,18.9370092 -0.0798689895,19.6013873 0.239606969,20.140633 L2.00346653,23.1285651 C2.32301423,23.667932 2.91361659,24 3.552712,24 L23.8963394,24 C24.5354348,24 25.1260372,23.667932 25.4455849,23.1285651 L27.2139156,20.1460795 C27.5333915,19.6068338 27.5333915,18.9424556 27.2139156,18.4032099 M18.5734628,20.0611146 C15.4157738,21.0276779 12.0299242,21.0276779 8.87223523,20.0611146 C7.08378447,19.5164679 5.97382722,17.7398301 6.35946192,15.9490316 C7.05023711,12.7482866 8.75120332,9.83831956 11.224048,7.62682915 C12.6356449,6.361558 14.8066998,6.361558 16.2182967,7.62682915 C18.6911538,9.83532075 20.3942456,12.7414853 21.0895895,15.939228 C21.4609794,17.7354863 20.3751246,19.5137189 18.577934,20.0524003" id="Shape"></path>
            <path d="M103.084186,3.29547218 L93.3567827,21.9295473 C93.199212,22.2301928 92.8814726,22.4189734 92.5349482,22.4178342 L89.3255429,22.4178342 C88.9799247,22.4158383 88.6637257,22.2279729 88.5037084,21.9295473 L78.7763054,3.29547218 C78.6126479,2.98359709 78.621978,2.61225872 78.8011021,2.30855635 L79.8390224,0.559023747 C80.0412992,0.218444329 80.4145718,0.00852352733 80.8184933,0.00852352733 L81.760769,0.00852352733 C82.0058696,0.00564645489 82.2310268,0.13979496 82.3399498,0.353703846 L90.5193283,16.1995692 C90.5981722,16.3520733 90.758501,16.4482869 90.9337879,16.4482869 C91.1090748,16.4482869 91.2694037,16.3520733 91.3482475,16.1995692 L99.5205413,0.353703846 C99.6315607,0.138406424 99.8595166,0.00423175484 100.106807,0.00852352733 L101.043769,0.00852352733 C101.447253,0.00852352733 101.820043,0.218457126 102.021469,0.559023747 L103.062931,2.31373249 C103.241292,2.61606935 103.249303,2.98607888 103.084186,3.29547218" id="Path"></path>
            <path d="M54.8952832,3.29547218 L45.166109,21.9295473 C45.0082505,22.230749 44.6896642,22.4196256 44.3425034,22.4178418 L41.1313268,22.4178418 C40.7850713,22.4164763 40.4680353,22.2285188 40.3077212,21.9295473 L30.5820894,3.29547218 C30.4178876,2.98388716 30.4265511,2.61255276 30.6051149,2.30855635 L31.6465776,0.555572992 C31.8466149,0.21663176 32.2176185,0.00795083473 32.6189637,0.0086283808 L33.566553,0.0086283808 C33.8111359,0.00589470123 34.0356465,0.14006828 34.1439625,0.353703846 L42.332197,16.1961184 C42.4110409,16.3486226 42.5713698,16.4448361 42.7466567,16.4448361 C42.9219435,16.4448361 43.0822724,16.3486226 43.1611163,16.1961184 L51.3351812,0.350253091 C51.4449884,0.135503103 51.6716505,0.00127892484 51.9179044,0.00509492901 L52.8601801,0.00509492901 C53.2616238,0.0041405337 53.6327994,0.212918182 53.8325662,0.552122238 L54.8775712,2.31028173 C55.0553487,2.61235195 55.0653318,2.98124642 54.9041392,3.29202143" id="Path"></path>
            <path d="M68.8310455,0.265709602 C68.6565042,0.0952014277 68.4193493,-0.000435966221 68.1721609,0 L66.7162386,0 C66.3140911,0 65.9425208,0.209054508 65.7420814,0.548671483 L64.7041611,2.30165484 C64.6118142,2.45936921 64.5629958,2.63770262 64.5624655,2.81926804 L64.5624655,21.5154567 C64.5634424,22.0169609 64.9810627,22.4230052 65.4958853,22.4230052 L68.1916441,22.4230052 C68.7022666,22.4230052 69.1162111,22.0197718 69.1162111,21.5223582 L69.1162111,0.911000721 C69.1168676,0.668473074 69.0172807,0.435896053 68.8399015,0.265709602" id="Path"></path>
            <path d="M113.941611,0.546946106 C114.142502,0.207993343 114.513987,-0.000578484611 114.915768,2.87753664e-07 L128.849759,2.87753664e-07 C129.243443,0.000239692906 129.607476,0.203815347 129.806205,0.534868465 L130.787447,2.17915305 C130.926238,2.41498897 130.999497,2.68200601 131,2.95384747 L131,3.3627619 C131.000939,3.52823664 130.933879,3.68720152 130.813761,3.80421166 C130.693644,3.92122179 130.530458,3.98654757 130.360589,3.98562311 L117.662892,3.98562311 C117.406316,3.98657346 117.198837,4.18945702 117.198839,4.43939735 L117.198839,8.73041075 C117.198368,8.85030183 117.246808,8.96546451 117.333503,9.05056388 C117.420198,9.13566325 117.538046,9.18372826 117.66112,9.18418499 L126.270899,9.18418499 C126.690601,9.18889128 127.028836,9.52068033 127.030742,9.92954799 L127.030742,12.3882107 C127.028803,12.7990783 126.687364,13.1316846 126.265586,13.1335737 L117.66112,13.1335737 C117.405809,13.1335737 117.198839,13.3351904 117.198839,13.5838972 L117.198839,17.9922362 C117.198368,18.1119681 117.246864,18.2269534 117.33361,18.311779 C117.420356,18.3966045 117.538208,18.444286 117.66112,18.4442851 L130.360589,18.4442851 C130.527821,18.4433673 130.688577,18.5072026 130.807492,18.6217472 C130.926407,18.7362919 130.99374,18.8921628 130.994676,19.0550687 L130.994676,19.4674338 C130.994987,19.7399237 130.921685,20.0076958 130.782133,20.2438536 L129.800891,21.891589 C129.603139,22.2238238 129.238687,22.4281825 128.844446,22.4281825 L114.915768,22.4281825 C114.513522,22.4287646 114.141781,22.2193904 113.941611,21.8795113 L112.972767,20.2507551 C112.830502,20.0142752 112.755886,19.7449796 112.756675,19.4708846 L112.756675,2.95039672 C112.756675,2.67827049 112.830658,2.41099713 112.970996,2.1757023 L113.941611,0.546946106 Z" id="Path"></path>
        </g>
        <g id="unity-technologies-logo" transform="translate(5.000000, 9.000000)" fill="#000000" fill-opacity="0.85" fill-rule="nonzero">
            <path d="M53.0577223,23.7095174 L49.7425897,23.7095174 L49.7425897,16.1718539 C49.7425897,14.2318448 48.9313573,12.6905728 46.5522621,12.6905728 C44.1965679,12.6675688 43.5179407,14.2548489 43.5179407,16.2715381 L43.5179407,23.7095174 L40.1950078,23.7095174 L40.1950078,15.443392 C40.1950078,13.0586378 41.0530421,9.64636897 45.6162246,9.62336491 C48.1201248,9.60036085 49.3603744,10.7965719 49.9453978,11.8624267 L49.9453978,10.045106 L53.0577223,10.045106 L53.0577223,23.7095174 M54.375975,10.045106 L57.6911076,10.045106 L57.6911076,17.5827695 C57.6911076,19.4997745 58.5023401,21.0410465 60.8580343,21.0640505 C63.1903276,21.0640505 63.8689548,19.4997745 63.8689548,17.4524132 L63.8689548,10.045106 L67.1840874,10.045106 L67.1840874,18.2805593 C67.1840874,20.6959856 66.326053,24.1005864 61.7940718,24.1312585 C59.3135725,24.1542625 58.0733229,22.9657194 57.4648986,21.8921967 C57.4882995,22.5363103 57.4882995,23.1114118 57.4882995,23.7095174 L54.375975,23.7095174 L54.375975,10.045106 M68.4555382,10.045106 L71.7706708,10.045106 L71.7706708,23.7095174 L68.4555382,23.7095174 L68.4555382,10.045106 Z M68.4555382,25.5498421 L71.7706708,25.5498421 L71.7706708,28.4636897 L68.4555382,28.4636897 L68.4555382,25.5498421 M75.2418097,10.045106 L78.5569423,10.045106 L78.5569423,21.1944069 L80.9360374,21.1944069 L79.9531981,23.7095174 L78.5569423,23.7095174 L78.5569423,28.4636897 L75.2418097,28.4636897 L75.2418097,23.7095174 L72.9407176,23.7095174 L72.9407176,21.1944069 L75.2418097,21.1944069 L75.2418097,10.045106 M84.1419657,5.26792963 L87.6833073,5.26792963 L95,23.7095174 L91.4586583,23.7095174 L88.1201248,14.6229138 L84.7269891,23.7095174 L81.1856474,23.7095174 L86.4274571,10.5665313 L84.1419657,5.26792963 M22.0124805,17 L28.0655226,27.2751466 L30.9906396,17 L28.0655226,6.72485341 L22.0124805,17 Z M19.0639626,15.3360397 L25.1170047,5.0608931 L14.5709828,7.71402797 L6.950078,15.3360397 L19.0639626,15.3360397 L19.0639626,15.3360397 Z M25.1170047,28.9467749 L19.0639626,18.6716283 L6.950078,18.6716283 L14.5709828,26.2936401 L25.1170047,28.9467749 Z M33.7597504,20.4966171 L30.0624025,34 L16.2792512,30.3806946 L14.2355694,26.8534055 L10.0936037,26.8840776 L0,17 L10.0936037,7.11592242 L14.2355694,7.1465945 L16.2792512,3.61930537 L30.0624025,3.41178703e-15 L33.7597504,13.5033829 L31.6614665,17 L33.7597504,20.4966171" id="Shape" transform="translate(47.500000, 17.000000) scale(-1, 1) rotate(-180.000000) translate(-47.500000, -17.000000) "></path>
        </g>
    </g>
</svg>