<?xml version="1.0" encoding="UTF-8"?>
<svg width="344px" height="240px" viewBox="0 0 344 240" version="1.1" xmlns="http://www.w3.org/2000/svg" xmlns:xlink="http://www.w3.org/1999/xlink">
    <title>cloud</title>
    <g id="cloud" stroke="none" stroke-width="1" fill="none" fill-rule="evenodd">
        <g id="firebase-ar21" transform="translate(186.000000, 198.000000)">
            <g id="Group">
                <path d="M0,27.4436731 L0.202788731,27.1553672 L9.79336799,8.68042402 L9.81361821,8.48482602 L5.5860033,0.422639425 C5.2316245,-0.252692466 4.23439682,-0.0820169737 4.11824463,0.673997878 L0,27.4436731 Z" id="Path" fill="#FFC24A" fill-rule="nonzero"></path>
                <g id="D-link" transform="translate(0.119686, 0.126162)" fill="#FFA712" fill-rule="nonzero">
                    <path d="M0,27.0975728 L0.153309427,26.7940419 L9.64244656,8.51266023 L5.42638956,0.417696183 C5.07583155,-0.250653529 4.18587272,-0.0802689609 4.07000709,0.667890939 L0,27.0975728 Z" id="D"></path>
                </g>
                <g transform="translate(0.119686, 0.126162)" fill="#000000" fill-rule="nonzero" id="D">
                    <path d="M0,27.0975728 L0.153309427,26.7940419 L9.64244656,8.51266023 L5.42638956,0.417696183 C5.07583155,-0.250653529 4.18587272,-0.0802689609 4.07000709,0.667890939 L0,27.0975728 Z"></path>
                </g>
                <path d="M12.8956631,14.5830808 L16.0435211,11.3101842 L12.8948034,5.20756564 C12.5958261,4.62988729 11.7612688,4.62823872 11.4655392,5.20756564 L9.78314736,8.46591595 L9.78314736,8.74326363 L12.8956631,14.5830808 Z" id="Path" fill-rule="nonzero"></path>
                <g id="C-link" transform="translate(9.813618, 4.896681)"></g>
                <g transform="translate(0.000000, 4.896681)" fill="#000000" fill-opacity="0.75" fill-rule="nonzero" id="Combined-Shape">
                    <path d="M11.5554234,0.393797885 C11.8429383,-0.168461493 12.5489258,-0.110470615 12.8394974,0.451982712 L12.8394974,0.451982712 L15.8997637,6.36811894 L12.8394974,9.55005318 L12.831,9.535 L12.6980324,9.90265323 L0.42582768,22.3154163 L0.0918901363,22.4531204 L0,22.5469919 L9.79203071,3.55032475 L9.867,3.695 Z"></path>
                </g>
                <path d="M13.2887274,33.7035846 L24.3953029,27.4149685 L21.2245201,7.58344608 C21.1251794,6.96300187 20.3755393,6.71765585 19.9381537,7.16257583 L0,27.4436731 L11.0428637,33.7031967 C11.7407914,34.0987076 12.5907296,34.098891 13.2888229,33.7036816" id="Path" fill-opacity="0.85" fill="#000000" fill-rule="nonzero"></path>
                <path d="M24.2958667,27.3624083 L21.1482952,7.68216633 C21.0499097,7.06637692 20.4261648,6.81162435 19.9921224,7.25315021 L0.12417586,27.4050771 L11.0457293,33.6017612 C11.7382485,33.9943148 12.5816892,33.9945088 13.2745905,33.602343 L24.2958667,27.3624083 Z" id="Path" fill-opacity="0.85" fill="#000000" fill-rule="nonzero"></path>
                <path d="M13.2887274,33.5183629 C12.5914322,33.9136319 11.7406365,33.9134379 11.0427682,33.5177811 L0.0888334998,27.3483469 L0,27.4436731 L11.0428637,33.7031967 C11.740732,34.0988536 12.590668,34.0988536 13.2888229,33.7036816 L24.3953984,27.4150655 L24.3681752,27.2451658 L13.2887274,33.5183629 Z" id="Path" fill="#ECB22F" fill-rule="nonzero"></path>
            </g>
            <path d="M32.8047447,24.5313736 L30.9145303,24.5313736 L30.9145303,9.59647458 L39.4919737,9.59647458 L39.4919737,11.4316223 L32.8047447,11.4316223 L32.8047447,16.3339502 L38.8460181,16.3339502 L38.8460181,18.1293203 L32.8047447,18.1293203 L32.8047447,24.5313736 Z M42.8149388,11.7444683 C42.5544387,12.008936 42.2399324,12.1422449 41.8703611,12.1422449 C41.514771,12.1484834 41.1726231,12.0043995 40.9257834,11.7444683 C40.6708215,11.4931299 40.5291004,11.1462634 40.5339742,10.7855041 C40.5278293,10.4244982 40.6697516,10.0771392 40.9257834,9.82653997 C41.1733512,9.56769491 41.5150139,9.42381534 41.8703611,9.42876337 C42.2259512,9.42252486 42.5680991,9.56660873 42.8149388,9.82653997 C43.0699007,10.0778784 43.2116217,10.4247448 43.2067479,10.7855041 C43.2128929,11.1465101 43.0709705,11.493869 42.8149388,11.7444683 L42.8149388,11.7444683 Z M42.8149388,24.5313736 L40.9247244,24.5313736 L40.9247244,14.3106649 L42.8149388,14.3106649 L42.8149388,24.5313736 Z M46.8950486,24.5313736 L45.0037753,24.5313736 L45.0037753,14.3106649 L46.8113921,14.3106649 L46.8113921,15.9791765 L46.8929307,15.9791765 C47.0835406,15.4233643 47.4785266,14.9643086 48.0747118,14.6030845 C48.6708971,14.2418603 49.2395498,14.0601732 49.8113794,14.0601732 C50.3832089,14.0601732 50.8459673,14.1440288 51.2303638,14.3106649 L50.5102822,16.106035 C50.2635483,15.9985278 49.9278632,15.9598252 49.5042857,15.9598252 C48.8191492,15.9598252 48.2123745,16.2339686 47.6860795,16.7833303 C47.1597845,17.3326921 46.8950486,18.0519152 46.8950486,18.9420747 L46.8950486,24.5324486 L46.8950486,24.5313736 Z M56.2010452,24.8538951 C54.6804022,24.8538951 53.444615,24.3400108 52.4926246,23.3100919 C51.5406343,22.280173 51.0630507,20.9814861 51.0630507,19.409731 C51.0630507,17.9218315 51.5247502,16.6424959 52.4396775,15.5717243 C53.3546048,14.5009526 54.5575647,13.9655668 55.9839618,13.9655668 C57.4664829,13.9655668 58.6715607,14.4600999 59.5695449,15.4470159 C60.4675291,16.4339319 60.9144033,17.7551953 60.9144033,19.4108061 L60.8932245,19.7655798 L52.9511472,19.7655798 C53.0062123,20.7944236 53.3450743,21.608253 53.9677331,22.205993 C54.5512192,22.7879395 55.3386623,23.1104987 56.1565696,23.102603 C57.5120174,23.102603 58.4301216,22.518839 58.909823,21.3502358 L60.6041328,22.0597832 C60.2864498,22.8521112 59.7336812,23.5165057 58.9807723,24.0518915 C58.2278633,24.5872773 57.3023466,24.8549702 56.2063399,24.8549702 L56.2010452,24.8538951 Z M58.9119409,18.1884493 C58.8695832,17.6046852 58.6069652,17.0488731 58.12091,16.5199377 C57.6348549,15.9910023 56.9115964,15.7276097 55.9532524,15.7276097 C55.2543496,15.7276097 54.6486339,15.9501496 54.1350462,16.3941543 C53.6214585,16.838159 53.2688303,17.436974 53.0761026,18.1895244 L58.9002925,18.1895244 L58.9119409,18.1884493 Z M67.7678865,24.8538951 C67.0001524,24.8538951 66.311839,24.687259 65.7029464,24.3529116 C65.0940538,24.0185643 64.6376491,23.6025114 64.3263197,23.1015279 L64.2553705,23.1015279 L64.2553705,24.5206229 L62.4477537,24.5206229 L62.4477537,9.59647458 L64.3379681,9.59647458 L64.3379681,14.3106649 L64.2553705,15.7297598 L64.3379681,15.7297598 C64.639767,15.2287763 65.0951128,14.8116484 65.7145948,14.4783761 C66.3340768,14.1451038 67.0128597,13.9773926 67.7795349,13.9773926 C69.0820355,13.9773926 70.2151052,14.4988025 71.1490935,15.5416223 C72.0830818,16.584442 72.568078,17.8777535 72.568078,19.4118811 C72.568078,20.9460087 72.0957891,22.250071 71.1490935,23.28214 C70.2023979,24.314209 69.0809766,24.8463696 67.7795349,24.8463696 L67.7678865,24.8538951 Z M67.4502034,23.1015279 C68.3270087,23.1015279 69.0809766,22.7639553 69.7099891,22.0909603 C70.3390016,21.4179653 70.6545668,20.5235055 70.6545668,19.4108061 C70.6545668,18.2981066 70.3390016,17.4047219 69.7099891,16.7306518 C69.0809766,16.0565817 68.3259498,15.7200842 67.4502034,15.7200842 C66.5863223,15.7029002 65.7577437,16.0677856 65.1798283,16.7199011 C64.5571694,17.3971964 64.244781,18.2841307 64.244781,19.4108061 C64.244781,20.5374814 64.5561105,21.4340914 65.1798283,22.1017111 C65.8035461,22.7693307 66.5596318,23.1036781 67.4502034,23.1036781 L67.4502034,23.1015279 Z M77.5239342,24.8538951 C76.4649905,24.8538951 75.5617116,24.5313736 74.8426889,23.9153574 C74.1236662,23.2993412 73.7625664,22.4618601 73.7625664,21.442692 C73.7625664,20.3299925 74.1861438,19.4581092 75.0364756,18.8248919 C75.8868073,18.1916745 76.9341026,17.8756034 78.1815382,17.8756034 C79.2913111,17.8756034 80.2020026,18.0841673 80.9136127,18.5012952 L80.9136127,18.2088757 C80.9136127,17.4563253 80.6594662,16.8564352 80.1532912,16.404905 C79.6471161,15.9533748 79.0233983,15.7276097 78.2831967,15.7276097 C77.7346639,15.7276097 77.2380194,15.8598435 76.7932631,16.1253863 C76.3700612,16.3636308 76.0456143,16.7487442 75.8793947,17.2101339 L74.1533166,16.4597337 C74.3862842,15.8469427 74.8448068,15.2814548 75.5299433,14.76112 C76.2150798,14.2407852 77.1183587,13.9784677 78.240839,13.9784677 C79.5285144,13.9784677 80.5969886,14.3611933 81.4462614,15.1255694 C82.2955342,15.8899456 82.7201705,16.9682427 82.7201705,18.3583107 L82.7201705,24.5324486 L80.9231432,24.5324486 L80.9231432,23.1133537 L80.8405456,23.1133537 C80.0865777,24.2808818 78.9842174,24.8657209 77.5324057,24.8657209 L77.5239342,24.8538951 Z M77.8416172,23.1015279 C78.6220587,23.1015279 79.3315509,22.8058832 79.9679761,22.2145936 C80.6044012,21.6233041 80.9231432,20.9245073 80.9231432,20.1182034 C80.3894356,19.6731236 79.5888742,19.4516588 78.5193412,19.4516588 C77.601237,19.4516588 76.9097469,19.6537723 76.4438117,20.0569243 C75.9778765,20.4600762 75.7449089,20.9331079 75.7449089,21.4760192 C75.7449089,21.9770027 75.9566976,22.3726292 76.3823929,22.6650487 C76.8080883,22.9574683 77.2930844,23.1036781 77.8416172,23.1036781 L77.8416172,23.1015279 Z M88.2192648,24.8538951 C87.0967846,24.8538951 86.168091,24.5743764 85.4342431,24.0196393 C84.7192937,23.4868273 84.161567,22.7655738 83.8214719,21.9339998 L85.5157817,21.2244524 C86.0494893,22.5145387 86.9612398,23.1434557 88.2478563,23.1434557 C88.836629,23.1434557 89.3195072,23.0112219 89.6964912,22.7456791 C90.0734751,22.4801364 90.2619671,22.1328881 90.2619671,21.7028594 C90.2619671,21.0363148 89.8034445,20.5847846 88.8853404,20.3482688 L86.8521686,19.8472853 C86.2083309,19.6806491 85.5983793,19.3635029 85.0233729,18.8979968 C84.4483666,18.4324906 84.1635107,17.8261501 84.1635107,17.0219963 C84.1635107,16.1189359 84.5574377,15.3846618 85.3452918,14.8213241 C86.1331459,14.2579864 87.0681931,13.9763175 88.1514924,13.9763175 C89.0410051,13.9763175 89.8458022,14.1913319 90.5341156,14.5912587 C91.222429,14.9911854 91.7328398,15.5889254 92.0346387,16.3543766 L90.3911582,17.0424226 C90.0205279,16.1393622 89.2538527,15.687832 88.0900737,15.687832 C87.5288336,15.687832 87.0554858,15.7953392 86.6710892,16.0426058 C86.2866927,16.2898723 86.0960828,16.5984179 86.0960828,17.0015699 C86.0960828,17.585334 86.5408392,17.9820355 87.4303518,18.1905994 L89.4232837,18.6700815 C90.3678614,18.8926214 91.0667642,19.275347 91.5199921,19.8171832 C91.97322,20.3590195 92.197716,20.9718105 92.197716,21.652331 C92.197716,22.5704424 91.8270858,23.3348185 91.0879431,23.9465345 C90.3488005,24.5582504 89.3957512,24.8646459 88.2319721,24.8646459 L88.2192648,24.8538951 Z M98.2866419,24.8538951 C96.7659989,24.8538951 95.5291527,24.3400108 94.5782213,23.3100919 C93.6272899,22.280173 93.1486474,20.9814861 93.1486474,19.409731 C93.1486474,17.9218315 93.6103468,16.6424959 94.5252741,15.5717243 C95.4402014,14.5009526 96.6431614,13.9655668 98.0695585,13.9655668 C99.5520795,13.9655668 100.757157,14.4600999 101.655142,15.4470159 C102.553126,16.4339319 103,17.7551953 103,19.4108061 L103,19.7655798 L95.0579228,19.7655798 C95.11087,20.7944236 95.4518498,21.608253 96.0745087,22.205993 C96.6577346,22.7876748 97.4447447,23.1102126 98.2622862,23.102603 C99.617734,23.102603 100.535838,22.518839 101.01554,21.3502358 L102.709849,22.0597832 C102.392166,22.8521112 101.839398,23.5165057 101.086489,24.0518915 C100.33358,24.5872773 99.4080632,24.8549702 98.3120566,24.8549702 L98.2866419,24.8538951 Z M100.997538,18.1884493 C100.95518,17.6046852 100.692562,17.0488731 100.206507,16.5199377 C99.7204516,15.9910023 98.9971931,15.7276097 98.0388491,15.7276097 C97.3725545,15.715704 96.725284,15.9533726 96.2206429,16.3952293 C95.7070552,16.8403091 95.354427,17.4380491 95.1616993,18.1905994 L100.985889,18.1905994 L100.997538,18.1884493 Z" id="Shape" fill-opacity="0.85" fill="#000000" fill-rule="nonzero"></path>
        </g>
        <g id="azure" transform="translate(5.000000, 66.000000)" fill="#000000" fill-opacity="0.85" fill-rule="nonzero">
            <path d="M58.3632106,15.3829959 L56.5206899,15.3829959 L56.5206899,8.20462479 C56.51127,7.49444875 56.5381166,6.78403771 56.6007585,6.07644669 C56.541092,6.43092997 56.4328484,6.775539 56.279071,7.1005854 L52.9044132,15.4497364 L51.619547,15.4497364 L48.2394728,7.18401111 L47.9177853,6.07080664 C47.9978539,6.54386566 47.9978539,7.25286669 47.9978539,8.27865042 L47.9978539,15.4664216 L46.2297499,15.4664216 L46.2297499,4.34730198 L48.8809639,4.34730198 L51.8557495,11.75762 L52.3373388,13.0195807 C52.4593755,12.560214 52.6204903,12.112083 52.8189281,11.6800694 L55.8718984,4.26975132 L58.4435147,4.26975132 L58.3632106,15.3829959 Z M61.817937,5.76483404 C61.5170577,5.78067928 61.2240594,5.66564591 61.0146601,5.44946135 C60.7989458,5.2788499 60.6790783,5.01470766 60.6929726,4.74069533 C60.6623581,4.46339297 60.7855225,4.19173066 61.0146601,4.0319293 C61.243842,3.84737746 61.5241781,3.73731535 61.817937,3.71655661 C62.1188164,3.70071137 62.4118146,3.81574474 62.6212139,4.0319293 C62.8369282,4.20254075 62.9567957,4.46668299 62.9429014,4.74069533 C62.9735159,5.01799768 62.8503515,5.28965999 62.6212139,5.44946135 C62.4118146,5.66564591 62.1188164,5.78067928 61.817937,5.76483404 L61.817937,5.76483404 Z M62.701047,15.3829959 L60.8528744,15.3829959 L60.8528744,7.42159813 L62.701047,7.42159813 L62.701047,15.3829959 Z M70.9744927,15.0697382 C70.3311176,15.4631315 69.5280762,15.6266929 68.6447307,15.6266929 C67.4399332,15.6266929 66.4748705,15.2332996 65.7516623,14.5226535 C65.0284541,13.8120075 64.6361177,12.8677695 64.6361177,11.6838294 C64.6361177,10.344318 65.0376384,9.31829926 65.8409153,8.52963255 C66.6441922,7.74096585 67.6890879,7.3475725 69.0537873,7.3475725 C69.7164541,7.34772142 70.3722539,7.48153183 70.9817931,7.74096585 L70.9817931,9.39232489 C70.4683299,9.0114166 69.8527725,8.79182545 69.2136891,8.76157953 C68.4130027,8.76157953 67.7672726,8.99728653 67.2856833,9.55001123 C66.7911345,10.1125528 66.5322084,10.8432776 66.562475,11.5910036 C66.562475,12.3794353 66.8040939,13.0879663 67.2854478,13.5614954 C67.7818734,14.0347894 68.4473851,14.2900016 69.1336204,14.2702614 C69.8146749,14.2613313 70.4700603,14.0098792 70.9817931,13.5614954 L70.9817931,15.0702082 L70.9744927,15.0697382 Z M77.4821893,9.1582629 C77.1908808,8.98788645 76.856241,8.90610576 76.5166557,8.9225559 C75.9585302,8.9225559 75.5511221,9.1582629 75.1500724,9.63132193 C74.7490227,10.1043809 74.5919469,10.7445264 74.5919469,11.6018137 L74.5919469,15.3869909 L72.7437742,15.3869909 L72.7437742,7.42159813 L74.5919469,7.42159813 L74.5919469,9.07648221 C74.7438424,8.57028876 75.0198519,8.10989158 75.3949882,7.73697081 C75.7463483,7.42042312 76.2065075,7.25098668 76.6798544,7.26391179 C76.9298623,7.26033142 77.1773345,7.31428958 77.4030627,7.42159813 L77.4821893,9.1582629 Z M82.3805063,15.6259879 C81.09564,15.6259879 80.1308129,15.2325946 79.4057207,14.5219485 C78.6806285,13.8113025 78.2901761,12.7871638 78.2901761,11.6079237 C78.2901761,10.2684123 78.6916968,9.24239362 79.4949737,8.45372691 C80.2982506,7.6650602 81.3431463,7.34052244 82.6277771,7.34052244 C83.9124078,7.34052244 84.8774704,7.73391579 85.6025626,8.45372691 C86.3276548,9.17353803 86.638274,10.1828716 86.638274,11.522383 C86.6721855,12.6515676 86.2732552,13.751142 85.5227295,14.5966792 C84.6247832,15.2899351 83.515597,15.6541882 82.3805063,15.630688 L82.3805063,15.6259879 Z M82.4605749,8.68872891 C81.7379162,8.68872891 81.1758657,8.92498425 80.7744235,9.39749494 C80.3729028,9.87055396 80.1310484,10.579555 80.1310484,11.4384873 C80.1310484,12.2974196 80.3726673,12.93545 80.7744235,13.4089791 C81.1761797,13.8825081 81.7399571,14.1177451 82.4605749,14.1177451 C83.1811927,14.1177451 83.7454411,13.8820381 84.1467263,13.4089791 C84.5480115,12.93592 84.7048518,12.3049397 84.7048518,11.3679867 C84.7048518,10.5015343 84.5447145,9.7934733 84.1467263,9.32699434 C83.692522,8.89891122 83.0846108,8.67153921 82.4603394,8.69624897 L82.4605749,8.68872891 Z M87.9250242,15.1472888 L87.9250242,13.4881747 C88.647997,13.9612338 89.3714407,14.2766064 90.1747176,14.2766064 C91.2988185,14.2766064 91.860869,13.9612338 91.860869,13.3304884 C91.844294,13.1626887 91.7895213,13.0008858 91.7007317,12.8574294 C91.6051203,12.7112581 91.4640582,12.6005722 91.299211,12.5420567 C91.1195275,12.4494659 90.9330147,12.3705052 90.7410855,12.3063497 L90.0181127,12.0706427 C89.7172359,11.9545698 89.4224835,11.8232683 89.1350027,11.6772493 C88.9067633,11.5391336 88.6914372,11.3808093 88.4916276,11.2041903 C88.3129085,11.0259861 88.1758073,10.810615 88.0901069,10.5734449 C87.9907736,10.3220584 87.9366441,10.0551607 87.9302051,9.78501323 C87.9246142,9.42894516 88.0076336,9.07705496 88.171824,8.76087452 C88.3273407,8.45103824 88.5817852,8.20167494 88.8950323,8.05210849 C89.2167198,7.81640149 89.5384074,7.73673581 89.939928,7.57904947 C90.3354971,7.48786881 90.7389728,7.4350611 91.1447256,7.42136313 C91.828108,7.39781717 92.5097006,7.50486283 93.1528,7.73673581 L93.1528,9.31594924 C92.5853018,8.93158072 91.9102898,8.73666818 91.2247942,8.75922951 C91.0072435,8.74093734 90.7882476,8.7674945 90.5814192,8.83725017 C90.4212819,8.91527083 90.2597316,8.91527083 90.0998298,8.99470151 C89.9568838,9.05580203 89.8421972,9.16860299 89.7781423,9.31007419 C89.7136164,9.43063022 89.6858279,9.56740138 89.6980736,9.70346754 C89.6851964,9.86531023 89.7126213,10.0278193 89.7779068,10.1765266 C89.8416122,10.3182551 89.9564611,10.4308494 90.0995943,10.4918992 C90.2792778,10.58449 90.4657906,10.6634507 90.6577199,10.7276063 C90.8993388,10.8056269 91.0592406,10.8850576 91.3806926,10.9633133 C91.6864529,11.1276373 92.0086487,11.2594904 92.3419873,11.3567066 C92.6636748,11.4347273 92.8235766,11.6720793 93.06496,11.8297656 C93.244269,12.0250524 93.405459,12.2361657 93.5465494,12.460511 C93.6455107,12.73906 93.6995616,13.0315123 93.7066867,13.3269634 C93.7066867,13.7203567 93.626618,14.1153951 93.3849991,14.3511021 C93.2085073,14.6464114 92.9604678,14.8927185 92.6636748,15.0673882 C92.3045022,15.2533219 91.9315588,15.4114727 91.5481303,15.5404472 C90.3317934,15.8468898 89.0457497,15.7065936 87.9243177,15.1451738 L87.9250242,15.1472888 Z M99.0953063,15.6259879 C97.81044,15.6259879 96.8456129,15.2325946 96.1205207,14.5219485 C95.3954285,13.8113025 95.0049761,12.7871638 95.0049761,11.6079237 C95.0049761,10.2684123 95.4064968,9.24239362 96.2097737,8.45372691 C97.0130506,7.6650602 98.0579464,7.34052244 99.3425771,7.34052244 C100.627208,7.34052244 101.59227,7.73391579 102.317363,8.45372691 C103.042455,9.17353803 103.362258,10.1885117 103.362258,11.5280231 C103.39617,12.6572077 102.99724,13.756782 102.246714,14.6023192 C101.336693,15.2854441 100.224496,15.6464682 99.0858864,15.6283379 L99.0953063,15.6259879 Z M99.1753749,8.68872891 C98.4527162,8.68872891 97.8906657,8.92498425 97.4892235,9.39749494 C97.0877028,9.87055396 96.8458484,10.579555 96.8458484,11.4384873 C96.8458484,12.2974196 97.0874673,12.93545 97.4892235,13.4089791 C97.8909797,13.8825081 98.4547571,14.1177451 99.1753749,14.1177451 C99.8959927,14.1177451 100.460241,13.8820381 100.861526,13.4089791 C101.262811,12.93592 101.419652,12.3049397 101.419652,11.3679867 C101.419652,10.5015343 101.259515,9.7934733 100.861526,9.32699434 C100.408547,8.89316365 99.7988234,8.66087463 99.1713715,8.68308886 L99.1753749,8.68872891 Z M109.693333,5.13549868 C109.427269,4.97506437 109.121021,4.89332495 108.810223,4.89979168 C107.927113,4.89979168 107.44364,5.3728507 107.44364,6.39675441 L107.44364,7.50126381 L109.291812,7.50126381 L109.291812,8.92067588 L107.44364,8.92067588 L107.44364,15.4683016 L105.603003,15.4683016 L105.603003,8.91879586 L104.23642,8.91879586 L104.23642,7.49938379 L105.603003,7.49938379 L105.603003,6.23742306 C105.603003,5.37097069 105.844622,4.74046032 106.403689,4.2669313 C107.295179,3.58420962 108.46358,3.37648944 109.536493,3.70997656 L109.536493,5.12938863 L109.690743,5.12938863 L109.693333,5.13549868 Z M115,15.3047402 C114.67894,15.4618782 114.196802,15.5404472 113.553584,15.5404472 C111.947501,15.5404472 111.223822,14.8316812 111.223822,13.3326034 L111.223822,8.8410102 L109.857238,8.8410102 L109.857238,7.42159813 L111.223822,7.42159813 L111.223822,5.6073827 L113.071994,5.13432367 L113.071994,7.4998538 L115,7.4998538 L115,8.91926587 L113.071994,8.91926587 L113.071994,12.8672995 C113.046317,13.2252532 113.130603,13.5825124 113.313613,13.8914382 C113.47375,14.1271452 113.795202,14.2068108 114.196723,14.2068108 C114.482729,14.2108621 114.762792,14.125211 114.99741,13.9619388 L114.99741,15.3014502 L115,15.3047402 Z M57.4909334,31.7548801 L55.4011418,31.7548801 L54.3562461,28.917936 L49.8568594,28.917936 L48.8913258,31.7567601 L46.8034182,31.7567601 L51.061186,20.6411656 L53.1453256,20.6411656 L57.4909334,31.7548801 Z M53.8746567,27.4190932 L52.268574,23.0052857 C52.1979696,22.7732521 52.1445254,22.5363605 52.1086722,22.2965197 C52.0728189,22.5363605 52.0193748,22.7732521 51.9487704,23.0052857 L50.4222853,27.4190932 L53.8746567,27.4190932 Z M64.8110912,24.576274 L60.4716063,30.327948 L64.8094428,30.327948 L64.8094428,31.74736 L57.8929251,31.74736 L57.8929251,31.0517541 L62.3941957,25.2128945 L58.3782824,25.2128945 L58.3782824,23.7934824 L64.8857435,23.7934824 L64.8857435,24.5765091 L64.8110912,24.576274 Z M73.4773443,31.7548801 L71.6291716,31.7548801 L71.6291716,30.4952694 C71.1412058,31.4069687 70.1726789,31.9587819 69.1378594,31.9146815 C67.2098536,31.9146815 66.2447909,30.8106421 66.2447909,28.5250126 L66.2447909,23.7930124 L68.0929636,23.7930124 L68.0929636,28.3647413 C68.0929636,29.7835267 68.6550141,30.4929194 69.779115,30.4929194 C70.2939618,30.5137177 70.7925298,30.3106107 71.1456983,29.9361996 C71.5067103,29.4895159 71.7035902,28.9329564 71.7035883,28.3591012 L71.7035883,23.7930124 L73.549877,23.7930124 L73.4773443,31.7548801 Z M80.5478763,25.5280321 C80.2565678,25.3576557 79.921928,25.275875 79.5823427,25.2923251 C79.0242172,25.2923251 78.6168091,25.5280321 78.2157594,26.0010912 C77.8147097,26.4741502 77.6576339,27.1142956 77.6576339,27.9715829 L77.6576339,31.7565251 L75.8094612,31.7565251 L75.8094612,23.7930124 L77.6576339,23.7930124 L77.6576339,25.4478965 C77.8095294,24.941703 78.0855389,24.4813058 78.4606752,24.1083851 C78.8087383,23.7948924 79.2613617,23.625691 79.7323537,23.635326 C79.9823615,23.6317457 80.2298337,23.6857038 80.4555619,23.7930124 L80.5478763,25.5280321 Z M88.7417244,28.2869556 L83.1993259,28.2869556 C83.1993259,28.9957216 83.4409448,29.626467 83.9222986,30.0217404 C84.3238193,30.4151337 84.9671944,30.6524857 85.7704713,30.6524857 C86.6426046,30.6717448 87.4952431,30.393627 88.1876023,29.864054 L88.1876023,31.2834661 C87.4588206,31.7597368 86.492031,31.9978722 85.2872335,31.9978722 C84.2358285,32.0330947 83.2172292,31.6297284 82.4761176,30.8846677 C81.7531449,30.1759017 81.4312219,29.149883 81.4312219,27.8103716 C81.3931973,26.7039239 81.7940541,25.6271659 82.5467664,24.8138611 C83.2677235,24.0315478 84.2932516,23.5997183 85.3578823,23.630156 C86.4734268,23.630156 87.2858881,23.9455287 87.9294986,24.6542947 C88.5731092,25.3630607 88.8126087,26.3091788 88.8126087,27.5683195 L88.7417244,28.2869556 Z M86.9736204,27.0249949 C86.9736204,26.3942495 86.8134831,25.8429348 86.492031,25.5280321 C86.1804676,25.1442911 85.7008661,24.9363968 85.2071648,24.9710774 C84.692318,24.9502791 84.19375,25.1533861 83.8405815,25.5277971 C83.4390608,25.9211905 83.282456,26.3942495 83.1972064,27.0247599 L86.9736204,27.0249949 Z" id="Shape"></path>
            <path d="M25.1462635,4.75315043 L19.1552451,16.7939479 L29.7054662,28.9933716 L10.1286832,31.2110855 L40.506255,31.5283382 L25.1462635,4.75315043 Z M23.96478,0 L10.2104003,11.4864277 L0,28.6768239 L8.69145109,27.8073165 L23.96478,0 Z" id="Shape"></path>
        </g>
        <g id="google-cloud-3" transform="translate(5.000000, 9.000000)" fill="#000000" fill-opacity="0.85" fill-rule="nonzero">
            <path d="M17.9968825,6.29336984 L18.8618989,6.29336984 L21.3271958,3.82491723 L21.4482981,2.77690753 C18.5770659,0.23941208 14.6007733,-0.633714285 10.9325138,0.467819761 C7.26425423,1.56935381 4.42408911,4.48938011 3.42135526,8.19018079 C3.69600038,8.07746475 4.00023678,8.0591872 4.28637172,8.13821336 L9.21696549,7.32405706 C9.21696549,7.32405706 9.46782026,6.90831768 9.59757273,6.93430139 C11.7908244,4.52246442 15.4818764,4.24138788 18.0141828,6.29336984 L17.9968825,6.29336984 Z" id="Path"></path>
            <path d="M24.8391626,8.19018079 C24.2725019,6.10077252 23.1090509,4.2224191 21.4915489,2.78556876 L18.0314831,6.25006365 C19.4925518,7.44542262 20.3247967,9.24613898 20.2891761,11.1350014 L20.2891761,11.7499493 C21.9899141,11.7499493 23.3686346,13.1304347 23.3686346,14.8333497 C23.3686346,16.5362648 21.9899141,17.9167502 20.2891761,17.9167502 L14.1302589,17.9167502 L13.5160972,18.5403593 L13.5160972,22.2387076 L14.1302589,22.8536554 L20.2891761,22.8536554 C23.8204672,22.8811834 26.9531312,20.5899218 28.0008999,17.213224 C29.0486686,13.8365261 27.7643046,10.1711767 24.8391626,8.19018079 Z" id="Path"></path>
            <path d="M7.96269163,22.8190104 L14.1216088,22.8190104 L14.1216088,17.8821052 L7.96269163,17.8821052 C7.52389669,17.8820081 7.09024731,17.7874874 6.69111745,17.6049456 L5.826101,17.873444 L3.34350378,20.3418966 L3.12724967,21.2080203 C4.5194347,22.2606265 6.2181944,22.8265903 7.96269163,22.8190104 L7.96269163,22.8190104 Z" id="Path"></path>
            <path d="M7.96269163,6.80433179 C4.54162337,6.82484503 1.51115859,9.01857898 0.419346533,12.2649618 C-0.672465525,15.5113446 0.415407955,19.0936918 3.12724967,21.1820366 L6.69976761,17.6049456 C5.45157669,17.0402949 4.72586446,15.7180546 4.91895766,14.3603279 C5.11205086,13.0026012 6.17753442,11.9357538 7.53352534,11.7424134 C8.88951626,11.549073 10.2100662,12.2757142 10.7739951,13.5255029 L14.346513,9.94841194 C12.8264951,7.95872859 10.4645108,6.79545242 7.96269163,6.80433179 Z" id="Path"></path>
            <g id="Group" transform="translate(33.654691, 3.339207)">
                <path d="M8.10580044,16.0326309 C5.96320052,16.0599629 3.90186949,15.2124845 2.39669186,13.6854356 C0.843158963,12.2222836 -0.0260768757,10.1736655 0.000596288578,8.03830895 C-0.0250099525,5.90316312 0.844051097,3.85495691 2.39669186,2.39118229 C3.8945801,0.848225152 5.95683587,-0.0152766355 8.10580044,0.000680816947 C10.1526564,-0.0266335145 12.1249903,0.768925625 13.5813546,2.20929631 L12.0416253,3.77698024 C10.9871851,2.75664598 9.5720162,2.19608231 8.10580044,2.21795754 C6.56797896,2.19904559 5.09289082,2.82754616 4.04022312,3.95020499 C2.94683151,5.03631935 2.34379214,6.52238343 2.37074136,8.06429267 C2.35791672,9.58824776 2.95986775,11.0528924 4.04022312,12.1264129 C6.26768077,14.3490477 9.85776721,14.3912929 12.1367771,12.2216865 C12.8152942,11.4776809 13.2315658,10.5315044 13.3218496,9.52804175 L8.13175093,9.52804175 L8.13175093,7.31076503 L15.4757406,7.31076503 C15.547905,7.75731581 15.5768731,8.20979633 15.5622422,8.66191803 C15.6545371,10.5528991 14.9700392,12.3993408 13.6678562,13.772048 C12.2188288,15.2826312 10.1963849,16.1046118 8.10580044,16.0326309 L8.10580044,16.0326309 Z M25.1812252,14.5602206 C23.133428,16.5256851 19.9023331,16.5256851 17.8545358,14.5602206 C16.8627037,13.597314 16.3198214,12.2619363 16.3580574,10.8791948 C16.3208907,9.49664761 16.8636046,8.16168407 17.8545358,7.19816894 C19.9041118,5.2371412 23.1316492,5.2371412 25.1812252,7.19816894 C26.1721564,8.16168407 26.7148704,9.49664761 26.6777036,10.8791948 C26.7136869,12.2632422 26.1675868,13.598815 25.172575,14.5602206 L25.1812252,14.5602206 Z M19.4721166,13.113794 C20.0020101,13.680403 20.7426305,14.0019325 21.5178805,14.0019325 C22.2931305,14.0019325 23.0337509,13.680403 23.5636444,13.113794 C24.1411193,12.5161898 24.45305,11.7103782 24.4286609,10.8791948 C24.4544144,10.0452086 24.1424549,9.23619928 23.5636444,8.63593432 C23.0268951,8.07529933 22.2848645,7.75831248 21.5092303,7.75831248 C20.7335962,7.75831248 19.9915656,8.07529933 19.4548163,8.63593432 C18.8760058,9.23619928 18.5640463,10.0452086 18.5897998,10.8791948 C18.5677136,11.7116272 18.8828316,12.5176125 19.4634664,13.113794 L19.4721166,13.113794 Z M36.4437394,14.5602206 C34.3959422,16.5256851 31.1648473,16.5256851 29.11705,14.5602206 C28.1252179,13.597314 27.5823356,12.2619363 27.6205716,10.8791948 C27.5834049,9.49664761 28.1261188,8.16168407 29.11705,7.19816894 C31.1648473,5.23270445 34.3959422,5.23270445 36.4437394,7.19816894 C37.4346706,8.16168407 37.9773846,9.49664761 37.9402178,10.8791948 C37.9784538,12.2619363 37.4355715,13.597314 36.4437394,14.5602206 L36.4437394,14.5602206 Z M30.7346308,13.113794 C31.2645243,13.680403 32.0051447,14.0019325 32.7803947,14.0019325 C33.5556447,14.0019325 34.2962651,13.680403 34.8261586,13.113794 C35.4036334,12.5161898 35.7155642,11.7103782 35.6911751,10.8791948 C35.7169286,10.0452086 35.4049691,9.23619928 34.8261586,8.63593432 C34.2894093,8.07529933 33.5473787,7.75831248 32.7717445,7.75831248 C31.9961104,7.75831248 31.2540798,8.07529933 30.7173305,8.63593432 C30.1385199,9.23619928 29.8265605,10.0452086 29.852314,10.8791948 C29.8302278,11.7116272 30.1453458,12.5176125 30.7259806,13.113794 L30.7346308,13.113794 Z M43.8482802,20.6577316 C42.8114787,20.6907472 41.7947362,20.3666851 40.9677754,19.7396404 C40.2335231,19.1869507 39.6552601,18.4527507 39.2896435,17.6089761 L41.261881,16.7861585 C41.4765168,17.2904117 41.8122959,17.7337314 42.2393496,18.0766829 C42.6964483,18.4456301 43.2700465,18.6391218 43.8569304,18.6223408 C44.609986,18.6682094 45.3456974,18.3836653 45.8724187,17.8428295 C46.393566,17.213392 46.6508957,16.406267 46.5903823,15.5909078 L46.5903823,14.8460414 L46.5125309,14.8460414 C45.8441967,15.6408454 44.8410438,16.074069 43.8050294,16.0153084 C42.4919958,16.0192818 41.2372441,15.4727662 40.3449636,14.5082532 C39.3772155,13.5518656 38.8427013,12.240473 38.8657854,10.8791948 C38.8416505,9.51008255 39.3757825,8.1902448 40.3449636,7.22415266 C41.2350898,6.255552 42.4904546,5.70562685 43.8050294,5.70842543 C44.3552746,5.70747151 44.8988798,5.82875598 45.3966596,6.06354687 C45.8272791,6.25184002 46.2112091,6.53276335 46.521181,6.8863644 L46.5990325,6.8863644 L46.5990325,6.06354687 L48.7442733,6.06354687 L48.7442733,15.2877645 C48.8584028,16.7625063 48.3609372,18.2192209 47.3688972,19.3152398 C46.4243358,20.2200417 45.1546557,20.7041998 43.8482802,20.6577316 L43.8482802,20.6577316 Z M44.0039832,14.0059014 C44.7517825,14.0223572 45.4681588,13.7049708 45.9589203,13.1397777 C46.4926334,12.5273782 46.7740097,11.7348006 46.7460853,10.9225009 C46.7781258,10.0964924 46.4969194,9.28892272 45.9589203,8.66191803 C45.4688957,8.09572611 44.7520251,7.77812071 44.0039832,7.79579431 C43.2363475,7.7800105 42.4990022,8.09551866 41.9798447,8.66191803 C41.4076512,9.26639105 41.0967991,10.0725286 41.1148282,10.9051785 C41.0970586,11.7300689 41.4083655,12.5280347 41.9798447,13.1224552 C42.4965426,13.6943256 43.2338712,14.0161367 44.0039832,14.0059014 L44.0039832,14.0059014 Z M52.5589959,0.58098371 L52.5589959,15.7208264 L50.3013029,15.7208264 L50.3013029,0.58098371 L52.5589959,0.58098371 Z M58.7525137,16.0326309 C57.3856703,16.0678124 56.066005,15.5311102 55.1107944,14.5515593 C54.1418447,13.5795115 53.6134371,12.2521054 53.6489166,10.8791948 C53.597232,9.50317517 54.1061423,8.16518475 55.0588934,7.17218523 C55.9574184,6.22376593 57.2136573,5.6986148 58.5189592,5.72575862 C59.112569,5.7194815 59.701228,5.83441693 60.2489921,6.06354687 C60.7424028,6.26295276 61.192026,6.55720033 61.5724673,6.92967059 C61.899137,7.24542858 62.1892998,7.59697498 62.4374837,7.97768029 C62.638223,8.29911514 62.8090601,8.63832749 62.9478434,8.99104505 L63.1813979,9.58000918 L56.2612663,12.4295562 C56.6896831,13.4151604 57.6799767,14.0348862 58.7525137,13.9885789 C59.7894974,13.9914078 60.7517963,13.4488051 61.2870119,12.5594748 L63.0170448,13.7287418 C62.5755431,14.3611966 62.0105497,14.8974488 61.3562132,15.305087 C60.5780567,15.7973561 59.6727992,16.0503095 58.7525137,16.0326309 L58.7525137,16.0326309 Z M55.8633587,10.7232925 L60.4652462,8.80915907 C60.3234578,8.47165304 60.0699245,8.19332704 59.7472826,8.02098648 C59.386011,7.81671285 58.9770659,7.71210411 58.56221,7.71784318 C57.8582339,7.73610023 57.1898954,8.03179061 56.7024247,8.54066071 C56.1117783,9.10659305 55.8041225,9.90688675 55.8633587,10.7232925 L55.8633587,10.7232925 Z M75.0061728,16.0326309 C73.0660395,16.0661647 71.1961103,15.3062459 69.8281117,13.9283235 C68.4601132,12.5504011 67.7123031,10.6735908 67.7573349,8.73120793 C67.7123031,6.78882508 68.4601132,4.91201472 69.8281117,3.53409234 C71.1961103,2.15616996 73.0660395,1.39625115 75.0061728,1.42978496 C76.9749411,1.3681504 78.8640148,2.21023109 80.1357203,3.71635158 L78.8900966,4.92892479 C77.9553675,3.75173549 76.5155566,3.09205012 75.0148229,3.15337116 C73.5755647,3.12090396 72.1853587,3.67769817 71.1654997,4.69507139 C70.1046568,5.76318895 69.5371528,7.22614698 69.5998199,8.73120793 C69.5371528,10.2362689 70.1046568,11.6992269 71.1654997,12.7673445 C72.1853587,13.7847177 73.5755647,14.3415119 75.0148229,14.3090447 C76.6894561,14.327835 78.2814493,13.5818284 79.3399052,12.2823152 L80.5855289,13.5295333 C79.9333344,14.3104176 79.1145456,14.9349143 78.1894333,15.3570544 C77.1922412,15.8180305 76.1043913,16.0489025 75.0061728,16.0326309 L75.0061728,16.0326309 Z M83.9331425,15.7208264 L82.1425585,15.7208264 L82.1425585,1.73292826 L83.9331425,1.73292826 L83.9331425,15.7208264 Z M86.8568982,7.30210379 C88.8099851,5.35996316 91.9623455,5.35996316 93.9154324,7.30210379 C94.8421312,8.28177796 95.340282,9.5910976 95.2994587,10.9398234 C95.340282,12.2885492 94.8421312,13.5978689 93.9154324,14.5775431 C91.9623455,16.5196837 88.8099851,16.5196837 86.8568982,14.5775431 C85.9301993,13.5978689 85.4320486,12.2885492 85.4728718,10.9398234 C85.4320486,9.5910976 85.9301993,8.28177796 86.8568982,7.30210379 L86.8568982,7.30210379 Z M88.1890235,13.4515822 C88.7592132,14.0549369 89.5522481,14.3967626 90.3818402,14.3967626 C91.2114323,14.3967626 92.0044671,14.0549369 92.5746569,13.4515822 C93.2068585,12.7723389 93.54031,11.867435 93.5002245,10.9398234 C93.54031,10.0122118 93.2068585,9.10730794 92.5746569,8.42806463 C92.0044671,7.8247099 91.2114323,7.48288427 90.3818402,7.48288427 C89.5522481,7.48288427 88.7592132,7.8247099 88.1890235,8.42806463 C87.5568219,9.10730794 87.2233704,10.0122118 87.2634559,10.9398234 C87.2280406,11.8657053 87.5645046,12.7672105 88.1976736,13.442921 L88.1890235,13.4515822 Z M105.221197,15.7208264 L103.491165,15.7208264 L103.491165,14.3956571 L103.439264,14.3956571 C103.131354,14.8989663 102.695542,15.311426 102.17634,15.5909078 C101.637568,15.9035588 101.025771,16.0679096 100.403056,16.0672759 C99.3788109,16.1374321 98.3786131,15.7355651 97.6869041,14.97596 C97.0316179,14.1460819 96.7023822,13.104735 96.7613365,12.0484618 L96.7613365,6.15882048 L98.5519206,6.15882048 L98.5519206,11.7193348 C98.5519206,13.5035496 99.3390855,14.3956571 100.913415,14.3956571 C101.62313,14.4178143 102.299787,14.0951842 102.72995,13.5295333 C103.19406,12.9406 103.441483,12.2096135 103.430613,11.4594977 L103.430613,6.15882048 L105.221197,6.15882048 L105.221197,15.7208264 Z M111.302263,16.0326309 C110.072987,16.036717 108.903512,15.5018674 108.101702,14.5688818 C107.20489,13.5771063 106.72464,12.2772207 106.760927,10.9398234 C106.72464,9.60242616 107.20489,8.30254053 108.101702,7.31076503 C108.903512,6.37777941 110.072987,5.84292984 111.302263,5.84701594 C111.982774,5.83625872 112.655052,5.99709715 113.2572,6.31472275 C113.786326,6.58132747 114.234389,6.98509984 114.554725,7.48398977 L114.632576,7.48398977 L114.554725,6.15882048 L114.554725,1.73292826 L116.345309,1.73292826 L116.345309,15.7208264 L114.615276,15.7208264 L114.615276,14.3956571 L114.537425,14.3956571 C114.217088,14.894547 113.769026,15.2983194 113.2399,15.5649241 C112.642913,15.8797338 111.976936,16.0404874 111.302263,16.0326309 L111.302263,16.0326309 Z M111.596369,14.3956571 C112.41509,14.407593 113.199512,14.0669267 113.75026,13.4602435 C114.358527,12.7667652 114.669322,11.8611922 114.615276,10.9398234 C114.669322,10.0184547 114.358527,9.11288164 113.75026,8.41940339 C113.196176,7.80966907 112.411025,7.46210348 111.587718,7.46210348 C110.764412,7.46210348 109.979261,7.80966907 109.425177,8.41940339 C108.814924,9.10828316 108.50367,10.0120762 108.560161,10.9311622 C108.50367,11.8502482 108.814924,12.7540412 109.425177,13.442921 C109.976772,14.0606033 110.768929,14.4082082 111.596369,14.3956571 L111.596369,14.3956571 Z" id="Shape"></path>
            </g>
        </g>
        <g id="parseplatform-ar21" transform="translate(186.000000, 65.000000)" fill="#000000" fill-opacity="0.85" fill-rule="nonzero">
            <path d="M88.4392451,23.7249304 L88.4392451,21.7575209 C87.4604811,22.2800836 86.3781652,22.4916435 85.4521728,22.4916435 C83.5573733,22.4916435 82.2480399,21.5576602 82.1594234,19.4303621 L88.8853145,19.4303621 C88.9647092,18.8859535 89.0029812,18.3365519 88.999819,17.7866295 C88.999819,15.4077994 87.5759812,13.594429 85.032987,13.5788301 C81.9304146,13.5534819 79.9848348,15.7694986 79.9848348,19.1807799 L79.9848348,19.2295265 C79.9848348,22.4536212 82.1076475,24.3576602 85.2619958,24.3576602 C86.3174281,24.3449861 87.512257,24.1587744 88.4402408,23.7239554 M84.9553231,15.2830084 C86.3154367,15.2830084 86.9895193,16.2169916 86.9895193,17.6618384 L86.9895193,17.7739554 L82.2978244,17.7739554 C82.6025058,16.155571 83.532481,15.2839833 84.9563188,15.2839833 M74.6827815,19.7033426 L74.9117904,19.8008357 C76.4501326,20.3487465 76.8065899,20.6724234 76.8065899,21.3568245 C76.8065899,22.1533426 76.1962314,22.5891365 74.9117904,22.5891365 C73.8822461,22.5891365 72.6744732,22.2654596 71.4537563,21.6922006 L71.4537563,23.7590529 C72.4833006,24.1451253 73.7418537,24.3566852 74.8231739,24.3566852 C77.5314528,24.3566852 78.9174543,23.0892758 78.9174543,21.3188022 C78.9174543,19.7628134 78.1676992,18.8034819 75.930382,18.0196379 L75.7013731,17.9221448 C74.0086988,17.3245125 73.6671769,16.9881616 73.6671769,16.3915042 C73.6671769,15.7314763 74.2267551,15.245961 75.447472,15.245961 C76.4013437,15.245961 77.3671638,15.5696379 78.409652,16.0424791 L78.409652,14.112117 C77.5195045,13.7884401 76.5656327,13.5642061 75.5221488,13.5642061 C73.132491,13.5642061 71.631985,14.8462396 71.631985,16.6518106 C71.631985,18.0947075 72.3817401,18.8805014 74.6957255,19.7013928 M66.660501,17.1119777 C67.3345836,16.1038997 68.3004037,15.5559889 69.4832843,15.5559889 C69.8775778,15.5559889 70.3226516,15.6047354 70.653221,15.7178273 L70.653221,13.8625348 C70.2760766,13.7388769 69.8810118,13.6756676 69.4832843,13.6753482 C68.2486278,13.6753482 67.3345836,14.1979109 66.496212,15.2566852 L66.3946516,13.8001393 L64.5765202,13.8001393 L64.5765202,24.1344011 L66.6376001,24.1344011 L66.6376001,17.1100279 L66.660501,17.1119777 Z M60.7859255,24.1577994 L62.6040568,24.1577994 L62.6040568,17.1870474 C62.6040568,14.7341226 61.3455037,13.5505571 58.7258413,13.5505571 C57.4672882,13.5505571 56.1569591,13.9366295 55.1781951,14.447493 L55.1781951,16.4392758 C56.3481317,15.7548747 57.6076806,15.343454 58.6113368,15.343454 C60.0102824,15.343454 60.5688649,15.9410864 60.5688649,17.0369081 L60.5688649,17.8587744 C57.6953013,17.9708914 55.9667822,18.4310585 55.0766346,19.3016713 C54.4413839,19.8993036 54.1227629,20.7445682 54.1227629,21.5927577 C54.1227629,23.3729805 55.4569885,24.3810585 57.2761155,24.3810585 C58.4460522,24.3810585 59.6159888,23.9208914 60.6455331,22.9615599 L60.7859255,24.1577994 Z M57.6992841,22.6759053 C56.8091366,22.6759053 56.1987781,22.2157382 56.1987781,21.4435933 C56.1987781,20.2346797 57.2283224,19.5639276 60.5469597,19.4518106 L60.5469597,21.2573816 C59.7703209,22.1036212 58.8542854,22.6768802 57.6992841,22.6768802 M45.8754563,17.821727 L45.8754563,12.4937326 L48.5837352,12.4937326 C50.4277545,12.4937326 51.4712384,13.3399721 51.4712384,15.120195 L51.4712384,15.1455432 C51.4712384,16.9511142 50.4158062,17.7973538 48.5837352,17.7973538 L45.8754563,17.7973538 L45.8754563,17.821727 Z M43.7008677,24.1587744 L45.8754563,24.1587744 L45.8754563,19.7267409 L48.4184505,19.7267409 C51.6863076,19.7267409 53.5960425,18.0332869 53.5960425,15.1699164 L53.5960425,15.1445682 C53.5960425,12.3172702 51.6385144,10.6130919 48.4184505,10.6130919 L43.7018633,10.6130919 L43.7008677,24.1587744 Z M20.8398077,21.7584958 L12.0528367,21.7584958 C10.7723784,21.7584958 10.0276017,22.5316156 10.0276017,23.6401114 C10.0276017,24.6316156 10.7126369,25.3316156 11.6953837,25.3316156 C12.8424195,25.3316156 13.4876271,24.5584958 13.5573254,23.45 L16.1043024,23.45 C15.9698842,26.1622563 14.2423607,27.6061281 11.665513,27.6061281 C9.25295427,27.6061281 7.45075399,26.0023677 7.45075399,23.6089136 C7.45075399,21.1150418 9.34256644,19.3796657 12.187255,19.3796657 L20.8856095,19.3796657 C23.8199102,19.3796657 26.0632015,17.2640669 26.0632015,14.4211699 C26.0632015,11.5480501 24.0678372,9.52116992 21.2241443,9.52116992 C18.4093265,9.52116992 16.1301904,11.5334262 16.1301904,15.2537604 L16.1301904,17.6891365 L13.5533427,17.6891365 L13.5533427,15.2537604 C13.5533427,10.3245125 16.7853549,7.13064067 21.2679547,7.13064067 C25.5424552,7.13064067 28.6561792,10.1334262 28.6561792,14.3938719 C28.6858509,18.6523677 25.3502869,21.7584958 20.851756,21.7584958 M17.8726492,35 C27.8663974,35 35.7452984,27.2561281 35.7452984,17.5 C35.7452984,7.74387187 27.8663974,0 17.8726492,0 C7.87890102,0 0,7.77311978 0,17.5 C0,27.2561281 7.87890102,35 17.8726492,35" id="Shape"></path>
        </g>
        <g id="ibm" transform="translate(186.000000, 6.000000)" fill="#000000" fill-opacity="0.85" fill-rule="nonzero">
            <g id="ibm_cloud-ar21" transform="translate(45.218295, 9.473684)">
                <path d="M0,16.9105263 L0,15.3189474 L2.2047817,15.3189474 L2.2047817,2.58631579 L0,2.58631579 L0,0.994736842 L6.30873181,0.994736842 L6.30873181,2.58631579 L4.10550936,2.58631579 L4.10550936,15.3189474 L6.31029106,15.3189474 L6.31029106,16.9105263 L0,16.9105263 Z M9.75779626,0.994736842 L16.2193347,0.994736842 C18.8170478,0.994736842 20.4106029,2.60842105 20.4106029,5.10631579 C20.4106029,7.47157895 18.9043659,8.31157895 17.8565489,8.48842105 L17.8565489,8.62105263 C18.991684,8.68736842 20.9345114,9.66 20.9345114,12.3126316 C20.9345114,14.9431579 19.2099792,16.9105263 16.8742204,16.9105263 L9.73440748,16.9105263 L9.75779626,0.994736842 Z M11.6351351,7.86947368 L15.97921,7.86947368 C17.4636175,7.86947368 18.3586279,7.07368421 18.3586279,5.65894737 L18.3586279,4.86947368 C18.3586279,3.45473684 17.4636175,2.65894737 15.97921,2.65894737 L11.6366944,2.65894737 L11.6351351,7.86947368 Z M11.6351351,15.2084211 L16.3066528,15.2084211 C17.9220374,15.2084211 18.9261954,14.3463158 18.9261954,12.7547368 L18.9261954,11.9652632 C18.9261954,10.3736842 17.9438669,9.51157895 16.3066528,9.51157895 L11.6366944,9.51157895 L11.6351351,15.2084211 Z M36.6735967,3.49263158 L36.5644491,3.49263158 L35.2328482,6.16736842 L31.4781705,13.1084211 L27.7453222,6.16736842 L26.4137214,3.51473684 L26.3045738,3.51473684 L26.3045738,16.9105263 L24.4334719,16.9105263 L24.4334719,0.994736842 L26.9017672,0.994736842 L31.3986486,9.57157895 L31.4859667,9.57157895 L36.0046778,0.994736842 L38.4714137,0.994736842 L38.4714137,16.9105263 L36.6595634,16.9105263 L36.6735967,3.49263158 Z M46.1476091,9.06315789 C46.1476091,3.69157895 48.8762994,0.707368421 53.1112266,0.707368421 C55.9927235,0.707368421 57.8482328,1.90105263 58.983368,4.44315789 L56.02079,5.99052632 C55.6060291,4.66421053 54.7765073,3.78 53.0956341,3.78 C51.0873181,3.78 49.7557173,5.15052632 49.7557173,7.64842105 L49.7557173,10.2126316 C49.7557173,12.7105263 51.0873181,14.0810526 53.0956341,14.0810526 C54.7765073,14.0810526 55.7588358,13.02 56.2172557,11.7157895 L59.0114345,13.3515789 C57.8326403,15.7610526 55.977131,17.1538169 53.0956341,17.1538169 C48.8607069,17.1757895 46.1320166,14.4347368 46.1320166,9.06315789 L46.1476091,9.06315789 Z M64.549896,16.9105263 C62.2796258,16.9105263 61.2318087,15.7389474 61.2318087,13.6168421 L61.2318087,0.0378947368 L64.5717256,0.0378947368 L64.5717256,14.2957895 L66.0561331,14.2957895 L66.0561331,16.9263158 L64.549896,16.9105263 Z M67.3222453,10.8978947 C67.3222453,7.05157895 69.3960499,4.64210526 72.8669439,4.64210526 C76.3378378,4.64210526 78.4116424,7.02947368 78.4116424,10.8978947 C78.4116424,14.7442105 76.3378378,17.1757895 72.8669439,17.1757895 C69.3960499,17.1757895 67.3222453,14.7663158 67.3222453,10.8978947 Z M74.9407484,12.1357895 L74.9407484,9.70421053 C74.9407484,8.20105263 74.1611227,7.33894737 72.8669439,7.33894737 C71.5727651,7.33894737 70.7931393,8.20105263 70.7931393,9.70421053 L70.7931393,12.1357895 C70.7931393,13.6389474 71.5727651,14.5010526 72.8669439,14.5010526 C74.1611227,14.5010526 74.9407484,13.6389474 74.9407484,12.1357895 Z M87.7546778,14.8989474 L87.6455301,14.8989474 C87.2307692,16.1147368 86.2702703,17.1757895 84.3274428,17.1757895 C81.9261954,17.1757895 80.6382536,15.4736842 80.6382536,12.4452632 L80.6382536,4.92947368 L83.9781705,4.92947368 L83.9781705,12.1578947 C83.9781705,13.6168421 84.45842,14.4347368 85.6590437,14.4347368 C86.6850312,14.4347368 87.7546778,13.8378947 87.7546778,12.7105263 L87.7546778,4.92947368 L91.0945946,4.92947368 L91.0945946,16.9105263 L87.7546778,16.9105263 L87.7546778,14.8989474 Z M101.441788,14.8989474 L101.33264,14.8989474 C101.02079,16.2031579 99.6954262,17.1757895 98.1673597,17.1757895 C95.1767152,17.1757895 93.6268191,14.9652632 93.6268191,10.8978947 C93.6268191,6.83052632 95.1767152,4.64210526 98.1673597,4.64210526 C99.6954262,4.64210526 101.005198,5.59263158 101.33264,6.91894737 L101.441788,6.91894737 L101.441788,0 L104.781705,0 L104.781705,16.8663158 L101.441788,16.8663158 L101.441788,14.8989474 Z M101.441788,12.6884211 L101.441788,9.15157895 C101.441788,8.04631579 100.524948,7.40526316 99.2588358,7.40526316 C97.9927235,7.40526316 97.0758836,8.37789474 97.0758836,9.88105263 L97.0758836,11.9431579 C97.0758836,13.4463158 97.9927235,14.4189474 99.2588358,14.4189474 C100.524948,14.4189474 101.441788,13.7557895 101.441788,12.6726316 L101.441788,12.6884211 Z" id="Shape"></path>
            </g>
            <g id="dfhgdr">
                <path d="M4.3587033,11.979942 C4.25269578,11.9789311 4.14877647,11.9496968 4.05719236,11.8951217 L1.13059991,10.1449976 C0.859758424,9.98706053 0.73446724,9.65657655 0.83047205,9.35334216 C0.884635939,9.19372513 0.999077507,9.06292363 1.14824337,8.99014402 C1.29740923,8.9173644 1.4688765,8.90866794 1.62435866,8.96599644 C1.6597967,8.9772802 1.69336784,8.99396047 1.72394025,9.01547491 L4.65191578,10.7670127 C4.94036901,10.9424327 5.05260158,11.3122058 4.91193439,11.623697 C4.80757756,11.8391844 4.59392129,11.9767652 4.3587033,11.979942 L4.3587033,11.979942 Z M9.41800159,6.72675445 C9.19698257,6.72813574 8.99197183,6.60908807 8.87998435,6.41432116 L7.19262954,3.38482526 C7.02827471,3.10949253 7.07817048,2.75368254 7.31157423,2.53662295 C7.43442638,2.42224923 7.5983298,2.36533636 7.76392115,2.37955264 C7.9295125,2.39376891 8.08183125,2.47782994 8.18429626,2.61154748 C8.20829573,2.64121204 8.23046774,2.67237289 8.25068399,2.70484974 L9.93665573,5.72586362 C10.1104714,6.01845582 10.0400316,6.39797007 9.77345256,6.60516668 C9.66968069,6.68141431 9.54577124,6.72379532 9.41800159,6.72675445 L9.41800159,6.72675445 Z M15.708239,4.1255886 L15.708239,0.686128246 C15.7004877,0.330127745 15.9654256,0.0295852291 16.312644,0.00049804761 C16.4790909,-0.0062567072 16.6411616,0.0559278926 16.7621443,0.17296585 C16.8840985,0.291476373 16.9547842,0.454800443 16.9585413,0.626754085 L16.9585413,4.16093037 C16.9596454,4.3307742 16.8946923,4.49410957 16.7779717,4.61500267 C16.6612511,4.73589576 16.5023247,4.80444305 16.3361563,4.80556412 L16.3084948,4.80556412 C15.9650873,4.77450876 15.7032762,4.4779267 15.708239,4.1255886 Z M23.236331,6.72674235 C23.1092062,6.7278703 22.9850882,6.68723435 22.8822631,6.61082137 C22.6167738,6.39999063 22.5488618,6.0188216 22.7245923,5.72586362 L24.4133302,2.69919506 C24.4950978,2.55256301 24.6305229,2.44515327 24.7897938,2.4006103 C24.9490648,2.35606733 25.1191255,2.37805464 25.2625399,2.46169841 C25.2939727,2.48273037 25.3240053,2.50587116 25.3524399,2.53096827 C25.5843159,2.74885311 25.6340464,3.10348446 25.4713846,3.37917057 L23.7895621,6.40159813 C23.6779071,6.60594726 23.4652873,6.73090789 23.236331,6.72674235 L23.236331,6.72674235 Z M28.2983955,11.9799454 C28.0662535,11.9807211 27.8529808,11.8493821 27.7451644,11.6392474 C27.5964965,11.321605 27.7137201,10.940539 28.0134815,10.7670127 L30.9179447,9.03102528 C31.1784743,8.86445533 31.5188798,8.91664558 31.7201297,9.15401462 C31.8307191,9.28180805 31.886053,9.44987843 31.8735497,9.62001036 C31.8610464,9.79014229 31.7817685,9.94787732 31.653742,10.0573501 C31.626247,10.0832038 31.5961063,10.1059539 31.563842,10.1252063 L28.6040557,11.8951217 C28.5111279,11.9501045 28.4057682,11.9793417 28.2983955,11.9799454 L28.2983955,11.9799454 Z M8.45952873,26.6255685 C5.51561922,23.5846419 4.44447643,19.1363284 5.67124405,15.0461933 C6.87761278,10.9719385 10.199931,7.92099793 14.2919675,7.12963844 C18.3777199,6.36156447 22.5398053,7.99987567 25.0661429,11.37065 C25.2556245,11.6208697 25.4368077,11.8838124 25.602777,12.1467551 L24.571001,12.8535904 C24.4252864,12.6128177 24.2664428,12.3806093 24.0952223,12.1580645 C21.8571901,9.14301374 18.1501854,7.67103158 14.5077276,8.35104977 C10.8579526,9.05127706 7.89523975,11.7741355 6.82749702,15.4095066 C5.73928083,19.0551882 6.70368256,23.017142 9.3364,25.7165783 L8.45952873,26.6255685 Z M24.2611916,30 L7.13730643,30 C5.22440314,29.9836233 3.39788003,29.1835855 2.06694353,27.7791236 C0.725052589,26.3640001 -0.0173288583,24.4654702 0.000307181491,22.4948232 L1.24539536,22.4948232 C1.22560247,24.1281597 1.83805584,25.7033231 2.94934711,26.8772018 C4.05089775,28.0394214 5.56251836,28.7014431 7.1456049,28.7149735 L24.2542762,28.7149735 C27.1378539,28.7210116 29.7504804,26.9788565 30.9068801,24.2788754 C32.0798544,21.5671455 31.5989703,18.4053955 29.6759409,16.1856117 L30.5818568,15.3289274 C32.8176244,17.9316129 33.3713738,21.624391 32.0008945,24.7920378 C30.65191,27.9467767 27.6074359,29.9895297 24.2390624,30 L24.2611916,30 Z M1.24539536,22.5103736 L0.000625420835,22.5103736 C0.000531431662,18.9161815 2.52607955,15.841142 5.98935193,15.2186611 L6.19543051,16.4697595 C3.32948125,16.9879842 1.24185765,19.5355476 1.24539536,22.5103736 L1.24539536,22.5103736 Z M16.9972675,21.1419406 L15.7524975,21.1419406 C15.7659255,17.5236151 17.9448556,14.2824756 21.2446991,12.9723387 C24.5339193,11.6858844 28.2589415,12.6257578 30.5846229,15.3289274 L29.678707,16.1856117 C27.700711,13.8515677 24.5064555,13.0298337 21.6831348,14.1287212 C18.8499652,15.2487157 16.9847317,18.0370716 16.9917352,21.1419406 L16.9972675,21.1419406 Z" id="Shape"></path>
            </g>
        </g>
        <g id="amazon_aws-ar21" transform="translate(5.000000, 132.000000)" fill="#000000" fill-opacity="0.85">
            <path d="M6.08972886,30.8650655 L6.08972886,23.2694396 L11.204186,25.0356845 L11.204186,32.7257621 L6.08972886,30.8650655 Z M17.2557852,30.8650655 L17.2557852,23.2694396 L12.1413281,25.0356845 L12.1413281,32.7257621 L17.2557852,30.8650655 Z M11.7905353,21.2241331 L16.5897873,22.7920297 L11.7905353,24.4432154 L6.62184931,22.7001541 L11.7905353,21.2241331 Z M0,20.2538576 L0,12.6479279 L5.11445713,14.4133141 L5.11445713,22.1033917 L0,20.2538576 Z M11.167751,20.252999 L11.167751,12.6479279 L6.05329386,14.4133141 L6.05329386,22.1033917 L11.167751,20.252999 Z M5.70250107,10.6103493 L10.5017531,12.1791045 L5.70250107,13.8302902 L0.533815108,12.0872288 L5.70250107,10.6103493 Z M11.9345806,20.252999 L11.9345806,12.6479279 L17.0490377,14.4133141 L17.0490377,22.1033917 L11.9345806,20.252999 Z M23.100637,20.252999 L23.100637,12.6479279 L17.9861798,14.4133141 L17.9861798,22.1033917 L23.100637,20.252999 Z M17.6438603,10.6103493 L22.4431123,12.1791045 L17.6438603,13.8302902 L12.4751743,12.0872288 L17.6438603,10.6103493 Z M18.0319354,9.64007374 L18.0319354,2.04358916 L23.1463925,3.80983408 L23.1463925,11.499053 L18.0319354,9.64007374 Z M29.1912131,9.63921509 L29.1912131,2.04358916 L24.076756,3.80983408 L24.076756,11.499053 L29.1912131,9.63921509 Z M23.7251159,0 L28.5243679,1.56789656 L23.7251159,3.21908225 L18.5564299,1.47602091 L23.7251159,0 Z M29.9571954,9.64007374 L29.9571954,2.04358916 L35.0716526,3.80983408 L35.0716526,11.499053 L29.9571954,9.64007374 Z M41.1147785,9.64007374 L41.1147785,2.04358916 L36.0003214,3.80983408 L36.0003214,11.499053 L41.1147785,9.64007374 Z M35.6580019,0 L40.4572539,1.56789656 L35.6580019,3.21908225 L30.4893159,1.47602091 L35.6580019,0 Z" id="Shape"></path>
            <path d="M32.4703631,27.7756396 L30.7519868,33.8239766 L30.0063403,33.8239766 L28.6506194,29.331515 L27.423692,33.8239766 L26.6627936,33.8239766 L24.8774787,27.7756396 L25.8095368,27.7756396 L27.1101815,32.2835568 L28.3472769,27.7756396 L29.0285266,27.7756396 L30.3740796,32.2972952 L31.7111594,27.7756396 L32.4610425,27.7756396 L32.4703631,27.7756396 Z M37.2221649,32.0190924 L38.0864369,32.1908225 C37.9277398,32.7098152 37.6042333,33.1611105 37.1662414,33.4745056 C36.7086856,33.8136728 36.1731758,33.982827 35.5563228,33.982827 C34.7428903,33.982827 34.083671,33.692603 33.5803596,33.1104377 C33.0770482,32.5282723 32.8177666,31.766649 32.8177666,30.8238503 C32.8177666,29.860444 33.0719642,29.0825063 33.60239,28.4883198 C34.0946216,27.9078999 34.8173855,27.5812229 35.572422,27.5978988 C36.3519615,27.5978988 36.9772878,27.8709498 37.4517901,28.4179104 C37.9262924,28.9648711 38.1686275,29.7814481 38.1804901,30.8702174 L33.8481145,30.8702174 C33.8481145,31.7846807 34.0362207,32.4020507 34.4141279,32.7214688 C34.7920351,33.0408869 35.1902782,33.200596 35.6105516,33.200596 C36.368908,33.200596 36.9035705,32.8038993 37.2136916,32.0096472 L37.2221649,32.0190924 Z M37.1713253,30.1781448 C37.1628521,29.8389777 37.1086232,29.5375912 37.0060968,29.2739854 C36.9035705,29.0103796 36.730716,28.7862717 36.4866863,28.6008031 C36.2426565,28.4153345 35.9503292,28.3226002 35.6080097,28.3226002 C35.1653405,28.3153441 34.7402854,28.4981186 34.4378531,28.8257696 C34.117564,29.16923 33.9294577,29.6114352 33.8981067,30.1781448 L37.170478,30.1781448 L37.1713253,30.1781448 Z M39.8573474,33.8239766 L39.4108068,33.8239766 L39.4108068,25.6667929 L40.340323,25.6667929 L40.340323,28.7922822 C40.7639857,28.008334 41.3571136,27.6159305 42.0968289,27.6159305 C42.7797733,27.6159305 43.3525654,27.8906988 43.8143578,28.4376594 C44.2761502,28.98462 44.5066228,29.7805894 44.5066228,30.8229916 C44.5066228,31.7219991 44.2778449,32.4758946 43.825373,33.0855368 C43.3729012,33.6951789 42.7797733,34 42.0527679,34 C41.2427247,34 40.6123145,33.6101725 40.1886517,32.8322348 L39.8497215,33.8325631 L39.8573474,33.8239766 Z M40.340323,31.4541001 C40.3826892,32.0749047 40.5716428,32.5256964 40.9037945,32.8056166 C41.2359461,33.0855368 41.5875862,33.234942 41.9578675,33.234942 C42.4298278,33.234942 42.810277,33.0271485 43.1000623,32.6115615 C43.3898477,32.1959744 43.533893,31.6266889 43.533893,30.9045635 C43.533893,30.1257671 43.3940843,29.513549 43.1153142,29.0670505 C42.8365441,28.6205521 42.448469,28.3990201 41.9527835,28.3990201 C41.5630138,28.3990201 41.212221,28.5578705 40.8987105,28.8747127 C40.5852,29.1915549 40.3903152,29.60199 40.3411703,30.1043008 L40.3411703,31.4523828 L40.340323,31.4541001 Z M46.8757451,32.25608 L47.7620476,32.0706114 C47.9586271,32.8305175 48.5822588,33.2100412 49.6295532,33.2100412 C50.0150863,33.2100412 50.3430013,33.1224588 50.6107562,32.947294 C50.867912,32.7928385 51.0220372,32.5090746 51.0132358,32.2062783 C51.0132358,31.7340203 50.6717636,31.4334924 49.9896665,31.3046948 L48.7330827,31.0625552 C48.2416339,30.9663863 47.8493221,30.7792004 47.5578421,30.4992802 C47.2663621,30.2193601 47.1214695,29.8509988 47.1214695,29.3830341 C47.1214695,28.8678435 47.3197437,28.4522565 47.7179867,28.1105134 C48.1162297,27.7687704 48.6500448,27.5987575 49.3236686,27.5987575 C50.6183821,27.5987575 51.4165628,28.1113721 51.7216,29.1374599 L50.8708851,29.3229285 C50.6268554,28.6961133 50.1252386,28.3809885 49.3668822,28.3809885 C48.988975,28.3809885 48.6788539,28.4668535 48.4373661,28.6162588 C48.2069001,28.7518146 48.0678289,29.0040397 48.0747107,29.2739854 C48.0747107,29.7187666 48.3839846,29.9978281 49.0016849,30.113746 L50.1625209,30.330126 C51.3792805,30.5533753 51.9868129,31.1518549 51.9868129,32.1229891 C51.9976051,32.6589034 51.742381,33.1645646 51.3072578,33.4693537 C50.8547859,33.8110968 50.2523374,33.982827 49.499065,33.982827 C48.0840313,33.982827 47.211286,33.4040963 46.8757451,32.2483521 L46.8757451,32.25608 Z M56.9301102,32.0190924 L57.7943823,32.1908225 C57.6376271,32.7077304 57.3308952,33.1353385 56.8741868,33.4745056 C56.4174783,33.8136728 55.8811212,33.982827 55.2642682,33.982827 C54.4508356,33.982827 53.7916163,33.692603 53.288305,33.1104377 C52.7849936,32.5282723 52.5257119,31.766649 52.5257119,30.8238503 C52.5257119,29.860444 52.7866882,29.0825063 53.3103354,28.4883198 C53.802567,27.9078999 54.5253309,27.5812229 55.2803674,27.5978988 C56.0582122,27.5978988 56.6852332,27.8709498 57.1588882,28.4179104 C57.6325431,28.9648711 57.8757256,29.7814481 57.8875881,30.8702174 L53.5560598,30.8702174 C53.5560598,31.7846807 53.7441661,32.4020507 54.121226,32.7214688 C54.4982859,33.0408869 54.8973762,33.200596 55.318497,33.200596 C56.0768534,33.200596 56.6115158,32.8038993 56.921637,32.0096472 L56.9301102,32.0190924 Z M56.8792707,30.1781448 C56.8707975,29.8389777 56.8157213,29.5375912 56.7140422,29.2739854 C56.6123632,29.0103796 56.4395087,28.7862717 56.195479,28.6008031 C55.9514492,28.4153345 55.6591219,28.3226002 55.3168024,28.3226002 C54.8738399,28.3151003 54.44843,28.4978949 54.1457984,28.8257696 C53.8255094,29.16923 53.6374031,29.6114352 53.6068994,30.1781448 L56.8792707,30.1781448 Z M59.8254217,33.8239766 L58.8959056,33.8239766 L58.8959056,27.7756396 L59.7093381,27.7756396 L59.7093381,29.1855444 C59.9974288,28.5243832 60.2855195,28.096775 60.5736102,27.9018613 C60.8617009,27.7069475 61.1667381,27.6082026 61.4616074,27.6082026 C61.5838963,27.6099324 61.7060412,27.617382 61.827652,27.6305276 L61.827652,28.5286764 L61.6395458,28.5286764 C61.1286084,28.5286764 60.7040983,28.7210142 60.3660154,29.1056898 C60.0279325,29.4903654 59.8474522,29.9961108 59.8237271,30.6220673 L59.8237271,33.8248352 L59.8254217,33.8239766 Z M67.6038704,27.7756396 L65.5431746,33.8239766 L64.5797655,33.8239766 L62.4504363,27.7756396 L63.4790896,27.7756396 L65.135611,32.691416 L66.7794226,27.7756396 L67.6038704,27.7756396 L67.6038704,27.7756396 Z M69.3408878,25.6564891 L69.3408878,26.7014673 L68.3478223,26.7014673 L68.3478223,25.6564891 L69.3425825,25.6564891 L69.3408878,25.6564891 Z M69.3188574,27.7747809 L69.3188574,33.8231179 L68.3986618,33.8231179 L68.3986618,27.7747809 L69.328178,27.7747809 L69.3188574,27.7747809 Z M74.1774222,31.7056848 L75.0137325,31.85509 C74.8951069,32.5231204 74.6341307,33.0460388 74.229109,33.4247039 C73.8240874,33.8033689 73.3182341,33.9914135 72.703923,33.9914135 C71.8820172,33.9914135 71.2634696,33.6822992 70.8228603,33.0683638 C70.382251,32.4544284 70.1763509,31.6945223 70.1763509,30.8144051 C70.1763509,29.8956487 70.4034341,29.1314494 70.8584479,28.5218072 C71.3134618,27.9121651 71.9320094,27.607344 72.7225642,27.607344 C73.3716156,27.607344 73.8918735,27.8048337 74.2841852,28.2083996 C74.6764969,28.6119656 74.9196794,29.1099831 75.0128852,29.7350809 L74.1765749,29.8965073 C74.0189723,28.8978963 73.5436227,28.3990201 72.7488313,28.3990201 C72.2655416,28.3825644 71.8124225,28.6365623 71.5693541,29.0601813 C71.2939733,29.5006692 71.1558592,30.0716721 71.1558592,30.7740485 C71.1558592,31.5468344 71.2914313,32.14789 71.5659648,32.5772154 C71.8063925,32.9881167 72.2479754,33.2343815 72.7191749,33.220345 C73.4860045,33.220345 73.9715221,32.7188928 74.1765749,31.7151299 L74.1774222,31.7056848 Z M80.2578305,32.0190924 L81.1221025,32.1908225 C80.9634054,32.7098152 80.6398989,33.1611105 80.201907,33.4745056 C79.7443512,33.8136728 79.2088414,33.982827 78.5919884,33.982827 C77.7785558,33.982827 77.1176419,33.692603 76.6151778,33.1104377 C76.1127138,32.5282723 75.8525848,31.766649 75.8525848,30.8238503 C75.8525848,29.860444 76.1067825,29.0825063 76.6372083,28.4883198 C77.1294398,27.9078999 77.8522038,27.5812229 78.6072403,27.5978988 C79.3867798,27.5978988 80.0138007,27.8709498 80.4866084,28.4179104 C80.959416,28.9648711 81.2034458,29.7814481 81.2153083,30.8702174 L76.88378,30.8702174 C76.88378,31.7846807 77.0718863,32.4020507 77.4497935,32.7214688 C77.8277007,33.0408869 78.2259437,33.200596 78.6462172,33.200596 C79.4045736,33.200596 79.939236,32.8038993 80.2493572,32.0096472 L80.2578305,32.0190924 Z M80.2069909,30.1781448 C80.1985177,29.8389777 80.1442888,29.5375912 80.0417624,29.2739854 C79.9351321,29.0044559 79.7553364,28.7710509 79.5231992,28.6008031 C79.2791694,28.4153345 78.9868421,28.3226002 78.6445226,28.3226002 C78.2019383,28.3145033 77.7768211,28.4974369 77.4752133,28.8257696 C77.1566189,29.16923 76.966818,29.6114352 76.9354669,30.1781448 L80.2078382,30.1781448 L80.2069909,30.1781448 Z M81.7491235,32.25608 L82.635426,32.0706114 C82.8320055,32.8305175 83.4547898,33.2100412 84.5029316,33.2100412 C84.8884647,33.2100412 85.214685,33.1224588 85.4841346,32.947294 C85.7409648,32.7926195 85.8947429,32.5088973 85.8857669,32.2062783 C85.8857669,31.7340203 85.5442947,31.4334924 84.8630449,31.3046948 L83.6064611,31.0625552 C83.1150123,30.9663863 82.7227005,30.7792004 82.4312205,30.4992802 C82.1397405,30.2193601 81.9948479,29.8509988 81.9948479,29.3830341 C81.9948479,28.8678435 82.1931221,28.4522565 82.5913651,28.1105134 C82.9896081,27.7687704 83.5234232,27.5987575 84.197047,27.5987575 C85.4917605,27.5987575 86.2899412,28.1113721 86.5949784,29.1374599 L85.7442635,29.3229285 C85.5002337,28.6961133 84.998617,28.3809885 84.2402606,28.3809885 C83.8623534,28.3809885 83.5624002,28.4668535 83.3107445,28.6162588 C83.0802785,28.7518146 82.9412073,29.0040397 82.9480891,29.2739854 C82.9480891,29.7187666 83.257363,29.9978281 83.8750633,30.113746 L85.0358993,30.330126 C86.2526588,30.5533753 86.8601913,31.1518549 86.8601913,32.1229891 C86.8709835,32.6589034 86.6157594,33.1645646 86.1806362,33.4693537 C85.7281643,33.8110968 85.1257158,33.982827 84.3724434,33.982827 C82.9591044,33.982827 82.0846644,33.4040963 81.7499708,32.2483521 L81.7491235,32.25608 Z" id="Shape" stroke-opacity="0.85" stroke="#000000" stroke-width="0.5" fill-rule="nonzero"></path>
            <path d="M60.7896782,14.8495088 L60.7896782,13.3966715 C60.7873318,13.2980385 60.8249646,13.2027382 60.8938087,13.1329739 C60.9626528,13.0632096 61.0566962,13.0250738 61.1540282,13.0273467 L67.579298,13.0273467 C67.7843508,13.0273467 67.9495793,13.1785741 67.9504266,13.3940955 L67.9504266,14.6391393 C67.9487319,14.8477915 67.7750302,15.1199838 67.467451,15.5536025 L64.1400035,20.3689168 C65.3754042,20.3397227 66.6819802,20.5269086 67.8046866,21.1674622 C68.0588843,21.3117155 68.1249757,21.524661 68.1453115,21.7341718 L68.1453115,23.2840367 C68.1453115,23.4986994 67.9148389,23.7451322 67.6725038,23.6163346 C65.6948459,22.5662045 63.071526,22.4511453 60.8837313,23.6283557 C60.6600374,23.7485668 60.4261755,23.5055686 60.4261755,23.2917645 L60.4261755,21.8183196 C60.4261755,21.5821906 60.4304122,21.1794833 60.6651214,20.8197086 L64.5204527,15.2127181 L61.1625015,15.2127181 C61.0646196,15.2172182 60.9692372,15.1806231 60.8988397,15.1115597 C60.8284422,15.0424962 60.7892584,14.9470754 60.7905255,14.8477915 L60.7896782,14.8495088 Z M37.7958043,23.9237316 L35.8410242,23.9237316 C35.6546126,23.9117105 35.5063306,23.7691744 35.4919261,23.5802712 L35.4927734,13.4138445 C35.4927734,13.2103442 35.6622385,13.0480592 35.8698333,13.0480592 L37.6898886,13.0472005 C37.8805368,13.0575044 38.0330554,13.203475 38.0457653,13.3889436 L38.0457653,14.7164179 L38.0822003,14.7164179 C38.5567026,13.4327348 39.4506311,12.8333965 40.6546807,12.8333965 C41.8773715,12.8333965 42.6433539,13.4327348 43.1915735,14.7164179 C43.6660758,13.4327348 44.7421793,12.8333965 45.8920001,12.8333965 C46.7139059,12.8333965 47.606987,13.1768568 48.1543593,13.946208 C48.7746017,14.8014244 48.6475028,16.0430336 48.6475028,17.1343789 L48.6458082,23.5502185 C48.6458082,23.7537187 48.4763431,23.9160037 48.2687483,23.9160037 L46.3173575,23.9160037 C46.1224726,23.903124 45.9665647,23.7459909 45.9665647,23.5510771 L45.9665647,18.1690532 C45.9665647,17.7397278 46.0029997,16.671566 45.9114886,16.2645655 C45.7657486,15.5802207 45.3183607,15.3870243 44.7625151,15.3870243 C44.2880128,15.3870243 43.7948693,15.7081597 43.5932058,16.221633 C43.3915423,16.7351062 43.4110308,17.5911812 43.4110308,18.1690532 L43.4110308,23.5579463 C43.4110308,23.7614466 43.2415657,23.9237316 43.0339709,23.9237316 L41.0808855,23.9237316 C40.884306,23.9108518 40.7300927,23.7537187 40.7300927,23.558805 L40.7283981,18.1690532 C40.7283981,17.035634 40.9105731,15.3664166 39.5251958,15.3664166 C38.12033,15.3664166 38.1745588,16.9918428 38.1745588,18.1690532 L38.1745588,23.5579463 C38.1745588,23.7614466 38.0050937,23.9237316 37.7974989,23.9237316 L37.7958043,23.9237316 Z M72.6717246,12.8411243 C75.5500896,12.8411243 77.1066267,15.365558 77.1066267,18.5751951 C77.1066267,21.6775008 75.3865558,24.1375357 72.6717246,24.1375357 C69.8475885,24.1375357 68.307998,21.613102 68.307998,18.4678637 C68.307998,15.3020178 69.8653824,12.8411243 72.6717246,12.8411243 Z M72.6903658,15.1783721 C71.2600803,15.1783721 71.1694084,17.1678663 71.1694084,18.4086168 C71.1694084,19.6493674 71.1524699,22.0407102 72.672572,22.0407102 C74.1757275,22.0407102 74.2485975,20.1628406 74.2485975,18.8576912 C74.2485975,18.0024749 74.2130099,16.9746698 73.9605068,16.1615274 C73.7427442,15.4557163 73.3080661,15.1775134 72.6929078,15.1775134 L72.6903658,15.1783721 Z M81.2720792,23.9237316 L79.324925,23.9237316 C79.1300401,23.9108518 78.9741322,23.7537187 78.9741322,23.558805 L78.9707429,13.388085 C78.9876894,13.2017577 79.140208,13.0566457 79.3461081,13.0566457 L81.1593849,13.0557871 C81.3247951,13.0621227 81.4662768,13.1782196 81.5067883,13.3408592 L81.5067883,14.8864308 L81.5440707,14.8864308 C82.091443,13.4954163 82.8574253,12.8325378 84.2080623,12.8325378 C85.0833496,12.8325378 85.9416904,13.1536733 86.4890627,14.0303558 C87,14.8434982 87,16.2113291 87,17.1970604 L87,23.5940096 C86.9779695,23.7657398 86.8186723,23.9142864 86.6254821,23.9142864 L84.6656181,23.9142864 C84.4851377,23.9022653 84.3393977,23.7683158 84.3266878,23.5940096 L84.3266878,18.0728843 C84.3266878,16.9609314 84.4537867,15.3252014 83.103997,15.3252014 C82.6294947,15.3252014 82.1914274,15.6463368 81.9728174,16.1383438 C81.6991312,16.7591484 81.6618489,17.3790944 81.6618489,18.0642978 L81.6618489,23.539056 C81.6584596,23.7425563 81.4898418,23.9048413 81.2805524,23.9048413 L81.2720792,23.9237316 Z" id="Shape" fill-rule="nonzero"></path>
            <path d="M54.8321321,12.7423795 C55.7828314,12.7423795 57.0351786,12.9999747 57.7757412,13.729828 C58.7272878,14.6314115 58.6349293,15.8309468 58.6349293,17.1386721 L58.6349293,20.2246635 C58.6349293,21.1520065 59.0162258,21.5598656 59.3721025,22.0604591 C59.4966594,22.2321893 59.5246211,22.4554385 59.3653239,22.5868121 L57.8655577,23.9022653 L57.861321,23.8979721 C57.7316802,24.0156072 57.5452686,24.0233351 57.3995286,23.9443392 C56.7504772,23.3973786 56.6343936,23.1457939 56.2793642,22.6237341 C55.20665,23.7399803 54.446599,24.0636917 53.0569851,24.0636917 C51.4114788,24.0636917 50.1311699,23.0333106 50.1311699,20.975983 C50.1311699,19.3677299 50.990358,18.2746673 52.2155908,17.7388691 C53.2764424,17.2666111 54.7575675,17.180746 55.8912891,17.0519484 L55.8912891,16.7943531 C55.8912891,16.3220951 55.9277241,15.7656893 55.6540379,15.3578301 C55.4167868,14.9929035 54.959231,14.8426396 54.5567513,14.8426396 C53.8111048,14.8426396 53.1484962,15.2290325 52.9849624,16.0327298 C52.9510694,16.2113291 52.8222759,16.3873526 52.6460322,16.3967977 L50.7514122,16.1890042 C50.5819471,16.1520822 50.412482,16.0224259 50.4599322,15.7751345 C50.8954576,13.4456146 52.9714052,12.7423795 54.8321321,12.7423795 Z M55.8887471,18.6404526 C54.4762554,18.6404526 52.9824204,18.9478496 52.9824204,20.63424 C52.9824204,21.4920322 53.4213351,22.0707629 54.1712182,22.0707629 C54.7194378,22.0707629 55.2134286,21.7273026 55.5243971,21.1691795 C55.9090829,20.4831174 55.8904418,19.8408465 55.8904418,19.0680607 L55.8904418,19.0680607 L55.8887471,19.069778 Z" id="Combined-Shape" fill-rule="nonzero"></path>
            <path d="M29.4284643,12.7423795 C30.3791636,12.7423795 31.6315108,12.9999747 32.3729206,13.729828 C33.3236199,14.6314115 33.2321088,15.8309468 33.2321088,17.1386721 L33.2321088,20.2246635 C33.2321088,21.1520065 33.6134053,21.5598656 33.969282,22.0604591 C34.0938389,22.2321893 34.1218006,22.4554385 33.9633507,22.5868121 L32.4720577,23.9022653 L32.4669738,23.8971134 L32.4576532,23.8979721 C32.3280124,24.0156072 32.1416008,24.0233351 31.9958608,23.9443392 C31.3468094,23.3973786 31.2298785,23.1457939 30.8756964,22.6237341 C29.8029822,23.7399803 29.0429312,24.0636917 27.6533172,24.0636917 C26.007811,24.0636917 24.727502,23.0333106 24.727502,20.975983 C24.727502,19.3677299 25.5866902,18.2746673 26.8119229,17.7388691 C27.8727746,17.2666111 29.3538996,17.180746 30.4876213,17.0519484 L30.4876213,16.7943531 C30.4876213,16.3220951 30.5240563,15.7656893 30.2503701,15.3578301 C30.0131189,14.9929035 29.5555631,14.8426396 29.1530835,14.8426396 C28.407437,14.8426396 27.7448284,15.2290325 27.5812946,16.0327298 C27.5474015,16.2113291 27.4118294,16.3873526 27.2423643,16.3967977 L25.3477444,16.1890042 C25.1782792,16.1520822 25.0088141,16.0224259 25.0562644,15.7751345 C25.4909424,13.4456146 27.56689,12.7423795 29.4284643,12.7423795 Z M30.4850793,18.6404526 C29.0717402,18.6404526 27.5787526,18.9478496 27.5787526,20.63424 C27.5787526,21.4920322 28.0176672,22.0707629 28.7675504,22.0707629 C29.31577,22.0707629 29.8097608,21.7273026 30.1207293,21.1691795 C30.5054151,20.4831174 30.4867739,19.8408465 30.4867739,19.0680607 L30.4867739,19.0680607 L30.4850793,19.069778 Z" id="Combined-Shape" fill-rule="nonzero"></path>
        </g>
        <g id="digitalocean-ar21" transform="translate(186.000000, 133.000000)" fill="#000000" fill-opacity="0.85" fill-rule="nonzero">
            <path d="M15.9798817,31.7381757 L15.9798817,25.5848634 C22.5390533,25.5848634 27.6292899,19.1247671 25.1112426,12.2688489 C24.1881657,9.74934081 22.139645,7.7164557 19.5852071,6.79874824 C12.6825444,4.31538426 6.17840237,9.35528198 6.17840237,15.8682721 L0,15.8682721 C0,5.48257415 10.1183432,-2.61370375 21.0710059,0.787367692 C25.8550296,2.28073602 29.6769231,6.05911658 31.1627219,10.8107431 C34.5869822,21.6980506 26.4337278,31.7390572 15.9798817,31.7390572 L15.9798817,31.7381757 Z" id="Path"></path>
            <path d="M15.9976331,19.4835634 L15.9976331,25.6192444 L9.82011834,25.6192444 L9.82011834,19.4835634 L15.9976331,19.4835634 Z M9.82011834,25.6192444 L9.82011834,30.3073983 L5.09112426,30.3073983 L5.09112426,25.6104288 L9.82011834,25.6192444 Z M5.09112426,25.6192444 L1.12366864,25.6192444 L1.12366864,21.6786562 L5.09112426,21.6786562 L5.09112426,25.6192444 Z" id="Shape"></path>
            <path d="M47.7106509,1.89196658 C46.308284,0.910786562 44.5153846,0.435623912 42.4739645,0.435623912 L38.0121302,0.435623912 L38.0121302,14.5230064 L42.5147929,14.5230064 C44.5544379,14.5230064 46.3313609,14.0161075 47.7514793,12.9714549 C48.516568,12.4425169 49.1218935,11.6737936 49.5683432,10.7234683 C49.9828402,9.77402458 50.2056213,8.63416316 50.2056213,7.39997445 C50.2056213,6.16578575 49.9837278,5.05766061 49.5683432,4.10821687 C49.1218935,3.15877313 48.516568,2.39798395 47.7195266,1.89196658 L47.7106509,1.89196658 Z M40.6349112,2.80879248 L42.0372781,2.80879248 C43.5994083,2.80879248 44.8739645,3.12615528 45.8538462,3.72561837 C46.9366864,4.39031714 47.4781065,5.62538741 47.4781065,7.39732976 C47.4781065,9.23362624 46.9455621,10.5312875 45.8538462,11.2277226 C44.9307692,11.8289488 43.6544379,12.1445485 42.0612426,12.1445485 L40.6269231,12.1445485 L40.6269231,2.80262153 L40.6349112,2.80879248 Z M53.2881657,0.246087789 C52.841716,0.246087789 52.4911243,0.404769194 52.1724852,0.689514159 C51.8792972,0.970939826 51.7175037,1.36102338 51.7260355,1.76590302 C51.7260355,2.20932939 51.8857988,2.55754692 52.1724852,2.87402816 C52.4591716,3.15877313 52.841716,3.31745453 53.2881657,3.31745453 C53.7029391,3.31410305 54.1012437,3.15579718 54.4038462,2.87402816 C54.6905325,2.5892832 54.8502959,2.20932939 54.8502959,1.76590302 C54.8588276,1.36102338 54.6970342,0.970939826 54.4038462,0.689514159 C54.0843195,0.404769194 53.693787,0.246087789 53.2881657,0.246087789 L53.2881657,0.246087789 Z M52.0118343,4.58337952 L54.5298817,4.58337952 L54.5298817,14.5230064 L52.0118343,14.5230064 L52.0118343,4.58337952 Z M63.6781065,5.40587813 C62.9130178,4.74117936 62.0849112,4.33037083 61.1600592,4.33037083 C59.7576923,4.33037083 58.6100592,4.80641505 57.7180473,5.75497722 C56.8260355,6.67180312 56.3476331,7.87601867 56.3476331,9.33236134 C56.3476331,10.7252314 56.7940828,11.9285654 57.6860947,12.8780092 C58.5781065,13.7948351 59.7576923,14.2708793 61.1281065,14.2708793 C62.0840237,14.2708793 62.9449704,14.0178706 63.6133136,13.4792354 L63.6133136,13.6996262 C63.6133136,14.5230064 63.3914201,15.1559689 62.9440828,15.5993953 C62.4967456,16.0428216 61.8923077,16.264094 61.1272189,16.264094 C59.9795858,16.264094 59.2455621,15.8206677 58.3544379,14.6182152 L56.6325444,16.264094 L56.664497,16.3275666 C57.0461538,16.8344655 57.587574,17.3413645 58.3535503,17.8156455 C59.0866864,18.2916898 60.0426036,18.5438169 61.158284,18.5438169 C62.6565089,18.5438169 63.8671598,18.1003905 64.7600592,17.1826831 C65.6529586,16.2649756 66.0985207,15.0616416 66.0985207,13.5735627 L66.0985207,4.55164324 L63.6133136,4.55164324 L63.6133136,5.4067597 L63.6781065,5.40587813 Z M63.0177515,11.2938398 C62.5713018,11.8007387 61.9970414,12.0220111 61.295858,12.0220111 C60.5627219,12.0220111 60.0213018,11.7690025 59.5739645,11.2938398 C59.1275148,10.7869409 58.9366864,10.1539784 58.9366864,9.35440042 C58.9366864,8.53102024 59.1585799,7.89805775 59.5739645,7.39204038 C59.9893491,6.88602301 60.5946746,6.66386905 61.295858,6.66386905 C62.0289941,6.66386905 62.5704142,6.91687773 63.0177515,7.39204038 C63.4642012,7.89893931 63.6869822,8.56451965 63.6869822,9.35440042 C63.6869822,10.1442812 63.4650888,10.7790068 63.0177515,11.2938398 Z M68.2988166,4.58337952 L70.8168639,4.58337952 L70.8168639,14.5230064 L68.2988166,14.5230064 L68.2988166,4.58337952 Z M69.5742604,0.246087789 C69.1278107,0.246087789 68.7772189,0.404769194 68.4585799,0.689514159 C68.1653919,0.970939826 68.0035984,1.36102338 68.0121302,1.76590302 C68.0121302,2.20932939 68.1718935,2.55754692 68.4585799,2.87402816 C68.7452663,3.15877313 69.1278107,3.31745453 69.5742604,3.31745453 C69.9890338,3.31410305 70.3873384,3.15579718 70.6899408,2.87402816 C70.9766272,2.5892832 71.1363905,2.20932939 71.1363905,1.76590302 C71.1449223,1.36102338 70.9831288,0.970939826 70.6899408,0.689514159 C70.3704142,0.404769194 70.0207101,0.246087789 69.5742604,0.246087789 Z M76.3313609,1.89196658 L73.8461538,1.89196658 L73.8461538,4.58249795 L72.4118343,4.58249795 L72.4118343,6.86133924 L73.8461538,6.86133924 L73.8461538,10.976477 C73.8461538,12.2741383 74.1008876,13.1927273 74.6112426,13.7304809 C75.1215976,14.2682346 76.0455621,14.5221248 77.3201183,14.5221248 L78.5316568,14.4903886 L78.6594675,14.4903886 L78.6594675,12.2115473 L77.7985207,12.2432835 C77.1931953,12.2432835 76.8106509,12.1480747 76.6180473,11.9259207 C76.4254438,11.7037668 76.3313609,11.2621035 76.3313609,10.5974048 L76.3313609,6.83136609 L78.689645,6.83136609 L78.689645,4.5525248 L76.3313609,4.5525248 L76.3313609,1.89461127 L76.3313609,1.89196658 Z M90.4819527,0.404769194 L93,0.404769194 L93,14.5230064 L90.4819527,14.5230064 L90.4819527,0.404769194 Z" id="Shape"></path>
            <path d="M87.3266272,5.34152401 C86.5615385,4.70856152 85.5097633,4.36034399 84.2023669,4.36034399 C83.3733728,4.36034399 82.5781065,4.54988011 81.8769231,4.889282 C81.2076923,5.20664481 80.5704142,5.77525318 80.1550296,6.47168823 L80.1869822,6.50342452 L81.8112426,8.02323975 C82.4804734,6.97858717 83.2136095,6.59863336 84.2014793,6.59863336 C84.7340237,6.59863336 85.1573964,6.72557848 85.5079882,7.01032345 C85.8275148,7.29506841 86.0183432,7.64328594 86.0183432,8.08583075 L86.0183432,8.56187496 C85.3810651,8.37233884 84.7757396,8.27712999 84.1695266,8.27712999 C82.9269231,8.27712999 81.906213,8.56187496 81.1517751,9.13224645 C80.3973373,9.70261795 80.004142,10.5568528 80.004142,11.6332417 C80.004142,12.5826854 80.3236686,13.3108568 80.9920118,13.8812283 C81.6612426,14.4101663 82.458284,14.7046084 83.4150888,14.7046084 C84.3718935,14.7046084 85.2639053,14.3255362 86.0920118,13.6599559 L86.0920118,14.483336 L88.5772189,14.483336 L88.5772189,8.08847544 C88.4813609,6.91599617 88.097929,5.96743399 87.3346154,5.3344715 L87.3266272,5.34152401 Z M82.8647929,10.7225868 C83.1514793,10.5330506 83.5748521,10.4378418 84.0763314,10.4378418 C84.6816568,10.4378418 85.3189349,10.5647869 85.9890533,10.7860593 L85.9890533,11.7672393 C85.4565089,12.2741383 84.714497,12.527147 83.8215976,12.527147 C83.3751479,12.527147 83.0565089,12.4319381 82.8008876,12.242402 C82.5747457,12.0683354 82.4447519,11.798341 82.4502959,11.5142307 C82.4319388,11.1948396 82.5909895,10.8910703 82.8647929,10.7225868 L82.8647929,10.7225868 Z" id="A"></path>
            <path d="M60.5076923,28.1916463 C60.0612426,28.6985452 59.5846154,29.14109 59.2331361,29.3641256 C58.8816568,29.5871611 58.4360947,29.7123431 57.9266272,29.7123431 C57.1934911,29.7123431 56.5881657,29.4593344 56.1097633,28.8889629 C55.6304734,28.3600249 55.3766272,27.6230379 55.3766272,26.7996577 C55.3766272,25.9445413 55.6313609,25.2481062 56.1097633,24.7103526 C56.5881657,24.1725989 57.1926036,23.8869724 57.9266272,23.8869724 C58.7236686,23.8869724 59.5837278,24.3938713 60.3168639,25.2481062 L61.9739645,23.6657 C60.8911243,22.2728299 59.5198225,21.6081311 57.8627219,21.6081311 C56.4923077,21.6081311 55.2887574,22.11503 54.2928994,23.0962101 C53.2970414,24.0773901 52.8266272,25.3124604 52.8266272,26.7987762 C52.8266272,28.285092 53.3369822,29.5210438 54.2928994,30.5013423 C55.2807692,31.4842854 56.4585799,32 57.8609467,32 C59.6778107,32 61.1449704,31.2083561 62.1639053,29.7837497 L60.5059172,28.1916463 L60.5076923,28.1916463 Z M70.8656805,23.1905373 C70.5150888,22.6836384 70.0366864,22.3045662 69.4313609,22.0180581 C68.8260355,21.73155 68.1248521,21.5746317 67.3597633,21.5746317 C65.9573964,21.5746317 64.8097633,22.0815306 63.9497041,23.0944469 C63.1207101,24.1082448 62.6751479,25.3424335 62.6751479,26.8296309 C62.6751479,28.3494461 63.1544379,29.5836348 64.0455621,30.532197 C64.9686391,31.4816407 66.1810651,31.9568034 67.6792899,31.9568034 C69.3683432,31.9568034 70.7707101,31.2515527 71.8224852,29.9309708 L71.8863905,29.8674982 L70.2292899,28.285092 C70.0695266,28.4746281 69.8476331,28.6641642 69.6559172,28.8545819 C69.4011834,29.0749728 69.1766272,29.266272 68.9227811,29.3835199 C68.5267574,29.5777127 68.0898254,29.6753264 67.6482249,29.6682649 C66.9381657,29.6682649 66.3736686,29.4787288 65.9263314,29.0670387 C65.5118343,28.6879665 65.2571006,28.1810675 65.1931953,27.5472235 L71.8544379,27.5472235 L71.8863905,26.6303976 C71.8863905,25.9974351 71.7905325,25.3644726 71.6316568,24.7941011 C71.4727811,24.2237296 71.2171598,23.685976 70.866568,23.1808402 L70.8656805,23.1905373 Z M65.352071,25.5328512 C65.4798817,25.056807 65.7026627,24.64688 66.0213018,24.3603719 C66.3718935,24.0121544 66.8183432,23.853473 67.3278107,23.853473 C67.9331361,23.853473 68.4106509,24.0121544 68.7301775,24.3603719 C69.0305243,24.6815764 69.2106922,25.0954904 69.2405325,25.5328512 L65.3529586,25.5328512 L65.352071,25.5328512 Z" id="Shape"></path>
            <g id="A-link" transform="translate(73.200000, 21.568461)">
                <path d="M7.32248521,0.981180019 C6.55739645,0.348217527 5.5056213,0 4.19822485,0 C3.36923077,0 2.5739645,0.189536122 1.87278107,0.528938016 C1.2035503,0.846300825 0.566272189,1.41490919 0.150887574,2.11134425 L0.182840237,2.14308053 L1.80710059,3.66289576 C2.47633136,2.61824318 3.20946746,2.23828937 4.19733728,2.23828937 C4.72988166,2.23828937 5.15325444,2.36523449 5.50384615,2.64997946 C5.82337278,2.93472442 6.01420118,3.28294195 6.01420118,3.72548676 L6.01420118,4.20153097 C5.37692308,4.01199485 4.77159763,3.91678601 4.16538462,3.91678601 C2.92278107,3.91678601 1.90207101,4.20153097 1.14763314,4.77190247 C0.393195266,5.34227396 0,6.19650885 0,7.27289772 C0,8.22234145 0.319526627,8.95051279 0.987869822,9.52088428 C1.65710059,10.0498223 2.45414201,10.3442645 3.41094675,10.3442645 C4.36775148,10.3442645 5.25976331,9.96519222 6.08786982,9.29961188 L6.08786982,10.1229921 L8.57307692,10.1229921 L8.57307692,3.72813145 C8.47721893,2.55565218 8.09378698,1.60709 7.33047337,0.974127512 L7.32248521,0.981180019 Z M2.86065089,6.36224277 C3.14733728,6.17270664 3.57071006,6.0774978 4.07218935,6.0774978 C4.67751479,6.0774978 5.3147929,6.20444292 5.98491124,6.42571533 L5.98491124,7.40689535 C5.45236686,7.91379428 4.71035503,8.16680296 3.81745562,8.16680296 C3.37100592,8.16680296 3.05236686,8.07159412 2.79674556,7.882058 C2.57060369,7.70799142 2.44060985,7.43799704 2.44615385,7.15388666 C2.42779682,6.83449559 2.58684746,6.5307263 2.86065089,6.36224277 L2.86065089,6.36224277 Z" id="A"></path>
            </g>
            <path d="M91.3579882,22.7391769 C90.647929,21.947533 89.6689349,21.5666976 88.4254438,21.5666976 C87.437574,21.5666976 86.6085799,21.8514426 86.0023669,22.4218141 L86.0023669,21.8205879 L83.5482249,21.8205879 L83.5482249,31.72936 L86.0662722,31.72936 L86.0662722,26.2522069 C86.0662722,25.4922993 86.2571006,24.8910731 86.5988166,24.4890802 C86.9405325,24.0870873 87.4278107,23.8561177 88.0970414,23.8561177 C88.6704142,23.8561177 89.0849112,24.0456538 89.4035503,24.4256076 C89.7221893,24.8055614 89.8828402,25.3424335 89.8828402,25.9771591 L89.8828402,31.7381757 L92.4008876,31.7381757 L92.4008876,25.9771591 C92.4008876,24.6160253 92.0502959,23.5087817 91.3491124,22.7479925 L91.3579882,22.7391769 Z M44.2215976,31.951514 C40.173292,31.9510273 36.8916143,28.691573 36.8911243,24.6706822 C36.8916143,20.6497915 40.173292,17.3903372 44.2215976,17.3898504 C48.2699033,17.3903372 51.5515809,20.6497915 51.552071,24.6706822 C51.5515809,28.691573 48.2699033,31.9510273 44.2215976,31.951514 L44.2215976,31.951514 Z M44.2215976,19.9622523 C41.6076923,19.9622523 39.4730769,22.0832938 39.4730769,24.6786163 C39.4730769,27.2739388 41.6085799,29.3949803 44.2215976,29.3949803 C46.8346154,29.3949803 48.9701183,27.2739388 48.9701183,24.6786163 C48.9701183,22.0832938 46.8346154,19.9622523 44.2215976,19.9622523 Z" id="Shape"></path>
        </g>
        <g id="ansible-ar21" transform="translate(5.000000, 197.000000)" fill-rule="nonzero">
            <path d="M35.917835,17.9989943 C35.9172808,27.9408379 27.8765127,36 17.9579141,36 C8.03982378,36 0,27.9413342 0,18 C0,8.05866577 8.04082712,0 17.9579141,0 C27.8750011,0 35.9158283,8.05967147 35.9158283,18.0020114" id="Path" fill-opacity="0.85" fill="#000000"></path>
            <path d="M18.2609251,10.9953067 L22.9084309,22.4924573 L15.8890115,16.951056 L18.2609251,10.9953067 Z M26.5164686,25.1404626 L19.3676174,7.89674824 C19.1639379,7.39993295 18.7656089,7.13643983 18.2599217,7.13643983 C17.7542346,7.13643983 17.3268085,7.39993295 17.1221256,7.89674824 L9.27594794,26.8109286 L11.9599026,26.8109286 L15.0652632,19.0127389 L24.3341877,26.5182702 C24.707433,26.8199799 24.9763301,26.9567549 25.3254951,26.9567549 C26.0258316,26.9567549 26.6378736,26.4307744 26.6378736,25.6714717 C26.6378736,25.5477707 26.5937263,25.3516594 26.5154652,25.1404626 L26.5164686,25.1404626 Z" id="Shape" fill="#FFFFFF"></path>
            <path d="M60.5319566,23.3835065 C60.3463373,23.3835065 60.1466712,23.3362387 60.0072059,23.148173 L54.054345,15.3017097 L54.054345,23.305062 L52.6968157,23.305062 L52.6968157,13.4492122 C52.6968157,13.0469326 53.020897,12.7432115 53.3911322,12.7432115 C53.606852,12.7432115 53.7924712,12.8065706 53.9309332,12.9946363 L59.8677406,20.8250084 L59.8677406,12.8528327 L61.2253071,12.8528327 L61.2253071,22.6925914 C61.2271957,22.8772945 61.1544987,23.0549239 61.0237205,23.1850614 C60.8929423,23.315199 60.7152058,23.3867763 60.5309533,23.3835065 M68.3851578,23.4780422 C67.0286319,23.4780422 65.6088951,23.1964465 64.283473,22.693597 L64.6075543,21.5641971 C65.8256182,21.9664767 67.1520436,22.2380154 68.3851578,22.2380154 C70.0968686,22.2380154 70.9918546,21.6265505 70.9918546,20.7636607 C70.9918546,19.9792156 70.2975382,19.586993 67.9075643,18.4565873 C65.5175905,17.3261817 64.5764505,16.6061012 64.5764505,15.1930942 C64.5764505,13.4200469 65.9329764,12.6989608 68.4935193,12.6989608 C69.5570677,12.6989608 71.2025576,12.9202145 72.1336641,13.2018103 L71.9179444,14.3623869 C70.8058965,14.096269 69.6678317,13.9546051 68.5246231,13.9399933 C66.7206042,13.9399933 65.9801337,14.284948 65.9801337,15.1488434 C65.9801337,15.995642 66.5199347,16.3556822 69.0483705,17.5343614 C71.7172749,18.7743882 72.3945345,19.4019444 72.3945345,20.689239 C72.3945345,22.556822 70.6356663,23.4830707 68.3851578,23.4830707 M75.4527378,12.8357358 L76.8554176,12.8357358 L76.8554176,23.2869594 L75.4527378,23.2869594 L75.4527378,12.8357358 Z M86.2286903,18.4324506 L82.7430609,18.4324506 L82.7430609,21.9795508 L86.2286903,21.9795508 C87.4156504,21.9795508 88.1410707,21.2252766 88.1410707,20.1743212 C88.1410707,19.1857191 87.38555,18.4324506 86.2286903,18.4324506 M85.549424,13.9128394 L82.7430609,13.9128394 L82.7430609,17.2557828 L85.549424,17.2557828 C86.6751799,17.2557828 87.4929082,16.5336909 87.4929082,15.5289977 C87.4929082,14.5403956 86.7835415,13.9128394 85.549424,13.9128394 M86.2437405,23.1713041 L82.0497478,23.1713041 C81.6484088,23.1713041 81.3403811,22.857526 81.3403811,22.4653034 L81.3403811,13.4260811 C81.3447625,13.0360424 81.6605997,12.7217039 82.0497478,12.7200805 L85.5193236,12.7200805 C87.6464203,12.7200805 88.9106382,13.7710359 88.9106382,15.4193765 C88.9106382,16.3245055 88.3858875,17.1451559 87.5842128,17.6319142 C88.7721763,17.9939658 89.5738509,18.9815622 89.5738509,20.1743212 C89.5738509,21.8377472 88.2022749,23.1713041 86.2427371,23.1713041 M93.6675089,23.0556487 C93.2822234,23.0556487 92.9651656,22.7257794 92.9651656,22.349648 L92.9651656,12.5943681 L94.3698521,12.5943681 L94.3698521,21.7743882 L99.9715414,21.7743882 L99.9715414,23.0455917 L93.6675089,23.0556487 Z M106.507347,23.1129735 C103.637773,23.1129735 101.912016,22.0469326 101.912016,19.8947368 C101.912016,18.8749581 102.483924,17.9014415 103.593626,17.4468656 C102.690613,16.8816628 102.236097,16.0811264 102.236097,15.2021455 C102.236097,13.256118 103.733091,12.3298693 106.550491,12.3298693 C107.685576,12.3346214 108.817207,12.4555981 109.927759,12.6909152 L109.773243,13.8524975 C108.601334,13.6644318 107.505678,13.5548106 106.44213,13.5548106 C104.622057,13.5548106 103.650817,14.0576601 103.650817,15.2644988 C103.650817,16.2219242 104.545803,16.9741871 105.733766,16.9741871 L108.139794,16.9741871 C108.298877,16.9717522 108.452242,17.0336063 108.565309,17.1458031 C108.678376,17.2579999 108.741626,17.4110937 108.740799,17.5705665 C108.740799,17.9155213 108.479928,18.1820315 108.13879,18.1820315 L105.548147,18.1820315 C104.190618,18.1820315 103.327739,18.8558498 103.327739,19.8917197 C103.327739,21.4133423 104.730419,21.8689239 106.488284,21.8689239 C107.444474,21.8689239 108.739795,21.7442172 109.79933,21.4927925 L110,22.6372779 C108.868134,22.9431684 107.701683,23.1016962 106.529421,23.1089507 M45.0212071,14.9044586 L47.4794086,21.0774388 L43.7670227,18.1005699 L45.0212071,14.9044586 Z M49.3877756,22.4994972 L45.6071621,13.2410325 C45.4988005,12.9745223 45.2830808,12.8326191 45.0212071,12.8326191 C44.7547252,12.8279992 44.5139209,12.9913253 44.4191986,13.2410325 L40.2834001,23.6731478 L41.6880866,23.3955749 L43.3305665,19.2088502 L48.2319192,23.2386859 C48.4295787,23.3995977 48.5710507,23.4740194 48.75667,23.4740194 C48.94075,23.4770146 49.1182249,23.4053159 49.2487837,23.2752087 C49.3793424,23.1451016 49.4519026,22.96763 49.4500203,22.7831043 C49.4435657,22.6854502 49.4218973,22.5894107 49.3857689,22.4984915 L49.3877756,22.4994972 Z" id="Shape" fill-opacity="0.85" fill="#000000"></path>
        </g>
    </g>
</svg>