<?xml version="1.0" encoding="UTF-8"?>
<svg width="344px" height="120px" viewBox="0 0 344 120" version="1.1" xmlns="http://www.w3.org/2000/svg" xmlns:xlink="http://www.w3.org/1999/xlink">
    <title>android</title>
    <defs>
        <path d="M27.2492576,15.6890344 L18.1661717,24.8445172 L27.2492576,34 L16.8699803,34 L7.78364583,24.8445172 L16.8699803,15.6890344 L27.2492576,15.6890344 Z M16.8699803,0 L0,16.9983633 L5.19126295,22.2291326 L27.2492576,0 L16.8699803,0 Z" id="path-1"></path>
        <path d="M27.2492576,15.6890344 L18.1661717,24.8445172 L27.2492576,34 L16.8699803,34 L7.78364583,24.8445172 L16.8699803,15.6890344 L27.2492576,15.6890344 Z M16.8699803,0 L0,16.9983633 L5.19126295,22.2291326 L27.2492576,0 L16.8699803,0 Z" id="path-3"></path>
        <path d="M27.2492576,15.6890344 L18.1661717,24.8445172 L27.2492576,34 L16.8699803,34 L7.78364583,24.8445172 L16.8699803,15.6890344 L27.2492576,15.6890344 Z M16.8699803,0 L0,16.9983633 L5.19126295,22.2291326 L27.2492576,0 L16.8699803,0 Z" id="path-5"></path>
        <path d="M27.2492576,15.6890344 L18.1661717,24.8445172 L27.2492576,34 L16.8699803,34 L7.78364583,24.8445172 L16.8699803,15.6890344 L27.2492576,15.6890344 Z M16.8699803,0 L0,16.9983633 L5.19126295,22.2291326 L27.2492576,0 L16.8699803,0 Z" id="path-7"></path>
        <path d="M27.2492576,15.6890344 L18.1661717,24.8445172 L27.2492576,34 L16.8699803,34 L7.78364583,24.8445172 L16.8699803,15.6890344 L27.2492576,15.6890344 Z M16.8699803,0 L0,16.9983633 L5.19126295,22.2291326 L27.2492576,0 L16.8699803,0 Z" id="path-9"></path>
    </defs>
    <g id="android" stroke="none" stroke-width="1" fill="none" fill-rule="evenodd">
        <g id="flutterio-ar21" transform="translate(5.000000, 11.000000)">
            <g id="Group">
                <g id="Clipped">
                    <mask id="mask-2" fill="white">
                        <use xlink:href="#path-1"></use>
                    </mask>
                    <g id="Shape"></g>
                    <polygon id="Path" fill-opacity="0.85" fill="#000000" fill-rule="nonzero" mask="url(#mask-2)" points="12.9749088 30.0752864 27.2492576 15.6890344 16.8699803 15.6890344 7.78689443 24.8445172"></polygon>
                </g>
                <g id="Clipped">
                    <mask id="mask-4" fill="white">
                        <use xlink:href="#path-3"></use>
                    </mask>
                    <g id="Shape"></g>
                    <polygon id="Path" fill-opacity="0.85" fill="#000000" fill-rule="nonzero" mask="url(#mask-4)" points="0 16.9983633 16.8699803 0 27.2492576 0 5.19126295 22.2291326"></polygon>
                </g>
                <g id="Clipped">
                    <mask id="mask-6" fill="white">
                        <use xlink:href="#path-5"></use>
                    </mask>
                    <g id="Shape"></g>
                    <polygon id="Path" fill-opacity="0.85" fill="#000000" fill-rule="nonzero" mask="url(#mask-6)" points="16.8699803 33.9967267 27.2492576 33.9967267 18.1661717 24.8445172 12.9749088 30.0752864"></polygon>
                </g>
                <g id="Clipped">
                    <mask id="mask-8" fill="white">
                        <use xlink:href="#path-7"></use>
                    </mask>
                    <g id="Shape"></g>
                    <polygon id="Path" fill-opacity="0.85" fill="#000000" fill-rule="nonzero" mask="url(#mask-8)" points="18.1661717 24.8445172 12.9749088 30.0752864 20.674091 27.3878887"></polygon>
                </g>
                <g id="Clipped">
                    <mask id="mask-10" fill="white">
                        <use xlink:href="#path-9"></use>
                    </mask>
                    <g id="Shape"></g>
                    <polygon id="Path" fill-opacity="0.85" fill="#000000" fill-rule="nonzero" mask="url(#mask-10)" points="7.78630968 24.8427169 12.9777026 19.611784 18.1694203 24.8427169 12.9777026 30.0736498"></polygon>
                </g>
            </g>
            <g id="Group" transform="translate(30.544431, 9.113740)" fill="#000000" fill-opacity="0.85" fill-rule="nonzero">
                <path d="M0,0 L9.07154359,0 L9.07154359,1.78764098 L1.84108818,1.78764098 L1.84108818,7.19609819 L8.36858264,7.19609819 L8.36858264,8.96181527 L1.84108818,8.96181527 L1.84108818,15.8046014 L0,15.8046014 L0,0 Z M11.2666228,0 L13.1286325,0 L13.1286325,15.8054446 L11.2666228,15.8054446 L11.2666228,0 Z M19.9406587,16.1587567 C18.5972223,16.1587567 17.5650971,15.7613157 16.8442831,14.9664339 C16.1480171,14.1664926 15.799884,13.0554007 15.799884,11.633158 L15.799884,4.54752256 L17.6618937,4.54752256 L17.6618937,11.3464609 C17.6618937,12.4145483 17.9029088,13.20156 18.3849392,13.7074961 C18.8669696,14.2134323 19.5169295,14.4664003 20.334819,14.4664003 C20.9630206,14.4664003 21.5209261,14.2971928 22.0085355,13.9587778 C22.5106505,13.6203627 22.8900262,13.179074 23.1466627,12.6349116 C23.4239418,12.0896248 23.5625813,11.5156684 23.5625813,10.9130423 L23.5625813,4.5551116 L25.4237541,4.5551116 L25.4237541,15.8121904 L23.6496145,15.8121904 L23.6496145,14.1712709 L23.5617444,14.1712709 C23.2548964,14.7306114 22.7656133,15.2014131 22.093895,15.583676 C21.4221768,15.9659388 20.706384,16.1570702 19.9465167,16.1570702 L19.9406587,16.1587567 Z" id="Shape"></path>
                <path d="M32.5906082,15.9825223 C32.137589,15.9825223 31.7141387,15.9088805 31.3202574,15.7615968 C30.9408817,15.6143132 30.6195281,15.4155927 30.3561967,15.1654354 C30.0638542,14.8860462 29.8448763,14.5622471 29.6992629,14.1940381 C29.5530917,13.8263911 29.4800061,13.3775134 29.4800061,12.8474047 L29.4800061,6.24746795 L27.5301263,6.24746795 L27.5301263,4.54752256 L29.4800061,4.54752256 L29.4800061,1.36855722 L31.3420157,1.36855722 L31.3420157,4.54752256 L34.0584576,4.54752256 L34.0584576,6.24746795 L31.3420157,6.24746795 L31.3420157,12.3844732 C31.3420157,13.0028396 31.4591759,13.4590253 31.6934962,13.7530304 C31.9707752,14.0768295 32.3724672,14.2387291 32.8985721,14.2387291 C33.3225803,14.2387291 33.731525,14.1136504 34.1254063,13.8634931 L34.1254063,15.6958251 C33.9061494,15.7986988 33.6796398,15.8723406 33.4458774,15.9167506 C33.2266205,15.9617227 32.9420887,15.9842087 32.592282,15.9842087 L32.5906082,15.9825223 Z" id="a"></path>
                <g id="a-link" transform="translate(35.426721, 1.368557)">
                    <path d="M5.06048192,14.613965 C4.60746265,14.613965 4.18401237,14.5403232 3.79013108,14.3930396 C3.41075533,14.245756 3.08940176,14.0470355 2.82607036,13.7968782 C2.53372787,13.517489 2.31474996,13.1936899 2.16913662,12.8254808 C2.02296538,12.4578339 1.94987976,12.0089561 1.94987976,11.4788475 L1.94987976,4.87891072 L0,4.87891072 L0,3.17896533 L1.94987976,3.17896533 L1.94987976,0 L3.81188939,0 L3.81188939,3.17896533 L6.52833132,3.17896533 L6.52833132,4.87891072 L3.81188939,4.87891072 L3.81188939,11.0159159 C3.81188939,11.6342823 3.92904955,12.0904681 4.16336987,12.3844732 C4.4406489,12.7082723 4.84234087,12.8701719 5.36844577,12.8701719 C5.79245395,12.8701719 6.20139869,12.7450932 6.59527998,12.4949359 L6.59527998,14.3272679 C6.37602312,14.4301416 6.14951348,14.5037834 5.91575107,14.5481933 C5.69649421,14.5931654 5.4119624,14.6156515 5.06215564,14.6156515 L5.06048192,14.613965 Z" id="a"></path>
                </g>
                <path d="M48.6884138,16.1587567 C47.6283934,16.1587567 46.6715854,15.9012914 45.81799,15.3863609 C44.9710894,14.8714303 44.3066239,14.1650873 43.8245936,13.2673317 C43.3570688,12.3549602 43.1233064,11.331845 43.1233064,10.1979859 C43.1233064,9.1090989 43.3422843,8.10846967 43.7802401,7.19609819 C44.2332594,6.2837267 44.8687137,5.55517868 45.6866032,5.01045412 C46.5044927,4.4651674 47.4537689,4.19252404 48.5344319,4.19252404 C49.6296004,4.19252404 50.5788766,4.44549211 51.3822606,4.95142823 C52.1856445,5.43712692 52.7993406,6.11395703 53.2233488,6.98191856 C53.6613046,7.85044225 53.8802825,8.84376351 53.8802825,9.96188235 C53.8802825,10.1828078 53.8579663,10.3739392 53.8133338,10.5352766 L44.9844791,10.5352766 C45.0291116,11.3886222 45.233584,12.1098623 45.5978962,12.6989968 C45.9627665,13.2875692 46.4230385,13.7288579 46.9787124,14.022863 C47.547776,14.3174303 48.1391558,14.4647139 48.7528519,14.4647139 C50.1844374,14.4647139 51.2871377,13.7878838 52.0609526,12.4342236 L53.6384305,13.2066194 C53.1564001,14.1189909 52.4991874,14.8402309 51.6667924,15.3703396 C50.8489029,15.899886 49.8558311,16.1646593 48.687577,16.1646593 L48.6884138,16.1587567 Z M51.9086444,8.9845824 C51.8796333,8.51349965 51.7485255,8.04269797 51.515321,7.57217737 C51.2810007,7.10109463 50.9085988,6.70365369 50.3981153,6.37985457 C49.8960003,6.05605545 49.2683566,5.89415589 48.5151842,5.89415589 C47.6392725,5.89415589 46.8944687,6.18085302 46.2807726,6.7542473 C45.68214,7.3135878 45.2877008,8.05675175 45.097455,8.98373917 L51.911155,8.98373917 L51.9086444,8.9845824 Z M56.0377031,4.54752256 L57.8118426,4.54752256 L57.8118426,6.35793067 L57.8997127,6.35793067 C58.1189696,5.73956429 58.5424199,5.23194171 59.1700636,4.83506293 C59.7982652,4.42300606 60.4554779,4.21697762 61.1417017,4.21697762 C61.6527431,4.21697762 62.0906989,4.29061944 62.4555691,4.43790307 L62.4555691,6.46839339 C61.9880443,6.23228986 61.4622184,6.1142381 60.8780913,6.1142381 C60.336923,6.1142381 59.840387,6.2688297 59.3884836,6.57801288 C58.9354643,6.88719607 58.5728257,7.30656091 58.3005678,7.83610739 C58.0383523,8.35103794 57.9072445,8.91318919 57.9072445,9.52256115 L57.9072445,15.8130337 L56.0452348,15.8130337 L56.0452348,4.55595483 L56.0377031,4.54752256 Z" id="Shape"></path>
            </g>
        </g>
        <g id="reactjs-ar21" transform="translate(186.000000, 80.000000)">
            <g id="Group">
                <ellipse id="Oval" fill-opacity="0.85" fill="#000000" fill-rule="nonzero" cx="19.3844266" cy="16.9663047" rx="3.61631083" ry="3.58484139"></ellipse>
                <g id="Path" stroke="#000000" stroke-opacity="0.85" stroke-width="1.6">
                    <path d="M19.3844987,9.67757267 C24.2398863,9.67757267 28.7504172,10.3682158 32.1513367,11.5288392 C36.2489621,12.9272753 38.7683486,15.0469386 38.7683486,16.9663047 C38.7683486,18.9664186 36.0983035,21.2182795 31.6979913,22.6635207 C28.3712477,23.756116 23.9934983,24.326495 19.3844987,24.326495 C14.659009,24.326495 10.1842326,23.7911305 6.82000454,22.6515158 C2.56364699,21.2093472 1.02439587e-15,18.9283314 1.02439587e-15,16.9663047 C1.02439587e-15,15.0625165 2.40549151,12.9592171 6.44552062,11.5629247 C9.85912717,10.3831505 14.48103,9.67757267 19.3838499,9.67757267 L19.3844987,9.67757267 Z"></path>
                    <path d="M12.9837431,13.3429474 C15.4094186,9.17350683 18.266165,5.64518884 20.9794614,3.30450543 C24.2485366,0.484337777 27.3595284,-0.620119507 29.0367406,0.338634593 C30.7846686,1.33783401 31.4185881,4.75574915 30.4832794,9.25632683 C29.7768419,12.6590214 28.0875915,16.7031244 25.785038,20.6610488 C23.4242395,24.7190146 20.721035,28.2942092 18.0447185,30.6131693 C14.658144,33.5478129 11.3840228,34.6098241 9.66947034,33.6296325 C8.00573813,32.679239 7.36951194,29.5622342 8.16764205,25.3952946 C8.84200145,21.8745512 10.5343516,17.5531191 12.9829502,13.342876 L12.9837431,13.3429474 Z"></path>
                    <path d="M12.9897983,20.6716961 C10.5572748,16.5069717 8.90111152,12.2905831 8.20981204,8.79142006 C7.37765759,4.57538876 7.96601905,1.35191127 9.64171745,0.3903703 C11.3879154,-0.611758903 14.6916637,0.550722405 18.1578927,3.6016999 C20.7786313,5.90836923 23.4697254,9.37816299 25.7789828,13.3323716 C28.1465574,17.3864073 29.9210128,21.4936078 30.6113031,24.9501818 C31.4847625,29.32435 30.7778205,32.6665195 29.0648539,33.6494979 C27.4027797,34.6033214 24.3612782,33.5934747 21.1181538,30.8269007 C18.3779695,28.4895043 15.4463263,24.8777947 12.9897983,20.6716246 L12.9897983,20.6716961 Z"></path>
                </g>
            </g>
            <path d="M59.5263181,26.1252861 L55.093812,19.4869388 C57.3339965,19.2909652 59.3525556,17.681919 59.3525556,14.7423152 C59.3525556,11.7511394 57.2112181,9.83678693 54.2073108,9.83678693 L47.6105764,9.83678693 L47.6105764,26.1129089 L49.6541074,26.1129089 L49.6541074,19.6457806 L52.9285432,19.6457806 L57.1134116,26.1129089 L59.5263181,26.1252861 Z M53.9627946,17.8768611 L49.6551479,17.8768611 L49.6551479,11.6541841 L53.9627946,11.6541841 C55.9085191,11.6541841 57.2372305,12.9228552 57.2372305,14.753661 C57.2372305,16.5844669 55.9074787,17.878924 53.9627946,17.878924 L53.9627946,17.8768611 Z M67.1333726,26.4171836 C69.0790971,26.4171836 70.678337,25.7828481 71.8603386,24.6121638 L70.9738374,23.4156935 C70.0373924,24.3677125 68.6597779,24.9040613 67.3060947,24.9040613 C64.7464785,24.9040613 63.1701295,23.0495323 63.0223793,20.8298736 L72.6469524,20.8298736 L72.6469524,20.3657256 C72.6469524,16.8278867 70.5295463,14.0450618 66.9346382,14.0450618 C63.537424,14.0450618 61.0766548,16.8031322 61.0766548,20.2192612 C61.0766548,23.904596 63.6123396,26.4079007 67.1323321,26.4079007 L67.1333726,26.4171836 Z M70.8271277,19.4859074 L63.0234198,19.4859074 C63.1222667,17.6808875 64.3760625,15.5561213 66.9127878,15.5561213 C69.6211947,15.5561213 70.8021558,17.7283338 70.8271277,19.4859074 Z M84.9091787,26.1242547 L84.9091787,18.0222941 C84.9091787,15.1672684 82.817785,14.0440304 80.3060316,14.0440304 C78.3603071,14.0440304 76.8349423,14.6783659 75.5551342,15.9965461 L76.4166635,17.2652172 C77.4748463,16.1430106 78.6329166,15.630385 80.0604749,15.630385 C81.7835336,15.630385 83.0643822,16.5328949 83.0643822,18.1192495 L83.0643822,20.2419528 C82.1040059,19.1434693 80.7503227,18.6308437 79.1250704,18.6308437 C77.1065113,18.6308437 74.9630929,19.8757917 74.9630929,22.5111207 C74.9630929,25.0732174 77.1044303,26.4161522 79.1250704,26.4161522 C80.7253508,26.4161522 82.0800745,25.8550489 83.0643822,24.7813199 L83.0643822,26.1221918 L84.9091787,26.1242547 Z M79.7899464,25.0990034 C78.0668876,25.0990034 76.8599142,24.0263059 76.8599142,22.5369067 C76.8599142,21.0237843 78.0668876,19.9500553 79.7899464,19.9500553 C81.0947263,19.9500553 82.3495625,20.4379264 83.0643822,21.4147 L83.0643822,23.6353902 C82.350603,24.6111323 81.0947263,25.1000349 79.7899464,25.1000349 L79.7899464,25.0990034 Z M93.8366206,26.4171836 C96.0029299,26.4171836 97.282738,25.5383968 98.1942111,24.3677125 L96.9633062,23.2455059 C96.175652,24.2944803 95.1663724,24.7823514 93.9458725,24.7823514 C91.4101877,24.7823514 89.8359197,22.8298356 89.8359197,20.2192612 C89.8359197,17.6086867 91.4112282,15.6809255 93.9458725,15.6809255 C95.1767774,15.6809255 96.1860569,16.1450735 96.9633062,17.217771 L98.1942111,16.0955644 C97.2837785,14.9238486 96.0029299,14.0460932 93.8366206,14.0460932 C90.2916562,14.0460932 87.9037216,16.7309314 87.9037216,20.2202926 C87.9037216,23.7344084 90.2916562,26.4089321 93.8366206,26.4089321 L93.8366206,26.4171836 Z M103.783747,26.4171836 C104.865861,26.4171836 105.531778,26.0995001 106,25.6611382 L105.458943,24.2944803 C105.212346,24.5626547 104.730597,24.7823514 104.203066,24.7823514 C103.391481,24.7823514 102.996093,24.1480158 102.996093,23.269229 L102.996093,15.9480685 L105.41004,15.9480685 L105.41004,14.3379907 L102.996093,14.3379907 L102.996093,11.1168039 L101.149215,11.1168039 L101.149215,14.3379907 L99.1795593,14.3379907 L99.1795593,15.9490999 L101.149215,15.9490999 L101.149215,23.6611762 C101.149215,25.4187498 102.035716,26.4192465 103.783747,26.4192465 L103.783747,26.4171836 Z" id="Shape" fill-opacity="0.85" fill="#000000"></path>
        </g>
        <g id="java" transform="translate(186.000000, 6.000000)" fill="#000000" fill-opacity="0.85" fill-rule="nonzero">
            <g>
                <path d="M10.2632297,33.2536694 C10.2632297,33.2536694 8.6128681,34.2092776 11.4389869,34.5320941 C14.8637381,34.9212575 16.6130354,34.8652551 20.3858538,34.1550587 C20.3858538,34.1550587 21.3791535,34.773939 22.7656867,35.3093507 C14.3056119,38.9166917 3.61912624,35.1006793 10.2632297,33.2536694 Z M9.22906523,28.5462553 C9.22906523,28.5462553 7.37760613,29.9099322 10.2062342,30.2010021 C13.864703,30.5769675 16.7524773,30.6076439 21.7526715,29.6502522 C21.7526715,29.6502522 22.4430704,30.3476072 23.5295704,30.7285664 C13.3022752,33.7052558 1.91176909,30.9629205 9.22906523,28.5462553 Z" id="Shape"></path>
                <path d="M17.94329,20.5600241 C20.0288251,22.9488664 17.3966346,25.0972907 17.3966346,25.0972907 C17.3966346,25.0972907 22.6896927,22.3788545 20.2585996,18.9734076 C17.9888147,15.7991046 16.2477621,14.2221191 25.6721011,8.78381988 C25.6717427,8.78346317 10.8783514,12.4589344 17.94329,20.5600241 Z" id="Path"></path>
                <path d="M29.1319817,36.7358074 C29.1319817,36.7358074 30.3536221,37.7381438 27.7863133,38.5132602 C22.9044117,39.9846615 7.46363715,40.4284004 3.17463267,38.5717595 C1.63396061,37.9040109 4.52460265,36.9783657 5.43402216,36.7828923 C6.38251408,36.5788579 6.92379254,36.6159551 6.92379254,36.6159551 C5.20926613,35.4145782 -4.15843583,38.9755477 2.1662775,39.9971461 C19.412628,42.7797889 33.6048775,38.744404 29.1319817,36.7358074 Z M11.0572243,23.6683371 C11.0572243,23.6683371 3.2040266,25.524978 8.27663022,26.1998607 C10.4191609,26.4848667 14.6870161,26.4192333 18.665592,26.0871425 C21.9161305,25.8156912 25.1788566,25.2349782 25.1788566,25.2349782 C25.1788566,25.2349782 24.0335688,25.7240184 23.203728,26.2868963 C15.2275776,28.374681 -0.178426075,27.4023077 4.25718959,25.2681516 C8.00742484,23.4628759 11.0572243,23.6683371 11.0572243,23.6683371 L11.0572243,23.6683371 Z M25.1462365,31.5040395 C33.2535842,27.3127751 29.5051412,23.2841676 26.8880061,23.8270701 C26.2481504,23.9601204 25.9610219,24.0749789 25.9610219,24.0749789 C25.9610219,24.0749789 26.199758,23.703294 26.6535716,23.5434909 C31.8301294,21.7332214 35.8104976,28.8840534 24.9845692,31.7159212 C24.9842115,31.7159212 25.1089564,31.6039164 25.1462365,31.5040395 Z" id="Shape"></path>
                <path d="M20.2585996,0 C20.2585996,0 24.7476262,4.46984962 15.999706,11.3410262 C8.98423531,16.8549465 14.4002461,19.9978596 15.9975552,23.590219 C11.901762,19.9136777 8.89748737,16.6765948 10.9127639,13.6645917 C13.8715138,9.24325379 22.0699109,7.09910998 20.2585996,0 Z" id="Path"></path>
                <path d="M11.8548035,42.865041 C19.6355917,43.3601452 31.5863748,42.5900227 31.8699187,38.9256093 C31.8699187,38.9256093 31.3257725,40.3146121 25.438742,41.4164687 C18.7967893,42.66065 10.6034107,42.5158284 5.74552612,41.717883 C5.74552612,41.717883 6.74097663,42.5375873 11.8548035,42.865041 Z" id="Path"></path>
            </g>
            <path d="M95.6179098,20.1498467 L95.2227905,20.1498467 L95.2227905,19.9302341 L96.2890138,19.9302341 L96.2890138,20.1498467 L95.8938946,20.1498467 L95.8938946,21.2467228 L95.6179098,21.2467228 L95.6179098,20.1498467 Z M97.7455671,20.2044531 L97.7407778,20.2044531 L97.3480532,21.2461292 L97.1678549,21.2461292 L96.7775249,20.2044531 L96.7727356,20.2044531 L96.7727356,21.2461292 L96.5105201,21.2461292 L96.5105201,19.9296405 L96.895462,19.9296405 L97.257056,20.8609168 L97.61865,19.9296405 L98,19.9296405 L98,21.2461292 L97.7461658,21.2461292 L97.7461658,20.2044531 L97.7455671,20.2044531 L97.7455671,20.2044531 Z M60.661828,32.5104768 C59.4363596,33.5634304 58.1408473,34.1557909 56.9776401,34.1557909 C55.3205339,34.1557909 54.4213382,33.1687212 54.4213382,31.5892908 C54.4213382,29.87928 55.3839924,28.6280815 59.2370039,28.6280815 L60.6612293,28.6280815 L60.6612293,32.5104768 L60.661828,32.5104768 L60.661828,32.5104768 Z M64.0442883,36.2937496 L64.0442883,24.5818671 C64.0442883,21.5886062 62.3225262,19.6132796 58.1719779,19.6132796 C55.7503757,19.6132796 53.6275077,20.2062337 51.9015549,20.9618199 L52.3984473,23.036269 C53.7580168,22.5412502 55.5156988,22.0824379 57.241053,22.0824379 C59.6321232,22.0824379 60.6612293,23.036269 60.6612293,25.0110021 L60.6612293,26.4919035 L59.4662928,26.4919035 C53.6580396,26.4919035 51.0370818,28.7260169 51.0370818,32.0849031 C51.0370818,34.9790415 52.7642319,36.6243557 56.0155846,36.6243557 C58.105526,36.6243557 59.6668458,35.7690535 61.1245964,34.5172615 L61.3898053,36.2937496 L64.0442883,36.2937496 L64.0442883,36.2937496 Z M75.3333247,36.2937496 L71.1157259,36.2937496 L66.037246,19.9112405 L69.7214338,19.9112405 L72.873408,29.9784025 L73.575044,33.0031214 C75.1650997,28.6280815 76.2935843,24.1865644 76.8581259,19.9112405 L80.4405406,19.9112405 C79.4814784,25.3054017 77.7537296,31.2278203 75.3333247,36.2937496 L75.3333247,36.2937496 Z M91.5194454,32.5104768 C90.290385,33.5634304 88.9948727,34.1557909 87.8340602,34.1557909 C86.1769539,34.1557909 85.2789556,33.1687212 85.2789556,31.5892908 C85.2789556,29.87928 86.2422085,28.6280815 90.0928253,28.6280815 L91.5194454,28.6280815 L91.5194454,32.5104768 L91.5194454,32.5104768 Z M94.9031031,36.2937496 L94.9031031,24.5818671 C94.9031031,21.5886062 93.175953,19.6132796 89.0295953,19.6132796 C86.6055985,19.6132796 84.4833291,20.2062337 82.7573763,20.9618199 L83.2542687,23.036269 C84.6138382,22.5412502 86.3751122,22.0824379 88.101065,22.0824379 C90.4885433,22.0824379 91.5188467,23.036269 91.5188467,25.0110021 L91.5188467,26.4919035 L90.3239102,26.4919035 C84.5150584,26.4919035 81.8958966,28.7260169 81.8958966,32.0849031 C81.8958966,34.9790415 83.6194547,36.6243557 86.871406,36.6243557 C88.9631434,36.6243557 90.5220685,35.7690535 91.9834112,34.5172615 L92.2498173,36.2937496 L94.9031031,36.2937496 L94.9031031,36.2937496 Z M47.3283487,39.0774882 C46.3644972,40.4741058 44.805572,41.5798851 43.1011712,42.2037037 L41.4308943,40.2533061 C42.7293999,39.5926875 43.8417205,38.5260824 44.3595662,37.5336707 C44.805572,36.6492847 44.991757,35.5120473 44.991757,32.7900378 L44.991757,14.0843831 L48.5867437,14.0843831 L48.5867437,32.5318445 C48.5867437,36.1726659 48.2933976,37.6440706 47.3283487,39.0774882 L47.3283487,39.0774882 Z" id="Shape"></path>
        </g>
        <g id="kotlin" transform="translate(5.000000, 84.000000)" fill="#000000" fill-rule="nonzero">
            <g id="Group" transform="translate(32.454158, 0.000000)" fill-opacity="0.85">
                <polygon id="Path" points="4.93110505e-15 1.05126667 5.4013346 1.05126667 5.4013346 11.7736667 15.3621923 1.05126667 21.8858844 1.05126667 11.8899801 11.4582 22.3418367 25.5796667 15.8531912 25.5796667 8.24236165 15.13772 5.4013346 18.08092 5.4013346 25.5794933 0 25.5794933"></polygon>
                <path d="M19.471315,16.29368 L19.471315,16.224 C19.471315,10.8276133 23.8205588,6.44748 29.6778457,6.44748 C35.500086,6.44748 39.8142832,10.7575867 39.8142832,16.1538 L39.8142832,16.224 C39.8142832,21.6202133 35.4650394,26 29.6077525,26 C23.7855122,26 19.471315,21.6900667 19.471315,16.29368 L19.471315,16.29368 Z M34.5531348,16.29368 L34.5531348,16.224 C34.5531348,13.45552 32.5539193,11.0378667 29.6077525,11.0378667 C26.5562726,11.0378667 24.7324634,13.38532 24.7324634,16.1538 L24.7324634,16.224 C24.7324634,18.9921333 26.7316789,21.4097867 29.6778457,21.4097867 C32.7293256,21.4097867 34.5531348,19.06216 34.5531348,16.29368 L34.5531348,16.29368 Z" id="Shape"></path>
                <path d="M41.2858918,20.25348 L41.2858918,11.35316 L39.0411768,11.35316 L39.0411768,6.79813333 L41.2858918,6.79813333 L41.2858918,1.99732 L46.6171333,1.99732 L46.6171333,6.79796 L51.0364701,6.79796 L51.0364701,11.35316 L46.6171333,11.35316 L46.6171333,19.3776267 C46.6171333,20.6037867 47.1431787,21.1997067 48.3358028,21.1997067 C49.2549621,21.2041461 50.1601452,20.9749184 50.9662035,20.5335867 L50.9662035,24.80868 C49.843846,25.4744533 48.5462557,25.89496 46.757493,25.89496 C43.4957337,25.89496 41.2858918,24.5984267 41.2858918,20.25348 Z M52.566721,0 L57.8979625,0 L57.8979625,25.5794933 L52.566721,25.5794933 L52.566721,0 Z M59.825003,0 L65.4366169,0 L65.4366169,4.73044 L59.825003,4.73044 L59.825003,0 Z M59.9655362,6.79796 L65.2966042,6.79796 L65.2966042,25.5794933 L59.9653627,25.5794933 L59.9655362,6.79796 Z M67.3246204,6.79796 L72.6558619,6.79796 L72.6558619,9.46088 C73.8835325,7.88406667 75.4618423,6.44748 78.1623361,6.44748 C82.1959873,6.44748 84.545842,9.11057333 84.545842,13.42068 L84.545842,25.5794933 L79.2146005,25.5794933 L79.2146005,15.1025333 C79.2146005,12.5796667 78.0219764,11.2831333 75.9877143,11.2831333 C73.9532787,11.2831333 72.6558619,12.5796667 72.6558619,15.1025333 L72.6558619,25.5794933 L67.3244469,25.5794933 L67.3246204,6.79796 Z" id="Shape"></path>
            </g>
            <polygon id="Path" fill-opacity="0.85" points="12.3244187 1.03896 0 13.9873067 0 25.56268 12.3065484 13.2461333 24.5469942 1.03896"></polygon>
            <polygon id="Path" fill-opacity="0.75" points="0 25.56268 12.3065484 13.2461333 24.5469942 25.56268"></polygon>
            <polygon id="Path" fill-opacity="0.85" points="0 1.03896 12.3244187 1.03896 0 13.9873067"></polygon>
        </g>
    </g>
</svg>