<?xml version="1.0" encoding="UTF-8"?>
<svg width="344px" height="180px" viewBox="0 0 344 180" version="1.1" xmlns="http://www.w3.org/2000/svg" xmlns:xlink="http://www.w3.org/1999/xlink">
    <title>database</title>
    <g id="database" stroke="none" stroke-width="1" fill="none" fill-rule="evenodd">
        <g id="dynamo" transform="translate(5.000000, 4.000000)" fill="#000000">
            <g id="aws-dynamodb" fill-rule="nonzero">
                <polyline id="Path" fill-opacity="0.72" points="18.7206328 32 19.1180234 32 25.6046211 28.8239694 25.7125781 28.6745627 25.7125781 3.32355174 25.6046211 3.17336855 19.1180234 0 18.7157617 0 18.7206328 32"></polyline>
                <polyline id="Path" fill-opacity="0.77" points="10.2792539 32 9.8763125 32 3.39526563 28.8239694 3.26374609 28.6024658 3.19702344 3.45266048 3.39526563 3.17336855 9.8763125 0 10.2842383 0 10.2792539 32"></polyline>
                <polygon id="Path" fill-opacity="0.83" points="9.88775391 0 19.111793 0 19.111793 32 9.88775391 32"></polygon>
                <polyline id="Path" fill-opacity="0.85" points="29 15.2810839 28.7808008 15.2335001 25.6510664 14.9477749 25.6046211 14.9704022 19.1122461 14.7161778 9.88775391 14.7161778 3.39526563 14.9704022 3.39526563 10.1228349 3.38846875 10.1263843 3.39526563 10.1121868 9.88775391 8.63919362 19.1122461 8.63919362 25.6046211 10.1121868 27.9913437 11.3543593 27.9913437 10.5557485 29 10.4477142 28.8955547 10.2482834 25.7019297 8.01228419 25.6046211 8.04323035 19.1122461 6.07343475 9.88775391 6.07343475 3.39526562 8.04323035 3.39526562 3.17336855 7.54604712e-17 7.06803789 7.54604712e-17 10.4694542 0.02628125 10.4508199 1.00865625 10.5557485 1.00865625 11.3707751 7.54604712e-17 11.8993002 7.54604712e-17 15.283746 0.02628125 15.2810839 1.00865625 15.2952815 1.00865625 16.7158103 0.161085938 16.7282332 7.54604712e-17 16.7131483 7.54604712e-17 20.0989251 1.00865625 20.6300013 1.00865625 21.454456 0.0422539062 21.5589409 0 21.5278838 0 24.9287455 3.39526562 28.8239694 3.39526562 23.9545513 9.88775391 25.9243469 19.1122461 25.9243469 25.6237656 23.9487835 25.7103125 23.9859411 28.8619102 21.7828846 29 21.5633776 27.9913437 21.454456 27.9913437 20.6465281 27.8591445 20.5948402 25.7019297 21.7334151 25.6237656 21.8931373 19.1122461 23.3575897 19.1122461 23.3593644 9.88775391 23.3593644 9.88775391 23.3575897 3.39526562 21.8869259 3.39526562 17.0216117 9.88775391 17.2749488 9.88775391 17.2811602 19.1122461 17.2811602 25.6046211 17.0216117 25.7524531 17.0881626 28.7860117 16.8323853 29 16.7300079 27.9913437 16.7158103 27.9913437 15.2952815 29 15.2810839"></polyline>
                <path d="M25.6046211,23.9545513 L25.6046211,28.8239694 L29,24.9287455 L29,21.5500674 L25.6242187,23.9487835 L25.6046211,23.9545513 M25.6046211,21.897574 L25.6242187,21.8931373 L29,20.115341 L29,16.7158103 L25.6046211,17.0216117 L25.6046211,21.897574 M25.6242187,10.1166235 L25.6046211,10.1121868 L25.6046211,14.9704022 L29,15.2810839 L29,11.883217 L25.6242187,10.1166235 M25.6242187,8.06230828 L29,10.4477142 L29,7.06892524 L25.6046211,3.17336855 L25.6046211,8.04323035 L25.6242187,8.04988544 L25.6242187,8.06230828" id="Shape" fill-opacity="0.62"></path>
            </g>
            <text id="DynamoDB" font-family="Gibson-SemiBold, Gibson" font-size="22" font-weight="500" letter-spacing="-1.02142857" fill-opacity="0.85">
                <tspan x="39" y="23">DynamoDB</tspan>
            </text>
        </g>
        <g id="mongo" transform="translate(186.000000, 6.000000)" fill="#000000" fill-rule="nonzero">
            <path d="M12.8122295,11.5407247 C11.2811952,4.80090155 8.09012381,3.00667561 7.27610559,1.73834348 C6.94044142,1.17961217 6.64308758,0.59883516 6.38608567,0 C6.34308471,0.59874058 6.26408294,0.975947146 5.75407153,1.42999209 C4.73004861,2.34107567 0.380951291,5.8776367 0.0149431007,13.5355287 C-0.32606453,20.6755101 5.27506081,25.0782492 6.01507737,25.533292 C6.5840901,25.8127043 7.27710561,25.5392794 7.61511318,25.2828189 C10.3151736,23.4337084 14.0042561,18.5040776 12.8152295,11.5407247" id="Path" fill-opacity="0.74"></path>
            <path d="M6.61809086,21.7312894 C6.47708771,23.498572 6.37608545,24.5254121 6.01807744,25.5352878 C6.01807744,25.5352878 6.2530827,27.2177489 6.41808639,29 L7.00209946,29 C7.141406,27.7449601 7.3541068,26.4991184 7.63911371,25.2688483 C6.88309679,24.8976291 6.64709151,23.2820275 6.61809086,21.7312894 Z" id="Path" fill-opacity="0.85"></path>
            <path d="M7.63811369,25.2698462 L7.63811369,25.2698462 C6.87409659,24.9175871 6.65309165,23.2680568 6.61909089,21.7312894 C6.8080352,19.1962803 6.86311264,16.6531032 6.78409458,14.1123155 C6.74409368,12.7791198 6.803095,1.76428891 6.45508722,0.151680947 C6.69314366,0.697854865 6.96742462,1.22758433 7.27610559,1.73734558 C8.09012381,3.00667561 11.2821952,4.80090155 12.8122295,11.5407247 C14.0042561,18.4921028 10.335174,23.4087609 7.63811369,25.2698462 Z" id="Path" fill-opacity="0.85"></path>
            <path d="M108.340367,22.832972 C107.42712,22.8328844 106.685669,22.0962997 106.681489,21.1849991 C106.677345,20.2736984 107.412037,19.5304006 108.325246,19.5220068 C109.238454,19.5136131 109.986743,20.2432801 109.999404,21.1545026 C110.011419,21.599232 109.841252,22.0296344 109.528175,22.346378 C109.215099,22.6631216 108.786165,22.8388373 108.340367,22.832972 M108.340367,19.6716218 C107.729086,19.6675842 107.175669,20.0317084 106.93856,20.5939489 C106.70145,21.1561894 106.827431,21.8056164 107.257669,22.2389486 C107.687907,22.6722808 108.337516,22.8040219 108.90313,22.572649 C109.468744,22.3412761 109.838768,21.7924391 109.840401,21.1824438 C109.848264,20.7818244 109.693211,20.3951033 109.410596,20.1104552 C109.12798,19.8258072 108.741894,19.6674975 108.340367,19.6716218 M108.740376,22.2242524 L108.312367,21.3031898 L107.967359,21.3031898 L107.967359,22.2242524 L107.716353,22.2242524 L107.716353,20.1286604 L108.335367,20.1286604 C108.796377,20.1286604 108.988382,20.3282406 108.988382,20.7144283 C108.988382,21.0217818 108.843378,21.2133788 108.573372,21.2722549 L109.015382,22.2212587 L108.740376,22.2242524 Z M107.977359,21.0866453 L108.340367,21.0866453 C108.634374,21.0866453 108.746376,20.9868552 108.746376,20.7194178 C108.746376,20.4519803 108.639374,20.3611713 108.308366,20.3611713 L107.977359,20.3611713 L107.977359,21.0866453 Z" id="Shape" fill-opacity="0.85"></path>
            <path d="M83.6488146,21.3241458 C84.0978247,21.6823922 84.9948448,21.8300816 85.7858625,21.8300816 C86.8108854,21.8300816 87.8159079,21.6404804 88.7979299,20.7553422 C89.7979522,19.8482502 90.4859676,18.46017 90.4859676,16.2438319 C90.4859676,14.1143113 89.6739495,12.3859468 88.0079122,11.3740752 C87.0678911,10.7843157 85.8498639,10.5518048 84.4608328,10.5518048 C84.0608239,10.5518048 83.6488146,10.5727607 83.4148094,10.6785382 C83.3188736,10.754108 83.2509517,10.8594622 83.2218051,10.9779085 C83.1798041,11.3571109 83.1798041,14.2450363 83.1798041,15.9524449 C83.1798041,17.7027632 83.1798041,20.1436289 83.2218051,20.4429992 C83.2438056,20.6964661 83.3718084,21.1415299 83.6488146,21.3281374 M79.3847192,9.60379891 C79.7477273,9.60379891 81.1277582,9.66666667 81.7697726,9.66666667 C82.9697994,9.66666667 83.798818,9.60379891 86.0418682,9.60379891 C87.9219103,9.60379891 89.5039457,10.1097347 90.634971,11.0786965 C92.0030016,12.2602113 92.735018,13.9037542 92.735018,15.9065414 C92.735018,18.752555 91.4349889,20.3970958 90.1279596,21.3241458 C88.8279305,22.2941055 87.1368927,22.8419531 84.7278388,22.8419531 C83.4458101,22.8419531 81.2447608,22.8000413 79.4077197,22.7790854 L79.3697189,22.7790854 C79.283717,22.6104401 79.5267224,21.9528234 79.6767258,21.9358591 C80.1767369,21.8799766 80.3087399,21.8600186 80.538745,21.765218 C80.9267537,21.6065517 81.0177558,21.4089673 81.0607567,20.7134304 C81.1247582,19.4061801 81.1037577,17.8464609 81.1037577,16.0751867 C81.1037577,14.8108462 81.1247582,12.344035 81.0827572,11.5636764 C81.0177558,10.9110492 80.7417496,10.7424039 80.1827371,10.6156705 C79.7863138,10.5316388 79.3857578,10.468352 78.9827102,10.4260693 C78.9407093,10.2993359 79.2687166,9.72753863 79.375719,9.60379891" id="Shape" fill-opacity="0.85"></path>
            <path d="M98.0301365,10.6735487 C97.9451346,10.6945047 97.8381322,10.9060597 97.8381322,11.0108393 C97.8161317,11.7702419 97.7951312,13.7510753 97.7951312,15.1211934 C97.8061908,15.1747413 97.8483704,15.216438 97.9021336,15.2269709 C98.1791398,15.2479268 98.8631551,15.2698806 99.440168,15.2698806 C100.252186,15.2698806 100.722197,15.1641031 100.978202,15.0373697 C101.662218,14.7000791 101.978225,13.9616324 101.978225,13.1613159 C101.978225,11.3271739 100.696196,10.6316369 98.7951536,10.6316369 C98.538163,10.6283971 98.2812448,10.6423993 98.0261364,10.6735487 M102.876245,19.1058119 C102.876245,17.250714 101.508214,16.1969306 99.0081583,16.1969306 C98.902156,16.1969306 98.1081382,16.1759747 97.919134,16.2178865 C97.8551325,16.2388424 97.7911311,16.2807543 97.7911311,16.323664 C97.7911311,17.6518702 97.7691306,19.780393 97.8341321,20.6236193 C97.877133,20.9818657 98.1341388,21.4878015 98.4531459,21.6354909 C98.7951536,21.825092 99.5641708,21.8670039 100.098183,21.8670039 C101.572216,21.8670039 102.876245,21.0457314 102.876245,19.1058119 M94.1700501,9.64072124 C94.3630544,9.64072124 94.9310671,9.703589 96.3840996,9.703589 C97.7511302,9.703589 98.8621551,9.66167716 100.184185,9.66167716 C101.829221,9.66167716 104.093272,10.2524345 104.093272,12.6972919 C104.093272,13.8947731 103.239253,14.8687244 102.128228,15.3327484 C102.064227,15.3537043 102.064227,15.3956161 102.128228,15.416572 C103.709264,15.8157324 105.097295,16.7866901 105.097295,18.641788 C105.097295,20.454974 103.965269,21.593579 102.320232,22.3100719 C101.32021,22.7531399 100.077182,22.8998314 98.8201541,22.8998314 C97.8591326,22.8998314 95.283075,22.8000413 93.8510429,22.8160077 C93.7010396,22.7531399 93.988046,22.077561 94.1160489,21.9727814 C94.4441285,21.9627163 94.7696602,21.9117609 95.0850706,21.8211004 C95.597082,21.6953649 95.6580834,21.5307113 95.7220848,20.7713086 C95.7650858,20.1176835 95.7650858,17.7776057 95.7650858,16.112109 C95.7650858,13.834899 95.7870863,12.2971336 95.7650858,11.537731 C95.7440853,10.9479715 95.5300805,10.7573724 95.1240714,10.6525928 C94.8040643,10.5887272 94.2700523,10.5258594 93.8430428,10.4629916 C93.7360404,10.3572141 94.0650477,9.72454492 94.1710501,9.64072124" id="Shape" fill-opacity="0.85"></path>
            <path d="M17.5433353,22.832972 C17.4883116,22.6980361 17.4660387,22.5520301 17.4783339,22.4068683 C17.4735412,22.3079208 17.4960231,22.2095556 17.5433353,22.1224665 C17.8196592,22.0827003 18.0934536,22.0270581 18.3633537,21.9558171 C18.7413622,21.8620144 18.8833653,21.6564468 18.9053658,21.1754585 C18.9673672,20.0388493 18.9713673,17.906335 18.9493668,16.4074877 L18.9493668,16.3635801 C18.9493668,16.2019201 18.9493668,15.9823819 18.7493623,15.8277072 C18.3978321,15.607632 18.0161888,15.4395677 17.616337,15.3287568 C17.437333,15.275868 17.3383308,15.1820653 17.3433309,15.0722962 C17.348331,14.9625271 17.4613335,14.8328 17.6943387,14.7868965 C18.3133526,14.7240288 19.9353889,14.3378411 20.5724031,14.0444582 C20.6379979,14.1297604 20.6684099,14.2368691 20.657405,14.3438285 C20.657405,14.40969 20.6474048,14.479543 20.6404047,14.5513919 C20.6224042,14.7629469 20.6024038,15.003441 20.6024038,15.2429373 C20.6103935,15.3022814 20.6513803,15.351988 20.7081987,15.3712399 C20.7650172,15.3904918 20.8278605,15.3759661 20.8704098,15.3337463 C22.0834369,14.3847424 23.1704613,14.046454 23.7274737,14.046454 C24.6444943,14.046454 25.3585102,14.4835346 25.9115226,15.3836413 C25.9373078,15.427831 25.9842926,15.4554327 26.0355254,15.4564881 C26.0820105,15.4560555 26.12534,15.4329457 26.151528,15.3946182 C27.2665529,14.550394 28.3715777,14.046454 29.1115942,14.046454 C30.8596333,14.046454 31.9046567,15.3527064 31.9046567,17.5391074 C31.9046567,18.167785 31.8986566,18.9651079 31.8926565,19.7085441 C31.8876563,20.3611713 31.8826562,20.9728846 31.8826562,21.3959946 C31.8826562,21.4957847 32.0206593,21.7831802 32.2276639,21.8400606 C32.4836697,21.9647982 32.8526779,22.0286638 33.3196884,22.1084959 L33.3376888,22.1084959 C33.3726896,22.2342314 33.2986879,22.722205 33.2276863,22.8219951 C33.1116837,22.8219951 32.9516802,22.8120161 32.7516757,22.8020371 C32.3886676,22.7840749 31.8906564,22.7591274 31.3116435,22.7591274 C30.1496174,22.7591274 29.5426039,22.7810812 28.9625909,22.8190014 C28.9185899,22.6743058 28.9035896,22.2072881 28.9565907,22.1094938 C29.1967822,22.0720123 29.4345374,22.0203636 29.6686067,21.9548192 C30.038615,21.8330753 30.1456174,21.6654279 30.1686179,21.1754585 C30.1776181,20.8271911 30.2446196,17.7586456 30.1256169,17.0301779 C30.0156144,16.2747669 29.4456017,15.3906266 28.1985738,15.3906266 C27.7355634,15.3906266 26.9885467,15.5832215 26.2765308,16.122088 C26.2323659,16.1720426 26.2075399,16.2360994 26.2065292,16.3027081 L26.2065292,16.3176766 C26.2905311,16.7108496 26.2905311,17.169884 26.2905311,17.8634252 C26.2905311,18.2625856 26.2905311,18.6787103 26.285531,19.094835 C26.2805309,19.941055 26.2765308,20.7393758 26.2905311,21.3431059 C26.2905311,21.7542411 26.5395367,21.8530333 26.7405412,21.9318675 C26.8495436,21.9558171 26.9355455,21.976773 27.0225475,21.996731 C27.1895512,22.037645 27.3635551,22.0795568 27.6225609,22.1204707 C27.6609009,22.295775 27.6574756,22.4776114 27.6125607,22.651354 C27.6019625,22.7165578 27.5762828,22.7783999 27.537559,22.8319741 C26.8915445,22.8100203 26.2285297,22.7910602 25.2715083,22.7910602 C24.9815018,22.7910602 24.5084912,22.803035 24.0904819,22.8140119 C23.7514743,22.822993 23.4314671,22.8319741 23.249463,22.832972 C23.2002406,22.7170654 23.1783442,22.5914286 23.1854616,22.4657445 C23.1752452,22.3473208 23.1984548,22.2284079 23.2524631,22.1224665 L23.5094689,22.0755652 C23.7334739,22.0356492 23.9274782,22.0017205 24.1094823,21.9558171 C24.4254894,21.856027 24.544492,21.684388 24.5674925,21.2822339 C24.6294939,20.344207 24.677495,17.6408933 24.544492,16.9643164 C24.318487,15.8786002 23.6994731,15.3277589 22.7034508,15.3277589 C22.1204378,15.3277589 21.3834213,15.608169 20.7814078,16.0582224 C20.6643415,16.1719666 20.60018,16.3293172 20.6044038,16.4923093 C20.6044038,16.8146313 20.6044038,17.1978253 20.6044038,17.6089605 C20.6044038,18.9661058 20.5954036,20.6555521 20.6284044,21.3860156 C20.6484048,21.6115412 20.7284066,21.8789787 21.1514161,21.976773 C21.2444182,22.0037163 21.4044217,22.0296617 21.5904259,22.0605967 C21.6974283,22.0785589 21.8144309,22.097519 21.9354336,22.1194728 C21.9739013,22.3584318 21.9543538,22.6031128 21.8784324,22.832972 C21.6924282,22.832972 21.4634231,22.8209972 21.2014172,22.8100203 C20.8014083,22.7920581 20.3013971,22.7701043 19.7363844,22.7701043 C19.0683695,22.7701043 18.6033591,22.7920581 18.2303507,22.8100203 C17.9793451,22.8219951 17.7623402,22.8319741 17.5453354,22.832972" id="Path" fill-opacity="0.85"></path>
            <path d="M38.9888152,14.9485565 C38.6278828,14.9410774 38.2728588,15.0407595 37.9687924,15.2349541 C37.2267758,15.6850074 36.8487674,16.5841162 36.8487674,17.905337 C36.8487674,20.3781356 38.0897951,22.1055022 39.8668349,22.1055022 C40.3433098,22.1205787 40.8080551,21.9563751 41.168864,21.6454699 C41.7148763,21.2014039 42.0048827,20.2933141 42.0048827,19.0219882 C42.0048827,16.586112 40.7918556,14.9485565 38.9868152,14.9485565 M39.3288229,23.0225732 C36.118751,23.0225732 34.9757254,20.6725164 34.9757254,18.4741406 C34.9757254,16.938371 35.6047395,15.7378961 36.8457673,14.9046488 C37.714995,14.367671 38.7127313,14.0733618 39.7348319,14.0524414 C42.1838867,14.0524414 43.894925,15.809745 43.894925,18.3274492 C43.894925,20.0378514 43.2119098,21.3890093 41.9188808,22.2332335 C41.2978669,22.6124359 40.2188428,23.0225732 39.3288229,23.0225732" id="Shape" fill-opacity="0.85"></path>
            <path d="M71.6695466,14.9485565 C71.3078983,14.9403764 70.952034,15.0400989 70.6475237,15.2349541 C69.9055071,15.6850074 69.5274986,16.5841162 69.5274986,17.905337 C69.5274986,20.3781356 70.7685264,22.1055022 72.5455662,22.1055022 C73.0234062,22.1215907 73.4897604,21.9573233 73.8515954,21.6454699 C74.3976076,21.2014039 74.6866141,20.2933141 74.6866141,19.0219882 C74.6866141,16.586112 73.474587,14.9485565 71.6695466,14.9485565 M72.0115542,23.0225732 C68.8014824,23.0225732 67.6584568,20.6725164 67.6584568,18.4751385 C67.6584568,16.9373731 68.2874709,15.7378961 69.5294987,14.9046488 C70.3982133,14.3673466 71.3957204,14.0730032 72.4175633,14.0524414 C74.8666181,14.0524414 76.5776564,15.8107429 76.5776564,18.3264513 C76.5776564,20.0388493 75.8946411,21.3890093 74.6016122,22.2322356 C73.9805983,22.6124359 72.9015741,23.0225732 72.0115542,23.0225732" id="Shape" fill-opacity="0.85"></path>
            <path d="M60.8613047,14.8647328 C59.8722826,14.8647328 59.2322683,15.6440935 59.2322683,16.8505557 C59.2322683,18.057018 59.7832806,19.4910017 61.3323152,19.4910017 C61.5983212,19.4910017 62.080332,19.3732494 62.3193373,19.1108014 C62.6793454,18.7804962 62.9193508,18.0979319 62.9193508,17.3774474 C62.9193508,15.8037576 62.1513336,14.8647328 60.8663048,14.8647328 M60.738302,23.1912185 C60.4588894,23.188176 60.1833898,23.2569048 59.938284,23.3907987 C59.1552665,23.8897491 58.7922584,24.3886996 58.7922584,24.9684801 C58.7922584,25.5113382 59.0032631,25.9434293 59.4572733,26.3266233 C60.0072856,26.7916452 60.7493022,27.0181687 61.724324,27.0181687 C63.643367,27.0181687 64.5033862,25.9883349 64.5033862,24.9684801 C64.5033862,24.2579746 64.1463782,23.7819758 63.4113618,23.5125426 C62.8453491,23.3059771 61.8993279,23.1922164 60.741302,23.1922164 M60.8693049,28.0819311 C59.7172791,28.0819311 58.8872605,27.8394412 58.1782447,27.2945872 C57.4882292,26.7637039 57.1782223,25.9753622 57.1782223,25.4305082 C57.1856879,25.0793884 57.3199162,24.7427576 57.5562307,24.4825023 C57.7562352,24.2549809 58.2212456,23.8288772 59.2962697,23.0914284 C59.3303386,23.076973 59.352406,23.0435488 59.3522709,23.0066068 C59.3529773,22.9650666 59.3247298,22.9285886 59.2842694,22.9187915 C58.3992496,22.5805031 58.1322436,22.0206806 58.0512418,21.7213103 C58.0512418,21.7103334 58.0512418,21.6933691 58.0422416,21.674409 C58.0172411,21.5566567 57.9932405,21.4448918 58.1542441,21.3301332 C58.2782469,21.2423179 58.4762513,21.1245656 58.6882561,20.9998279 C58.9875303,20.8345156 59.2745994,20.6480998 59.5472753,20.4420013 C59.5769817,20.4101465 59.5902469,20.3663687 59.5832049,20.323426 C59.576163,20.2804833 59.5496064,20.2432079 59.5112745,20.2224631 C58.2012452,19.7833867 57.5412304,18.812429 57.5412304,17.3285503 C57.5330706,16.3894444 57.984766,15.505478 58.7512575,14.9605313 C59.2782693,14.5444066 60.6012989,14.0444582 61.4583181,14.0444582 L61.5083192,14.0444582 C62.3893389,14.0654141 62.88635,14.2500258 63.5743654,14.5034927 C63.9657358,14.6447062 64.3804374,14.710403 64.7963928,14.6970854 C65.5254091,14.6970854 65.8444162,14.4665703 66.1184223,14.198135 C66.1628559,14.3190453 66.186522,14.4465716 66.1884239,14.5753415 C66.2051637,14.8821667 66.1216434,15.1861238 65.9504186,15.4415196 C65.8014153,15.6480851 65.4504074,15.7977702 65.1294002,15.7977702 C65.0963995,15.7977702 65.0643988,15.7977702 65.029398,15.7927807 C64.8604895,15.7809134 64.6930784,15.7531821 64.5293868,15.7099549 L64.447385,15.7388941 C64.4213844,15.7768143 64.4383848,15.8187261 64.4593852,15.8726128 C64.4645137,15.8831469 64.4685352,15.8941827 64.4713855,15.9055435 C64.5299145,16.1718741 64.5696793,16.4419682 64.5903882,16.7138433 C64.5903882,18.2655793 63.9773744,18.9411583 63.3143596,19.4421045 C62.6733447,19.9220562 61.912072,20.2162509 61.1143104,20.2923162 L61.1143104,20.2923162 C61.09731,20.2923162 61.0143081,20.2993015 60.8583046,20.3132721 C60.7583024,20.3222532 60.6282995,20.334228 60.6092991,20.334228 L60.5902986,20.334228 C60.4462954,20.374144 60.070287,20.5527683 60.070287,20.8850693 C60.070287,21.16049 60.2402908,21.50277 61.053309,21.5646399 L61.5793208,21.6015622 C62.6513448,21.6764048 63.9903747,21.7692096 64.6203888,21.9817625 C65.4775631,22.2825376 66.0447863,23.0979764 66.0274203,24.0045078 C66.0274203,25.3965796 65.0353981,26.7058257 63.3743609,27.5061423 C62.5910515,27.8794931 61.7333744,28.0715408 60.8653048,28.0679605" id="Shape" fill-opacity="0.85"></path>
            <path d="M55.9551949,22.0905337 C55.4851844,22.0276659 55.1421767,21.9638003 54.7371677,21.7741991 C54.6576895,21.6920459 54.6053397,21.5875684 54.5871643,21.4748288 C54.5441633,20.8212037 54.5441633,18.9241939 54.5441633,17.6828051 C54.5441633,16.6699357 54.3741595,15.7867933 53.9441499,15.1531262 C53.4311384,14.4356354 52.7051222,14.0145212 51.7651012,14.0145212 C50.9320825,14.0145212 49.8210576,14.5833247 48.9030371,15.3636833 C48.8810366,15.3846392 48.7400335,15.5183579 48.7430335,15.3107945 C48.7460336,15.1032311 48.7780343,14.6821169 48.7980348,14.4126837 C48.8160467,14.2675284 48.7641175,14.1224351 48.6580316,14.0215065 C48.0580182,14.3208768 46.3749805,14.7200372 45.7519666,14.7809091 C45.2979564,14.8687244 45.1829539,15.3048071 45.6679647,15.4554902 L45.6749649,15.4554902 C46.0632006,15.562319 46.4337675,15.7250225 46.7749895,15.9384742 C46.9669938,16.0861636 46.9459933,16.2967207 46.9459933,16.465366 C46.9669938,17.8773958 46.9669938,20.0488283 46.9029923,21.2293452 C46.8819919,21.6933691 46.752989,21.8620144 46.4109813,21.946836 L46.4429821,21.9358591 C46.1825411,22.0009877 45.9183844,22.0503079 45.6519644,22.0835484 C45.544962,22.188328 45.544962,22.8000413 45.6519644,22.9267747 C45.8659691,22.9267747 46.9519934,22.863907 47.8520136,22.863907 C49.0900413,22.863907 49.7310556,22.9267747 50.0520628,22.9267747 C50.1810657,22.7790854 50.2230666,22.2102818 50.1380647,22.0835484 C49.8422584,22.0701997 49.5484946,22.0277495 49.2610451,21.956815 C48.9200375,21.8729913 48.8340356,21.7033481 48.8130351,21.3251437 C48.7710342,20.3332301 48.7710342,18.2256633 48.7710342,16.7916796 C48.7710342,16.3925192 48.8770365,16.2019201 49.0050394,16.0931489 C49.4320489,15.7139465 50.1380647,15.4614776 50.7570786,15.4614776 C51.357092,15.4614776 51.757101,15.6510788 52.0571077,15.9035477 C52.4065434,16.207809 52.6256142,16.6343052 52.6691214,17.0950415 C52.7541233,17.8933622 52.7321228,19.4989849 52.7321228,20.8870651 C52.7321228,21.6464678 52.6691214,21.8370669 52.3911152,21.9208905 C52.2631123,21.9837583 51.9211046,22.047624 51.5150956,22.0895358 C51.3870927,22.2162692 51.4290936,22.8060287 51.5150956,22.9327621 C52.070108,22.9327621 52.7151224,22.8698944 53.6511434,22.8698944 C54.8261697,22.8698944 55.5741864,22.9327621 55.8731931,22.9327621 C56.0011959,22.7850728 56.0441969,22.2342314 55.959195,22.0895358" id="Path" fill-opacity="0.85"></path>
        </g>
        <g id="mysql" transform="translate(5.000000, 62.000000)" fill="#000000" fill-opacity="0.85" fill-rule="nonzero">
            <path d="M0,34.6203497 L2.42782279,34.6203497 L2.42782279,25.0355147 L6.17152969,33.3943001 C6.61597287,34.3967882 7.20953297,34.7498238 8.39540706,34.7498238 C9.58169652,34.7498238 10.1748412,34.3967882 10.6192844,33.3943001 L14.3629913,25.0355147 L14.3629913,34.6203497 L16.7721226,34.6203497 L16.7721226,25.0538326 C16.7721226,24.1254488 16.4011994,23.6787421 15.6414924,23.437279 C13.8068143,22.8615145 12.5648656,23.3631748 12.0091039,24.6079586 L8.33974782,32.8368535 L4.78171018,24.6079586 C4.24422469,23.3631748 2.98399982,22.8615145 1.14932176,23.437279 C0.37092314,23.6787421 0.000415367458,24.1250324 0.000415367458,25.0538326 L0.000415367458,34.6203497 L0,34.6203497 L0,34.6203497 Z M18.7920545,26.8181783 L21.2011858,26.8181783 L21.2011858,32.0937301 C21.1829096,32.3905631 21.2938127,33.0595823 22.6283884,33.0783165 C23.2954685,33.0962181 27.8358502,33.0783165 27.8728179,33.0783165 L27.8728179,26.7994441 L30.3006407,26.7994441 C30.3189169,26.7994441 30.3006407,35.3622241 30.3006407,35.3996925 C30.3189169,37.5170739 27.687564,37.9625316 26.4829984,38 L18.8477138,38 L18.8477138,36.3655448 C18.8477138,36.3655448 26.4647222,36.384279 26.4829984,36.3655448 C28.0397956,36.2169201 27.8545417,35.4371609 27.8545417,35.1769637 L27.8545417,34.5449965 L22.7210153,34.5449965 C20.3301602,34.5083608 18.8103307,33.4675717 18.7920545,32.2602563 C18.7920545,32.1491 18.8477138,26.8743809 18.7920545,26.8181783 L18.7920545,26.8181783 Z M70.850058,20.7441332 C69.3680269,20.7070811 68.2369814,20.8369715 67.2546373,21.2641114 C66.9771719,21.375684 66.5505895,21.375684 66.4953456,21.7287196 C66.6436318,21.8765117 66.6801841,22.1183911 66.7915026,22.3232184 C67.0324157,22.6949882 67.4220304,23.1958159 67.7738466,23.4560132 C68.1447698,23.7536789 68.5339691,24.0505119 68.9414446,24.3107092 C69.6828755,24.756167 70.4982418,24.99763 71.1835981,25.4443367 C71.6101805,25.7037013 72.017656,26.0388354 72.4255468,26.3356685 C72.6103853,26.4842932 72.7590869,26.7074383 73,26.7998604 L73,26.7632246 C72.8704054,26.5958658 72.8330223,26.3544027 72.7217038,26.1678933 L72.1659421,25.610863 C71.628872,24.9052079 70.942685,24.2732408 70.2195302,23.7536789 C69.645077,23.3448569 68.3478845,22.7690924 68.1069713,22.1004895 C68.0882798,22.0817553 68.0695883,22.0817553 68.0695883,22.0630211 C68.4774791,22.0068185 68.9597207,21.8590264 69.3302285,21.7653554 C69.9607563,21.5988292 70.5347941,21.6354649 71.1831827,21.4685224 C71.4801705,21.3752677 71.7763275,21.3011635 72.0733152,21.2083251 L72.0733152,21.0409662 C71.7397751,20.7066647 71.5175535,20.2424728 71.1470458,19.9452234 C70.2020848,19.1279959 69.1636662,18.3290861 68.1073867,17.6604832 C67.514242,17.2703955 66.7915026,17.0289324 66.1618055,16.7133652 C65.9574448,16.6205268 65.5865216,16.5647405 65.4390662,16.3790637 C65.1046954,15.9702417 64.9385484,15.4315293 64.6789437,14.9486032 C64.1352467,13.8891551 63.6284691,12.8110789 63.1595296,11.7163286 C62.844681,10.9919394 62.6216287,10.2675501 62.2332601,9.59853092 C60.3055398,6.44077681 58.2482247,4.52780646 55.0424187,2.65147188 C54.3570624,2.26138413 53.5416961,2.09444156 52.6702551,1.89003058 C52.2071204,1.85256217 51.7439857,1.83424429 51.2804356,1.79677588 C51.0021394,1.68520329 50.7059824,1.33258394 50.4276862,1.16522506 C49.3714068,0.496622144 46.6470116,-0.970890476 45.8681976,0.96081408 C45.3676799,2.16812943 46.6096286,3.35712689 47.0540717,3.97035982 C47.369751,4.39749966 47.7581196,4.88084212 47.9811719,5.36335194 C48.1286274,5.6789192 48.1473189,5.99490276 48.2773289,6.32920422 C48.5921774,7.16516602 48.8517821,8.075232 49.2409814,8.8366733 C49.4445115,9.22676106 49.666733,9.63558301 49.9263377,9.98861867 C50.0746239,10.1930296 50.3529201,10.285868 50.3894724,10.6201695 C50.1298678,10.991523 50.112007,11.5489697 49.9637208,12.0131616 C49.3149168,14.1122251 49.5558299,16.6942146 50.5194824,18.2541493 C50.8164702,18.7183413 51.5018265,19.7399798 52.4658943,19.3503084 C53.2999522,18.9972727 53.114283,17.9569 53.3551961,17.0097819 C53.4112707,16.8053709 53.3738876,16.6567462 53.4847907,16.5081215 L53.4847907,16.5451736 C53.7257038,17.0651519 53.9853085,17.5668122 54.2449132,18.0680562 C54.8006748,18.9785385 55.8017104,19.9443908 56.6544598,20.5755253 C57.0802114,20.9098268 57.432443,21.4860076 58.0068962,21.6712681 L58.0068962,21.6337997 L57.9516524,21.6337997 C57.8403339,21.4672734 57.6733562,21.3927529 57.5437615,21.2624461 C57.2102215,20.9281447 56.8397137,20.5193227 56.5614175,20.1479692 C55.8021258,19.1075964 55.1163541,17.9560673 54.4862417,16.7670699 C54.1892539,16.1913053 53.9296493,15.5597545 53.6895669,14.98399 C53.5961092,14.7612611 53.5961092,14.4269597 53.3925791,14.2966529 C53.114283,14.7237927 52.7259144,15.0768284 52.5024467,15.5784887 C52.1689066,16.3773984 52.1136627,17.3615686 52.0027596,18.3648893 C51.9279935,18.4019414 51.946685,18.3832072 51.909302,18.4206756 C51.316988,18.2720509 51.1126272,17.658818 50.8904056,17.1388397 C50.3533355,15.8199518 50.2416016,13.7025705 50.7234279,12.1792716 C50.8530225,11.7891838 51.4283064,10.5631343 51.1873933,10.1917807 C51.0752441,9.83874504 50.7234279,9.61601618 50.5198978,9.33750101 C50.2602931,9.00319956 50.01938,8.55732551 49.8345415,8.16723776 C49.3900983,7.12686498 49.1857375,5.97533593 48.7034959,4.93537947 C48.4625828,4.43371912 48.0924904,3.93205878 47.7772265,3.50491894 C47.4249949,3.0032586 47.0357956,2.65063925 46.7583301,2.05614052 C46.6657032,1.85172954 46.5361085,1.51742809 46.6657032,1.29428291 C46.720947,1.14565822 46.7770216,1.08987193 46.9244771,1.03408563 C47.1653902,0.848408858 47.8515773,1.10860613 48.1103512,1.2010282 C48.7778467,1.49827757 49.3522999,1.75847484 49.9267531,2.14856259 C50.2050493,2.33423937 50.4833455,2.68685871 50.8168855,2.78011341 L51.1878087,2.78011341 C51.7809534,2.91000389 52.4476182,2.81716551 53.0033798,2.98452439 C53.9857239,3.28135744 54.8750256,3.74596569 55.6725311,4.26636024 C58.1186301,5.80797704 60.1020097,7.99987887 61.4731377,10.6189205 C61.6953593,11.0460604 61.7879862,11.4361481 61.9736555,11.8820222 C62.3632701,12.7925045 62.8629572,13.7208884 63.2521565,14.5939022 C63.6230796,15.4856503 64.0122789,16.3773984 64.5493491,17.1013713 C64.8463368,17.4914591 65.9578601,17.6958701 66.4583779,17.8998647 C66.8106095,18.0484894 67.3846473,18.215432 67.7190181,18.4202593 C68.3674067,18.7916128 68.9788276,19.2562211 69.5906639,19.6833609 C69.8864055,19.8898535 70.812675,20.3540454 70.850058,20.7441332 L70.850058,20.7441332 Z" id="Shape"></path>
            <path d="M51.946685,4.60274327 C51.6907494,4.6028224 51.4357756,4.63413777 51.1873933,4.69599798 L51.1873933,4.73305007 L51.2426372,4.73305007 C51.3909234,5.03029943 51.650528,5.23471041 51.8357819,5.49449137 C51.9653766,5.79174073 52.1140781,6.0889901 52.2436728,6.38623946 L52.2989166,6.33045317 C52.5585213,6.1635106 52.6698398,5.86626123 52.6698398,5.4020693 C52.5772128,5.29049671 52.5585213,5.16060623 52.4663097,5.03029943 C52.3362997,4.84420634 52.1140781,4.75136796 51.946685,4.60274327 L51.946685,4.60274327 Z" id="Path"></path>
            <path d="M32.1727018,34.6203497 L39.1222148,34.6203497 C39.9375811,34.6203497 40.7342559,34.4529908 41.3643683,34.1553251 C42.4019562,33.6732316 42.9211655,33.0225302 42.9211655,32.1682506 L42.9211655,30.3851707 C42.9211655,29.6982499 42.3280208,29.029647 41.1982213,28.6020908 C40.5863851,28.3606277 39.8449541,28.2490551 39.1222148,28.2490551 L36.1942896,28.2490551 C35.2119455,28.2490551 34.7488108,27.9513895 34.6374923,27.3019371 C34.6188008,27.2278329 34.6188008,27.1533124 34.6188008,27.0792082 L34.6188008,25.9830491 C34.6188008,25.908945 34.6188008,25.8531587 34.6374923,25.7790545 C34.7488108,25.2773941 35.0080001,25.1287694 35.8607495,25.0546653 C35.9346849,25.0546653 36.0273118,25.0359311 36.1016626,25.0359311 L43.0142078,25.0359311 L43.0142078,23.4202101 L36.2129811,23.4202101 C35.230637,23.4202101 34.7301193,23.4943143 34.2669845,23.6242047 C32.8215058,24.0883967 32.1913934,24.794468 32.1913934,26.0392517 L32.1913934,27.4509781 C32.1913934,28.5471371 33.4329267,29.475521 35.4902417,29.6982499 C35.7311548,29.6982499 35.9533764,29.7169841 36.1942896,29.7169841 L38.6964631,29.7169841 C38.7890901,29.7169841 38.8813016,29.7169841 38.955237,29.7357183 C39.734051,29.8098225 40.0488996,29.9397129 40.2898127,30.2178118 C40.4194073,30.3664365 40.4754819,30.4967433 40.4754819,30.6641022 L40.4754819,32.0758285 C40.4754819,32.2431874 40.3641635,32.4663326 40.1232503,32.651593 C39.9188895,32.8376861 39.5666579,32.9492587 39.1035232,32.9858945 C39.0108963,32.9858945 38.9373762,33.0046287 38.8439186,33.0046287 L32.1727018,33.0046287 L32.1727018,34.6203497 Z M58.0068962,31.7960644 C58.0068962,33.467988 59.2301534,34.3963718 61.732327,34.5824649 C61.9545486,34.6011991 62.1954617,34.6199333 62.4176833,34.6199333 L68.7188076,34.6199333 L68.7188076,33.0033797 L62.3803002,33.0033797 C60.9530976,33.0033797 60.4160275,32.6503441 60.4160275,31.7960644 L60.4160275,23.4193774 L58.0064809,23.4193774 L58.0064809,31.7960644 L58.0068962,31.7960644 Z M44.4596866,31.8889028 L44.4596866,26.1312575 C44.4596866,24.6637449 45.478583,23.7724131 47.5172065,23.4934816 C47.7215672,23.4560132 47.9624804,23.4560132 48.1660104,23.4560132 L52.761636,23.4560132 C52.9838576,23.4560132 53.1882184,23.4560132 53.4291315,23.4934816 C55.4490634,23.7724131 56.4866513,24.6637449 56.4866513,26.1312575 L56.4866513,31.8889028 C56.4866513,33.0783165 56.0422082,33.709451 55.0411726,34.118273 L57.4320277,36.2731227 L54.6154209,36.2731227 L52.6877006,34.5454128 L50.7412887,34.6569854 L48.1655951,34.6569854 C47.7211519,34.6569854 47.2576018,34.6016155 46.7383925,34.4529908 C45.2011175,34.0437525 44.4596866,33.2265249 44.4596866,31.8889028 L44.4596866,31.8889028 Z M47.0727633,31.7411107 C47.0727633,31.8339491 47.0914548,31.907637 47.1101463,32.001308 C47.2584325,32.6694946 47.8881296,33.0412644 48.8330906,33.0412644 L51.0391071,33.0412644 L49.0191752,31.2207162 L51.8357819,31.2207162 L53.5961092,32.7998014 C53.9117885,32.6324425 54.1340101,32.3722452 54.2079455,32.0379438 C54.226637,31.9451054 54.226637,31.8714175 54.226637,31.7964807 L54.226637,26.2615643 C54.226637,26.2053617 54.226637,26.1316738 54.2079455,26.056737 C54.0596593,25.4256025 53.4299622,25.0729832 52.5028621,25.0729832 L48.8335059,25.0729832 C47.7585349,25.0729832 47.0731786,25.5371751 47.0731786,26.2615643 L47.0731786,31.7411107 L47.0727633,31.7411107 L47.0727633,31.7411107 Z M69.8311617,34.6203497 L70.1833933,34.6203497 L70.1833933,33.2827275 L70.6652195,33.2827275 L70.6652195,33.003796 L69.3493354,33.003796 L69.3493354,33.2827275 L69.8311617,33.2827275 L69.8311617,34.6203497 Z M72.5368653,34.6203497 L72.8517138,34.6203497 L72.8517138,33.003796 L72.3698876,33.003796 L71.9441359,34.1186893 L71.5183843,33.003796 L71.0178665,33.003796 L71.0178665,34.6203497 L71.3514066,34.6203497 L71.3514066,33.3943001 L71.8145413,34.6203497 L72.0554544,34.6203497 L72.5185891,33.3943001 L72.5372807,33.3943001 L72.5372807,34.6203497 L72.5368653,34.6203497 Z" id="Shape"></path>
            <path d="M1.46417029,19.5926041 L0.110903111,13.314148 L0.796674784,13.314148 L1.5750734,17.4377544 C1.66770034,17.8648942 1.74205112,18.2920341 1.79771036,18.7191739 L2.03862348,17.5489106 L3.02096752,13.3137317 L3.81764231,13.3137317 L4.55907322,16.49022 C4.7443271,17.2703955 4.87392175,18.0131026 4.96654869,18.7191739 C5.02220793,18.3107683 5.11483488,17.84616 5.22615336,17.344916 L6.02282814,13.314148 L6.72729135,13.314148 L5.30050413,19.5926041 L4.65170016,19.5926041 L3.55845301,14.8187127 L3.39147529,14.0755893 C3.35450759,14.3541044 3.29884835,14.5959838 3.24318911,14.8187127 L2.14952659,19.5926041 L1.46417029,19.5926041 Z M7.15387373,16.5464226 C7.15387373,15.4689977 7.39478685,14.6517701 7.85792157,14.0755893 C8.32147165,13.4998248 8.91420102,13.2213096 9.61866422,13.2213096 C10.0631074,13.2213096 10.4896898,13.3328822 10.8601976,13.5926631 C11.2307053,13.8524441 11.5272777,14.224214 11.7499147,14.7071401 C11.9538601,15.2083841 12.0651786,15.7841487 12.0651786,16.4714858 C12.0651786,17.400286 11.8612331,18.1434094 11.4346507,18.7374918 C10.971516,19.3877768 10.3600951,19.7033441 9.61866422,19.7033441 C8.85854178,19.7033441 8.24712088,19.3690426 7.78398616,18.7187576 C7.35740378,18.1067736 7.15387373,17.3823844 7.15387373,16.5464226 L7.15387373,16.5464226 Z M7.85792157,16.5464226 C7.85792157,17.3265981 8.02448392,17.9210968 8.35843936,18.3482367 C8.71067096,18.7753765 9.11814644,18.9985217 9.59997269,18.9985217 C10.1004905,18.9985217 10.5266575,18.7753765 10.8601976,18.3482367 C11.1937376,17.9210968 11.3607153,17.289546 11.3607153,16.4535842 C11.3607153,15.8965539 11.2867799,15.4319456 11.1011107,15.0052221 C10.971516,14.6709206 10.7675706,14.4107234 10.507966,14.2250466 C10.2518742,14.0309806 9.93929664,13.9265503 9.61824886,13.9277862 C9.09903953,13.9277862 8.67287252,14.1317919 8.35802399,14.5593481 C8.02448392,14.9860716 7.85792157,15.6546745 7.85792157,16.5464226 L7.85792157,16.5464226 Z M12.9170972,19.5926041 L12.9170972,13.314148 L15.1966338,13.314148 C15.6597685,13.314148 16.0120001,13.3699343 16.2346371,13.4998248 C16.4755502,13.6113973 16.6608041,13.7970741 16.7903988,14.0755893 C16.9386849,14.3541044 17.0130357,14.670088 17.0130357,15.0227074 C17.0130357,15.5060498 16.9017172,15.8774034 16.6425279,16.1746527 C16.4011994,16.4719021 16.0493832,16.6575789 15.567557,16.7504172 C15.7715024,16.8619898 15.901097,16.9735624 16.0124155,17.0847187 C16.2163609,17.3261818 16.3833386,17.586379 16.549901,17.8832121 L17.4392027,19.5921878 L16.5868687,19.5921878 L15.901097,18.2916177 C15.6232162,17.7899574 15.4379623,17.4373381 15.2896761,17.2699792 C15.1600815,17.0843024 15.0300715,16.9539956 14.9004768,16.8982093 C14.7708822,16.842423 14.6039045,16.8053709 14.3816829,16.8053709 L13.6032842,16.8053709 L13.6032842,19.5917715 L12.9170972,19.5917715 L12.9170972,19.5926041 L12.9170972,19.5926041 Z M13.6028689,16.0818143 L15.0483476,16.0818143 C15.3631962,16.0818143 15.6041093,16.0447622 15.771087,15.9702417 C15.9376494,15.8961376 16.067244,15.7658308 16.1785625,15.6172061 C16.2711894,15.4498472 16.3081571,15.2454362 16.3081571,15.0227074 C16.3081571,14.7071401 16.2155302,14.465677 16.0302763,14.2800003 C15.8450224,14.0943235 15.5854178,14.0014851 15.21491,14.0014851 L13.6024535,14.0014851 L13.6024535,16.0818143 L13.6028689,16.0818143 Z M18.0693152,19.5926041 L18.0693152,13.314148 L18.7550868,13.314148 L18.7550868,16.43485 L21.2942281,13.314148 L22.2204975,13.314148 L20.0522794,15.8590855 L22.3131245,19.5926041 L21.4051312,19.5926041 L19.5891447,16.43485 L18.7550868,17.4194365 L18.7550868,19.5926041 L18.0693152,19.5926041 L18.0693152,19.5926041 Z M22.6283884,17.5680612 L23.2771923,17.5122749 C23.31416,17.8465763 23.3885108,18.1250915 23.5181055,18.3107683 C23.6294239,18.5151792 23.8146778,18.6638039 24.0368994,18.7749602 C24.2595364,18.9048507 24.5187257,18.960637 24.7970219,18.960637 C25.2044973,18.960637 25.5010697,18.8490644 25.7237067,18.6638039 C25.9459283,18.4593929 26.0572467,18.1991957 26.0572467,17.8836284 C26.0572467,17.6979516 26.020279,17.549327 25.9459283,17.4007023 C25.8719929,17.2708118 25.7419828,17.1592392 25.5750051,17.0664008 C25.4084428,16.9735624 25.0562112,16.843672 24.5187257,16.6950473 C24.0368994,16.5464226 23.6846678,16.3977979 23.4807224,16.2491732 C23.2743847,16.1166708 23.1078438,15.9304674 22.9988961,15.7104608 C22.8875777,15.4873156 22.8319184,15.2275346 22.8319184,14.9490195 C22.8319184,14.4286249 22.9988961,14.0202193 23.3137447,13.7042357 C23.6472847,13.3699343 24.0921433,13.2213096 24.647905,13.2213096 C25.0184127,13.2213096 25.3519528,13.2954138 25.6485252,13.4440385 C25.926406,13.5926631 26.1490429,13.815392 26.3156053,14.0943235 C26.4775965,14.403447 26.560383,14.7480811 26.5565184,15.0972279 L25.9077145,15.1530141 C25.8890229,14.7446085 25.7594283,14.4473591 25.5554829,14.2429482 C25.3328459,14.0385372 25.0549651,13.9456988 24.6661811,13.9456988 C24.2765664,13.9456988 23.9804094,14.0385372 23.7947402,14.2058961 C23.5908904,14.366868 23.4743025,14.6144505 23.4798917,14.874499 C23.4798917,15.1346963 23.5542424,15.320373 23.7025286,15.4689977 C23.8503994,15.5988882 24.1843549,15.7475129 24.7031488,15.8961376 C25.2219428,16.026028 25.5741744,16.1563348 25.7781198,16.2491732 C26.0933837,16.4161158 26.3338815,16.6205268 26.4821676,16.880724 C26.6491454,17.1409213 26.7231208,17.4564886 26.7231208,17.8095242 C26.7252927,18.1548681 26.6356861,18.4945699 26.4634761,18.7936944 C26.2964984,19.0909438 26.0742768,19.3140889 25.7777044,19.4622973 C25.4998236,19.6292399 25.147592,19.7037604 24.7397012,19.7037604 C24.1095887,19.7037604 23.5907948,19.5180836 23.220287,19.1279959 C22.8497792,18.7379081 22.6466645,18.2179299 22.6283884,17.5680612 L22.6283884,17.5680612 Z M30.7454992,19.5926041 L29.3926474,13.314148 L30.0784191,13.314148 L30.8568177,17.4377544 C30.9494447,17.8648942 31.0233801,18.2920341 31.0794547,18.7191739 L31.3203678,17.5489106 L32.3022965,13.3137317 L33.0993866,13.3137317 L33.8404022,16.49022 C34.0145552,17.2256722 34.1507001,17.9696474 34.248293,18.7191739 C34.3039522,18.3107683 34.3965792,17.84616 34.4892061,17.344916 L35.3045725,13.314148 L36.0086203,13.314148 L34.5818331,19.5926041 L33.9330291,19.5926041 L32.8393666,14.8187127 L32.6728042,14.0755893 C32.6358365,14.3541044 32.5801773,14.5959838 32.5245181,14.8187127 L31.4312709,19.5926041 L30.7454992,19.5926041 Z M36.7500512,19.5926041 L36.7500512,13.314148 L37.4358229,13.314148 L37.4358229,19.5926041 L36.7500512,19.5926041 Z M39.9375811,19.5926041 L39.9375811,14.0572714 L38.2511892,14.0572714 L38.2511892,13.314148 L42.3097446,13.314148 L42.3097446,14.0572714 L40.605492,14.0572714 L40.605492,19.5926041 L39.9375811,19.5926041 Z M42.9776555,19.5926041 L42.9776555,13.314148 L43.6630118,13.314148 L43.6630118,15.8961376 L46.3313324,15.8961376 L46.3313324,13.314148 L47.0175194,13.314148 L47.0175194,19.5926041 L46.3313324,19.5926041 L46.3313324,16.639261 L43.6630118,16.639261 L43.6630118,19.5926041 L42.9776555,19.5926041 Z" id="Shape"></path>
        </g>
        <g id="firebase" transform="translate(186.000000, 64.000000)">
            <g id="Group">
                <path d="M0,27.4436731 L0.202788731,27.1553672 L9.79336799,8.68042402 L9.81361821,8.48482602 L5.5860033,0.422639425 C5.2316245,-0.252692466 4.23439682,-0.0820169737 4.11824463,0.673997878 L0,27.4436731 Z" id="Path" fill="#FFC24A" fill-rule="nonzero"></path>
                <g id="D-link" transform="translate(0.119686, 0.126162)" fill="#FFA712" fill-rule="nonzero">
                    <path d="M0,27.0975728 L0.153309427,26.7940419 L9.64244656,8.51266023 L5.42638956,0.417696183 C5.07583155,-0.250653529 4.18587272,-0.0802689609 4.07000709,0.667890939 L0,27.0975728 Z" id="D"></path>
                </g>
                <g transform="translate(0.119686, 0.126162)" fill="#000000" fill-rule="nonzero" id="D">
                    <path d="M0,27.0975728 L0.153309427,26.7940419 L9.64244656,8.51266023 L5.42638956,0.417696183 C5.07583155,-0.250653529 4.18587272,-0.0802689609 4.07000709,0.667890939 L0,27.0975728 Z"></path>
                </g>
                <path d="M12.8956631,14.5830808 L16.0435211,11.3101842 L12.8948034,5.20756564 C12.5958261,4.62988729 11.7612688,4.62823872 11.4655392,5.20756564 L9.78314736,8.46591595 L9.78314736,8.74326363 L12.8956631,14.5830808 Z" id="Path" fill-rule="nonzero"></path>
                <g id="C-link" transform="translate(9.813618, 4.896681)"></g>
                <g transform="translate(0.000000, 4.896681)" fill="#000000" fill-opacity="0.75" fill-rule="nonzero" id="Combined-Shape">
                    <path d="M11.5554234,0.393797885 C11.8429383,-0.168461493 12.5489258,-0.110470615 12.8394974,0.451982712 L12.8394974,0.451982712 L15.8997637,6.36811894 L12.8394974,9.55005318 L12.831,9.535 L12.6980324,9.90265323 L0.42582768,22.3154163 L0.0918901363,22.4531204 L0,22.5469919 L9.79203071,3.55032475 L9.867,3.695 Z"></path>
                </g>
                <path d="M13.2887274,33.7035846 L24.3953029,27.4149685 L21.2245201,7.58344608 C21.1251794,6.96300187 20.3755393,6.71765585 19.9381537,7.16257583 L0,27.4436731 L11.0428637,33.7031967 C11.7407914,34.0987076 12.5907296,34.098891 13.2888229,33.7036816" id="Path" fill-opacity="0.85" fill="#000000" fill-rule="nonzero"></path>
                <path d="M24.2958667,27.3624083 L21.1482952,7.68216633 C21.0499097,7.06637692 20.4261648,6.81162435 19.9921224,7.25315021 L0.12417586,27.4050771 L11.0457293,33.6017612 C11.7382485,33.9943148 12.5816892,33.9945088 13.2745905,33.602343 L24.2958667,27.3624083 Z" id="Path" fill-opacity="0.85" fill="#000000" fill-rule="nonzero"></path>
                <path d="M13.2887274,33.5183629 C12.5914322,33.9136319 11.7406365,33.9134379 11.0427682,33.5177811 L0.0888334998,27.3483469 L0,27.4436731 L11.0428637,33.7031967 C11.740732,34.0988536 12.590668,34.0988536 13.2888229,33.7036816 L24.3953984,27.4150655 L24.3681752,27.2451658 L13.2887274,33.5183629 Z" id="Path" fill="#ECB22F" fill-rule="nonzero"></path>
            </g>
            <path d="M32.8047447,24.5313736 L30.9145303,24.5313736 L30.9145303,9.59647458 L39.4919737,9.59647458 L39.4919737,11.4316223 L32.8047447,11.4316223 L32.8047447,16.3339502 L38.8460181,16.3339502 L38.8460181,18.1293203 L32.8047447,18.1293203 L32.8047447,24.5313736 Z M42.8149388,11.7444683 C42.5544387,12.008936 42.2399324,12.1422449 41.8703611,12.1422449 C41.514771,12.1484834 41.1726231,12.0043995 40.9257834,11.7444683 C40.6708215,11.4931299 40.5291004,11.1462634 40.5339742,10.7855041 C40.5278293,10.4244982 40.6697516,10.0771392 40.9257834,9.82653997 C41.1733512,9.56769491 41.5150139,9.42381534 41.8703611,9.42876337 C42.2259512,9.42252486 42.5680991,9.56660873 42.8149388,9.82653997 C43.0699007,10.0778784 43.2116217,10.4247448 43.2067479,10.7855041 C43.2128929,11.1465101 43.0709705,11.493869 42.8149388,11.7444683 L42.8149388,11.7444683 Z M42.8149388,24.5313736 L40.9247244,24.5313736 L40.9247244,14.3106649 L42.8149388,14.3106649 L42.8149388,24.5313736 Z M46.8950486,24.5313736 L45.0037753,24.5313736 L45.0037753,14.3106649 L46.8113921,14.3106649 L46.8113921,15.9791765 L46.8929307,15.9791765 C47.0835406,15.4233643 47.4785266,14.9643086 48.0747118,14.6030845 C48.6708971,14.2418603 49.2395498,14.0601732 49.8113794,14.0601732 C50.3832089,14.0601732 50.8459673,14.1440288 51.2303638,14.3106649 L50.5102822,16.106035 C50.2635483,15.9985278 49.9278632,15.9598252 49.5042857,15.9598252 C48.8191492,15.9598252 48.2123745,16.2339686 47.6860795,16.7833303 C47.1597845,17.3326921 46.8950486,18.0519152 46.8950486,18.9420747 L46.8950486,24.5324486 L46.8950486,24.5313736 Z M56.2010452,24.8538951 C54.6804022,24.8538951 53.444615,24.3400108 52.4926246,23.3100919 C51.5406343,22.280173 51.0630507,20.9814861 51.0630507,19.409731 C51.0630507,17.9218315 51.5247502,16.6424959 52.4396775,15.5717243 C53.3546048,14.5009526 54.5575647,13.9655668 55.9839618,13.9655668 C57.4664829,13.9655668 58.6715607,14.4600999 59.5695449,15.4470159 C60.4675291,16.4339319 60.9144033,17.7551953 60.9144033,19.4108061 L60.8932245,19.7655798 L52.9511472,19.7655798 C53.0062123,20.7944236 53.3450743,21.608253 53.9677331,22.205993 C54.5512192,22.7879395 55.3386623,23.1104987 56.1565696,23.102603 C57.5120174,23.102603 58.4301216,22.518839 58.909823,21.3502358 L60.6041328,22.0597832 C60.2864498,22.8521112 59.7336812,23.5165057 58.9807723,24.0518915 C58.2278633,24.5872773 57.3023466,24.8549702 56.2063399,24.8549702 L56.2010452,24.8538951 Z M58.9119409,18.1884493 C58.8695832,17.6046852 58.6069652,17.0488731 58.12091,16.5199377 C57.6348549,15.9910023 56.9115964,15.7276097 55.9532524,15.7276097 C55.2543496,15.7276097 54.6486339,15.9501496 54.1350462,16.3941543 C53.6214585,16.838159 53.2688303,17.436974 53.0761026,18.1895244 L58.9002925,18.1895244 L58.9119409,18.1884493 Z M67.7678865,24.8538951 C67.0001524,24.8538951 66.311839,24.687259 65.7029464,24.3529116 C65.0940538,24.0185643 64.6376491,23.6025114 64.3263197,23.1015279 L64.2553705,23.1015279 L64.2553705,24.5206229 L62.4477537,24.5206229 L62.4477537,9.59647458 L64.3379681,9.59647458 L64.3379681,14.3106649 L64.2553705,15.7297598 L64.3379681,15.7297598 C64.639767,15.2287763 65.0951128,14.8116484 65.7145948,14.4783761 C66.3340768,14.1451038 67.0128597,13.9773926 67.7795349,13.9773926 C69.0820355,13.9773926 70.2151052,14.4988025 71.1490935,15.5416223 C72.0830818,16.584442 72.568078,17.8777535 72.568078,19.4118811 C72.568078,20.9460087 72.0957891,22.250071 71.1490935,23.28214 C70.2023979,24.314209 69.0809766,24.8463696 67.7795349,24.8463696 L67.7678865,24.8538951 Z M67.4502034,23.1015279 C68.3270087,23.1015279 69.0809766,22.7639553 69.7099891,22.0909603 C70.3390016,21.4179653 70.6545668,20.5235055 70.6545668,19.4108061 C70.6545668,18.2981066 70.3390016,17.4047219 69.7099891,16.7306518 C69.0809766,16.0565817 68.3259498,15.7200842 67.4502034,15.7200842 C66.5863223,15.7029002 65.7577437,16.0677856 65.1798283,16.7199011 C64.5571694,17.3971964 64.244781,18.2841307 64.244781,19.4108061 C64.244781,20.5374814 64.5561105,21.4340914 65.1798283,22.1017111 C65.8035461,22.7693307 66.5596318,23.1036781 67.4502034,23.1036781 L67.4502034,23.1015279 Z M77.5239342,24.8538951 C76.4649905,24.8538951 75.5617116,24.5313736 74.8426889,23.9153574 C74.1236662,23.2993412 73.7625664,22.4618601 73.7625664,21.442692 C73.7625664,20.3299925 74.1861438,19.4581092 75.0364756,18.8248919 C75.8868073,18.1916745 76.9341026,17.8756034 78.1815382,17.8756034 C79.2913111,17.8756034 80.2020026,18.0841673 80.9136127,18.5012952 L80.9136127,18.2088757 C80.9136127,17.4563253 80.6594662,16.8564352 80.1532912,16.404905 C79.6471161,15.9533748 79.0233983,15.7276097 78.2831967,15.7276097 C77.7346639,15.7276097 77.2380194,15.8598435 76.7932631,16.1253863 C76.3700612,16.3636308 76.0456143,16.7487442 75.8793947,17.2101339 L74.1533166,16.4597337 C74.3862842,15.8469427 74.8448068,15.2814548 75.5299433,14.76112 C76.2150798,14.2407852 77.1183587,13.9784677 78.240839,13.9784677 C79.5285144,13.9784677 80.5969886,14.3611933 81.4462614,15.1255694 C82.2955342,15.8899456 82.7201705,16.9682427 82.7201705,18.3583107 L82.7201705,24.5324486 L80.9231432,24.5324486 L80.9231432,23.1133537 L80.8405456,23.1133537 C80.0865777,24.2808818 78.9842174,24.8657209 77.5324057,24.8657209 L77.5239342,24.8538951 Z M77.8416172,23.1015279 C78.6220587,23.1015279 79.3315509,22.8058832 79.9679761,22.2145936 C80.6044012,21.6233041 80.9231432,20.9245073 80.9231432,20.1182034 C80.3894356,19.6731236 79.5888742,19.4516588 78.5193412,19.4516588 C77.601237,19.4516588 76.9097469,19.6537723 76.4438117,20.0569243 C75.9778765,20.4600762 75.7449089,20.9331079 75.7449089,21.4760192 C75.7449089,21.9770027 75.9566976,22.3726292 76.3823929,22.6650487 C76.8080883,22.9574683 77.2930844,23.1036781 77.8416172,23.1036781 L77.8416172,23.1015279 Z M88.2192648,24.8538951 C87.0967846,24.8538951 86.168091,24.5743764 85.4342431,24.0196393 C84.7192937,23.4868273 84.161567,22.7655738 83.8214719,21.9339998 L85.5157817,21.2244524 C86.0494893,22.5145387 86.9612398,23.1434557 88.2478563,23.1434557 C88.836629,23.1434557 89.3195072,23.0112219 89.6964912,22.7456791 C90.0734751,22.4801364 90.2619671,22.1328881 90.2619671,21.7028594 C90.2619671,21.0363148 89.8034445,20.5847846 88.8853404,20.3482688 L86.8521686,19.8472853 C86.2083309,19.6806491 85.5983793,19.3635029 85.0233729,18.8979968 C84.4483666,18.4324906 84.1635107,17.8261501 84.1635107,17.0219963 C84.1635107,16.1189359 84.5574377,15.3846618 85.3452918,14.8213241 C86.1331459,14.2579864 87.0681931,13.9763175 88.1514924,13.9763175 C89.0410051,13.9763175 89.8458022,14.1913319 90.5341156,14.5912587 C91.222429,14.9911854 91.7328398,15.5889254 92.0346387,16.3543766 L90.3911582,17.0424226 C90.0205279,16.1393622 89.2538527,15.687832 88.0900737,15.687832 C87.5288336,15.687832 87.0554858,15.7953392 86.6710892,16.0426058 C86.2866927,16.2898723 86.0960828,16.5984179 86.0960828,17.0015699 C86.0960828,17.585334 86.5408392,17.9820355 87.4303518,18.1905994 L89.4232837,18.6700815 C90.3678614,18.8926214 91.0667642,19.275347 91.5199921,19.8171832 C91.97322,20.3590195 92.197716,20.9718105 92.197716,21.652331 C92.197716,22.5704424 91.8270858,23.3348185 91.0879431,23.9465345 C90.3488005,24.5582504 89.3957512,24.8646459 88.2319721,24.8646459 L88.2192648,24.8538951 Z M98.2866419,24.8538951 C96.7659989,24.8538951 95.5291527,24.3400108 94.5782213,23.3100919 C93.6272899,22.280173 93.1486474,20.9814861 93.1486474,19.409731 C93.1486474,17.9218315 93.6103468,16.6424959 94.5252741,15.5717243 C95.4402014,14.5009526 96.6431614,13.9655668 98.0695585,13.9655668 C99.5520795,13.9655668 100.757157,14.4600999 101.655142,15.4470159 C102.553126,16.4339319 103,17.7551953 103,19.4108061 L103,19.7655798 L95.0579228,19.7655798 C95.11087,20.7944236 95.4518498,21.608253 96.0745087,22.205993 C96.6577346,22.7876748 97.4447447,23.1102126 98.2622862,23.102603 C99.617734,23.102603 100.535838,22.518839 101.01554,21.3502358 L102.709849,22.0597832 C102.392166,22.8521112 101.839398,23.5165057 101.086489,24.0518915 C100.33358,24.5872773 99.4080632,24.8549702 98.3120566,24.8549702 L98.2866419,24.8538951 Z M100.997538,18.1884493 C100.95518,17.6046852 100.692562,17.0488731 100.206507,16.5199377 C99.7204516,15.9910023 98.9971931,15.7276097 98.0388491,15.7276097 C97.3725545,15.715704 96.725284,15.9533726 96.2206429,16.3952293 C95.7070552,16.8403091 95.354427,17.4380491 95.1616993,18.1905994 L100.985889,18.1905994 L100.997538,18.1884493 Z" id="Shape" fill-opacity="0.85" fill="#000000" fill-rule="nonzero"></path>
        </g>
        <g id="maria" transform="translate(5.000000, 133.000000)">
            <g id="Group" transform="translate(43.852177, 12.942682)" fill="#000000" fill-opacity="0.85" fill-rule="nonzero">
                <g transform="translate(32.424790, 2.996748)" id="Shape">
                    <path d="M8.42701633,0.207584924 L8.42701633,8.30339695 L7.40351311,8.30339695 L7.40351311,6.91517277 C6.47612568,8.0231573 5.41885205,8.57844697 4.23428996,8.57844697 C3.04193469,8.57844697 2.03401781,8.15549269 1.22093023,7.31217894 C0.405244928,6.45848594 0,5.44650944 0,4.27624943 C0,3.09561017 0.4130381,2.08882329 1.23651658,1.26626803 C2.05999505,0.422954282 3.04972786,0 4.19792182,0 C5.52276101,0 6.59562098,0.565668917 7.41909946,1.69441194 L7.41909946,0.215369358 L8.44260267,0.215369358 M7.48144483,4.3151716 C7.48144483,3.38882388 7.16971796,2.61038042 6.54886195,1.97984121 C5.92800594,1.33892276 5.16427511,1.01976094 4.25766947,1.01976094 C3.36145473,1.01976094 2.60291935,1.349302 1.98206333,2.01097895 C1.36120732,2.66227665 1.04948046,3.43553049 1.04948046,4.33074047 C1.04948046,5.22595045 1.36640277,6.00439392 1.99764968,6.66607086 C2.62889659,7.31736856 3.38223652,7.64172 4.25766947,7.64172 C5.14349332,7.64172 5.9020287,7.325153 6.53327561,6.69461379 C7.16452251,6.06407458 7.48144483,5.27006225 7.48144483,4.3151716"></path>
                </g>
                <g transform="translate(28.965920, 0.000000)" id="Shape">
                    <path d="M14.2874814,11.2482486 L14.2874814,0.298143847 L16.5630876,0.298143847 C18.1217219,0.298143847 19.2647204,0.415169847 19.9920831,0.648443405 C20.7246413,0.872116161 21.3558882,1.232276 21.8858238,1.73047982 C22.4157595,2.21830439 22.8236022,2.81770586 23.1067541,3.53127903 C23.3925037,4.2422574 23.5353785,5.07778671 23.5353785,6.03267736 C23.5353785,6.97978358 23.3114547,7.87239875 22.862568,8.70533326 C22.4235527,9.53826776 21.8234785,10.168807 21.0597476,10.5969509 C20.3064077,11.0250948 19.2179614,11.2378693 17.7866155,11.2378693 L14.2796883,11.2378693 M15.3343642,10.1999447 L16.6020534,10.1999447 C17.9268926,10.1999447 18.882855,10.133777 19.485527,10.0017011 C20.0856012,9.86936572 20.6103414,9.60988456 21.0597476,9.22325764 C21.5065562,8.82625147 21.8494557,8.34880615 22.0832509,7.78832686 C22.3173058,7.22784756 22.4339436,6.58952392 22.4339436,5.8655715 C22.4339436,5.14421389 22.296524,4.47734732 22.0209055,3.86756661 C21.7559377,3.2577859 21.3740722,2.75439246 20.8753093,2.35738629 C20.3765463,1.96038012 19.7868629,1.69570935 19.1036616,1.56337396 C18.4308511,1.4209188 17.4385205,1.34982097 16.1162791,1.34982097 L15.3369619,1.34982097 L15.3369619,10.1981283"></path>
                    <path d="M0,0.869002387 C0,0.635209867 0.0815685304,0.430479236 0.244445819,0.259221673 C0.417454231,0.0864072245 0.621115784,0 0.854910935,0 C1.09935675,0 1.30171945,0.0864072245 1.46537605,0.259221673 C1.63838446,0.421916357 1.72514844,0.625090101 1.72514844,0.869002387 C1.72514844,1.10305439 1.63864424,1.30752554 1.46537605,1.4787831 C1.30249876,1.64147778 1.09909698,1.72295487 0.854910935,1.72295487 C0.620856012,1.72295487 0.415895596,1.63654764 0.244445819,1.46373319 C0.0815685304,1.29091874 0,1.09267514 0,0.869521349 M0.335106383,3.12700739 L1.38978229,3.12700739 L1.38978229,11.2228194 L0.335106383,11.2228194 L0.335106383,3.12700739"></path>
                </g>
                <g transform="translate(0.000000, 0.298144)" id="Path">
                    <polyline points="0 10.9501047 1.55863434 0 1.72670708 0 6.19479218 8.97804795 10.6109228 0 10.7789955 0 12.3532162 10.9501047 11.2699654 10.9501047 10.1997031 3.11377386 6.32909451 10.9501047 6.05373577 10.9501047 2.13117269 3.03592951 1.06091044 10.9501047 0.00623453736 10.9501047"></polyline>
                </g>
                <g transform="translate(13.847687, 2.996748)" id="Shape">
                    <path d="M8.42701633,0.207584924 L8.42701633,8.30339695 L7.40351311,8.30339695 L7.40351311,6.91517277 C6.47612568,8.0231573 5.41885205,8.57844697 4.23428996,8.57844697 C3.04193469,8.57844697 2.03401781,8.15549269 1.22093023,7.31217894 C0.405244928,6.45848594 0,5.44650944 0,4.27624943 C0,3.09561017 0.4130381,2.08882329 1.23651658,1.26626803 C2.05999505,0.422954282 3.04972786,0 4.19792182,0 C5.52276101,0 6.59562098,0.565668917 7.41909946,1.69441194 L7.41909946,0.215369358 L8.44260267,0.215369358 M7.48144483,4.3151716 C7.48144483,3.38882388 7.16971796,2.61038042 6.54886195,1.97984121 C5.92800594,1.33892276 5.16427511,1.01976094 4.25766947,1.01976094 C3.36145473,1.01976094 2.60291935,1.349302 1.98206333,2.01097895 C1.36120732,2.66227665 1.04948046,3.43553049 1.04948046,4.33074047 C1.04948046,5.22595045 1.36640277,6.00439392 1.99764968,6.66607086 C2.62889659,7.31736856 3.38223652,7.64172 4.25766947,7.64172 C5.14349332,7.64172 5.9020287,7.325153 6.53327561,6.69461379 C7.16452251,6.06407458 7.47884711,5.27006225 7.48144483,4.3151716"></path>
                </g>
                <g transform="translate(24.155195, 2.991558)" id="Path">
                    <path d="M0.00103908956,0.212774547 L1.07130134,0.212774547 L1.07130134,1.38822418 C1.35705096,0.910778853 1.6324097,0.560479294 1.89477981,0.334730689 C2.17013855,0.111057934 2.46887679,0 2.79619,0 C3.13129639,0 3.46900049,0.0915968476 3.80410688,0.275050024 L3.25338941,1.15988076 C3.10064325,1.06828391 2.94166254,1.02261523 2.78060366,1.02261523 C2.46368135,1.02262301 2.1649431,1.18530991 1.87919347,1.5104398 C1.60383474,1.83479124 1.40121227,2.25774553 1.26872835,2.77670784 C1.13624443,3.2852909 1.07026225,4.21682824 1.07026225,5.57910431 L1.07026225,8.32960454 L0,8.32960454 L0,0.23379252"></path>
                </g>
                <g transform="translate(54.554800, 0.347445)" id="Shape">
                    <path d="M0,0.00259481155 L2.16909946,0.00259481155 C3.31989114,0.00260519079 4.19012865,0.236646813 4.79280059,0.703193929 C5.39287481,1.15988076 5.69421079,1.82155771 5.69421079,2.68562995 C5.69421079,3.16307527 5.57211776,3.60678805 5.32793172,4.01157865 C5.09361702,4.40858482 4.74863929,4.72774664 4.28884216,4.97165892 C5.04218209,5.21583069 5.61368135,5.58143964 5.99814448,6.06926421 C6.39559624,6.55708878 6.59302326,7.13832656 6.59302326,7.80778794 C6.59302326,8.71337717 6.26311232,9.46587252 5.60069273,10.065274 C4.93827313,10.6542962 4.08362197,10.9501047 3.03414151,10.9501047 L0.0207817912,10.9501047 L0.0207817912,0 M1.10403266,1.06906236 L1.10403266,4.57205794 L1.73008412,4.57205794 C2.68604651,4.57205794 3.40042058,4.41948303 3.86801089,4.11537111 C4.33560119,3.80918335 4.56939634,3.33173803 4.56939634,2.68044033 C4.56939634,1.60359354 3.8368382,1.06387273 2.3691242,1.06387273 L1.10143493,1.06387273 M1.10143493,5.68263729 L1.10143493,9.88623199 L2.46004453,9.88623199 C3.24455715,9.88623199 3.81865413,9.80994453 4.1849332,9.65736961 C4.56160317,9.49467493 4.86813459,9.2499842 5.10192974,8.92563276 C5.33598466,8.59090207 5.45262246,8.24838694 5.45262246,7.90327701 C5.45262246,7.55816707 5.3863805,7.25197931 5.25415636,6.98730853 C5.12167244,6.72263775 4.92424542,6.48910471 4.65927759,6.28670941 C4.40470064,6.08327619 4.09297378,5.93122023 3.72669471,5.83002258 C3.37080653,5.72830597 2.69799604,5.67744766 1.71086096,5.67744766 L1.10039584,5.67744766"></path>
                </g>
            </g>
            <g id="Path">
                <path d="M45.6705839,0.0591833334 C44.9484166,0.08222526 45.1770163,0.290121561 43.6157843,0.67415367 C42.0415636,1.06078059 40.108857,0.941419259 38.4203365,1.65239762 C33.3547749,3.77495347 32.3416625,11.0196673 27.7436912,13.6144789 C24.3146957,15.5553979 20.8337457,15.7110866 17.716477,16.6763565 C15.6642751,17.3198697 13.4302326,18.6354392 11.5598714,20.2312483 C10.1181346,21.474163 10.0791687,22.5665787 8.57248887,24.1234656 C6.95930233,25.7893346 2.15611084,24.1517491 0,26.7027083 C0.701385453,27.408497 1.00791687,27.6082975 2.38730826,27.4240659 C2.10155863,27.9637867 0.418233548,28.4204735 0.748144483,29.2170807 C1.09623949,30.0552048 5.16427511,30.6208737 8.85304305,28.3893358 C10.575334,27.3488164 11.9443345,25.8516101 14.6199901,25.4831469 C18.1009401,25.0212704 22.1014349,25.7789554 26.1019297,26.3601932 C25.5044532,28.1350443 24.3095002,29.3182783 23.3483424,30.7194766 C23.0522019,31.0386384 23.9458189,31.0749657 24.9641267,30.8816523 C26.7981197,30.4301551 28.1073726,30.0642866 29.5101435,29.2598951 C31.2090549,28.2712719 31.4662296,25.7309514 33.5625928,25.1860409 C34.7237754,26.9712713 37.8748144,27.3916308 39.8490846,25.9644844 C38.1293914,25.4766598 37.6540079,21.8127859 38.2333003,20.2040028 C38.7840178,18.6782536 39.3269421,16.2339411 39.8802573,14.2099881 C40.4751361,12.0433205 40.6933449,9.30579428 41.4155121,8.21597343 C42.498763,6.55529404 43.6963137,5.9844355 44.7405987,5.05030334 C45.7796883,4.11357637 46.7304552,3.20279752 46.6992825,1.05429356 C46.6892293,0.36407369 46.3330035,-0.0199584187 45.6757793,0.000800073635 L45.6705839,0.0591833334 Z" fill-opacity="0.85" fill="#000000"></path>
                <path d="M1.50927759,29.1210727 C4.13297872,29.4973203 5.74356754,29.1210727 7.87370114,28.2051042 C9.6739238,27.4240659 11.4066056,25.8178776 13.5367392,25.1432266 C16.6540079,24.1416293 20.0830035,25.144524 23.4340673,25.3443244 C24.2471549,25.3931069 25.055047,25.3936259 25.8525482,25.3069592 C27.096858,24.5440846 27.0708808,21.7001711 28.2814201,21.4147418 C28.2458313,25.4107516 26.6006927,27.8239264 24.8784018,30.1333086 C28.5152152,29.494985 30.6713261,27.4087565 32.1260515,24.60636 C32.5702622,23.7578567 32.9495299,22.8470778 33.2846363,21.8818079 C33.8041811,22.2788141 33.5093394,23.4905911 33.7704107,24.1444836 C36.2668234,22.7562594 37.6929738,19.5776153 38.6541316,16.3859971 C39.7503711,12.6754166 40.1971796,8.91293981 40.9037605,7.82311896 C41.5921573,6.75146179 42.6650173,6.08978485 43.6573478,5.4047546 C44.7691737,4.62371632 45.7615042,3.81154031 45.932954,2.31692886 C44.7587828,2.20846574 44.4886195,1.93808637 44.314572,1.34646934 C43.7274864,1.67860522 43.1871598,1.74866513 42.5766947,1.76682881 C42.046759,1.78291664 41.4648689,1.75930386 40.7530925,1.83221806 C34.8822365,2.43421434 34.1288966,8.91605358 30.3621969,12.5747379 C30.0868382,12.8420035 29.7906977,13.0911054 29.4789708,13.3246384 C28.1593271,14.3054772 26.5435428,15.0086711 25.0628402,15.5769348 C22.6521524,16.4954981 20.3609599,16.5629632 18.1009401,17.3569755 C16.4409946,17.9382133 14.7498763,18.7841219 13.3990599,19.7156592 C13.058758,19.9484138 12.7366403,20.1879149 12.4430975,20.4292324 C11.6429985,21.0831249 11.1182583,21.8070773 10.6091044,22.5543831 C10.0843642,23.3224473 9.58040574,24.1138648 8.80888174,24.868955 C7.55937655,26.093706 2.88607125,25.227039 1.2495052,26.3635664 C1.06636566,26.4899337 0.922191984,26.6412113 0.820880752,26.8228481 C1.7170955,27.2302335 2.31716972,26.9800936 3.34846611,27.0927085 C3.48380752,28.0709524 1.22093023,28.6521902 1.55603662,29.1010926 L1.50927759,29.1210727 Z" fill-opacity="0.85" fill="#000000" fill-rule="nonzero"></path>
                <path d="M37.098095,21.8556003 C37.1682335,22.9765589 37.8202622,25.2029072 38.3943592,25.7478176 C37.2669471,26.0228677 35.329045,25.5692946 34.8354775,24.7747633 C35.0913533,23.6278566 36.4226868,22.5795527 37.1032905,21.8685744 L37.098095,21.8556003 Z" fill-opacity="0.85" fill="#000000"></path>
                <path d="M38.6567293,4.21088181 C39.488001,4.93223942 41.2336714,4.35333696 40.9219446,2.91866566 C39.6282781,2.81175942 38.8801336,3.25080154 38.6567293,4.21088181 Z" fill="#FFFFFF"></path>
                <path d="M44.3717219,2.39451373 C44.1503958,2.85898499 43.7274864,3.45579165 43.7274864,4.6364309 C43.725668,4.83908568 43.5734414,4.97894603 43.5708436,4.66549279 C43.5822736,3.51080165 43.887766,3.01259784 44.2124814,2.35870533 C44.3634092,2.08884492 44.4543295,2.20094078 44.3722415,2.39555165 L44.3717219,2.39451373 Z" fill="#FFFFFF" fill-rule="nonzero"></path>
                <path d="M44.3717219,2.39451373 C44.1119495,2.83563169 43.4833003,3.64521289 43.3793914,4.82066252 C43.3601682,5.02227938 43.1959921,5.14760878 43.2209302,4.83545295 C43.334191,3.68854624 43.8365908,2.96978344 44.2184562,2.34443386 C44.3914646,2.09040181 44.4727734,2.20872522 44.3735403,2.39529217 L44.3717219,2.39451373 Z" fill="#FFFFFF" fill-rule="nonzero"></path>
                <path d="M44.1119495,2.13503257 C43.815809,2.55279723 42.846858,3.52325675 42.6442355,4.68573232 C42.6078674,4.88475437 42.4338199,4.99710971 42.4849951,4.68728921 C42.6943716,3.55335656 43.5292801,2.66074139 43.9605022,2.06652955 C44.1542924,1.8275474 44.2254701,1.95235784 44.1111702,2.13010243 L44.1119495,2.13503257 Z" fill="#FFFFFF" fill-rule="nonzero"></path>
                <path d="M43.8521771,1.87555142 C43.4988867,2.24920428 42.3454973,3.48433457 41.9818159,4.60010354 C41.9173924,4.79211959 41.7295769,4.87774837 41.8238743,4.57934505 C42.1901534,3.48433457 43.200668,2.30629013 43.7124196,1.77694858 C43.9381618,1.56754729 43.9903761,1.70118008 43.8526967,1.86127995 L43.8521771,1.87555142 Z" fill="#FFFFFF" fill-rule="nonzero"></path>
            </g>
        </g>
        <g id="sql" transform="translate(186.000000, 135.000000)">
            <path d="M41.5219919,9.72270116 L36.8392645,9.72270116 L36.8392645,4.92319104 L41.7767609,4.92319104 C43.5834684,4.92319104 44.4877192,5.7459642 44.4877192,7.36042799 C44.4877192,8.9355815 43.4991434,9.72361536 41.5228889,9.72361536 M44.8887114,4.8674253 C44.2473033,4.28234216 43.349332,3.98980059 42.1947975,3.98980059 L35.4882707,4.02636829 L35.4882707,15.5086249 L36.8392645,15.5086249 L36.8267054,10.6204381 L41.8171293,10.6204381 C43.0685478,10.6204381 44.0535353,10.3278965 44.7720917,9.7428134 C45.4906482,9.15773026 45.8503749,8.34409902 45.8503749,7.30557644 C45.8503749,6.26705387 45.5292224,5.45342263 44.8878143,4.86833949 L44.8887114,4.8674253 Z M53.6324937,13.0988137 C53.5036406,13.4745547 53.2828807,13.8105974 52.9910857,14.0751712 C52.3855606,14.6785382 51.4624712,14.9774791 50.2101556,14.9774791 C49.0888128,14.9774791 48.2365923,14.6849375 47.6265819,14.0998544 C47.0165714,13.5147713 46.7250223,12.7313084 46.7250223,11.7503799 C46.7250223,11.2384322 46.8039648,10.7859069 46.9609528,10.3900616 C47.109838,10.0067692 47.3438078,9.66382399 47.6445234,9.38810674 C48.2652987,8.81216553 49.1211075,8.52236654 50.2101556,8.52236654 C52.632256,8.52236654 53.8280559,9.598371 53.8280559,11.7494657 C53.8280559,12.2614135 53.7589812,12.7093678 53.6217289,13.0969853 M53.8666301,8.86153192 C53.043116,8.09635288 51.8239921,7.71330626 50.2092585,7.71330626 C48.6842324,7.71330626 47.5045798,8.10458061 46.672992,8.88621511 C45.9221409,9.59380004 45.5471639,10.5482169 45.5471639,11.7494657 C45.5471639,12.9424868 45.9346999,13.9051314 46.709772,14.6383137 C47.1376764,15.0332448 47.6364497,15.3193871 48.2051947,15.4958262 C48.7739398,15.6722653 49.4431572,15.7700839 50.2092585,15.7700839 C51.8239921,15.7700839 53.0386306,15.3916083 53.8872628,14.634657 C54.6381139,13.9435275 55.013091,12.9854539 55.013091,11.7595218 C55.013091,10.5253621 54.6336286,9.56271749 53.8738067,8.87067384 L53.8666301,8.86153192 Z M64.0932762,13.4297514 C64.0932762,14.9838785 62.7342087,15.7481433 60.0169709,15.7481433 C59.1862802,15.7481433 58.4865623,15.6932918 57.9178173,15.5872454 C57.3490722,15.4811991 56.8879761,15.3011032 56.5327347,15.0533571 C56.2613158,14.8656792 56.0374902,14.6150235 55.8796646,14.3220032 C55.7181913,14.026719 55.6132336,13.6363589 55.5656887,13.1746917 L56.8215926,13.1628072 C56.8215926,13.7707451 57.0431699,14.2186994 57.4854275,14.50667 C57.9608768,14.8522348 58.8014354,15.0250171 60.0088973,15.0250171 C61.9080034,15.0250171 62.858005,14.5404951 62.858005,13.5696228 C62.858005,13.0028235 62.5395436,12.6124634 61.9026209,12.3994565 C61.7734422,12.3583179 61.0055467,12.249529 59.5971402,12.0730898 C58.1887337,11.8966507 57.3131892,11.7375812 56.9660215,11.5977098 C56.2160675,11.2932837 55.8410905,10.7475109 55.8410905,9.95764861 C55.8128857,9.23055981 56.206293,8.55437474 56.8458136,8.23073916 C57.177731,8.07532645 57.5903852,7.95373886 58.0873643,7.86689058 C58.5843434,7.7800423 59.159368,7.73707526 59.8133351,7.73707526 C62.4292035,7.73707526 63.7371377,8.57356131 63.7371377,10.2465334 L62.5350582,10.2465334 C62.5350582,9.07088198 61.6155572,8.48214207 59.776555,8.48214207 C58.8409066,8.48214207 58.14388,8.60098708 57.6836809,8.84781903 C57.2234818,9.09465098 56.9929337,9.45118602 56.9929337,9.94484992 C56.9929337,10.4056029 57.3033214,10.7383689 57.9240968,10.9440622 C58.2874118,11.0510227 59.1216909,11.1744387 60.428728,11.3143101 C61.5985128,11.4212707 62.4004971,11.5730266 62.8364752,11.7714063 C63.6671659,12.1005156 64.0923791,12.658173 64.0923791,13.4480352 L64.0932762,13.4297514 Z M69.059479,15.5323939 L68.5454555,15.6055293 L68.2243029,15.6302125 C67.4007888,15.6302125 66.8069256,15.5086249 66.4436106,15.2645355 C66.0802955,15.0204462 65.9053661,14.5953467 65.9053661,13.9846662 L65.9053661,8.74634368 L64.4072521,8.74634368 L64.4072521,7.97567948 L65.8963953,7.97567948 L65.9080573,5.50004644 L67.0607977,5.50004644 L67.0607977,7.97567948 L69.0684497,7.97567948 L69.0684497,8.75914237 L67.0607977,8.74634368 L67.0607977,13.8447947 C67.0607977,14.2241846 67.1505051,14.4865578 67.3568321,14.6310002 C67.5631592,14.7754426 67.9076357,14.8476638 68.4153797,14.8476638 C68.4871457,14.8568057 68.5678823,14.8531489 68.6575898,14.8385219 C68.7472972,14.8238948 68.8791671,14.7928122 69.0567878,14.7452742 L69.0693468,15.5314797 L69.059479,15.5323939 Z M77.0317775,13.784458 C76.711724,14.050516 76.3469991,14.2552523 75.9552885,14.3887392 C75.5516051,14.5286106 75.0887148,14.5990035 74.5648235,14.5990035 C72.153488,14.5990035 70.9496144,13.5933918 70.9496144,11.5547427 C70.9496144,10.610382 71.2582079,9.87080033 71.8736008,9.33691197 C72.4889937,8.8030236 73.3591557,8.53607942 74.4796014,8.53607942 C75.6081208,8.53607942 76.4648266,8.80485199 77.049719,9.34331132 C77.6346114,9.88177064 77.9270576,10.6021543 77.9270576,11.5062905 C77.9270576,12.49179 77.6283319,13.2432561 77.0317775,13.7862864 M79.079798,7.97202271 L77.9270576,7.97202271 L77.9144986,9.26743335 C77.4067546,8.74177271 77.0443366,8.40809249 76.8254505,8.26913524 C76.179557,7.90802924 75.345278,7.72701914 74.3208193,7.72701914 C72.8200141,7.72701914 71.6744503,8.07624064 70.885025,8.77468364 C70.135071,9.41461832 69.760094,10.344352 69.760094,11.5602279 C69.760094,12.1599381 69.8551838,12.6965691 70.0444665,13.1692065 C70.2337491,13.641844 70.5109451,14.0422603 70.8742601,14.3704554 C71.6663767,15.0442152 72.7850282,15.3815522 74.2311118,15.3815522 C75.9678475,15.3815522 77.1914567,14.8970302 77.9270576,13.9188443 L77.9270576,15.2599646 C77.9270576,16.1147345 77.6624207,16.777524 77.134044,17.2455905 C76.6056673,17.713657 75.7364024,17.9495186 74.5262493,17.9495186 C73.3887592,17.9495186 72.5778041,17.7895349 72.1041489,17.4704818 C71.7408338,17.2254782 71.4905501,16.7994646 71.3541948,16.193355 L70.1745422,16.193355 C70.3037209,17.038983 70.654477,17.6514919 71.2277074,18.0290534 C71.8897481,18.4642089 73.0075026,18.6817867 74.5809708,18.6817867 C77.5915518,18.6817867 79.0968424,17.5417888 79.0968424,15.2608788 L79.0968424,7.96288078 L79.079798,7.97202271 Z M85.3144638,8.73537337 C84.9949059,8.68028384 84.6715091,8.651546 84.3474178,8.64943928 C82.452797,8.64943928 81.5054866,9.70807409 81.5054866,11.8262579 L81.5054866,15.5086249 L80.3662024,15.5086249 L80.3536434,7.9729369 L81.5063837,7.9848214 L81.5063837,9.32868424 L81.5664877,9.32868424 C81.7602557,8.79845264 82.066158,8.39620798 82.4859888,8.12377865 C82.9452908,7.84952093 83.6306555,7.72610495 84.5420829,7.72610495 L85.3162579,7.72610495 L85.3162579,8.73445917 L85.3144638,8.73537337 Z M86.3873645,11.2640296 C86.5326905,10.4074313 86.8592256,9.74464178 87.3669696,9.27474689 C87.698887,9.00323174 88.072967,8.79936684 88.4919006,8.66223797 C88.9108343,8.52510911 89.3835924,8.45837307 89.9074837,8.45837307 C90.9319425,8.45837307 91.7680157,8.74451529 92.4174974,9.31771393 C93.0669791,9.89091257 93.3997936,10.539075 93.3997936,11.2649438 L86.3963353,11.2649438 M93.512825,8.94015247 C93.0913458,8.51702507 92.5763479,8.2031959 92.0111228,8.02504587 C91.4136713,7.82666612 90.7157476,7.72793334 89.9164545,7.72793334 C88.4228259,7.72793334 87.2647031,8.0817258 86.441189,8.78839653 C85.6176748,9.49506726 85.2059178,10.4586261 85.2059178,11.6772445 C85.2059178,12.895863 85.6006304,13.8713063 86.3918499,14.5770628 C87.2467616,15.3669251 88.4533264,15.7618562 90.0115443,15.7618562 C90.6323197,15.7618562 91.2073443,15.6887208 91.735721,15.547021 C92.2640977,15.4053212 92.7260909,15.1996279 93.1217006,14.939083 C93.8160361,14.4307921 94.2547054,13.8054844 94.4403997,13.0595034 L93.1844958,13.0595034 C92.7565914,14.3393728 91.6926614,14.9921062 89.9909116,14.9921062 C88.7888322,14.9921062 87.8648457,14.677624 87.2099816,14.0468312 C86.6537956,13.4983158 86.3757026,12.8071863 86.3757026,11.9478455 L94.5929024,11.9478455 C94.5929024,10.6698045 94.2340727,9.66693543 93.4912952,8.93101054 L93.512825,8.94015247 Z" id="Shape" fill-opacity="0.85" fill="#000000" fill-rule="nonzero"></path>
            <path d="M106.793112,12.4296249 C106.793112,14.6666537 105.022287,15.784711 101.482432,15.784711 C99.3608518,15.784711 97.8116046,15.4007502 96.8355879,14.6282576 C96.0282211,13.9947223 95.6379938,13.0284209 95.6379938,11.7302677 L97.0733126,11.7302677 C97.0733126,13.8191973 98.5445143,14.8632051 101.491403,14.8632051 C102.903398,14.8632051 103.925165,14.649284 104.554014,14.2232704 C105.086877,13.8457089 105.361381,13.2542264 105.361381,12.4497371 C105.361381,11.6525613 104.998066,11.0939898 104.271436,10.7731082 C103.858782,10.5902698 102.854059,10.3827481 101.257267,10.1194607 C99.2478204,9.80680687 97.9443716,9.49506726 97.3478173,9.18332765 C96.4848319,8.72348887 96.0524421,7.94276855 96.0524421,6.8411667 C96.0524421,5.81452863 96.4112718,5.04934959 97.1540492,4.54837215 C97.9434745,3.99802832 99.3007478,3.72285641 101.221384,3.72285641 C104.693061,3.72285641 106.427105,4.89759365 106.427105,7.24706813 L104.981022,7.24706813 C104.981022,5.48724775 103.691926,4.60779466 101.123603,4.60779466 C99.8318158,4.60779466 98.8862995,4.78514798 98.2888481,5.13802625 C97.7236914,5.51650191 97.441113,6.07050251 97.441113,6.80368481 C97.441113,7.56886386 97.804428,8.10732318 98.5310582,8.41997699 C98.9168001,8.60098708 100.056084,8.8514758 101.945323,9.17327153 C103.72153,9.44478667 104.919124,9.76109725 105.533619,10.1240316 C106.381355,10.5683291 106.804774,11.337165 106.804774,12.4314533 L106.793112,12.4296249 Z M118.372546,13.5723654 C117.835451,14.0095959 117.223474,14.3415713 116.567632,14.5514654 C115.896621,14.7690432 115.14577,14.8778321 114.314182,14.8778321 C112.609741,14.8778321 111.246188,14.4207359 110.2002,13.4791178 C109.154211,12.5374996 108.63032,11.3060824 108.63032,9.7546979 C108.63032,8.13657734 109.148829,6.8777344 110.186743,5.9745123 C111.224658,5.07129021 112.608844,4.61967916 114.313285,4.61967916 C116.05002,4.61967916 117.415367,5.09140244 118.408429,6.03667739 C118.933217,6.49651617 119.320753,7.04228903 119.571934,7.65022698 C119.823115,8.25816493 119.948705,8.96666405 119.948705,9.75561209 C119.948705,11.3645907 119.42302,12.6371466 118.373443,13.5732796 M119.13147,14.3348018 C119.874248,13.8009135 120.423257,13.1463517 120.779396,12.3939714 C121.135534,11.641591 121.313155,10.748425 121.313155,9.76292563 C121.313155,7.98025044 120.731851,6.55045352 119.569243,5.46622133 C118.94757,4.87473884 118.196719,4.43501229 117.326557,4.14795588 C116.456395,3.86089946 115.442701,3.71645706 114.312388,3.71645706 C112.117247,3.71645706 110.393968,4.25857316 109.142549,5.34371954 C107.89113,6.42886593 107.26587,7.89888732 107.26587,9.75561209 C107.26587,11.5629705 107.896513,13.0211074 109.149726,14.1300228 C110.402938,15.2389381 112.136983,15.7938529 114.32405,15.7938529 C115.178961,15.7938529 115.925327,15.7344304 116.563147,15.6174138 C117.200967,15.5003972 117.741005,15.3184729 118.185057,15.0743835 L120.291387,16.5617745 L121.17052,15.7390014 L119.13147,14.3293167 L119.13147,14.3348018 Z M131.986544,15.5077107 L122.246112,15.5077107 L122.246112,4.01174121 L123.585444,3.98705801 L123.585444,14.5459803 L132,14.5459803 L131.987441,15.5058823 L131.986544,15.5077107 Z" id="Shape" fill-opacity="0.85" fill="#000000" fill-rule="nonzero"></path>
            <path d="M18.9650607,19.4396522 C19.1417844,17.9403767 19.088857,17.7209705 20.1850817,17.9641457 L20.4542039,17.9888289 C21.2974537,18.0281392 22.3981638,17.8517 23.0467484,17.5445314 C24.4399047,16.8863129 25.26611,15.7856252 23.8926894,16.07451 C20.7583121,16.7327285 20.5430143,15.6521531 20.5430143,15.6521531 C23.8532181,10.6478639 25.2347124,4.29514085 24.0416037,2.74101377 C20.7852243,-1.500839 15.1462158,0.505813334 15.0529201,0.557922301 L15.0233166,0.563407456 C14.4043354,0.432677942 13.7108971,0.353143203 12.9331337,0.341258701 C11.5157565,0.317489699 10.4392674,0.719734357 9.61395914,1.35144131 C9.61395914,1.35144131 -0.444036948,-2.8721276 0.0152650492,6.66289918 C0.113943213,8.69057794 2.86796105,22.0085329 6.15125267,17.9860863 C7.35153797,16.5142365 8.51055786,15.2709349 8.51055786,15.2709349 C9.0864795,15.661295 9.76646175,15.8596748 10.4993714,15.7883678 L10.55499,15.7399156 C10.5382027,15.9308641 10.545741,16.1232239 10.5774168,16.3122 C9.73147586,17.2748446 9.97996542,17.4457986 8.2898776,17.7995911 C6.57915707,18.1588687 7.58388019,18.7988034 8.24053852,18.9661006 C9.03624334,19.1690513 10.8779367,19.4561077 12.1203845,17.6816602 L12.0710454,17.884611 C12.4029629,18.1552119 12.380536,19.8290982 12.4271839,21.0248619 C12.4738317,22.2206255 12.5527743,23.3377687 12.7922931,23.9959872 C13.0318119,24.6542057 13.3125961,26.3491184 15.5373402,25.8636823 C17.3942838,25.4577808 18.8152494,24.8745261 18.944428,19.443309" id="Path" stroke="#231F20" stroke-width="2.3382" fill="#231F20" fill-rule="nonzero"></path>
            <path d="M23.899866,16.07451 C20.7654887,16.7327285 20.5501909,15.6521531 20.5501909,15.6521531 C23.8603947,10.6478639 25.241889,4.29514085 24.0487803,2.74009957 C20.7924009,-1.50175319 15.1533924,0.504899142 15.0600967,0.557008109 L15.0295962,0.562493263 C14.410615,0.431763749 13.7171766,0.35222901 12.9394132,0.340344509 C11.522036,0.316575506 10.4455469,0.718820165 9.62023866,1.35052712 C9.62023866,1.35052712 -0.437757429,-2.8730418 0.0215445687,6.66198499 C0.120222732,8.69149213 2.87424057,22.0076187 6.15753219,17.9851721 C7.35781749,16.5133224 8.51683737,15.2700207 8.51683737,15.2700207 C9.09275902,15.6603808 9.78171202,15.8587606 10.5047538,15.7874536 L10.5612695,15.7390014 C10.543328,15.9218399 10.5522988,16.1001074 10.5836964,16.3112858 C9.73775538,17.2739304 9.98624494,17.4448844 8.29615712,17.7986769 C6.58543659,18.1579545 7.59015971,18.7978892 8.24681804,18.9651864 C9.04252286,19.1681371 10.8842162,19.4551935 12.126664,17.6807461 L12.0773249,17.8836968 C12.4092424,18.1542977 12.6424817,19.6435171 12.6021133,20.9919509 C12.561745,22.3403847 12.537524,23.26829 12.7994697,23.9923304 C13.0614153,24.7163708 13.3197727,26.3454617 15.5445168,25.8600255 C17.4014604,25.4541241 18.3649181,24.4028028 18.4985822,22.6493818 C18.593672,21.4024233 18.8089698,21.5870902 18.8215289,20.4736039 L18.9937671,19.9461148 C19.1929176,18.2548589 19.0251647,17.7109144 20.1689343,17.9650599 L20.4380566,17.9897431 C21.2813064,18.0290534 22.3829135,17.8526142 23.0306011,17.5454456 C24.4237573,16.887227 25.2499627,15.7865394 23.8765421,16.0754242 L23.899866,16.07451 Z" id="Path" fill-opacity="0.85" fill="#000000" fill-rule="nonzero"></path>
            <g id="Group" transform="translate(0.007611, 0.000000)" stroke="#FFFFFF" stroke-width="0.7794">
                <g stroke-linecap="round">
                    <path d="M12.2697614,17.0435539 C12.1836423,20.1883758 12.2912912,23.3542241 12.5927081,24.1239741 C12.894125,24.8937241 13.5409156,26.3911713 15.7647625,25.9048209 C17.6217062,25.4989195 18.2981001,24.7136282 18.5905463,22.9794052 L19.2768081,17.4366567 M9.61442172,1.2801343 C9.61442172,1.2801343 -0.450750959,-2.91235207 0.0157276325,6.62084633 C0.105435054,8.65035347 2.86842363,21.9673942 6.15171526,17.9449477 C7.35200055,16.4822398 8.43656328,15.3212155 8.43656328,15.3212155 M15.0417207,0.514955258 C14.682891,0.626486732 20.6394638,-1.70013294 24.0196394,2.70901703 C25.2127482,4.26314412 23.8402246,10.6167813 20.52105,15.6210706" id="Shape" stroke-linejoin="round"></path>
                    <path d="M20.5201529,15.6128428 C20.5201529,15.6128428 20.7354508,16.6943324 23.8707251,16.0351997 C25.2432487,15.7463149 24.4089697,16.8460884 23.0247841,17.5052211 C21.8819116,18.0445946 19.3198676,18.1844661 19.2768081,17.4375709 C19.1691592,15.5086249 20.6260077,16.0955364 20.5201529,15.6128428 C20.4250631,15.1776872 19.7737872,14.7507594 19.3431916,13.6866394 C18.9664204,12.7569058 14.1850148,5.63077596 20.6708614,6.68941076 C20.9085861,6.63913018 18.9789794,0.402509592 12.9093753,0.301034235 C6.83977118,0.199558878 7.0407158,7.90711505 7.0407158,7.90711505" id="Path" stroke-linejoin="bevel"></path>
                </g>
                <g stroke-linejoin="round" transform="translate(6.935461, 6.714538)" id="Path">
                    <path d="M3.6352416,9.55652326 C2.78930062,10.5191679 3.03779017,10.6901218 1.34770235,11.0439143 C-0.363018173,11.4031919 0.641704947,12.0431266 1.29836327,12.2104238 C2.0940681,12.4133745 3.93576146,12.7004309 5.17820925,10.9259835 C5.55677457,10.38661 5.1764151,9.52361233 4.65611205,9.30329196 C4.40493127,9.19724564 4.06852844,9.06560194 3.63703575,9.55652326 L3.6352416,9.55652326 Z"></path>
                    <path d="M3.579623,9.5400678 C3.49440095,8.97326851 3.76262614,8.3004229 4.04879281,7.51056066 C4.47938843,6.32759568 5.48411155,5.14463071 4.67943598,1.39278508 C4.087367,-1.40281529 0.106151641,0.810444519 0.104357493,1.18983437 C0.102563344,1.56922422 0.283772336,3.1114668 0.0379740009,4.90785488 C-0.284972716,7.25184421 1.50020497,9.23472753 3.55719614,9.03086263" stroke-linecap="round"></path>
                </g>
            </g>
            <g id="Group" transform="translate(9.574481, 7.308278)" fill="#FFFFFF" fill-rule="nonzero" stroke="#FFFFFF" stroke-width="0.5">
                <path d="M0.000904417645,0.540328541 C-0.0170370666,0.670143863 0.234143713,1.01570859 0.559781653,1.06141821 C0.885419593,1.10712783 1.16530675,0.837441073 1.18235116,0.708539944 C1.19939557,0.579638815 0.949111862,0.436110607 0.622576848,0.388572602 C0.296041834,0.341034597 0.0170517535,0.409599027 0,0.539414349 L0.000904417645,0.540328541 Z" id="Path"></path>
                <path d="M9.93510426,0.276126936 C9.95304575,0.405942258 9.70186497,0.751506987 9.37622703,0.797216607 C9.05058909,0.842926228 8.77070193,0.573239468 8.75276045,0.444338339 C8.73481896,0.31543721 8.98599974,0.171909002 9.31253476,0.126199382 C9.63906977,0.0804897616 9.91805985,0.147225807 9.93600868,0.277041129 L9.93510426,0.276126936 Z" id="Path"></path>
            </g>
            <path d="M20.6766783,6.68849657 C20.7305028,7.70325014 20.4613805,8.39620798 20.4281888,9.47678341 C20.3779526,11.0491943 21.1637896,12.8474108 19.9796517,14.6483698" id="Path" stroke="#FFFFFF" stroke-width="0.7794" stroke-linecap="round" stroke-linejoin="round"></path>
        </g>
    </g>
</svg>