<?xml version="1.0" encoding="UTF-8"?>
<svg width="344px" height="120px" viewBox="0 0 344 120" version="1.1" xmlns="http://www.w3.org/2000/svg" xmlns:xlink="http://www.w3.org/1999/xlink">
    <title>web</title>
    <g id="web" stroke="none" stroke-width="1" fill="none" fill-rule="evenodd">
        <g id="angular" transform="translate(186.000000, 77.000000)" fill-opacity="0.85" fill-rule="nonzero">
            <g id="Group" transform="translate(34.708594, 7.272727)" fill="#000000">
                <path d="M0,16.4617605 L0,1.91630592 L1.86679687,1.91630592 L10.7398438,13.6219336 L10.7398438,1.91630592 L12.5144531,1.91630592 L12.5144531,16.4617605 L10.6476563,16.4617605 L1.77460937,4.64069264 L1.77460937,16.4617605 L0,16.4617605 Z M26.9648437,15.8845599 C25.7894531,16.3232323 24.521875,16.5541126 23.1851562,16.5541126 C17.9304687,16.5541126 15.303125,14.037518 15.303125,8.98124098 C15.303125,4.2020202 17.8382812,1.8008658 22.9085937,1.8008658 C24.3605469,1.8008658 25.7203125,2.00865801 26.9648437,2.4011544 L26.9648437,4.01731602 C25.7203125,3.53246753 24.4296875,3.3015873 23.1160156,3.3015873 C19.1519531,3.3015873 17.1699219,5.19480519 17.1699219,8.93506494 C17.1699219,12.975469 19.1289062,14.984127 23.0238281,14.984127 C23.6460937,14.984127 24.3375,14.8917749 25.0980469,14.7301587 L25.0980469,9.85858586 L26.9648437,9.85858586 L26.9648437,15.8845599 L26.9648437,15.8845599 Z M29.9609375,10.8513709 L29.9609375,1.91630592 L31.8277344,1.91630592 L31.8277344,10.8513709 C31.8277344,13.6450216 33.2105469,15.0533911 35.9992188,15.0533911 C38.7648438,15.0533911 40.1707031,13.6450216 40.1707031,10.8513709 L40.1707031,1.91630592 L42.0375,1.91630592 L42.0375,10.8513709 C42.0375,14.6608947 40.0324219,16.5772006 35.9992188,16.5772006 C31.9660156,16.5772006 29.9609375,14.6608947 29.9609375,10.8513709 L29.9609375,10.8513709 Z M47.2460937,1.91630592 L47.2460937,14.9379509 L54.8515625,14.9379509 L54.8515625,16.4617605 L45.3792969,16.4617605 L45.3792969,1.91630592 L47.2460937,1.91630592 L47.2460937,1.91630592 Z M57.5480469,16.4617605 L55.5890625,16.4617605 L62.8027344,0 L70.0164062,16.4617605 L67.9421875,16.4617605 L66.0753906,11.8903319 L61.2816406,11.8903319 L61.7886719,10.3665224 L65.453125,10.3665224 L62.7335937,3.78643579 L57.5480469,16.4617605 L57.5480469,16.4617605 Z M72.0214844,16.4617605 L72.0214844,1.91630592 L78.2210938,1.91630592 C80.9867188,1.91630592 82.3695313,3.07070707 82.3695313,5.4025974 C82.3695313,7.2958153 81.0097656,8.7041847 78.3132813,9.6046176 L83.2914063,16.4617605 L80.8253906,16.4617605 L76.2160156,9.92784993 L76.2160156,8.7041847 C78.9816406,8.26551227 80.3875,7.2034632 80.3875,5.49494949 C80.3875,4.15584416 79.6269531,3.48629149 78.0828125,3.48629149 L73.934375,3.48629149 L73.934375,16.4617605 L72.0214844,16.4617605 L72.0214844,16.4617605 Z" id="Shape"></path>
            </g>
            <polygon id="Path" fill="#000000" points="0 5.31024531 14.8652344 0 30.1222656 5.21789322 27.65625 24.9119769 14.8652344 32 2.28164062 25.004329"></polygon>
            <polygon id="Path" fill="#000000" points="30.1222656 5.21789322 14.8652344 0 14.8652344 32 27.65625 24.9119769"></polygon>
            <path d="M14.8882812,3.74025974 L5.6234375,24.3809524 L9.08046875,24.3116883 L10.9472656,19.6479076 L19.2210937,19.6479076 L21.2492187,24.3578644 L24.5449219,24.4271284 L14.8882812,3.74025974 Z M14.9113281,10.3665224 L18.0457031,16.9235209 L12.16875,16.9235209 L14.9113281,10.3665224 L14.9113281,10.3665224 Z" id="Shape" fill="#FFFFFF"></path>
        </g>
        <g id="html" transform="translate(5.000000, 11.000000)" fill-rule="nonzero">
            <g id="Group-34">
                <polygon id="Path" fill-opacity="0.85" fill="#000000" points="2.12840487 23.400948 0 0 23.3881455 0 21.2574195 23.3972823 11.6797265 26"></polygon>
                <polygon id="Path" fill-opacity="0.85" fill="#000000" points="11.6940405 24.0105304 19.4332843 21.9074238 21.2541311 1.9133745 11.6940405 1.9133745"></polygon>
                <g id="Group" transform="translate(4.352108, 4.783436)" fill="#EBEBEB">
                    <path d="M7.34193293,5.80901356 L3.46747522,5.80901356 L3.19989327,2.87006174 L7.34193293,2.87006174 L7.34193293,0 L0,0 L0.070087128,0.769988818 L0.789721383,8.67901211 L7.34193293,8.67901211 L7.34193293,5.80901356 Z M7.34193293,13.2627935 L7.32916636,13.2661432 L4.06821282,12.403058 L3.85975681,10.1140746 L0.92054639,10.1140746 L1.33075275,14.6204337 L7.32845711,16.2524965 L7.34193293,16.2488308 L7.34193293,13.2627935 Z" id="Shape"></path>
                </g>
                <g id="Group" transform="translate(11.683982, 4.783436)" fill="#FFFFFF">
                    <path d="M0,5.80901356 L0,8.67901211 L3.60539277,8.67901211 L3.26553145,12.4012251 L0,13.2651952 L0,16.251106 L6.00241123,14.6204337 L6.04644942,14.1355486 L6.73448966,6.5796976 L6.80593081,5.80901356 L6.01691868,5.80901356 L0,5.80901356 Z M0,0 L0,2.87006174 L7.07235217,2.87006174 L7.13109124,2.22495989 L7.26449535,0.769988818 L7.334518,0 L0,0 Z" id="Shape"></path>
                </g>
            </g>
            <path d="M34.6907857,3.05195313 L40.642582,3.05195313 L40.642582,8.84101563 L46.0870687,8.84101563 L46.0870687,3.05195313 L52.039123,3.05195313 L52.039123,20.5826563 L46.0873267,20.5826563 L46.0873267,14.7123438 L40.6428399,14.7123438 L40.6428399,20.5826563 L34.6913015,20.5826563 L34.6913015,3.05195313 L34.6907857,3.05195313 Z M59.8659273,8.86539063 L54.6264793,8.86539063 L54.6264793,3.05195313 L71.0605245,3.05195313 L71.0605245,8.86539063 L65.8184974,8.86539063 L65.8184974,20.5826563 L59.8664431,20.5826563 L59.8659273,8.86539063 Z M73.6685136,3.05195313 L79.8743516,3.05195313 L83.6919401,9.21171875 L87.5059178,3.05195313 L93.7143349,3.05195313 L93.7143349,20.5826563 L87.78704,20.5826563 L87.78704,11.8934766 L83.692198,18.1266211 L83.5900655,18.1266211 L79.4921285,11.8934766 L79.4921285,20.5826563 L73.6687715,20.5826563 L73.6687715,3.05195313 L73.6685136,3.05195313 Z M96.6764349,3.05195313 L102.630037,3.05195313 L102.630037,14.7880078 L111,14.7880078 L111,20.5826563 L96.6764349,20.5826563 L96.6764349,3.05195313 Z" id="Shape" fill-opacity="0.85" fill="#000000"></path>
        </g>
        <g id="ionic" transform="translate(5.000000, 76.000000)" fill="#000000" fill-opacity="0.85" fill-rule="nonzero">
            <g id="Group">
                <path d="M17.2381171,9.29795918 C12.9051665,9.29795918 9.39196326,12.7673469 9.39196326,17.0462585 C9.39196326,21.3251701 12.9051665,24.7945578 17.2381171,24.7945578 C21.5710677,24.7945578 25.084271,21.3251701 25.084271,17.0462585 C25.0608496,12.7673469 21.5476464,9.29795918 17.2381171,9.29795918 L17.2381171,9.29795918 Z" id="Path"></path>
                <ellipse id="Oval" cx="28.4803674" cy="6.45306122" rx="3.58346728" ry="3.53877551"></ellipse>
                <path d="M32.8835821,9.99183673 L32.743054,9.66802721 L32.5088404,9.94557823 C31.9233065,10.5931973 31.1738232,11.1020408 30.3540758,11.4027211 L30.1198622,11.4952381 L30.2135476,11.7265306 C30.9396096,13.414966 31.29093,15.2190476 31.29093,17.0462585 C31.29093,24.7020408 24.9905855,30.9469388 17.2146958,30.9469388 C9.43880597,30.9469388 3.16188289,24.7020408 3.16188289,17.0462585 C3.16188289,9.39047619 9.46222732,3.14557823 17.2381171,3.14557823 C19.346039,3.14557823 21.3602755,3.60816327 23.2574053,4.48707483 L23.4681975,4.57959184 L23.5618829,4.34829932 C23.9132032,3.53877551 24.4518944,2.84489796 25.154535,2.28979592 L25.4355913,2.0585034 L25.1076923,1.89659864 C22.6484501,0.647619048 20.001837,0 17.2146958,0 C7.72904707,0 0,7.63265306 0,17 C0,26.3673469 7.72904707,34 17.2146958,34 C26.7003444,34 34.4293915,26.3673469 34.4293915,17 C34.4293915,14.5945578 33.9141217,12.2353741 32.8835821,9.99183673 L32.8835821,9.99183673 Z" id="Path"></path>
            </g>
            <g id="Group" transform="translate(43.306087, 9.274830)">
                <polygon id="Path" points="0 0.370068027 3.63030999 0.370068027 3.63030999 15.1727891 0 15.1727891"></polygon>
                <polygon id="Path" points="39.1839218 0.370068027 42.8142318 0.370068027 42.8142318 15.1727891 39.1839218 15.1727891"></polygon>
                <path d="M30.7990792,0.0231292517 C28.2461515,0.0231292517 26.2787577,1.54965986 25.833752,1.96598639 L25.5995384,0.370068027 L22.5781837,0.370068027 L22.5781837,15.1727891 L26.2084936,15.1727891 L26.2084936,6.22176871 C26.2084936,4.46394558 28.6208932,3.02993197 30.4009161,3.02993197 C32.1340964,3.02993197 33.492535,4.6952381 33.492535,6.68435374 L33.492535,15.1727891 L37.122845,15.1727891 L37.122845,7.03129252 C37.0994236,3.14557823 35.3896647,0.0231292517 30.7990792,0.0231292517 Z" id="Path"></path>
                <path d="M52.3233042,12.4897959 C49.5830057,12.4897959 47.7795614,10.385034 47.7795614,7.77142857 C47.7795614,5.15782313 49.5830057,3.05306122 52.3233042,3.05306122 C54.6420183,3.05306122 56.070721,5.27346939 56.070721,5.27346939 L58.6939127,3.53877551 C57.9444293,2.38231293 57.0544179,1.68843537 55.8599288,0.971428571 C54.9699173,0.439455782 53.7754282,0 52.440411,0 C47.8966682,0 44.4303076,3.37687075 44.4068863,7.74829932 C44.4303076,12.1197279 47.8966682,15.4965986 52.440411,15.4965986 C53.7754282,15.4965986 54.9699173,15.0571429 55.8599288,14.5251701 C57.0544179,13.8081633 57.9444293,13.1142857 58.6939127,11.9578231 L56.070721,10.2231293 C56.070721,10.2462585 54.6654397,12.4897959 52.3233042,12.4897959 Z" id="Path"></path>
                <path d="M13.092535,0.0231292517 C8.52537079,0.0231292517 5.24638113,3.56190476 5.24638113,7.70204082 C5.24638113,11.9115646 8.43168537,15.5197279 13.162799,15.5197279 C17.448907,15.5197279 20.9386888,12.2816327 20.9386888,7.79455782 C20.9386888,2.65986395 16.8633731,0.0231292517 13.092535,0.0231292517 L13.092535,0.0231292517 Z M13.1393777,3.07619048 C15.3878277,3.07619048 17.519171,4.88027211 17.519171,7.79455782 C17.519171,10.6394558 15.3878277,12.4897959 13.1159563,12.4897959 C10.6332927,12.4897959 8.66589892,10.5006803 8.66589892,7.77142857 C8.66589892,5.06530612 10.6098714,3.07619048 13.1393777,3.07619048 L13.1393777,3.07619048 Z" id="Shape"></path>
            </g>
        </g>
        <g id="css" transform="translate(186.000000, 11.000000)" fill-rule="nonzero">
            <g id="Group-37">
                <polygon id="polygon2989" fill-opacity="0.85" fill="#000000" points="23.3052251 0 21.1820592 23.3972823 11.6383493 26 2.12091722 23.400948 0 0"></polygon>
                <polygon id="polygon2991" fill-opacity="0.85" fill="#000000" points="19.3643963 21.9074238 21.1787825 1.9133745 11.6526125 1.9133745 11.6526125 24.0105936"></polygon>
                <polygon id="polygon2993" fill="#EBEBEB" points="4.86215662 10.5924498 5.12364924 13.4624483 11.6526125 13.4624483 11.6526125 10.5924498"></polygon>
                <polygon id="polygon2995" fill="#EBEBEB" points="11.6526125 4.78343624 11.6425255 4.78343624 4.33672991 4.78343624 4.60194897 7.65349798 11.6526125 7.65349798"></polygon>
                <polygon id="polygon2997" fill="#EBEBEB" points="11.6526125 21.032267 11.6526125 18.0462298 11.639827 18.0495795 8.3905081 17.1864942 8.18279172 14.8975108 6.6038774 14.8975108 5.25401006 14.8975108 5.66276094 19.4038699 11.6391845 21.0359327"></polygon>
                <polygon id="polygon3005" fill="#FFFFFF" points="15.23519 13.4624483 14.8965346 17.1846614 11.6425255 18.0486314 11.6425255 21.0345423 17.6237035 19.4038699 17.6675854 18.9189849 18.3531844 11.3631338 18.4243721 10.5924498 18.9510837 4.78343624 11.6425255 4.78343624 11.6425255 7.65349798 15.7536778 7.65349798 15.4882018 10.5924498 11.6425255 10.5924498 11.6425255 13.4624483"></polygon>
            </g>
            <g id="Group-35" transform="translate(34.276843, 2.600000)" fill="#000000" fill-opacity="0.85">
                <polygon id="path2999" points="0 0 13.742105 0 13.742105 5.83984375 5.74669844 5.83984375 5.74669844 11.6796875 13.742105 11.6796875 13.742105 17.5195312 0 17.5195312"></polygon>
                <polygon id="path3001" points="16.4905259 0 30.2326309 0 30.2326309 5.078125 22.2372244 5.078125 22.2372244 6.09375 30.2326309 6.09375 30.2326309 17.7734375 16.4905259 17.7734375 16.4905259 12.4414062 24.4859325 12.4414062 24.4859325 11.4257812 16.4905259 11.4257812"></polygon>
                <polygon id="path3003" points="32.9810519 0 46.7231568 0 46.7231568 5.078125 38.7277503 5.078125 38.7277503 6.09375 46.7231568 6.09375 46.7231568 17.7734375 32.9810519 17.7734375 32.9810519 12.4414062 40.9764584 12.4414062 40.9764584 11.4257812 32.9810519 11.4257812"></polygon>
            </g>
        </g>
    </g>
</svg>