<?xml version="1.0" encoding="UTF-8"?>
<svg width="30px" height="30px" viewBox="0 0 30 30" version="1.1" xmlns="http://www.w3.org/2000/svg" xmlns:xlink="http://www.w3.org/1999/xlink">
    <title>topper</title>
    <g id="topper" stroke="none" stroke-width="1" fill="none" fill-rule="evenodd" fill-opacity="0.85" stroke-opacity="0.85">
        <g id="iconfinder_5_-_Cup_1081980" transform="translate(5.000000, 3.000000)" fill="#000000" fill-rule="nonzero" stroke="#000000" stroke-width="0.7">
            <g id="Layer_x0020_1">
                <path d="M10.3473707,14.5557917 C10.537832,14.6423446 10.763464,14.5603684 10.8512978,14.3726831 C10.9391311,14.184998 10.8559423,13.962655 10.6654807,13.8761015 C3.36124781,10.563495 3.01854799,2.53404211 3.03489572,0.750003969 L10.5064273,0.750003969 C10.71659,0.750003969 10.8869758,0.582101758 10.8869758,0.37500252 C10.8869758,0.167903283 10.71659,9.39264282e-07 10.5064273,9.39264282e-07 L2.66622346,9.39264282e-07 L2.6658489,9.39264282e-07 C2.46471314,-0.000165020445 2.29649958,0.155113703 2.2858252,0.355329007 L2.6658489,0.375001895 L2.28677974,0.355956509 C2.28520661,0.385465686 1.64548409,10.6093242 10.3473687,14.5557926 L10.3473707,14.5557917 Z" id="Path"></path>
                <path d="M10.3473707,13.8761015 C10.1569093,13.9626545 10.0737198,14.184998 10.1615536,14.3726831 C10.2493869,14.5603682 10.4750193,14.6423451 10.6654807,14.5557917 C19.3673574,10.6093233 18.7276395,0.385455686 18.7260697,0.355955572 L18.3470006,0.375000958 L18.7270243,0.35532807 C18.7163494,0.155111671 18.5481363,-0.000167053265 18.3470006,0 L18.346626,0 L10.5064222,0 C10.2962595,0 10.1258736,0.167902346 10.1258736,0.375001583 C10.1258736,0.58210082 10.2962595,0.750003031 10.5064222,0.750003031 L17.9779537,0.750003031 C17.9943031,2.53404117 17.6516032,10.5635097 10.3473687,13.8761006 L10.3473707,13.8761015 Z" id="Path"></path>
                <path d="M3.99301864,8.74130045 C4.19908092,8.70409562 4.33551233,8.50930581 4.29775716,8.30624721 C4.26000199,8.10318861 4.0623308,7.96874591 3.85626852,8.00595074 C3.17465217,8.13124028 2.49694912,7.95505242 1.95062412,7.56611779 C1.39852905,7.17310377 0.980150805,6.56302642 0.823754867,5.82529857 C0.667415377,5.08784416 0.803210478,4.36347573 1.14982472,3.78482194 C1.49231841,3.21305567 2.04081729,2.78449776 2.71449287,2.63082529 C2.91890611,2.58472527 3.04668638,2.38402903 2.99990428,2.18259544 C2.95312234,1.98116185 2.74945735,1.85524417 2.54504412,1.90134435 C1.65860226,2.10355295 0.940540458,2.6614051 0.495742635,3.40395172 C0.0567259772,4.13686548 -0.116019278,5.05073933 0.0804912339,5.97766478 C0.276946249,6.90429805 0.806923522,7.67374946 1.50764183,8.17257951 C2.21676867,8.67741114 3.10038019,8.90538234 3.99302023,8.74130045 L3.99301864,8.74130045 Z" id="Path"></path>
                <path d="M17.1437298,7.92907857 C16.9376676,7.89187373 16.7399964,8.02631691 16.7022412,8.22937504 C16.664486,8.43243363 16.8009179,8.62722345 17.0069797,8.66442828 C17.8996213,8.82851016 18.7832376,8.60053772 19.4923581,8.09570733 C20.1930764,7.59687416 20.7230537,6.82741962 20.9195087,5.90079261 C21.1160192,4.97388278 20.9432743,4.06000425 20.5042573,3.32707955 C20.0594722,2.58453293 19.341412,2.02668077 18.45494,1.82447218 C18.2505267,1.77837216 18.0468619,1.90428921 18.0000798,2.10572327 C17.9532979,2.30715686 18.0810775,2.50785294 18.2854912,2.55395312 C18.9592049,2.70764465 19.5076847,3.1361835 19.8501784,3.70794977 C20.1967915,4.28660044 20.3325871,5.01096886 20.1762483,5.7484264 C20.0198525,6.48615737 19.6014741,7.09623472 19.049379,7.48924562 C18.5030524,7.87817993 17.8253494,8.05436811 17.1437346,7.92907857 L17.1437298,7.92907857 Z" id="Path"></path>
                <path d="M10.8586535,14.2398529 C10.8586535,14.0327537 10.6882676,13.8648515 10.478105,13.8648515 C10.2679423,13.8648515 10.0975564,14.0327537 10.0975564,14.2398529 L10.0975564,19.4797169 C10.0975564,19.6868162 10.2679423,19.8547184 10.478105,19.8547184 C10.6882676,19.8547184 10.8586535,19.6868162 10.8586535,19.4797169 L10.8586535,14.2398529 Z" id="Path"></path>
                <path d="M5.8362848,19.185497 L15.1200044,19.185497 C15.3301671,19.185497 15.5005529,19.3533992 15.5005529,19.5604985 L15.5005529,23.6249986 C15.5005529,23.8320978 15.3301671,24 15.1200044,24 L5.8362848,24 C5.62612211,24 5.45573626,23.8320978 5.45573626,23.6249986 L5.45573626,19.5604985 C5.45573626,19.3533992 5.62612211,19.185497 5.8362848,19.185497 Z M14.7394558,19.9354999 L6.21683334,19.9354999 L6.21683334,23.2499971 L14.7394558,23.2499971 L14.7394558,19.9354999 Z" id="Shape"></path>
            </g>
        </g>
    </g>
</svg>