<?xml version="1.0" encoding="UTF-8"?>
<svg width="70px" height="70px" viewBox="0 0 70 70" version="1.1" xmlns="http://www.w3.org/2000/svg" xmlns:xlink="http://www.w3.org/1999/xlink">
    <title>transparent</title>
    <g id="transparent" stroke="none" stroke-width="1" fill="none" fill-rule="evenodd" fill-opacity="0.85">
        <g id="iconfinder_106_-_layers_1217631" transform="translate(0.000000, 7.000000)" fill="#000000" fill-rule="nonzero">
            <path d="M56.391587,38.5847131 L51.9065543,35.9348399 L49.4704239,37.3747055 L53.3247391,39.6522211 L28.5,54.3234855 L3.67526087,39.6522211 L7.52957609,37.3747055 L5.09344565,35.9348399 L0.609032609,38.5847131 C0.231097826,38.8102342 0,39.2141896 0,39.6522211 C0,40.0902525 0.231097826,40.4966862 0.608413043,40.719729 L27.8692826,56.8283809 C28.0644457,56.9442393 28.281913,57 28.5,57 C28.718087,57 28.9355543,56.9442393 29.1307174,56.8283809 L56.391587,40.719729 C56.7689022,40.4973057 57,40.0902525 57,39.6522211 C57,39.2141896 56.7689022,38.8102342 56.391587,38.5847131 Z M56.391587,27.433189 L51.9071739,24.7833158 L49.4710435,26.2231815 L53.3253587,28.500697 L28.5,43.1713419 L3.67526087,28.500697 L7.52957609,26.2231815 L5.09344565,24.7833158 L0.609032609,27.433189 C0.231097826,27.657471 0,28.0626656 0,28.500697 C0,28.9387284 0.231097826,29.343923 0.608413043,29.568205 L27.8692826,45.6762373 C28.0644457,45.7920957 28.281913,45.8478564 28.5,45.8478564 C28.718087,45.8478564 28.9355543,45.7920957 29.1307174,45.6762373 L56.391587,29.568205 C56.7689022,29.3445425 57,28.9387284 57,28.500697 C57,28.0626656 56.7689022,27.657471 56.391587,27.433189 Z M0.608413043,18.4160614 L27.8692826,34.5240937 C28.0644457,34.6399521 28.281913,34.6957128 28.5,34.6957128 C28.718087,34.6957128 28.9355543,34.6399521 29.1307174,34.5240937 L56.391587,18.4160614 C56.7689022,18.1923989 57,17.7865848 57,17.3485534 C57,16.910522 56.7689022,16.5053274 56.391587,16.2810454 L29.1307174,0.172393553 C28.74225,-0.0574645178 28.2583696,-0.0574645178 27.8699022,0.172393553 L0.609032609,16.2810454 C0.231097826,16.5053274 0,16.910522 0,17.3485534 C0,17.7865848 0.231097826,18.1917794 0.608413043,18.4160614 Z M28.5,2.67852805 L53.3247391,17.3485534 L28.5,32.0191983 L3.67526087,17.3485534 L28.5,2.67852805 Z" id="Shape"></path>
        </g>
    </g>
</svg>