<?xml version="1.0" encoding="UTF-8"?>
<svg width="95px" height="34px" viewBox="0 0 95 34" version="1.1" xmlns="http://www.w3.org/2000/svg" xmlns:xlink="http://www.w3.org/1999/xlink">
    <title>unity-technologies-logo</title>
    <g id="Page-1" stroke="none" stroke-width="1" fill="none" fill-rule="evenodd" fill-opacity="0.85">
        <g id="App-Development" transform="translate(-135.000000, -5809.000000)" fill="#000000" fill-rule="nonzero">
            <g id="unity-technologies-logo" transform="translate(135.000000, 5809.000000)">
                <path d="M53.0577223,23.7095174 L49.7425897,23.7095174 L49.7425897,16.1718539 C49.7425897,14.2318448 48.9313573,12.6905728 46.5522621,12.6905728 C44.1965679,12.6675688 43.5179407,14.2548489 43.5179407,16.2715381 L43.5179407,23.7095174 L40.1950078,23.7095174 L40.1950078,15.443392 C40.1950078,13.0586378 41.0530421,9.64636897 45.6162246,9.62336491 C48.1201248,9.60036085 49.3603744,10.7965719 49.9453978,11.8624267 L49.9453978,10.045106 L53.0577223,10.045106 L53.0577223,23.7095174 M54.375975,10.045106 L57.6911076,10.045106 L57.6911076,17.5827695 C57.6911076,19.4997745 58.5023401,21.0410465 60.8580343,21.0640505 C63.1903276,21.0640505 63.8689548,19.4997745 63.8689548,17.4524132 L63.8689548,10.045106 L67.1840874,10.045106 L67.1840874,18.2805593 C67.1840874,20.6959856 66.326053,24.1005864 61.7940718,24.1312585 C59.3135725,24.1542625 58.0733229,22.9657194 57.4648986,21.8921967 C57.4882995,22.5363103 57.4882995,23.1114118 57.4882995,23.7095174 L54.375975,23.7095174 L54.375975,10.045106 M68.4555382,10.045106 L71.7706708,10.045106 L71.7706708,23.7095174 L68.4555382,23.7095174 L68.4555382,10.045106 Z M68.4555382,25.5498421 L71.7706708,25.5498421 L71.7706708,28.4636897 L68.4555382,28.4636897 L68.4555382,25.5498421 M75.2418097,10.045106 L78.5569423,10.045106 L78.5569423,21.1944069 L80.9360374,21.1944069 L79.9531981,23.7095174 L78.5569423,23.7095174 L78.5569423,28.4636897 L75.2418097,28.4636897 L75.2418097,23.7095174 L72.9407176,23.7095174 L72.9407176,21.1944069 L75.2418097,21.1944069 L75.2418097,10.045106 M84.1419657,5.26792963 L87.6833073,5.26792963 L95,23.7095174 L91.4586583,23.7095174 L88.1201248,14.6229138 L84.7269891,23.7095174 L81.1856474,23.7095174 L86.4274571,10.5665313 L84.1419657,5.26792963 M22.0124805,17 L28.0655226,27.2751466 L30.9906396,17 L28.0655226,6.72485341 L22.0124805,17 Z M19.0639626,15.3360397 L25.1170047,5.0608931 L14.5709828,7.71402797 L6.950078,15.3360397 L19.0639626,15.3360397 L19.0639626,15.3360397 Z M25.1170047,28.9467749 L19.0639626,18.6716283 L6.950078,18.6716283 L14.5709828,26.2936401 L25.1170047,28.9467749 Z M33.7597504,20.4966171 L30.0624025,34 L16.2792512,30.3806946 L14.2355694,26.8534055 L10.0936037,26.8840776 L0,17 L10.0936037,7.11592242 L14.2355694,7.1465945 L16.2792512,3.61930537 L30.0624025,3.41178703e-15 L33.7597504,13.5033829 L31.6614665,17 L33.7597504,20.4966171" id="Shape" transform="translate(47.500000, 17.000000) scale(-1, 1) rotate(-180.000000) translate(-47.500000, -17.000000) "></path>
            </g>
        </g>
    </g>
</svg>