<?xml version="1.0" encoding="UTF-8"?>
<svg width="112px" height="34px" viewBox="0 0 112 34" version="1.1" xmlns="http://www.w3.org/2000/svg" xmlns:xlink="http://www.w3.org/1999/xlink">
    <title>zeplin</title>
    <g id="Page-1" stroke="none" stroke-width="1" fill="none" fill-rule="evenodd">
        <g id="App-Development" transform="translate(-740.000000, -5474.000000)">
            <g id="zeplin" transform="translate(740.000000, 5474.000000)">
                <g id="Group" transform="translate(0.000000, 4.585839)" fill-rule="nonzero">
                    <polygon id="Path" fill="#1F1F1F" points="4.47802167 19.6280162 0 14.5685985 13.7071151 9.52791938 15.8399971 15.451394"></polygon>
                    <polygon id="Path" fill="#4F4F4F" points="4.44504959 19.5343233 4.23485253 26.3218549 17.9419677 21.2811757 15.8090857 15.3577011"></polygon>
                    <path d="M42.5370844,5.64174525 C44.4927414,11.3674237 38.1909511,18.8899242 28.3879372,22.4960606 C18.5849234,26.102197 8.97046864,24.432381 6.82625255,18.7743696 L42.5370844,5.64174525 Z" id="Path" fill="#141414"></path>
                    <path d="M42.5381148,5.64174525 C40.4072936,-0.0287585102 30.7835655,-1.70586179 20.9702478,1.90235668 C11.1569302,5.51057516 4.85101842,13.0466091 6.82625255,18.7639593 L42.5381148,5.64174525 Z" id="Path" fill="#555555"></path>
                    <path d="M42.5370844,5.64174525 C43.7560213,9.47274466 36.9143131,15.4274503 27.1411802,19.0315046 C17.3680473,22.635559 8.33060406,22.4981427 6.82831331,18.7733286 L42.5370844,5.64174525 Z" id="Path" fill="#292929"></path>
                    <path d="M42.5370844,5.64174525 C41.0564316,1.89819255 32.0066239,1.7649404 22.2180353,5.36483061 C12.4294467,8.96472083 5.58052586,14.9423292 6.82831331,18.7733286 L42.5370844,5.64174525 Z" id="Path" fill="#3E3E3E"></path>
                </g>
                <g id="Group" transform="translate(13.888085, 0.000000)" fill="#000000" fill-opacity="0.85" fill-rule="nonzero">
                    <path d="M12.1753202,5.03179079 C11.2428284,1.77335923 10.1815393,-0.0338731073 8.97496694,0.000480963526 C6.64219173,0.0671070403 5.85807427,7.540679 6.61334116,17.1171365 C7.37582069,26.7956152 9.35414595,34.0651448 11.822931,33.9995597 C13.2943104,33.9610415 14.1227342,31.5822824 14.4143311,27.4514656 C14.4205133,27.368183 14.3267489,27.4254398 14.3319008,27.3390341 C14.3319008,27.3390341 14.3195363,27.1880844 14.2649263,27.1849613 L13.9516914,27.1641407 C13.694097,31.1721156 12.9192529,33.4832077 11.8085057,33.5144386 C9.78072234,33.5664903 7.82094387,26.3760791 7.08937567,17.0786183 C6.36811125,7.93314823 7.14501607,0.536612675 8.98733148,0.484561053 C9.85903105,0.459576274 10.8368595,2.12418716 11.7013465,5.12548372 L12.1753202,5.02138047 L12.1753202,5.03179079 Z" id="Path"></path>
                    <path d="M0.614481931,2.7061243 C-1.37414711,3.94287085 1.64692043,10.8105619 7.03991754,18.7234496 C12.4906158,26.7185788 17.8022131,32.0153519 19.9062444,30.7119793 C21.0808751,29.9832566 20.7511542,27.7721036 19.2364989,24.4345536 C19.2024964,24.351271 19.1272789,24.2960963 19.0304233,24.285686 C18.9335678,24.2752756 18.8573199,24.3169169 18.8078618,24.3897892 C18.7584036,24.4626615 18.751191,24.5563544 18.7913757,24.6365139 C20.1988717,27.7387906 20.5018028,29.7688039 19.6445285,30.2997304 C17.9134939,31.3719938 12.6606281,26.1314365 7.42424844,18.448617 C2.27442048,10.8928035 -0.713674981,4.09694365 0.855590323,3.11941418 C1.6901963,2.60098002 3.67058232,3.85230103 6.29083292,6.55482127 C6.3196835,6.58605224 6.48660469,6.75990466 6.52472867,6.77135602 C6.60715889,6.7963408 6.56594378,6.62248838 6.6298272,6.55794437 C6.67516382,6.51317997 6.70195364,6.45175906 6.70195364,6.38721504 C6.70195364,6.32267103 6.67825495,6.26229115 6.63291833,6.21544469 C3.83441238,3.32762067 1.73450254,2.00134533 0.603147776,2.70508327 L0.614481931,2.7061243 Z" id="Path"></path>
                </g>
                <g id="Group" transform="translate(48.640012, 11.479946)" fill="#000000" fill-opacity="0.85">
                    <path d="M15.5113066,8.38968052 L20.7559293,8.38968052 L20.7559293,11.037026 L12.4531454,11.037026 L12.4531454,0.0020820649 L20.7559293,0.0020820649 L20.7559293,2.65046862 L15.5113066,2.65046862 L15.5113066,3.97570293 L18.7879078,3.97570293 L18.7879078,6.62513051 L15.5113066,6.62513051 L15.5113066,8.38968052 Z M39.3264273,8.38968052 L44.1331395,8.38968052 L44.1331395,11.037026 L36.2682662,11.037026 L36.2682662,0.0020820649 L39.3284881,0.0020820649 L39.3264273,8.38968052 Z M47.192331,0.00104103245 L50.2525529,0.00104103245 L50.2525529,11.037026 L47.192331,11.037026 L47.192331,0.00104103245 Z M53.7455335,0.00104103245 L53.7455335,11.037026 L56.5862849,11.037026 L56.5862849,4.85537535 L60.5192368,11.037026 L63.3599882,11.037026 L63.3599882,0 L60.5192368,0 L60.5192368,6.27326154 L56.5862849,0.0166565192 L53.7455335,0.00104103245 Z" id="Shape"></path>
                    <path d="M26.8722516,5.07815629 L29.0607739,5.07815629 C29.4081882,5.07815629 29.7413432,4.9385775 29.9868088,4.69018305 C30.2322745,4.44178861 30.3699007,4.10496931 30.3693573,3.75396301 C30.3701747,3.40277652 30.2326694,3.06568947 29.9871741,2.81706964 C29.7416787,2.56844982 29.408367,2.42872871 29.0607739,2.42872871 L26.8712212,2.42872871 L26.8712212,5.07815629 L26.8722516,5.07815629 Z M29.4976541,0.00104103245 C30.4826952,0.00104103245 31.4265212,0.396633363 32.1230565,1.1003713 C32.8195919,1.80410924 33.2101051,2.75873599 33.2101051,3.75500405 C33.2101051,4.7512721 32.8185615,5.70485783 32.1230565,6.4096368 C31.4275516,7.11441576 30.4826952,7.50896706 29.4976541,7.50896706 L27.1793041,7.50896706 L27.1793041,11.037026 L24.0325305,11.037026 L24.0325305,0 L29.4966237,0 L29.4976541,0.00104103245 Z" id="Shape"></path>
                    <polygon id="Path" points="8.9581041 2.64942759 8.9581041 0.0020820649 0 0.0020820649 0 2.65046862 5.02515226 2.65046862 0 8.39072155 0 11.0401491 8.9581041 11.0401491 8.9581041 8.39072155 4.15139193 8.39072155"></polygon>
                </g>
            </g>
        </g>
    </g>
</svg>