<?xml version="1.0" encoding="UTF-8"?>
<svg width="90px" height="90px" viewBox="0 0 90 90" version="1.1" xmlns="http://www.w3.org/2000/svg" xmlns:xlink="http://www.w3.org/1999/xlink">
    <title>apple</title>
    <g id="apple" stroke="none" stroke-width="1" fill="none" fill-rule="evenodd">
        <g id="ios" transform="translate(21.000000, 15.000000)" fill="#000000" fill-rule="nonzero">
            <g id="iconfinder_Apple_367618">
                <path d="M26.5535303,13.0593333 C25.7222622,13.3053333 24.5472054,13.4953333 23.0446672,13.63 C23.1123021,10.2870667 23.9862097,7.4036 25.6794891,4.9836 C27.3416244,2.5792 30.14941,0.917866667 34.1076579,0 C34.1322524,0.0642666667 34.1640649,0.192933333 34.1945407,0.3716 C34.2252839,0.550266667 34.2558934,0.6728 34.2807552,0.740266667 C34.2807552,0.829066667 34.2867702,0.942533333 34.2990675,1.0772 C34.3053498,1.21306667 34.3113647,1.32333333 34.3113647,1.41613333 C34.3113647,2.7844 33.984819,4.30786667 33.3329304,5.99053333 C32.6615267,7.6732 31.6143881,9.22106667 30.1985991,10.6342667 C28.9855811,11.8432 27.7664146,12.6538667 26.5535303,13.0593333 Z M41.6679341,36.6488 C40.1171425,34.4310667 39.3413457,31.9253333 39.3413457,29.144 C39.3413457,26.6077333 40.0682208,24.2857333 41.5329316,22.1794667 C42.3210256,21.0308 43.6016785,19.7104 45.3805041,18.2065333 C44.2106603,16.7689333 43.0416184,15.6518667 41.8717746,14.8410667 C39.753705,13.3850667 37.3586796,12.654 34.6809509,12.654 C33.0860495,12.654 31.1401416,13.0348 28.8503113,13.7965333 C26.6466955,14.5644 25.0332146,14.9412 24.0232351,14.9412 C23.2596019,14.9412 21.7086766,14.6073333 19.3687216,13.9324 C17.0052414,13.2585333 15.0164267,12.9245333 13.3970645,12.9245333 C9.52463007,12.9245333 6.33522836,14.5388 3.81094809,17.7694667 C1.2683556,21.0430667 0,25.2437333 0,30.3530667 C0,35.7892 1.656254,41.4264 4.9624797,47.2852 C8.31187948,53.0950667 11.6979037,56 15.1146711,56 C16.2600541,56 17.7494931,55.6190667 19.5664135,54.8574667 C21.3884132,54.1152 22.9891958,53.7454667 24.3618108,53.7454667 C25.8217096,53.7454667 27.5207367,54.1048 29.4534118,54.8205333 C31.4975642,55.5394667 33.073886,55.8978667 34.1763622,55.8978667 C37.0577977,55.8978667 39.9443125,53.7005333 42.8503426,49.3028 C44.7347642,46.4989333 46.1196765,43.6961333 47,40.8922667 C44.9926057,40.2838667 43.2199287,38.8716 41.6679341,36.6488 Z" id="Shape"></path>
            </g>
        </g>
        <rect id="Rectangle" x="0" y="0" width="90" height="90"></rect>
    </g>
</svg>