<?xml version="1.0" encoding="UTF-8"?>
<svg width="32px" height="32px" viewBox="0 0 32 32" version="1.1" xmlns="http://www.w3.org/2000/svg" xmlns:xlink="http://www.w3.org/1999/xlink">
    <title>4</title>
    <g id="4" stroke="none" stroke-width="1" fill="none" fill-rule="evenodd" fill-opacity="0.85">
        <g id="iconfinder_musical-instrument-go-11_495321" transform="translate(2.000000, 2.000000)" fill="#000000" fill-rule="nonzero">
            <path d="M2.59511491,25.3877681 C4.24363753,27.035962 6.32761895,28 8.22497517,28 C8.22497517,28 8.22497517,28 8.22497517,28 C9.43803899,28 10.4955818,27.595726 11.2420826,26.849374 C12.2063128,25.885336 13.3571682,23.7084761 14.0103564,21.5316161 C14.1969816,20.9096562 14.6324404,20.4120882 15.1923161,20.1322062 C16.0632337,19.6968342 16.7786303,19.2303642 17.1829849,18.8260902 C17.9916941,18.0175422 18.3027361,16.8047203 18.0539025,15.4675063 C17.8672773,14.4412723 17.3385059,13.4150383 16.5920051,12.5131964 L23.7148669,5.39175451 L23.9325963,5.60944051 C24.2125342,5.8893225 24.6790972,5.9204205 24.9901392,5.64053851 L27.7273088,3.30818856 C28.069455,3.02830656 28.1005592,2.49964058 27.758413,2.15756258 L25.7988484,0.229486628 C25.4878064,-0.0814933653 24.959035,-0.0814933653 24.647993,0.260584627 L22.3151779,2.99720857 C22.0663443,3.30818856 22.0663443,3.77465855 22.3462821,4.05454054 L22.5640115,4.27222654 L15.5033581,11.3936684 C14.3213984,10.4296304 12.9217094,9.83876841 11.6464372,9.83876841 C10.6511028,9.83876841 9.81128939,10.1808464 9.18920539,10.7717084 C8.78485078,11.1759824 8.31828778,11.8912364 7.88282897,12.7619803 C7.60289117,13.3217443 7.10522396,13.7571163 6.48313996,13.9437043 C4.30584593,14.5967623 2.12855191,15.7473883 1.1643217,16.7114263 C0.168987286,17.7065622 -0.204263118,19.1992662 0.106778885,20.8785582 C0.386716688,22.4956541 1.2887385,24.0816521 2.59511491,25.3877681 C4.24363753,27.035962 1.2887385,24.0816521 2.59511491,25.3877681 C4.24363753,27.035962 1.2887385,24.0816521 2.59511491,25.3877681 C4.24363753,27.035962 1.2887385,24.0816521 2.59511491,25.3877681 Z M25.3011812,1.93987659 L26.047682,2.68622857 L24.5235762,3.99234454 L23.9948047,3.46367855 L25.3011812,1.93987659 Z M2.25296871,17.8309542 C2.90615692,17.1778962 4.77240894,16.1205643 6.91859876,15.4675063 C7.94503737,15.1565263 8.78485078,14.4412723 9.25141379,13.4772343 C9.59355999,12.7619803 9.96681039,12.1711184 10.2778524,11.8912364 C10.682207,11.4869624 11.2420826,11.3936684 11.6464372,11.3936684 C12.548459,11.3936684 13.5126892,11.7979424 14.414711,12.4820984 L12.1130002,14.7833503 C11.5842288,14.6278603 10.993249,14.7522523 10.5577902,15.1876243 C9.93570619,15.8095843 9.93570619,16.8047203 10.5577902,17.4266802 C11.1798742,18.0486402 12.1752086,18.0486402 12.7972926,17.4266802 C13.2327514,16.9913082 13.3571682,16.4004463 13.2016472,15.8717803 L15.5033581,13.5705283 C16.0321295,14.2546843 16.4053799,15.0010363 16.5297967,15.7162903 C16.6853177,16.5559363 16.5297967,17.2400922 16.0943379,17.6754642 C15.8144001,17.9553462 15.2234203,18.3285222 14.5080236,18.7016982 C13.5748976,19.1681682 12.8283968,20.0078142 12.5173548,21.0340482 C11.8641666,23.1798101 10.8066238,25.0456901 10.1534356,25.6987481 C9.56245579,26.28961 8.78485078,26.414002 8.22497517,26.414002 C8.22497517,26.414002 8.22497517,26.414002 8.22497517,26.414002 C6.76307776,26.414002 5.05234674,25.6054541 3.71486613,24.2682401 C2.62621911,23.1798101 1.8797183,21.8736941 1.6308847,20.5986762 C1.4131553,19.4480502 1.6308847,18.4529142 2.25296871,17.8309542 Z" id="Shape"></path>
            <path d="M7.26074496,22.8999281 C7.41626597,23.0554181 7.60289117,23.1176141 7.82062057,23.1176141 C8.00724577,23.1176141 8.22497517,23.0554181 8.38049618,22.8999281 C8.69153818,22.5889481 8.69153818,22.0913801 8.38049618,21.8114981 L6.17209795,19.6035402 C5.86105595,19.2925602 5.36338874,19.2925602 5.08345094,19.6035402 C4.77240894,19.9145202 4.77240894,20.4120882 5.08345094,20.6919702 L7.26074496,22.8999281 Z" id="Path"></path>
        </g>
    </g>
</svg>