<?xml version="1.0" encoding="UTF-8"?>
<svg width="90px" height="90px" viewBox="0 0 90 90" version="1.1" xmlns="http://www.w3.org/2000/svg" xmlns:xlink="http://www.w3.org/1999/xlink">
    <title>sketch</title>
    <defs>
        <linearGradient x1="5.26897238%" y1="26.2660387%" x2="87.4083499%" y2="61.3765753%" id="linearGradient-1">
            <stop stop-color="#FFFFFF" stop-opacity="0.2" offset="0%"></stop>
            <stop stop-color="#FFFFFF" stop-opacity="0" offset="100%"></stop>
        </linearGradient>
    </defs>
    <g id="sketch" stroke="none" stroke-width="1" fill="none" fill-rule="evenodd">
        <g transform="translate(4.000000, 4.000000)">
            <rect id="Rectangle" stroke="#979797" stroke-width="0.91" fill="#D8D8D8" opacity="0" x="0.455" y="0.455" width="81.09" height="81.09"></rect>
            <g id="iconfinder_logo_brand_brands_logos_sketch_app_2993662" transform="translate(10.022222, 13.666332)" fill-rule="nonzero">
                <polygon id="Fill-1" fill="#FDB300" points="31.1605201 0 13.5965925 1.91734595 0.0003895 19.4693395 31.16104 57.1259959 62.319356 19.4693395 48.7231499 1.91734595"></polygon>
                <polygon id="Fill-2" fill="#EA6C00" points="0 19.4693395 31.1606489 57.1273382 31.1606489 57.1273382 12.6211513 19.4693395"></polygon>
                <polygon id="Fill-3" fill="#EA6C00" points="49.6988513 19.4693395 31.1616889 57.1273382 31.1616889 57.1273382 62.32 19.4693395"></polygon>
                <polygon id="Fill-5" fill="#FDD231" points="13.5965925 1.91734595 12.62154 19.4693395 31.1605201 0"></polygon>
                <polygon id="Fill-6" fill="#FDD231" points="49.6988513 19.4693395 48.7237988 1.91734595 31.1611688 0"></polygon>
                <polygon id="Fill-7" fill="#FDAD00" points="49.6988513 19.4693395 62.32 19.4693395 48.7237988 1.91734595"></polygon>
                <polygon id="Fill-8" fill="#FDAD00" points="0 19.4693395 12.6211513 19.4693395 13.5962038 1.91734595"></polygon>
                <polygon id="Fill-9" fill="#FEEEB7" points="31.1605201 0 12.62154 19.4693395 49.6982024 19.4693395"></polygon>
                <polygon id="Fill-4" fill="#FDAD00" points="12.6210212 19.4693395 31.1605201 57.1273382 31.1618177 57.1273382 49.6989801 19.4693395"></polygon>
                <polygon id="Fill-1_1_" fill="url(#linearGradient-1)" points="31.1605201 0 13.5965925 1.91734595 0.0003895 19.4693395 31.16104 57.1259959 62.319356 19.4693395 48.7231499 1.91734595"></polygon>
            </g>
        </g>
        <rect id="Rectangle" x="0" y="0" width="90" height="90"></rect>
    </g>
</svg>