<?xml version="1.0" encoding="UTF-8"?>
<svg width="32px" height="32px" viewBox="0 0 32 32" version="1.1" xmlns="http://www.w3.org/2000/svg" xmlns:xlink="http://www.w3.org/1999/xlink">
    <title>1</title>
    <g id="1" stroke="none" stroke-width="1" fill="none" fill-rule="evenodd" fill-opacity="0.85" stroke-opacity="0.85">
        <g id="iconfinder_Resume_Graduate_2316254" transform="translate(1.000000, 3.000000)" fill="#000000" fill-rule="nonzero" stroke="#000000" stroke-width="0.5">
            <path d="M29.6765936,7.03396243 L15.5096502,0.108853091 C15.1779722,-0.0362843635 14.7987104,-0.0362843635 14.4670325,0.108853091 L0.303420119,7.03396243 C0.122460238,7.09162079 0,7.2565333 0,7.44256668 C0,7.62860006 0.122460238,7.79351256 0.303420119,7.85117092 L2.44528342,8.89628615 L2.33202781,8.89628615 L2.33202781,20.4674374 C2.17322331,20.556222 2.04463981,20.6886947 1.96228158,20.8483672 L1.03625048,22.6781328 C0.892313083,22.9613789 0.908252008,23.2971981 1.07840078,23.5662025 C1.24854955,23.835207 1.54877498,23.9992423 1.87234331,24 L3.74772284,24 C4.072842,24.0009344 4.37517376,23.8369126 4.54632586,23.5667318 C4.71747797,23.296551 4.73293175,22.9589164 4.58714671,22.674877 L3.66444666,20.8483672 C3.58208844,20.6886947 3.45350494,20.556222 3.29470043,20.4674374 L3.29470043,9.30326249 L5.62643341,10.4493079 L5.62643341,16.1079068 C5.62643341,17.3906962 6.62574755,18.582323 8.43117509,19.4646477 C10.189968,20.3241817 12.5217009,20.7962742 14.996669,20.7962742 C17.471637,20.7962742 19.8033699,20.3241817 21.5621628,19.4646477 C23.3709214,18.582323 24.3669045,17.3874404 24.3669045,16.1079068 L24.3669045,10.4493079 L29.6965799,7.8446593 C29.8775398,7.78700094 30,7.62208844 30,7.43605506 C30,7.25002168 29.8775398,7.08510917 29.6965799,7.02745081 L29.6765936,7.03396243 Z M3.74772284,23.088365 L1.87234331,23.088365 L2.80836755,21.2585994 L3.74772284,23.088365 Z M23.4208871,16.1079068 C23.4208871,17.0260455 22.6081116,17.927905 21.1357888,18.6474392 C19.5069067,19.441857 17.3217398,19.8846472 14.9900069,19.8846472 C12.6582739,19.8846472 10.473107,19.441857 8.84422493,18.6474392 C7.3719021,17.927905 6.55912661,17.0195338 6.55912661,16.1079068 L6.55912661,10.8986097 L14.4670325,14.7730245 C14.7987104,14.9181619 15.1779722,14.9181619 15.5096502,14.7730245 L23.4208871,10.9051213 L23.4208871,16.1079068 Z M15.0932693,13.9493043 C15.0579685,13.954897 15.0219766,13.954897 14.9866758,13.9493043 C14.9524214,13.9539829 14.9176678,13.9539829 14.8834134,13.9493043 L1.55922488,7.43768296 L14.8834134,0.926061575 C14.9187142,0.920468966 14.954706,0.920468966 14.9900069,0.926061575 C15.0242613,0.921383062 15.0590149,0.921383062 15.0932693,0.926061575 L28.4174578,7.43768296 L15.0932693,13.9493043 Z" id="Shape"></path>
        </g>
    </g>
</svg>