<?xml version="1.0" encoding="UTF-8"?>
<svg width="32px" height="32px" viewBox="0 0 32 32" version="1.1" xmlns="http://www.w3.org/2000/svg" xmlns:xlink="http://www.w3.org/1999/xlink">
    <title>3</title>
    <g id="3" stroke="none" stroke-width="1" fill="none" fill-rule="evenodd" stroke-linecap="round" stroke-linejoin="round" stroke-opacity="0.85">
        <g id="iconfinder_cell-12-0_233549" transform="translate(3.000000, 4.000000)" stroke="#000000" stroke-width="1.288">
            <path d="M13.5,4.20041638 C13.5,1.88059879 19.2770357,0 27,0 L27,19.8000595 C19.2770357,19.8000595 13.5,21.6806583 13.5,24 C13.5,21.6801824 7.72103571,19.8000595 0,19.8000595 L0,0 C7.72102463,0 13.5,1.88059879 13.5,4.20041638 Z" id="Path"></path>
            <line x1="13.5" y1="4.20041638" x2="13.5" y2="24" id="Path"></line>
            <path d="M10.4600927,6.8875979 C8.50211052,6.14906315 5.73461052,5.61134133 2.55728909,5.40005948" id="Path"></path>
            <path d="M10.4600927,10.4874789 C8.50211052,9.74846833 5.73461052,9.21122237 2.55728909,8.99946466" id="Path"></path>
            <path d="M16.5399073,6.8875979 C18.4978895,6.14906315 21.2653895,5.61134133 24.4427109,5.40005948" id="Path"></path>
            <path d="M16.5399073,10.4874789 C18.4978895,9.74846833 21.2653895,9.21122237 24.4427109,8.99946466" id="Path"></path>
            <path d="M10.4600927,14.0878358 C8.50211052,13.3493011 5.73461052,12.8115793 2.55728909,12.6002974" id="Path"></path>
            <path d="M10.4600927,17.6877169 C8.50211052,16.9487063 5.73461052,16.4119362 2.55728909,16.2001784" id="Path"></path>
            <path d="M16.5399073,14.0878358 C18.4983716,13.3493011 21.2653895,12.8115793 24.4427109,12.6002974" id="Path"></path>
            <path d="M16.5399073,17.6877169 C18.4983716,16.9487063 21.2653895,16.4119362 24.4427109,16.2001784" id="Path"></path>
        </g>
    </g>
</svg>