<?xml version="1.0" encoding="UTF-8"?>
<svg width="32px" height="32px" viewBox="0 0 32 32" version="1.1" xmlns="http://www.w3.org/2000/svg" xmlns:xlink="http://www.w3.org/1999/xlink">
    <title>4</title>
    <g id="4" stroke="none" stroke-width="1" fill="none" fill-rule="evenodd" fill-opacity="0.85">
        <g id="iconfinder_clock_1814097" transform="translate(2.000000, 2.000000)" fill="#000000" fill-rule="nonzero">
            <path d="M13.9997793,28 C6.29684396,28 0,21.7030568 0,14 C0,6.29694323 6.29684396,0 13.9997793,0 C21.7027146,0 27.9995586,6.29694323 27.9995586,14 C28.060693,21.7030568 21.763849,28 13.9997793,28 L13.9997793,28 Z M13.9997793,1.46724891 C7.09159126,1.46724891 1.52836018,7.09170306 1.52836018,13.9388646 C1.52836018,20.7860262 7.15272566,26.4104803 13.9997793,26.4104803 C20.8468329,26.4104803 26.4711984,20.7860262 26.4711984,13.9388646 C26.4711984,7.09170306 20.9079673,1.46724891 13.9997793,1.46724891 L13.9997793,1.46724891 Z" id="Fill-131"></path>
            <polyline id="Fill-132" points="18.4014566 21.1528384 13.205032 15.9563319 13.205032 6.48034934 14.855661 6.48034934 14.855661 15.2838428 19.5630104 19.9912664 18.4014566 21.1528384"></polyline>
        </g>
    </g>
</svg>