<?xml version="1.0" encoding="UTF-8"?>
<svg width="32px" height="32px" viewBox="0 0 32 32" version="1.1" xmlns="http://www.w3.org/2000/svg" xmlns:xlink="http://www.w3.org/1999/xlink">
    <title>2</title>
    <g id="2" stroke="none" stroke-width="1" fill="none" fill-rule="evenodd" stroke-opacity="0.85">
        <g id="iconfinder_bank4_5029915" transform="translate(3.000000, 4.000000)" fill="#000000" fill-rule="nonzero" stroke="#000000" stroke-width="0.3">
            <g id="XMLID_48_" transform="translate(0.614405, 0.000000)">
                <path d="M24.1874184,8.42539544 C23.9767791,8.42539544 23.7661397,8.42539544 23.5555003,8.42539544 C22.9837649,8.42539544 22.4150385,8.42539544 21.8433031,8.42539544 C20.9947273,8.42539544 20.1491607,8.42539544 19.3005849,8.42539544 C18.2714611,8.42539544 17.2423373,8.42539544 16.2102044,8.42539544 C15.0787701,8.42539544 13.9443266,8.42539544 12.8128922,8.42539544 C11.6694213,8.42539544 10.5259504,8.42539544 9.38247955,8.42539544 C8.32025528,8.42539544 7.25803101,8.42539544 6.19881587,8.42539544 C5.29908483,8.42539544 4.39634465,8.42539544 3.49661361,8.42539544 C2.85265895,8.42539544 2.20569516,8.42539544 1.5617405,8.42539544 C1.25480884,8.42539544 0.947877184,8.41659819 0.640945524,8.42539544 C0.628908989,8.42539544 0.613863319,8.42539544 0.601826783,8.42539544 C0.803438756,8.62186751 1.00204159,8.81540716 1.20365357,9.01187923 C1.20365357,8.18493709 1.20365357,7.35799496 1.20365357,6.53105282 C1.10435215,6.70113312 1.00505073,6.868281 0.905749309,7.0383613 C1.29392758,6.84188923 1.68210586,6.64248474 2.07028414,6.44601267 C3.00311565,5.97389323 3.93594716,5.49884136 4.86576954,5.02672192 C5.9881765,4.45490023 7.11359258,3.88601096 8.23599953,3.31418927 C9.21396805,2.81567805 10.1919366,2.32009925 11.1729142,1.82158804 C11.6423391,1.58112969 12.1268097,1.35826585 12.5902163,1.1031454 C12.5962346,1.10021298 12.605262,1.09728056 12.6112802,1.09141573 C12.4096683,1.09141573 12.2050472,1.09141573 12.0034352,1.09141573 C12.3976317,1.28788779 12.7888191,1.48435986 13.1830157,1.68083193 C14.1308929,2.15588379 15.0787701,2.62800324 16.0266472,3.10305511 C17.1701181,3.67487679 18.313589,4.24669848 19.4570599,4.81852017 C20.4500741,5.31409897 21.4400792,5.80967777 22.4330934,6.30525657 C22.9115456,6.5427825 23.3839797,6.8067002 23.8714594,7.0236992 C23.8774776,7.02663162 23.8834959,7.02956404 23.8925233,7.03249646 C23.7932219,6.86241616 23.6939205,6.69526828 23.594619,6.52518798 C23.594619,7.35213012 23.594619,8.17907226 23.594619,9.00601439 C23.594619,9.31391838 23.8714594,9.60716027 24.1964458,9.59249817 C24.5214323,9.57783608 24.7982726,9.33444531 24.7982726,9.00601439 C24.7982726,8.17907226 24.7982726,7.35213012 24.7982726,6.52518798 C24.7982726,6.32871592 24.6869347,6.11171692 24.5003684,6.01787951 C24.1061718,5.82140744 23.7149844,5.62493538 23.3207879,5.42846331 C22.3819381,4.95927628 21.4400792,4.48715684 20.5012294,4.01796981 C19.3637768,3.44908054 18.223315,2.88019127 17.0858624,2.30836958 C16.0928482,1.81279078 15.099834,1.31427956 14.1068198,0.818700767 C13.616331,0.572377578 13.1318604,0.320189551 12.6353533,0.0826636183 C12.4217048,-0.0199710439 12.2140746,-0.0317007195 11.9944078,0.0738663616 C11.9492708,0.094393294 11.9071429,0.117852645 11.8620059,0.141311997 C11.6303026,0.258608754 11.3985993,0.37590551 11.166896,0.493202267 C10.291238,0.938929943 9.41558003,1.3817252 8.53992206,1.82745288 C7.40547857,2.40220698 6.27404422,2.97989351 5.13960073,3.55464762 C4.1164952,4.07368577 3.09038053,4.59565634 2.067275,5.11469448 C1.50456696,5.40207154 0.938849782,5.68651617 0.37614174,5.97389323 C0.349059534,5.9856229 0.324986463,6.000285 0.297904258,6.01201467 C0.111337955,6.10585208 0,6.31991866 0,6.51932315 C0,7.34626528 0,8.17320742 0,9.00014955 C0,9.3168508 0.27684032,9.58663334 0.601826783,9.58663334 C0.812466158,9.58663334 1.02310553,9.58663334 1.23374491,9.58663334 C1.80548035,9.58663334 2.37420666,9.58663334 2.9459421,9.58663334 C3.79451787,9.58663334 4.6400845,9.58663334 5.48866027,9.58663334 C6.51778406,9.58663334 7.54690786,9.58663334 8.5790408,9.58663334 C9.71047515,9.58663334 10.8449186,9.58663334 11.976353,9.58663334 C13.1198239,9.58663334 14.2632948,9.58663334 15.4067657,9.58663334 C16.4689899,9.58663334 17.5312142,9.58663334 18.5904293,9.58663334 C19.4901604,9.58663334 20.3929006,9.58663334 21.2926316,9.58663334 C21.9365863,9.58663334 22.58355,9.58663334 23.2275047,9.58663334 C23.5344364,9.58663334 23.841368,9.59249817 24.1482997,9.58663334 C24.1603362,9.58663334 24.1753819,9.58663334 24.1874184,9.58663334 C24.5033775,9.58663334 24.8042909,9.3168508 24.7892452,9.00014955 C24.7741995,8.69517799 24.5244414,8.42539544 24.1874184,8.42539544 Z" id="XMLID_52_"></path>
            </g>
            <g id="XMLID_42_" transform="translate(0.000000, 22.820966)">
                <path d="M25.3976317,0.0026065946 C25.1749558,0.0026065946 24.9522799,0.0026065946 24.7326131,0.0026065946 C24.1307864,0.0026065946 23.5289596,0.0026065946 22.9301419,0.0026065946 C22.0424474,0.0026065946 21.1547529,0.0026065946 20.2640493,0.0026065946 C19.1807611,0.0026065946 18.0974729,0.0026065946 17.0141846,0.0026065946 C15.8225676,0.0026065946 14.6309506,0.0026065946 13.4393336,0.0026065946 C12.2416983,0.0026065946 11.044063,0.0026065946 9.84341852,0.0026065946 C8.72702984,0.0026065946 7.60763202,0.0026065946 6.49124334,0.0026065946 C5.54637529,0.0026065946 4.60150724,0.0026065946 3.65663919,0.0026065946 C2.97356579,0.0026065946 2.29350152,0.0026065946 1.61042812,0.0026065946 C1.28845079,0.0026065946 0.966473465,-0.00325824324 0.644496136,0.0026065946 C0.629450466,0.0026065946 0.617413931,0.0026065946 0.602368261,0.0026065946 C0.2864092,0.0026065946 -0.014504192,0.272389135 0.000541477593,0.589090379 C0.0155871472,0.905791622 0.265345262,1.17557416 0.602368261,1.17557416 C0.825044171,1.17557416 1.04772008,1.17557416 1.26738686,1.17557416 C1.86921364,1.17557416 2.47104042,1.17557416 3.06985807,1.17557416 C3.95755258,1.17557416 4.84524708,1.17557416 5.73595072,1.17557416 C6.81923893,1.17557416 7.90252714,1.17557416 8.98581535,1.17557416 C10.1774324,1.17557416 11.3690494,1.17557416 12.5606664,1.17557416 C13.7583017,1.17557416 14.955937,1.17557416 16.1565815,1.17557416 C17.2729702,1.17557416 18.392368,1.17557416 19.5087567,1.17557416 C20.4536247,1.17557416 21.3984928,1.17557416 22.3433608,1.17557416 C23.0264342,1.17557416 23.7064985,1.17557416 24.3895719,1.17557416 C24.7115492,1.17557416 25.0335265,1.181439 25.3555039,1.17557416 C25.3705495,1.17557416 25.3825861,1.17557416 25.3976317,1.17557416 C25.7135908,1.17557416 26.0145042,0.905791622 25.9994585,0.589090379 C25.9844129,0.272389135 25.7346547,0.0026065946 25.3976317,0.0026065946 L25.3976317,0.0026065946 Z" id="XMLID_46_"></path>
            </g>
            <g id="XMLID_36_" transform="translate(9.362626, 11.357287)">
                <path d="M0.00534957141,0.587011457 C0.00534957141,0.965293498 0.00534957141,1.34650796 0.00534957141,1.72479 C0.00534957141,2.63677228 0.00534957141,3.54875457 0.00534957141,4.46073685 C0.00534957141,5.56332636 0.00534957141,6.6688483 0.00534957141,7.77143781 C0.00534957141,8.72740638 0.00534957141,9.68044253 0.00534957141,10.6364111 C0.00534957141,11.1026657 -0.00668696426,11.5689203 0.00534957141,12.0351749 C0.00534957141,12.0410398 0.00534957141,12.0469046 0.00534957141,12.0557019 C0.00534957141,12.3636058 0.282189892,12.6568477 0.607176355,12.6421856 C0.932162818,12.6275235 1.20900314,12.3841328 1.20900314,12.0557019 C1.20900314,11.6774198 1.20900314,11.2962054 1.20900314,10.9179233 C1.20900314,10.005941 1.20900314,9.09395874 1.20900314,8.18197646 C1.20900314,7.07938695 1.20900314,5.97386501 1.20900314,4.8712755 C1.20900314,3.91530693 1.20900314,2.96227078 1.20900314,2.00630221 C1.20900314,1.54004761 1.22103967,1.073793 1.20900314,0.60753839 C1.20900314,0.601673552 1.20900314,0.595808714 1.20900314,0.587011457 C1.20900314,0.279107471 0.932162818,-0.0141344215 0.607176355,0.000527673138 C0.282189892,0.0151897677 0.00534957141,0.258580538 0.00534957141,0.587011457 L0.00534957141,0.587011457 Z" id="XMLID_40_"></path>
            </g>
            <g id="XMLID_30_" transform="translate(3.305239, 11.354354)">
                <path d="M1.20900314,12.0557019 C1.20900314,11.6774198 1.20900314,11.2962054 1.20900314,10.9179233 C1.20900314,10.005941 1.20900314,9.09395874 1.20900314,8.18197646 C1.20900314,7.07938695 1.20900314,5.97386501 1.20900314,4.8712755 C1.20900314,3.91530693 1.20900314,2.96227078 1.20900314,2.00630221 C1.20900314,1.54004761 1.22103967,1.073793 1.20900314,0.60753839 C1.20900314,0.601673552 1.20900314,0.595808714 1.20900314,0.587011457 C1.20900314,0.279107471 0.932162818,-0.0141344215 0.607176355,0.000527673138 C0.282189892,0.0151897677 0.00534957141,0.258580538 0.00534957141,0.587011457 C0.00534957141,0.965293498 0.00534957141,1.34650796 0.00534957141,1.72479 C0.00534957141,2.63677228 0.00534957141,3.54875457 0.00534957141,4.46073685 C0.00534957141,5.56332636 0.00534957141,6.6688483 0.00534957141,7.77143781 C0.00534957141,8.72740638 0.00534957141,9.68044253 0.00534957141,10.6364111 C0.00534957141,11.1026657 -0.00668696426,11.5689203 0.00534957141,12.0351749 C0.00534957141,12.0410398 0.00534957141,12.0469046 0.00534957141,12.0557019 C0.00534957141,12.3636058 0.282189892,12.6568477 0.607176355,12.6421856 C0.932162818,12.630456 1.20900314,12.3870652 1.20900314,12.0557019 L1.20900314,12.0557019 Z" id="XMLID_34_"></path>
            </g>
            <g id="XMLID_24_" transform="translate(21.480408, 11.357287)">
                <path d="M0.00534957141,0.587011457 C0.00534957141,0.965293498 0.00534957141,1.34650796 0.00534957141,1.72479 C0.00534957141,2.63677228 0.00534957141,3.54875457 0.00534957141,4.46073685 C0.00534957141,5.56332636 0.00534957141,6.6688483 0.00534957141,7.77143781 C0.00534957141,8.72740638 0.00534957141,9.68044253 0.00534957141,10.6364111 C0.00534957141,11.1026657 -0.00668696426,11.5689203 0.00534957141,12.0351749 C0.00534957141,12.0410398 0.00534957141,12.0469046 0.00534957141,12.0557019 C0.00534957141,12.3636058 0.282189892,12.6568477 0.607176355,12.6421856 C0.932162818,12.6275235 1.20900314,12.3841328 1.20900314,12.0557019 C1.20900314,11.6774198 1.20900314,11.2962054 1.20900314,10.9179233 C1.20900314,10.005941 1.20900314,9.09395874 1.20900314,8.18197646 C1.20900314,7.07938695 1.20900314,5.97386501 1.20900314,4.8712755 C1.20900314,3.91530693 1.20900314,2.96227078 1.20900314,2.00630221 C1.20900314,1.54004761 1.22103967,1.073793 1.20900314,0.60753839 C1.20900314,0.601673552 1.20900314,0.595808714 1.20900314,0.587011457 C1.20900314,0.279107471 0.932162818,-0.0141344215 0.607176355,0.000527673138 C0.282189892,0.0151897677 0.00534957141,0.258580538 0.00534957141,0.587011457 L0.00534957141,0.587011457 Z" id="XMLID_28_"></path>
            </g>
            <g id="XMLID_18_" transform="translate(15.423021, 11.357287)">
                <path d="M0.00534957141,0.587011457 C0.00534957141,0.965293498 0.00534957141,1.34650796 0.00534957141,1.72479 C0.00534957141,2.63677228 0.00534957141,3.54875457 0.00534957141,4.46073685 C0.00534957141,5.56332636 0.00534957141,6.6688483 0.00534957141,7.77143781 C0.00534957141,8.72740638 0.00534957141,9.68044253 0.00534957141,10.6364111 C0.00534957141,11.1026657 -0.00668696426,11.5689203 0.00534957141,12.0351749 C0.00534957141,12.0410398 0.00534957141,12.0469046 0.00534957141,12.0557019 C0.00534957141,12.3636058 0.282189892,12.6568477 0.607176355,12.6421856 C0.932162818,12.6275235 1.20900314,12.3841328 1.20900314,12.0557019 C1.20900314,11.6774198 1.20900314,11.2962054 1.20900314,10.9179233 C1.20900314,10.005941 1.20900314,9.09395874 1.20900314,8.18197646 C1.20900314,7.07938695 1.20900314,5.97386501 1.20900314,4.8712755 C1.20900314,3.91530693 1.20900314,2.96227078 1.20900314,2.00630221 C1.20900314,1.54004761 1.22103967,1.073793 1.20900314,0.60753839 C1.20900314,0.601673552 1.20900314,0.595808714 1.20900314,0.587011457 C1.20900314,0.279107471 0.932162818,-0.0141344215 0.607176355,0.000527673138 C0.279180758,0.0151897677 0.00534957141,0.258580538 0.00534957141,0.587011457 L0.00534957141,0.587011457 Z" id="XMLID_22_"></path>
            </g>
            <g id="XMLID_12_" transform="translate(11.043633, 3.461699)">
                <path d="M2.73573315,1.92277774 C2.73573315,1.95503435 2.73272401,1.99022338 2.73272401,2.02541241 C2.73272401,2.11045255 2.76582448,1.87879146 2.73573315,2.00781789 C2.72369661,2.05766901 2.71466921,2.11045255 2.6966144,2.16030368 C2.69360527,2.17203335 2.687587,2.18376303 2.68457787,2.19842512 C2.66652307,2.24534382 2.66652307,2.24827624 2.687587,2.20135754 C2.69360527,2.18962787 2.6966144,2.17789819 2.70263267,2.16616851 C2.69059614,2.18962787 2.68156874,2.21308722 2.6695322,2.23654657 C2.66351393,2.24827624 2.57925818,2.40369445 2.56722165,2.40076203 C2.56120338,2.39782961 2.6514774,2.30692462 2.58828558,2.37143784 C2.56722165,2.39489719 2.54615771,2.41835654 2.52208464,2.44181589 C2.5100481,2.45354557 2.41074668,2.56204507 2.39269188,2.55618023 C2.38667361,2.55324781 2.5010207,2.48580218 2.41977408,2.53272088 C2.39570101,2.54445055 2.37463708,2.55911265 2.35357314,2.57377474 C2.32649093,2.59136926 2.29639959,2.60309893 2.26630825,2.61776103 C2.24825345,2.62655828 2.23019865,2.63535554 2.21214384,2.64122038 C2.29038133,2.60896377 2.305427,2.60309893 2.26329912,2.61776103 C2.20612558,2.62362587 2.1459429,2.65295005 2.08876935,2.66467973 C2.09177849,2.66467973 2.01053187,2.68227424 2.00752274,2.67934183 C2.01655014,2.6910715 2.14895203,2.66761215 2.02256841,2.67054457 C1.97141313,2.67347699 1.88414825,2.65295005 1.8360021,2.66761215 C1.90822132,2.64708522 1.94132179,2.68813908 1.87512085,2.67347699 C1.8360021,2.66467973 1.79688336,2.65881489 1.75776462,2.64708522 C1.72767328,2.63828796 1.69156368,2.62069345 1.66147234,2.61776103 C1.58323486,2.60896377 1.78785596,2.68227424 1.67651801,2.62655828 C1.631381,2.60309893 1.58323486,2.57963958 1.53809785,2.55324781 C1.52606131,2.54738297 1.51703391,2.53858572 1.50499737,2.53272088 C1.4628695,2.50339669 1.4628695,2.50339669 1.50198824,2.53272088 C1.51101564,2.54151814 1.52305218,2.54738297 1.53207958,2.55618023 C1.51101564,2.54151814 1.49296084,2.52392362 1.4718969,2.50632911 C1.42375076,2.46527524 1.37861375,2.41835654 1.33648587,2.37143784 C1.25824839,2.28933011 1.36356808,2.39782961 1.35754981,2.40076203 C1.35454068,2.40369445 1.30940367,2.33038397 1.3033854,2.32158672 C1.29736713,2.30985704 1.21010225,2.18376303 1.22213879,2.16910093 C1.22815705,2.16030368 1.26426666,2.29226253 1.24019359,2.20135754 C1.23116619,2.16910093 1.21912965,2.13977674 1.21311138,2.10752014 C1.20408398,2.07526353 1.19806571,2.04300692 1.19204745,2.01075031 C1.16496524,1.89638597 1.19204745,2.13391191 1.19505658,2.00781789 C1.19505658,1.95503435 1.19505658,1.89931839 1.19505658,1.84360243 C1.19806571,1.72337326 1.19204745,1.8846563 1.18602918,1.87879146 C1.18001091,1.87292662 1.20107485,1.79375131 1.20408398,1.78202164 C1.20709312,1.77322438 1.24320272,1.61194134 1.25523926,1.61487376 C1.26125753,1.61487376 1.19806571,1.7292381 1.24019359,1.64713037 C1.25824839,1.61194134 1.2763032,1.57968473 1.294358,1.5444957 C1.30940367,1.51810393 1.33648587,1.49171216 1.34551328,1.46532039 C1.37259548,1.39494234 1.24922099,1.56795505 1.33347674,1.47705007 C1.36958635,1.43892862 1.40268682,1.40080718 1.44180556,1.36561815 C1.46587863,1.34509122 1.49296084,1.32456428 1.51402478,1.30403735 C1.56818919,1.24832139 1.39065028,1.37734782 1.50198824,1.31576703 C1.55916178,1.28351042 1.61332619,1.25125381 1.67350887,1.22192962 C1.77581943,1.16914608 1.6404084,1.23952414 1.6404084,1.23659172 C1.6404084,1.23072688 1.72466415,1.21019995 1.73369155,1.20726753 C1.7908651,1.18967301 1.85405691,1.18674059 1.91123045,1.16914608 C1.78484683,1.20433511 1.8269747,1.17794334 1.87512085,1.17794334 C1.91123045,1.17794334 1.94433093,1.17501092 1.98044053,1.17501092 C1.99247707,1.17501092 2.08275109,1.17501092 2.08576022,1.18087576 C2.08275109,1.1720785 1.93831266,1.15155157 2.08576022,1.18380818 C2.10080589,1.18674059 2.27834479,1.22486204 2.27834479,1.23952414 C2.27834479,1.24538897 2.16098857,1.18380818 2.24524432,1.22486204 C2.28135392,1.24245655 2.3144544,1.26005107 2.350564,1.27764558 C2.37162794,1.28937526 2.39570101,1.30696977 2.41676495,1.31869945 C2.52509377,1.37734782 2.33551833,1.24245655 2.41977408,1.31869945 C2.47393849,1.36561815 2.52208464,1.41546927 2.57323991,1.46532039 C2.65749566,1.55329296 2.56120338,1.4506583 2.56421251,1.4506583 C2.57023078,1.44772588 2.62439519,1.54156328 2.62740432,1.54742812 C2.63944086,1.57088747 2.65448653,1.59141441 2.66652307,1.61487376 C2.67555047,1.63246827 2.68457787,1.65006278 2.69360527,1.6676573 C2.71166007,1.70871116 2.70564181,1.69111665 2.6695322,1.61780618 C2.68457787,1.61780618 2.72068748,1.79081889 2.72670574,1.80548099 C2.72971488,1.81721066 2.73272401,1.83187276 2.73573315,1.84360243 C2.74476055,1.89638597 2.74476055,1.89638597 2.73573315,1.84360243 C2.72971488,1.79081889 2.72670574,1.79375131 2.73272401,1.84653485 C2.73573315,1.8699942 2.73573315,1.89638597 2.73573315,1.92277774 C2.74175141,2.23068173 3.00956433,2.52392362 3.33755993,2.50926153 C3.65953726,2.49459943 3.94540498,2.25120866 3.93938671,1.92277774 C3.92735018,1.09876803 3.39774261,0.38619023 2.60634039,0.104678014 C1.86609344,-0.15630727 0.966362402,0.0841510812 0.469855306,0.676499703 C-0.0597522635,1.30696977 -0.165071951,2.20135754 0.274261601,2.9080705 C0.713595153,3.61771588 1.55013438,3.9461468 2.37463708,3.80245827 C3.28640465,3.64117523 3.92735018,2.80250342 3.94239585,1.92277774 C3.94841411,1.61487376 3.66254639,1.32163187 3.34056906,1.33629396 C3.0065552,1.35095605 2.73874228,1.59434682 2.73573315,1.92277774 Z" id="XMLID_16_"></path>
            </g>
        </g>
    </g>
</svg>