<?xml version="1.0" encoding="UTF-8"?>
<svg width="30px" height="36px" viewBox="0 0 30 36" version="1.1" xmlns="http://www.w3.org/2000/svg" xmlns:xlink="http://www.w3.org/1999/xlink">
    <title>iconfinder_4202254_favorite_heart_kind_like_love_icon</title>
    <g id="Page-1" stroke="none" stroke-width="1" fill="none" fill-rule="evenodd">
        <g id="For-Client" transform="translate(-80.000000, -785.000000)" fill-rule="nonzero">
            <g id="Group-4" transform="translate(38.000000, 297.000000)">
                <g id="Group-3" transform="translate(1.000000, 488.000000)">
                    <g id="iconfinder_4202254_favorite_heart_kind_like_love_icon" transform="translate(41.000000, 0.000000)">
                        <path d="M18.303216,0.417186462 C19.3303133,1.45054606 19.0712148,3.33394654 16.7073955,4.73155245 C16.5532041,4.82246487 16.3702722,4.85370772 16.194049,4.81922661 C13.4902892,4.28361716 12.6074948,2.59309984 13.2271486,1.27918292 C13.6176153,0.446278344 15.1075328,0.0238482733 15.7651823,0.869106933 C16.1006765,-0.143529679 17.6447582,-0.239971261 18.303216,0.417186462 Z" id="Path" fill="#FFBA9F"></path>
                        <path d="M13.5581964,8.22138275 C14.9207879,9.83219629 14.3221531,12.5186124 10.7400453,14.2593431 C10.5069063,14.3731252 10.2390819,14.3970009 9.98902333,14.3262943 C6.14902962,13.2383376 5.07827769,10.699772 6.13084017,8.87415677 C6.79697803,7.71486519 8.99547548,7.28008103 9.84957093,8.57686164 C10.4498226,7.15016386 12.6923789,7.19599354 13.5581964,8.22138275 Z" id="Path" fill="#FF9280"></path>
                        <path d="M29.643728,8.10421819 C30.8620165,10.8113573 28.9945669,14.2302512 23.4431487,15.2261501 C23.0823969,15.2922469 22.709629,15.2219585 22.3990746,15.0292817 C17.615655,12.0878135 17.1617274,8.22975165 19.3020186,6.15426504 C20.6686522,4.83596441 23.8218933,5.08304615 24.4670122,7.17088684 C25.8453679,5.46363173 28.8712829,6.38022528 29.643728,8.10421819 Z" id="Path" fill="#FF8383"></path>
                        <path d="M22.5389312,17.7420001 C26.6772318,22.2906952 25.2342026,30.1825657 14.9842488,35.6390869 C14.3164732,35.9947488 13.5380792,36.0918151 12.8015156,35.9112754 C1.49495724,33.1495391 -1.90040562,25.8558456 0.964229688,20.4367851 C2.78640776,16.9848141 9.14422471,15.4812022 11.7631004,19.171886 C13.3629631,14.9523676 19.8990366,14.845166 22.5389312,17.7420001 Z" id="Path" fill="#FF5551"></path>
                    </g>
                </g>
            </g>
        </g>
    </g>
</svg>