<?xml version="1.0" encoding="UTF-8"?>
<svg width="50px" height="50px" viewBox="0 0 50 50" version="1.1" xmlns="http://www.w3.org/2000/svg" xmlns:xlink="http://www.w3.org/1999/xlink">
    <title>safety</title>
    <g id="safety" stroke="none" stroke-width="1" fill="none" fill-rule="evenodd">
        <rect id="Rectangle" stroke="#979797" fill="#D8D8D8" opacity="0" x="1.5" y="0.5" width="49" height="49"></rect>
        <g id="iconfinder_cell-10-4_234377" transform="translate(1.000000, 6.000000)" stroke="#000000" stroke-linecap="round" stroke-linejoin="round" stroke-opacity="0.85" stroke-width="2">
            <g id="Group" transform="translate(1.660862, 1.660862)">
                <path d="M14.477069,9.77017241 L14.477069,1.19444684e-15 C7.14775862,1.37306897 1.37306897,7.14775862 0,14.477069 L9.77017241,14.477069" id="Path"></path>
                <path d="M25.9081034,14.477069 L35.6782759,14.477069 C34.3052069,7.14775862 28.5305172,1.37306897 21.2012069,0 L21.2012069,9.77017241" id="Path"></path>
                <path d="M21.2012069,25.9081034 L21.2012069,35.6782759 C28.5305172,34.3052069 34.3052069,28.5305172 35.6782759,21.2012069 L25.9081034,21.2012069" id="Path"></path>
                <path d="M9.77017241,21.2012069 L1.19444684e-15,21.2012069 C1.37306897,28.5305172 7.14775862,34.3052069 14.477069,35.6782759 L14.477069,25.9081034" id="Path"></path>
            </g>
            <circle id="Oval" cx="19.5" cy="19.5" r="8.74137931"></circle>
            <polyline id="Path" points="1.66084237 22.862069 0 22.862069 0 16.137931 1.66084237 16.137931"></polyline>
            <polyline id="Path" points="22.862069 37.3391379 22.862069 39 16.137931 39 16.137931 37.3391379"></polyline>
            <polyline id="Path" points="37.3391581 16.137931 39 16.137931 39 22.862069 37.3391581 22.862069"></polyline>
            <polyline id="Path" points="16.137931 1.66086288 16.137931 0 22.862069 0 22.862069 1.66086288"></polyline>
        </g>
    </g>
</svg>