<?xml version="1.0" encoding="UTF-8"?>
<svg width="50px" height="50px" viewBox="0 0 50 50" version="1.1" xmlns="http://www.w3.org/2000/svg" xmlns:xlink="http://www.w3.org/1999/xlink">
    <title>construction</title>
    <g id="construction" stroke="none" stroke-width="1" fill="none" fill-rule="evenodd">
        <rect id="Rectangle" stroke="#979797" fill="#D8D8D8" opacity="0" x="0.5" y="0.5" width="49" height="49"></rect>
        <g id="iconfinder_trowel_tool_mason_construction_equipment_2830645" transform="translate(1.000000, 6.000000)" stroke="#000000" stroke-linejoin="round" stroke-opacity="0.85" stroke-width="2">
            <path d="M37.4181773,1.58307293 C34.7692899,-1.05756307 33.2713809,0.359763023 33.0969712,0.547479991 C33.0837488,0.560708368 33.0774524,0.567637518 33.0774524,0.567637518 C33.0774524,0.567637518 33.0698967,0.576456436 33.0554151,0.590314735 L29.5074045,4.14055913 C27.4069319,6.24135137 24.3242238,10.9046692 24.3242238,10.9046692 C23.6945858,11.8306556 24.4287437,12.3830978 24.4287437,12.3830978 L26.6236621,14.5790084 C26.6236621,14.5790084 27.1758547,15.3134982 28.0995337,14.6835755 C28.0995337,14.6835755 32.7626333,11.598844 34.8618467,9.4986817 L38.4111165,5.94843731 C38.4243389,5.93394908 38.4318946,5.92513017 38.4318946,5.92513017 C38.4318946,5.92513017 38.4394503,5.91883094 38.4526727,5.90875218 C38.6403048,5.73111397 40.0569905,4.23189792 37.4181773,1.58307293 Z" id="Path"></path>
            <path d="M22.250196,14.0568024 L17.8559519,18.4524031 L10.0427729,10.6338024 L0.292827317,32.6136955 C-0.446367786,34.6981098 0.300382974,36.1645699 1.56658515,37.4326043 C2.83467624,38.7000088 4.30047368,39.4464672 6.38394608,38.7069379 L28.3557964,28.9538446 L20.5407286,21.1377636 L26.810035,14.8637334" id="Path"></path>
            <path d="M13.5819686,25.3884821 C12.8635515,24.6684804 12.854107,23.457139 13.5895242,22.7226491 L18.5982951,17.711614" id="Path" stroke-linecap="round"></path>
        </g>
    </g>
</svg>