<?xml version="1.0" encoding="UTF-8"?>
<svg width="50px" height="50px" viewBox="0 0 50 50" version="1.1" xmlns="http://www.w3.org/2000/svg" xmlns:xlink="http://www.w3.org/1999/xlink">
    <title>oil</title>
    <g id="oil" stroke="none" stroke-width="1" fill="none" fill-rule="evenodd">
        <rect id="Rectangle" stroke="#979797" fill="#D8D8D8" opacity="0" x="0.5" y="0.5" width="49" height="49"></rect>
        <g id="iconfinder_industry-line_oil-drum_1790296" opacity="0.85" transform="translate(1.000000, 10.000000)" fill="#000000" fill-rule="nonzero">
            <path d="M21,11.937231 C20.9925846,11.3906998 20.8112972,10.860724 20.4824068,10.4240986 L20.4824068,6.19022814 C20.8076202,5.76372286 20.9888707,5.24494473 21,4.70876502 C21,2.06815401 16.3874541,0 10.5,0 C4.61254591,0 0,2.06815401 0,4.70875387 C0.011129272,5.24493358 0.192379849,5.76371171 0.517593218,6.19021698 L0.517593218,10.4240986 C0.188702804,10.860724 0.00741540133,11.3906998 0,11.937231 C0.011129272,12.4734107 0.192379849,12.9921889 0.517593218,13.4186941 L0.517593218,17.6008384 C0.188845923,18.0377438 0.00758154124,18.5678397 0,19.1145063 C0.0111295512,19.6506655 0.192380845,20.1694222 0.517593218,20.5959025 L0.517593218,24.7775671 C0.188845923,25.2144725 0.00758154124,25.7445684 0,26.291235 C0,28.931846 4.61254591,31 10.5,31 C16.3874541,31 21,28.931846 21,26.2912238 C20.9924185,25.7445573 20.8111541,25.2144613 20.4824068,24.777556 L20.4824068,20.5959136 C20.8076192,20.1694334 20.9888704,19.6506766 21,19.1145175 C20.9924185,18.5678509 20.8111541,18.0377549 20.4824068,17.6008496 L20.4824068,13.4187053 C20.8076224,12.992197 20.9888731,12.4734146 21,11.937231 L21,11.937231 Z M19.4897217,18.1378892 C19.7299657,18.4081879 19.8693275,18.7532221 19.8841848,19.1145063 C19.8841848,20.8139176 16.0300473,22.7077733 10.5,22.7077733 C4.96995269,22.7077733 1.11581525,20.8139176 1.11581525,19.1145063 C1.13067246,18.7532221 1.27003435,18.4081879 1.51027825,18.1378892 L1.63340846,17.9848302 L1.63340846,14.4859241 C3.47998227,15.7931112 6.72383573,16.6465538 10.5,16.6465538 C14.2761643,16.6465538 17.5200177,15.7931 19.3665915,14.4859241 L19.3665915,17.9848413 L19.4897217,18.1378892 Z M1.51027825,10.9617071 L1.63340846,10.8081015 L1.63340846,7.25745808 C3.47998227,8.56463404 6.72383573,9.41807665 10.5,9.41807665 C14.2761643,9.41807665 17.5200177,8.56462289 19.3665915,7.25745808 L19.3665915,10.8081238 L19.4897217,10.9617294 C19.7300083,11.2315699 19.8693956,11.5762807 19.8841848,11.9372533 C19.8841848,13.6372112 16.0300473,15.5310669 10.5,15.5310669 C4.96995269,15.5310669 1.11581525,13.6372112 1.11581525,11.9372533 C1.13059931,11.5762729 1.26998693,11.2315535 1.51027825,10.9617071 Z M10.5,1.11550918 C16.0300362,1.11550918 19.8841848,3.00936488 19.8841848,4.70877618 C19.8841848,6.40873408 16.0300473,8.30258978 10.5,8.30258978 C4.96995269,8.30258978 1.11581525,6.40871177 1.11581525,4.70875387 C1.11581525,3.00934257 4.96996385,1.11550918 10.5,1.11550918 Z M10.5,29.8844908 C4.96996385,29.8844908 1.11581525,27.9906351 1.11581525,26.2912238 C1.13067246,25.9299396 1.27003435,25.5849055 1.51027825,25.3146067 L1.63340846,25.1615477 L1.63340846,21.6630097 C3.47998227,22.9699737 6.72383573,23.8232936 10.5,23.8232936 C14.2761643,23.8232936 17.5200177,22.9699291 19.3665915,21.6630097 L19.3665915,25.1615811 L19.4897217,25.3146402 C19.7299657,25.5849389 19.8693275,25.9299731 19.8841848,26.2912573 C19.8841848,27.9906574 16.0300362,29.8844908 10.5,29.8844908 Z" id="Shape" stroke="#000000" stroke-width="0.5"></path>
            <ellipse id="Oval" cx="5.31546488" cy="4.7089435" rx="1.59904136" ry="1"></ellipse>
        </g>
    </g>
</svg>