<?xml version="1.0" encoding="UTF-8"?>
<svg width="50px" height="50px" viewBox="0 0 50 50" version="1.1" xmlns="http://www.w3.org/2000/svg" xmlns:xlink="http://www.w3.org/1999/xlink">
    <title>travel</title>
    <g id="travel" stroke="none" stroke-width="1" fill="none" fill-rule="evenodd">
        <rect id="Rectangle" stroke="#979797" fill="#D8D8D8" opacity="0" x="1.5" y="0.5" width="49" height="49"></rect>
        <g id="iconfinder_luggage_suitcase_travel_2849635" opacity="0.85" transform="translate(1.000000, 3.000000)">
            <g id="Group" transform="translate(0.000000, 0.000000)" stroke="#000000" stroke-width="1.8">
                <g transform="translate(4.678650, 16.834438)" id="Path" stroke-linecap="round">
                    <line x1="15.3464701" y1="19.0304155" x2="15.3464701" y2="0"></line>
                    <line x1="0.29622959" y1="19.0304155" x2="0.29622959" y2="0"></line>
                </g>
                <g transform="translate(7.041377, 4.995774)" id="Path">
                    <line x1="0.29622959" y1="6.81911831" x2="0.29622959" y2="2.11141493e-15"></line>
                    <line x1="10.6210157" y1="6.81911831" x2="10.6210157" y2="2.11141493e-15"></line>
                </g>
                <path d="M17.6902386,3.17242928 L17.6902386,0.842137933 C17.6902386,0.842137933 16.3743868,1.05570746e-15 12.5008887,1.05570746e-15 C8.62679811,1.05570746e-15 7.30976136,0.842137933 7.30976136,0.842137933 L7.30976136,3.17242928" id="Path" stroke-linejoin="round"></path>
                <path d="M25,37.0267308 C25,39.3154204 23.1337536,41.186904 20.8527857,41.186904 L4.14721426,41.186904 C1.86624642,41.186904 2.10483783e-15,39.3154204 2.10483783e-15,37.0267308 L2.10483783e-15,16.1349349 C2.10483783e-15,13.8468396 1.86624642,11.9747616 4.14721426,11.9747616 L20.8521933,11.9747616 C23.1331611,11.9747616 24.9994075,13.8468396 24.9994075,16.1349349 L24.9994075,37.0267308 L25,37.0267308 Z" id="Path"></path>
                <g transform="translate(4.248525, 43.297301)" id="Path" stroke-linejoin="round">
                    <path d="M3.3947911,0 C3.3947911,0.94019916 2.63525843,1.70269949 1.69739555,1.70269949 C0.760125127,1.70269949 0,0.94019916 0,0"></path>
                    <path d="M16.5047278,0 C16.5047278,0.94019916 15.7446027,1.70269949 14.8073323,1.70269949 C13.8700619,1.70269949 13.1087518,0.94019916 13.1087518,0"></path>
                </g>
            </g>
            <ellipse id="Oval" fill="#000000" fill-rule="nonzero" cx="12.4997038" cy="20.2588552" rx="1.77263787" ry="1.17970628"></ellipse>
        </g>
    </g>
</svg>