<?xml version="1.0" encoding="UTF-8"?>
<svg width="50px" height="50px" viewBox="0 0 50 50" version="1.1" xmlns="http://www.w3.org/2000/svg" xmlns:xlink="http://www.w3.org/1999/xlink">
    <title>retail</title>
    <g id="retail" stroke="none" stroke-width="1" fill="none" fill-rule="evenodd">
        <rect id="Rectangle" stroke="#979797" fill="#D8D8D8" opacity="0" x="0.5" y="0.5" width="49" height="49"></rect>
        <g id="iconfinder_shopping-cart1_484497" transform="translate(0.000000, 8.000000)" fill="#000000" fill-opacity="0.85" fill-rule="nonzero" stroke="#FFFFFF" stroke-width="0.3">
            <ellipse id="Oval" cx="29.6837239" cy="31.5714286" rx="2.37498291" ry="2.42857143"></ellipse>
            <ellipse id="Oval" cx="15.1372505" cy="31.5714286" rx="2.37498291" ry="2.42857143"></ellipse>
            <path d="M37.7482753,5.32433929 C37.5232457,5.02926786 37.1776856,4.85714286 36.8122351,4.85714286 L8.93973256,4.85714286 L7.98083321,0.920732143 C7.84902165,0.379767857 7.37402507,0 6.82866962,0 L1.18749146,0 C0.5316993,0 0,0.543696429 0,1.21428571 C0,1.884875 0.5316993,2.42857143 1.18749146,2.42857143 L5.90064505,2.42857143 L11.8882738,27.0078393 C12.0200854,27.5488036 12.4953788,27.9285714 13.0407343,27.9285714 L32.3389548,27.9285714 C32.994747,27.9285714 33.5264463,27.384875 33.5264463,26.7142857 C33.5264463,26.0436964 32.994747,25.5 32.3389548,25.5 L13.9687589,25.5 L13.0814059,21.8571429 L33.2497608,21.8571429 C33.7945225,21.8571429 34.2698159,21.4779821 34.4019244,20.937625 L37.9646956,6.36619643 C38.0531637,6.003125 37.9733049,5.61880357 37.7482753,5.32433929 Z M32.32233,19.4285714 L12.5028007,19.4285714 L9.53377516,7.28571429 L35.2913555,7.28571429 L32.32233,19.4285714 Z" id="Shape"></path>
        </g>
    </g>
</svg>