<?xml version="1.0" encoding="UTF-8"?>
<svg width="50px" height="50px" viewBox="0 0 50 50" version="1.1" xmlns="http://www.w3.org/2000/svg" xmlns:xlink="http://www.w3.org/1999/xlink">
    <title>socail</title>
    <g id="socail" stroke="none" stroke-width="1" fill="none" fill-rule="evenodd">
        <rect id="Rectangle" stroke="#979797" fill="#D8D8D8" opacity="0" x="0.5" y="0.5" width="49" height="49"></rect>
        <g id="iconfinder_business_internet_communication_networking_office_Share_social_interface_button_1617136" transform="translate(1.000000, 8.000000)" fill="#000000" fill-rule="nonzero" opacity="0.85" stroke="#000000" stroke-width="0.4">
            <path d="M28.4375,21.875 C26.1967708,21.875 24.2151875,23.0041146 23.0307292,24.7227604 L12.567625,20.1451979 C12.9256458,19.3356042 13.125,18.4406979 13.125,17.5 C13.125,16.5006042 12.9000521,15.5529062 12.4987188,14.7042292 L22.6396042,9.63382292 C23.743125,11.7087396 25.9277813,13.125 28.4375,13.125 C32.0562813,13.125 35,10.1809167 35,6.5625 C35,2.94408333 32.0562813,0 28.4375,0 C24.8187187,0 21.875,2.94408333 21.875,6.5625 C21.875,7.15378125 21.9540417,7.72690625 22.1014063,8.27225 L11.7292292,13.4583021 C10.5269792,11.9246458 8.65797917,10.9375 6.5625,10.9375 C2.94371875,10.9375 0,13.8815833 0,17.5 C0,21.1184167 2.94371875,24.0625 6.5625,24.0625 C8.71602083,24.0625 10.6304479,23.0197917 11.8277396,21.4127813 L22.3397708,26.0117812 C22.0400833,26.7626042 21.875,27.5810208 21.875,28.4375 C21.875,32.0559167 24.8187187,35 28.4375,35 C32.0562813,35 35,32.0559167 35,28.4375 C35,24.8190833 32.0562813,21.875 28.4375,21.875 Z M28.4375,1.45833333 C31.2516458,1.45833333 33.5416667,3.74798958 33.5416667,6.5625 C33.5416667,9.37701042 31.2516458,11.6666667 28.4375,11.6666667 C25.6233542,11.6666667 23.3333333,9.37701042 23.3333333,6.5625 C23.3333333,3.74798958 25.6233542,1.45833333 28.4375,1.45833333 Z M6.5625,22.6041667 C3.74835417,22.6041667 1.45833333,20.3145104 1.45833333,17.5 C1.45833333,14.6854896 3.74835417,12.3958333 6.5625,12.3958333 C9.37664583,12.3958333 11.6666667,14.6854896 11.6666667,17.5 C11.6666667,20.3145104 9.37664583,22.6041667 6.5625,22.6041667 Z M28.4375,33.5416667 C25.6233542,33.5416667 23.3333333,31.2520104 23.3333333,28.4375 C23.3333333,25.6229896 25.6233542,23.3333333 28.4375,23.3333333 C31.2516458,23.3333333 33.5416667,25.6229896 33.5416667,28.4375 C33.5416667,31.2520104 31.2516458,33.5416667 28.4375,33.5416667 Z" id="Shape"></path>
        </g>
    </g>
</svg>