<?xml version="1.0" encoding="UTF-8"?>
<svg width="650px" height="370px" viewBox="0 0 650 370" version="1.1" xmlns="http://www.w3.org/2000/svg" xmlns:xlink="http://www.w3.org/1999/xlink">
    <title>Artboard</title>
    <g id="Artboard" stroke="none" stroke-width="1" fill="none" fill-rule="evenodd">
        <g id="2537406" transform="translate(5.000000, 13.000000)">
            <path d="M604.932741,314.823111 C601.092741,307.498667 585.476741,301.610667 578.49363,300.273778 C541.202963,293.162667 502.148741,294.158222 464.374519,294.272 C423.243852,294.4 384.004741,300.984889 343.201185,304.042667 C321.98163,305.621333 299.567407,302.776889 278.305185,302.037333 C243.290074,300.814222 208.284444,299.392 173.288296,297.770667 C143.108741,296.348444 111.791407,299.52 85.1105185,316.16 C82.0811852,318.051556 79.0234074,320.341333 77.6580741,323.740444 C69.010963,345.073778 176.772741,342.371556 190.810074,342.741333 C261.636741,344.576 332.506074,345.585778 403.332741,343.608889 C455.954963,342.186667 510.881185,342.272 563.119407,334.848 C574.667852,333.198222 590.383407,332.615111 600.367407,325.816889 C605.942519,322.033778 606.738963,318.279111 604.932741,314.823111 Z" id="Path" fill="#E7F5FE" fill-rule="nonzero"></path>
            <path d="M559.080296,23.8933333 C560.004741,23.8933333 560.95763,23.8933333 561.924741,23.8933333" id="Path" stroke="#D2E8F9" stroke-width="1.42222222"></path>
            <path d="M567.627852,24.3484444 C585.988741,26.2115556 608.417185,33.9626667 605.800296,49.8488889 C601.618963,75.1786667 489.064296,65.8346667 462.155852,66.1048889 C408.111407,66.6311111 353.455407,66.8302222 300.449185,78.6488889 C287.563852,81.4933333 269.160296,87.8648889 270.511407,104.248889 C270.994963,109.937778 274.379852,115.185778 278.689185,119.082667 C294.162963,133.048889 315.738074,134.4 335.762963,136.846222 C366.042074,140.558222 510.098963,135.608889 557.174519,151.068444 C566.447407,154.112 578.038519,158.023111 578.422519,171.278222 C579.403852,204.956444 495.748741,203.292444 470.660741,203.989333 C403.688296,205.710222 336.644741,205.027556 269.672296,203.704889 C215.556741,202.638222 161.256296,201.685333 107.226074,198.200889 C87.0731852,196.892444 54.1345185,196.508444 38.7745185,181.390222 C30.2411852,172.856889 29.0607407,157.553778 42.642963,149.703111 C52.2145185,144.170667 80.2891852,146.588444 91.0980741,145.664 C123.809185,142.819556 113.85363,123.022222 87.4145185,120.490667" id="Path" stroke="#D2E8F9" stroke-width="1.42222222" stroke-dasharray="5.703111436631944"></path>
            <path d="M84.5842963,120.291556 C83.6598519,120.291556 82.706963,120.220444 81.7398519,120.220444" id="Path" stroke="#D2E8F9" stroke-width="1.42222222"></path>
            <path d="M561.000296,48.5262222 L552.38163,2.944 C552.14483,1.6781504 551.249582,0.635366239 550.034165,0.209676834 C548.818749,-0.21601257 547.468501,0.040305421 546.49363,0.881777778 L511.322074,31.1324444 C510.344781,31.9716731 509.890679,33.269317 510.131443,34.5347971 C510.372207,35.8002772 511.271102,36.8405064 512.488296,37.2622222 L556.278519,52.5937778 C557.492089,53.0176961 558.839631,52.762003 559.813567,51.9230101 C560.787503,51.0840173 561.239878,49.7891793 561.000296,48.5262222 L561.000296,48.5262222 Z" id="Path" fill="#F0FAFF" fill-rule="nonzero"></path>
            <path d="M554.358519,47.8293996 C554.106567,47.828429 553.856562,47.7851589 553.618963,47.7013333 L517.608296,35.1004444 C516.849348,34.8405431 516.28815,34.1934864 516.138181,33.4054125 C515.988212,32.6173386 516.272523,31.8093828 516.882963,31.2888889 L545.810963,6.4 C546.41882,5.88613689 547.25316,5.73217743 548.004384,5.9952518 C548.755607,6.25832618 549.31161,6.8991763 549.466074,7.68 L556.577185,45.1697778 C556.720402,45.9570468 556.43959,46.7616815 555.83763,47.2888889 C555.425923,47.6415529 554.900605,47.833496 554.358519,47.8293996 Z M519.514074,32.768 L553.647407,44.672 L546.934519,9.24444444 L519.514074,32.768 Z" id="Shape" fill="#B5DDF7" fill-rule="nonzero"></path>
            <path d="M538.714074,32.5262222 L538.714074,32.5262222 C538.05931,32.2575941 537.701687,31.5484089 537.874963,30.8622222 L541.444741,18.3324444 C541.604288,17.7723032 541.987343,17.3025193 542.5039,17.0334793 C543.020457,16.7644393 543.624974,16.7198621 544.175407,16.9102222 L544.175407,16.9102222 C544.735282,17.1001446 545.190362,17.5153191 545.430727,18.055463 C545.671091,18.5956069 545.674882,19.2116049 545.441185,19.7546667 L540.420741,31.7297778 C540.134305,32.3878586 539.40243,32.7294002 538.714074,32.5262222 Z" id="Path" fill="#B5DDF7" fill-rule="nonzero"></path>
            <path d="M538.984296,35.9964444 C538.809762,36.5540151 538.31199,36.9481252 537.729252,36.9901231 C537.146514,37.032121 536.597372,36.713462 536.344689,36.1866809 C536.092005,35.6598998 536.187189,35.0321738 536.584679,34.6039811 C536.982169,34.1757883 537.601093,34.0342476 538.145185,34.2471111 C538.840946,34.5193114 539.207483,35.2834482 538.984296,35.9964444 L538.984296,35.9964444 Z" id="Path" fill="#B5DDF7" fill-rule="nonzero"></path>
            <path d="M79.0091852,104.888889 L50.6642963,90.7804444 C49.8783708,90.3878951 48.9427717,90.4441671 48.2095617,90.9280857 C47.4763518,91.4120042 47.0567842,92.2501422 47.1087407,93.1271111 L49.0571852,124.743111 C49.1146384,125.61794 49.6332559,126.396108 50.4185805,126.78584 C51.203905,127.175572 52.1372828,127.117983 52.8687407,126.634667 L79.2651852,109.141333 C79.9979342,108.656717 80.416704,107.81818 80.3639129,106.941261 C80.3111218,106.064342 79.79478,105.2821 79.0091852,104.888889 L79.0091852,104.888889 Z" id="Path" fill="#F0FAFF" fill-rule="nonzero"></path>
            <path d="M75.8945185,108.216889 C75.7925285,108.351742 75.6673095,108.467329 75.5247407,108.558222 L53.8074074,122.951111 C53.3536081,123.251554 52.7747039,123.289427 52.2856296,123.050667 C51.7965649,122.802981 51.472827,122.317375 51.4322963,121.770667 L49.8251852,95.7297778 C49.8113904,95.1941364 50.0777223,94.6900193 50.5279692,94.3995374 C50.9782161,94.1090556 51.5472958,94.0741975 52.0296296,94.3075556 L75.3540741,105.927111 C75.839039,106.17221 76.1620882,106.6514 76.2074074,107.192889 C76.2220817,107.559806 76.1117666,107.920837 75.8945185,108.216889 Z M53.3380741,120.945778 L73.8465185,107.335111 L51.8162963,96.3697778 L53.3380741,120.945778 Z" id="Shape" fill="#B5DDF7" fill-rule="nonzero"></path>
            <path d="M61.1176296,110.407111 L61.1176296,110.407111 C60.7062754,110.675974 60.1564619,110.576008 59.8660741,110.179556 L54.5185185,103.068444 C54.2773439,102.751556 54.1800729,102.34807 54.2503578,101.956097 C54.3206427,101.564123 54.5520446,101.219572 54.8882963,101.006222 L54.8882963,101.006222 C55.215946,100.783463 55.6216656,100.707476 56.0077212,100.796566 C56.3937768,100.885656 56.725171,101.131746 56.9220741,101.475556 L61.4020741,109.169778 C61.6502499,109.592413 61.525453,110.13528 61.1176296,110.407111 L61.1176296,110.407111 Z" id="Path" fill="#B5DDF7" fill-rule="nonzero"></path>
            <path d="M63.0802963,111.672889 C63.2898707,111.990282 63.2872013,112.402771 63.0735365,112.717425 C62.8598717,113.032079 62.4774488,113.186697 62.1051358,113.108962 C61.7328228,113.031226 61.4442185,112.736503 61.3743098,112.362641 C61.304401,111.988779 61.4670073,111.609684 61.7860741,111.402667 C62.2184979,111.122101 62.7962649,111.242733 63.0802963,111.672889 L63.0802963,111.672889 Z" id="Path" fill="#B5DDF7" fill-rule="nonzero"></path>
            <circle id="Oval" stroke="#D2E8F9" stroke-width="1.42222222" cx="98.6500741" cy="166.272" r="2.36088889"></circle>
            <circle id="Oval" stroke="#D2E8F9" stroke-width="1.42222222" cx="449.128296" cy="122.581333" r="2.36088889"></circle>
            <circle id="Oval" stroke="#D2E8F9" stroke-width="1.42222222" cx="263.172741" cy="56.4195556" r="2.36088889"></circle>
            <circle id="Oval" stroke="#D2E8F9" stroke-width="1.42222222" cx="260.342519" cy="235.975111" r="2.36088889"></circle>
            <line x1="315.368296" y1="96.9528889" x2="315.368296" y2="102.286222" id="Path" stroke="#D2E8F9" stroke-width="1.42222222" stroke-linecap="round" stroke-linejoin="round"></line>
            <line x1="318.042074" y1="99.6124444" x2="312.694519" y2="99.6124444" id="Path" stroke="#D2E8F9" stroke-width="1.42222222" stroke-linecap="round" stroke-linejoin="round"></line>
            <line x1="411.240296" y1="28.7004444" x2="411.240296" y2="34.048" id="Path" stroke="#D2E8F9" stroke-width="1.42222222" stroke-linecap="round" stroke-linejoin="round"></line>
            <line x1="413.914074" y1="31.3742222" x2="408.566519" y2="31.3742222" id="Path" stroke="#D2E8F9" stroke-width="1.42222222" stroke-linecap="round" stroke-linejoin="round"></line>
            <line x1="559.563852" y1="172.785778" x2="559.563852" y2="178.133333" id="Path" stroke="#D2E8F9" stroke-width="1.42222222" stroke-linecap="round" stroke-linejoin="round"></line>
            <line x1="562.23763" y1="175.459556" x2="556.890074" y2="175.459556" id="Path" stroke="#D2E8F9" stroke-width="1.42222222" stroke-linecap="round" stroke-linejoin="round"></line>
            <path d="M363.311407,325.489778 C363.311407,325.489778 353.355852,329.756444 353.355852,331.861333 C353.355852,333.070222 367.023407,331.335111 367.848296,330.510222 C369.170963,329.187556 367.307852,325.674667 367.307852,325.674667 L363.311407,325.489778 Z" id="Path" fill="#26387A" fill-rule="nonzero"></path>
            <path d="M362.671407,319.559111 L363.311407,325.674667 C363.61357,326.351735 364.290977,326.782813 365.032296,326.769778 C365.930106,326.788902 366.784222,326.382933 367.336296,325.674667 L366.852741,318.023111" id="Path" fill="#FFB288" fill-rule="nonzero"></path>
            <path d="M380.036741,179.370667 C383.663407,193.934222 382.312296,201.344 377.02163,212.337778 C373.807407,249.315556 371.560296,286.108444 367.250963,322.147556 L362.671407,322.403556 C352.303407,287.317333 342.760296,234.865778 343.969185,186.922667" id="Path" fill="#26387A" fill-rule="nonzero"></path>
            <path d="M377.78963,184.376889 C379.015325,187.836933 379.537541,191.506951 379.32563,195.171556 C379.154963,200.704 376.907852,205.696 375.442963,210.944 C373.508741,217.941333 373.352296,224.910222 372.826074,232.078222 C372.001185,243.285333 371.157333,254.497185 370.294519,265.713778 C368.900741,284.003556 367.478519,302.293333 366.027852,320.583111 L365.899852,322.218667" id="Path" stroke="#0061A6" stroke-width="0.711111111"></path>
            <path d="M402.962963,326.912 C402.962963,326.912 393.007407,331.178667 393.007407,333.283556 C393.007407,334.492444 406.689185,332.757333 407.499852,331.932444 C408.822519,330.609778 406.97363,327.096889 406.97363,327.096889 L402.962963,326.912 Z" id="Path" fill="#26387A" fill-rule="nonzero"></path>
            <path d="M402.322963,320.981333 L402.962963,327.096889 C403.265125,327.773957 403.942533,328.205035 404.683852,328.192 C405.581661,328.211124 406.435777,327.805155 406.987852,327.096889 L406.490074,319.445333" id="Path" fill="#FFB288" fill-rule="nonzero"></path>
            <path d="M413.103407,178.133333 C417.682963,192.426667 416.82963,199.907556 412.264296,211.228444 C411.510519,248.32 408.964741,287.047111 407.030519,323.285333 L402.337185,323.285333 C389.665185,288.967111 376.082963,235.975111 374.134519,188.060444" id="Path" fill="#26387A" fill-rule="nonzero"></path>
            <path d="M410.842074,184.049778 C410.842074,184.049778 416.132741,196.465778 407.172741,213.916444 C406.148741,230.357333 405.608296,323.313778 405.608296,323.313778" id="Path" stroke="#0061A6" stroke-width="0.711111111"></path>
            <path d="M397.729185,187.989333 C398.680034,189.375354 400.036195,190.433457 401.611852,191.018667 C403.174534,191.593709 404.804351,191.966511 406.46163,192.128 C408.416743,192.397579 410.391513,192.497507 412.363852,192.426667" id="Path" stroke="#0061A6" stroke-width="0.711111111"></path>
            <path d="M398.369185,190.307556 C400.107207,191.805209 402.196619,192.837682 404.442074,193.308444 C406.678964,193.762771 408.957917,193.977317 411.240296,193.948444" id="Path" stroke="#0061A6" stroke-width="0.711111111"></path>
            <path d="M358.802963,109.013333 C342.987852,136.533333 325.978074,161.450667 315.880296,191.502222 L312.879407,189.895111 C313.647407,161.962667 322.692741,121.344 334.582519,96.0284444" id="Path" fill="#FFB288" fill-rule="nonzero"></path>
            <path d="M351.108741,80.2844444 C347.330291,81.5087009 343.743965,83.2611643 340.456296,85.4897778 C335.097096,89.2352868 330.851089,94.360965 328.168296,100.323556 C325.50718,106.263131 323.724935,112.558481 322.87763,119.011556 C327.377467,121.139242 332.171903,122.577573 337.099852,123.278222 C342.300716,123.817675 347.543433,123.817675 352.744296,123.278222" id="Path" fill="#D9F0FF" fill-rule="nonzero"></path>
            <path d="M339.318519,96.5546667 C337.640296,126.307556 338.920296,156.913778 339.674074,185.870222 C339.674074,185.870222 350.056296,188.629333 375.22963,188.629333 C400.402963,188.629333 416.801185,180.963556 416.801185,180.963556 C411.937185,151.224889 408.054519,114.716444 396.150519,90.2257778 C396.150519,90.2257778 382.696296,75.7191111 369.426963,75.1217778 C366.703194,75.206402 364.037812,75.9324383 361.647407,77.2408889 C359.770074,78.1084444 351.16563,80.2133333 351.16563,80.2133333 L339.318519,96.5546667 Z" id="Path" fill="#D9F0FF" fill-rule="nonzero"></path>
            <path d="M339.176296,99.2 C338.522074,104.888889 338.522074,122.581333 338.522074,122.581333" id="Path" stroke="#94C1F2" stroke-width="0.711111111"></path>
            <path d="M364.250074,195.285333 C406.376296,190.620444 423.983407,243.996444 433.626074,264.718222 C456.296296,313.671111 541.842963,308.209778 580.811852,308.209778 C631.86963,308.209778 654.26963,325.404444 630.447407,334.435556" id="Path" stroke="#B4E8FD" stroke-width="7.11111111" stroke-linecap="round" stroke-linejoin="round"></path>
            <path d="M378.714074,197.646222 C378.714074,219.306667 362.315852,232.391111 348.292741,232.391111 L325.366519,232.391111 L325.366519,162.901333 L348.34963,162.901333 C362.372741,162.901333 378.714074,175.971556 378.714074,197.646222 Z" id="Path" fill="#FDAE2B" fill-rule="nonzero"></path>
            <path d="M366.923852,197.646222 C366.923852,218.808889 354.379852,235.975111 338.920296,235.975111 L313.547852,235.975111 L313.547852,159.303111 L338.891852,159.303111 C354.379852,159.303111 366.923852,176.469333 366.923852,197.646222 Z" id="Path" fill="#EF8417" fill-rule="nonzero"></path>
            <path d="M372.54163,176.696889 C367.051852,184.177778 361.709037,191.762963 356.513185,199.452444 C357.25234,199.298703 357.932829,198.938734 358.475852,198.414222 C358.475852,198.997333 357.56563,199.992889 358.376296,200.362667 C359.186963,200.732444 360.040296,199.779556 360.89363,200.035556 C361.690074,199.850667 362.42963,198.855111 363.012741,198.286222 C362.814859,198.706869 362.694415,199.159738 362.657185,199.623111 C368.246519,197.447111 373.252741,192.227556 377.604741,188.032 C376.606821,183.981818 374.892085,180.142927 372.54163,176.696889 L372.54163,176.696889 Z" id="Path" fill="#FDAE2B" fill-rule="nonzero" opacity="0.5" style="mix-blend-mode: multiply;"></path>
            <ellipse id="Oval" fill="#FFC840" fill-rule="nonzero" cx="315.368296" cy="197.646222" rx="28.0035556" ry="38.3288889"></ellipse>
            <path d="M317.700741,211.228444 C317.700741,214.371556 315.553185,216.917333 312.907852,216.917333 C310.262519,216.917333 308.100741,214.371556 308.100741,211.228444 C308.100741,208.085333 310.248296,205.539556 312.907852,205.539556 C315.567407,205.539556 317.700741,208.085333 317.700741,211.228444 Z" id="Path" fill="#EF8417" fill-rule="nonzero"></path>
            <path d="M317.700741,184.049778 C317.700741,187.207111 315.553185,189.738667 312.907852,189.738667 C310.262519,189.738667 308.100741,187.192889 308.100741,184.049778 C308.100741,180.906667 310.248296,178.360889 312.907852,178.360889 C315.567407,178.360889 317.700741,180.906667 317.700741,184.049778 Z" id="Path" fill="#EF8417" fill-rule="nonzero"></path>
            <path d="M403.830519,118.485333 C403.830519,118.485333 405.608296,136.590222 397.515852,151.651556 C390.58963,164.522667 376.836741,181.191111 365.729185,190.378667 L363.055407,189.724444 C366.923852,174.890667 379.126519,148.48 379.894519,138.652444 C380.662519,128.824889 380.463407,117.319111 380.648296,111.815111" id="Path" fill="#FFB288" fill-rule="nonzero"></path>
            <path d="M369.455407,75.1217778 C369.455407,75.1217778 384.360296,76.1457778 393.007407,83.456 C405.352296,93.8808889 407.22963,114.289778 407.22963,119.011556 C403.503407,123.036444 395.354074,123.278222 389.409185,123.278222 C385.790429,123.255857 382.24231,122.274358 379.126519,120.433778 L377.903407,97.9057778" id="Path" fill="#D9F0FF" fill-rule="nonzero"></path>
            <path d="M364.136296,187.548444 C362.389351,187.777508 360.74012,188.486431 359.371852,189.596444 C358.063407,190.620444 356.527407,192.327111 356.626963,193.109333 C356.726519,193.891556 358.945185,192.355556 359.201185,192.668444 C359.457185,192.981333 355.546074,198.912 356.356741,199.352889 C357.167407,199.793778 360.424296,194.432 360.424296,194.432 C360.424296,194.432 357.18163,200.120889 358.447407,200.291556 C359.48563,200.391111 362.372741,194.972444 362.372741,194.972444 C362.372741,194.972444 359.940741,199.822222 360.76563,200.007111 C361.590519,200.192 363.851852,195.356444 363.851852,195.356444 C363.851852,195.356444 362.017185,199.480889 362.728296,199.623111 C363.083852,199.623111 364.890074,197.603556 365.643852,195.114667 C366.39763,192.625778 367.265185,190.549333 366.596741,188.629333" id="Path" fill="#FFB288" fill-rule="nonzero"></path>
            <line x1="379.695407" y1="100.280889" x2="379.695407" y2="120.789333" id="Path" stroke="#94C1F2" stroke-width="0.711111111"></line>
            <path d="M338.564741,56.2062222 C338.564741,57.088 338.450963,57.984 338.465185,58.88 C338.363257,60.8261048 338.859571,62.7567677 339.887407,64.4124444 C340.659423,65.5116968 341.791352,66.3065622 343.087407,66.6595556 C343.983407,66.9155556 345.178074,66.8017778 345.562074,65.9484444 C345.686339,65.6369794 345.739778,65.3017757 345.718519,64.9671111 C345.698636,61.6534536 345.057011,58.3729635 343.826963,55.296" id="Path" fill="#26387A" fill-rule="nonzero"></path>
            <path d="M361.064296,58.0693333 C359.784296,53.0773333 355.759407,46.1084444 349.217185,47.5022222 C345.055005,48.2491194 341.595307,51.1358049 340.114963,55.0968889 C338.692741,59.776 341.010963,65.2231111 343.812741,69.0488889 C344.808652,70.5220969 346.132871,71.7440783 347.681185,72.6186667 C351.464296,74.5813333 356.570074,72.9742222 359.144296,69.7742222 C361.566532,66.3821615 362.275928,62.0574719 361.064296,58.0693333 Z" id="Path" fill="#FFB288" fill-rule="nonzero"></path>
            <path d="M351.876741,71.0968889 L354.024296,78.9048889 L351.108741,80.3271111 C352.752964,82.2078339 355.263465,83.0878591 357.722074,82.6453333 C366.65363,81.3653333 369.455407,75.1644444 369.455407,75.1644444 L364.420741,74.6382222 L358.802963,65.0951111" id="Path" fill="#FFB288" fill-rule="nonzero"></path>
            <path d="M365.416296,52.6222222 C364.621275,49.198407 362.429296,46.263734 359.371852,44.5297778 C354.081185,41.3155556 346.571852,41.0595556 341.864296,45.4826667 C339.176296,48 334.354963,56.9315556 340.129185,58.6951111 C341.921185,59.2497778 343.770074,58.1546667 345.334519,57.1164444 L350.113185,53.9164444 C350.653117,53.4822076 351.303052,53.2064776 351.990519,53.12 C353.134575,53.2217671 354.105165,54.0016051 354.450963,55.0968889 C354.748637,56.1819111 354.981347,57.2837184 355.147852,58.3964444 C355.27529,59.1929547 355.702754,59.9104829 356.342519,60.4017778 C356.666644,60.6378941 357.075388,60.7262038 357.468081,60.644957 C357.860773,60.5637103 358.200918,60.3204582 358.404741,59.9751111 C358.533424,59.4375194 358.533424,58.8771473 358.404741,58.3395556 C358.404741,57.7848889 358.71763,57.1164444 359.258074,57.1306667 C359.458818,57.1536975 359.647558,57.238134 359.798519,57.3724444 C361.220741,58.4533333 360.737185,60.6151111 361.220741,62.3217778 C361.220741,62.5493333 360.822519,65.9911111 360.978963,66.1617778 C365.444741,65.0951111 365.914074,55.0826667 365.416296,52.6222222 Z" id="Path" fill="#26387A" fill-rule="nonzero"></path>
            <path d="M358.802963,57.5288889 C358.777986,56.8662825 359.279776,56.3017693 359.940741,56.2488889 C360.585642,56.2282839 361.211462,56.4693785 361.675852,56.9173333 C362.543242,57.6117453 363.062979,58.6512182 363.098074,59.7617778 C363.083228,60.6187092 362.810651,61.4513074 362.315852,62.1511111 C362.032688,62.6629742 361.580102,63.060244 361.035852,63.2746667 C360.300531,63.4474643 359.529792,63.2014835 359.030519,62.6346667" id="Path" fill="#FFB288" fill-rule="nonzero"></path>
            <path d="M200.481185,325.276444 C200.481185,325.276444 210.066963,326.869333 210.322963,328.988444 C210.479407,330.183111 196.882963,331.633778 195.958519,330.922667 C194.536296,329.784889 196.299852,325.518222 196.299852,325.518222 L200.481185,325.276444 Z" id="Path" fill="#26387A" fill-rule="nonzero"></path>
            <path d="M199.713185,319.388444 L200.495407,325.461333 C200.280137,326.169524 199.666059,326.683117 198.930963,326.769778 C198.039902,326.904547 197.137689,326.609086 196.498963,325.973333 L195.375407,318.407111" id="Path" fill="#FFB288" fill-rule="nonzero"></path>
            <path d="M163.858963,181.233778 C162.152296,196.152889 162.052741,203.320889 168.722963,213.546667 C171.880296,227.982222 176.730074,242.744889 180.399407,257.521778 C178.820741,275.171556 189.871407,303.274667 195.830519,323.342222 L200.097185,322.616889 C205.88563,286.478222 208.018963,231.082667 202.827852,182.584889" id="Path" fill="#26387A" fill-rule="nonzero"></path>
            <path d="M166.660741,201.443556 C166.660741,201.443556 183.158519,253.838222 183.158519,256.682667 C183.158519,259.527111 183.61363,269.297778 184.338963,275.640889 C185.675852,287.260444 196.200296,321.493333 196.200296,321.493333" id="Path" stroke="#0061A6" stroke-width="0.711111111"></path>
            <polygon id="Path" fill="#0061A6" fill-rule="nonzero" points="195.702519 324.152889 195.034074 321.536 200.580741 321.322667 200.651852 323.740444"></polygon>
            <path d="M125.88563,325.575111 C125.88563,325.575111 133.394963,330.993778 132.726519,332.899556 C132.342519,333.994667 120.139852,329.472 119.656296,328.476444 C118.874074,326.883556 122.216296,324.010667 122.216296,324.010667 L125.88563,325.575111 Z" id="Path" fill="#26387A" fill-rule="nonzero"></path>
            <path d="M127.720296,320.241778 L125.828741,325.731556 C125.347788,326.25046 124.604922,326.43478 123.937185,326.200889 C123.132351,325.920654 122.495573,325.294315 122.202074,324.494222 L124.449185,317.553778" id="Path" fill="#FFB288" fill-rule="nonzero"></path>
            <path d="M131.631407,178.133333 C127.051852,192.426667 127.905185,199.907556 132.456296,211.228444 C132.740741,224.768 132.882963,238.478222 133.025185,252.188444 C123.382519,276.366222 121.846519,298.026667 123.06963,321.038222 L127.720296,322.759111 C127.720296,322.759111 155.439407,274.403556 160.545185,255.36 C166.313077,233.354866 169.68438,210.790504 170.600296,188.060444" id="Path" fill="#26387A" fill-rule="nonzero"></path>
            <path d="M132.769185,181.233778 C132.769185,181.233778 127.720296,195.996444 134.33363,210.218667 C134.33363,214.186667 136.609185,247.196444 135.755852,252.288 C135.329185,254.734222 130.792296,266.410667 127.762963,277.76 C124.420741,290.332444 123.70963,319.957333 123.70963,319.957333" id="Path" stroke="#0061A6" stroke-width="0.711111111"></path>
            <polygon id="Path" fill="#0061A6" fill-rule="nonzero" points="122.216296 321.024 122.955852 317.923556 128.914963 320.696889 127.734519 323.356444"></polygon>
            <path d="M209.142519,67.6835556 L205.416296,64.4408889 L205.416296,57.8986667 C205.416296,56.8746667 203.994074,50.7875556 202.770963,50.7875556 C201.547852,50.7875556 201.234963,49.2515556 200.609185,49.8773333 C199.983407,50.5031111 201.121185,57.4435556 200.609185,57.9555556 C200.097185,58.4675556 199.428741,54.656 198.959407,55.1111111 C198.490074,55.5662222 198.447407,58.3822222 198.447407,59.8186667 C198.65829,61.7407407 199.45237,63.5522342 200.722963,65.0097778 C201.860741,66.1475556 206.866963,71.5662222 206.866963,71.5662222 L209.142519,67.6835556 Z" id="Path" fill="#EF9467" fill-rule="nonzero"></path>
            <path d="M207.279407,65.5786667 L204.150519,69.12 C204.150519,69.12 216.481185,85.4471111 220.392296,90.9084444 C216.306135,89.2121585 212.407277,87.095908 208.758519,84.5937778 C202.955852,80.7964444 197.138963,78.7768889 193.114074,78.7768889 C184.580741,78.7768889 189.032296,106.936889 198.945185,111.047111 C217.732741,113.891556 238.767407,112.085333 242.024296,105.486222 C246.831407,95.7297778 219.282963,72.6328889 207.279407,65.5786667 Z" id="Path" fill="#D9F0FF" fill-rule="nonzero"></path>
            <path d="M220.392296,90.9084444 C220.392296,90.9084444 222.738963,97.4791111 226.920296,99.6266667" id="Path" stroke="#94C1F2" stroke-width="0.711111111"></path>
            <path d="M149.963852,86.2293333 C127.563852,111.388444 127.904887,154.652444 127.904887,184.064 C127.904887,184.064 144.346074,195.285333 169.462519,195.285333 C194.578963,195.285333 205.018074,189.098667 205.018074,189.098667 C205.771852,159.303111 200.452741,146.432 205.37363,97.1804444 C205.37363,97.1804444 197.352296,78.7768889 193.08563,78.7768889 C188.818963,78.7768889 172.09363,77.1271111 172.09363,77.1271111 L149.963852,86.2293333 Z" id="Path" fill="#D9F0FF" fill-rule="nonzero"></path>
            <path d="M204.178963,111.715556 C204.178963,111.715556 204.676741,103.111111 206.767407,101.020444" id="Path" stroke="#94C1F2" stroke-width="0.711111111"></path>
            <path d="M179.602963,58.2684444 C180.442074,53.1911111 184.054519,45.9377778 190.696296,46.7626667 C194.863407,47.2746667 198.106074,50.1475556 200.438519,53.5182222 C202.443852,56.3626667 201.675852,59.2071111 198.831407,66.5031111 C197.689465,68.4663973 196.206021,70.2099259 194.450963,71.6515556 C190.838519,73.9271111 185.604741,72.7751111 182.760296,69.76 C180.01102,66.6111121 178.848509,62.3799909 179.602963,58.2684444 Z" id="Path" fill="#FFB288" fill-rule="nonzero"></path>
            <path d="M180.427852,57.6426667 C181.380741,57.5004444 180.427852,56.8888889 180.854519,57.7564444 C181.124741,58.3111111 181.195852,58.4675556 181.750519,58.6524444 C182.305185,58.8373333 182.290963,59.3208889 182.731852,59.648 C183.414519,60.16 184.011852,59.4631111 184.296296,58.8657778 C184.762313,57.7220724 184.900217,56.471086 184.694519,55.2533333 C184.594963,54.3146667 184.282074,52.8355556 185.206519,52.1813333 C186.130963,51.5271111 187.610074,52.4231111 188.378074,52.6506667 C189.572741,52.992 190.753185,53.376 191.93363,53.7315556 C194.771868,54.7834741 197.804893,55.2056713 200.822519,54.9688889 C203.570957,54.7305324 206.034605,53.1781694 207.435852,50.8017778 C208.943407,47.9573333 205.928296,44.0604444 202.856296,44.0604444 C202.055306,44.1433359 201.264487,44.3053108 200.495407,44.544 C200.206645,44.621914 199.902392,44.621914 199.61363,44.544 C198.945185,44.3448889 198.646519,43.5911111 198.262519,43.008 C197.130189,41.3629711 195.132585,40.5427259 193.170963,40.9173333 C190.987382,41.3823091 188.846569,42.0293101 186.770963,42.8515556 C185.68046,42.9936334 184.576133,42.9936334 183.48563,42.8515556 C182.236847,42.9242784 181.120945,43.6555735 180.555852,44.7715556 C179.631407,43.7902222 177.554963,46.1937778 177.042963,46.8053333 C174.767407,49.5644444 174.042074,53.5466667 173.985185,57.0453333 C173.985185,60.1031111 174.440296,64.5404444 177.782519,65.7635556 C179.204741,66.2897778 180.100741,66.5742222 180.15763,65.2657778 C179.636417,63.6007489 179.335196,61.8747054 179.26163,60.1315556 C179.037361,59.0143631 179.538001,57.8765442 180.513185,57.2871111" id="Path" fill="#26387A" fill-rule="nonzero"></path>
            <path d="M191.322074,70.4 L190.596741,78.0657778 L193.128296,78.7768889 C192.068178,81.024926 189.911268,82.5563324 187.439407,82.816 C178.49363,83.9964444 172.178963,77.1271111 172.178963,77.1271111 L175.151407,76.5582222 L179.674074,62.336" id="Path" fill="#FFB288" fill-rule="nonzero"></path>
            <path d="M181.921185,57.5857778 C181.883193,56.9248052 181.331636,56.4108546 180.66963,56.4195556 C180.026894,56.4487076 179.424746,56.7420616 179.00563,57.2302222 C176.502519,59.7191111 179.64563,65.7635556 182.106074,62.6488889" id="Path" fill="#FFB288" fill-rule="nonzero"></path>
            <path d="M198.774519,66.3751111 C198.376296,67.3137778 196.783407,67.6977778 195.930074,67.7973333 C191.663407,68.2666667 188.235852,65.5502222 184.210963,65.0524444 C183.459163,64.7166775 182.58125,64.8435244 181.955242,65.3783664 C181.329233,65.9132085 181.066895,66.7605575 181.281185,67.5555556 C181.223176,68.5028164 181.223176,69.4527391 181.281185,70.4 C181.316958,71.2174519 181.540837,72.015631 181.935407,72.7324444 C183.755852,75.7617778 189.814519,76.2737778 192.900741,76.0888889 C194.144085,76.0830243 195.359172,75.7175103 196.399407,75.0364444 C197.82163,73.984 198.091852,72.192 198.603852,70.5564444 C198.99489,69.1964651 199.053422,67.762435 198.774519,66.3751111 L198.774519,66.3751111 Z" id="Path" fill="#26387A" fill-rule="nonzero"></path>
            <path d="M195.787852,69.6888889 C195.663521,69.5852933 195.508641,69.5253397 195.346963,69.5182222 C193.806294,69.4069839 192.272786,69.212328 190.753185,68.9351111 C190.494799,68.8855555 190.229349,68.8855555 189.970963,68.9351111 C189.445301,69.1612178 189.077755,69.6476754 189.003852,70.2151111 C188.897414,70.7350395 189.179099,71.2564568 189.672296,71.4524444 C190.597618,71.8706954 191.600846,72.0887885 192.616296,72.0924444 C193.565815,72.2420542 194.538033,72.066654 195.375407,71.5946667 C195.787852,71.2817778 196.399407,70.1297778 195.787852,69.6888889 Z" id="Path" fill="#FFB288" fill-rule="nonzero"></path>
            <path d="M177.284741,180.736 C128.346074,178.176 99.858963,203.491556 79.6207407,249.443556 C53.3522963,309.176889 16.6447407,313.927111 0.118518519,313.585778" id="Path" stroke="#B4E8FD" stroke-width="7.11111111" stroke-linecap="round" stroke-linejoin="round"></path>
            <path d="M158.511407,184.718222 C160.31763,206.321778 177.739852,217.984 191.706074,216.817778 L214.618074,214.912 L208.843852,145.664 L185.931852,147.569778 C171.96563,148.736 156.705185,163.128889 158.511407,184.718222 Z" id="Path" fill="#FDAE2B" fill-rule="nonzero"></path>
            <path d="M170.315852,183.736889 C172.079407,204.842667 185.960296,220.899556 201.40563,219.619556 L226.692741,217.500444 L220.321185,141.098667 L195.034074,143.203556 C179.602963,144.497778 168.552296,162.645333 170.315852,183.736889 Z" id="Path" fill="#EF8417" fill-rule="nonzero"></path>
            <ellipse id="Oval" fill="#FFC840" fill-rule="nonzero" transform="translate(221.722679, 179.434790) rotate(-4.770000) translate(-221.722679, -179.434790) " cx="221.722679" cy="179.43479" rx="28.0035556" ry="38.3288889"></ellipse>
            <path d="M220.491852,193.180444 C220.762074,196.323556 223.108741,198.684444 225.754074,198.471111 C228.399407,198.257778 230.319407,195.527111 230.020741,192.384 C229.722074,189.240889 227.403852,186.894222 224.758519,187.107556 C222.113185,187.320889 220.235852,190.051556 220.491852,193.180444 Z" id="Path" fill="#FDAE2B" fill-rule="nonzero"></path>
            <path d="M218.230519,166.115556 C218.500741,169.244444 220.847407,171.605333 223.492741,171.392 C226.138074,171.178667 228.058074,168.448 227.759407,165.319111 C227.460741,162.190222 225.142519,159.815111 222.497185,160.028444 C219.851852,160.241778 218.002963,162.972444 218.230519,166.115556 Z" id="Path" fill="#FDAE2B" fill-rule="nonzero"></path>
            <path d="M223.819852,169.685333 L259.546074,166.712889 C261.713941,166.516977 263.322831,164.616713 263.158519,162.446222 L263.158519,162.446222 C262.984576,160.261259 261.077623,158.627636 258.891852,158.791111 L223.16563,161.777778 C220.420741,161.92 220.932741,169.898667 223.819852,169.685333 Z" id="Path" fill="#E2E8ED" fill-rule="nonzero"></path>
            <path d="M226.066963,196.707556 L261.807407,193.720889 C263.97911,193.532376 265.592095,191.627276 265.419852,189.454222 L265.419852,189.454222 C265.24591,187.269259 263.338956,185.635636 261.153185,185.799111 L225.426963,188.771556 C222.667852,188.984889 223.194074,196.977778 226.066963,196.707556 Z" id="Path" fill="#E2E8ED" fill-rule="nonzero"></path>
            <path d="M138.031407,118.485333 C138.031407,118.485333 136.25363,136.590222 144.346074,151.651556 C151.272296,164.522667 165.025185,181.191111 176.146963,190.378667 L178.820741,189.724444 C174.952296,174.890667 162.735407,148.48 161.98163,138.652444 C161.227852,128.824889 161.398519,117.319111 161.21363,111.815111" id="Path" fill="#FFB288" fill-rule="nonzero"></path>
            <path d="M172.136296,77.1271111 C172.136296,77.1271111 156.420741,78.0373333 147.38963,84.864 C131.745185,96.6542222 134.84563,128.327111 139.382519,143.815111 C143.919407,159.303111 165.807407,182.485333 172.86163,187.548444 C174.027852,187.548444 177.426963,187.264 177.298963,184.604444 C173.387852,172.515556 162.266074,140.757333 162.266074,140.757333 L163.958519,97.9057778" id="Path" fill="#D9F0FF" fill-rule="nonzero"></path>
            <path d="M177.72563,187.548444 C179.458413,187.782219 181.092674,188.491055 182.447407,189.596444 C183.755852,190.620444 185.362963,192.327111 185.192296,193.109333 C185.02163,193.891556 182.874074,192.355556 182.618074,192.668444 C182.362074,192.981333 186.287407,198.912 185.547852,199.352889 C184.808296,199.793778 181.466074,194.432 181.466074,194.432 C181.466074,194.432 184.708741,200.120889 183.457185,200.291556 C182.20563,200.462222 179.531852,194.972444 179.531852,194.972444 C179.531852,194.972444 181.963852,199.822222 181.124741,200.007111 C180.28563,200.192 178.038519,195.356444 178.038519,195.356444 C178.038519,195.356444 179.873185,199.480889 179.176296,199.623111 C178.820741,199.623111 177.000296,197.603556 176.246519,195.114667 C175.492741,192.625778 174.639407,190.549333 175.307852,188.629333" id="Path" fill="#FFB288" fill-rule="nonzero"></path>
            <path d="M166.660741,153.386667 C164.15763,146.176 162.266074,140.757333 162.266074,140.757333 L165.551407,104.803556" id="Path" stroke="#94C1F2" stroke-width="0.711111111"></path>
            <path d="M135.798519,113.536 C135.713185,123.292444 136.89363,135.296 139.382519,143.815111 C141.572741,151.267556 147.77363,160.526222 154.415407,168.675556" id="Path" stroke="#94C1F2" stroke-width="0.711111111"></path>
            <path d="M471.670519,60.5582222 L474.187852,58.8373333 C474.623955,56.6312324 475.232641,54.4627879 476.008296,52.352 C476.902463,50.7596595 478.072682,49.3390235 479.464296,48.1564444 C480.075852,47.744 482.891852,46.1511111 483.602963,46.8622222 C483.944296,47.2177778 482.763852,50.3893333 482.180741,50.944 C481.59763,51.4986667 480.033185,53.9164444 480.274963,54.6844444 C480.516741,55.4524444 481.85363,53.7742222 482.180741,53.4613333 C482.507852,53.1484444 482.920296,52.7502222 483.062519,53.1626667 C482.834311,55.2327913 482.042281,57.2005673 480.772741,58.8515556 C479.668463,60.0230852 478.19933,60.7852294 476.60563,61.0133333 L472.737185,64.4408889" id="Path" fill="#FFB288" fill-rule="nonzero"></path>
            <path d="M502.07763,42.4817778 C506.168302,45.1597809 508.976652,49.4031668 509.842963,54.2151111 C509.934561,55.0638074 510.248543,55.8732926 510.753185,56.5617778 C511.24873,57.0266854 511.834454,57.3848964 512.474074,57.6142222 C515.9486,59.2830491 518.596963,62.2906861 519.812741,65.9484444 C520.324741,67.4702222 519.926519,69.6462222 520.523852,70.9546667 C521.263407,72.5617778 523.994074,72.9173333 525.458963,73.4151111 C529.996902,74.910637 533.080127,79.1281049 533.128929,83.9058825 C533.176583,88.68366 530.179121,92.9625077 525.672296,94.5493333 C526.788473,96.2685049 527.080437,98.3956694 526.468741,100.352 C525.85428,102.282552 524.80863,104.047997 523.410963,105.514667 C517.68839,111.760778 509.487085,115.142383 501.025185,114.744889 C498.61865,114.680545 496.241503,114.199342 493.999407,113.322667 C491.512063,112.206325 489.202335,110.730399 487.144296,108.942222 C484.441382,107.052985 482.215997,104.559774 480.644741,101.660444 C479.222519,98.688 479.350519,94.7911111 481.682963,92.4871111 C478.883909,92.9281931 476.090121,91.6654009 474.571852,89.2728889 C473.123072,86.8849376 472.697553,84.0139646 473.391407,81.3084444 C474.091037,78.6266607 475.345961,76.1216573 477.074963,73.9555556 C478.403787,72.5329632 479.348435,70.7953982 479.819852,68.9066667 C480.232296,65.6924444 478.39763,62.8195556 477.970963,59.6337778 C477.24563,54.6702222 477.473185,50.4035556 481.72563,47.7582222 C483.147852,44.2168889 484.740741,41.4862222 488.651852,40.448 C493.216425,39.2518558 498.072106,39.9874091 502.07763,42.4817778 L502.07763,42.4817778 Z" id="Path" fill="#26387A" fill-rule="nonzero"></path>
            <path d="M491.851852,80.2275556 C477.62963,76.5155556 461.430519,82.3751111 457.803852,82.3608889 C462.767407,77.3973333 471.855407,66.3751111 474.998519,62.5493333 C475.159417,61.2208233 474.538892,59.9188293 473.40563,59.2071111 C473.40563,59.2071111 434.49363,79.3315556 438.447407,92.4728889 C442.529185,106.183111 480.658963,99.456 483.702519,103.395556" id="Path" fill="#B6E9FE" fill-rule="nonzero"></path>
            <path d="M494.625185,207.928889 C494.625185,209.095111 489.505185,234.069333 489.135407,236.757333 C488.040296,244.565333 492.164741,252.401778 491.766519,264.490667 C491.282963,279.210667 485.025185,318.762667 484.228741,320.512 C483.432296,322.261333 479.620741,320.654222 479.620741,320.654222 C479.620741,320.654222 468.612741,267.605333 468.001185,245.902222 C467.489185,228.010667 470.07763,189.312 470.07763,189.312" id="Path" fill="#FFB288" fill-rule="nonzero"></path>
            <path d="M484.612741,321.194667 C484.920259,321.806949 485.126774,322.464918 485.224296,323.143111 C485.138963,324.792889 485.096296,325.987556 485.096296,325.987556 L484.370963,325.987556 L484.129185,324.650667 C482.759852,324.941218 481.457272,325.486372 480.289185,326.257778 C479.350519,326.869333 474.600296,326.812444 473.903407,326.428444 C473.623226,326.301153 473.421768,326.046386 473.362501,325.744406 C473.303234,325.442427 473.393455,325.130414 473.604741,324.906667 C473.874963,324.593778 478.966519,322.360889 478.966519,322.360889" id="Path" fill="#26387A" fill-rule="nonzero"></path>
            <path d="M479.691852,320.654222 C479.279407,321.649778 475.240296,323.854222 475.610074,324.152889 C477.401172,324.471856 479.246057,324.274543 480.929185,323.584 C483.304296,322.801778 484.641185,321.92 484.712296,321.294222 L484.257185,319.630222" id="Path" fill="#FFB288" fill-rule="nonzero"></path>
            <path d="M529.938963,208.967111 C529.938963,210.133333 525.672296,235.249778 525.316741,237.952 C524.463407,245.788444 528.82963,253.482667 528.801185,265.6 C528.801185,280.32 523.70963,320.042667 522.970074,321.820444 C522.230519,323.598222 518.362074,322.104889 518.362074,322.104889 C518.362074,322.104889 505.746963,269.411556 504.466963,247.722667 C503.414519,229.873778 504.836741,191.104 504.836741,191.104" id="Path" fill="#FFB288" fill-rule="nonzero"></path>
            <path d="M523.382519,322.488889 C523.707343,323.088686 523.933069,323.737049 524.050963,324.408889 C524.050963,326.058667 524.050963,327.182222 524.050963,327.182222 L523.339852,327.253333 L523.055407,325.916444 C521.696334,326.256742 520.409904,326.839731 519.258074,327.637333 C518.347852,328.291556 513.569185,328.376889 512.886519,328.021333 C512.602018,327.900848 512.392208,327.651683 512.321914,327.350825 C512.25162,327.049966 512.329304,326.733629 512.530963,326.499556 C512.801185,326.186667 517.835852,323.797333 517.835852,323.797333" id="Path" fill="#26387A" fill-rule="nonzero"></path>
            <path d="M518.362074,322.104889 C517.978074,323.114667 514.024296,325.432889 514.408296,325.717333 C516.204869,325.994543 518.043286,325.742502 519.698963,324.992 C522.031407,324.138667 523.354074,323.214222 523.410963,322.588444 L522.898963,320.938667" id="Path" fill="#FFB288" fill-rule="nonzero"></path>
            <path d="M517.110519,144.711111 C517.110519,144.711111 528.374519,152.106667 532.683852,169.813333 C538.472296,193.706667 529.938963,240.483556 529.938963,240.483556 C517.918394,243.73398 505.527083,245.411971 493.074963,245.475556 C473.860741,245.319111 462.482963,238.819556 462.454519,237.667556 C462.426074,236.515556 459.610074,201.088 463.492741,177.066667 C467.873185,150.044444 479.023407,142.833778 479.023407,142.833778" id="Path" fill="#2858AD" fill-rule="nonzero"></path>
            <path d="M501.82163,79.7724444 C503.570963,79.1182222 508.107852,80.7111111 516.598519,83.968 C520.324741,87.9928889 521.960296,96.8391111 522.756741,104.661333 C520.552296,123.719111 518.106074,134.115556 519.286519,140.544 C519.570963,142.065778 520.964741,143.217778 520.708741,145.351111 C520.25363,149.731556 513.057185,150.4 499.375407,151.950222 C485.69363,153.500444 473.419852,147.299556 474.159407,145.365333 C474.898963,143.431111 477.231407,141.724444 477.601185,140.444444 C477.970963,139.164444 479.023407,122.837333 477.601185,120.903111 C476.178963,118.968889 472.324741,113.393778 472.324741,107.975111 C472.324741,100.323556 476.591407,96.896 479.279407,92.7004444 C483.873185,85.7031111 487.35763,81.3226667 491.794963,80.2275556 C498.962963,78.464 501.82163,79.7724444 501.82163,79.7724444 Z" id="Path" fill="#B6E9FE" fill-rule="nonzero"></path>
            <path d="M478.838519,89.4293333 C479.087656,91.5089126 478.674582,93.6140959 477.658074,95.4453333 C477.146074,96.2844444 474.04563,99.4417778 473.391407,101.447111" id="Path" stroke="#6CB1EF" stroke-width="0.711111111"></path>
            <path d="M498.550519,70.4711111 C502.276741,66.7733333 502.817185,59.7475556 501.18163,54.9973333 C499.275852,49.6497778 491.652741,45.6533333 486.404741,48.9955556 C476.122074,55.5662222 486.561185,82.3893333 498.550519,70.4711111 Z" id="Path" fill="#FFB288" fill-rule="nonzero"></path>
            <path d="M491.45363,69.8168889 L491.652741,81.1946667 C491.652741,81.1946667 491.226074,83.7404444 495.691852,83.8968889 C501.82163,84.1102222 501.82163,79.7155556 501.82163,79.7155556 L498.280296,67.9395556" id="Path" fill="#FFB288" fill-rule="nonzero"></path>
            <path d="M496.090074,43.9466667 C494.928155,43.1160686 493.376003,43.0822035 492.178963,43.8613333 C491.480852,44.4436712 490.749549,44.9850249 489.988741,45.4826667 C489.347857,45.6938406 488.691707,45.8555008 488.026074,45.9662222 C484.937558,46.8337949 482.372357,48.9896005 480.986074,51.8826667 C479.734519,54.7271111 480.132741,59.3493333 482.49363,61.3831111 C482.421567,58.8636107 483.020374,56.3702179 484.228741,54.1582222 C484.727316,53.0888543 485.780539,52.3867059 486.959407,52.3377778 C488.25363,52.4942222 488.950519,53.8737778 489.889185,54.7697778 C491.405285,55.9551534 493.256706,56.6320169 495.179852,56.704 C497.284741,57.0168889 498.906074,57.3866667 499.944296,59.4488889 C500.361097,60.3595307 500.6759,61.3134783 500.882963,62.2933333 C501.207477,63.4419494 501.426459,64.6177914 501.537185,65.8062222 C501.519109,66.5477191 501.595576,67.2884979 501.764741,68.0106667 C502.377831,69.389002 503.5974,70.4035572 505.064296,70.7555556 C506.145185,71.1111111 507.908741,71.4524444 508.648296,70.2293333 C509.247813,69.0962953 509.66991,67.8779685 509.899852,66.6168889 C510.395442,62.7160217 509.455211,58.7680641 507.254519,55.5093333 C504.978963,51.8826667 501.750519,49.4648889 498.820741,46.4497778 C498.002292,45.5205092 497.086871,44.6813735 496.090074,43.9466667 L496.090074,43.9466667 Z" id="Path" fill="#26387A" fill-rule="nonzero"></path>
            <path d="M498.962963,61.5964444 C499.142229,60.6813275 499.826184,59.947731 500.726519,59.7048889 C503.570963,59.264 503.201185,63.6017778 502.07763,65.1377778 C501.423407,66.0195556 499.730963,67.1857778 498.962963,64.7253333" id="Path" fill="#FFB288" fill-rule="nonzero"></path>
            <path d="M529.839407,150.556444 L528.417185,153.486222 C528.417185,153.486222 523.254519,154.709333 522.728296,155.619556 C521.860741,157.041778 520.566519,159.047111 520.566519,160.170667 C520.566519,161.294222 520.680296,166.272 522.088296,166.272 C522.984296,166.272 525.060741,162.218667 525.487407,161.649778 C526.497185,160.327111 530.593185,159.345778 530.593185,155.832889 L533.096296,150.556444" id="Path" fill="#FFB288" fill-rule="nonzero"></path>
            <path d="M501.82163,79.616 C501.82163,79.616 513.882074,76.544 523.297185,82.4604444 C530.62163,87.0684444 549.466074,110.065778 549.466074,123.235556 C549.466074,132.110222 531.844741,154.097778 531.844741,154.097778 L528.914963,152.007111 C528.914963,152.007111 530.62163,134.727111 535.755852,125.198222 C531.972741,121.429333 517.266963,109.696 513.540741,105.984" id="Path" fill="#B6E9FE" fill-rule="nonzero"></path>
            <path d="M511.620741,104.817778 C514.251852,107.164444 521.192296,112.739556 521.192296,112.739556" id="Path" stroke="#6CB1EF" stroke-width="0.711111111"></path>
            <path d="M156.079407,59.264 L141.515852,47.5164444 C141.515852,47.5164444 148.058074,23.3386667 139.396741,14.8764444 C134.633979,10.4985317 129.02385,7.14407126 122.913185,5.02044444 C109.515852,-0.0711111111 93.5016296,-1.22311111 81.554963,6.71288889 C72.7371852,12.5582222 67.3327407,22.5848889 64.9860741,32.8817778 C62.866963,41.9555556 63.0376296,52.2666667 68.7122963,59.648 C71.3621833,62.9045876 74.6857202,65.5488615 78.4545185,67.3991111 C89.9887407,73.4435556 120.466963,75.7191111 133.707852,66.8586667 C137.362963,64.3982222 137.050074,61.0844444 138.586074,55.8933333 L156.079407,59.264 Z" id="Path" fill="#E7F5FE" fill-rule="nonzero"></path>
            <text id="Oops!" fill="#94C1F2" fill-rule="nonzero" font-family="OpenSans-Bold, Open Sans" font-size="23.9075556" font-weight="bold">
                <tspan x="71.6278519" y="45.9253333">Oops!</tspan>
            </text>
        </g>
    </g>
</svg>