<svg width="22" height="22" viewBox="0 0 22 22" fill="none" xmlns="http://www.w3.org/2000/svg">
<g clip-path="url(#clip0_3116_19046)">
<path d="M15.1242 0C13.9513 0.0811245 12.5804 0.83187 11.7816 1.80949C11.0528 2.69636 10.4533 4.0136 10.6871 5.29372C11.9686 5.33359 13.2927 4.56497 14.0599 3.57085C14.7777 2.64548 15.3208 1.33649 15.1242 0Z" fill="#FF9500"/>
<path d="M19.7594 7.38005C18.6333 5.96793 17.0506 5.14844 15.556 5.14844C13.5829 5.14844 12.7483 6.09306 11.3774 6.09306C9.96393 6.09306 8.89006 5.15119 7.18369 5.15119C5.50758 5.15119 3.72284 6.17556 2.59122 7.9273C1.00036 10.394 1.2726 15.0319 3.85071 18.9822C4.77333 20.3957 6.00533 21.9852 7.61682 21.999C9.05093 22.0127 9.45518 21.0791 11.398 21.0695C13.3409 21.0585 13.7094 22.0113 15.1408 21.9962C16.7536 21.9838 18.053 20.2225 18.9756 18.809C19.637 17.7956 19.8831 17.2855 20.396 16.1415C16.6656 14.7211 16.0675 9.41641 19.7594 7.38005Z" fill="#FF9500"/>
</g>
<defs>
<clipPath id="clip0_3116_19046">
<rect width="22" height="22" fill="white"/>
</clipPath>
</defs>
</svg>
