<svg width="22" height="22" viewBox="0 0 22 22" fill="none" xmlns="http://www.w3.org/2000/svg">
<path d="M20.1633 2.58356C20.1292 2.55392 20.0897 2.53126 20.0469 2.5169C20.0041 2.50253 19.9589 2.49673 19.9139 2.49984C19.8689 2.50294 19.8249 2.51488 19.7845 2.53498C19.7441 2.55507 19.708 2.58293 19.6784 2.61697C19.6487 2.651 19.6261 2.69054 19.6117 2.73333C19.5973 2.77611 19.5915 2.82131 19.5946 2.86634C19.5977 2.91137 19.6097 2.95534 19.6298 2.99576C19.6499 3.03617 19.6777 3.07223 19.7118 3.10188C19.7835 3.16542 19.8407 3.24358 19.8796 3.3311C19.9186 3.41863 19.9383 3.51348 19.9375 3.60928V13.3679H2.06251V3.60928C2.06171 3.51348 2.08144 3.41863 2.12039 3.3311C2.15933 3.24358 2.21657 3.16542 2.28827 3.10188C2.357 3.042 2.39913 2.95728 2.4054 2.86634C2.41166 2.7754 2.38154 2.6857 2.32167 2.61697C2.2618 2.54823 2.17707 2.5061 2.08613 2.49984C1.99519 2.49357 1.90549 2.52369 1.83676 2.58356C1.69095 2.71159 1.57428 2.8694 1.49463 3.04634C1.41498 3.22328 1.37419 3.41524 1.37501 3.60928V14.3995C1.3754 14.764 1.52039 15.1135 1.77817 15.3713C2.03595 15.6291 2.38546 15.7741 2.75001 15.7745H9.09227V17.8749H7.56251C7.47135 17.8749 7.38393 17.9112 7.31948 17.9756L6.28823 19.0069C6.2563 19.0388 6.23097 19.0767 6.21368 19.1184C6.1964 19.1601 6.18751 19.2048 6.18751 19.2499V20.2812C6.1875 20.3263 6.19638 20.371 6.21365 20.4127C6.23093 20.4544 6.25625 20.4923 6.28817 20.5242C6.32009 20.5562 6.35799 20.5815 6.3997 20.5988C6.44141 20.616 6.48612 20.6249 6.53126 20.6249H15.4688C15.5139 20.6249 15.5586 20.616 15.6003 20.5988C15.642 20.5815 15.6799 20.5562 15.7119 20.5242C15.7438 20.4923 15.7691 20.4544 15.7864 20.4127C15.8036 20.371 15.8125 20.3263 15.8125 20.2812V19.2499C15.8125 19.2048 15.8036 19.1601 15.7863 19.1184C15.7691 19.0767 15.7437 19.0388 15.7118 19.0069L14.6805 17.9756C14.6161 17.9112 14.5287 17.8749 14.4375 17.8749H12.7188V15.7745H19.25C19.6146 15.7741 19.9641 15.6291 20.2219 15.3713C20.4796 15.1135 20.6246 14.764 20.625 14.3995V3.60928C20.6258 3.41524 20.585 3.22328 20.5054 3.04634C20.4257 2.8694 20.3091 2.71159 20.1633 2.58356ZM12.7188 18.5624H14.2952L15.125 19.3922V19.9374H6.87501V19.3922L7.70485 18.5624H9.09227C9.27454 18.5622 9.44929 18.4897 9.57817 18.3608C9.70706 18.2319 9.77956 18.0572 9.77977 17.8749V15.7745H12.0313V17.8749C12.0315 18.0572 12.104 18.2319 12.2329 18.3608C12.3617 18.4897 12.5365 18.5622 12.7188 18.5624ZM19.25 15.087H2.75001C2.56774 15.0868 2.39299 15.0143 2.26411 14.8854C2.13522 14.7565 2.06272 14.5817 2.06251 14.3995V14.0554H19.9375V14.3995C19.9373 14.5817 19.8648 14.7565 19.7359 14.8854C19.607 15.0143 19.4323 15.0868 19.25 15.087Z" fill="#FF9500"/>
<path d="M4.125 10.4844H9.46638L10.737 11.9947C10.7692 12.033 10.8095 12.0639 10.8549 12.0851C10.9004 12.1062 10.9499 12.1172 11 12.1172C11.0501 12.1172 11.0996 12.1062 11.1451 12.0851C11.1905 12.0639 11.2308 12.033 11.263 11.9947L12.5336 10.4844H17.875C18.1484 10.4841 18.4105 10.3753 18.6039 10.182C18.7972 9.98867 18.906 9.72654 18.9062 9.45312V2.40625C18.906 2.13284 18.7972 1.87071 18.6039 1.67738C18.4105 1.48404 18.1484 1.3753 17.875 1.375H4.125C3.85159 1.3753 3.58946 1.48404 3.39613 1.67738C3.20279 1.87071 3.09405 2.13284 3.09375 2.40625V9.45312C3.09405 9.72654 3.20279 9.98867 3.39613 10.182C3.58946 10.3753 3.85159 10.4841 4.125 10.4844ZM3.78125 2.40625C3.78137 2.31512 3.81762 2.22775 3.88206 2.16331C3.9465 2.09887 4.03387 2.06262 4.125 2.0625H17.875C17.9661 2.06262 18.0535 2.09887 18.1179 2.16331C18.1824 2.22775 18.2186 2.31512 18.2188 2.40625V9.45312C18.2186 9.54426 18.1824 9.63162 18.1179 9.69606C18.0535 9.7605 17.9661 9.79676 17.875 9.79688H12.3737C12.3235 9.79688 12.274 9.80785 12.2286 9.82901C12.1831 9.85018 12.1429 9.88103 12.1106 9.9194L11 11.2395L9.88934 9.9194C9.8571 9.88103 9.81684 9.85018 9.77141 9.82902C9.72598 9.80785 9.67647 9.79688 9.62634 9.79688H4.125C4.03387 9.79676 3.9465 9.7605 3.88206 9.69606C3.81762 9.63162 3.78137 9.54426 3.78125 9.45312V2.40625Z" fill="#FF9500"/>
<path d="M7.26175 8.68008C7.87198 8.67998 8.46463 8.47568 8.94529 8.09971L9.42496 8.57936C9.48954 8.64328 9.57679 8.67903 9.66765 8.6788C9.7585 8.67857 9.84557 8.64237 9.90982 8.57812C9.97406 8.51387 10.0103 8.4268 10.0105 8.33594C10.0107 8.24509 9.97495 8.15783 9.91103 8.09327L9.43137 7.61361C9.81103 7.12264 10.0132 6.51757 10.005 5.89698C9.99682 5.27639 9.77869 4.67688 9.38617 4.19612C8.99365 3.71537 8.44989 3.38172 7.84348 3.24954C7.23708 3.11736 6.60379 3.19445 6.0468 3.46823C5.48981 3.74202 5.04196 4.19637 4.77623 4.75724C4.51049 5.31812 4.44254 5.95246 4.58344 6.55689C4.72434 7.16133 5.06579 7.70023 5.55215 8.08578C6.03851 8.47133 6.64111 8.68081 7.26175 8.68008ZM7.26175 3.86758C7.64033 3.86698 8.01175 3.97076 8.33519 4.16751C8.65863 4.36426 8.92158 4.64637 9.09512 4.98283C9.26867 5.31929 9.3461 5.69709 9.31891 6.07469C9.29173 6.4523 9.16097 6.8151 8.94101 7.12323L7.50479 5.68701C7.44033 5.62255 7.3529 5.58634 7.26174 5.58634C7.17058 5.58635 7.08316 5.62256 7.0187 5.68702C6.95425 5.75148 6.91804 5.83891 6.91804 5.93007C6.91804 6.02123 6.95425 6.10865 7.01871 6.17311L8.45494 7.60933C8.19047 7.7973 7.88537 7.92019 7.56445 7.96801C7.24354 8.01582 6.91586 7.98721 6.60809 7.8845C6.30031 7.78179 6.02113 7.60788 5.79324 7.37692C5.56536 7.14596 5.39521 6.86447 5.29663 6.55534C5.19806 6.24622 5.17384 5.91819 5.22595 5.59794C5.27807 5.2777 5.40504 4.97427 5.59654 4.71235C5.78804 4.45043 6.03865 4.23741 6.32801 4.09062C6.61737 3.94382 6.93729 3.8674 7.26175 3.86758Z" fill="#FF9500"/>
<path d="M14.1367 8.68066C14.2279 8.68066 14.3153 8.64445 14.3798 8.57998C14.4443 8.51552 14.4805 8.42808 14.4805 8.33691V6.27441H16.8008V8.33691C16.8008 8.42808 16.837 8.51552 16.9015 8.57998C16.9659 8.64445 17.0534 8.68066 17.1445 8.68066C17.2357 8.68066 17.3231 8.64445 17.3876 8.57998C17.4521 8.51552 17.4883 8.42808 17.4883 8.33691V4.21191C17.488 3.9385 17.3792 3.67637 17.1859 3.48304C16.9926 3.28971 16.7304 3.18096 16.457 3.18066H14.8242C14.5508 3.18096 14.2887 3.28971 14.0953 3.48304C13.902 3.67637 13.7933 3.9385 13.793 4.21191V8.33691C13.793 8.42808 13.8292 8.51552 13.8937 8.57998C13.9581 8.64445 14.0456 8.68066 14.1367 8.68066ZM14.8242 3.86816H16.457C16.5482 3.86828 16.6355 3.90454 16.7 3.96898C16.7644 4.03342 16.8007 4.12078 16.8008 4.21191V5.58691H14.4805V4.21191C14.4806 4.12078 14.5168 4.03342 14.5813 3.96898C14.6457 3.90454 14.7331 3.86828 14.8242 3.86816Z" fill="#FF9500"/>
<path d="M11.0774 8.66739C11.1208 8.6799 11.1662 8.68372 11.2111 8.67862C11.256 8.67353 11.2994 8.65961 11.3389 8.63769C11.3784 8.61576 11.4131 8.58625 11.4412 8.55085C11.4692 8.51544 11.49 8.47485 11.5023 8.43139L12.8773 3.61889C12.9015 3.53153 12.8901 3.43817 12.8458 3.35913C12.8014 3.28008 12.7277 3.22176 12.6405 3.19684C12.5534 3.17192 12.4599 3.18243 12.3805 3.22608C12.301 3.26972 12.2421 3.34298 12.2164 3.4299L10.8414 8.2424C10.8163 8.33005 10.8271 8.42407 10.8714 8.50377C10.9156 8.58346 10.9897 8.64232 11.0774 8.66739Z" fill="#FF9500"/>
</svg>
