<?xml version="1.0" encoding="UTF-8"?>
<svg width="179px" height="50px" viewBox="0 0 179 50" version="1.1" xmlns="http://www.w3.org/2000/svg" xmlns:xlink="http://www.w3.org/1999/xlink">
    <title>spony</title>
    <g id="Page-1" stroke="none" stroke-width="1" fill="none" fill-rule="evenodd">
        <g id="Spony" transform="translate(-91.000000, -190.000000)" fill="#0D1C3A" fill-rule="nonzero">
            <path d="M112.459623,226.191677 C113.796869,226.191677 115.006759,226.065574 116.280327,225.750315 C117.681252,225.308953 119.145856,224.489281 119.973675,223.543506 C120.865173,222.471627 121.565635,221.273644 122.011384,219.949559 C122.457133,218.499369 122.711846,216.923077 122.711846,215.157629 C122.711846,211.374527 121.692992,209.104666 120.101032,206.897856 C119.336891,205.762926 117.617574,205.006305 116.280327,204.691047 C115.134116,204.43884 113.860548,204.312736 112.523301,204.312736 L101.761651,204.312736 C100.679118,204.249685 100.169691,204.06053 99.6602633,203.745271 C99.2145144,203.493064 98.9598008,202.736444 98.9598008,201.790668 C98.9598008,200.277427 99.4055496,199.773014 99.7876201,199.457755 C100.488083,198.953342 101.315902,198.764187 102.398435,198.764187 L102.476717,198.764692 C102.957902,198.768002 105.569747,198.786938 108.158383,198.803117 L108.675162,198.806311 C110.47834,198.817321 112.199785,198.82638 113.10072,198.827181 L113.223764,198.827238 C113.388578,198.827238 113.545461,198.827238 113.694515,198.827136 L114.118294,198.826417 C114.986047,198.823748 115.527424,198.812403 115.7709,198.764187 C118.063323,198.701135 119.591604,197.818411 120.419424,196.052963 C121.130865,194.585381 121.17993,192.516595 121.183314,192.034684 L121.183565,190.693569 L101.37958,190.693569 C100.106012,190.693569 98.8961224,190.819672 97.6225543,191.134931 C96.1579509,191.576293 94.757026,192.395965 93.9292067,193.34174 C91.9551761,195.674653 91,198.385876 91,201.727617 C91,205.321564 92.0825329,207.654477 93.7381715,209.98739 C94.5659908,211.12232 96.2853077,211.878941 97.5588758,212.194199 C98.7050872,212.446406 99.9786553,212.572509 101.37958,212.572509 L112.077552,212.572509 C113.223764,212.635561 113.733191,212.824716 114.242618,213.139975 C114.624689,213.392182 114.879402,214.148802 114.879402,215.094578 C114.879402,216.607818 114.497332,217.112232 114.115261,217.427491 C113.351121,217.931904 112.523301,218.121059 111.440768,218.121059 C111.440768,218.121059 111.430524,218.120987 111.410631,218.120847 L111.322601,218.120229 C110.782265,218.116447 108.467433,218.100389 106.011614,218.085535 L104.95525,218.079282 C103.196133,218.069115 101.484143,218.060543 100.414584,218.05848 L99.2762061,218.058256 C98.1178699,218.059579 97.4348705,218.067963 97.113127,218.121059 C94.8843828,218.184111 93.356101,219.066835 92.5282818,220.832282 C91.8168402,222.299865 91.7677753,224.368651 91.7643915,224.850562 L91.7641409,226.191677 L112.459623,226.191677 Z M127.615084,240 C130.098541,240 131.435788,239.558638 132.454642,238.360656 C133.537175,237.225725 134.237638,236.090794 134.237638,234.199243 L134.237638,222.660782 C135.383849,223.858764 137.35788,225.056747 138.94984,225.750315 C140.987549,226.569987 143.025258,226.948298 145.126645,226.948298 C146.909641,226.948298 148.628958,226.633039 150.284596,225.93947 C152.003913,225.18285 153.532195,224.110971 154.869441,222.660782 C156.270366,221.210593 157.352899,219.319042 158.180719,217.04918 C159.072216,214.779319 159.454287,212.068096 159.454287,208.915511 C159.454287,205.825977 159.072216,203.114754 158.180719,200.844893 C157.352899,198.575032 156.270366,196.68348 154.869441,195.233291 C153.532195,193.783102 152.003913,192.711223 150.284596,191.954603 C148.628958,191.261034 145.572394,190.126103 141.815368,190.126103 C139.268232,190.126103 134.9381,190.693569 131.37211,192.900378 C128.95233,194.413619 127.424048,196.809584 126.532551,198.701135 C125.895767,199.962169 124.876912,203.934426 124.685877,207.150063 C124.64767,208.209332 124.632387,219.823455 124.626274,228.945271 L124.625693,229.848662 C124.625601,229.997681 124.625511,230.145888 124.625424,230.29322 L124.624929,231.166252 C124.624851,231.309849 124.624775,231.452451 124.624701,231.593999 L124.623918,233.238083 C124.623861,233.370227 124.623805,233.501074 124.623752,233.630565 L124.623193,235.115463 C124.623154,235.233134 124.623115,235.349206 124.623079,235.463619 L124.622199,238.761527 C124.622199,238.827432 124.622199,238.890953 124.622199,238.95203 L124.622199,240 L124.622199,240 L127.615084,240 Z M141.879047,218.562421 C140.478122,218.562421 139.268232,218.247163 138.249377,217.679697 C137.230523,217.04918 136.402704,216.29256 135.702241,215.220681 C135.065457,214.211854 134.55603,213.076923 134.237638,211.752837 C133.919246,210.428752 133.855567,209.482976 133.855567,208.852459 C133.855567,207.843632 133.919246,206.708701 134.237638,205.384615 C134.55603,204.06053 135.065457,202.862547 135.702241,201.85372 C136.402704,200.844893 137.230523,200.025221 138.249377,199.457755 C139.268232,198.89029 140.478122,198.575032 141.879047,198.575032 C143.279972,198.575032 144.55354,198.89029 145.508716,199.457755 C146.52757,200.025221 147.35539,200.844893 148.055852,201.85372 C148.692636,202.862547 149.202063,204.06053 149.520455,205.384615 C149.838847,206.708701 149.902526,207.78058 149.902526,208.852459 C149.902526,209.735183 149.838847,210.428752 149.520455,211.752837 C149.202063,213.076923 148.692636,214.211854 148.055852,215.220681 C147.35539,216.29256 146.52757,217.04918 145.508716,217.679697 C144.55354,218.247163 143.279972,218.562421 141.879047,218.562421 Z M180.595518,226.569987 C183.333689,226.569987 185.817147,226.191677 188.045891,225.308953 C190.274635,224.489281 192.184988,223.291299 193.776948,221.651955 C195.305229,220.075662 196.515119,218.184111 197.406617,215.977301 C198.234436,213.770492 198.680185,211.248424 198.680185,208.537201 C198.680185,205.762926 198.234436,203.240858 197.406617,201.034048 C196.515119,198.764187 195.305229,196.872636 193.776948,195.296343 C192.184988,193.72005 190.274635,192.459016 188.045891,191.576293 C185.817147,190.75662 183.333689,190.315259 180.595518,190.315259 C177.857346,190.315259 175.437567,190.75662 173.208822,191.576293 C170.980078,192.459016 169.133404,193.72005 167.541444,195.296343 C165.949484,196.872636 164.739594,198.764187 163.911775,201.034048 C163.083956,203.240858 162.638207,205.762926 162.638207,208.537201 C162.638207,211.248424 163.083956,213.770492 163.911775,215.977301 C164.739594,218.184111 165.949484,220.075662 167.541444,221.651955 C169.133404,223.291299 170.980078,224.489281 173.208822,225.308953 C175.437567,226.191677 177.857346,226.569987 180.595518,226.569987 Z M180.595518,219.508197 C179.003557,219.508197 177.666311,219.192938 176.583778,218.562421 C175.501245,217.931904 174.609747,217.112232 173.972963,216.103405 C173.336179,215.031526 172.89043,213.833544 172.635717,212.572509 C172.317325,211.248424 172.189968,209.861286 172.189968,208.537201 C172.189968,207.150063 172.317325,205.762926 172.635717,204.43884 C172.89043,203.114754 173.336179,201.916772 173.972963,200.907945 C174.609747,199.899117 175.501245,199.079445 176.583778,198.385876 C177.666311,197.755359 179.003557,197.440101 180.595518,197.440101 C182.251156,197.440101 183.588403,197.755359 184.670936,198.385876 C185.817147,199.079445 186.644966,199.899117 187.345429,200.907945 C187.982213,201.916772 188.427962,203.114754 188.682675,204.43884 C189.001067,205.762926 189.128424,207.150063 189.128424,208.537201 C189.128424,209.861286 189.001067,211.248424 188.682675,212.572509 C188.427962,213.833544 187.982213,215.031526 187.345429,216.103405 C186.644966,217.112232 185.817147,217.931904 184.670936,218.562421 C183.588403,219.192938 182.251156,219.508197 180.595518,219.508197 Z M210.333333,226.191677 L210.333333,206.204288 C210.333333,203.303909 210.842761,201.727617 211.734258,200.340479 C212.625756,198.89029 214.599787,198.13367 216.955888,198.13367 C219.630381,198.13367 221.477054,198.827238 222.686944,200.403531 C223.833155,201.916772 224.342583,203.682219 224.342583,205.825977 L224.342583,219.192938 C224.406261,223.039092 226.189256,224.42623 227.717538,225.119798 C229.90926,226.116895 233.423454,226.18646 233.903139,226.191313 L233.958022,226.191677 L233.958022,226.191677 L233.958022,204.501892 C233.958022,202.673392 233.766987,200.781841 233.193881,198.575032 C232.557097,196.431274 231.219851,194.413619 230.073639,193.404792 C226.953397,190.819672 220.203486,190 217.019566,190 C214.217716,190 207.913554,190.630517 204.09285,193.278689 C202.691925,194.224464 201.545713,196.620429 201.163643,198.448928 C200.781572,200.277427 200.590537,202.23203 200.590537,204.43884 L200.590537,226.191677 L210.333333,226.191677 Z M258.665244,240 C260.193525,240 261.658129,239.873897 262.995375,239.684741 C264.3963,239.432535 265.60619,239.054224 266.625044,238.423707 C267.707577,237.856242 268.535397,236.973518 269.108502,235.901639 C269.681608,234.892812 270,233.568726 270,231.929382 L270,190.630517 L268.599075,190.630517 C265.860904,190.630517 264.01423,191.071879 262.80434,192.20681 C261.658129,193.215637 260.448239,194.981084 260.448239,197.313997 L260.447812,209.975279 C260.441613,212.887768 260.345532,214.716267 258.856279,216.544767 C257.582711,218.121059 254.971896,218.751576 253.443614,218.751576 C251.151192,218.751576 248.858769,217.994956 247.967271,216.544767 C246.948417,214.842371 246.757382,213.266078 246.757382,210.3657 L246.757382,190.693569 L237.141942,190.693569 L237.141942,212.131148 C237.141942,214.274905 237.332978,216.229508 237.715048,217.994956 C238.097118,219.760404 238.797581,221.273644 239.689079,222.534678 C240.644255,223.732661 241.981501,224.678436 243.63714,225.435057 C245.292778,226.128625 247.394166,226.696091 250.00498,226.822194 L250.514408,226.822194 C253.061544,226.822194 256.945927,226.317781 260.257204,223.921816 L260.448239,228.14628 L260.448239,228.398487 C260.448239,229.596469 260.00249,230.668348 259.302028,231.48802 C258.728922,231.992434 251.660619,232.055485 250.00498,232.055485 L248.221985,232.055485 L248.221985,232.055485 C246.056919,232.181589 244.210245,233.442623 243.382426,234.640605 C242.490928,235.901639 241.981501,237.41488 241.981501,239.62169 L241.981501,240 L258.665244,240 Z" id="spony"></path>
        </g>
    </g>
</svg>