<?xml version="1.0" encoding="UTF-8"?>
<svg width="32px" height="32px" viewBox="0 0 32 32" version="1.1" xmlns="http://www.w3.org/2000/svg" xmlns:xlink="http://www.w3.org/1999/xlink">
    <title>1</title>
    <g id="1" stroke="none" stroke-width="1" fill="none" fill-rule="evenodd" fill-opacity="0.85" stroke-opacity="0.85">
        <g id="iconfinder_party-11_4416749" transform="translate(1.000000, 1.000000)" fill="#000000" fill-rule="nonzero" stroke="#000000" stroke-width="0.3">
            <path d="M19.7458633,20.7461733 C17.7862335,20.7461733 14.8402819,19.0205464 12.3733013,16.8194914 C9.13760412,13.8706625 6.65879715,10.0014997 8.17138979,8.30404574 C9.13760412,7.30036277 11.1516359,7.59970876 13.7132308,9.11051171 C13.9899682,9.27368471 14.0810312,9.62937369 13.9166432,9.90406568 C13.7522552,10.1799307 13.3939177,10.2691477 13.1171804,10.1059747 C10.8961879,8.79708072 9.44154255,8.66208073 9.03116946,9.08820671 C8.41619919,9.77845869 9.70409005,12.8141526 13.1585743,15.9625445 C16.6993916,19.1226724 19.7848907,20.0770533 20.4341585,19.3715404 C20.7948655,18.9782854 20.5890835,17.7386494 19.3165673,15.8592425 C19.1356229,15.5939405 19.2065814,15.2347295 19.4750406,15.0562955 C19.7387698,14.8778645 20.1042038,14.9459495 20.2839634,15.2135975 C21.8024707,17.4533914 22.161993,19.2071944 21.2963016,20.1521793 C20.9178595,20.5630443 20.3844894,20.7461733 19.7458633,20.7461733 Z" id="Path"></path>
            <path d="M2.16359188,30 C1.4782525,30 0.985683908,29.854437 0.661640891,29.558616 C0.424523344,29.341443 0.409738066,28.975188 0.627935775,28.740408 C0.847315218,28.5032821 1.21570803,28.4903671 1.45282557,28.706367 C1.47056368,28.722801 1.65860449,28.863669 2.34335149,28.837845 C5.96458721,28.68054 15.8691765,24.1692572 20.0214189,19.6450594 C20.2413877,19.4091064 20.6103729,19.3926724 20.8457193,19.6063204 C21.084611,19.8223173 21.1011704,20.1885723 20.8847468,20.4245253 C16.4214725,25.2879812 6.20348189,29.829786 2.39479773,29.995302 C2.31556109,29.998827 2.23809856,30 2.16359188,30 Z" id="Path"></path>
            <path d="M0.954345282,29.643135 C0.813020746,29.643135 0.67169621,29.59266 0.559343809,29.490531 C-1.65928518,27.4655581 3.12270976,13.8460116 7.86863612,8.67264973 C8.08742319,8.43669673 8.45759011,8.42026274 8.69293354,8.63391073 C8.9318252,8.84990772 8.94838459,9.21616271 8.731961,9.4521157 C3.81337148,14.8133015 0.0839239587,27.4831651 1.34934676,28.638279 C1.5864643,28.854276 1.60183894,29.220534 1.38364425,29.456487 C1.26892838,29.580921 1.11163683,29.643135 0.954345282,29.643135 Z" id="Path"></path>
            <path d="M17.5343337,20.1709623 C17.528419,20.1709623 17.5225073,20.1709623 17.5165956,20.1709623 C11.7784387,19.9972263 7.24893589,18.3725554 4.05226616,15.3427265 C3.81928619,15.1220345 3.81100801,14.7546035 4.0333433,14.5233455 C4.25567859,14.2920875 4.62584551,14.2838705 4.85882547,14.5045625 C7.88164729,17.3712184 12.0338867,18.8468044 17.5520749,19.0134994 C17.8737514,19.0228894 18.1280177,19.2905404 18.117376,19.6098394 C18.1079131,19.9232703 17.8489138,20.1709623 17.5343337,20.1709623 Z" id="Path"></path>
            <path d="M12.7115372,24.1856912 C8.87151444,24.1856912 5.25619042,22.9894892 1.91819615,20.6076543 C1.65624103,20.4210063 1.59710898,20.0582703 1.7851498,19.7988393 C1.97259824,19.5405814 2.33803218,19.4818894 2.59939492,19.6661914 C6.9000553,22.7347562 11.4875084,23.6903072 16.6237032,22.6032813 C16.9335533,22.5328473 17.2493182,22.7347592 17.3167284,23.0481872 C17.3841386,23.3604452 17.1830897,23.6680052 16.8673279,23.7349172 C15.4564399,24.0354302 14.0692048,24.1856912 12.7115372,24.1856912 Z" id="Path"></path>
            <path d="M9.07610861,27.7109011 C5.62162436,27.7109011 2.75313824,26.9044351 0.54278744,25.3079342 C0.282017074,25.1201102 0.224066761,24.7573772 0.413881691,24.4991192 C0.603104244,24.2408612 0.967356449,24.1821692 1.22871919,24.3711662 C3.36337856,25.9113181 6.23541592,26.6450041 9.6910819,26.5440481 C10.0174884,26.5663501 10.2823994,26.7858721 10.2906775,27.1063441 C10.3001405,27.4256431 10.0458712,27.6921181 9.72419464,27.7015111 C9.50658931,27.7085551 9.29016571,27.7109011 9.07610861,27.7109011 Z" id="Path"></path>
            <path d="M16.7455125,14.9588645 C16.4853315,14.9588645 16.2476216,14.7851285 16.1802114,14.5233485 C16.0844183,14.1523985 15.8266008,13.6781436 15.5770675,13.2179766 C15.0082181,12.1708596 14.2300446,10.7363587 15.4162277,9.91580468 C16.4001832,9.22320671 17.5236891,10.0613677 18.4236749,10.7351857 C18.9558603,11.1354846 19.6879129,11.6860416 19.8854167,11.4665226 C20.2059115,11.1213966 19.6867312,10.2257137 19.226689,9.4368547 C18.5797847,8.32282574 17.7744102,6.93645379 18.9369405,6.07598782 C20.071091,5.22843384 21.340059,6.23328981 22.3630419,7.04327778 C23.3162481,7.79691976 24.0281962,8.30521574 24.4610403,8.03169975 C24.5473704,7.97535375 24.5532851,7.93896075 24.5556516,7.92252675 C24.6124172,7.57505176 23.9229402,6.70636879 23.4664402,6.13116081 C23.0253179,5.57590883 22.5688178,5.00069785 22.3240115,4.46305287 C22.1915545,4.17192688 22.321645,3.82914989 22.6161235,3.6964989 C22.9094172,3.5673699 23.2547466,3.6929769 23.3883853,3.98645189 C23.5740566,4.39496787 23.9856175,4.91265685 24.3829824,5.41390884 C25.1351396,6.36241881 25.8470877,7.25810178 25.7075373,8.10800175 C25.6661433,8.36156474 25.5277776,8.72194873 25.0984787,9.00133872 C23.9241189,9.75732669 22.7083683,8.79825372 21.6357162,7.94835375 C20.7061629,7.21232178 20.0143194,6.71693779 19.6382408,7.00336578 C19.3283907,7.23227478 19.7091993,7.94717775 20.2378395,8.85812172 C20.8658209,9.93693368 21.6463609,11.2798686 20.7451903,12.2506836 C19.8310116,13.2379296 18.6117127,12.3258126 17.720002,11.6602146 C17.1558826,11.2376106 16.3812573,10.6553587 16.0879605,10.8631387 C15.7757439,11.0791356 16.1210733,11.7776046 16.6047743,12.6685926 C16.8874234,13.1898036 17.1795354,13.7274486 17.3108076,14.2345715 C17.391229,14.5444805 17.2031882,14.8602575 16.8909716,14.9400815 C16.8424903,14.9529935 16.7928212,14.9588645 16.7455125,14.9588645 Z" id="Path"></path>
            <path d="M12.5223147,12.1638156 C12.4336151,12.1638156 12.3449185,12.1438596 12.2609519,12.1015986 C11.9723881,11.9583816 11.8564905,11.6109096 12.0007709,11.3244786 C13.5866885,8.17843574 14.5599993,4.54757187 14.8935022,0.530500004 C14.9207033,0.212374015 15.2092671,-0.017710977 15.5238471,0.00107202237 C15.8443419,0.0280720215 16.0832366,0.307459012 16.0572173,0.626758001 C15.7107032,4.79056886 14.6971832,8.56464673 13.0438584,11.8433406 C12.9421507,12.0464256 12.7363718,12.1638156 12.5223147,12.1638156 Z" id="Path"></path>
            <path d="M17.4314443,17.3430454 C17.2398552,17.3430454 17.0518174,17.2479604 16.9394681,17.0753974 C16.7656201,16.8054004 16.8448568,16.4473625 17.1168642,16.2747995 C20.2283826,14.2979585 23.9158468,12.9291936 28.0763674,12.2060736 C28.3921322,12.1544226 28.6960706,12.3598536 28.7516514,12.6768066 C28.8072353,12.9914106 28.5955447,13.2919266 28.2774133,13.3470996 C24.2706391,14.0432195 20.7274552,15.3568115 17.7460244,17.2514794 C17.6490496,17.3125264 17.5402454,17.3430454 17.4314443,17.3430454 Z" id="Path"></path>
            <path d="M22.9247949,12.1626426 C22.6019336,12.1626426 22.3240145,11.9043846 22.3240145,11.5839126 C22.3240145,11.2634406 22.5676391,11.0051826 22.8904974,11.0051826 L22.9247949,11.0051826 C23.2476531,11.0051826 23.5078342,11.2634406 23.5078342,11.5839126 C23.5078342,11.9043846 23.2476562,12.1626426 22.9247949,12.1626426 Z" id="Path"></path>
            <path d="M18.149304,4.40083587 C18.0038389,4.40083587 17.8583737,4.34096787 17.7365644,4.22122888 C17.6277633,4.10031688 17.5674465,3.95592689 17.5674465,3.81271289 C17.5674465,3.6683229 17.6277603,3.5239359 17.7365644,3.41593591 C17.9790043,3.17528791 18.3420748,3.18702691 18.5608649,3.40302391 C18.6814924,3.5239359 18.7418062,3.6683259 18.7418062,3.81271289 C18.7418062,3.95592689 18.6814924,4.10031688 18.5726883,4.22122888 C18.4520607,4.34096787 18.3065956,4.40083587 18.149304,4.40083587 Z" id="Path"></path>
            <path d="M23.1991658,17.4440014 C23.0406925,17.4440014 22.8964121,17.3841334 22.7864262,17.2749604 C22.677625,17.1669604 22.6173082,17.0225734 22.6173082,16.8664444 C22.6173082,16.7220545 22.677622,16.5659285 22.7864262,16.4579285 C23.0170397,16.2301925 23.3919365,16.2419315 23.6107266,16.4579285 C23.7195278,16.5659285 23.7798446,16.7103155 23.7798446,16.8664444 C23.7798446,17.0225734 23.7195308,17.1787024 23.6107266,17.2749604 C23.5137489,17.3841334 23.3564573,17.4440014 23.1991658,17.4440014 Z" id="Path"></path>
            <path d="M28.4181455,8.07982875 C28.260857,8.07982875 28.1153918,8.00704575 28.0065876,7.89904875 C27.8977835,7.79105176 27.8374697,7.64666176 27.8374697,7.49053277 C27.8374697,7.34614277 27.8977835,7.20175578 27.9947582,7.09375578 C28.2360164,6.86601979 28.612095,6.86601979 28.8297003,7.08201678 C28.9385015,7.20175278 29,7.34614277 29,7.49053277 C29,7.64666176 28.9385015,7.79105176 28.8297003,7.89904875 C28.7209022,8.01996075 28.575437,8.07982875 28.4181455,8.07982875 Z" id="Path"></path>
            <path d="M26.1533956,4.46187987 C25.9961041,4.46187987 25.850642,4.40083587 25.7418378,4.29283888 C25.6330366,4.18484188 25.5727198,4.04045188 25.5727198,3.88432289 C25.5727198,3.7281939 25.6330336,3.5838039 25.7418378,3.4758069 C25.9476167,3.25980991 26.3473512,3.25980991 26.5649535,3.4758069 C26.6737546,3.5838039 26.7352532,3.73993289 26.7352532,3.88432289 C26.7352532,4.04045188 26.6737546,4.18484188 26.5649535,4.29283888 C26.4561523,4.40083587 26.3106841,4.46187987 26.1533956,4.46187987 Z" id="Path"></path>
            <path d="M11.7299483,5.65103783 C11.5726567,5.65103783 11.4153652,5.59116983 11.3183904,5.48316984 C11.2214157,5.38690884 11.1492725,5.23078284 11.1492725,5.07465385 C11.1492725,4.91852485 11.2095862,4.77413486 11.3183904,4.66613786 C11.5123429,4.46187987 11.9357272,4.44896787 12.1545142,4.66613786 C12.251492,4.77413486 12.3236322,4.93026385 12.3236322,5.07465385 C12.3236322,5.23078284 12.251492,5.37517284 12.1415061,5.48316984 C12.0457131,5.59116983 11.8872398,5.65103783 11.7299483,5.65103783 Z" id="Path"></path>
            <path d="M9.70645654,6.6101108 C9.43090089,6.6101108 9.18609452,6.4152428 9.13405892,6.13585581 C8.88688605,4.81756886 8.46468656,3.83853989 7.87691431,3.22576591 C7.65576075,2.99333492 7.66522067,2.62707993 7.89820064,2.40638494 C8.13236234,2.18803895 8.5013445,2.19625895 8.72368281,2.42751394 C9.46874661,3.20580691 9.99265383,4.38205287 10.2812176,5.92455082 C10.3403497,6.23915481 10.1310225,6.5408468 9.81407596,6.5995418 C9.77859673,6.6065888 9.74193577,6.6101108 9.70645654,6.6101108 Z" id="Path"></path>
            <path d="M27.6612583,19.8986223 C27.5725617,19.8986223 27.4838622,19.8786663 27.3998956,19.8364053 C26.5401189,19.4102794 25.3042606,19.2201094 23.62255,19.2506314 C23.617817,19.2506314 23.6142688,19.2506314 23.6107236,19.2506314 C23.293777,19.2506314 23.033596,18.9994174 23.0276813,18.6836404 C23.0205849,18.3631684 23.2772207,18.0990394 23.5988972,18.0931684 C25.480472,18.0544294 26.8889935,18.2868634 27.922621,18.8010274 C28.2100031,18.9442444 28.3270824,19.2917164 28.1828021,19.5781474 C28.0810943,19.7812293 27.8753154,19.8986223 27.6612583,19.8986223 Z" id="Path"></path>
        </g>
    </g>
</svg>