<?xml version="1.0" encoding="UTF-8"?>
<svg width="32px" height="32px" viewBox="0 0 32 32" version="1.1" xmlns="http://www.w3.org/2000/svg" xmlns:xlink="http://www.w3.org/1999/xlink">
    <title>3</title>
    <g id="3" stroke="none" stroke-width="1" fill="none" fill-rule="evenodd" stroke-linecap="round" stroke-linejoin="round" stroke-opacity="0.85">
        <g id="iconfinder_a-13_2350286" transform="translate(1.000000, 3.000000)" stroke="#000000" stroke-width="1.4976">
            <path d="M7.27473114,7.81045752 C4.481754,8.7254902 1.81868278,10.0980392 0,11.7320261 C2.59811826,21.2091503 6.8850134,24.2810458 12.6658265,25 C12.6658265,25 12.6658265,25 12.6658265,25 C13.445262,24.2156863 14.0947916,23.4313725 14.6793682,22.5816993" id="Path"></path>
            <path d="M4.9364247,15.9150327 C5.13128357,16.4379085 6.30043679,16.4379085 7.46959001,16.0457516 C7.79435479,15.9150327 8.11911957,15.7843137 8.3789314,15.6535948" id="Path"></path>
            <path d="M28.9040657,1.66666667 C23.3830644,-0.555555556 14.4845093,-0.555555556 8.96350801,1.66666667 C8.18407253,14.2156863 12.2111558,19.7712418 18.9013104,23.0392157 C18.9013104,23.0392157 18.9013104,23.0392157 18.9013104,23.0392157 C25.6564178,19.7712418 29.6835012,14.2156863 28.9040657,1.66666667 Z" id="Path"></path>
            <path d="M16.6279569,9.11764706 C16.2382391,8.52941176 15.5237566,7.81045752 14.4845093,7.81045752 C13.6401209,7.81045752 12.9905913,8.52941176 12.7307795,9.11764706" id="Path"></path>
            <path d="M21.1746638,9.11764706 C21.5643816,8.52941176 22.2788641,7.81045752 23.3181114,7.81045752 C24.1624998,7.81045752 24.8120294,8.52941176 25.0718412,9.11764706" id="Path"></path>
            <path d="M14.6793682,15 C14.6793682,15 16.433098,17.6143791 18.9013104,17.6143791 C21.3695227,17.6143791 23.1232525,15 23.1232525,15" id="Path"></path>
        </g>
    </g>
</svg>