<?xml version="1.0" encoding="UTF-8"?>
<svg width="90px" height="90px" viewBox="0 0 90 90" version="1.1" xmlns="http://www.w3.org/2000/svg" xmlns:xlink="http://www.w3.org/1999/xlink">
    <title>css</title>
    <g id="css" stroke="none" stroke-width="1" fill="none" fill-rule="evenodd">
        <g id="CSS3_logo_and_wordmark" transform="translate(19.000000, 17.000000)" fill-rule="nonzero">
            <polygon id="polygon2989" fill="#264DE4" points="51 0 46.3537689 52.1939375 25.468787 58 4.64131016 52.2021148 0 0"></polygon>
            <polygon id="polygon2991" fill="#2965F1" points="42.3760855 48.8704069 46.3465983 4.26829695 25.5 4.26829695 25.5 53.5620934"></polygon>
            <polygon id="polygon2993" fill="#EBEBEB" points="10.6401027 23.6293111 11.2123402 30.0316155 25.5 30.0316155 25.5 23.6293111"></polygon>
            <polygon id="polygon2995" fill="#EBEBEB" points="25.5 10.6707424 25.477926 10.6707424 9.49028489 10.6707424 10.0706771 17.0731878 25.5 17.0731878"></polygon>
            <polygon id="polygon2997" fill="#EBEBEB" points="25.5 46.9181341 25.5 40.2569741 25.4720208 40.2644465 18.3613722 38.3391025 17.906816 33.2329087 14.4515981 33.2329087 11.4976153 33.2329087 12.3921055 43.2855559 25.4706148 46.9263114"></polygon>
            <polygon id="polygon3005" fill="#FFFFFF" points="33.339935 30.0316155 32.5988383 38.3350139 25.477926 40.2623317 25.477926 46.9232097 38.5668396 43.2855559 38.6628687 42.2038893 40.1631995 25.3485293 40.3189831 23.6293111 41.4716128 10.6707424 25.477926 10.6707424 25.477926 17.0731878 34.4745681 17.0731878 33.8936135 23.6293111 25.477926 23.6293111 25.477926 30.0316155"></polygon>
        </g>
        <rect id="Rectangle" x="0" y="0" width="90" height="90"></rect>
    </g>
</svg>