<?xml version="1.0" encoding="UTF-8"?>
<svg width="32px" height="32px" viewBox="0 0 32 32" version="1.1" xmlns="http://www.w3.org/2000/svg" xmlns:xlink="http://www.w3.org/1999/xlink">
    <title>2</title>
    <g id="2" stroke="none" stroke-width="1" fill="none" fill-rule="evenodd">
        <g id="iconfinder_904097_exellent_quality_seal_seller_shop_icon" transform="translate(6.000000, 0.000000)" fill="#000000" fill-rule="nonzero">
            <path d="M20,10.3914098 C20,4.66158642 15.514,0 10,0 C4.486,0 0,4.66158642 0,10.3914098 C0,13.6259092 1.42966667,16.5192241 3.66666667,18.4263942 L3.66666667,31 L10,27.1285071 L16.3333333,31 L16.3333333,18.4263942 C18.5703333,16.5192241 20,13.6259092 20,10.3914098 Z M1.33333333,10.3914098 C1.33333333,5.42570142 5.221,1.3855213 10,1.3855213 C14.779,1.3855213 18.6666667,5.42570142 18.6666667,10.3914098 C18.6666667,15.3571181 14.779,19.3972982 10,19.3972982 C5.221,19.3972982 1.33333333,15.3571181 1.33333333,10.3914098 Z M15,28.577416 L10,25.5213024 L5,28.577416 L5,19.3848285 C6.472,20.2719086 8.17933333,20.7828195 10,20.7828195 C11.8206667,20.7828195 13.528,20.2719086 15,19.3848285 L15,28.577416 Z M6.11766667,16.1607205 L10,14.0398337 L13.8823333,16.1610669 L13.141,11.668514 L16.282,8.48701074 L11.9413333,7.83131278 L10,3.74367856 L8.05866667,7.8309664 L3.718,8.48666436 L6.859,11.6681676 L6.11766667,16.1607205 Z M6.583,9.45410461 L8.944,9.09767925 L10,6.87426394 L11.056,9.09733287 L13.417,9.45375823 L11.7083333,11.1842743 L12.1116667,13.6279875 L10,12.4741947 L7.88833333,13.6279875 L8.29166667,11.1842743 L6.583,9.45410461 Z" id="Shape"></path>
        </g>
    </g>
</svg>