<?xml version="1.0" encoding="UTF-8"?>
<svg width="314px" height="40px" viewBox="0 0 314 40" version="1.1" xmlns="http://www.w3.org/2000/svg" xmlns:xlink="http://www.w3.org/1999/xlink">
    <title>Group 32</title>
    <g id="Page-1" stroke="none" stroke-width="1" fill="none" fill-rule="evenodd">
        <g id="Propcierge" transform="translate(-91.000000, -192.000000)">
            <g id="Group-32" transform="translate(91.000000, 192.000000)">
                <g id="Group">
                    <g id="appicon" fill="#2A9FE0">
                        <rect id="Rectangle" x="0" y="0" width="39.8610888" height="40" rx="7.97492442"></rect>
                    </g>
                    <g id="Group-4" transform="translate(9.068398, 6.500000)" fill="#FFFFFF">
                        <g id="Group-2" transform="translate(8.071870, 11.400000)">
                            <rect id="Rectangle" x="0" y="0" width="2.09270713" height="2.09999996"></rect>
                            <rect id="Rectangle" x="2.79027617" y="0" width="2.09270713" height="2.09999996"></rect>
                            <rect id="Rectangle" x="0" y="2.79999995" width="2.09270713" height="2.09999996"></rect>
                            <rect id="Rectangle" x="2.79027617" y="2.79999995" width="2.09270713" height="2.09999996"></rect>
                        </g>
                        <path d="M2.989,12.134 L2.98958166,18.5 L10.7485889,18.5 L10.748,18.499 L10.9578302,18.4961693 C14.6010393,18.3821646 17.6083579,15.7361541 18.2905733,12.2532372 L21.0573443,13.5536807 C19.8283429,18.1311648 15.6625558,21.5 10.7126676,21.5 L10.6770218,21.4999418 L2.989,21.499 L2.98958166,25.8 C2.79051668,27.8 1.79398946,28.8 0,28.8 L0,13.539 L2.989,12.134 Z M10.7126676,0 C16.586551,0 21.3562746,4.74394485 21.424592,10.6220523 L18.2681836,9.13670019 C17.5284314,5.63081301 14.4267122,3 10.7126676,3 C7.0676636,3 4.0124315,5.53391342 3.20084281,8.94210521 L0.00432624467,10.4415068 C0.164369521,4.74222043 4.74492954,0.152867095 10.4272778,0.00374071794 L10.7126676,0 Z" id="Combined-Shape"></path>
                        <polygon id="Rectangle" points="0.0196720774 11.3305562 10.5133622 6.4 21.4115302 11.5206039 21.3947498 12.9127194 10.5133622 7.8 0.0149261497 12.7327861"></polygon>
                    </g>
                </g>
                <path d="M57.2159239,35.8515245 L57.2159239,25.8983997 L63.284022,25.8983997 C69.9196401,25.8983997 74.3506614,21.6108998 74.3506614,15.1140249 L74.3506614,15.0702749 C74.3506614,8.5734 69.9196401,4.28590007 63.284022,4.28590007 L50.6239612,4.28590007 L50.6239612,35.8515245 L57.2159239,35.8515245 Z M61.6687729,20.7358998 L57.2159239,20.7358998 L57.2159239,9.51402498 L61.6687729,9.51402498 C65.4449635,9.51402498 67.6713879,11.50465 67.6713879,15.0921499 L67.6713879,15.1358999 C67.6713879,18.7233998 65.4449635,20.7358998 61.6687729,20.7358998 Z M84.2292507,35.8515245 L84.2292507,24.4108997 L89.511552,24.4108997 L95.3832009,35.8515245 L102.848271,35.8515245 L96.2126532,23.4265247 C99.7050837,22.0483998 101.909681,18.5921498 101.909681,14.4358999 L101.909681,14.3921499 C101.909681,8.04840001 97.7187638,4.28590007 90.6465919,4.28590007 L77.637288,4.28590007 L77.637288,35.8515245 L84.2292507,35.8515245 Z M89.9262781,19.4015248 L84.2292507,19.4015248 L84.2292507,9.44839999 L89.8389673,9.44839999 C93.0912933,9.44839999 95.164924,11.3734 95.164924,14.3921499 L95.164924,14.4358999 C95.164924,17.5421498 93.2004318,19.4015248 89.9262781,19.4015248 Z M119.864516,36.3983995 C129.228595,36.3983995 135.056589,30.1202746 135.056589,20.0796498 L135.056589,20.0358998 C135.056589,10.01715 129.206767,3.73902508 119.864516,3.73902508 C110.544091,3.73902508 104.672443,9.99527498 104.672443,20.0358998 L104.672443,20.0796498 C104.672443,30.1202746 110.500436,36.3983995 119.864516,36.3983995 Z M119.864516,30.7983996 C114.691353,30.7983996 111.395371,26.6858997 111.395371,20.0796498 L111.395371,20.0358998 C111.395371,13.4296499 114.71318,9.33902499 119.864516,9.33902499 C125.037678,9.33902499 128.33366,13.4515249 128.33366,20.0358998 L128.33366,20.0796498 C128.33366,26.6202747 125.103161,30.7983996 119.864516,30.7983996 Z M145.284421,35.8515245 L145.284421,25.8983997 L151.352519,25.8983997 C157.988137,25.8983997 162.419158,21.6108998 162.419158,15.1140249 L162.419158,15.0702749 C162.419158,8.5734 157.988137,4.28590007 151.352519,4.28590007 L138.692458,4.28590007 L138.692458,35.8515245 L145.284421,35.8515245 Z M149.73727,20.7358998 L145.284421,20.7358998 L145.284421,9.51402498 L149.73727,9.51402498 C153.51346,9.51402498 155.739885,11.50465 155.739885,15.0921499 L155.739885,15.1358999 C155.739885,18.7233998 153.51346,20.7358998 149.73727,20.7358998 Z M179.719163,36.3983995 C187.337027,36.3983995 192.859433,31.6077746 193.470608,24.8921497 L193.492436,24.6515247 L187.075095,24.6515247 L187.031439,24.8702747 C186.180159,28.6108997 183.517181,30.7983996 179.719163,30.7983996 C174.676966,30.7983996 171.446468,26.6858997 171.446468,20.0358998 L171.446468,20.0140248 C171.446468,13.4077749 174.676966,9.33902499 179.719163,9.33902499 C183.648147,9.33902499 186.223815,11.6140249 186.965956,15.0921499 L187.053267,15.4640249 L193.470608,15.4640249 L193.44878,15.2671499 C192.837605,8.5734 187.358855,3.73902508 179.719163,3.73902508 C170.529705,3.73902508 164.723539,9.86402498 164.723539,20.0358998 L164.723539,20.0577748 C164.723539,30.2296496 170.507877,36.3983995 179.719163,36.3983995 Z M203.545647,35.8515245 L203.545647,4.28590007 L196.953684,4.28590007 L196.953684,35.8515245 L203.545647,35.8515245 Z M229.052863,35.8515245 L229.052863,30.4046496 L214.777553,30.4046496 L214.777553,22.4640248 L228.245238,22.4640248 L228.245238,17.3015249 L214.777553,17.3015249 L214.777553,9.73277498 L229.052863,9.73277498 L229.052863,4.28590007 L208.18559,4.28590007 L208.18559,35.8515245 L229.052863,35.8515245 Z M239.80456,35.8515245 L239.80456,24.4108997 L245.086861,24.4108997 L250.95851,35.8515245 L258.42358,35.8515245 L251.787962,23.4265247 C255.280393,22.0483998 257.48499,18.5921498 257.48499,14.4358999 L257.48499,14.3921499 C257.48499,8.04840001 253.294073,4.28590007 246.221901,4.28590007 L233.212597,4.28590007 L233.212597,35.8515245 L239.80456,35.8515245 Z M245.501587,19.4015248 L239.80456,19.4015248 L239.80456,9.44839999 L245.414276,9.44839999 C248.666602,9.44839999 250.740233,11.3734 250.740233,14.3921499 L250.740233,14.4358999 C250.740233,17.5421498 248.775741,19.4015248 245.501587,19.4015248 Z M275.417997,36.3983995 C284.192729,36.3983995 289.387719,31.1921496 289.387719,22.5952748 L289.387719,18.9640248 L275.76724,18.9640248 L275.76724,23.8858997 L282.970378,23.8858997 L282.94855,24.3452747 C282.773929,28.2390251 279.82719,30.7983996 275.527135,30.7983996 C270.288489,30.7983996 266.97068,26.7515247 266.97068,19.9046498 L266.97068,19.8827748 C266.97068,13.1890249 270.09204,9.33902499 275.287031,9.33902499 C278.844944,9.33902499 281.355129,11.1109 282.402858,14.1733999 L282.490169,14.3921499 L289.103959,14.3921499 L289.038476,14.0858999 C287.990747,8.15777501 282.839412,3.73902508 275.265203,3.73902508 C266.03209,3.73902508 260.247752,9.84214998 260.247752,19.9483998 L260.247752,19.9702748 C260.247752,30.2515246 266.010262,36.3983995 275.417997,36.3983995 Z M314,35.8515245 L314,30.4046496 L299.72469,30.4046496 L299.72469,22.4640248 L313.192375,22.4640248 L313.192375,17.3015249 L299.72469,17.3015249 L299.72469,9.73277498 L314,9.73277498 L314,4.28590007 L293.132727,4.28590007 L293.132727,35.8515245 L314,35.8515245 Z" id="PROPCIERGE" fill="#000000" fill-rule="nonzero"></path>
            </g>
        </g>
    </g>
</svg>