<?xml version="1.0" encoding="UTF-8"?>
<svg width="32px" height="32px" viewBox="0 0 32 32" version="1.1" xmlns="http://www.w3.org/2000/svg" xmlns:xlink="http://www.w3.org/1999/xlink">
    <title>3</title>
    <g id="3" stroke="none" stroke-width="1" fill="none" fill-rule="evenodd" stroke-linecap="round" stroke-linejoin="round" stroke-opacity="0.85">
        <g id="iconfinder_paper-printing-printer-print-fax_5038499" transform="translate(2.000000, 1.000000)" stroke="#000000" stroke-width="1.6">
            <path d="M24.4210526,7.63157895 L24.4210526,1.52631579 C24.4210526,0.683354856 23.7376978,0 22.8947368,0 L6.10526316,0 C5.26230222,0 4.57894737,0.683354856 4.57894737,1.52631579 L4.57894737,7.63157895" id="Path"></path>
            <path d="M4.57894737,15.2631579 L4.57894737,27.4736842 C4.57894737,28.3166451 5.26230222,29 6.10526316,29 L22.8947368,29 C23.7376978,29 24.4210526,28.3166451 24.4210526,27.4736842 L24.4210526,15.2631579" id="Path"></path>
            <path d="M27.4736842,19.4193158 C28.4152829,18.877867 28.9969562,17.8756439 29,16.7894737 L29,10.6842105 C29,8.99828866 27.6332903,7.63157895 25.9473684,7.63157895 L3.05263158,7.63157895 C1.36670971,7.63157895 0,8.99828866 0,10.6842105 L0,16.7894737 C0.00304375987,17.8756439 0.584717067,18.877867 1.52631579,19.4193158" id="Path"></path>
            <line x1="3.05263158" y1="15.2631579" x2="25.9473684" y2="15.2631579" id="Path"></line>
            <line x1="22.1315789" y1="11.4473684" x2="23.6578947" y2="11.4473684" id="Path"></line>
        </g>
    </g>
</svg>