<?xml version="1.0" encoding="UTF-8"?>
<svg width="32px" height="32px" viewBox="0 0 32 32" version="1.1" xmlns="http://www.w3.org/2000/svg" xmlns:xlink="http://www.w3.org/1999/xlink">
    <title>1</title>
    <g id="1" stroke="none" stroke-width="1" fill="none" fill-rule="evenodd">
        <g id="Group-24" transform="translate(0.000000, 0.000000)" fill="#000000" fill-rule="nonzero">
            <g id="iconfinder_office-tablet_2887333">
                <path d="M2.652,0 L23.348,0 C24.882,0 26,1.11083333 26,2.635 L26,28.365 C26,29.8891667 24.882,31 23.348,31 L2.652,31 C1.118,31 0,29.8891667 0,28.365 L0,2.635 C0,1.11083333 1.118,0 2.652,0 Z M2.626,1.29166667 C1.872,1.29166667 1.3,1.86 1.3,2.60916667 L1.3,28.3908333 C1.3,29.14 1.872,29.7083333 2.626,29.7083333 L23.374,29.7083333 C24.128,29.7083333 24.7,29.14 24.7,28.3908333 L24.7,2.60916667 C24.7,1.86 24.128,1.29166667 23.374,1.29166667 L2.626,1.29166667 Z M13,2.58333333 C13.702,2.58333333 14.3,3.1775 14.3,3.875 C14.3,4.5725 13.702,5.16666667 13,5.16666667 C12.298,5.16666667 11.7,4.5725 11.7,3.875 C11.7,3.1775 12.298,2.58333333 13,2.58333333 Z M2.6,6.45833333 L23.4,6.45833333 L23.4,7.75 L2.6,7.75 L2.6,6.45833333 Z" id="Shape" transform="translate(13.000000, 15.500000) scale(-1, 1) rotate(-180.000000) translate(-13.000000, -15.500000) "></path>
            </g>
            <g id="iconfinder_50-Tablet_Stylus-phone_gadget_technology_device_3221555" transform="translate(29.500000, 17.500000) rotate(45.000000) translate(-29.500000, -17.500000) translate(20.000000, 8.000000)" stroke="#000000" stroke-opacity="0.85" stroke-width="0.5">
                <path d="M18.683279,19 C18.6436958,19 18.6037959,18.9927167 18.5654793,18.9775167 L15.4653217,17.73745 C15.4257385,17.7213 15.3893219,17.69755 15.3592387,17.66715 L0.478165276,2.78603333 C0.16973284,2.4776 1.70530257e-13,2.06783333 1.70530257e-13,1.63178333 C1.70530257e-13,1.19605 0.16973284,0.786283333 0.478165276,0.47785 C0.786281046,0.169733333 1.19604652,0 1.63209525,0 C2.06814398,0 2.47790946,0.169733333 2.78602523,0.478166667 L17.6670986,15.3592833 C17.6974985,15.3896833 17.7212485,15.4257833 17.7373984,15.4656833 L18.9774615,18.56585 C19.024328,18.6833333 18.9967781,18.8176 18.9071617,18.9072167 C18.8466785,18.9677 18.7656121,19 18.683279,19 Z M15.7610875,17.17315 L18.114864,18.1149167 L17.1734167,15.7608167 L2.33825987,0.925933333 C1.94907766,0.53675 1.31542951,0.53675 0.92593064,0.925933333 C0.737197856,1.11466667 0.633331491,1.36546667 0.633331491,1.63178333 C0.633331491,1.89873333 0.737197856,2.14953333 0.92593064,2.33795 L15.7610875,17.17315 Z" id="Shape"></path>
                <path d="M3.49218984,5.66896667 C3.40827342,5.66896667 3.32752366,5.63571667 3.26830716,5.57618333 L1.40821257,3.71576667 C1.28439626,3.59195 1.28439626,3.39181667 1.40821257,3.268 L3.26830716,1.4079 C3.39212347,1.28408333 3.59225622,1.28408333 3.71607252,1.4079 L5.57616711,3.268 C5.69998342,3.39181667 5.69998342,3.59195 5.57616711,3.71576667 L3.71607252,5.57618333 C3.65653936,5.63571667 3.57610627,5.66896667 3.49218984,5.66896667 Z M2.07986062,3.49188333 L3.49218984,4.90453333 L4.90451907,3.49188333 L3.49218984,2.07955 L2.07986062,3.49188333 Z" id="Shape"></path>
                <path d="M15.5831213,17.7599333 C15.5020549,17.7599333 15.4209885,17.7289 15.3592387,17.66715 C15.2354224,17.5433333 15.2354224,17.3432 15.3592387,17.2193833 L17.2193332,15.3592833 C17.3431496,15.2354667 17.5432823,15.2354667 17.6670986,15.3592833 C17.7909149,15.4831 17.7909149,15.6832333 17.6670986,15.80705 L15.807004,17.66715 C15.7452542,17.7289 15.6641878,17.7599333 15.5831213,17.7599333 Z" id="Path"></path>
            </g>
        </g>
    </g>
</svg>