<?xml version="1.0" encoding="UTF-8"?>
<svg width="32px" height="32px" viewBox="0 0 32 32" version="1.1" xmlns="http://www.w3.org/2000/svg" xmlns:xlink="http://www.w3.org/1999/xlink">
    <title>4</title>
    <g id="4" stroke="none" stroke-width="1" fill="none" fill-rule="evenodd">
        <g id="iconfinder_10_1219079" transform="translate(-1.000000, 0.000000)" fill-rule="nonzero">
            <path d="M34,18.2783961 L30.6,18.2783961 L25.4592,18.2783961 L25.4592,18.2692484 C25.4592,13.5581644 21.6602667,9.71611526 16.9818667,9.71611526 C12.3125333,9.71611526 8.50453333,13.5490166 8.50453333,18.2692484 L8.50453333,18.2783961 L3.4,18.2783961 L0,18.2783961 L0,21.7087971 L3.4,21.7087971 L3.4,32 L30.6,32 L30.6,21.7087971 L34,21.7087971 L34,18.2783961 Z M11.9045333,18.2692484 C11.9045333,15.442598 14.1802667,13.1465162 16.9818667,13.1465162 C19.7834667,13.1465162 22.0592,15.442598 22.0592,18.2692484 L20.3909333,18.2783961 L11.9045333,18.2783961 L11.9045333,18.2692484 L11.9045333,18.2692484 Z M27.2,28.569599 L6.8,28.569599 L6.8,21.6996493 L8.49546667,21.6996493 L8.49546667,21.745388 L25.4410667,21.745388 L25.4410667,21.6996493 L27.1909333,21.6996493 L27.1909333,28.569599 L27.2,28.569599 Z" id="Shape" stroke="#F7E4F6" stroke-width="1.93000659" fill="#000000"></path>
            <path d="M17,0.8064 C18.1814031,0.8064 19.251684,1.29367888 20.0272556,2.07757755 C20.8066468,2.86533682 21.2890667,3.95274128 21.2890667,5.15017533 C21.2890667,6.3464935 20.8074121,7.43106394 20.0289902,8.21644606 C19.253157,8.99921638 18.1821144,9.48480293 17,9.48480293 C15.8185969,9.48480293 14.748316,8.99752405 13.9727444,8.21362538 C13.1933532,7.4258661 12.7109333,6.33846165 12.7109333,5.1410276 C12.7109333,3.94470942 13.1925879,2.86013899 13.9710098,2.07475687 C14.746843,1.29198655 15.8178856,0.8064 17,0.8064 Z" id="Path" stroke-opacity="0.85" stroke="#000000" stroke-width="1.6128"></path>
        </g>
    </g>
</svg>