<?xml version="1.0" encoding="UTF-8"?>
<svg width="90px" height="90px" viewBox="0 0 90 90" version="1.1" xmlns="http://www.w3.org/2000/svg" xmlns:xlink="http://www.w3.org/1999/xlink">
    <title>Postgre sql</title>
    <g id="Postgre-sql" stroke="none" stroke-width="1" fill="none" fill-rule="evenodd">
        <g id="postgresql-icon" transform="translate(17.000000, 16.000000)">
            <path d="M43.1477624,43.3843129 C43.5497995,40.0386204 43.4289417,39.55045 45.9200919,40.090396 L46.5539787,40.1471027 C48.4704378,40.2333954 50.9763869,39.8389143 52.4735436,39.155969 C55.6429773,37.686527 57.5224391,35.2308823 54.3974021,35.8768451 C47.2692594,37.3462871 46.7512975,34.932556 46.7512975,34.932556 C54.2814773,23.7638108 57.4311792,9.58714737 54.7106458,6.11817947 C47.3013237,-3.34936618 34.4731333,1.12799395 34.2585491,1.24633827 L34.1894875,1.2586658 C32.7835908,0.962805001 31.229705,0.790219534 29.4291707,0.765564467 C26.2030078,0.716254333 23.7562543,1.61123326 21.8965244,3.01903757 C21.8965244,3.01903757 -0.985060466,-6.40412896 0.0779947306,14.8707282 C0.304911385,19.3973984 6.56485127,49.141271 14.038302,40.1421717 C16.7736342,36.8531857 19.4127736,34.0745597 19.4127736,34.0745597 C20.7200108,34.9448836 22.291162,35.3886748 23.9363078,35.2284168 L24.064565,35.1199345 C24.0266056,35.5460955 24.0440158,35.9753761 24.1163612,36.397067 C22.1925026,38.5469888 22.7597942,38.9242114 18.9120771,39.715639 C15.0199631,40.5169287 17.3088616,41.944457 18.7986187,42.319214 C20.609019,42.7728673 24.7971112,43.413899 27.6286364,39.4542953 L27.515178,39.905483 C28.2699226,40.5095321 28.2181264,44.2447748 28.3291182,46.912453 C28.4401101,49.5801312 28.6152305,52.0727585 29.1603238,53.5397349 C29.7054171,55.0067114 30.3442368,58.7912642 35.4005318,57.7310963 C39.6256212,56.8262554 42.8567171,55.5220023 43.1526953,43.4065025" id="Path" stroke="#000000" stroke-width="5.28114875" fill="#000000" fill-rule="nonzero"></path>
            <path d="M54.3752038,35.8990347 C47.247061,37.3684766 46.7290991,34.9547456 46.7290991,34.9547456 C54.259279,23.7860003 57.4089808,9.60933693 54.6909139,6.14036903 C47.2815918,-3.32717662 34.4534014,1.15264902 34.2388172,1.26852783 L34.1697556,1.28085536 C32.6029064,0.96659251 31.00991,0.800669631 29.4119053,0.78528852 C26.1857424,0.735978387 23.7389889,1.63095731 21.879259,3.03876163 C21.879259,3.03876163 -1.00479235,-6.3844049 0.060729333,14.8904522 C0.287645987,19.4171225 6.54758587,49.1609951 14.0210366,40.1618957 C16.7736342,36.8531857 19.4127736,34.0745597 19.4127736,34.0745597 C20.7200108,34.9448836 22.291162,35.3886748 23.9363078,35.2284168 L24.064565,35.1199345 C24.0268816,35.5461021 24.0442904,35.9753472 24.1163612,36.397067 C22.1925026,38.5469888 22.7597942,38.9242114 18.9120771,39.715639 C15.0199631,40.5169287 17.3088616,41.944457 18.7986187,42.319214 C20.609019,42.7728673 24.7971112,43.413899 27.6286364,39.4542953 L27.515178,39.905483 C28.2699226,40.5095321 28.7977504,43.8330352 28.708957,46.8458843 C28.6201635,49.8587335 28.5609678,51.9248281 29.1529243,53.5422005 C29.7448808,55.1595728 30.3368373,58.7937297 35.3931323,57.7335618 C39.6182218,56.8287209 41.8059943,54.479093 42.114305,50.5687994 C42.3313557,47.7877079 42.8197198,48.196982 42.8542506,45.7117512 L43.2488883,44.533239 C43.7002551,40.7610138 43.3228828,39.545519 45.9250249,40.1125856 L46.5589116,40.1692922 C48.4753708,40.255585 50.9837864,39.8611039 52.4538117,39.1781585 C55.6232454,37.7087166 57.5027072,35.2530719 54.3776703,35.8990347 L54.3752038,35.8990347 Z" id="Path" fill="#336791" fill-rule="nonzero"></path>
            <g id="Group" stroke="#FFFFFF" stroke-width="1.75956375">
                <g stroke-linecap="round">
                    <path d="M27.9320141,38.0366289 C27.7346952,45.053461 27.9813438,52.1196031 28.6670267,53.8158717 C29.3527096,55.5121403 30.8252014,58.8701604 35.8839629,57.7902685 C40.1090524,56.8854275 41.6481392,55.1324523 42.3140903,51.2640723 L43.8753755,38.8946253 M21.869393,2.86124514 C21.869393,2.86124514 -1.0294572,-6.49781821 0.0360644792,14.7770389 C0.262981134,19.3037092 6.52292102,49.0475818 13.9963717,40.0484824 C16.7243045,36.761962 19.1907899,34.1904385 19.1907899,34.1904385 M34.2363507,1.15264902 C33.4470754,1.39919968 46.9732812,-3.79069188 54.6637826,6.02942123 C57.3769165,9.49838913 54.2321476,23.6750525 46.7019678,34.8437978" id="Shape" stroke-linejoin="round"></path>
                    <path d="M46.7044343,34.8388668 C46.7044343,34.8388668 47.1977313,37.2550633 54.3505389,35.7806903 C57.4755759,35.1347276 55.5936476,37.5903722 52.4266803,39.0598142 C49.8270047,40.2679125 43.9962333,40.5761008 43.9000404,38.9118838 C43.6533919,34.6095747 46.9683482,35.9162932 46.7290991,34.8388668 C46.5120484,33.8674572 45.0272242,32.9157716 44.050496,30.5390231 C43.1946256,28.4679975 32.3100256,12.5654794 47.0694741,14.9249693 C47.6121009,14.8140215 43.2217569,0.871581254 29.4094388,0.669409706 C15.5971207,0.467238159 16.0336886,17.6444232 16.0336886,17.6444232" id="Path" stroke-linejoin="bevel"></path>
                </g>
                <g stroke-linejoin="round" transform="translate(15.802265, 14.990367)" id="Path">
                    <path d="M8.26476644,21.322873 C6.34090785,23.4727948 6.90819949,23.8500174 3.0604823,24.641445 C-0.831631621,25.4427347 1.45726681,26.870263 2.94702397,27.2450201 C4.75742424,27.6986733 8.94551641,28.339705 11.7770416,24.3776358 C12.6403115,23.1695375 11.7721086,21.2464423 10.5881957,20.758272 C10.0159711,20.5215833 9.25136059,20.2257225 8.26969941,21.3253385 L8.26476644,21.322873 Z"></path>
                    <path d="M8.13897569,21.2858904 C7.94165686,20.0210855 8.55334523,18.5195919 9.20696386,16.7592201 C10.188625,14.121128 12.4528586,11.4830358 10.6424583,3.10770966 C9.29329084,-3.13002224 0.233890061,1.80838764 0.233890061,2.65405643 C0.233890061,3.49972522 0.643326633,6.94403805 0.0859009385,10.9504864 C-0.646645218,16.1822916 3.4156562,20.6054106 8.09211247,20.1542228" stroke-linecap="round"></path>
                </g>
            </g>
            <g id="Group" transform="translate(21.783367, 16.100569)" fill="#FFFFFF" fill-rule="nonzero" stroke="#FFFFFF">
                <path d="M0.00216502689,1.41811332 C-0.0397652245,1.7065776 0.532459383,2.47828119 1.27487148,2.58183247 C2.01728358,2.68538375 2.65117032,2.08380012 2.69310057,1.79287033 C2.73503082,1.50194054 2.16280622,1.18635569 1.42039412,1.08280441 C0.67798202,0.979253128 0.0391623075,1.13211454 0.00216502689,1.41811332 L0.00216502689,1.41811332 Z" id="Path" stroke-width="0.587340415"></path>
                <path d="M22.605037,0.82885722 C22.6445008,1.1173215 22.0747427,1.88902509 21.3323306,1.99257637 C20.5899185,2.09612765 19.9510987,1.49454402 19.9141015,1.20361424 C19.8771042,0.912684447 20.4443958,0.597099592 21.1868079,0.493548312 C21.92922,0.389997031 22.5680397,0.542858445 22.605037,0.82885722 Z" id="Path" stroke-width="0.5"></path>
            </g>
            <path d="M47.0423428,14.9299003 C47.165667,17.1981665 46.5539787,18.7391082 46.4750511,21.1528392 C46.3615928,24.6587897 48.1473282,28.6726346 45.4563927,32.6914105" id="Path" stroke="#FFFFFF" stroke-width="1.75956375" stroke-linecap="round" stroke-linejoin="round"></path>
        </g>
        <rect id="Rectangle" x="0" y="0" width="90" height="90"></rect>
    </g>
</svg>