<?xml version="1.0" encoding="UTF-8"?>
<svg width="32px" height="32px" viewBox="0 0 32 32" version="1.1" xmlns="http://www.w3.org/2000/svg" xmlns:xlink="http://www.w3.org/1999/xlink">
    <title>1</title>
    <g id="1" stroke="none" stroke-width="1" fill="none" fill-rule="evenodd" stroke-opacity="0.85">
        <g id="iconfinder_Avatar-driver-courier-chauffeur_5429489" transform="translate(2.000000, 1.000000)" fill="#000000" fill-rule="nonzero" stroke="#000000" stroke-width="0.5">
            <path d="M13.4979803,0 C9.82288141,0 6.75017932,2.41069526 6.75017932,5.53461285 L6.75017932,8.30571669 C6.75148038,8.60975252 7.00158961,8.85589181 7.3104817,8.85712549 L7.3455604,8.85712549 C7.46546574,10.4572257 8.07961923,12.4305809 9.03086832,14.1430761 C9.5620235,15.0993535 10.1966502,15.9691378 10.9369382,16.6200952 C11.6773537,17.2710317 12.543606,17.714251 13.4978953,17.714251 C14.4521207,17.714251 15.3228164,17.2710317 16.0631681,16.6200952 C16.8035837,15.9691378 17.4381466,15.0993535 17.9693018,14.1430761 C18.9205508,12.4305809 19.5348532,10.4572257 19.6546097,8.85712549 L19.6896884,8.85712549 C19.9985805,8.85589181 20.2486897,8.60975252 20.2499908,8.30571669 L20.2499908,5.53461285 C20.2499908,2.41069526 17.1728879,0 13.4978102,0 L13.4979803,0 Z M13.4979803,1.10821557 C16.6790862,1.10821557 19.1251553,3.13709868 19.1251553,5.53461285 L19.1251553,7.74997696 L19.1021947,7.74997696 C17.8708688,6.38579723 15.8206149,5.53674693 13.4552056,5.53678878 C11.1713914,5.53683062 9.12417765,6.3840816 7.89499901,7.74997696 L7.87586518,7.74997696 L7.87586518,5.53461285 C7.87586518,3.13709868 10.3176185,1.10821557 13.4986606,1.10821557 L13.4979803,1.10821557 Z M13.4990433,6.64393731 C15.4335375,6.64393731 17.1009022,7.31770007 18.0847638,8.28517093 L16.7004523,9.6539745 C15.7523072,9.14658634 14.6430551,8.85821345 13.4990433,8.85821345 C12.2882119,8.85821345 11.126597,9.17412017 10.1317652,9.73937957 L8.78591275,8.42032937 C9.76303504,7.37186806 11.478213,6.64393731 13.4990433,6.64393731 Z M18.4395901,9.50799919 C18.2211668,10.7768776 17.7046809,12.3086872 16.9806354,13.612213 C16.4941258,14.4880858 15.9170069,15.261983 15.3118038,15.7940595 C14.706622,16.326157 14.0965929,16.6071234 13.4979803,16.6071234 C12.899304,16.6071234 12.2893387,16.326157 11.6841356,15.7940595 C11.0789537,15.261983 10.501771,14.4880858 10.0153252,13.612213 C9.35021198,12.4148891 8.86595595,11.0260838 8.62223345,9.8237176 L9.64946512,10.8357112 C9.84016564,11.0210834 10.1369314,11.0480523 10.3591815,10.9005706 C11.2546235,10.3089281 12.3311355,9.96534106 13.4990433,9.96534106 C14.6035757,9.96534106 15.6250034,10.2789463 16.492829,10.8151446 C16.7152491,10.9528137 17.0048716,10.920384 17.1904485,10.7373134 L18.4395901,9.50799919 Z" id="path1352"></path>
            <path d="M10.1438408,17.51484 C10.1048749,17.5164662 10.0661865,17.5220757 10.0284,17.5315778 L7.97285245,18.0743248 C7.82855016,18.1120912 7.70542977,18.2047646 7.63062192,18.3319236 C7.55581407,18.4590826 7.53545809,18.6102915 7.57403961,18.7522302 L7.72009453,19.2863571 L4.91530861,20.0269668 C3.63253398,20.3652605 2.42882461,20.8818126 1.51499279,21.6855242 C0.601437347,22.4892148 9.14296027e-06,23.6105487 9.14296027e-06,24.9885581 L9.14296027e-06,30.4431847 C-0.000846157044,30.5909415 0.0583381249,30.7329075 0.164398392,30.8374847 C0.27045866,30.9420619 0.414593335,31.0005718 0.564721649,30.9999958 L26.4352996,30.9999958 C26.5854242,31.0005662 26.7295534,30.9420538 26.8356091,30.8374772 C26.9416647,30.7329006 27.0008461,30.5909378 26.9999909,30.4431847 L26.9999909,24.9885581 C26.9999909,23.6220769 26.4396791,22.5058481 25.5420898,21.7028269 C24.644458,20.8997431 23.4376234,20.3849066 22.0803119,20.0269668 L19.2809685,19.2874242 L19.4259604,18.7533181 C19.4648895,18.6112397 19.4447128,18.4597565 19.3698893,18.3323464 C19.2950658,18.2049363 19.171756,18.1120894 19.0272113,18.0743248 L16.9716638,17.5315778 C16.9174713,17.5179052 16.861509,17.5122638 16.8056246,17.51484 L16.8056246,17.5159279 C16.6124988,17.5238425 16.4370304,17.6287702 16.3409489,17.7937978 L14.1359448,21.5476876 C14.1330347,21.5525267 14.1301997,21.5574092 14.1274409,21.5623333 L13.5012118,22.6348762 L12.8694765,21.5623333 C12.867422,21.5574216 12.8652958,21.5525392 12.8630985,21.5476876 L10.6581582,17.7927098 C10.5531243,17.6121673 10.3540778,17.5048239 10.1429054,17.51484 L10.1438408,17.51484 Z M9.89882147,18.7117245 L11.6720387,21.7314906 L9.99884889,23.3770551 L8.80791666,19.0025662 L9.89882147,18.7117245 Z M17.0970754,18.7127915 L18.1924235,19.0025662 L17.0015125,23.3781431 L15.3283014,21.7314906 L17.0970754,18.7127915 Z M8.01141775,20.357289 L9.16499649,24.5912425 C9.21649786,24.7826904 9.3680274,24.9324739 9.56235466,24.9840221 C9.75668193,25.0355704 9.96419092,24.9810272 10.1065086,24.8409927 L12.2542812,22.7240264 L12.9376779,23.8906363 L12.9376779,29.8923408 L1.12519411,29.8923408 L1.12519411,24.986968 C1.12519411,23.9116424 1.54547936,23.1463861 2.267739,22.5110368 C2.99004116,21.8756875 4.03408934,21.4038883 5.20656805,21.0946767 L8.01141775,20.357289 Z M18.9889224,20.357289 L21.7893288,21.0946767 C23.0429775,21.4252709 24.0880887,21.8982418 24.7875153,22.5240087 C25.4869844,23.1497128 25.875146,23.9000932 25.875146,24.986968 L25.875146,29.8923408 L14.0626622,29.8923408 L14.0626622,23.8906363 L14.7459951,22.7240264 L16.8927261,24.8409927 C17.0350022,24.9815952 17.2428852,25.0365055 17.4375984,24.9849155 C17.6323115,24.9333255 17.7840617,24.783129 17.8353437,24.5912425 L18.9889224,20.357289 Z" id="path1354"></path>
            <path d="M5.62515252,26.9188132 C4.87497874,26.9188132 4.87497874,28.0258571 5.62515252,28.0258571 L8.99353609,28.0258571 C9.31083881,28.0300416 9.56833767,27.7742657 9.56252218,27.4657655 C9.55613453,27.1572444 9.30341913,26.9151099 8.99406759,26.9188132 C6.74658641,26.9198593 7.87301637,26.9188132 5.62515252,26.9188132 L5.62515252,26.9188132 Z" id="path1356"></path>
        </g>
    </g>
</svg>