<?xml version="1.0" encoding="UTF-8"?>
<svg width="190px" height="26px" viewBox="0 0 190 26" version="1.1" xmlns="http://www.w3.org/2000/svg" xmlns:xlink="http://www.w3.org/1999/xlink">
    <title>Group 20</title>
    <g id="Page-1" stroke="none" stroke-width="1" fill="none" fill-rule="evenodd">
        <g id="Our-Works" transform="translate(-109.000000, -996.000000)">
            <g id="Group-13" transform="translate(81.000000, 832.000000)">
                <g id="Group-20" transform="translate(30.000000, 164.000000)">
                    <g id="Group" transform="translate(20.967368, 2.748126)" fill="#000000" fill-opacity="0.85" fill-rule="nonzero">
                        <path d="M3.84960643,17.978023 C4.81946851,17.978023 5.61027913,17.843942 6.22203829,17.5757801 C6.83379745,17.3076182 7.4343659,16.808539 8.02374363,16.0785426 L8.02374363,16.0785426 L8.11326936,16.0785426 L8.95257308,17.7545547 L11.9852572,17.7545547 L11.9852572,9.45270817 C11.9852572,8.00761331 11.5394937,6.88282297 10.6479666,6.07833717 C9.75643954,5.27385137 8.49748395,4.87160847 6.87109984,4.87160847 C4.61803562,4.87160847 2.75291622,5.25150454 1.27574166,6.01129669 L1.27574166,6.01129669 L2.54029261,8.89403748 C3.96524383,8.2683263 5.14026904,7.95547071 6.06536826,7.95547071 C7.09491417,7.95547071 7.60968712,8.47689669 7.60968712,9.51974865 L7.60968712,9.51974865 L7.60968712,9.69852328 L5.49464173,9.76556376 C3.71158759,9.84750213 2.35005043,10.218087 1.41003026,10.8773184 C0.470010087,11.5365499 0,12.5402949 0,13.8885535 C0,15.1846695 0.343181968,16.1902768 1.0295459,16.9053753 C1.71590984,17.6204737 2.65593001,17.978023 3.84960643,17.978023 Z M5.70726534,14.8941607 C4.87915233,14.8941607 4.46509582,14.5068157 4.46509582,13.7321257 C4.46509582,12.7265184 5.18503191,12.1976435 6.62490408,12.1455009 L6.62490408,12.1455009 L7.63206855,12.1008073 L7.63206855,13.0840677 C7.63206855,13.6203916 7.44369149,14.0561547 7.06693738,14.3913571 C6.69018326,14.7265595 6.23695925,14.8941607 5.70726534,14.8941607 Z M19.3375579,23.2518744 L19.3375579,18.167971 C19.3375579,17.9519517 19.2704136,17.4007299 19.136125,16.5143058 L19.136125,16.5143058 L19.3375579,16.5143058 C19.8374099,17.0655275 20.3409921,17.4472858 20.8483046,17.6595807 C21.355617,17.8718756 21.9300738,17.978023 22.5716749,17.978023 C23.9966261,17.978023 25.1250233,17.3914188 25.9568666,16.2182103 C26.7887098,15.0450018 27.2046315,13.4378925 27.2046315,11.3968822 C27.2046315,9.3707698 26.8054959,7.77669608 26.0072248,6.61466104 C25.2089537,5.45262599 24.1085333,4.87160847 22.7059635,4.87160847 C21.2735518,4.87160847 20.1507499,5.48242176 19.3375579,6.70404835 L19.3375579,6.70404835 L19.136125,6.70404835 L18.5206356,5.09507674 L14.9619878,5.09507674 L14.9619878,23.2518744 L19.3375579,23.2518744 Z M21.1504539,14.4583976 C20.5237738,14.4583976 20.0649544,14.216307 19.7739958,13.7321257 C19.4830372,13.2479444 19.3375579,12.462081 19.3375579,11.3745354 L19.3375579,11.3745354 L19.3375579,11.0281595 C19.3599393,10.1268375 19.4998232,9.44712146 19.7572097,8.98901149 C20.0145962,8.53090152 20.46409,8.30184654 21.105691,8.30184654 C21.6950688,8.30184654 22.1165858,8.53835047 22.370242,9.01135832 C22.6238982,9.48436618 22.7507263,10.2646429 22.7507263,11.3521885 C22.7507263,12.462081 22.6238982,13.2572556 22.370242,13.7377124 C22.1165858,14.2181692 21.7099897,14.4583976 21.1504539,14.4583976 Z M34.0757313,23.2518744 L34.0757313,18.167971 C34.0757313,17.9519517 34.008587,17.4007299 33.8742984,16.5143058 L33.8742984,16.5143058 L34.0757313,16.5143058 C34.5755833,17.0655275 35.0791655,17.4472858 35.586478,17.6595807 C36.0937905,17.8718756 36.6682473,17.978023 37.3098483,17.978023 C38.7347995,17.978023 39.8631968,17.3914188 40.69504,16.2182103 C41.5268833,15.0450018 41.9428049,13.4378925 41.9428049,11.3968822 C41.9428049,9.3707698 41.5436693,7.77669608 40.7453982,6.61466104 C39.9471271,5.45262599 38.8467067,4.87160847 37.4441369,4.87160847 C36.0117252,4.87160847 34.8889234,5.48242176 34.0757313,6.70404835 L34.0757313,6.70404835 L33.8742984,6.70404835 L33.258809,5.09507674 L29.7001612,5.09507674 L29.7001612,23.2518744 L34.0757313,23.2518744 Z M35.8886273,14.4583976 C35.2619472,14.4583976 34.8031279,14.216307 34.5121692,13.7321257 C34.2212106,13.2479444 34.0757313,12.462081 34.0757313,11.3745354 L34.0757313,11.3745354 L34.0757313,11.0281595 C34.0981127,10.1268375 34.2379967,9.44712146 34.4953832,8.98901149 C34.7527696,8.53090152 35.2022634,8.30184654 35.8438645,8.30184654 C36.4332422,8.30184654 36.8547592,8.53835047 37.1084154,9.01135832 C37.3620717,9.48436618 37.4888998,10.2646429 37.4888998,11.3521885 C37.4888998,12.462081 37.3620717,13.2572556 37.1084154,13.7377124 C36.8547592,14.2181692 36.4481632,14.4583976 35.8886273,14.4583976 Z M45.8595556,23.2518744 C47.3665721,23.2518744 48.5882253,22.8980496 49.5245152,22.1904 C50.4608052,21.4827505 51.2497507,20.2722973 51.8913517,18.5590405 L51.8913517,18.5590405 L56.9047927,5.09507674 L52.4396968,5.09507674 L50.2351257,12.3801426 C50.1157581,12.7674876 50.0262323,13.2181487 49.9665485,13.7321257 L49.9665485,13.7321257 L49.8770228,13.7321257 C49.8397204,13.1958018 49.7688459,12.7376919 49.6643992,12.3577958 L49.6643992,12.3577958 L47.5157816,5.09507674 L42.9052065,5.09507674 L47.896266,17.5757801 C47.6500702,18.1940423 47.4187954,18.6391166 47.2024416,18.911003 C46.9860877,19.1828895 46.7324315,19.3933221 46.4414729,19.5423009 C46.1505142,19.6912798 45.8110625,19.7657692 45.4231177,19.7657692 C44.9158052,19.7657692 44.4644463,19.7210756 44.069041,19.6316882 L44.069041,19.6316882 L44.069041,23.0619263 C44.6808002,23.1885583 45.2776384,23.2518744 45.8595556,23.2518744 Z M75.3470932,17.7545547 L75.3470932,14.1902357 L69.0467199,14.1902357 L69.0467199,1.41902357 L64.6263869,1.41902357 L64.6263869,17.7545547 L75.3470932,17.7545547 Z M83.8296562,17.978023 C84.8442812,17.978023 85.717157,17.9109825 86.4482838,17.7769015 C87.1794106,17.6428206 87.888156,17.4007299 88.5745199,17.0506296 L88.5745199,17.0506296 L88.5745199,13.9109003 C87.8210117,14.2610006 87.1215919,14.508678 86.4762606,14.6539323 C85.8309293,14.7991867 85.1240491,14.8718139 84.3556199,14.8718139 C83.5125859,14.8718139 82.8467383,14.6706925 82.358077,14.2684496 C81.8694157,13.8662067 81.6101641,13.3112604 81.5803222,12.6036109 L81.5803222,12.6036109 L89.4026329,12.6036109 L89.4026329,10.6594369 C89.4026329,8.78975228 88.8822646,7.35769306 87.841528,6.36325922 C86.8007914,5.36882539 85.325482,4.87160847 83.4155997,4.87160847 C81.4087312,4.87160847 79.8644124,5.44331481 78.7826431,6.5867275 C77.7008739,7.73014019 77.1599893,9.3707698 77.1599893,11.5086163 C77.1599893,13.5794224 77.7437716,15.1753583 78.9113364,16.2964242 C80.0789011,17.4174901 81.7183411,17.978023 83.8296562,17.978023 Z M85.4299286,9.85495107 L81.6698479,9.85495107 C81.7295318,9.16219941 81.9328298,8.65380908 82.279742,8.32978007 C82.6266542,8.00575107 83.0574968,7.84373657 83.5722697,7.84373657 C84.1318055,7.84373657 84.5775691,8.02623566 84.9095603,8.39123385 C85.2415516,8.75623204 85.4150077,9.24413778 85.4299286,9.85495107 L85.4299286,9.85495107 Z M95.042754,17.978023 C96.0126161,17.978023 96.8034267,17.843942 97.4151859,17.5757801 C98.026945,17.3076182 98.6275135,16.808539 99.2168912,16.0785426 L99.2168912,16.0785426 L99.3064169,16.0785426 L100.145721,17.7545547 L103.178405,17.7545547 L103.178405,9.45270817 C103.178405,8.00761331 102.732641,6.88282297 101.841114,6.07833717 C100.949587,5.27385137 99.6906315,4.87160847 98.0642474,4.87160847 C95.8111832,4.87160847 93.9460638,5.25150454 92.4688892,6.01129669 L92.4688892,6.01129669 L93.7334402,8.89403748 C95.1583914,8.2683263 96.3334166,7.95547071 97.2585158,7.95547071 C98.2880617,7.95547071 98.8028347,8.47689669 98.8028347,9.51974865 L98.8028347,9.51974865 L98.8028347,9.69852328 L96.6877893,9.76556376 C94.9047352,9.84750213 93.543198,10.218087 92.6031778,10.8773184 C91.6631577,11.5365499 91.1931476,12.5402949 91.1931476,13.8885535 C91.1931476,15.1846695 91.5363295,16.1902768 92.2226935,16.9053753 C92.9090574,17.6204737 93.8490776,17.978023 95.042754,17.978023 Z M96.9004129,14.8941607 C96.0722999,14.8941607 95.6582434,14.5068157 95.6582434,13.7321257 C95.6582434,12.7265184 96.3781795,12.1976435 97.8180516,12.1455009 L97.8180516,12.1455009 L98.8252161,12.1008073 L98.8252161,13.0840677 C98.8252161,13.6203916 98.6368391,14.0561547 98.2600849,14.3913571 C97.8833308,14.7265595 97.4301068,14.8941607 96.9004129,14.8941607 Z M110.530705,17.7545547 L110.530705,11.5309632 C110.530705,10.7115795 110.747059,10.0840061 111.179767,9.64824291 C111.612475,9.21247977 112.306299,8.9945982 113.26124,8.9945982 C113.895381,8.9945982 114.391503,9.03929186 114.749605,9.12867917 L114.749605,9.12867917 L115.141281,5.00568943 L114.895085,4.96099578 C114.551903,4.90140424 114.19007,4.87160847 113.809585,4.87160847 C113.145603,4.87160847 112.487216,5.07831662 111.834424,5.49173294 C111.181632,5.90514925 110.672454,6.44705983 110.306891,7.11746466 L110.306891,7.11746466 L110.094267,7.11746466 L109.411634,5.09507674 L106.155135,5.09507674 L106.155135,17.7545547 L110.530705,17.7545547 Z M121.284984,17.7545547 L121.284984,12.2125414 C121.284984,10.7823444 121.449114,9.7730127 121.777375,9.18454624 C122.105636,8.59607977 122.639061,8.30184654 123.377648,8.30184654 C123.914802,8.30184654 124.304612,8.51600364 124.547078,8.94431784 C124.789543,9.37263204 124.910776,10.0076544 124.910776,10.8493849 L124.910776,10.8493849 L124.910776,17.7545547 L129.286346,17.7545547 L129.286346,9.51974865 C129.286346,8.04485802 128.896536,6.90144533 128.116916,6.08951058 C127.337296,5.27757584 126.246201,4.87160847 124.843632,4.87160847 C123.985677,4.87160847 123.226573,5.02058732 122.566321,5.31854502 C121.906069,5.61650273 121.389431,6.06343928 121.016407,6.65935469 L121.016407,6.65935469 L120.75902,6.65935469 L120.210675,5.09507674 L116.909414,5.09507674 L116.909414,17.7545547 L121.284984,17.7545547 Z M134.490029,3.86600121 C136.049269,3.86600121 136.828889,3.22539215 136.828889,1.94417402 C136.828889,1.30356496 136.642377,0.819383687 136.269353,0.491630212 C135.896329,0.163876737 135.303221,0 134.490029,0 C133.676837,0 133.087459,0.160152266 132.721896,0.480456798 C132.356333,0.800761331 132.173551,1.28866707 132.173551,1.94417402 C132.173551,3.22539215 132.94571,3.86600121 134.490029,3.86600121 Z M136.661028,17.7545547 L136.661028,5.09507674 L132.285458,5.09507674 L132.285458,17.7545547 L136.661028,17.7545547 Z M144.091664,17.7545547 L144.091664,12.2125414 C144.091664,10.7823444 144.255794,9.7730127 144.584055,9.18454624 C144.912316,8.59607977 145.44574,8.30184654 146.184328,8.30184654 C146.721482,8.30184654 147.111292,8.51600364 147.353758,8.94431784 C147.596223,9.37263204 147.717456,10.0076544 147.717456,10.8493849 L147.717456,10.8493849 L147.717456,17.7545547 L152.093026,17.7545547 L152.093026,9.51974865 C152.093026,8.04485802 151.703216,6.90144533 150.923596,6.08951058 C150.143976,5.27757584 149.052881,4.87160847 147.650312,4.87160847 C146.792357,4.87160847 146.033253,5.02058732 145.373001,5.31854502 C144.712749,5.61650273 144.19611,6.06343928 143.823087,6.65935469 L143.823087,6.65935469 L143.5657,6.65935469 L143.017355,5.09507674 L139.716094,5.09507674 L139.716094,17.7545547 L144.091664,17.7545547 Z M159.400564,23.2518744 C161.780456,23.2518744 163.628789,22.8235602 164.945564,21.9669318 C166.262338,21.1103034 166.920725,19.9110236 166.920725,18.3690925 C166.920725,15.9779819 165.499504,14.7824266 162.657062,14.7824266 L162.657062,14.7824266 L160.553208,14.7824266 C159.986211,14.7824266 159.527392,14.7246973 159.176749,14.6092387 C158.826107,14.4937801 158.650786,14.3280411 158.650786,14.1120218 C158.650786,13.9406961 158.703009,13.758197 158.807456,13.5645245 C159.083493,13.624116 159.456517,13.6539118 159.926527,13.6539118 C161.828949,13.6539118 163.259496,13.2777402 164.218167,12.525397 C165.176838,11.7730538 165.656174,10.7153039 165.656174,9.35214745 C165.656174,8.77857887 165.536807,8.27577524 165.298071,7.84373657 L165.298071,7.84373657 L167.032632,7.20685197 L167.032632,5.09507674 L162.612299,5.09507674 C162.343722,5.05038309 161.925935,5.00196496 161.358939,4.94982236 C160.791943,4.89767977 160.392807,4.87160847 160.161532,4.87160847 C158.415781,4.87160847 157.072895,5.25150454 156.132875,6.01129669 C155.192854,6.77108883 154.722844,7.8400121 154.722844,9.21806648 C154.722844,10.1044906 154.911221,10.8568339 155.287975,11.4750961 C155.66473,12.0933583 156.181368,12.5477438 156.83789,12.8382526 C156.151526,13.2553934 155.700167,13.6148049 155.483813,13.916487 C155.267459,14.2181692 155.159282,14.5664073 155.159282,14.9612012 C155.159282,15.3187505 155.302896,15.6800242 155.590125,16.0450224 C155.877353,16.4100206 156.21494,16.674458 156.602885,16.8383348 C154.722844,17.2778224 153.782824,18.2536339 153.782824,19.7657692 C153.782824,20.8905595 154.26962,21.7527747 155.243213,22.3524145 C156.216805,22.9520544 157.602589,23.2518744 159.400564,23.2518744 Z M160.206295,11.1845873 C159.303578,11.1845873 158.852219,10.5365293 158.852219,9.24041331 C158.852219,7.94429729 159.303578,7.29623929 160.206295,7.29623929 C161.079171,7.29623929 161.515609,7.95174624 161.515609,9.26276013 C161.515609,9.9033692 161.401837,10.383826 161.174292,10.7041305 C160.946748,11.0244351 160.624082,11.1845873 160.206295,11.1845873 Z M159.613187,20.5255614 C158.964126,20.5255614 158.445623,20.4156895 158.057678,20.1959457 C157.669733,19.9762018 157.475761,19.6875553 157.475761,19.3300061 C157.475761,19.0097015 157.638026,18.7396774 157.962557,18.5199336 C158.287087,18.3001898 158.684358,18.1903179 159.154368,18.1903179 L159.154368,18.1903179 L160.866548,18.1903179 C161.590214,18.1903179 162.146019,18.2592206 162.533964,18.397026 C162.921909,18.5348314 163.115882,18.7713354 163.115882,19.1065378 C163.115882,19.5236786 162.796946,19.8644677 162.159075,20.1289052 C161.521204,20.3933426 160.672575,20.5255614 159.613187,20.5255614 Z" id="appyLearning"></path>
                    </g>
                    <g id="Group">
                        <polyline id="Path" fill-opacity="0.85" fill="#000000" points="6.00357878 12.4146766 6.00357878 20.4241178 1.20037546 20.4241178 1.20037546 10.812618"></polyline>
                        <polyline id="Path" fill-opacity="0.85" fill="#000000" points="1.20037546 8.19927075 1.20037546 0 6.00357878 0 6.00357878 9.6114998"></polyline>
                        <polyline id="Path" fill-opacity="0.85" fill="#000000" points="16.8103609 10.812618 16.8103609 20.4249691 12.0071576 20.4249691 12.0071576 12.4044615"></polyline>
                        <polyline id="Path" fill-opacity="0.85" fill="#000000" points="12.0071576 9.6114998 12.0071576 0 16.8103609 0 16.8103609 8.10393039"></polyline>
                        <path d="M0,10.812618 C2.41589207,13.1454428 5.64850615,14.4391664 9.00579353,14.4168241 C12.3627871,14.4389435 15.5950553,13.1452362 18.0107363,10.812618" id="Path" stroke-opacity="0.85" stroke="#000000" stroke-width="3.40456187"></path>
                    </g>
                </g>
            </g>
        </g>
    </g>
</svg>