<?xml version="1.0" encoding="UTF-8"?>
<svg width="302px" height="29px" viewBox="0 0 302 29" version="1.1" xmlns="http://www.w3.org/2000/svg" xmlns:xlink="http://www.w3.org/1999/xlink">
    <title>logistic</title>
    <g id="Page-1" stroke="none" stroke-width="1" fill="none" fill-rule="evenodd">
        <g id="Our-Works" transform="translate(-549.000000, -2009.000000)">
            <g id="Group-9" transform="translate(81.000000, 1849.000000)">
                <g id="logistic" transform="translate(468.000000, 160.000000)">
                    <text id="Logistics-&amp;-Supply-C" font-family="AvenirNext-Bold, Avenir Next" font-size="20.9066667" font-weight="bold" fill="#000000" fill-opacity="0.85">
                        <tspan x="52.3341804" y="21">Logistics &amp; Supply Chain</tspan>
                    </text>
                    <g id="jhgjk" opacity="0.85" transform="translate(0.000000, 0.453818)" fill-rule="nonzero">
                        <path d="M8.244092,16.8104425 C8.67759712,16.8104425 9.02902245,17.1619713 9.02902245,17.595604 L9.02902245,17.6327714 C9.02902245,18.0664041 8.67759712,18.4179329 8.244092,18.4179329 L4.64455887,18.4179329 C4.43557881,18.4166959 4.23473341,18.4988716 4.08652433,18.6462523 C3.93831526,18.7936329 3.85498021,18.9940491 3.85498387,19.2030943 L3.85498387,19.2402617 C3.85498021,19.449307 3.93831526,19.6497232 4.08652433,19.7971038 C4.23473341,19.9444844 4.43557881,20.0266602 4.64455887,20.025437 L17.0594647,20.025437 C22.6979592,14.143681 24.4907589,6.73342915 21.0166289,2.8354973 C20.8599983,2.65944725 20.6924642,2.49341547 20.5150165,2.33838322 L7.4312942,2.33838322 C6.99778908,2.33838322 6.64636375,2.68991199 6.64636375,3.1235447 L6.64636375,3.16071211 C6.64262505,3.37135421 6.7236694,3.57466251 6.87127958,3.72493722 C7.01888977,3.87521192 7.22068089,3.95984457 7.4312942,3.95981137 L15.3595562,3.95981137 C15.7930613,3.95981137 16.1444866,4.31134014 16.1444866,4.74497285 L16.1444866,4.78214026 C16.1494911,4.99357898 16.0690078,5.19809555 15.9212589,5.34938599 C15.77351,5.50067644 15.5709919,5.58594469 15.3595562,5.58588545 L8.90361936,5.58588545 C8.69544286,5.58588545 8.49579273,5.66860758 8.34858972,5.81585392 C8.2013867,5.96310026 8.11868891,6.16280915 8.11868891,6.37104693 L8.11868891,6.40821433 C8.11868891,6.61645211 8.2013867,6.816161 8.34858972,6.96340734 C8.49579273,7.11065368 8.69544286,7.19337582 8.90361936,7.19337582 L18.4481878,7.19337582 C18.8798781,7.19593099 19.2284813,7.54671247 19.2284737,7.9785373 L19.2284737,8.0157047 C19.2284813,8.44752953 18.8798781,8.79831101 18.4481878,8.80086619 L1.81602252,8.80086619 C1.60784602,8.80086619 1.40819589,8.88358832 1.26099288,9.03083466 C1.11378986,9.178081 1.03109207,9.3777899 1.03109207,9.58602767 L1.03109207,9.61854915 C1.03109207,10.0521819 1.3825174,10.4037106 1.81602252,10.4037106 L8.66674686,10.4037106 C9.08959824,10.403444 9.43666491,10.7382873 9.45167731,11.1609966 L9.45167731,11.198164 C9.45167731,11.6317967 9.10025198,11.9833254 8.66674686,11.9833254 L5.33195359,11.9833254 C5.12296391,11.9845478 4.92309055,12.0690889 4.77662353,12.2182153 C4.63015652,12.3673416 4.54919083,12.5687387 4.5516677,12.7777788 L4.5516677,12.8149462 C4.55166014,13.246771 4.90026338,13.5975525 5.33195359,13.6001077 L12.540309,13.6001077 C12.7484855,13.6001077 12.9481356,13.6828298 13.0953386,13.8300761 C13.2425416,13.9773225 13.3252394,14.1770314 13.3252394,14.3852691 L13.3252394,14.4131447 C13.3277222,14.6229877 13.2461218,14.825092 13.0986488,14.9743542 C12.9511758,15.1236163 12.7501049,15.2076127 12.540309,15.207598 L0.78493045,15.207598 C0.353232687,15.2075905 0.00255442457,15.5562963 0,15.9881136 L0,16.025281 C0,16.4589137 0.351425333,16.8104425 0.78493045,16.8104425 L8.244092,16.8104425 Z M17.7468595,5.58589905 C17.4218705,5.58589905 17.1288821,5.39005922 17.0045142,5.08972023 C16.8801464,4.78938123 16.9488911,4.4436761 17.178693,4.21380659 C17.4084949,3.98393708 17.7540983,3.91517205 18.0543489,4.03957653 C18.3545995,4.16398102 18.5503817,4.45705568 18.5503817,4.78214026 C18.551613,4.99568603 18.4673576,5.20084605 18.3163998,5.35184828 C18.165442,5.50285051 17.9603424,5.58713064 17.7468595,5.58589905 L17.7468595,5.58589905 Z M16.0376618,14.4131447 C16.0376618,14.8570409 15.6779187,15.2168899 15.2341531,15.2168899 C14.7903875,15.2168899 14.4306444,14.8570409 14.4306444,14.4131447 C14.4306444,13.9692485 14.7903875,13.6093995 15.2341531,13.6093995 C15.6779187,13.6093995 16.0376618,13.9692485 16.0376618,14.4131447 Z M11.3931029,12.0019091 C10.9595978,12.0019091 10.6081725,11.6503804 10.6081725,11.2167477 L10.6081725,11.1609966 C10.6081725,10.7273638 10.9595978,10.3758351 11.3931029,10.3758351 L13.9336766,10.3758351 C14.3617306,10.3834371 14.704731,10.7327491 14.7046734,11.1609966 L14.7046734,11.198164 C14.7098505,11.6300221 14.3653712,11.9849817 13.9336766,11.9926173 L11.3931029,12.0019091 Z" id="Shape" fill="#000000"></path>
                        <path d="M28.8473552,15.7372336 L25.9723732,15.7372336 L28.6197718,3.26292248 C28.6829878,3.03501568 28.6325495,2.79060241 28.4842814,2.60636415 C28.3360132,2.42212589 28.1080819,2.32063662 27.8719978,2.3337373 L22.7258266,2.3337373 C22.9012234,2.4976074 23.067148,2.67133659 23.2227944,2.854081 C26.7155026,6.73342915 24.9041247,14.143681 19.2656302,20.0440069 L27.9323771,20.0440069 C28.4774573,20.0255977 28.9431378,19.6453385 29.070294,19.1148217 L29.5904846,16.6664188 C29.6556158,16.4391422 29.6065797,16.1943854 29.4589264,16.0097645 C29.3112731,15.8251435 29.0833203,15.7235623 28.8473552,15.7372336 Z" id="Path" fill="#000000"></path>
                        <path d="M40.0082301,16.842964 L39.8270923,16.842964 L40.3333493,14.459604 C40.4285937,13.8654559 40.3360424,13.2563866 40.0686094,12.7173817 L36.7291716,6.7241373 C36.4228595,6.24295963 35.9049808,5.93732128 35.3358039,5.90180841 L29.0006256,5.90180841 C28.4561336,5.92178112 27.9912786,6.30136631 27.8627087,6.83099359 L25.2524666,19.1055299 C25.1892506,19.3334367 25.2396888,19.57785 25.387957,19.7620882 C25.5362252,19.9463265 25.7641565,20.0478157 26.0002406,20.0347151 L38.2107859,20.0347151 L38.2897434,20.0347151 L38.3640563,20.0347151 L39.3347691,20.0347151 C39.6952029,20.0209694 40.003466,19.7712596 40.0918322,19.4214529 L40.5051979,17.470164 C40.5510565,17.3174003 40.5193583,17.1518595 40.4203127,17.0268587 C40.3212672,16.9018579 40.1673857,16.8331872 40.0082301,16.842964 Z" id="Path" fill="#000000"></path>
                        <path d="M38.0389372,12.5176069 C37.9272307,12.8139917 37.6350308,13.0025633 37.3190306,12.9821995 L29.502238,12.9821995 C29.3428625,13.0023306 29.1844026,12.9386521 29.083246,12.813824 C28.9820893,12.6889959 28.9525994,12.5207428 29.0052702,12.3689373 L29.975983,7.78805433 C30.065707,7.43911792 30.3731811,7.19004717 30.7330461,7.17479211 L34.7645232,7.17479211 C35.1442031,7.19772044 35.4897699,7.40166487 35.6934349,7.72301137 L37.8252875,11.5419625 C37.9906825,11.8391558 38.0649857,12.178466 38.0389372,12.5176069 Z" id="Path" fill="#FFFFFF"></path>
                        <path d="M35.2289791,20.0254232 C34.8054334,21.7973089 33.2586158,23.0734299 31.439019,23.1521314 C29.7158877,23.1521314 28.6151272,21.7583536 28.9820474,20.0254232 C29.4023088,18.2533852 30.9483338,16.9763532 32.7673629,16.8987151 C34.4951388,16.8987151 35.5958992,18.2971388 35.2289791,20.0254232 Z" id="Path" fill="#000000"></path>
                        <path d="M33.4036674,20.0254232 C33.2263202,20.7602385 32.5841565,21.2889005 31.829162,21.3216366 C31.5025348,21.3357294 31.189044,21.1919173 30.9866124,20.9351215 C30.7841807,20.6783258 30.7174852,20.3398508 30.807359,20.0254232 C30.981525,19.2878956 31.6249277,18.7563151 32.3818645,18.724564 C32.7088815,18.712087 33.0220877,18.8570451 33.2242728,19.1144473 C33.4264578,19.3718495 33.4931565,19.7105491 33.4036674,20.0254232 L33.4036674,20.0254232 Z" id="Path" fill="#FFFFFF"></path>
                        <path d="M15.8425903,20.0254232 C15.4214559,21.7893511 13.886678,23.0633457 12.0758531,23.1521314 C11.2890172,23.1835433 10.5348054,22.8357969 10.0476043,22.2169614 C9.56040332,21.598126 9.39925401,20.7831944 9.61423687,20.0254232 C10.0363795,18.2526621 11.584008,16.9758722 13.4041969,16.8987151 C15.10875,16.8987151 16.2095105,18.2971388 15.8425903,20.0254232 Z" id="Path" fill-opacity="0.85" fill="#000000"></path>
                        <path d="M14.0172787,20.0254232 C13.8399315,20.7602385 13.1977678,21.2889005 12.4427732,21.3216366 C12.116146,21.3357294 11.8026553,21.1919173 11.6002236,20.9351215 C11.3977919,20.6783258 11.3310964,20.3398508 11.4209703,20.0254232 C11.5946372,19.2837877 12.2437264,18.7506543 13.0047648,18.724564 C13.3301719,18.7151411 13.6405932,18.8613848 13.8405845,19.11833 C14.0405758,19.3752752 14.1061996,19.7121672 14.0172787,20.0254232 L14.0172787,20.0254232 Z" id="Path" fill="#FFFFFF"></path>
                        <path d="M19.3863887,20.917441 C14.8625884,24.9779803 9.51205657,26.9943121 5.35982094,26.5901166 C9.07546804,26.250964 13.4088415,24.2671536 17.1755787,20.8988573 C23.8916108,14.8777373 26.2835587,6.56152989 22.521466,2.37555063 C21.2237342,1.00072596 19.4523241,0.170392545 17.5657217,0.0525876673 C20.5057274,-0.21223011 23.078813,0.51718026 24.732276,2.37555063 C28.4990133,6.56152989 26.1024209,14.8777373 19.3863887,20.917441 Z" id="Path" fill="#000000"></path>
                    </g>
                </g>
            </g>
        </g>
    </g>
</svg>