<?xml version="1.0" encoding="UTF-8"?>
<svg width="119px" height="27px" viewBox="0 0 119 27" version="1.1" xmlns="http://www.w3.org/2000/svg" xmlns:xlink="http://www.w3.org/1999/xlink">
    <title>uthavi</title>
    <g id="Page-1" stroke="none" stroke-width="1" fill="none" fill-rule="evenodd">
        <g id="Our-Works" transform="translate(-107.000000, -5457.000000)" fill="#000000">
            <g id="Group-8" transform="translate(76.000000, 5305.000000)">
                <g id="uthavi" transform="translate(31.000000, 153.000000)">
                    <text id="UTHAVI" font-family="Gibson-SemiBold, Gibson" font-size="20.8130478" font-weight="500" letter-spacing="1.51168462" fill-opacity="0.85">
                        <tspan x="36.3530589" y="20.7738895">UTHAVI</tspan>
                    </text>
                    <g id="logo" transform="translate(0.000000, 3.798291)" fill-rule="nonzero">
                        <path d="M26.2709797,1.96442255 C25.7452313,1.21749382 24.4394049,0.0582604406 22.6585955,0.0497110956 C19.1402027,0.0318689589 17.0930008,2.88015716 13.6912176,6.47637 C10.2889317,2.88015716 8.24323765,0.0318689589 4.72484486,0.0497110956 C2.94453811,0.0582604406 1.63871176,1.21749382 1.11296335,1.96442255 C0.747649849,2.48368611 0.467573965,3.05694656 0.28312528,3.66293847 C1.2818462,2.48378699 2.66407194,1.68756097 4.62431935,2.09886972 C6.8645303,2.44444874 8.52923272,4.42729553 11.8465745,7.71427987 C11.9310159,7.79793589 12.0154573,7.8796001 12.0978883,7.95827659 C8.49404879,10.6571791 6.21965917,7.68141501 6.15029657,7.60473033 C6.20055932,7.7486386 8.03163145,13.5303649 13.6932281,9.3226664 C19.3513063,13.5328546 21.1858968,7.7486386 21.2341491,7.60473033 C21.1642838,7.68141501 18.8898942,10.6571791 15.2860548,7.95827659 C15.3689883,7.8796001 15.4534297,7.79793589 15.5373685,7.71427987 C18.8547103,4.42779348 20.5199153,2.44444874 22.7596237,2.09886972 C24.7198711,1.68756097 26.1005889,2.48378699 27.0988072,3.66293847 C26.9152101,3.05698013 26.6357991,2.48369163 26.2709797,1.96442255 Z" id="Path" fill-opacity="0.85"></path>
                        <path d="M4.62431935,2.09886972 C4.21953858,2.33762776 3.88276098,2.67452883 3.64570353,3.0778443 C2.62386174,2.99120057 1.39895842,3.10274192 0.251459744,3.77099416 C0.261512295,3.73464363 0.271062219,3.69879105 0.282622652,3.66293847 C1.2818462,2.48378699 2.66407194,1.68756097 4.62431935,2.09886972 Z" id="Path"></path>
                        <path d="M21.5844805,15.2801699 C19.1015004,17.2784532 13.6932281,22.2017094 13.6932281,22.2017094 C13.6932281,22.2017094 8.2824426,17.280445 5.80197568,15.2801699 C0.860141697,11.3035214 -0.663825008,6.96237162 0.251459744,3.77099416 C1.39895842,3.10274192 2.62386174,2.99120057 3.64570353,3.0778443 C2.5464571,4.88292205 2.7545449,8.41539697 6.7896388,12.2496311 C8.05927597,13.4551741 13.6912176,18.1862206 13.6912176,18.1862206 C13.6912176,18.1862206 19.3231592,13.455672 20.5922937,12.2496311 C24.6273876,8.41539697 24.8344702,4.88342001 23.7367316,3.07884021 C24.7565629,2.99020466 25.9814662,3.10025216 27.1284622,3.76501873 C28.0467628,6.95789005 26.5253092,11.3035214 21.5844805,15.2801699 Z" id="Path" fill-opacity="0.85"></path>
                        <path d="M27.1284622,3.76601463 C25.9814662,3.10124807 24.7565629,2.99120057 23.7367316,3.07983611 C23.5010969,2.67542167 23.1646685,2.33766477 22.7596237,2.09886972 C24.7198711,1.68756097 26.1005889,2.48378699 27.0988072,3.66293847 C27.1088598,3.69729719 27.1189123,3.73165591 27.1284622,3.76601463 Z" id="Path"></path>
                        <path d="M15.5916526,1.88226039 C15.5920589,2.64401163 15.1292226,3.33098926 14.418985,3.6228245 C13.7087474,3.91465974 12.890995,3.75387349 12.3470828,3.21544765 C11.8031706,2.6770218 11.6402261,1.86700333 11.9342377,1.16314051 C12.2282493,0.459277691 12.9213092,0.000201521451 13.6902123,0 C14.73976,0 15.59082,0.842475081 15.5916526,1.88226039 L15.5916526,1.88226039 Z" id="Path" fill-opacity="0.85"></path>
                    </g>
                </g>
            </g>
        </g>
    </g>
</svg>