<?xml version="1.0" encoding="UTF-8"?>
<svg width="24px" height="24px" viewBox="0 0 24 24" version="1.1" xmlns="http://www.w3.org/2000/svg" xmlns:xlink="http://www.w3.org/1999/xlink">
    <title>1</title>
    <g id="1" stroke="none" stroke-width="1" fill="none" fill-rule="evenodd">
        <rect id="Rectangle" stroke="#979797" fill="#D8D8D8" opacity="0" x="0.5" y="0.5" width="23" height="23"></rect>
        <g id="iconfinder_ic_diagnostics_6194480" opacity="0.85" transform="translate(2.000000, 2.000000)" fill="#000000" fill-rule="nonzero" stroke="#000000" stroke-width="0.1">
            <path d="M15.2444444,16.1111111 C15.2444444,16.417936 15.4931751,16.6666667 15.8,16.6666667 C16.1068249,16.6666667 16.3555556,16.417936 16.3555556,16.1111111 C16.3529196,13.4515274 14.6966706,11.0740623 12.2027778,10.15 C13.5285321,9.19420701 14.0866367,7.49251081 13.5844455,5.93720734 C13.0822544,4.38190387 11.6343699,3.32792046 10,3.32792046 C8.36563014,3.32792046 6.91774561,4.38190387 6.41555446,5.93720734 C5.91336332,7.49251081 6.47146788,9.19420701 7.79722222,10.15 C5.30332941,11.0740623 3.64708041,13.4515274 3.64444444,16.1111111 C3.64444444,16.417936 3.89317514,16.6666667 4.2,16.6666667 C4.50682486,16.6666667 4.75555556,16.417936 4.75555556,16.1111111 C4.75555556,13.2146844 7.10357331,10.8666667 10,10.8666667 C12.8964267,10.8666667 15.2444444,13.2146844 15.2444444,16.1111111 Z M7.34444444,7.1 C7.34444444,5.63337716 8.53337716,4.44444444 10,4.44444444 C11.4666228,4.44444444 12.6555556,5.63337716 12.6555556,7.1 C12.6555556,8.56662284 11.4666228,9.75555556 10,9.75555556 C8.53401182,9.7540245 7.3459755,8.56598818 7.34444444,7.1 Z" id="Shape"></path>
            <path d="M0.555555556,6.59444444 C0.862380417,6.59444444 1.11111111,6.34571375 1.11111111,6.03888889 L1.11111111,1.11111111 L6.03888889,1.11111111 C6.34571375,1.11111111 6.59444444,0.862380417 6.59444444,0.555555556 C6.59444444,0.248730695 6.34571375,0 6.03888889,0 L0.555555556,0 C0.248730695,0 0,0.248730695 0,0.555555556 L0,6.03888889 C0,6.34571375 0.248730695,6.59444444 0.555555556,6.59444444 Z" id="Path"></path>
            <path d="M19.4444444,0 L13.9611111,0 C13.6542863,0 13.4055556,0.248730695 13.4055556,0.555555556 C13.4055556,0.862380417 13.6542863,1.11111111 13.9611111,1.11111111 L18.8888889,1.11111111 L18.8888889,6.03888889 C18.8888889,6.34571375 19.1376196,6.59444444 19.4444444,6.59444444 C19.7512693,6.59444444 20,6.34571375 20,6.03888889 L20,0.555555556 C20,0.248730695 19.7512693,0 19.4444444,0 Z" id="Path"></path>
            <path d="M19.4444444,13.4055556 C19.1376196,13.4055556 18.8888889,13.6542863 18.8888889,13.9611111 L18.8888889,18.8888889 L13.9611111,18.8888889 C13.6542863,18.8888889 13.4055556,19.1376196 13.4055556,19.4444444 C13.4055556,19.7512693 13.6542863,20 13.9611111,20 L19.4444444,20 C19.7512693,20 20,19.7512693 20,19.4444444 L20,13.9611111 C20,13.6542863 19.7512693,13.4055556 19.4444444,13.4055556 Z" id="Path"></path>
            <path d="M6.03888889,18.8888889 L1.11111111,18.8888889 L1.11111111,13.9611111 C1.11111111,13.6542863 0.862380417,13.4055556 0.555555556,13.4055556 C0.248730695,13.4055556 0,13.6542863 0,13.9611111 L0,19.4444444 C0,19.7512693 0.248730695,20 0.555555556,20 L6.03888889,20 C6.34571375,20 6.59444444,19.7512693 6.59444444,19.4444444 C6.59444444,19.1376196 6.34571375,18.8888889 6.03888889,18.8888889 Z" id="Path"></path>
        </g>
    </g>
</svg>