<?xml version="1.0" encoding="UTF-8"?>
<svg width="50px" height="50px" viewBox="0 0 50 50" version="1.1" xmlns="http://www.w3.org/2000/svg" xmlns:xlink="http://www.w3.org/1999/xlink">
    <title>medical</title>
    <g id="medical" stroke="none" stroke-width="1" fill="none" fill-rule="evenodd">
        <rect id="Rectangle" stroke="#979797" fill="#D8D8D8" opacity="0" x="1.5" y="0.5" width="49" height="49"></rect>
        <g id="iconfinder_pestle_mortar_pharmacy_medicine_2668599" transform="translate(1.000000, 8.000000)" stroke="#000000" stroke-linejoin="round" stroke-opacity="0.85" stroke-width="2">
            <path d="M29.5693145,10.6623841 L32.6761227,6.75342232 C33.6058364,6.73268041 34.5224135,6.33858405 35.1774527,5.5835784 C36.402143,4.16779464 36.2409209,2.0349333 34.8161959,0.817679284 C33.3896795,-0.39957473 31.2406495,-0.239565683 30.0135708,1.17621808 C29.3639057,1.92589009 29.1083389,2.87705499 29.219403,3.78673606 L22.7143926,10.7068311" id="Path"></path>
            <path d="M2.78914111,17.1960869 C2.78914111,23.0458991 6.25660899,27.9380276 11.2628516,30.2694187 C9.45537349,31.1109478 7.84793014,32.5391767 6.5324778,34 L28.4753932,34 C27.1599408,32.5391767 25.5507061,31.1109478 23.7426309,30.2694187 C28.7518591,27.9380276 32.2187299,23.0458991 32.2187299,17.1960869" id="Path"></path>
            <path d="M5.33406071,17.0621534 L1.97885114,17.0621534 C0.889706757,17.0621534 6.36417456e-15,16.2579598 6.36417456e-15,15.2759783 C6.36417456e-15,14.2928116 0.889706757,13.4880253 1.97885114,13.4880253 L33.029617,13.4880253 C34.1175671,13.4880253 35.0084681,14.292219 35.0084681,15.2759783 C35.0084681,16.2579598 34.1175671,17.0621534 33.029617,17.0621534 L23.0816206,17.0621534" id="Path" stroke-linecap="round"></path>
        </g>
    </g>
</svg>