<?xml version="1.0" encoding="UTF-8"?>
<svg width="50px" height="50px" viewBox="0 0 50 50" version="1.1" xmlns="http://www.w3.org/2000/svg" xmlns:xlink="http://www.w3.org/1999/xlink">
    <title>consumer</title>
    <g id="consumer" stroke="none" stroke-width="1" fill="none" fill-rule="evenodd">
        <rect id="Rectangle" stroke="#979797" fill="#D8D8D8" opacity="0" x="0.5" y="0.5" width="49" height="49"></rect>
        <g id="iconfinder_dispenser-liquid_soap-soap0A_3591295" transform="translate(1.000000, 7.000000)" stroke="#000000" stroke-width="2">
            <path d="M17.5223036,36 L6.43478424,36 C4.58246217,36 2.81988869,35.2120735 1.59809209,33.8373366 C0.376295495,32.4625997 -0.186166607,30.6345818 0.0546352861,28.8210579 L1.12692923,21.0916779 C1.84069823,15.7054943 6.47736246,11.6699889 11.9785439,11.6470109 L11.9785439,11.6470109 C17.4960597,11.6487894 22.1571193,15.6895558 22.8730504,21.0916779 L23.9453443,28.8210579 C24.1871662,30.641932 23.6191687,32.4770493 22.3877779,33.8533291 C21.156387,35.2296089 19.3820955,36.0123809 17.5223036,36 L17.5223036,36 Z" id="Path"></path>
            <rect id="Rectangle" x="9.83395603" y="5.29409586" width="4.28917576" height="6.35291504"></rect>
            <line x1="11.9785439" y1="0" x2="11.9785439" y2="5.29409586" id="Path"></line>
            <path d="M5.54478026,0 L20.5568954,0 C21.7413186,0 22.7014833,0.948098981 22.7014833,2.11763835 L22.7014833,2.11763835" id="Path"></path>
            <rect id="Rectangle" x="5.54478026" y="22.2352026" width="12.8675273" height="7.41173421" rx="3.7058671"></rect>
        </g>
    </g>
</svg>