<?xml version="1.0" encoding="UTF-8"?>
<svg width="50px" height="50px" viewBox="0 0 50 50" version="1.1" xmlns="http://www.w3.org/2000/svg" xmlns:xlink="http://www.w3.org/1999/xlink">
    <title>financial</title>
    <g id="financial" stroke="none" stroke-width="1" fill="none" fill-rule="evenodd">
        <rect id="Rectangle" stroke="#979797" fill="#D8D8D8" opacity="0" x="1.5" y="0.5" width="49" height="49"></rect>
        <g id="iconfinder_v2_institution_3474926" transform="translate(-2.000000, 4.000000)" fill="#000000" fill-rule="nonzero">
            <rect id="Rectangle-path" opacity="0" x="0" y="0" width="42" height="42"></rect>
            <path d="M7.89961371,15.75 L34.0674802,15.75 L20.9835469,5.90956191 L7.89961371,15.75 Z M26.25,34.125 L31.5,34.125 L31.5,18.375 L26.25,18.375 L26.25,34.125 Z M23.625,34.125 L23.625,18.375 L18.375,18.375 L18.375,34.125 L23.625,34.125 Z M15.75,34.125 L15.75,18.375 L10.5,18.375 L10.5,34.125 L15.75,34.125 Z M7.875,34.125 L7.875,18.375 L3.97091092,18.375 C3.24603717,18.375 2.65841092,17.7873737 2.65841092,17.0625 C2.65841092,16.6500014 2.85233511,16.2615009 3.18200124,16.0135587 L20.1946372,3.2183397 C20.6618773,2.86692803 21.3052166,2.86692803 21.7724566,3.2183397 L38.7850927,16.0135587 C39.3644068,16.4492615 39.4808269,17.2720954 39.0451241,17.8514097 C38.7971819,18.1810758 38.4086816,18.375 37.9961828,18.375 L34.125,18.375 L34.125,34.125 L38.0625,34.125 C38.7873738,34.125 39.375,34.7126262 39.375,35.4375 C39.375,36.1623738 38.7873738,36.75 38.0625,36.75 L3.9375,36.75 C3.21262628,36.75 2.625,36.1623738 2.625,35.4375 C2.625,34.7126262 3.21262628,34.125 3.9375,34.125 L7.875,34.125 Z" id="Combined-Shape" stroke="#FFFFFF" stroke-width="0.4" fill-opacity="0.85"></path>
        </g>
    </g>
</svg>