<?xml version="1.0" encoding="UTF-8"?>
<svg width="50px" height="50px" viewBox="0 0 50 50" version="1.1" xmlns="http://www.w3.org/2000/svg" xmlns:xlink="http://www.w3.org/1999/xlink">
    <title>education</title>
    <g id="education" stroke="none" stroke-width="1" fill="none" fill-rule="evenodd">
        <rect id="Rectangle" stroke="#979797" fill="#D8D8D8" opacity="0" x="1.5" y="0.5" width="49" height="49"></rect>
        <g id="iconfinder_322_2152139" transform="translate(1.000000, 12.000000)" fill="#000000" fill-opacity="0.85" fill-rule="nonzero">
            <path d="M12.0615319,20.1165684 L12.0615319,16.633566 C12.0615319,16.2744524 11.7656726,15.9832906 11.4005264,15.9832906 L10.7396279,15.9832906 C10.3745886,15.9832906 10.0787294,16.2743472 10.0787294,16.633566 L10.0787294,20.1165684 C10.0787294,23.4803921 16.6844,25.2404064 23.2094499,25.2404064 C29.7344997,25.2404064 36.3401704,23.4803921 36.3401704,20.1165684 L36.3401704,16.633566 C36.3401704,16.2744524 36.0443111,15.9832906 35.6792718,15.9832906 L35.0183733,15.9832906 C34.653334,15.9832906 34.3574748,16.2743472 34.3574748,16.633566 L34.3574748,20.1165684 C34.3574748,21.3798825 29.9112454,23.2896853 23.2095568,23.2896853 C16.5078682,23.2896853 12.0615319,21.3798825 12.0615319,20.1165684 Z" id="Path"></path>
            <path d="M46.959562,25.1749792 C46.6986669,24.0431507 46.2239234,22.0148004 45.9758593,21.1476262 C45.6994602,20.180523 44.9229766,19.657736 44.1148434,19.4347364 L44.1148434,10.2331601 L45.3889523,9.74992403 C46.762073,9.22913566 46.762073,8.37689826 45.3889523,7.85600471 L25.7060232,0.390564979 C25.0194629,0.130223389 24.1144564,0 23.2093429,0 C22.3043364,0 21.3993299,0.130223389 20.7127696,0.390564979 L1.02984051,7.85600471 C-0.343280171,8.37679307 -0.343280171,9.22903047 1.02984051,9.74992403 L20.7128765,17.2153638 C21.3994369,17.4758105 22.3044434,17.6060339 23.2094499,17.6060339 C24.1144564,17.6060339 25.0194629,17.4758105 25.7061301,17.2153638 L42.1320409,10.985258 L42.1320409,19.4347364 C41.3240146,19.657736 40.547531,20.180523 40.271025,21.1477314 C40.0230678,22.0152212 39.5484312,24.043361 39.2876431,25.1747688 C39.1818951,25.6322337 39.2847561,26.0960098 39.5697092,26.4471291 C39.854876,26.7984588 40.292303,27 40.7699334,27 L45.4769509,27 C45.9543675,27 46.3919014,26.798564 46.6769613,26.4472343 C46.9620212,26.0962202 47.0649892,25.6326544 46.959562,25.1749792 Z M24.9927318,15.3952868 C24.5634311,15.5581186 23.8967587,15.6553128 23.2093429,15.6553128 C22.5220341,15.6553128 21.8553617,15.5581186 21.426061,15.3952868 L4.04521012,8.80291177 L21.426061,2.21064196 C21.8553617,2.04781013 22.5220341,1.95061594 23.2093429,1.95061594 C23.8967587,1.95061594 24.5634311,2.04781013 24.9927318,2.21064196 L42.3735827,8.80291177 L24.9927318,15.3952868 Z M41.3504249,25.0492789 C41.5932498,24.0060191 41.9768939,22.3863263 42.179836,21.6757778 C42.2977734,21.2633336 43.0998119,21.2517629 43.0998119,21.2517629 L43.13916,21.2517629 C43.1471793,21.2517629 43.9492178,21.2633336 44.0671552,21.6757778 C44.2703112,22.3862211 44.6538483,24.0060191 44.8966732,25.0492789 L41.3504249,25.0492789 L41.3504249,25.0492789 Z" id="Shape"></path>
        </g>
    </g>
</svg>