<?xml version="1.0" encoding="UTF-8"?>
<svg width="50px" height="50px" viewBox="0 0 50 50" version="1.1" xmlns="http://www.w3.org/2000/svg" xmlns:xlink="http://www.w3.org/1999/xlink">
    <title>agriculture</title>
    <g id="agriculture" stroke="none" stroke-width="1" fill="none" fill-rule="evenodd">
        <rect id="Rectangle" stroke="#979797" fill="#D8D8D8" opacity="0" x="1.5" y="0.5" width="49" height="49"></rect>
        <g id="iconfinder_agricultural_farming_agrarian_agriculture_ecofriendly_gardening_5362900" transform="translate(1.000000, 5.000000)" stroke="#000000" stroke-linecap="round" stroke-linejoin="round" stroke-opacity="0.85" stroke-width="2">
            <line x1="19.1239328" y1="13.9252779" x2="19.1239328" y2="20.8572211" id="path8390-2"></line>
            <path d="M27.8110823,5.22297923 C26.0736524,6.09115692 19.1239328,11.300223 19.1239328,16.5093761" id="path8395-7"></path>
            <path d="M15.6994885,2.33096666 C17.9531467,4.58393297 17.953138,8.23673146 15.6994972,10.4896978 C13.4458563,12.7425771 9.79199365,12.7425771 7.53834413,10.4896108 C5.28471201,8.23673146 5.20660973,0 5.20660973,0 C5.20660973,0 13.4458563,0.0782612098 15.6994885,2.33096666 Z" id="path8397-0"></path>
            <path d="M22.5483771,2.33096666 C20.2947189,4.58393297 20.2947189,8.23673146 22.5483684,10.4896978 C24.8020005,12.7425771 28.4558719,12.7425771 30.7095127,10.4896108 C32.9631536,8.23673146 33.0412558,0 33.0412558,0 C33.0412558,0 24.8020092,0.0782612098 22.5483771,2.33096666 Z" id="path8437-7"></path>
            <path d="M29.5651869,26.086896 C29.5651869,26.086896 32.2335205,23.498363 33.9150811,21.7389641 C34.3748224,21.2580055 34.9394308,20.8606994 35.6536852,20.869255 C36.6835932,20.8815691 35.6536852,20.869255 37.3922025,20.869255 C38.8201981,20.869255 40,22.0528785 40,23.4814064 C40,23.4901021 40,23.4927108 40,23.5014065 C39.9816683,24.2595837 39.652541,24.9017604 39.2582806,25.3044578 C35.6733348,28.9657781 32.0608239,32.6121418 28.4630132,36.2651142 C25.6838021,39.0869526 21.9486014,40 19.1506019,40 L5.21899615e-05,40" id="path10232-3-8"></path>
            <path d="M23.4882313,27.8259471 C24.9279784,27.8259471 26.0950329,28.9938652 26.0950329,30.4346541 C26.0950329,31.8754429 24.9279784,33.0433611 23.4882313,33.0433611 L13.9298139,33.0433611" id="path10234-4-0"></path>
            <path d="M23.4606924,27.8275123 C18.7663794,27.8275123 15.9734336,27.5102066 13.5350316,26.7639425 C12.2528982,26.371506 10.9809419,26.086896 9.28555096,26.086896 C7.34695484,26.086896 6.03289859,26.8370732 4.63751299,27.6955117 C3.24212739,28.5538633 2.02592732,29.5729981 0,29.5650851" id="path10236-6-2"></path>
            <path d="M10.4366962,5.22297923 C12.1741262,6.09115692 19.1238458,11.300223 19.1238458,16.5093761" id="path10298-7"></path>
        </g>
    </g>
</svg>