<?xml version="1.0" encoding="UTF-8"?>
<svg width="31px" height="31px" viewBox="0 0 31 31" version="1.1" xmlns="http://www.w3.org/2000/svg" xmlns:xlink="http://www.w3.org/1999/xlink">
    <title>pin</title>
    <g id="pin" stroke="none" stroke-width="1" fill="none" fill-rule="evenodd">
        <g id="iconfinder_Location_pin_marker_3178344" transform="translate(6.000000, 4.000000)" fill="#333333" fill-rule="nonzero" stroke="#333333" stroke-width="0.2">
            <path d="M9.5,0 C4.25329488,0 0,4.1189803 0,9.2 C0,16.85325 8.43125,23 9.5,23 C10.56875,23 19,16.85325 19,9.2 C19,4.1189803 14.7467051,0 9.5,0 Z M9.5,21.8155 C8.134375,21.1715 1.1875,15.8125 1.1875,9.2 C1.1875,4.75410781 4.90913307,1.15000012 9.5,1.15000012 C14.0908669,1.15000012 17.8125,4.75410781 17.8125,9.2 C17.8125,15.8125 10.865625,21.1715 9.5,21.8155 Z" id="Shape"></path>
            <path d="M9.5,5.175 C7.20456651,5.175 5.34375,6.97705388 5.34375,9.2 C5.34375,11.4229461 7.20456651,13.225 9.5,13.225 C11.7954335,13.225 13.65625,11.4229461 13.65625,9.2 C13.65625,6.97705388 11.7954335,5.175 9.5,5.175 L9.5,5.175 Z M9.5,12.075 C7.86040465,12.075 6.53125,10.7878187 6.53125,9.2 C6.53125,7.61218134 7.86040465,6.325 9.5,6.325 C11.1395954,6.325 12.46875,7.61218134 12.46875,9.2 C12.46875,9.96249741 12.1559719,10.6937649 11.5992233,11.232932 C11.0424746,11.7720991 10.2873615,12.075 9.5,12.075 L9.5,12.075 Z" id="Shape"></path>
        </g>
    </g>
</svg>