<?xml version="1.0" encoding="UTF-8"?>
<svg width="75px" height="75px" viewBox="0 0 75 75" version="1.1" xmlns="http://www.w3.org/2000/svg" xmlns:xlink="http://www.w3.org/1999/xlink">
    <title>setting</title>
    <g id="setting" stroke="none" stroke-width="1" fill="none" fill-rule="evenodd">
        <rect id="Rectangle" stroke="#979797" fill="#D8D8D8" opacity="0" x="0.5" y="0.5" width="74" height="74"></rect>
        <g id="Group-28" transform="translate(2.000000, 2.000000)" stroke="#000000" stroke-opacity="0.85">
            <circle id="Oval" stroke-width="1.4" fill="#FFFFFF" cx="36" cy="36" r="35.3"></circle>
            <g id="iconfinder_setting_settings_tools_preferences_2744142" transform="translate(18.000000, 22.000000)" stroke-width="1.51794872">
                <path d="M12.6717982,16.8317743 C10.9438876,15.2040579 8.82531896,15.5351188 8.18201312,15.5439471 L8.12135539,15.5439471 C6.02282051,15.6173323 3.90091293,14.8592027 2.29765677,13.2723172 C0.00212339839,10.996273 -0.57495978,7.66193737 0.573641647,4.85454039 L4.69391537,8.93928092 C5.8742369,10.1095814 7.80471091,10.1095814 8.98503243,8.93928092 L9.01563954,8.90893366 C10.1970741,7.73808139 10.1970741,5.82344548 9.01675253,4.65314497 L4.8964788,0.567852684 C7.72791488,-0.569893494 11.0908017,0.00284197276 13.3863351,2.2788861 C14.9873653,3.86632342 15.7514301,5.97187115 15.6774165,8.05203753 L15.6774165,8.11218028 C15.6673997,8.75112794 15.3229305,10.8621933 16.9640282,12.5765374" id="Path" stroke-linejoin="round"></path>
                <path d="M21.1989395,25.2699665 L24.625823,28.6677555 C26.0671397,30.0979389 27.9236002,30.5305252 29.3660299,29.1003418 C30.8073466,27.6701585 30.3593698,25.8410466 28.918053,24.4119668 L25.3843229,20.9082383" id="Path" stroke-linejoin="round"></path>
                <polyline id="Path" points="25.5540532 10.4599543 29.943113 6.1065026 29.7249678 4.14606993 34.8319035 1.06113352 37 3.21082271 33.8903175 8.27550368 31.9125415 8.05810699 26.0615748 13.8605021"></polyline>
                <line x1="22.4649609" y1="15.4749761" x2="11.8036692" y2="26.0452009" id="Path" stroke-linecap="round" stroke-linejoin="round"></line>
                <path d="M13.6195056,29.2758041 C12.645643,30.2413986 11.0518472,30.2413986 10.0774281,29.2758041 L8.54540301,27.7562343 C7.57098387,26.7906398 7.57098387,25.2109273 8.54540301,24.2453328 L20.648568,12.2443729 C21.6224306,11.2787784 23.2156699,11.2787784 24.1895325,12.2443729 L25.7221141,13.7633909 C26.6959767,14.7289854 26.6959767,16.3092497 25.7221141,17.2748442 L13.6195056,29.2758041 Z" id="Path" stroke-linejoin="round"></path>
            </g>
        </g>
    </g>
</svg>