<?xml version="1.0" encoding="UTF-8"?>
<svg width="75px" height="75px" viewBox="0 0 75 75" version="1.1" xmlns="http://www.w3.org/2000/svg" xmlns:xlink="http://www.w3.org/1999/xlink">
    <title>strategy</title>
    <g id="strategy" stroke="none" stroke-width="1" fill="none" fill-rule="evenodd">
        <rect id="Rectangle" stroke="#979797" fill="#D8D8D8" opacity="0" x="0.5" y="0.5" width="74" height="74"></rect>
        <g id="Group-9" transform="translate(2.000000, 2.000000)" stroke="#000000" stroke-opacity="0.85">
            <circle id="Oval" stroke-width="1.4" fill="#FFFFFF" cx="36" cy="36" r="35.3"></circle>
            <g id="iconfinder_data-science-lab-12_3140761" transform="translate(20.000000, 19.000000)" stroke-linecap="round" stroke-linejoin="round" stroke-width="1.45454545">
                <g id="Group" transform="translate(7.443052, 6.403295)">
                    <path d="M1.51565118,12.331579 C2.26211966,14.209653 2.71114006,16.078036 2.94859376,18.092895 L3.02070239,18.7047652 C3.18849916,20.1284677 2.98262903,21.5722921 2.42436406,22.8870254 L-2.04945037e-15,28.5967048" id="Path"></path>
                    <path d="M0.803794837,6.76726589 C0.679695894,7.34710377 0.635925959,7.84268095 0.63534909,8.45891591 C0.634700112,9.19373725 0.653232029,9.68472781 0.82405736,10.3645097" id="Path"></path>
                    <path d="M2.98060999,2.5695444 C2.31555215,3.27077983 1.76702184,4.08882618 1.36818904,4.98972766" id="Path"></path>
                    <path d="M8.70408784,0 C7.20011826,0.0346216036 5.79212526,0.487513607 4.58668538,1.24889298" id="Path"></path>
                    <path d="M14.3747822,2.13707027 C13.2578196,1.11765638 11.8692238,0.404732465 10.3343196,0.12694588" id="Path"></path>
                    <path d="M7.24345554,20.490589 C8.26321571,21.4876616 9.7229827,21.8530378 11.0757405,21.4498589 L16.8702453,20.4479778 C17.3510656,20.3101571 17.6300539,19.7965294 17.4913169,19.3045031 L16.5844789,15.4297687 L18.910631,14.8901747 L17.5894568,11.0544265 C17.3074399,10.326855 17.1476472,9.55563658 17.1177221,8.77324752 C17.0876528,7.9860499 17.0426571,7.05178445 16.9923252,6.83591727 C16.7583328,5.60574068 16.2648213,4.47077349 15.5727227,3.49352694" id="Path"></path>
                    <line x1="11.3029548" y1="23.0954948" x2="11.536803" y2="27.8020354" id="Path"></line>
                    <line x1="15.4176892" y1="15.7312281" x2="16.5844789" y2="15.4297687" id="Path"></line>
                </g>
                <ellipse id="Oval" cx="16.194876" cy="13.9243947" rx="3.48508193" ry="3.57542035"></ellipse>
                <ellipse id="Oval" cx="3.34014359" cy="22.3361128" rx="1.29283553" ry="1.32634772"></ellipse>
                <ellipse id="Oval" cx="1.29283553" cy="12.3334284" rx="1.29283553" ry="1.32634772"></ellipse>
                <ellipse id="Oval" cx="2.33862691" cy="1.56766325" rx="1.29283553" ry="1.32634772"></ellipse>
                <ellipse id="Oval" cx="16.194876" cy="1.32634772" rx="1.29283553" ry="1.32634772"></ellipse>
                <ellipse id="Oval" cx="28.7071645" cy="2.16540376" rx="1.29283553" ry="1.32634772"></ellipse>
                <line x1="16.2088216" y1="10.3489744" x2="16.2088216" y2="2.65269543" id="Path"></line>
                <line x1="3.39501826" y1="2.48750304" x2="13.5379616" y2="11.6108134" id="Path"></line>
                <line x1="27.7539606" y1="3.06120077" x2="18.7646831" y2="11.5093899" id="Path"></line>
                <line x1="2.58567105" y1="12.5553618" x2="12.709794" y2="13.573814" id="Path"></line>
                <line x1="4.42992123" y1="21.6230409" x2="13.2570985" y2="15.8467814" id="Path"></line>
            </g>
        </g>
    </g>
</svg>