<?xml version="1.0" encoding="UTF-8"?>
<svg width="100px" height="100px" viewBox="0 0 100 100" version="1.1" xmlns="http://www.w3.org/2000/svg" xmlns:xlink="http://www.w3.org/1999/xlink">
    <title>marketing</title>
    <g id="marketing" stroke="none" stroke-width="1" fill="none" fill-rule="evenodd">
        <rect id="Rectangle" stroke="#979797" fill="#D8D8D8" opacity="0" x="0.5" y="0.5" width="99" height="99"></rect>
        <g id="iconfinder_7_promotion_announcement_marketing_branding_reaching_audience_1052608" transform="translate(11.000000, 19.000000)" fill="#000000" fill-opacity="0.85" fill-rule="nonzero" stroke="#FFFFFF" stroke-width="0.3">
            <path d="M64.4731457,4.51832304e-13 L57.5795902,6.8881843 L59.877441,9.18424551 L66.7773437,2.29606154 L64.4731457,4.51832304e-13 Z M53.5742187,11.5183628 C53.458706,11.5209452 53.3437982,11.5358291 53.2314445,11.5627622 L7.73144515,22.9289003 C7.00867537,23.1092357 6.50116042,23.7575123 6.5,24.5018926 L1.625,24.5018926 C0.727574451,24.5019823 0,25.2289003 0,26.1256266 L0,35.8680307 C0,36.7647571 0.727574451,37.4916751 1.625,37.4917647 L6.5,37.4917647 C6.49824562,38.2385094 7.00637826,38.8901921 7.73144515,39.0710994 L14.625,40.7899745 L14.625,45.6104348 C14.6252752,46.3847489 15.172636,47.0511586 15.9326173,47.202454 L32.182618,50.4499221 C32.6597672,50.5448107 33.154364,50.4211101 33.5305162,50.1128074 C33.9066684,49.8045048 34.1248078,49.344031 34.125,48.8579028 L34.125,45.6611765 L53.2314445,50.4372375 C53.7175086,50.5584093 54.2323356,50.4488157 54.6267679,50.1402086 C55.0212003,49.8316014 55.2511517,49.3584741 55.25,48.8579028 L55.25,41.233965 C59.2023867,39.3536064 61.7670527,35.3728276 61.7500845,30.9587716 C61.7331227,26.5750892 59.170956,22.6327215 55.25,20.7660346 L55.25,13.1357545 C55.2484553,12.6972916 55.0695306,12.2780863 54.7539137,11.9734665 C54.4382968,11.6688467 54.0128132,11.5047033 53.5742187,11.5183628 Z M74.3500972,13.7509971 L65.2983402,17.3853717 L66.510743,20.3981582 L75.5625,16.7701292 L74.3500972,13.7509971 Z M52,15.222506 L52,46.7838359 L9.75,36.2295648 L9.75,35.8680307 L9.75,26.1256266 L9.75,25.7767771 L52,15.222506 Z M55.25,24.5145772 C57.2520163,26.0155245 58.48999,28.3784861 58.5,30.9651139 C58.5101855,33.5703951 57.2667127,35.9503313 55.25,37.4663955 L55.25,24.5145772 Z M3.25,27.7493607 L6.5,27.7493607 L6.5,34.2442967 L3.25,34.2442967 L3.25,27.7493607 Z M68.25,29.3730947 L68.25,32.6205627 L78,32.6205627 L78,29.3730947 L68.25,29.3730947 Z M17.875,41.6018415 L30.875,44.8493095 L30.875,46.878977 L17.875,44.2848086 L17.875,41.6018415 Z M66.2695312,42.2805103 L64.9936527,45.2679276 L73.9565417,49.0989267 L75.2324235,46.1115094 L66.2695312,42.2805103 Z M59.877441,52.8157545 L57.5795902,55.1118151 L64.4731457,62 L66.7773437,59.7039394 L59.877441,52.8157545 Z" id="path10455"></path>
        </g>
    </g>
</svg>