<?xml version="1.0" encoding="UTF-8"?>
<svg width="100px" height="100px" viewBox="0 0 100 100" version="1.1" xmlns="http://www.w3.org/2000/svg" xmlns:xlink="http://www.w3.org/1999/xlink">
    <title>digital</title>
    <g id="digital" stroke="none" stroke-width="1" fill="none" fill-rule="evenodd">
        <rect id="Rectangle" stroke="#979797" fill="#D8D8D8" opacity="0" x="0.5" y="0.5" width="99" height="99"></rect>
        <g id="iconfinder_padlock_encryption_digital_lock_protection_security_7603847" transform="translate(3.000000, 16.000000)" stroke="#000000" stroke-opacity="0.85" stroke-width="3.2">
            <path d="M31.6401754,21.1114156 L31.6425837,14.8886672 C31.5980303,6.75066962 38.2039826,0.0424671323 46.3187315,-4.29024712e-15 L48.5969782,-4.29024712e-15 C56.7117271,-0.0420646722 63.3839075,6.57919082 63.428461,14.718396 L63.428461,21.1126232" id="Path"></path>
            <path d="M38.2352904,21.1114156 L38.2352904,15.6289243 C38.2352904,10.7454012 42.2174056,6.75066962 47.0857733,6.75066962 L47.9816589,6.75066962 C52.8524349,6.75066962 56.8345502,10.7454012 56.8345502,15.6289243 L56.8345502,21.1114156" id="Path"></path>
            <line x1="47.5349203" y1="46.0809031" x2="47.5349203" y2="55.1451277" id="Path" stroke-linecap="round"></line>
            <path d="M51.9240373,41.1587369 C51.9240373,43.5992908 49.9721145,45.5616363 47.5373286,45.5616363 C45.1194007,45.5616363 43.1458032,43.601706 43.1458032,41.1587369 C43.1458032,38.7193905 45.1194007,36.7582526 47.5373286,36.7582526 C49.9721145,36.7582526 51.9240373,38.7193905 51.9240373,41.1587369 Z" id="Path"></path>
            <g id="Group" transform="translate(0.000000, 24.207695)" stroke-linejoin="round">
                <g transform="translate(0.000000, 0.000000)">
                    <path d="M5.23081603,16.9558724 C7.95459731,16.9558724 9.85474181,19.1681905 9.85474181,21.8997754 C9.85474181,24.6277375 7.64874388,26.8412631 4.92496261,26.8412631 C2.20599792,26.8412631 1.06949768e-15,24.6277375 1.06949768e-15,21.8997754 C0.00120414734,19.1681905 2.5106472,16.9558724 5.23081603,16.9558724 Z" id="Path"></path>
                    <ellipse id="Oval" cx="10.7650772" cy="4.94148777" rx="4.9273709" ry="4.94148777"></ellipse>
                    <ellipse id="Oval" cx="10.7650772" cy="38.8532326" rx="4.92496261" ry="4.93907258"></ellipse>
                </g>
                <g transform="translate(69.346845, 0.000000)">
                    <g transform="translate(9.964319, 0.000000)">
                        <path d="M10.4604279,16.9558724 C7.73905493,16.9558724 5.83650214,19.1681905 5.83650214,21.8997754 C5.83650214,24.6277375 8.04250006,26.8412631 10.763873,26.8412631 C13.485246,26.8412631 15.6888357,24.6277375 15.6888357,21.8997754 C15.6888357,19.1681905 13.1793926,16.9558724 10.4604279,16.9558724 Z" id="Path"></path>
                        <ellipse id="Oval" cx="4.9273709" cy="4.94148777" rx="4.9273709" ry="4.94148777"></ellipse>
                        <ellipse id="Oval" cx="4.9273709" cy="38.8532326" rx="4.92496261" ry="4.93907258"></ellipse>
                    </g>
                    <polyline id="Path" points="11.3936421 8.45197286 7.10687758 13.3753467 1.71119629e-14 13.3753467 1.71119629e-14 17.0971613"></polyline>
                    <polyline id="Path" points="11.3936421 35.3451627 7.10687758 30.4181661 1.71119629e-14 30.4181661 1.71119629e-14 21.8985678 15.8562121 21.8985678"></polyline>
                </g>
                <polyline id="Path" points="14.2619211 8.45197286 18.5498897 13.3753467 25.6567673 13.3753467 25.6567673 17.0971613"></polyline>
                <polyline id="Path" points="14.2619211 35.3451627 18.5498897 30.4181661 25.6567673 30.4181661 25.6567673 21.8985678 9.80055518 21.8985678"></polyline>
            </g>
            <path d="M69.3468451,32.6741589 L69.3468451,29.8399282 C69.3468451,27.8159953 67.6959591,26.1591719 65.6778082,26.1591719 L29.3258042,26.1591719 C27.3076533,26.1591719 25.6567673,27.8159953 25.6567673,29.8399282 L25.6567673,32.6741589" id="Path" stroke-linejoin="round"></path>
            <path d="M69.3468451,59.3427356 L69.3468451,62.3689742 C69.3468451,64.3953223 67.6959591,66.0509381 65.6778082,66.0509381 L29.3258042,66.0509381 C27.3076533,66.0509381 25.6567673,64.3953223 25.6567673,62.3689742 L25.6567673,59.3427356" id="Path" stroke-linejoin="round"></path>
        </g>
    </g>
</svg>