<?xml version="1.0" encoding="UTF-8"?>
<svg width="32px" height="32px" viewBox="0 0 32 32" version="1.1" xmlns="http://www.w3.org/2000/svg" xmlns:xlink="http://www.w3.org/1999/xlink">
    <title>seat</title>
    <g id="seat" stroke="none" stroke-width="1" fill="none" fill-rule="evenodd" opacity="0.85">
        <g id="iconfinder_17_2210424" transform="translate(2.000000, 3.000000)" fill="#000000" fill-rule="nonzero" stroke="#000000" stroke-width="0.6">
            <path d="M25.2478632,27 L25.2478632,24.3774834 L28,24.3774834 L28,11.6821192 C28,10.0728477 26.8034188,8.70198675 25.2478632,8.40397351 L25.2478632,3.33774834 C25.2478632,1.49006623 23.7521368,0 21.8974359,0 L5.92307692,0 C4.06837607,0 2.57264957,1.49006623 2.57264957,3.33774834 L2.57264957,8.46357616 C1.07692308,8.82119205 0,10.1324503 0,11.6821192 L0,24.3774834 L2.57264957,24.3774834 L2.57264957,27 L3.70940171,27 L3.70940171,24.3774834 L24.0512821,24.3774834 L24.0512821,27 L25.2478632,27 L25.2478632,27 Z M3.76923077,3.33774834 C3.76923077,2.14569536 4.72649573,1.19205298 5.92307692,1.19205298 L21.957265,1.19205298 C23.1538462,1.19205298 24.1111111,2.14569536 24.1111111,3.33774834 L24.1111111,8.40397351 C22.5555556,8.64238411 21.3589744,10.013245 21.3589744,11.6821192 L21.3589744,14.602649 L6.64102564,14.602649 L6.64102564,11.6821192 C6.64102564,10.013245 5.38461538,8.58278146 3.70940171,8.40397351 L3.70940171,3.33774834 L3.76923077,3.33774834 Z M21.3589744,15.794702 L21.3589744,17.7019868 L6.64102564,17.7019868 L6.64102564,15.7350993 L21.3589744,15.7350993 L21.3589744,15.794702 Z M1.13675214,23.1854305 L1.13675214,11.6821192 C1.13675214,10.4900662 2.09401709,9.53642384 3.29059829,9.53642384 C4.48717949,9.53642384 5.44444444,10.4900662 5.44444444,11.6821192 L5.44444444,14.602649 L5.44444444,18.8940397 L22.4358974,18.8940397 L22.4358974,14.602649 L22.4358974,11.6821192 C22.4358974,10.4900662 23.3931624,9.53642384 24.5897436,9.53642384 C25.7863248,9.53642384 26.7435897,10.4900662 26.7435897,11.6821192 L26.7435897,23.1854305 L1.13675214,23.1854305 Z" id="Shape"></path>
        </g>
    </g>
</svg>