<?xml version="1.0" encoding="UTF-8"?>
<svg width="60px" height="60px" viewBox="0 0 60 60" version="1.1" xmlns="http://www.w3.org/2000/svg" xmlns:xlink="http://www.w3.org/1999/xlink">
    <title>10</title>
    <g id="10" stroke="none" stroke-width="1" fill="none" fill-rule="evenodd" fill-opacity="0.85" stroke-opacity="0.85">
        <g id="iconfinder_Streamline-18_185038" transform="translate(3.000000, 4.000000)" fill="#000000" fill-rule="nonzero" stroke="#000000" stroke-width="0.2">
            <path d="M48.1257841,52 L32.0839532,52 L32.0839532,37.1048828 L22.9171927,37.1048828 L22.9171927,52 L6.87536176,52 L6.87536176,27.9386568 C6.87536176,27.3061872 7.3875545,26.7928785 8.02120682,26.7928785 C8.65485914,26.7928785 9.16705189,27.3061872 9.16705189,27.9386568 L9.16705189,49.7084435 L20.6255025,49.7084435 L20.6255025,34.8133263 L34.3756433,34.8133263 L34.3756433,49.7084435 L45.834094,49.7084435 L45.834094,29.084435 C45.834094,28.4519655 46.3462867,27.9386568 46.979939,27.9386568 C47.6135913,27.9386568 48.1257841,28.4519655 48.1257841,29.084435 L48.1257841,52 Z" id="Path"></path>
            <path d="M53.8550094,27.9389234 C53.569694,27.9389234 53.2855244,27.8332452 53.0632305,27.6212762 L27.5005729,3.17151419 L1.93791537,27.6212762 C1.48072319,28.0578177 0.755403266,28.0429226 0.317690451,27.5857571 C-0.120022364,27.1285916 -0.102834688,26.4033139 0.353211648,25.9656267 L27.5005729,0 L54.6467884,25.9644809 C55.1028347,26.4021682 55.1200224,27.1274458 54.6823095,27.5846113 C54.4577239,27.8194959 54.1575125,27.9389234 53.8550094,27.9389234 Z" id="Path"></path>
            <path d="M44.6882489,14.1893178 C44.0545966,14.1893178 43.5424038,13.6760092 43.5424038,13.0435396 L43.5424038,6.16887009 L36.6673334,6.16887009 C36.0336811,6.16887009 35.5214884,5.65556143 35.5214884,5.02309184 C35.5214884,4.39062225 36.0336811,3.87731359 36.6673334,3.87731359 L45.834094,3.87731359 L45.834094,13.0435396 C45.834094,13.6760092 45.3219012,14.1893178 44.6882489,14.1893178 Z" id="Path"></path>
        </g>
    </g>
</svg>