<?xml version="1.0" encoding="UTF-8"?>
<svg width="60px" height="60px" viewBox="0 0 60 60" version="1.1" xmlns="http://www.w3.org/2000/svg" xmlns:xlink="http://www.w3.org/1999/xlink">
    <title>12</title>
    <g id="12" stroke="none" stroke-width="1" fill="none" fill-rule="evenodd" fill-opacity="0.85">
        <g id="iconfinder_a-04_2258015" transform="translate(1.000000, 3.000000)" fill="#000000" fill-rule="nonzero">
            <path d="M54.3,9.7179483 C54.2,9.3179483 54.2,8.9179483 54.1,8.5179483 C53.3,5.2179483 51.6,2.7179483 49.1,1.3179483 C46.5,-0.182051703 43.3,-0.382051703 40.1,0.617948297 C39,0.917948297 38,1.5179483 37,2.0179483 C36.7,2.2179483 36.4,2.3179483 36.2,2.5179483 C36,2.6179483 35.8,2.6179483 35.7,2.6179483 C35.6,2.6179483 35.5,2.6179483 35.3,2.5179483 C35,2.3179483 34.7,2.2179483 34.5,2.0179483 C33.5,1.5179483 32.5,0.917948297 31.4,0.617948297 C28.2,-0.382051703 25,-0.182051703 22.4,1.3179483 C19.9,2.7179483 18.2,5.2179483 17.4,8.5179483 C17.3,8.9179483 17.2,9.3179483 17.2,9.7179483 C17.1,10.1179483 16.8,11.3179483 17,12.7179483 C17.1,17.1179483 19.2,20.9179483 23.2,24.0179483 C25,25.4179483 27,26.7179483 29,27.9179483 C29.8,28.4179483 30.6,28.9179483 31.4,29.4179483 C31.7,29.6179483 32.1,29.8179483 32.4,30.0179483 C33.1,30.4179483 33.8,30.9179483 34.4,31.3179483 C34.9,31.7179483 35.4,31.8179483 35.7,31.8179483 C35.9,31.8179483 36.1,31.8179483 36.3,31.7179483 C36.6,31.6179483 36.8,31.4179483 37,31.3179483 C37.7,30.8179483 38.3,30.4179483 39,29.9179483 C39.3,29.7179483 39.7,29.5179483 40,29.3179483 C40.8,28.8179483 41.6,28.3179483 42.4,27.8179483 C44.3,26.6179483 46.3,25.3179483 48.2,23.9179483 C52.2,20.8179483 54.3,17.0179483 54.4,12.6179483 C54.7,11.3179483 54.4,10.1179483 54.3,9.7179483 Z M52,12.5179483 L52,12.6179483 C51.9,16.3179483 50.1,19.5179483 46.7,22.1179483 C45,23.5179483 43,24.7179483 41.2,25.8179483 C40.4,26.3179483 39.6,26.8179483 38.8,27.3179483 C38.5,27.5179483 38.1,27.7179483 37.8,27.9179483 C37.1,28.3179483 36.5,28.8179483 35.8,29.2179483 C35.1,28.7179483 34.5,28.3179483 33.8,27.9179483 C33.5,27.7179483 33.1,27.5179483 32.8,27.3179483 C32,26.8179483 31.2,26.3179483 30.4,25.8179483 C28.5,24.6179483 26.6,23.4179483 24.9,22.1179483 C21.5,19.5179483 19.7,16.3179483 19.6,12.6179483 L19.6,12.5179483 C19.4,11.3179483 19.7,10.4179483 19.7,10.4179483 L19.7,10.2179483 C19.7,9.8179483 19.8,9.5179483 19.9,9.2179483 C20.5,6.6179483 21.8,4.6179483 23.7,3.6179483 C24.9,2.9179483 26.2,2.6179483 27.6,2.6179483 C28.6,2.6179483 29.6,2.8179483 30.7,3.1179483 C31.6,3.4179483 32.4,3.8179483 33.3,4.3179483 C33.6,4.5179483 33.9,4.6179483 34.2,4.8179483 C35.2,5.3179483 36.2,5.4179483 37.4,4.8179483 C37.7,4.6179483 38,4.5179483 38.3,4.3179483 C39.2,3.8179483 40,3.3179483 40.9,3.1179483 C43.5,2.3179483 45.9,2.5179483 47.9,3.6179483 C49.8,4.7179483 51.1,6.6179483 51.7,9.2179483 C51.8,9.5179483 51.8,9.9179483 51.9,10.2179483 L51.9,10.4179483 C51.9,10.4179483 52.2,11.3179483 52,12.5179483 Z" id="Shape"></path>
            <path d="M0.3,32.9179483 C0.4,33.8179483 0.5,34.6179483 0.6,35.4179483 C1.2,40.0179483 2.9,44.3179483 5.4,48.2179483 C5.7,48.7179483 6.4,49.1179483 7,49.1179483 C7.7,49.1179483 8.5,49.1179483 9.2,49.1179483 L9.5,49.1179483 C10.5,49.1179483 11.3,48.6179483 11.6,47.7179483 C12.6,48.1179483 23.6,53.0179483 24.9,53.6179483 C25,53.6179483 25.1,53.7179483 25.2,53.7179483 C26.3,54.1179483 27.5,54.4179483 28.7,54.4179483 C28.8,54.4179483 28.8,54.4179483 28.9,54.4179483 C31.1,54.3179483 33.5,53.6179483 36.4,52.2179483 C42.7,49.0179483 49.8,45.4179483 57.1,42.1179483 C58,41.7179483 58.5,41.2179483 58.7,40.5179483 C58.8,40.0179483 58.7,39.4179483 58.3,38.9179483 C57.5,37.9179483 55.9,37.5179483 53.6,38.0179483 L44.9,39.6179483 C44.3,39.7179483 43.8,40.3179483 44,41.0179483 C44.1,41.6179483 44.7,42.1179483 45.4,41.9179483 L54,40.3179483 C54.8,40.2179483 55.3,40.1179483 55.7,40.2179483 C48.4,43.5179483 41.4,47.1179483 35.2,50.2179483 C32.6,51.5179483 30.6,52.1179483 28.7,52.2179483 C27.1,52.3179483 25.6,51.6179483 24.3,51.0179483 C24.2,50.9179483 24.1,50.9179483 23.9,50.9179483 C20,49.2179483 11.7,45.5179483 10.8,45.1179483 L9.1,44.4179483 L9.2,46.8179483 C9.2,46.8179483 9.2,46.8179483 9.2,46.9179483 C9.2,46.9179483 9.2,46.9179483 9.1,46.9179483 L8.8,46.9179483 C8.2,46.9179483 7.6,46.9179483 7,46.9179483 C4.7,43.3179483 3.3,39.4179483 2.7,35.3179483 C2.6,34.5179483 2.5,33.7179483 2.4,33.0179483 L8.6,32.9179483 C8.6,32.9179483 8.7,32.9179483 8.7,32.9179483 C8.7,32.9179483 8.7,33.0179483 8.7,33.0179483 L8.8,35.4179483 L10.4,34.8179483 C11.8,34.2179483 13.3,33.9179483 14.9,33.9179483 C16.8,33.8179483 18.8,34.4179483 20.7,35.4179483 C21.5,35.8179483 22.2,36.4179483 23,37.0179483 C23.7,37.6179483 24.5,38.2179483 25.4,38.7179483 C28.3,40.4179483 31.5,40.9179483 35.8,40.3179483 C37.9,40.0179483 39.3,40.2179483 39.7,40.6179483 C39.7,40.6179483 39.8,40.7179483 39.7,40.9179483 C39.6,41.8179483 37.1,42.2179483 36.1,42.3179483 L35.7,42.4179483 C33.8,42.7179483 31,43.2179483 28.4,43.0179483 L24.5,42.7179483 C23.9,42.6179483 23.3,43.1179483 23.2,43.8179483 C23.2,44.4179483 23.6,45.0179483 24.3,45.1179483 C27.8,45.4179483 28.2,45.4179483 28.2,45.4179483 C28.2,45.4179483 28.2,45.4179483 28.2,45.4179483 C31.1,45.6179483 34.1,45.2179483 36.1,44.8179483 L36.5,44.7179483 C38.3,44.4179483 41.6,43.9179483 42,41.3179483 C42.2,40.1179483 41.7,39.4179483 41.3,39.0179483 C39.9,37.6179483 37,37.8179483 35.4,38.0179483 C31.7,38.5179483 29,38.1179483 26.6,36.7179483 C25.9,36.3179483 25.2,35.7179483 24.5,35.2179483 C23.6,34.5179483 22.8,33.9179483 21.9,33.4179483 C19.6,32.2179483 17.2,31.6179483 14.9,31.6179483 C13.6,31.6179483 12.3,31.8179483 11.1,32.2179483 C10.8,31.2179483 9.9,30.6179483 8.7,30.7179483 L1.8,30.9179483 C1.7,30.9179483 1.6,30.9179483 1.4,30.9179483 L0,31.0179483 L0.2,31.8179483 C0.2,32.2179483 0.3,32.5179483 0.3,32.9179483 Z" id="Path"></path>
        </g>
    </g>
</svg>