<?xml version="1.0" encoding="UTF-8"?>
<svg width="60px" height="60px" viewBox="0 0 60 60" version="1.1" xmlns="http://www.w3.org/2000/svg" xmlns:xlink="http://www.w3.org/1999/xlink">
    <title>14</title>
    <g id="14" stroke="none" stroke-width="1" fill="none" fill-rule="evenodd" fill-opacity="0.85">
        <g id="iconfinder_75_car_quality_repairing_service_bedge_star_award_1320988" transform="translate(11.000000, 2.000000)" fill="#000000" fill-rule="nonzero">
            <path d="M19.1150234,0 C8.71625661,0 0.230070738,8.02263268 0.230047132,17.9268871 C0.230058935,22.8223087 2.30850263,27.2497314 5.6613213,30.4842393 L0.0364024705,52.258695 C-0.0799659223,52.7046915 0.0880418141,53.1752859 0.463430975,53.454814 C0.838820136,53.7343421 1.34923528,53.7689254 1.760763,53.5427151 L8.71353246,49.7355524 L12.7939055,56.4340025 C13.0371948,56.8360922 13.5060053,57.0550308 13.9803148,56.9880661 C14.4546244,56.9211014 14.840274,56.5815272 14.9562707,56.1287124 L18.999759,40.4870193 L23.0432473,56.1287124 C23.159244,56.5815272 23.5448936,56.9211014 24.0192032,56.9880661 C24.4935127,57.0550308 24.9623232,56.8360922 25.2056125,56.4340025 L29.2859855,49.7355524 L36.238754,53.5427151 C36.6502818,53.7689259 37.1606973,53.7343428 37.5360867,53.4548146 C37.9114761,53.1752864 38.0794839,52.7046917 37.9631153,52.258695 L32.384302,30.6638225 C35.8469238,27.4150261 38,22.9127381 38,17.9268871 C38,8.02263268 29.5137903,0 19.1150234,0 Z M19.1150234,2.29866425 C28.2722565,2.29866425 35.6393779,9.29931081 35.6393779,17.9268871 C35.6393779,26.5542338 28.2722565,33.55511 19.1150234,33.55511 C9.95779038,33.55511 2.5906692,26.5542338 2.5906692,17.9268871 C2.5906692,9.29931081 9.95779038,2.29866425 19.1150234,2.29866425 Z M19.0458643,10.6762178 C18.6799077,10.6956905 18.3435324,10.8726979 18.1329669,11.1566028 L15.6939651,14.4384848 L11.6412562,15.6282229 C11.2716583,15.7379329 10.9809729,16.0100515 10.86105,16.3585953 C10.7411271,16.7071391 10.8067822,17.0890483 11.0372698,17.3836484 L13.5730949,20.6026771 L13.5131563,24.6163587 C13.5096137,24.9252808 13.6395181,25.2221778 13.8727942,25.4383125 C14.1060703,25.6544471 14.4224898,25.7710775 14.7487956,25.7612015 C14.8682575,25.7569204 14.9863685,25.7357347 15.0991993,25.6983491 L19.1150234,24.4053505 L23.1262373,25.6983491 C23.4938674,25.8177293 23.8998584,25.7608324 24.2151441,25.545746 C24.5304299,25.3306597 24.7157835,24.9841444 24.7122803,24.6163587 L24.656952,20.6026771 L27.1927771,17.3836484 C27.4231458,17.0884518 27.4881833,16.7059628 27.3672977,16.3572825 C27.2464121,16.0086022 26.9545729,15.7369083 26.5841804,15.6282229 L22.5360818,14.4384848 L20.0924697,11.1566028 C19.854746,10.8361084 19.4590109,10.6544686 19.0458643,10.6762178 Z M19.1150234,13.7740272 L20.8163309,16.0547331 C20.9678971,16.2594284 21.1867303,16.4109587 21.4387608,16.4857327 L24.260443,17.3163044 L22.4899765,19.552114 C22.3319064,19.751369 22.2476423,19.9943699 22.2502246,20.2435108 L22.2963299,23.036027 L19.5023142,22.1381113 C19.2512516,22.0569052 18.9787977,22.0569052 18.7277351,22.1381113 L15.933717,23.036027 L15.9798223,20.2435108 C15.9810791,19.9938649 15.8951778,19.7508141 15.7354625,19.552114 L13.9649959,17.3163044 L16.7912861,16.4857327 C17.0416236,16.4101097 17.2587215,16.2586592 17.4091057,16.0547331 L19.1150234,13.7740272 Z M7.66692942,32.1498721 C10.515688,34.219863 13.9919259,35.5329588 17.7779529,35.7864302 L13.3656174,52.8602991 L10.1566468,47.5985118 C9.8303031,47.062504 9.12478523,46.8773132 8.56599358,47.1809825 L2.99179059,50.2294043 L7.66692942,32.1498721 Z M30.3694733,32.2890494 L35.0077274,50.2294043 L29.4335244,47.1809825 C28.8747328,46.8773132 28.1692149,47.062504 27.8428712,47.5985118 L24.6339005,52.8602991 L20.2261753,35.7999004 C24.013581,35.5892554 27.5001324,34.3193928 30.3694733,32.2890494 Z" id="path5694"></path>
        </g>
    </g>
</svg>