<?xml version="1.0" encoding="UTF-8"?>
<svg width="60px" height="60px" viewBox="0 0 60 60" version="1.1" xmlns="http://www.w3.org/2000/svg" xmlns:xlink="http://www.w3.org/1999/xlink">
    <title>4</title>
    <g id="4" stroke="none" stroke-width="1" fill="none" fill-rule="evenodd" fill-opacity="0.85">
        <g id="iconfinder_resume_cv_job_search_4118864" transform="translate(12.000000, 7.000000)" fill="#000000" fill-rule="nonzero" stroke="#FFFFFF" stroke-width="0.3">
            <path d="M12.71875,25.3 L24.28125,25.3 C24.9198292,25.3 25.4375,24.7851275 25.4375,24.15 C25.4313356,21.9207602 24.1290639,19.8963264 22.0966312,18.956485 C22.7575715,18.1491949 23.1205081,17.1410713 23.125,16.1 C23.125,13.5594902 21.054317,11.5 18.5,11.5 C15.945683,11.5 13.875,13.5594902 13.875,16.1 C13.8794919,17.1410713 14.2424285,18.1491949 14.9033687,18.956485 C12.8709361,19.8963264 11.5686644,21.9207602 11.5625,24.15 C11.5625,24.7851275 12.0801708,25.3 12.71875,25.3 Z M18.5,13.8 C19.7771585,13.8 20.8125,14.8297451 20.8125,16.1 C20.8125,17.3702549 19.7771585,18.4 18.5,18.4 C17.2228415,18.4 16.1875,17.3702549 16.1875,16.1 C16.1892197,14.8304542 17.2235545,13.8017104 18.5,13.8 Z M17.34375,20.7 L19.65625,20.7 C21.1258513,20.7018032 22.4355099,21.6226468 22.9273969,23 L14.0726031,23 C14.5644901,21.6226468 15.8741487,20.7018032 17.34375,20.7 L17.34375,20.7 Z" id="Shape"></path>
            <path d="M35.84375,2.3 L25.4375,2.3 L25.4375,1.15 C25.4375,0.514872538 24.9198292,0 24.28125,0 L12.71875,0 C12.0801708,0 11.5625,0.514872538 11.5625,1.15 L11.5625,2.3 L1.15625,2.3 C0.517670758,2.3 0,2.81487254 0,3.45 L0,44.85 C0,45.4851275 0.517670758,46 1.15625,46 L35.84375,46 C36.4823292,46 37,45.4851275 37,44.85 L37,3.45 C37,2.81487254 36.4823292,2.3 35.84375,2.3 Z M13.875,2.3 L23.125,2.3 L23.125,4.6 L13.875,4.6 L13.875,2.3 Z M34.6875,43.7 L2.3125,43.7 L2.3125,4.6 L11.5625,4.6 L11.5625,5.75 C11.5625,6.38512746 12.0801708,6.9 12.71875,6.9 L24.28125,6.9 C24.9198292,6.9 25.4375,6.38512746 25.4375,5.75 L25.4375,4.6 L34.6875,4.6 L34.6875,43.7 Z" id="Shape"></path>
            <path d="M6.9375,31.05 C6.9375,31.6851275 7.45517076,32.2 8.09375,32.2 L28.90625,32.2 C29.5448292,32.2 30.0625,31.6851275 30.0625,31.05 C30.0625,30.4148725 29.5448292,29.9 28.90625,29.9 L8.09375,29.9 C7.45517076,29.9 6.9375,30.4148725 6.9375,31.05 Z" id="Path"></path>
            <path d="M28.90625,36.8 L8.09375,36.8 C7.45517076,36.8 6.9375,37.3148725 6.9375,37.95 C6.9375,38.5851275 7.45517076,39.1 8.09375,39.1 L28.90625,39.1 C29.5448292,39.1 30.0625,38.5851275 30.0625,37.95 C30.0625,37.3148725 29.5448292,36.8 28.90625,36.8 Z" id="Path"></path>
        </g>
    </g>
</svg>