<?xml version="1.0" encoding="UTF-8"?>
<svg width="60px" height="60px" viewBox="0 0 60 60" version="1.1" xmlns="http://www.w3.org/2000/svg" xmlns:xlink="http://www.w3.org/1999/xlink">
    <title>usa</title>
    <g id="usa" stroke="none" stroke-width="1" fill="none" fill-rule="evenodd" stroke-linecap="round" stroke-linejoin="round">
        <g id="iconfinder_v-05_1781732" transform="translate(7.000000, 1.000000)" stroke="#000000" stroke-width="1.4">
            <path d="M8.02897551,8.88332401 C8.02897551,8.88332401 5.56950673,6.076385 9.26664367,2.74314494 C9.26664367,2.74314494 8.52086927,4.25825406 9.64746464,4.30609961 C10.77406,4.35394516 11.6785098,2.1530498 11.4246292,0 C11.4246292,0 15.6136599,4.80050364 12.329079,8.89927252" id="Path"></path>
            <polyline id="Path" points="13.5350121 8.88332401 13.0113832 11.5626749 7.21973094 11.5626749 6.6961021 8.88332401 13.5350121 8.88332401"></polyline>
            <g id="Group" transform="translate(7.665785, 13.460548)">
                <path d="M2.9972021,0 C2.9972021,0 4.20313518,0.558198097 3.37802307,1.59485171 C3.37802307,1.59485171 4.40941321,2.82288752 3.37802307,3.38108562 C3.37802307,3.38108562 4.15553256,4.29015109 3.37802307,5.10352546 L0.458395615,5.10352546 C-0.319113871,4.29015109 0.458395615,3.38108562 0.458395615,3.38108562 C-0.572994519,2.82288752 0.458395615,1.59485171 0.458395615,1.59485171 C-0.382584033,0.558198097 0.839216588,0 0.839216588,0 L2.9972021,0 L2.9972021,0 Z" id="Path"></path>
                <line x1="0.442528075" y1="1.59485171" x2="3.36215553" y2="1.59485171" id="Path"></line>
                <line x1="0.442528075" y1="3.3651371" x2="3.36215553" y2="3.3651371" id="Path"></line>
            </g>
            <line x1="8.48913418" y1="13.4605484" x2="8.48913418" y2="11.5626749" id="Path"></line>
            <polyline id="Path" points="8.48913418 18.5640739 8.48913418 21.4507555 11.5991721 21.4507555 11.5991721 11.5626749"></polyline>
            <path d="M8.47326664,21.4507555 C8.47326664,21.4507555 8.83822008,22.3438724 9.56812694,22.8063794 C9.56812694,22.8063794 9.07623318,26.6659205 9.10796826,31.2909905 C9.13970335,35.3578623 9.21904105,37.0005596 10.7581925,39.5682708 C10.7581925,39.5682708 13.2652639,37.2557359 13.5667472,35.533296 C13.884098,33.8108562 13.2811314,28.6116396 12.4401518,24.9115837 C12.4401518,24.8956351 12.4401518,24.8956351 12.4242842,24.8796866 C12.4084167,24.768047 12.3925492,24.6723559 12.3608141,24.5607163 C11.6785098,21.2274762 12.6464298,21.1317851 13.2176613,19.8080582 C13.8047603,18.4364857 14.1538462,15.9804141 13.5667472,15.0554001 C12.9955157,14.1144376 11.5991721,13.9071069 11.5991721,13.9071069" id="Path"></path>
            <path d="M9.28251121,35.4376049 C9.28251121,35.4376049 8.09244567,38.0212647 8.15591583,40.3656967 C8.219386,42.7101287 9.4729217,43.1726357 10.7105899,43.0769446 C11.9641256,42.9812535 14.2807865,40.7484611 15.3121766,39.5682708" id="Path"></path>
            <path d="M10.0758882,38.3242865 C10.0758882,38.3242865 9.37771645,40.2062115 10.2345636,40.8122552" id="Path"></path>
            <path d="M13.1383236,36.6496922 C13.1859262,36.5540011 14.9948258,33.3802462 14.9948258,33.3802462" id="Path"></path>
            <polyline id="Path" points="10.0282856 43.0769446 9.80614005 44.5920537 11.9323905 47.1757135"></polyline>
            <path d="M15.2963091,43.5872971 C15.2963091,43.5872971 11.3135564,48.2602126 11.361159,49.2330722 C11.4087616,50.2059317 11.5991721,51.0352546 12.535357,52.0559597" id="Path"></path>
            <line x1="21.6433253" y1="51.7050923" x2="15.3280442" y2="55.6762731" id="Path"></line>
            <path d="M11.1231459,53.6827084 C11.1390135,53.6667599 11.154881,53.6508114 11.154881,53.6189144 C11.7737151,52.4387241 14.9948258,50.0145495 19.8502932,47.3192501 C22.2780269,45.9955232 24.1979993,45.1343033 25.8006209,44.815333 C27.2286996,44.5601567 30.0689893,45.0545607 31.2114522,45.27784 C31.528803,45.341634 31.703346,45.3735311 31.703346,45.3735311" id="Path"></path>
            <path d="M26.9748189,56.6491326 C27.212832,53.1404589 28.0379441,44.815333 28.0379441,44.815333 C24.7850983,46.9205372 21.2783719,52.5025182 18.0572611,56.4577504" id="Path"></path>
            <path d="M32.4808555,47.0162283 C32.4808555,47.0162283 35.813039,52.5025182 36.0034495,52.6460548" id="Path"></path>
            <path d="M31.2273198,45.27784 C31.2273198,45.27784 31.2590548,49.1533296 31.0210417,49.8391158 C30.7830286,50.5089536 30.2593998,50.4451595 30.2593998,52.0559597 C30.2593998,53.2839955 30.2276647,54.7512591 29.7199034,56.0111919" id="Path"></path>
            <path d="M33.4170404,54.5120313 L32.7506037,48.116676 C32.6871335,47.7179631 32.5919283,47.3670957 32.4808555,47.0481253 C32.496723,47.0321768 32.4808555,47.0321768 32.4808555,47.0321768 C32.3063125,46.3942361 32.0365643,45.8519866 31.7192135,45.3894796 C30.32287,43.2842753 27.9110038,42.7101287 25.8164884,42.470901 C23.0079338,42.1519306 22.896861,41.2588137 21.5322525,40.158366 C20.167644,39.0579183 16.2959641,36.3307219 16.2959641,36.3307219 C16.2166264,32.5668719 13.5191445,31.9289312 13.5191445,31.9289312" id="Path"></path>
            <g id="Group" transform="translate(12.535357, 19.329603)">
                <g id="Path">
                    <path d="M11.4563643,19.9675434 C15.3597792,19.5688304 15.3280483,14.1303861 15.3280483,14.1303861 C15.2963091,13.7157247 14.8520179,13.1894236 13.4080717,12.5355344 C11.948258,11.8816452 11.6943774,10.8130946 11.6943774,10.8130946 C11.6943774,10.8130946 10.8692653,12.0570789 9.82200759,12.3919978 C8.75888237,12.7269166 7.632287,13.077784 7.61641133,14.1303861 C7.61641133,14.1303861 7.58468437,19.6964186 11.4880993,19.9675434"></path>
                    <path d="M14.3442566,23.0137101 C14.3442566,23.0137101 14.8202829,21.0520425 16.3594343,19.9037493 C17.4225595,19.1063234 17.5336323,17.5114717 16.7243877,15.6933408 C16.7243877,15.6933408 17.7557779,10.7493005 11.8689203,9.84023503 C11.8689203,9.84023503 7.01345291,10.0635143 6.41048637,13.8911584 C6.26767851,14.8002238 6.41048637,15.9804141 6.41048637,15.9804141 C5.53777165,16.6343033 5.18868575,17.4795747 5.18868575,17.4795747"></path>
                    <path d="M6.37875129,14.3696407 C6.37875129,14.3855624 5.20455329,7.2884723 11.8371852,7.43200895 C17.8509831,7.55959709 16.7561228,14.0984891 16.7561228,14.0984891"></path>
                    <g transform="translate(13.281131, 1.052602)">
                        <polyline points="3.28458089 9.69669838 9.85374267 4.60912143 2.57054157 8.11779519"></polyline>
                        <polyline points="1.41221111 7.1927812 4.696792 0 0 6.41130386"></polyline>
                    </g>
                    <g transform="translate(0.000000, 1.052602)">
                        <line x1="7.01345291" y1="8.11779519" x2="0" y2="4.60912143"></line>
                        <line x1="6.31528113" y1="9.69669838" x2="0.0476026216" y2="4.89619474"></line>
                        <polyline points="8.18765091 7.1927812 4.90307002 0 9.59986202 6.41130386"></polyline>
                    </g>
                    <polyline points="12.154536 7.44795747 11.3135564 0 10.361504 7.54364857"></polyline>
                </g>
                <line x1="13.6460849" y1="18.9627868" x2="13.6460849" y2="22.8382764" id="Path"></line>
                <line x1="9.18730597" y1="18.9627868" x2="9.18730597" y2="20.6692781" id="Path"></line>
                <path d="M16.9306657,19.2658086 C16.9306657,19.2658086 17.8351156,21.466704 17.4701621,24.2576945" id="Path"></path>
            </g>
            <path d="M11.5515695,13.8433128 C14.9313556,11.8975937 18.8347706,10.7811975 23.0079338,10.7811975 C35.7019662,10.7811975 46,21.1317851 46,33.9065473 C46,42.9015109 40.8747844,50.6843872 33.4011728,54.5279799 C32.2111073,55.118075 30.9893067,55.6284275 29.7040359,56.0111919 C28.8154536,56.2823167 27.8951363,56.505596 26.9589514,56.6491326 C25.6736806,56.8883604 24.3566747,57 23.0079338,57 C21.2942394,57 19.6440152,56.8086178 18.0413936,56.4577504 C17.1052087,56.2663682 16.1848913,56.0111919 15.3121766,55.6762731 C13.8364953,55.1659205 12.4242842,54.4801343 11.1072784,53.6827084 C4.45877889,49.6317851 0,42.2954673 0,33.9065473 C0,27.0008394 3.0148327,20.8128148 7.77509486,16.5705092" id="Path"></path>
        </g>
    </g>
</svg>