<?xml version="1.0" encoding="UTF-8"?>
<svg width="31px" height="31px" viewBox="0 0 31 31" version="1.1" xmlns="http://www.w3.org/2000/svg" xmlns:xlink="http://www.w3.org/1999/xlink">
    <title>mail</title>
    <g id="mail" stroke="none" stroke-width="1" fill="none" fill-rule="evenodd">
        <g id="iconfinder_mail_email_gmail_letter_envelope_letters_message_4831019" transform="translate(3.000000, 6.000000)" fill="#333333" fill-rule="nonzero" stroke="#333333" stroke-width="0.4">
            <path d="M22.5,19 L2.5,19 C1.11928813,19 0,17.8807119 0,16.5 L0,2.5 C0,1.11928813 1.11928813,0 2.5,0 L22.5,0 C23.8807119,0 25,1.11928813 25,2.5 L25,16.5 C25,17.8807119 23.8807119,19 22.5,19 L22.5,19 Z M2.5,1 C1.67157288,1 1,1.67157288 1,2.5 L1,16.5 C1,17.3284271 1.67157288,18 2.5,18 L22.5,18 C23.3284271,18 24,17.3284271 24,16.5 L24,2.5 C24,1.67157288 23.3284271,1 22.5,1 L2.5,1 Z" id="Shape"></path>
            <path d="M12.5,11.86 C11.940718,11.8591691 11.403353,11.6424318 11,11.255 L1.155,1.86 C0.97996654,1.66537216 0.984666888,1.3686893 1.16577794,1.17970386 C1.34688898,0.990718414 1.64310343,0.973403229 1.845,1.14 L11.69,10.535 C12.1426775,10.9693002 12.8573225,10.9693002 13.31,10.535 L23.155,1.14 C23.3568966,0.973403229 23.653111,0.990718414 23.8342221,1.17970386 C24.0153331,1.3686893 24.0200335,1.66537216 23.845,1.86 L14,11.255 C13.596647,11.6424318 13.059282,11.8591691 12.5,11.86 Z" id="Path"></path>
        </g>
    </g>
</svg>