<?xml version="1.0" encoding="UTF-8"?>
<svg width="32px" height="32px" viewBox="0 0 32 32" version="1.1" xmlns="http://www.w3.org/2000/svg" xmlns:xlink="http://www.w3.org/1999/xlink">
    <title>2</title>
    <g id="2" stroke="none" stroke-width="1" fill="none" fill-rule="evenodd" opacity="0.85">
        <g id="iconfinder_music_notes_quaver_songs_sound_2750353" transform="translate(3.000000, 4.000000)" fill="#000000" fill-rule="nonzero" stroke="#000000" stroke-width="0.3">
            <path d="M9.10002131,0 L9.10002131,14.5101691 C8.14715257,13.4483867 6.75356148,12.7777778 5.20001218,12.7777778 C2.32831459,12.7777778 0,15.0662868 0,17.8888889 C0,20.711491 2.32831459,23 5.20001218,23 C8.07170977,23 10.4000244,20.711491 10.4000244,17.8888889 L10.4000244,5.11111111 L24.7000578,5.11111111 L24.7000578,14.5101093 C23.7471282,13.4483268 22.3535371,12.7777179 20.7999878,12.7777179 C17.9282902,12.7777179 15.5999756,15.0662269 15.5999756,17.888829 C15.5999756,20.7114312 17.9282902,23 20.7999878,23 C23.6716854,23 26,20.7114312 26,17.888829 L26,0 L9.10002131,0 Z M5.20001218,21.7222821 C3.04943571,21.7222821 1.30000304,20.0027583 1.30000304,17.8888889 C1.30000304,15.7751392 3.04943571,14.0555556 5.20001218,14.0555556 C7.35058864,14.0555556 9.10002131,15.7750794 9.10002131,17.8888889 C9.10002131,20.0026984 7.35058864,21.7222821 5.20001218,21.7222821 Z M20.8000487,21.7222821 C18.6495331,21.7222821 16.9000396,20.0027583 16.9000396,17.8888889 C16.9000396,15.7751392 18.6494722,14.0555556 20.8000487,14.0555556 C22.9506252,14.0555556 24.7001187,15.7750794 24.7001187,17.8888889 C24.7001187,20.0026984 22.9506252,21.7222821 20.8000487,21.7222821 Z M10.4000244,3.83333333 L10.4000244,1.27777778 L24.7000578,1.27777778 L24.7000578,3.83333333 L10.4000244,3.83333333 Z" id="Shape"></path>
        </g>
    </g>
</svg>