<?xml version="1.0" encoding="UTF-8"?>
<svg width="90px" height="90px" viewBox="0 0 90 90" version="1.1" xmlns="http://www.w3.org/2000/svg" xmlns:xlink="http://www.w3.org/1999/xlink">
    <title>js</title>
    <g id="js" stroke="none" stroke-width="1" fill="none" fill-rule="evenodd">
        <g id="javascript-seeklogo.com" transform="translate(20.000000, 16.000000)" fill-rule="nonzero">
            <path d="M4.73400936,52.1482498 L0,0 L51,0.0199039121 L46.3057722,52.108442 L25.4602184,58 L4.73400936,52.1482498 Z M42.4668487,49.3019904 L46.425117,4.63761153 L25.5397816,4.63761153 L25.698908,53.8997941 L42.4668487,49.3019904 L42.4668487,49.3019904 Z M23.5904836,11.1859986 L18.5183307,11.1859986 L18.4586583,37.9169526 L8.61271451,35.2299245 L8.6326053,41.3404255 L23.5904836,45.3809197 L23.5904836,11.1859986 Z" id="path5113" fill="#D4B830"></path>
            <path d="M21.9196568,44.8833219 C21.2632605,44.6842828 18.0210608,43.8085106 14.7191888,42.9128346 L8.73205928,41.3006177 L8.73205928,38.295127 C8.73205928,35.349348 8.73205928,35.2896362 9.03042122,35.3891558 C9.18954758,35.4488675 11.3775351,36.0459849 13.8837754,36.7426218 L18.4387676,37.9965683 L18.4785491,24.6609472 L18.5183307,11.325326 L23.4910296,11.325326 L23.4910296,28.2834592 C23.4910296,41.7584077 23.451248,45.2415923 23.3120125,45.2415923 C23.2125585,45.2216884 22.576053,45.0624571 21.9196568,44.8833219 L21.9196568,44.8833219 Z" id="path5159" fill-opacity="0" fill="#EBEBEB" opacity="0.986"></path>
            <path d="M8.6326053,41.3404255 L8.61271451,35.2299245 C8.61271451,35.2299245 14.8982059,37.0013727 18.4586583,37.9169526 L18.5183307,11.2059025 L23.5904836,11.2059025 L23.5904836,45.3809197 L8.6326053,41.3404255 Z" id="path5157" fill-opacity="0.9216" fill="#EBEBEB" opacity="0.986"></path>
            <path d="M25.5397816,4.61770762 L46.425117,4.61770762 L42.4668487,49.2820865 L25.5397816,53.8798902 L25.5397816,4.61770762 Z M41.3927457,41.7982155 L42.7652106,25.0988332 L32.6209048,26.2333562 L32.6209048,17.3164036 L43.4414977,17.2765957 L43.8790952,11.1859986 L27.548752,11.2656143 L27.7675507,33.4385724 L37.6333853,31.7467399 L37.4941498,36.6829101 L27.548752,39.3301304 L27.6482059,45.3809197 L41.3927457,41.7982155 Z" id="path5117" fill="#FDD83C"></path>
        </g>
        <rect id="Rectangle" x="0" y="0" width="90" height="90"></rect>
    </g>
</svg>