<?xml version="1.0" encoding="UTF-8"?>
<svg width="32px" height="32px" viewBox="0 0 32 32" version="1.1" xmlns="http://www.w3.org/2000/svg" xmlns:xlink="http://www.w3.org/1999/xlink">
    <title>2</title>
    <g id="2" stroke="none" stroke-width="1" fill="none" fill-rule="evenodd" stroke-opacity="0.85">
        <g id="iconfinder_work_diy_tools_repair_2856228" transform="translate(1.000000, 5.000000)" stroke="#000000" stroke-width="1.36363636">
            <line x1="14.0988219" y1="10.2630231" x2="10.303136" y2="6.54207679" id="Path"></line>
            <path d="M18.0388087,19.9323243 L21.5682615,23.3927399 C22.2511692,24.0621233 23.3674183,24.0621233 24.0498874,23.3927399 L24.5314755,22.9206891 C25.2135059,22.2517356 25.2135059,21.1571627 24.5314755,20.489069 L21.0011455,17.0286535" id="Path"></path>
            <line x1="7.33992208" y1="9.44617754" x2="11.1364851" y2="13.1671238" id="Path"></line>
            <path d="M0.237156089,7.81764554 L3.97757775,11.4818425 C4.33460205,11.8317964 4.97057899,11.7814959 5.39032378,11.3700637 L15.8142052,1.15347592 C16.2348272,0.740753981 16.6383436,0.352537404 16.3120217,0.0765296049 C16.3120217,0.0765296049 16.1431588,-0.0335295798 15.9966648,0.0103221266 C15.8501708,0.0550336703 10.4842798,1.4449608 10.4842798,1.4449608 C9.56145534,1.67582713 8.79477417,1.52277608 8.36845031,1.25063755 L7.27281554,0.598880813 C7.27281554,0.598880813 7.094742,0.454858052 6.72806839,0.492260978 C6.3530613,0.529663904 6.01358119,0.882627149 6.01358119,0.882627149 L0.352509149,6.43244752 C-0.0676742411,6.84344979 -0.119868211,7.46683189 0.237156089,7.81764554 Z" id="Path"></path>
            <g id="Group" transform="translate(6.997810, 1.451839)">
                <polyline id="Path" points="13.9809663 7.32323497 17.4411195 3.9311765 17.2687478 2.4036754 21.2933854 0 23.0021897 1.67496322 20.5512661 5.62118687 18.9924647 5.45179891 14.3809739 9.97282386"></polyline>
                <line x1="11.5462711" y1="11.2307659" x2="3.14348054" y2="19.4662884" id="Path" stroke-linecap="round" stroke-linejoin="round"></line>
                <path d="M4.57508658,21.9838922 C3.80752819,22.7362499 2.55180267,22.7362499 1.78336708,21.9838922 L0.576326695,20.7998962 C-0.192108898,20.0475384 -0.192108898,18.8166812 0.576326695,18.0643235 L10.1151037,8.71359201 C10.8826621,7.96123431 12.1383876,7.96123431 12.905946,8.71359201 L14.1138636,9.89758809 C14.881422,10.6499458 14.881422,11.880803 14.1138636,12.6331607 L4.57508658,21.9838922 Z" id="Path" stroke-linejoin="round"></path>
            </g>
        </g>
    </g>
</svg>