<?xml version="1.0" encoding="UTF-8"?>
<svg width="32px" height="32px" viewBox="0 0 32 32" version="1.1" xmlns="http://www.w3.org/2000/svg" xmlns:xlink="http://www.w3.org/1999/xlink">
    <title>3</title>
    <g id="3" stroke="none" stroke-width="1" fill="none" fill-rule="evenodd">
        <g id="iconfinder_1967981_24-hours_24_7_clock_delivery_non-stop_icon">
            <rect id="Rectangle" x="0" y="0" width="33" height="33"></rect>
            <g id="_200639160" transform="translate(2.319764, 2.310141)">
                <path d="M14.3438275,13.0003765 L22.3839476,7.1474907 C22.6130736,6.98060994 22.9342886,7.03116141 23.1011694,7.26028747 C23.2680501,7.48941354 23.2174987,7.81062854 22.9883726,7.9775093 L14.9482526,13.8303951 C14.9081768,13.4592377 14.6712549,13.1469149 14.3438275,13.0003765 L14.3438275,13.0003765 Z" id="_203966600" fill-opacity="0.85" fill="#000000" fill-rule="nonzero"></path>
                <path d="M12.8923304,13.9751063 L6.99449637,10.9647967 C6.74088634,10.8357991 6.63990521,10.525547 6.76890282,10.271937 C6.89790043,10.018327 7.20815246,9.91734585 7.46176249,10.0463435 L13.3784771,13.0662761 C13.0862531,13.2483832 12.8917213,13.5725217 12.8917213,13.9422174 L12.8923304,13.9751063 L12.8923304,13.9751063 Z" id="_203968280" fill-opacity="0.85" fill="#000000" fill-rule="nonzero"></path>
                <circle id="_200346272" fill-opacity="0.85" fill="#000000" cx="14.0163393" cy="2.16999801" r="1"></circle>
                <circle id="_203669832" fill-opacity="0.85" fill="#000000" cx="2.15672063" cy="14.0420413" r="1"></circle>
                <path d="M20.4629917,27.0723224 L20.4629917,28.3795956 L13.1430169,28.3795956 C13.1327848,28.0521682 13.1843108,27.737531 13.3003964,27.4359275 C13.4860361,26.9357725 13.7850815,26.4458496 14.1949748,25.9611645 C14.6075478,25.4789157 15.2005227,24.9194388 15.9740211,24.2851701 C17.1781206,23.2976502 17.9929128,22.5164777 18.415718,21.9389728 C18.838645,21.3639041 19.0499867,20.8173392 19.0499867,20.3042722 C19.0499867,19.7653814 18.856673,19.3116363 18.4724818,18.940357 C18.0857326,18.5716358 17.5828978,18.3859962 16.964099,18.3859962 C16.3092443,18.3859962 15.7858234,18.5819897 15.3939582,18.976413 C14.9994131,19.3682783 14.8009833,19.912407 14.7957455,20.6058757 L13.3983323,20.464088 C13.4937101,19.419926 13.8546355,18.6257198 14.478672,18.0791549 C15.1025868,17.5325899 15.9430811,17.2592465 16.995039,17.2592465 C18.0573507,17.2592465 18.8978451,17.555734 19.5166438,18.1435928 C20.1381223,18.7340096 20.4475217,19.4637779 20.4475217,20.3352122 C20.4475217,20.7787252 20.3572599,21.2144423 20.1741783,21.6423636 C19.9936548,22.0704066 19.6920513,22.5215937 19.2718041,22.9934887 C18.8514352,23.4678198 18.1527286,24.1175585 17.1755625,24.9427046 C16.3607703,25.6284993 15.8374712,26.0925983 15.6054217,26.3375598 C15.3733722,26.5799632 15.1824947,26.8248029 15.030353,27.0723224 L20.4629917,27.0723224 L20.4629917,27.0723224 Z" id="_200348072" fill-opacity="0.85" fill="#000000" fill-rule="nonzero"></path>
                <path d="M25.5036432,28.3795956 L25.5036432,25.729115 L20.7002791,25.729115 L20.7002791,24.4811636 L25.7537208,17.3056564 L26.8650004,17.3056564 L26.8650004,24.4811636 L28.3604713,24.4811636 L28.3604713,25.729115 L26.8650004,25.729115 L26.8650004,28.3795956 L25.5036432,28.3795956 Z M25.5036432,24.4811636 L25.5036432,19.48948 L22.0383704,24.4811636 L25.5036432,24.4811636 Z" id="_2003480721" fill-opacity="0.85" fill="#000000" fill-rule="nonzero"></path>
                <path d="M13.9230931,12.3950988 C14.3501617,12.3950988 14.7369109,12.5684355 15.016832,12.8483567 C15.2967532,13.1282778 15.4700899,13.5151488 15.4700899,13.9422174 C15.4700899,14.3690423 15.2967532,14.7560352 15.016832,15.0359563 C14.7369109,15.3158775 14.3499181,15.4892142 13.9230931,15.4892142 C13.4960245,15.4892142 13.1091535,15.3158775 12.8292324,15.0359563 C12.5493112,14.7560352 12.3759745,14.369286 12.3759745,13.9422174 C12.3759745,13.5151488 12.5493112,13.1282778 12.8292324,12.8483567 C13.1091535,12.5684355 13.4960245,12.3950988 13.9230931,12.3950988 Z" id="_200647176" fill-opacity="0.85" fill="#000000" fill-rule="nonzero"></path>
                <path d="M9.73475151,27.1999801 C3.9417966,25.3726967 0,19.99804 0,13.9229713 C0,6.23476258 6.23476258,0 13.9229713,0 C21.61118,0 27.8459426,6.23476258 27.8459426,13.9229713" id="_200640960" stroke-opacity="0.85" stroke="#000000" stroke-width="1.5" stroke-linecap="round" stroke-linejoin="round"></path>
            </g>
        </g>
    </g>
</svg>