<?xml version="1.0" encoding="UTF-8"?>
<svg width="90px" height="90px" viewBox="0 0 90 90" version="1.1" xmlns="http://www.w3.org/2000/svg" xmlns:xlink="http://www.w3.org/1999/xlink">
    <title>objective c</title>
    <g id="objective-c" stroke="none" stroke-width="1" fill="none" fill-rule="evenodd">
        <g id="objective-c-seeklogo.com" transform="translate(13.000000, 14.000000)" fill="#F1592A" fill-rule="nonzero">
            <path d="M31.4135055,63 C14.4869205,63 0.132714732,48.7031858 0.000797850095,31.6690347 C-0.0586617386,23.3688902 3.20746184,15.3904613 9.07008351,9.51474416 C14.9713754,3.47049561 23.0487851,0.0434585625 31.4959535,1.23230802e-05 L31.4959535,1.23230802e-05 C39.7897728,-0.00736274958 47.7435166,3.29588958 53.5920313,9.17669954 C59.538219,14.9731902 62.9245742,22.9035538 62.9996783,31.2073152 C63.0773497,48.6183072 49.0789722,62.8232965 31.6690944,63 L31.4135055,63 Z M31.5124431,1.64898407 C23.5078078,1.69592107 15.8555527,4.94753459 10.2655803,10.6772879 C4.70537239,16.2362355 1.60251021,23.7901678 1.64922707,31.6525447 C1.77343096,47.7962368 15.3773595,61.3345118 31.4052607,61.3345118 L31.6196256,61.3345118 C48.1284866,61.1849178 61.4145864,47.725346 61.3506246,31.2155602 C61.2756387,23.3488071 58.0645033,15.8371926 52.4295138,10.3474882 C46.8999481,4.76883167 39.3671195,1.63626833 31.5124431,1.64898407 Z" id="path8"></path>
            <polygon id="path10" points="7.06659586 40.7137897 7.06659586 22.31097 11.5435251 22.31097 11.5435251 23.9599682 9.16902117 23.9599682 9.16902117 39.0977714 11.5435251 39.0977714 11.5435251 40.7467696"></polygon>
            <path d="M22.2617717,31.33099 C22.2617717,34.6867013 20.2253049,36.5995392 17.4632952,36.5995392 C14.7012854,36.5995392 12.8626939,34.4475966 12.8626939,31.5041348 C12.8626939,28.4287532 14.7919783,26.2603206 17.6117016,26.2603206 C20.431425,26.2603206 22.2617717,28.5194481 22.2617717,31.33099 Z M14.7919783,31.4793999 C14.7919783,33.5159126 15.8143341,35.1319308 17.5704776,35.1319308 C19.3266211,35.1319308 20.3324873,33.4829327 20.3324873,31.4051949 C20.3324873,29.517092 19.4008244,27.736174 17.5704776,27.736174 C15.7401309,27.736174 14.7754887,29.4593771 14.7754887,31.5206248 L14.7919783,31.4793999 Z" id="path12"></path>
            <path d="M23.8117951,26.6066103 C24.6885617,26.4551972 25.5768844,26.3807088 26.4666224,26.3839955 C27.4661203,26.2863725 28.4707993,26.5086772 29.3358146,27.0188598 C29.996221,27.4078363 30.3938716,28.1242548 30.37466,28.8904727 C30.350329,29.8933271 29.6855703,30.7675045 28.725699,31.0589053 L28.725699,31.0589053 C29.9015531,31.2981139 30.7462319,32.3324377 30.7456762,33.5324026 C30.7582985,34.3312915 30.4025155,35.0915286 29.781034,35.5936503 C29.0719808,36.2202696 27.8929737,36.5253343 26.0708717,36.5253343 C25.3213001,36.5290213 24.5722546,36.4849588 23.8282847,36.3934144 L23.8117951,26.6066103 Z M25.6256522,30.5559609 L26.5573152,30.5559609 C27.8187704,30.5559609 28.5278237,29.9623215 28.5278237,29.1130875 C28.5278237,28.2638534 27.8187704,27.744419 26.6562529,27.744419 C26.3083248,27.7325305 25.9601136,27.7574033 25.6174074,27.8186239 L25.6256522,30.5559609 Z M25.6256522,35.1566658 C25.9460832,35.1897234 26.2682115,35.2034898 26.5902945,35.1978908 C27.7610568,35.1978908 28.7999022,34.7526612 28.7999022,33.5488926 C28.7999022,32.3451239 27.794036,31.8998944 26.5325808,31.8998944 L25.6256522,31.8998944 L25.6256522,35.1566658 Z" id="path14"></path>
            <path d="M34.3486561,26.4746904 L36.170758,26.4746904 L36.170758,32.9799882 C36.170758,35.7420602 34.8350996,36.6654991 32.872836,36.6654991 C32.3480553,36.6611548 31.8274225,36.5720605 31.3310574,36.4016594 L31.5536671,34.934051 C31.9195403,35.0483403 32.2999452,35.1094285 32.6832055,35.1154408 C33.7220509,35.1154408 34.3321665,34.6372314 34.3321665,32.9057833 L34.3486561,26.4746904 Z" id="path16"></path>
            <polygon id="path18" points="41.3567405 31.8916494 41.3567405 33.153133 37.5641301 33.153133 37.5641301 31.8916494"></polygon>
            <path d="M50.2116612,36.1790447 C49.3919411,36.5058952 48.5128874,36.6575564 47.6310372,36.6242742 C44.4567872,36.6242742 42.5275028,34.6372314 42.5275028,31.5948297 C42.4516218,30.1610268 42.9921497,28.7631507 44.0128958,27.7534085 C45.0336419,26.7436662 46.4372746,26.2183401 47.8701365,26.3097906 C48.7173118,26.2747013 49.5618124,26.4267148 50.3435781,26.7550201 L49.9395826,28.2061385 C49.31947,27.9422016 48.6512097,27.8102313 47.977319,27.8186239 C45.9408521,27.8186239 44.4732768,29.0965975 44.4732768,31.5041348 C44.4732768,33.6973024 45.7677112,35.1154408 47.9608294,35.1154408 C48.641255,35.1252596 49.3167927,34.999119 49.9478274,34.7444163 L50.2116612,36.1790447 Z" id="path20"></path>
            <polygon id="path22" points="55.933556 22.2615001 55.933556 40.7137897 51.4566268 40.7137897 51.4566268 39.0647915 53.8311307 39.0647915 53.8311307 23.9104982 51.4566268 23.9104982 51.4566268 22.2615001"></polygon>
        </g>
        <rect id="Rectangle" x="0" y="0" width="90" height="90"></rect>
    </g>
</svg>