<?xml version="1.0" encoding="UTF-8"?>
<svg width="32px" height="32px" viewBox="0 0 32 32" version="1.1" xmlns="http://www.w3.org/2000/svg" xmlns:xlink="http://www.w3.org/1999/xlink">
    <title>2</title>
    <g id="2" stroke="none" stroke-width="1" fill="none" fill-rule="evenodd" fill-opacity="0.85" stroke-opacity="0.85">
        <g id="iconfinder_pray_religion_prayer_god_hands_praying_church_5699396" transform="translate(4.000000, 0.000000)" fill="#000000" fill-rule="nonzero" stroke="#000000" stroke-width="0.4">
            <path d="M22.8813663,26.7367336 L19.2146609,21.9779206 C19.0624899,21.7809383 18.9788238,21.5348511 18.9788238,21.2848555 L18.9788238,17.9043579 C18.9788238,14.8173784 18.4128148,11.7928979 17.2965191,8.91517637 L14.2530975,1.09951699 C14.0835194,0.662027622 13.7516629,0.320517964 13.3192949,0.137486592 C12.8886115,-0.0438704935 12.4141297,-0.0461026649 11.9834462,0.13413865 C11.8026378,0.209297164 11.6407805,0.314554193 11.5000854,0.441190193 C11.3593553,0.314658878 11.1973928,0.209332078 11.0165141,0.13413865 C10.5852691,-0.0455446078 10.1113488,-0.0449866078 9.68010386,0.137486592 C9.24773586,0.320517964 8.91587933,0.662027622 8.74686275,1.09840094 L5.70231808,8.91629277 C4.58658398,11.7945723 4.02057494,14.8184948 4.02057494,17.9043582 L4.02057494,21.2848558 C4.02057494,21.5348514 3.93690893,21.7809386 3.78473782,21.9784789 L0.118593927,26.7372919 C-0.074567888,26.9878434 -0.0268389583,27.3460937 0.225843634,27.5380536 C0.477403207,27.7300135 0.838458584,27.6831407 1.0316204,27.4314731 L4.69776429,22.6732159 C5.00266795,22.2775773 5.17056151,21.7842868 5.17056151,21.2848558 L5.17056151,17.9043582 C5.17056151,14.9596746 5.71074075,12.0741416 6.77537681,9.32811329 L9.81992147,1.51022145 C9.87663467,1.36401962 9.98669202,1.25018305 10.1310018,1.18880054 C10.2736271,1.12853431 10.4302903,1.12853431 10.5717926,1.18768448 C10.8059452,1.28533854 10.9496935,1.52975219 10.9227407,1.77025985 L9.90323657,9.33222855 C9.4698859,9.39608769 9.05910119,9.58403672 8.71822532,9.88892586 C8.22802104,10.3280891 7.93883983,10.9580961 7.92424041,11.6187952 L7.80688335,18.3329185 C7.8012682,18.6487602 8.05451233,18.9087983 8.37176937,18.9143786 C8.37513849,18.9143786 8.3785076,18.9143786 8.38187666,18.9143786 C8.69520311,18.9143786 8.95125482,18.664941 8.95686997,18.3530078 L9.07422703,11.6411155 C9.08152674,11.2962581 9.23257478,10.9670247 9.48862649,10.7376775 C9.68105133,10.5653534 9.9168182,10.4741516 10.1911543,10.4588754 L10.351678,10.4575501 C10.4409592,10.5127945 10.9233022,10.9067579 10.9199331,12.8966653 L10.9249868,23.1347003 C10.9255483,24.6519623 10.4269213,26.1536015 9.52063303,27.3684148 L5.67368071,31.015091 C5.44402028,31.2327183 5.43559754,31.5948748 5.65458915,31.8231071 C5.76745407,31.9408504 5.91906365,32 6.07067323,32 C6.21329854,32 6.35648532,31.9475468 6.46766569,31.8420802 L10.3494321,28.1624799 L10.4117604,28.0921696 C10.8652555,27.4929242 11.226732,26.8301675 11.4996994,26.1329193 C11.7724913,26.8299582 12.1337573,27.4926802 12.5870769,28.0921696 L16.5317332,31.8420802 C16.643475,31.9475468 16.7861003,32 16.9287256,32 C17.0803351,32 17.2319447,31.9408504 17.3448096,31.823107 C17.5638012,31.5948748 17.5553784,31.2327183 17.325718,31.0150909 L13.4787657,27.3684147 C12.5719159,26.1524854 12.0738504,24.6514042 12.0749734,23.1347002 L12.0794656,12.8949912 C12.076658,10.9073159 12.5584395,10.5127945 12.6477207,10.45755 L12.9255663,10.4598868 C13.1382408,10.4909276 13.3412994,10.5858961 13.5107721,10.7376775 C13.7668238,10.9670247 13.9178719,11.2962581 13.9251716,11.6388833 L14.0430901,18.3530078 C14.0487053,18.664941 14.304757,18.9143786 14.6180834,18.9143786 C14.6214526,18.9143786 14.6248217,18.9143786 14.6281907,18.9143786 C14.9454478,18.9087983 15.1986919,18.6487602 15.1930768,18.3329185 L15.0751582,11.616563 C15.0605588,10.9580961 14.7713776,10.3280891 14.2811733,9.88892586 C13.9445439,9.58710592 13.5412695,9.40243535 13.0968991,9.3378438 L12.0783425,1.78365242 C12.0502667,1.53031019 12.194015,1.28533854 12.4281675,1.18768442 C12.5713543,1.12853425 12.7268946,1.12965036 12.8689583,1.18880048 C13.0127067,1.24962499 13.122764,1.36401962 13.1800387,1.51133751 L16.2240218,9.32699717 C17.2886579,12.0724675 17.8288371,14.9585584 17.8288371,17.9043582 L17.8288371,21.2848557 C17.8288371,21.7842868 17.9967307,22.2775772 18.3016343,22.6732159 L21.9683397,27.4320311 C22.1620631,27.6820246 22.5219954,27.7300134 22.774678,27.5380535 C23.0267992,27.3460933 23.0745281,26.9872851 22.8813663,26.7367336 Z M11.7734389,9.69696586 C11.6720851,9.79699157 11.5830144,9.91996546 11.4997696,10.0537861 C11.4164896,9.92000032 11.3273839,9.79702643 11.2259599,9.69696586 C11.161947,9.63391003 11.0984956,9.58089769 11.0361672,9.53681397 L11.4996994,6.09800174 L11.9632316,9.53681397 C11.9009032,9.58089769 11.8374518,9.63391003 11.7734389,9.69696586 Z" id="Shape"></path>
        </g>
    </g>
</svg>