<?xml version="1.0" encoding="UTF-8"?>
<svg width="90px" height="90px" viewBox="0 0 90 90" version="1.1" xmlns="http://www.w3.org/2000/svg" xmlns:xlink="http://www.w3.org/1999/xlink">
    <title>java</title>
    <g id="java" stroke="none" stroke-width="1" fill="none" fill-rule="evenodd">
        <g transform="translate(5.000000, 7.000000)">
            <rect id="Rectangle" stroke="#979797" stroke-width="0.9" fill="#D8D8D8" opacity="0" x="0.45" y="0.45" width="80.1" height="80.1"></rect>
            <g id="Group" transform="translate(14.400000, 2.700000)">
                <path d="M31.4297303,0 C32.9606043,1.74296143 33.4659002,4.23523339 33.0257617,6.48316496 C32.5533703,9.00801564 31.1524854,11.2396578 29.507423,13.1618022 C28.1879849,14.7092914 26.6729116,16.0775975 25.0930067,17.3481675 C23.2523091,18.8304992 21.4441902,20.4268564 20.2876457,22.5118944 C19.3102841,24.2059878 19.0822331,26.2910257 19.7500968,28.1317233 C20.8414839,31.291859 23.3826239,33.6375267 24.7672195,36.6184795 C23.2360197,35.2664627 21.7373987,33.8655778 20.3365138,32.3832461 C18.8704714,30.8194676 17.4858759,29.157953 16.5736718,27.2032299 C15.9546761,25.8349237 15.677757,24.2385665 16.1501485,22.7888135 C16.6225399,21.3064818 17.6813482,20.1173586 18.7401566,19.0096822 C21.6885306,16.0613082 25.3212206,13.8948234 28.2042743,10.8975813 C29.8007944,9.25235603 31.1200696,7.28134356 31.5760087,5.01712263 C31.9508269,3.355608 31.7716439,1.64522528 31.4297303,0" id="Fill-1" fill="#D63033"></path>
                <path d="M31.4297303,0 C32.9606043,1.74296143 33.4659002,4.23523339 33.0257617,6.48316496 C32.5533703,9.00801564 31.1524854,11.2396578 29.507423,13.1618022 C28.1879849,14.7092914 26.6729116,16.0775975 25.0930067,17.3481675 C23.2523091,18.8304992 21.4441902,20.4268564 20.2876457,22.5118944 C19.3102841,24.2059878 19.0822331,26.2910257 19.7500968,28.1317233 C20.8414839,31.291859 23.3826239,33.6375267 24.7672195,36.6184795 C23.2360197,35.2664627 21.7373987,33.8655778 20.3365138,32.3832461 C18.8704714,30.8194676 17.4858759,29.157953 16.5736718,27.2032299 C15.9546761,25.8349237 15.677757,24.2385665 16.1501485,22.7888135 C16.6225399,21.3064818 17.6813482,20.1173586 18.7401566,19.0096822 C21.6885306,16.0613082 25.3212206,13.8948234 28.2042743,10.8975813 C29.8007944,9.25235603 31.1200696,7.28134356 31.5760087,5.01712263 C31.9508269,3.355608 31.7716439,1.64522528 31.4297303,0 Z" id="Stroke-2" stroke="#D63033" stroke-width="0.5"></path>
                <path d="M29.0187422,18.5535801 C32.1788779,16.2242018 35.8763996,14.7418701 39.6229522,13.6667724 C36.6584517,15.556338 33.5634734,17.2830101 31.0058812,19.7101246 C30.0775506,20.6060394 29.1977623,21.632269 28.7905283,22.8865497 C28.4810305,23.8150432 28.6115082,24.8412728 28.9863264,25.7208982 C29.6703166,27.2846767 30.8266982,28.5552467 31.7064865,29.9887103 C32.4556341,31.2104122 32.5861119,32.7741907 32.0159843,34.0936288 C31.1524854,36.0320626 29.458392,37.4492368 27.6993041,38.5732026 C27.4712531,38.7035175 27.2759437,38.9478578 26.9986988,38.9804366 C28.1718584,37.9216282 29.0838997,36.4230072 29.051158,34.8103606 C29.0187422,33.604948 28.3508785,32.5461397 27.5688264,31.6828036 C25.9561798,29.7606593 24.6043259,27.3172554 24.881245,24.7272473 C25.158327,22.1372392 27.0149881,20.0522012 29.0187422,18.5535801" id="Fill-4" fill="#D63033"></path>
                <path d="M29.0187422,18.5535801 C32.1788779,16.2242018 35.8763996,14.7418701 39.6229522,13.6667724 C36.6584517,15.556338 33.5634734,17.2830101 31.0058812,19.7101246 C30.0775506,20.6060394 29.1977623,21.632269 28.7905283,22.8865497 C28.4810305,23.8150432 28.6115082,24.8412728 28.9863264,25.7208982 C29.6703166,27.2846767 30.8266982,28.5552467 31.7064865,29.9887103 C32.4556341,31.2104122 32.5861119,32.7741907 32.0159843,34.0936288 C31.1524854,36.0320626 29.458392,37.4492368 27.6993041,38.5732026 C27.4712531,38.7035175 27.2759437,38.9478578 26.9986988,38.9804366 C28.1718584,37.9216282 29.0838997,36.4230072 29.051158,34.8103606 C29.0187422,33.604948 28.3508785,32.5461397 27.5688264,31.6828036 C25.9561798,29.7606593 24.6043259,27.3172554 24.881245,24.7272473 C25.158327,22.1372392 27.0149881,20.0522012 29.0187422,18.5535801 Z" id="Stroke-5" stroke="#D63033" stroke-width="0.5"></path>
                <path d="M40.2259842,37.3840794 C40.9099744,36.553322 42.0011986,36.3415604 42.9951753,36.2112455 C44.7216845,35.9831945 46.5622192,36.4230072 47.8653679,37.6121304 C48.9407914,38.5732026 49.5433348,40.0718236 49.3151209,41.5215766 C49.0707805,43.1993806 47.9468147,44.6002655 46.6764076,45.6590738 C44.3797708,47.4997714 41.5452594,48.5748691 38.7109109,49.2917638 C38.8738045,49.1122551 39.0528246,48.9493615 39.2647492,48.8192095 C41.4147817,47.662665 43.5486877,46.3106482 45.1289185,44.4210825 C46.0901536,43.2482487 46.8393012,41.7170489 46.5298034,40.1695598 C46.2040162,38.3777303 44.4612176,37.0745815 42.6855146,36.9768454 C41.838305,36.8953986 41.0404522,37.2211858 40.2259842,37.3840794" id="Fill-6" fill="#1F69A5"></path>
                <path d="M40.2259842,37.3840794 C40.9099744,36.553322 42.0011986,36.3415604 42.9951753,36.2112455 C44.7216845,35.9831945 46.5622192,36.4230072 47.8653679,37.6121304 C48.9407914,38.5732026 49.5433348,40.0718236 49.3151209,41.5215766 C49.0707805,43.1993806 47.9468147,44.6002655 46.6764076,45.6590738 C44.3797708,47.4997714 41.5452594,48.5748691 38.7109109,49.2917638 C38.8738045,49.1122551 39.0528246,48.9493615 39.2647492,48.8192095 C41.4147817,47.662665 43.5486877,46.3106482 45.1289185,44.4210825 C46.0901536,43.2482487 46.8393012,41.7170489 46.5298034,40.1695598 C46.2040162,38.3777303 44.4612176,37.0745815 42.6855146,36.9768454 C41.838305,36.8953986 41.0404522,37.2211858 40.2259842,37.3840794 Z" id="Stroke-7" stroke="#1F69A5" stroke-width="0.5"></path>
                <path d="M7.48420936,38.8664111 C10.4814515,37.5795517 13.7391604,36.7487944 17.0134845,36.7976624 C15.1076295,37.3515006 13.1529064,37.8238921 11.3610768,38.6709387 C10.9375535,38.8989898 10.4488727,39.1107514 10.2045323,39.5505641 C10.0740546,39.8926407 10.4325834,40.1206917 10.6932131,40.2347172 C11.8008895,40.6908193 13.0225915,40.7559767 14.2117147,40.8700022 C18.3817907,41.1469213 22.568156,40.9840277 26.7219426,40.723398 C30.8266982,40.4627683 34.899038,39.90893 38.9552513,39.2573557 C38.0593366,39.680879 37.1471325,40.1044024 36.316538,40.6419512 C35.8926889,40.9351597 35.3715923,41.0166065 34.899038,41.130632 C29.914657,42.2383084 24.7997982,42.5803849 19.7175181,42.6618317 C17.7465057,42.6781211 15.7917826,42.6455424 13.8370594,42.5152275 C11.6542853,42.3686233 9.45522182,42.2057297 7.32131577,41.6356021 C6.70232012,41.4564192 6.05074575,41.2609469 5.56206497,40.8211342 C5.31772459,40.6256618 5.31772459,40.2347172 5.52948626,40.0066662 C6.06703511,39.452828 6.81634563,39.1921982 7.48420936,38.8664111" id="Fill-8" fill="#1F69A5"></path>
                <path d="M7.48420936,38.8664111 C10.4814515,37.5795517 13.7391604,36.7487944 17.0134845,36.7976624 C15.1076295,37.3515006 13.1529064,37.8238921 11.3610768,38.6709387 C10.9375535,38.8989898 10.4488727,39.1107514 10.2045323,39.5505641 C10.0740546,39.8926407 10.4325834,40.1206917 10.6932131,40.2347172 C11.8008895,40.6908193 13.0225915,40.7559767 14.2117147,40.8700022 C18.3817907,41.1469213 22.568156,40.9840277 26.7219426,40.723398 C30.8266982,40.4627683 34.899038,39.90893 38.9552513,39.2573557 C38.0593366,39.680879 37.1471325,40.1044024 36.316538,40.6419512 C35.8926889,40.9351597 35.3715923,41.0166065 34.899038,41.130632 C29.914657,42.2383084 24.7997982,42.5803849 19.7175181,42.6618317 C17.7465057,42.6781211 15.7917826,42.6455424 13.8370594,42.5152275 C11.6542853,42.3686233 9.45522182,42.2057297 7.32131577,41.6356021 C6.70232012,41.4564192 6.05074575,41.2609469 5.56206497,40.8211342 C5.31772459,40.6256618 5.31772459,40.2347172 5.52948626,40.0066662 C6.06703511,39.452828 6.81634563,39.1921982 7.48420936,38.8664111 Z" id="Stroke-9" stroke="#1F69A5" stroke-width="0.5"></path>
                <path d="M11.3284981,45.8219674 C12.1755448,45.1541037 13.1854851,44.7794484 14.1954253,44.4210825 C13.8696382,44.8120272 13.4135361,45.1866824 13.3809574,45.7242313 C13.364668,46.0663078 13.6415871,46.3269376 13.9185062,46.4898312 C14.4560551,46.7667503 15.0587614,46.8644864 15.6614677,46.9459332 C18.7890246,47.2717204 21.9491603,47.4509033 25.109296,47.2391417 C27.9923497,47.0925374 30.8596027,46.620146 33.7102406,46.1151759 C34.491804,46.8481971 35.4206233,47.3531672 36.3979848,47.7929799 C32.9606043,48.8029202 29.4259762,49.3893371 25.874733,49.6660933 C22.5192879,49.8943072 19.1148118,49.8780179 15.7754932,49.3403061 C14.4560551,49.0959657 13.1040383,48.8192095 11.8986257,48.2002139 C11.4099449,47.9395841 10.8561067,47.5975076 10.7095025,47.02738 C10.6117663,46.5386992 10.9701322,46.0988865 11.3284981,45.8219674" id="Fill-10" fill="#1F69A5"></path>
                <path d="M11.3284981,45.8219674 C12.1755448,45.1541037 13.1854851,44.7794484 14.1954253,44.4210825 C13.8696382,44.8120272 13.4135361,45.1866824 13.3809574,45.7242313 C13.364668,46.0663078 13.6415871,46.3269376 13.9185062,46.4898312 C14.4560551,46.7667503 15.0587614,46.8644864 15.6614677,46.9459332 C18.7890246,47.2717204 21.9491603,47.4509033 25.109296,47.2391417 C27.9923497,47.0925374 30.8596027,46.620146 33.7102406,46.1151759 C34.491804,46.8481971 35.4206233,47.3531672 36.3979848,47.7929799 C32.9606043,48.8029202 29.4259762,49.3893371 25.874733,49.6660933 C22.5192879,49.8943072 19.1148118,49.8780179 15.7754932,49.3403061 C14.4560551,49.0959657 13.1040383,48.8192095 11.8986257,48.2002139 C11.4099449,47.9395841 10.8561067,47.5975076 10.7095025,47.02738 C10.6117663,46.5386992 10.9701322,46.0988865 11.3284981,45.8219674 Z" id="Stroke-11" stroke="#1F69A5" stroke-width="0.5"></path>
                <path d="M13.2180638,52.9239651 C13.9673743,52.3214218 14.8958678,52.0119239 15.8080719,51.7512942 C15.5148634,52.0280504 14.993604,52.3701269 15.221655,52.8425184 C15.6614677,53.4126459 16.4759356,53.4779663 17.12751,53.6245705 C19.8804117,53.966647 22.6658921,54.1946981 25.4187938,53.9827735 C27.5036689,53.8527844 29.556454,53.4779663 31.5926239,53.1197632 C32.7652948,53.8037534 33.9869968,54.3900075 35.2411145,54.9115928 C33.3191331,55.774603 31.2502215,56.3286041 29.1816358,56.7195487 C25.6955501,57.3383815 22.0957646,57.4198283 18.5935523,56.8663159 C17.0460632,56.589071 15.4659954,56.230868 14.0651105,55.4651052 C13.5275616,55.1559331 12.9574341,54.7972415 12.729383,54.1946981 C12.5502001,53.7223066 12.8434085,53.2173365 13.2180638,52.9239651" id="Fill-12" fill="#1F69A5"></path>
                <path d="M13.2180638,52.9239651 C13.9673743,52.3214218 14.8958678,52.0119239 15.8080719,51.7512942 C15.5148634,52.0280504 14.993604,52.3701269 15.221655,52.8425184 C15.6614677,53.4126459 16.4759356,53.4779663 17.12751,53.6245705 C19.8804117,53.966647 22.6658921,54.1946981 25.4187938,53.9827735 C27.5036689,53.8527844 29.556454,53.4779663 31.5926239,53.1197632 C32.7652948,53.8037534 33.9869968,54.3900075 35.2411145,54.9115928 C33.3191331,55.774603 31.2502215,56.3286041 29.1816358,56.7195487 C25.6955501,57.3383815 22.0957646,57.4198283 18.5935523,56.8663159 C17.0460632,56.589071 15.4659954,56.230868 14.0651105,55.4651052 C13.5275616,55.1559331 12.9574341,54.7972415 12.729383,54.1946981 C12.5502001,53.7223066 12.8434085,53.2173365 13.2180638,52.9239651 Z" id="Stroke-13" stroke="#1F69A5" stroke-width="0.5"></path>
                <path d="M4.17746944,57.5340167 C5.67609049,57.0292095 7.22357961,56.6219755 8.80364745,56.5729445 C9.43893246,56.5566551 10.0905068,56.589071 10.644345,56.9148582 C8.75477938,57.0292095 6.86521371,57.5012751 5.17112035,58.364774 C4.79646509,58.5766986 4.37294175,58.821039 4.22633752,59.2606888 C4.22633752,59.765496 4.79646509,59.9283896 5.17112035,60.0912832 C7.53307744,60.9710715 10.0579281,61.2478277 12.5339107,61.5087832 C19.9129904,62.1274531 27.3407753,61.9645595 34.7200179,61.2968587 C37.5053355,60.987198 40.307431,60.6777001 43.0113018,59.9122631 C43.8744749,59.6188918 44.8518365,59.3258462 45.421964,58.5600834 C45.7643664,58.1041443 45.5361525,57.5340167 45.1942388,57.1430721 C45.7477512,57.4525699 46.5298034,57.8436774 46.4159407,58.592825 C46.2040162,59.3745514 45.4056747,59.7817854 44.7541003,60.1566035 C42.6693881,61.2154119 40.3722627,61.7531236 38.0917524,62.2251893 C31.4621461,63.528338 24.6694833,63.8217093 17.9256886,63.6263999 C12.8434085,63.4468912 7.76112847,62.9582104 2.74400583,62.0950373 C1.84809108,61.8831127 0.838150806,61.7040926 0.186576438,61.0034873 C-0.236946901,60.5148065 0.13770836,59.8308163 0.54494234,59.4726133 C1.57117197,58.5276676 2.89061006,58.006571 4.17746944,57.5340167" id="Fill-14" fill="#1F69A5"></path>
                <path d="M4.17746944,57.5340167 C5.67609049,57.0292095 7.22357961,56.6219755 8.80364745,56.5729445 C9.43893246,56.5566551 10.0905068,56.589071 10.644345,56.9148582 C8.75477938,57.0292095 6.86521371,57.5012751 5.17112035,58.364774 C4.79646509,58.5766986 4.37294175,58.821039 4.22633752,59.2606888 C4.22633752,59.765496 4.79646509,59.9283896 5.17112035,60.0912832 C7.53307744,60.9710715 10.0579281,61.2478277 12.5339107,61.5087832 C19.9129904,62.1274531 27.3407753,61.9645595 34.7200179,61.2968587 C37.5053355,60.987198 40.307431,60.6777001 43.0113018,59.9122631 C43.8744749,59.6188918 44.8518365,59.3258462 45.421964,58.5600834 C45.7643664,58.1041443 45.5361525,57.5340167 45.1942388,57.1430721 C45.7477512,57.4525699 46.5298034,57.8436774 46.4159407,58.592825 C46.2040162,59.3745514 45.4056747,59.7817854 44.7541003,60.1566035 C42.6693881,61.2154119 40.3722627,61.7531236 38.0917524,62.2251893 C31.4621461,63.528338 24.6694833,63.8217093 17.9256886,63.6263999 C12.8434085,63.4468912 7.76112847,62.9582104 2.74400583,62.0950373 C1.84809108,61.8831127 0.838150806,61.7040926 0.186576438,61.0034873 C-0.236946901,60.5148065 0.13770836,59.8308163 0.54494234,59.4726133 C1.57117197,58.5276676 2.89061006,58.006571 4.17746944,57.5340167 Z" id="Stroke-15" stroke="#1F69A5" stroke-width="0.5"></path>
                <path d="M44.7703897,63.1048146 C46.4159407,62.5346871 48.1748657,61.9321437 49.3965677,60.6289949 C49.1851318,62.0460063 47.9634299,63.0233679 46.7578544,63.6588158 C44.4446025,64.8642283 41.8549202,65.4182294 39.2810385,65.8740057 C33.8402297,66.7375046 28.3181369,66.9491034 22.796207,66.8513673 C19.033365,66.7375046 15.2379443,66.5909004 11.5400969,65.8088483 C10.6606344,65.5645079 9.71585157,65.4016143 8.95025169,64.8805177 C12.2407022,65.4343559 15.5800209,65.6625698 18.9193395,65.7925589 C24.4088536,65.9554525 29.914657,65.7440166 35.3715923,65.0595378 C38.531728,64.6198879 41.708153,64.0821762 44.7703897,63.1048146" id="Fill-16" fill="#1F69A5"></path>
                <path d="M44.7703897,63.1048146 C46.4159407,62.5346871 48.1748657,61.9321437 49.3965677,60.6289949 C49.1851318,62.0460063 47.9634299,63.0233679 46.7578544,63.6588158 C44.4446025,64.8642283 41.8549202,65.4182294 39.2810385,65.8740057 C33.8402297,66.7375046 28.3181369,66.9491034 22.796207,66.8513673 C19.033365,66.7375046 15.2379443,66.5909004 11.5400969,65.8088483 C10.6606344,65.5645079 9.71585157,65.4016143 8.95025169,64.8805177 C12.2407022,65.4343559 15.5800209,65.6625698 18.9193395,65.7925589 C24.4088536,65.9554525 29.914657,65.7440166 35.3715923,65.0595378 C38.531728,64.6198879 41.708153,64.0821762 44.7703897,63.1048146 Z" id="Stroke-17" stroke="#1F69A5" stroke-width="0.5"></path>
            </g>
        </g>
        <rect id="Rectangle" x="0" y="0" width="90" height="90"></rect>
    </g>
</svg>