<?xml version="1.0" encoding="UTF-8"?>
<svg width="20px" height="23px" viewBox="0 0 20 23" version="1.1" xmlns="http://www.w3.org/2000/svg" xmlns:xlink="http://www.w3.org/1999/xlink">
    <title>iconfinder_69-document_-_attachment_clip_paperclip_252385</title>
    <g id="Page-1" stroke="none" stroke-width="1" fill="none" fill-rule="evenodd">
        <g id="Get-Proposal-Full-Screen" transform="translate(-933.000000, -947.000000)" fill="#000000" fill-rule="nonzero">
            <g id="Group-19" transform="translate(580.000000, 77.000000)">
                <g id="Group-18" transform="translate(2.000000, 603.000000)">
                    <g id="iconfinder_69-document_-_attachment_clip_paperclip_252385" transform="translate(361.000000, 278.500000) rotate(30.000000) translate(-361.000000, -278.500000) translate(356.000000, 269.000000)">
                        <path d="M8.75,2.3807887 L8.75,3.57058934 L8.75,11.1000562 L8.75,14.2776076 C8.75,16.2499219 7.07,17.848197 5,17.848197 C2.92875,17.848197 1.25,16.2499219 1.25,14.2776076 L1.25,11.1000562 L1.25,8.32979189 L1.25,6.22448597 L1.25,5.95019061 L1.25,4.75920255 L1.25,3.57058934 L1.2525,3.57058934 C1.2525,3.55752765 1.25,3.5456534 1.25,3.53259171 C1.25,2.21929879 2.37,1.15299044 3.75,1.15299044 C5.13,1.15299044 6.25,2.21811137 6.25,3.53259171 C6.25,3.54684082 6.2475,3.55752765 6.2475,3.57058934 L6.25,3.57058934 L6.25,4.75920255 L6.25,5.95019061 L6.25,6.22448597 L6.25,8.32860446 L6.25,9.63714768 L6.25,10.9219424 L6.25,12.1901131 L6.25,14.2764202 C6.25,14.9342541 5.69125,15.4662209 5,15.4662209 C4.30875,15.4662209 3.75,14.9342541 3.75,14.2764202 L3.75,13.087807 L3.75,12.1901131 L3.75,10.9219424 L3.75,9.63714768 L3.75,7.13880382 L3.75,5.91338041 L3.75,4.75920255 L2.5,4.75920255 L2.5,5.58208862 L2.5,6.93219174 L2.5,8.32979189 L2.5,10.1239923 L2.5,11.623711 L2.5,13.0889944 L2.5,14.2776076 L2.50375,14.2776076 C2.525,15.5742766 3.6325,16.6203987 5,16.6203987 C6.3675,16.6203987 7.475,15.5742766 7.495,14.2764202 L7.5,14.2764202 L7.5,11.6225236 L7.5,10.1228048 L7.5,5.95019061 L7.5,4.75920255 L7.5,3.57058934 C7.5,1.59827511 5.82125,0 3.75,0 C1.67875,0 0,1.59827511 0,3.57058934 L0,4.75920255 L0,5.95019061 L0,14.2776076 L0.00125,14.2776076 C0.0225,16.888757 2.25125,19 5,19 C7.74875,19 9.975,16.8899444 9.9975,14.2776076 L10,14.2776076 L10,3.57058934 L10,2.3807887 L8.75,2.3807887 Z" id="Path"></path>
                    </g>
                </g>
            </g>
        </g>
    </g>
</svg>