<?xml version="1.0" encoding="UTF-8"?>
<svg width="194px" height="32px" viewBox="0 0 194 32" version="1.1" xmlns="http://www.w3.org/2000/svg" xmlns:xlink="http://www.w3.org/1999/xlink">
    <title>Group 13</title>
    <g id="Page-1" stroke="none" stroke-width="1" fill="none" fill-rule="evenodd">
        <g id="Home" transform="translate(-151.000000, -3576.000000)">
            <g id="Group-8" transform="translate(84.000000, 3255.000000)">
                <g id="Group-13" transform="translate(67.000000, 321.000000)">
                    <path d="M52.0370825,24.3295024 C53.8474061,22.5823114 56.782812,22.5823114 58.5931356,24.3295024 C60.4034592,26.0766933 60.4034592,28.9097307 58.5931356,30.6569216 C56.782812,32.4041125 53.8474061,32.4041125 52.0370825,30.6569216 C50.2267588,28.9097307 50.2267588,26.0766933 52.0370825,24.3295024" id="Fill-5" fill="#FAA61A"></path>
                    <path d="M172.885858,24.6843841 C174.49333,22.7609938 177.411419,22.4592106 179.404309,24.0106245 C181.397199,25.5620383 181.709392,28.3788406 180.102414,30.3022308 C178.494942,32.2256211 175.576358,32.5269268 173.583468,30.9755129 C171.590578,29.4245766 171.278385,26.6077744 172.885858,24.6843841" id="Fill-7" fill="#6EBD4A"></path>
                    <path d="M133.706872,3.54757592 C134.246159,1.13187794 136.713028,-0.403778259 139.21552,0.117179736 C141.718012,0.63813773 143.309652,3.01850034 142.76987,5.43372081 C142.230582,7.84941879 139.764208,9.38507498 137.261222,8.86411699 C134.758235,8.34315899 133.16709,5.96327389 133.706872,3.54757592" id="Fill-9" fill="#00BADE"></path>
                    <path d="M37.7426998,31.9460419 L45.3738645,31.9460419 L55.3432608,13.7960755 L65.3136467,31.9460419 L72.8211216,31.9460419 L55.2814159,0.0167126763 L37.7426998,31.9460419 Z M13.2496493,12.4017608 C10.3533294,11.8096546 6.887047,11.3039767 6.887047,9.10076848 C6.887047,6.64734761 10.3978577,5.79834365 12.4154855,5.79834365 C15.5270256,5.79834365 18.9418531,6.93241812 21.7090408,8.84148325 L24.5771595,3.61423562 C21.3127388,1.42009998 17.8815842,0 12.6806763,0 C7.02211624,0 0,1.991196 0,9.35527867 C0,16.7647243 8.64542093,18.2001045 12.6806763,18.8366187 C16.4062125,19.4726554 19.8274719,20.1043945 19.8274719,22.562113 C19.8274719,24.2978438 17.8899952,26.1543833 14.0754023,26.1543833 C10.3948892,26.1543833 5.48687868,24.2997538 3.09818163,22.4551518 C3.09818163,22.4551518 0.281023182,27.3782288 0.128142613,27.6561367 C3.11055061,29.9295382 7.5213282,32 13.9942618,32 C21.5799087,32 26.7100661,28.823159 26.7100661,22.3930762 C26.7105608,14.0940386 18.4693581,13.462777 13.2496493,12.4017608 L13.2496493,12.4017608 Z M109.700961,10.6454973 C109.700961,4.76645527 104.763265,0.000955010072 98.6717911,0.000477505036 L83.852271,0.000477505036 L83.852271,31.9460419 L90.7398128,31.9460419 L90.7398128,21.289562 L95.7393538,21.289562 L101.588891,31.9460419 L109.095376,31.9460419 L102.813914,20.5107513 C106.976818,18.8824592 109.700961,14.980288 109.700961,10.6454973 L109.700961,10.6454973 Z M98.1057866,15.4921734 L98.1047971,15.4916959 L90.7398128,15.4916959 L90.7398128,5.79786544 L97.8059626,5.79786544 C100.582056,5.79643363 102.8342,7.96669402 102.835685,10.6459748 C102.837168,13.2154294 100.763138,15.3403268 98.1057866,15.4921734 Z M138.210466,18.1881668 L128.240575,0.0382004029 L120.7331,0.0382004029 L138.272311,31.9670522 L155.810533,0.0382004029 L148.178873,0.0382004029 L138.210466,18.1881668 Z M176.460294,0.0171901813 L158.921083,31.9460419 L166.553732,31.9460419 L176.521644,13.7960755 L186.49203,31.9460419 L194,31.9460419 L176.460294,0.0171901813 Z" id="Fill-11" fill="#303D47"></path>
                </g>
            </g>
        </g>
    </g>
</svg>