<?xml version="1.0" encoding="UTF-8"?>
<svg width="32px" height="32px" viewBox="0 0 32 32" version="1.1" xmlns="http://www.w3.org/2000/svg" xmlns:xlink="http://www.w3.org/1999/xlink">
    <title>5</title>
    <defs>
        <polygon id="path-1" points="-2.51024691e-16 0 30 0 30 21 0 21"></polygon>
    </defs>
    <g id="5" stroke="none" stroke-width="1" fill="none" fill-rule="evenodd">
        <g id="Salesforce.com-logo" transform="translate(1.000000, 5.000000)">
            <g id="Clipped">
                <mask id="mask-2" fill="white">
                    <use xlink:href="#path-1"></use>
                </mask>
                <g id="a"></g>
                <path d="M12.4566176,2.29894737 C13.425,1.28873684 14.7727941,0.663157895 16.2617647,0.663157895 C18.2470588,0.663157895 19.9676471,1.76842105 20.8941176,3.41526316 C21.7165054,3.04685118 22.6072668,2.856648 23.5080882,2.85710526 C27.0816176,2.85710526 29.9823529,5.78605263 29.9823529,9.40026316 C29.9823529,13.0144737 27.0816176,15.9434211 23.5080882,15.9434211 C23.0713235,15.9434211 22.6455882,15.8994316 22.2286765,15.8163158 C21.4180147,17.2642105 19.8683824,18.2478947 18.1036765,18.2478947 C17.3852041,18.2493186 16.6759308,18.0859935 16.0301471,17.7704211 C15.2084559,19.7046316 13.2948529,21.0641053 11.0669118,21.0641053 C8.73970588,21.0641053 6.76544118,19.5941053 6.00441176,17.5272632 C5.66569533,17.5988974 5.32044199,17.6349031 4.97426471,17.6346947 C2.20588235,17.6346947 -0.0330882353,15.3578526 -0.0330882353,12.5615368 C-0.0330882353,10.6825895 0.975,9.0468 2.47058824,8.16258947 C2.15329874,7.43013243 1.98997827,6.64002891 1.99080882,5.84153684 C1.99080882,2.61416842 4.60477941,0.00574736842 7.82536765,0.00574736842 C9.71139706,0.00574736842 11.3988971,0.906536842 12.4577206,2.30469474" id="Path" fill="#00A1E0" fill-rule="nonzero" mask="url(#mask-2)"></path>
            </g>
            <path d="M4.00693918,10.5963178 C3.98775311,10.6483983 4.01378333,10.6592581 4.01995429,10.6684831 C4.0772881,10.7116889 4.13551951,10.7429839 4.19386311,10.7781324 C4.50577701,10.9497879 4.79973902,11 5.10716494,11 C5.7332367,11 6.12256807,10.6531859 6.12256807,10.0950138 L6.12256807,10.0840372 C6.12256807,9.56790316 5.68274705,9.37989958 5.27209782,9.2456113 L5.21835439,9.22751158 C4.90756249,9.12264996 4.6394063,9.03133393 4.6394063,8.81880814 L4.6394063,8.80794831 C4.6394063,8.62578335 4.79648524,8.49149508 5.0388356,8.49149508 C5.30811378,8.49149508 5.62900361,8.58479623 5.83432822,8.70285314 C5.83432822,8.70285314 5.89514021,8.74372348 5.91724346,8.68265151 C5.92924878,8.64960492 6.03393067,8.35802421 6.04515059,8.32532794 C6.05704371,8.29111362 6.03617466,8.26530692 6.0147446,8.25199486 C5.77912619,8.10252618 5.45374839,8.00093418 5.11715067,8.00093418 L5.05465569,8.00116772 C4.48131757,8.00116772 4.08076628,8.36199447 4.08076628,8.87812853 L4.08076628,8.88922191 C4.08076628,9.43338134 4.52283129,9.6108754 4.9357245,9.73348643 L5.00214645,9.75497256 C5.30284041,9.85119302 5.56314265,9.93480207 5.56314265,10.1543342 L5.56314265,10.1653108 C5.56314265,10.3673271 5.3937218,10.5179635 5.12219964,10.5179635 C5.01662015,10.5179635 4.68013463,10.5160951 4.31548709,10.2762446 C4.27139279,10.2495037 4.24626016,10.2302363 4.21226379,10.2086334 C4.19431191,10.1973064 4.14943221,10.1768713 4.12990955,10.23806 L4.00649038,10.5953836 M13.1731684,10.5953836 C13.1539823,10.6474641 13.1800125,10.6583239 13.1864079,10.6675489 C13.2435173,10.7107547 13.3019731,10.7420497 13.3603167,10.7771982 C13.6722306,10.9488537 13.9661926,10.9990658 14.2736185,10.9990658 C14.8996903,10.9990658 15.2890217,10.6522518 15.2890217,10.0940796 L15.2890217,10.083103 C15.2890217,9.56696898 14.8503226,9.3789654 14.4385514,9.24467712 L14.384808,9.2265774 C14.0740161,9.12171578 13.8058599,9.03039975 13.8058599,8.81787396 L13.8058599,8.80701413 C13.8058599,8.62484917 13.9629388,8.4905609 14.2052892,8.4905609 C14.4745674,8.4905609 14.7943352,8.58386205 15.0007818,8.70191896 C15.0007818,8.70191896 15.0615938,8.7427893 15.0838093,8.68171733 C15.0957024,8.64867074 15.2004965,8.35709003 15.2105944,8.32439376 C15.2225997,8.29017944 15.2016185,8.26437274 15.1803006,8.25106068 C14.9446822,8.101592 14.6193044,8 14.2827067,8 L14.2200995,8.00023354 C13.6467614,8.00023354 13.2462101,8.36106029 13.2462101,8.87719435 L13.2462101,8.88828773 C13.2462101,9.43244716 13.6882751,9.60994122 14.1011683,9.73255226 L14.1674781,9.75403838 C14.469294,9.85025885 14.7284743,9.93386789 14.7284743,10.1534 L14.7284743,10.1643766 C14.7284743,10.3663929 14.5590534,10.5170293 14.2875313,10.5170293 C14.1817274,10.5170293 13.8443443,10.515161 13.4808187,10.2753104 C13.4367244,10.2485695 13.4109186,10.2301195 13.3774832,10.2076992 C13.3661511,10.2002258 13.3133052,10.1787396 13.2952412,10.2371258 L13.171822,10.5944494 M19.4325397,9.50145966 C19.4325397,9.81674516 19.3759912,10.0654704 19.2653628,10.2417967 C19.1549587,10.4157876 18.9882307,10.5010315 18.7559782,10.5010315 C18.5237258,10.5010315 18.3576709,10.4164883 18.2488377,10.2429645 C18.139219,10.0678058 18.0839048,9.81791289 18.0839048,9.50262738 C18.0839048,9.18734187 18.1395556,8.93978436 18.2488377,8.76579347 C18.3574465,8.5929703 18.5226038,8.51006189 18.7559782,8.51006189 C18.9893527,8.51006189 19.1554075,8.59378771 19.2653628,8.76579347 C19.3766644,8.93978436 19.4325397,9.18734187 19.4325397,9.50262738 M19.9553881,8.9175976 C19.9038887,8.73660037 19.824115,8.57778989 19.7175257,8.44466934 C19.6108243,8.31154879 19.4762974,8.20411817 19.3158524,8.12704838 C19.1565295,8.04939473 18.9680348,8.01027597 18.7548562,8.01027597 C18.5416777,8.01027597 18.354305,8.04962827 18.19386,8.12704838 C18.0345371,8.20458526 17.898776,8.31154879 17.7921868,8.44466934 C17.6858219,8.57778989 17.605936,8.73660037 17.5543244,8.9175976 C17.5032737,9.09742711 17.4773557,9.29360476 17.4773557,9.50262738 C17.4773557,9.71164999 17.5032737,9.90782764 17.5543244,10.0876572 C17.6055994,10.2686544 17.6855975,10.4274649 17.7921868,10.5605854 C17.8988882,10.693706 18.0345371,10.7999689 18.19386,10.8758709 C18.354305,10.9515394 18.5427997,10.9900743 18.7548562,10.9900743 C18.9669128,10.9900743 19.1554075,10.9515394 19.3147305,10.8758709 C19.4740534,10.8002024 19.6098145,10.693706 19.7164037,10.5605854 C19.8228808,10.4274649 19.9026545,10.2686544 19.9542661,10.0876572 C20.0052046,9.90782764 20.0311226,9.71164999 20.0311226,9.50262738 C20.0311226,9.29477249 20.0052046,9.09742711 19.9542661,8.9175976 M24.2514971,10.4122845 C24.2343306,10.3593866 24.1847385,10.3793546 24.1847385,10.3793546 C24.1087796,10.4095987 24.0276596,10.4376241 23.9412662,10.4516368 C23.8541996,10.465883 23.7572594,10.4730061 23.6551581,10.4730061 C23.4027098,10.4730061 23.2007512,10.3946518 23.0571361,10.2394613 C22.9123991,10.084154 22.8316157,9.83426103 22.8327377,9.49562103 C22.8335231,9.18734187 22.9051062,8.9561325 23.0335743,8.77863843 C23.1603594,8.60347982 23.3555861,8.51239734 23.6136444,8.51239734 C23.8290669,8.51239734 23.9939998,8.53843759 24.1667866,8.59472189 C24.1667866,8.59472189 24.2077394,8.6132887 24.2273742,8.55712117 C24.2732637,8.42516835 24.3071479,8.33058269 24.3564034,8.18578491 C24.3703161,8.1443307 24.3362075,8.12681484 24.3237534,8.12179362 C24.255985,8.09423534 24.0959889,8.04904441 23.9748137,8.03001051 C23.8614925,8.01202756 23.7302194,8.00268577 23.5821164,8.00268577 C23.3622059,8.00268577 23.1669792,8.04180452 22.9998023,8.1193414 C22.8326255,8.19676151 22.6912544,8.30384181 22.5790552,8.43696236 C22.4668559,8.57008291 22.3815845,8.72889339 22.3243629,8.90989062 C22.2677023,9.08972014 22.2390915,9.28706551 22.2390915,9.49608812 C22.2390915,9.94682963 22.3557787,10.3123273 22.5869091,10.5797361 C22.8180396,10.8483126 23.1658572,10.9837686 23.6191421,10.9837686 C23.8872983,10.9837686 24.1621865,10.9273676 24.3596571,10.8459772 C24.3596571,10.8459772 24.3973561,10.8270601 24.380975,10.7812853 L24.2519459,10.4122845 M25.1663697,9.19785139 C25.1913901,9.02269277 25.237504,8.87672726 25.3099847,8.76345802 C25.4184814,8.59063485 25.5837509,8.4960492 25.8160033,8.4960492 C26.0482557,8.4960492 26.2019687,8.59110194 26.3119239,8.76345802 C26.3848534,8.87731112 26.416718,9.02853139 26.4286111,9.19785139 L25.1607597,9.19761784 L25.1663697,9.19785139 Z M26.9278978,8.81250243 C26.8833547,8.63851154 26.7730628,8.4621852 26.7012553,8.38161224 C26.5868121,8.25433031 26.4757348,8.16441555 26.3646576,8.11537114 C26.2042928,8.04440212 26.0317771,8.00797626 25.857517,8.00828882 C25.6364845,8.00828882 25.4356479,8.04717605 25.272959,8.12623098 C25.1102701,8.20586976 24.973387,8.31423456 24.8656757,8.44969055 C24.7580766,8.58514655 24.677181,8.74512475 24.6255693,8.92845744 C24.5739577,9.10945467 24.5479275,9.30796777 24.5479275,9.51582266 C24.5479275,9.72834845 24.5749675,9.92569382 24.6281499,10.1043556 C24.6818934,10.2841851 24.768399,10.4418279 24.8850862,10.572613 C25.0017734,10.7045658 25.1509984,10.8073255 25.3305172,10.8797244 C25.508914,10.9515394 25.7254585,10.9887898 25.9734188,10.9879856 C26.4850474,10.9862209 26.7543255,10.8676969 26.8642808,10.803472 C26.8839157,10.7920283 26.9024285,10.7722938 26.8793155,10.7154256 L26.7637503,10.3779534 C26.7460228,10.3276245 26.6971039,10.345841 26.6971039,10.345841 C26.5703188,10.3951189 26.3908,10.4836324 25.9700528,10.4824647 C25.6951647,10.4819976 25.4920841,10.3975711 25.3641769,10.265268 C25.2340258,10.129812 25.1689503,9.93246662 25.1588523,9.65221284 L26.9316003,9.65361411 C26.9316003,9.65361411 26.9782752,9.65314702 26.9830998,9.60573742 C26.9850072,9.58611965 27.0437996,9.22739481 26.930254,8.81285275 L26.9278978,8.81250243 Z M10.9956055,9.19785139 C11.0206259,9.02269277 11.066852,8.87672726 11.1392205,8.76345802 C11.2478294,8.59063485 11.4129867,8.4960492 11.6452391,8.4960492 C11.8774916,8.4960492 12.0312045,8.59110194 12.1411598,8.76345802 C12.2139771,8.87731112 12.2458417,9.02853139 12.257847,9.19785139 L10.9899956,9.19761784 L10.9956055,9.19785139 Z M12.7571336,8.81250243 C12.7127027,8.63851154 12.6022987,8.4621852 12.5304911,8.38161224 C12.4160479,8.25433031 12.3049707,8.16441555 12.1938934,8.11537114 C12.0335287,8.04440212 11.861013,8.00797626 11.6867528,8.00828882 C11.4657203,8.00828882 11.2648837,8.04717605 11.1021948,8.12623098 C10.9395059,8.20586976 10.8026228,8.31423456 10.6949115,8.44969055 C10.5875369,8.58514655 10.5064168,8.74512475 10.4548052,8.92845744 C10.4033057,9.10945467 10.3773877,9.30796777 10.3773877,9.51582266 C10.3773877,9.72834845 10.4042033,9.92569382 10.4577224,10.1043556 C10.5113536,10.2841851 10.5979714,10.4418279 10.7135366,10.572613 C10.8302238,10.7045658 10.9794488,10.8073255 11.1589676,10.8797244 C11.3373644,10.9515394 11.5527869,10.9887898 11.8018693,10.9879856 C12.3134978,10.9862209 12.582776,10.8676969 12.6927312,10.803472 C12.7122539,10.7920283 12.730879,10.7722938 12.7076537,10.7154256 L12.5920885,10.3779534 C12.5742488,10.3276245 12.52533,10.345841 12.52533,10.345841 C12.3985448,10.3951189 12.219026,10.4836324 11.7982789,10.4824647 C11.5245127,10.4819976 11.3203101,10.3975711 11.192403,10.265268 C11.0622519,10.129812 10.9971763,9.93246662 10.9870784,9.65221284 L12.7598264,9.65361411 C12.7598264,9.65361411 12.8065013,9.65314702 12.8113258,9.60573742 C12.8132332,9.58611965 12.8720256,9.22739481 12.7583678,8.81285275 L12.7571336,8.81250243 Z M7.16961139,10.4006072 C7.10016006,10.3429216 7.09051093,10.3287922 7.06751008,10.2913082 C7.03239172,10.2349072 7.01443984,10.1546845 7.01443984,10.0519248 C7.01443984,9.89077887 7.06605149,9.77400646 7.17264077,9.69576895 C7.17151878,9.69600249 7.32523174,9.5579775 7.68651329,9.5626484 C7.84732079,9.56564555 8.00775306,9.57988493 8.16672605,9.60527033 L8.16672605,10.4425285 L8.16695045,10.4425285 C8.16695045,10.4425285 7.94255196,10.4928574 7.68898168,10.5087385 C7.32882211,10.5312755 7.16949919,10.4008408 7.17062118,10.4011911 L7.16961139,10.4006072 Z M7.87422263,9.10443346 C7.80241511,9.09894516 7.70928974,9.09625939 7.59821249,9.09625939 C7.44674352,9.09625939 7.29976251,9.11587716 7.16287944,9.15441205 C7.02487437,9.19318049 6.90033321,9.25320151 6.79374393,9.33307384 C6.68686193,9.412432 6.59895024,9.51631269 6.53680767,9.63668211 C6.47408829,9.75812541 6.44211151,9.90058775 6.44211151,10.0617337 C6.44211151,10.2252151 6.46937593,10.3665097 6.52323156,10.4821144 C6.57600472,10.5967821 6.65545056,10.6959226 6.754362,10.7705422 C6.85276073,10.845043 6.97427251,10.9001596 7.11452156,10.9328559 C7.25364862,10.9659025 7.41072756,10.9826009 7.58351439,10.9826009 C7.76527716,10.9826009 7.94591794,10.9667199 8.12094876,10.9360087 C8.27002297,10.9092489 8.41853354,10.8791927 8.56637974,10.8458604 C8.62539655,10.831731 8.6909209,10.8131641 8.6909209,10.8131641 C8.73467861,10.8016037 8.73131263,10.7529096 8.73131263,10.7529096 L8.73030284,9.07138687 C8.73030284,8.70238605 8.63560668,8.42797088 8.44868274,8.25865089 C8.262432,8.08933089 7.98978784,8.00408703 7.63636023,8.00408703 C7.50396513,8.00408703 7.28966458,8.02277062 7.16175744,8.0495115 C7.16175744,8.0495115 6.77579205,8.12751547 6.61646913,8.25736639 C6.61646913,8.25736639 6.58146297,8.2797867 6.60053684,8.33058269 L6.72619999,8.68089993 C6.74179568,8.72632439 6.7843192,8.71079366 6.7843192,8.71079366 C6.7843192,8.71079366 6.79767091,8.70530536 6.8133788,8.69561325 C7.1533425,8.50293877 7.58418759,8.50877739 7.58418759,8.50877739 C7.7749263,8.50877739 7.9230293,8.54906387 8.02176463,8.62788525 C8.11836817,8.70507182 8.16762364,8.82172745 8.16762364,9.06694952 L8.16762364,9.14483671 C8.01615467,9.12194932 7.87590561,9.10875404 7.87590561,9.10875404 L7.87422263,9.10443346 Z M22.1235263,8.15507376 C22.1286805,8.14263179 22.1287602,8.12854502 22.1237471,8.11604074 C22.118734,8.10353646 22.1090577,8.09368633 22.096935,8.08874703 C22.0667534,8.07683625 21.9162943,8.04378965 21.800729,8.03631622 C21.5785745,8.02183644 21.4551554,8.06083843 21.3440781,8.11268538 C21.2343473,8.16418201 21.1129477,8.24697365 21.0456282,8.34272703 L21.0454038,8.118524 C21.0454038,8.08769608 21.0244225,8.06282356 20.9945775,8.06282356 L20.5412926,8.06282356 C20.5118964,8.06282356 20.4905785,8.08769608 20.4905785,8.118524 L20.4905785,10.8626756 C20.4906402,10.8935405 20.5146659,10.9185454 20.5443219,10.9186096 L21.0088268,10.9186096 C21.0384647,10.9185452 21.0624581,10.8935216 21.062458,10.8626756 L21.062458,9.4847612 C21.062458,9.30026079 21.0819807,9.11692811 21.1209138,9.00132342 C21.159286,8.88700323 21.2114586,8.79580398 21.2757488,8.73041143 C21.3370833,8.66725184 21.4121275,8.62039005 21.4945373,8.59378771 C21.5718749,8.57068746 21.6519401,8.5589743 21.7323997,8.55898953 C21.8249641,8.55898953 21.9265044,8.58374528 21.9265044,8.58374528 C21.960613,8.58771554 21.9795746,8.56599587 21.9911312,8.53400023 C22.0215372,8.44980733 22.1078184,8.19769569 22.1246483,8.14748355" id="Shape" fill="#FFFFFE" fill-rule="nonzero"></path>
            <path d="M17.9663313,7.05778543 C17.9123805,7.041135 17.857493,7.02783213 17.8019694,7.0179497 C17.7272846,7.00521892 17.651646,6.99923834 17.5759323,7.00007745 C17.275147,7.00007745 17.03804,7.08685474 16.8715696,7.25825605 C16.7062589,7.42836539 16.5937675,7.68751297 16.5373636,8.02848529 L16.5170161,8.14357826 L16.1394793,8.14357826 C16.1394793,8.14357826 16.0934074,8.1416403 16.083708,8.19299609 L16.0217165,8.54613447 C16.017394,8.57994101 16.0316267,8.60104318 16.0759064,8.60082785 L16.4434275,8.60082785 L16.0705296,10.7264409 C16.0413261,10.8976269 16.0079055,11.0384516 15.9709003,11.1451467 C15.9344223,11.2504423 15.8987878,11.3293601 15.8549298,11.3866374 C15.8124424,11.4420844 15.772169,11.4828891 15.7026922,11.5066829 C15.6453395,11.5263855 15.5793417,11.5354292 15.5070183,11.5354292 C15.4667449,11.5354292 15.4131876,11.5285387 15.3736522,11.5204639 C15.3341168,11.5124968 15.3135583,11.503453 15.2839331,11.4907486 C15.2839331,11.4907486 15.2408132,11.473953 15.2238393,11.5180953 C15.2100283,11.5541628 15.1120859,11.8292447 15.1004889,11.8632665 C15.088681,11.8968578 15.1052331,11.9233431 15.1261078,11.9309873 C15.1750263,11.9488595 15.2113989,11.9602719 15.2780292,11.9763139 C15.3705948,11.9986004 15.4486113,12 15.5216727,12 C15.6747538,12 15.8142347,11.9780365 15.9298889,11.9354015 C16.0462812,11.8924435 16.1475972,11.817617 16.2372108,11.716305 C16.3340989,11.6070259 16.3950362,11.4925789 16.4533377,11.3364659 C16.5110067,11.1817526 16.560136,10.9896797 16.5994605,10.765846 L16.9741508,8.60082785 L17.5219533,8.60082785 C17.5219533,8.60082785 17.5681307,8.60255047 17.5777246,8.55141001 L17.6397161,8.19827164 C17.6440386,8.1644651 17.6299113,8.14336293 17.5854208,8.14357826 L17.0537487,8.14357826 C17.0563844,8.13130454 17.0805273,7.94030836 17.14157,7.76050925 C17.1676107,7.68374472 17.2166346,7.62183784 17.2581731,7.57931051 C17.2969558,7.53880751 17.3447289,7.50844986 17.3974431,7.49081059 C17.4552263,7.47256705 17.5154562,7.46370241 17.5759323,7.46454054 C17.6260105,7.46454054 17.6751398,7.4706774 17.7125667,7.47864454 C17.7641208,7.48984161 17.7841521,7.49576314 17.7976469,7.49985438 C17.8518367,7.51675765 17.8591112,7.5003927 17.8697594,7.47358433 L17.9969053,7.1170007 C18.0099783,7.07867227 17.9781392,7.06252265 17.9663313,7.05778543 M10.5364164,10.7309628 C10.5364164,10.7593861 10.516596,10.7825339 10.488763,10.7825339 L10.0477588,10.7825339 C10.0198204,10.7825339 10,10.7593861 10,10.7309628 L10,7.10612663 C10,7.07781096 10.0198204,7.0548785 10.0477588,7.0548785 L10.488763,7.0548785 C10.516596,7.0548785 10.5364164,7.07781096 10.5364164,7.10612663 L10.5364164,10.7309628" id="Shape" fill="#FFFFFE" fill-rule="nonzero"></path>
        </g>
    </g>
</svg>