<?xml version="1.0" encoding="UTF-8"?>
<svg width="32px" height="32px" viewBox="0 0 32 32" version="1.1" xmlns="http://www.w3.org/2000/svg" xmlns:xlink="http://www.w3.org/1999/xlink">
    <title>1</title>
    <g id="1" stroke="none" stroke-width="1" fill="none" fill-rule="evenodd">
        <g id="iconfinder_7847_-_Cleaning_Lady_3666132" transform="translate(-5.000000, -5.000000)">
            <g id="Layer_x0020_1" transform="translate(7.041247, 5.251296)" fill="#000000" fill-opacity="0.85" fill-rule="nonzero" stroke="#000000" stroke-opacity="0.85" stroke-width="0.2">
                <path d="M8.22919231,22.9550739 C8.22919231,22.5926426 7.93535732,22.2988089 7.57292732,22.2988089 C7.21049608,22.2988089 6.91666232,22.5926439 6.91666232,22.9550739 L6.91666232,28.8724223 C6.91666232,29.2348535 7.21049731,29.5286873 7.57292732,29.5286873 C7.93535855,29.5286873 8.22919231,29.2348523 8.22919231,28.8724223 L8.22919231,22.9550739 Z" id="Path"></path>
                <path d="M21.0008552,22.9550739 C21.0008552,22.5926426 20.7070202,22.2988089 20.3445902,22.2988089 C19.9821589,22.2988089 19.6883252,22.5926439 19.6883252,22.9550739 L19.6883252,28.8724223 C19.6883252,29.2348535 19.9821602,29.5286873 20.3445902,29.5286873 C20.7070214,29.5286873 21.0008552,29.2348523 21.0008552,28.8724223 L21.0008552,22.9550739 Z" id="Path"></path>
                <path d="M23.6364603,22.532469 C22.6681666,20.169819 22.3664123,18.6149233 23.0380108,16.1098465 C23.3303926,15.019281 23.6559097,13.8052316 23.6559097,12.0054294 C23.6559097,6.26402582 21.1744025,2.58365944 17.9942714,0.958946912 C16.739432,0.317841306 15.377271,-0.00142258049 14.01479,0 C12.6486054,0.00140962911 11.2852324,0.322518937 10.0319434,0.962047696 C6.83303528,2.59440759 4.33072697,6.28656803 4.33072697,12.005454 C4.33072697,13.8045056 4.65612352,15.0227939 4.9484598,16.1173523 C5.59387821,18.5340138 5.26535442,20.4430818 4.31805929,22.7226381 C4.79908075,22.6119198 5.29388348,22.5538121 5.79404491,22.5526979 C6.72842687,20.0169823 6.92251505,18.4287102 6.21482687,15.7789608 C5.94434127,14.7661733 5.64326373,13.6389828 5.64326373,12.0054417 C5.64326373,6.85088616 7.83054712,3.5578348 10.6266916,2.13098185 C11.6996737,1.58347132 12.8592686,1.3085788 14.0147968,1.30739139 C15.1739795,1.3061803 16.3326084,1.57763459 17.3995366,2.12275 C20.1764981,3.54151877 22.3433865,6.82527393 22.3433865,12.005454 C22.3433865,13.6390751 22.0421877,14.762408 21.7716542,15.7714918 C21.0355747,18.5168918 21.2137523,19.7731339 22.1839828,22.4115999 C22.6868285,22.4115999 23.1387352,22.4346591 23.6364726,22.5324425 L23.6364603,22.532469 Z" id="Path"></path>
                <path d="M9.43394544,23.611345 C9.79637668,23.611345 10.0902104,23.31751 10.0902104,22.95508 C10.0902104,22.5926488 9.79637545,22.298815 9.43394544,22.298815 L6.0652694,22.298815 C4.4331556,22.298815 2.9088002,22.9691812 1.79764892,24.0486233 C0.697178122,25.1177294 0,26.5885532 0,28.2097896 L0,30.8411558 C0,31.203587 0.293834994,31.4974208 0.656264996,31.4974208 L27.2613017,31.4974208 C27.623733,31.4974208 27.9175667,31.2035858 27.9175667,30.8411558 L27.9175667,28.2097896 C27.9175667,26.5780388 27.2839731,25.0946888 26.2392857,24.0217375 C25.2030516,22.957504 23.766644,22.298815 22.1449461,22.298815 L18.5525522,22.298815 C18.190121,22.298815 17.8962872,22.59265 17.8962872,22.95508 C17.8962872,23.3175112 18.1901222,23.611345 18.5525522,23.611345 L22.1449461,23.611345 C23.398352,23.611345 24.5053382,24.1171457 25.3010277,24.9343155 C26.1127503,25.7680082 26.6050367,26.9277753 26.6050367,28.2097896 L26.6050367,30.1848846 L1.3125423,30.1848846 L1.3125423,28.2097896 C1.3125423,26.9576142 1.85460307,25.8181252 2.71023927,24.9868812 C3.58372528,24.1383184 4.78212918,23.611345 6.0652817,23.611345 L9.43395775,23.611345 L9.43394544,23.611345 Z" id="Path"></path>
                <path d="M9.69554336,22.3552198 C9.36426085,22.2108333 8.97860389,22.3623167 8.83421439,22.693599 C8.68982797,23.0248815 8.84131137,23.4105385 9.17259363,23.554928 L13.6925589,25.5290078 L13.691808,25.5307518 C13.8736659,25.6101749 14.0719697,25.600632 14.2379865,25.5212084 L18.8114342,23.5574952 C19.1441213,23.4145134 19.29793,23.0288534 19.1549482,22.6961663 C19.0119663,22.3634792 18.6263063,22.2096705 18.2936192,22.3526523 L13.9550006,24.2155284 L9.69553814,22.3552178 L9.69554336,22.3552198 Z" id="Path"></path>
                <path d="M20.0425652,8.99354656 C19.9264943,8.65092835 19.5546162,8.46730286 19.211998,8.5833737 C18.8693798,8.69944455 18.6857543,9.07132272 18.8018251,9.41394092 C19.0663036,10.1864976 19.0706151,11.0053139 18.9346094,11.8181315 C18.7916762,12.6725084 18.493796,13.5261592 18.1728316,14.3198369 C17.7046477,15.4776661 17.1169531,16.57794 16.3863984,17.3779424 C15.7179456,18.1099981 14.9259414,18.5825417 13.9933497,18.5825417 C13.9197639,18.5825417 13.8711019,18.5819119 13.8466863,18.580725 C12.5902042,18.5186201 11.3872968,17.6518925 10.4843041,16.2998521 C9.53735291,14.8819508 8.93401042,12.9459971 8.93401042,10.8263465 C8.93401042,10.6199524 8.93791014,10.4360112 8.94580645,10.2759776 C8.96278595,9.9149509 8.68389538,9.60849682 8.32286873,9.59151634 C7.96184208,9.57453684 7.655388,9.85342741 7.63840751,10.2144541 C7.62704745,10.4441742 7.62147643,10.6479283 7.62147643,10.8263465 C7.62147643,13.2083948 8.31262525,15.4036209 9.3973768,17.0278535 C10.5261176,18.7179101 12.0924198,19.8044274 13.785165,19.8881178 C13.8787096,19.89272 13.94842,19.8950695 13.9933519,19.8950695 C15.3411779,19.8950695 16.4479487,19.2535763 17.3554203,18.2597565 C18.2008331,17.3339509 18.8665235,16.0963811 19.3879475,14.8068855 C19.7382924,13.9405424 20.0648044,13.0006848 20.226605,12.0334616 C20.3953831,11.0247408 20.3849677,9.99369311 20.0425673,8.99354867 L20.0425652,8.99354656 Z" id="Path"></path>
                <path d="M17.7064565,23.3729415 C17.9372182,23.6518318 18.3504167,23.6908531 18.6293089,23.460092 C18.9081992,23.2293302 18.9472205,22.8161317 18.7164594,22.5372395 C18.7133106,22.5334367 17.611965,21.2329167 17.2286551,18.4597574 C17.1791215,18.1015891 16.8485414,17.8513774 16.4903732,17.9009112 C16.1322049,17.9504448 15.8819931,18.2810249 15.9315269,18.6391931 C16.366866,21.7887594 17.7026285,23.3683137 17.7064552,23.3729402 L17.7064565,23.3729415 Z" id="Path"></path>
                <path d="M9.26998532,22.5372678 C9.0392236,22.8161581 9.07824488,23.2293579 9.35713582,23.4601203 C9.63602614,23.690882 10.0492259,23.6518607 10.2799883,23.3729698 C10.2838153,23.3683434 11.6196009,21.7887889 12.0549166,18.6392227 C12.1044503,18.2810544 11.8542386,17.9504733 11.4960703,17.9009407 C11.1379021,17.851407 10.8073209,18.1016186 10.7577884,18.4597869 C10.3745019,21.2329217 9.27313409,22.5334669 9.26998409,22.537269 L9.26998532,22.5372678 Z" id="Path"></path>
                <path d="M11.8010005,4.84956985 C11.5900764,4.55650944 11.1814527,4.48994778 10.8883917,4.70087187 C10.5953313,4.91179595 10.5287696,5.32041964 10.7396937,5.61348067 C11.6678741,6.90472353 13.1259564,7.83542639 14.7090729,8.50953935 C16.2468465,9.1643524 17.9040558,9.57937145 19.2892819,9.847214 C19.6446164,9.91515624 19.9878136,9.68216614 20.0557601,9.32683165 C20.1237024,8.97149715 19.8907123,8.62830001 19.5353778,8.56035346 C18.2213651,8.30629033 16.6558874,7.91537187 15.2217562,7.30469578 C13.8329493,6.71331962 12.5695828,5.91879287 11.8010005,4.84956985 L11.8010005,4.84956985 Z" id="Path"></path>
                <path d="M13.4127316,7.00596844 C13.5642147,6.67752033 13.420749,6.2884445 13.0923006,6.13696134 C12.7638525,5.98547819 12.3747766,6.12894391 12.2232935,6.45739233 C11.886416,7.18853142 11.296442,7.84712201 10.6283829,8.37314791 C9.84674535,8.98857361 8.97933786,9.41080937 8.29133904,9.55204887 C7.93740913,9.62425408 7.7090216,9.96973066 7.78122681,10.3236581 C7.85343202,10.677588 8.1989086,10.9059756 8.55283606,10.8337704 C9.42891836,10.653923 10.5018943,10.1410958 11.4384604,9.40368741 C12.2540835,8.76149284 12.9823126,7.94012954 13.4127371,7.00596906 L13.4127316,7.00596844 Z" id="Path"></path>
                <path d="M5.01219015,26.1560184 L22.905315,26.1560184 C23.2677463,26.1560184 23.56158,26.4498534 23.56158,26.8122834 L23.56158,30.1849339 L22.2490439,30.1849339 L22.2490439,27.4685484 L5.6684613,27.4685484 L5.6684613,30.1849339 L4.35592515,30.1849339 L4.35592515,26.8122834 C4.35592515,26.4498522 4.64976015,26.1560184 5.01219015,26.1560184 Z" id="Path"></path>
            </g>
            <rect id="Rectangle" x="0" y="0" width="42" height="42"></rect>
        </g>
    </g>
</svg>