<?xml version="1.0" encoding="UTF-8"?>
<svg width="111px" height="64px" viewBox="0 0 111 64" version="1.1" xmlns="http://www.w3.org/2000/svg" xmlns:xlink="http://www.w3.org/1999/xlink">
    <title>logo</title>
    <defs>
        <linearGradient x1="24.0426609%" y1="50.0013022%" x2="89.301044%" y2="50.0013022%" id="linearGradient-1">
            <stop stop-color="#FF8741" offset="0%"></stop>
            <stop stop-color="#ED2D7B" offset="100%"></stop>
        </linearGradient>
        <linearGradient x1="24.0426609%" y1="50.0013022%" x2="89.301044%" y2="50.0013022%" id="linearGradient-2">
            <stop stop-color="#FF8741" offset="0%"></stop>
            <stop stop-color="#ED2D7B" offset="100%"></stop>
        </linearGradient>
    </defs>
    <g id="Page-1" stroke="none" stroke-width="1" fill="none" fill-rule="evenodd">
        <g id="About-Us" transform="translate(-243.000000, -6522.000000)" fill-rule="nonzero">
            <g id="Group-22" transform="translate(211.000000, 6488.000000)">
                <g id="logo" transform="translate(32.000000, 34.000000)">
                    <g id="Group-35-Copy">
                        <g id="Group-43" fill="#262626">
                            <path d="M85.2873979,32.0659064 C86.3282547,32.0659064 87.1809938,32.873202 87.2563649,33.8971763 L87.2617804,34.0448686 L87.2500959,41.2061576 L87.2268064,45.1407955 L87.1943592,48.1189088 L87.1571052,50.354055 L87.1094247,52.3904694 L87.0630548,53.8925562 C86.7033595,64.277207 75.5708586,67.3045914 68.3989108,59.9355595 C67.6374825,59.1532071 67.6529769,57.9002938 68.4335187,57.1370992 C69.2140605,56.3739046 70.4640744,56.3894351 71.2255028,57.1717874 C76.1359526,62.2171757 82.8871607,60.381245 83.1166673,53.7552294 L83.1623905,52.2723456 L83.2008855,50.6749981 L83.2260031,49.283252 C81.5639824,51.0334981 79.2870495,52.1127643 76.77539,52.1127643 C71.686757,52.1127643 67.5616049,47.6827076 67.5616049,42.2179543 C67.5616049,36.753201 71.686757,32.323143 76.77539,32.323143 C79.3315625,32.323143 81.6446148,33.4410032 83.3137873,35.2463425 L83.3130154,34.0448686 C83.3130154,32.9519179 84.1969766,32.0659064 85.2873979,32.0659064 Z M24.7161536,30.9342129 C25.7570104,30.9342129 26.6097495,31.7415086 26.6851207,32.7654829 L26.6905361,32.9131751 L26.690192,34.4235945 C27.3835817,33.8796032 28.0914029,33.4433712 28.8160047,33.1166156 C30.7103685,32.2623615 32.1612431,31.976703 33.4195044,31.9931009 L33.6997768,32.0030308 C34.7901982,32.0030308 35.6741593,32.8890424 35.6741593,33.981993 C35.6741593,35.0749436 34.7901982,35.9609552 33.6997768,35.9609552 L33.4839787,35.9539372 C33.2286197,35.9429564 32.9723026,35.9556729 32.5903177,36.0228071 C31.9789518,36.1302553 31.2643429,36.3525924 30.4361435,36.726065 C29.2578445,37.2574132 27.9960071,38.3856003 26.6896307,40.1391337 L26.6905361,52.3879584 C26.6905361,53.480909 25.806575,54.3669206 24.7161536,54.3669206 C23.6752969,54.3669206 22.8225578,53.5596249 22.7471866,52.5356506 L22.7417711,52.3879584 L22.7417711,32.9131751 C22.7417711,31.8202245 23.6257323,30.9342129 24.7161536,30.9342129 Z M36.2425175,1.83000651 C36.3246444,2.91985282 35.5097711,3.8700793 34.4224469,3.95239675 C21.722061,4.91389779 13.2737973,9.45675185 8.8258464,17.5479569 C6.2092843,22.3077083 4.86855097,26.1083679 4.30846489,30.0725057 C4.07270783,31.7411305 3.96094236,33.0846932 3.95087943,35.0859411 L3.95360678,36.0843758 L3.95822698,36.3671912 C5.64813258,34.2457193 8.15916719,32.9010989 10.9626395,32.9010989 C16.0512725,32.9010989 20.1764246,37.3311568 20.1764246,42.7959102 C20.1764246,48.2606635 16.0512725,52.6907202 10.9626395,52.6907202 C8.37279566,52.6907202 6.03251928,51.5432163 4.3586165,49.6958218 L4.36122716,49.8159386 L4.37246414,50.8321834 L4.37869305,52.3879584 C4.37869305,53.480909 3.49473188,54.3669206 2.40431053,54.3669206 C1.31388918,54.3669206 0.429928019,53.480909 0.429928019,52.3879584 L0.423806891,50.8636735 L0.412756281,49.8670009 L0.385320933,48.3601913 L0.327619758,46.2428218 L0.267795208,44.501693 L0.0928082466,39.7935758 L0.0487202004,38.3576334 L0.0183469576,37.0820972 L0.00492835919,36.2170939 L0,35.167798 L0.00326021261,34.6813726 L0.0216044851,33.7708192 L0.0460039129,33.1312724 L0.079805685,32.5182874 L0.139938151,31.725786 L0.196663255,31.1376394 L0.240156711,30.7432025 L0.314099508,30.1409642 L0.398710473,29.5175377 C1.02958092,25.0524073 2.52982134,20.7995831 5.36733965,15.6378933 C10.5224875,6.26023618 20.1923237,1.06051044 34.125039,0.00571411391 C35.2123631,-0.0766033334 36.1603906,0.740160192 36.2425175,1.83000651 Z M43.8206377,4.42557739 C44.2103522,3.40481376 45.3518556,2.89398015 46.3702569,3.2845986 C53.0088332,5.83089354 58.8948894,11.6273285 62.0474203,18.4062168 C63.2133272,20.9132749 64.0176035,23.2489387 64.5443515,25.6340722 L64.5443515,25.6340722 L64.6816891,26.2749852 L64.8442135,27.1021625 L64.9841497,27.9142352 L65.0748992,28.5239948 L65.1539588,29.1426322 L65.2217638,29.7775933 L65.2787497,30.4363241 L65.3109446,30.8923605 L65.3386535,31.3644767 L65.3720879,32.1076271 L65.3961543,32.8993675 L65.4112883,33.7471437 L65.4183245,34.9775485 L65.4143092,35.9850318 L65.3973934,37.4554059 L65.3493399,39.969096 L65.2155948,45.4182551 L65.1809152,47.118892 L65.1557346,48.7220535 L65.1363809,50.8015939 L65.1321138,52.3879584 C65.1321138,53.480909 64.2481527,54.3669206 63.1577313,54.3669206 C62.06731,54.3669206 61.1833488,53.480909 61.1833488,52.3879584 L61.1833488,52.3879584 L61.1876643,50.7805696 L61.1996418,49.4720709 C59.5149631,51.4501097 57.0919174,52.6907202 54.3990548,52.6907202 C49.3104219,52.6907202 45.1852698,48.2606635 45.1852698,42.7959102 C45.1852698,37.3311568 49.3104219,32.9010989 54.3990548,32.9010989 C57.2344921,32.9010989 59.770785,34.2765566 61.4609509,36.44006 L61.4624151,36.276502 L61.4685311,35.02428 L61.4585759,33.6269026 L61.4355385,32.6244757 L61.4089331,31.9298684 L61.3865638,31.490417 L61.3603696,31.0676067 L61.3136839,30.4603654 L61.2578197,29.8796943 L61.2153079,29.5041202 L61.1433821,28.9532367 L61.0588298,28.3958971 C60.9573969,27.7707125 60.8348953,27.1504926 60.6889144,26.4894861 C60.2259359,24.3931033 59.5155745,22.3301664 58.4683804,20.0783846 C55.7341599,14.1989893 50.6029637,9.14592088 44.958976,6.98111069 C43.9405747,6.59049225 43.4309232,5.44634102 43.8206377,4.42557739 Z M39.6376459,30.9221367 C40.6785026,30.9221367 41.5312417,31.7294324 41.6066129,32.7534066 L41.6120284,32.9010989 L41.6120284,52.3879584 C41.6120284,53.480909 40.7280672,54.3669206 39.6376459,54.3669206 C38.5967891,54.3669206 37.74405,53.5596249 37.6686788,52.5356506 L37.6632633,52.3879584 L37.6632633,32.9010989 C37.6632633,31.8081483 38.5472245,30.9221367 39.6376459,30.9221367 Z M100.383546,32.2414449 C106.053715,32.2414449 109.702042,35.5797551 110.959131,41.7303158 C111.209934,42.9574198 110.274609,44.1064403 109.024919,44.1064403 L109.024919,44.1064403 L93.857415,44.1067868 C94.2714873,46.334128 95.5965343,47.7993322 97.9492407,48.6993862 C101.0407,49.8820585 103.855532,49.4523911 106.641193,47.3514948 C107.51251,46.694363 108.75033,46.8696327 109.405941,47.7429706 C110.061551,48.6163085 109.886688,49.8569993 109.015371,50.514131 C105.157354,53.4237791 100.916801,54.0710744 96.5411683,52.3971275 C92.0246278,50.6692745 89.6901993,47.1392155 89.7680373,42.195498 C89.7634748,42.0396975 89.7762172,41.885632 89.8079616,41.7303158 C91.065051,35.5797551 94.7133782,32.2414449 100.383546,32.2414449 Z M10.9626395,36.8590234 C8.11805796,36.8590234 5.69761948,39.4583658 5.69761948,42.7959102 C5.69761948,46.1334541 8.11805762,48.7327957 10.9626395,48.7327957 C13.8072215,48.7327957 16.2276596,46.1334541 16.2276596,42.7959102 C16.2276596,39.4583658 13.807221,36.8590234 10.9626395,36.8590234 Z M54.3990548,36.8590234 C51.5544732,36.8590234 49.1340348,39.4583658 49.1340348,42.7959102 C49.1340348,46.1334541 51.5544729,48.7327957 54.3990548,48.7327957 C57.2436367,48.7327957 59.6640748,46.1334541 59.6640748,42.7959102 C59.6640748,39.4583658 57.2436364,36.8590234 54.3990548,36.8590234 Z M76.77539,36.2810676 C73.9308083,36.2810676 71.5103699,38.8804099 71.5103699,42.2179543 C71.5103699,45.5554982 73.930808,48.1548398 76.77539,48.1548398 C79.6199719,48.1548398 82.04041,45.5554982 82.04041,42.2179543 C82.04041,38.8804099 79.6199715,36.2810676 76.77539,36.2810676 Z M100.383546,36.1993693 C97.4604421,36.1993693 95.5278337,37.4079304 94.4031115,40.0851082 L94.4031115,40.0851082 L94.3777643,40.1476532 L106.389097,40.1476532 L106.363982,40.0851082 C105.27234,37.4866709 103.419635,36.2717315 100.638902,36.2025123 L100.638902,36.2025123 L100.383546,36.1993693 Z" id="Combined-Shape"></path>
                        </g>
                        <ellipse id="Oval" fill="url(#linearGradient-1)" cx="39.9202497" cy="3.29836366" rx="2.63251001" ry="2.63861631"></ellipse>
                    </g>
                    <g id="HDTJNFTD" transform="translate(9.848885, 9.813661)" fill="url(#linearGradient-2)">
                        <path d="M44.752669,18.5261852 C44.1697093,16.2737802 43.2405889,14.126026 41.9986587,12.1600161 C38.0189564,5.86561367 31.1019503,2.05080834 23.667277,2.0500565 C21.1046714,2.06915347 18.5650368,2.53622234 16.1625985,3.43025577 C11.6707846,5.1020333 7.84144689,8.1895605 5.24983234,12.229026 C4.00501354,14.1913868 3.0810957,16.3405471 2.51303449,18.5951952 L6.3514365,18.5951952 C6.80513258,16.6950869 7.56687093,14.8824904 8.60628227,13.2296706 C9.61423919,11.6218848 10.8756542,10.1885767 12.3414091,8.98555781 C17.1887526,4.99452703 23.7717634,3.84993362 29.6769798,5.97140815 C35.5821961,8.09288266 39.9409526,13.1683533 41.1552429,19.3370523 C41.1552429,19.7338596 41.310156,20.1479194 41.3790063,20.5447267 L33.5128641,20.5447267 L33.357951,19.7166071 C33.1429512,18.5829794 32.7291875,17.4965208 32.1358589,16.5076439 C31.5479636,15.5550032 30.8096992,14.7043211 29.9498631,13.9887802 C26.2937432,10.9956463 21.0408107,10.9956463 17.3846907,13.9887802 C15.9418046,15.174556 14.8668813,16.7487815 14.286429,18.5261852 L12.1520709,18.5261852 C12.4580752,17.3011496 12.964064,16.1352591 13.6495641,15.0756871 C14.3275443,14.0731462 15.1447702,13.1726936 16.0765357,12.401551 C20.4808541,8.76667691 26.8364872,8.76667691 31.2408056,12.401551 C33.1467422,13.9927349 34.5220465,16.1297023 35.1824829,18.5261852 L38.8487593,18.5261852 C38.4215725,16.9623679 37.7474998,15.4771331 36.8521017,14.1268001 C34.4022172,10.3684906 30.4731813,7.83194692 26.0460655,7.15053844 C21.6189499,6.46912995 17.1116264,7.70717429 13.6495641,10.5555345 C12.2809065,11.7148305 11.1170854,13.0971574 10.2070511,14.6443748 C9.24907078,16.2362202 8.5898691,17.9903725 8.26203122,19.820122 L8.10711813,20.6482416 L0,20.6482416 C0,20.2514344 0.13770052,19.8373745 0.223763345,19.4405672 C1.28318898,13.9795746 4.20394179,9.05766863 8.48579457,5.51780715 C15.0022171,0.095657579 23.8968808,-1.46025187 31.8604579,1.42896683 C39.4400677,4.21183523 45.1051464,10.6428241 46.9214523,18.5261852 L44.752669,18.5261852 Z" id="Path"></path>
                    </g>
                </g>
            </g>
        </g>
    </g>
</svg>