<?xml version="1.0" encoding="UTF-8"?>
<svg width="170px" height="54px" viewBox="0 0 170 54" version="1.1" xmlns="http://www.w3.org/2000/svg" xmlns:xlink="http://www.w3.org/1999/xlink">
    <title>crown@1x</title>
    <g id="crown" stroke="none" stroke-width="1" fill="none" fill-rule="evenodd" fill-opacity="0.85" stroke-opacity="0.85">
        <path d="M54.46875,15.2241444 C51.9702188,15.2241444 49.9375,17.2677667 49.9375,19.7797 C49.9375,20.9668778 50.3956094,22.0460889 51.1378281,22.8578889 C48.90075,25.5001111 45.6536563,28.4243222 42.234375,28.4243222 C38.2029219,28.4243222 34.2670781,20.8980889 32.1115625,15.5831222 C33.548875,14.8182444 34.53125,13.3007889 34.53125,11.5555556 C34.53125,9.04362222 32.4985312,7 30,7 C27.5014687,7 25.46875,9.04362222 25.46875,11.5555556 C25.46875,13.3012444 26.4515781,14.8187 27.8888906,15.5835778 C25.7351875,20.8985444 21.8007031,28.4243222 17.765625,28.4243222 C14.3513281,28.4243222 11.102875,25.4982889 8.86353125,22.8560667 C9.60529688,22.0442667 10.0625,20.9659667 10.0625,19.7797 C10.0625,17.2677667 8.02978125,15.2241444 5.53125,15.2241444 C3.03271875,15.2241444 1,17.2677667 1,19.7797 C1,22.1918667 2.8759375,24.1671556 5.237625,24.3206778 L8.61476563,40.3844778 C7.9799375,40.8851333 7.5703125,41.6614 7.5703125,42.5333333 L7.5703125,45.2666667 C7.5703125,46.7741 8.78967187,48 10.2890625,48 L49.7109375,48 C51.2103281,48 52.4296875,46.7741 52.4296875,45.2666667 L52.4296875,42.5333333 C52.4296875,41.6614 52.0200625,40.8855889 51.3856875,40.3844778 L54.762375,24.3206778 C57.1236094,24.1671556 59,22.1923222 59,19.7797 C59,17.2677667 56.9672812,15.2241444 54.46875,15.2241444 Z M55.1620312,22.4201 C54.9404531,22.4788667 54.7084531,22.5134889 54.46875,22.5134889 C54.3840156,22.5134889 54.3015469,22.5084778 54.218625,22.5007333 C53.7532656,22.4579111 53.3209844,22.2975556 52.9521406,22.0474556 C52.6979375,21.8752556 52.4768125,21.6588667 52.29375,21.4128667 C51.9539062,20.9564 51.75,20.3924222 51.75,19.7797 C51.75,18.2722667 52.9693594,17.0463667 54.46875,17.0463667 C55.9681406,17.0463667 57.1875,18.2722667 57.1875,19.7797 C57.1875,21.0456889 56.3261094,22.1103222 55.1620312,22.4201 Z M50.6171875,45.2666667 C50.6171875,45.7691444 50.2107344,46.1777778 49.7109375,46.1777778 L10.2890625,46.1777778 C9.78926562,46.1777778 9.3828125,45.7691444 9.3828125,45.2666667 L9.3828125,42.5333333 C9.3828125,42.0308556 9.78926562,41.6222222 10.2890625,41.6222222 L49.7109375,41.6222222 C50.2107344,41.6222222 50.6171875,42.0308556 50.6171875,42.5333333 L50.6171875,45.2666667 Z M49.6561094,39.8 L10.3443438,39.8 L7.03789062,24.0714889 C7.15525,24.0295778 7.27125,23.9844778 7.38407812,23.9334556 C9.8649375,26.8799889 13.6086562,30.2465444 17.765625,30.2465444 C23.2520625,30.2465444 27.6056875,21.2443111 29.648375,16.0933444 C29.7648281,16.1024556 29.8812812,16.1111111 30,16.1111111 C30.1187187,16.1111111 30.235625,16.102 30.351625,16.0928889 C32.3938594,21.2447667 36.7479375,30.2465444 42.234375,30.2465444 C46.3917969,30.2465444 50.1350625,26.8799889 52.616375,23.933 C52.7292031,23.9840222 52.84475,24.0295778 52.9625625,24.0714889 L49.6561094,39.8 Z M2.8125,19.7797 C2.8125,18.2722667 4.03185937,17.0463667 5.53125,17.0463667 C7.03064063,17.0463667 8.25,18.2722667 8.25,19.7797 C8.25,20.3915111 8.04654688,20.9550333 7.70760938,21.4110444 C7.52409375,21.6579556 7.3020625,21.8748 7.04785938,22.0474556 C6.67946875,22.2971 6.2471875,22.4574556 5.781375,22.5007333 C5.69890625,22.5084778 5.61598438,22.5134889 5.53170312,22.5134889 C5.292,22.5134889 5.06,22.4788667 4.83842188,22.4201 C3.67389062,22.1103222 2.8125,21.0456889 2.8125,19.7797 Z M30,8.82222222 C31.4993906,8.82222222 32.71875,10.0481222 32.71875,11.5555556 C32.71875,12.5281667 32.2094375,13.3814222 31.446375,13.8661333 C31.1944375,14.0260333 30.9157656,14.1449333 30.6180625,14.2150889 C30.4191406,14.2615556 30.2129688,14.2888889 30,14.2888889 C29.7870313,14.2888889 29.5808594,14.2615556 29.3819375,14.2146333 C29.0842344,14.1449333 28.8055625,14.0255778 28.5540781,13.8656778 C27.7910156,13.3814222 27.28125,12.5281667 27.28125,11.5555556 C27.28125,10.0481222 28.5006094,8.82222222 30,8.82222222 Z" id="Shape" stroke="#000000" stroke-width="0.5" fill="#000000" fill-rule="nonzero"></path>
    </g>
</svg>