<?xml version="1.0" encoding="UTF-8"?>
<svg width="170px" height="54px" viewBox="0 0 170 54" version="1.1" xmlns="http://www.w3.org/2000/svg" xmlns:xlink="http://www.w3.org/1999/xlink">
    <title>digital@1x</title>
    <g id="digital" stroke="none" stroke-width="1" fill="none" fill-rule="evenodd" fill-opacity="0.85">
        <path d="M5.17329671,30.8729894 C7.47067844,30.8729894 9.25925389,32.4340434 9.75144994,34.5799225 L20.6540177,34.5800109 C21.2799404,34.5800109 21.794758,35.0557083 21.8566652,35.6652979 L21.8629066,35.7888998 L21.8629066,42.1785985 C21.8629066,42.8045212 21.3872091,43.3193388 20.7776195,43.381246 L20.6540177,43.3874874 L15.8138888,43.3869739 L13.5780182,45.9314789 C14.0416347,46.6796868 14.3091762,47.5610066 14.3091762,48.5048984 C14.3091762,51.2204483 12.094744,53.4180917 9.36768411,53.4180917 C6.64062418,53.4180917 4.42619199,51.2204483 4.42619199,48.5048984 C4.42619199,45.7893485 6.64062418,43.591705 9.36768411,43.591705 C10.2668055,43.591705 11.110202,43.8305987 11.8368805,44.2481837 L14.3599811,41.3802482 C14.5608041,41.1519005 14.839118,41.0088427 15.1383798,40.9766461 L15.2677526,40.9697096 L19.4448888,40.9689739 L19.4448888,36.9969739 L9.73631248,36.9974076 C9.1946342,39.1290287 7.25205724,40.7048102 4.94149201,40.7048102 C2.21509977,40.7048102 -2.55795385e-13,38.5053905 -2.55795385e-13,35.789267 C0.00120308241,33.0885267 2.42278101,30.8729894 5.17329671,30.8729894 Z M69.2463061,30.8729894 C71.9963646,30.8729894 74.4177777,33.0890654 74.4177777,35.7898055 C74.4177777,38.5059244 72.2039634,40.7048102 69.4762855,40.7048102 C67.1669498,40.7048102 65.2248287,39.1287619 64.6832614,36.9972849 L54.9744977,36.9969739 L54.9744977,40.9689739 L59.1527628,40.9697096 C59.4569073,40.9697096 59.7481746,41.0842625 59.9699959,41.2877804 L60.0606455,41.3803746 L62.582635,44.2487585 C63.3095397,43.8308179 64.1532974,43.591705 65.0528313,43.591705 C67.7798912,43.591705 69.9943234,45.7893485 69.9943234,48.5048984 C69.9943234,51.2204483 67.7798912,53.4180917 65.0528313,53.4180917 C62.3257713,53.4180917 60.1113391,51.2204483 60.1113391,48.5048984 C60.1113391,47.5610066 60.3788807,46.6796868 60.8424972,45.9314789 L58.6054977,43.3869739 L53.7664977,43.3874874 C53.140575,43.3874874 52.6257574,42.9117899 52.5638502,42.3022004 L52.5576088,42.1785985 L52.5576088,35.7888998 C52.5576088,35.1629771 53.0333063,34.6481594 53.6428958,34.5862522 L53.7664977,34.5800109 L64.6683114,34.5797687 C65.160883,32.4343106 66.9501551,30.8729894 69.2463061,30.8729894 Z M21.8629066,45.7162545 L21.8629066,47.9859335 C21.8629066,48.7886021 22.4941998,49.4599855 23.2922859,49.5321063 L23.4347615,49.5385175 L50.9857539,49.5385175 C51.8018554,49.5385175 52.4784876,48.9117268 52.5511502,48.1261228 L52.5576088,47.9859335 L52.5576088,45.7162545 L54.9753866,45.7162545 L54.9753866,47.9859335 C54.9753866,50.1086734 53.2883893,51.8479641 51.1842047,51.9514264 L50.9857539,51.9562953 L23.4347615,51.9562953 C21.3057427,51.9562953 19.5542297,50.2813301 19.4500324,48.1837787 L19.4451288,47.9859335 L19.4451288,45.7162545 L21.8629066,45.7162545 Z M9.36768411,46.0094828 C7.97182435,46.0094828 6.84396976,47.1287866 6.84396976,48.5048984 C6.84396976,49.8810102 7.97182435,51.0003139 9.36768411,51.0003139 C10.7635439,51.0003139 11.8913985,49.8810102 11.8913985,48.5048984 C11.8913985,47.1287866 10.7635439,46.0094828 9.36768411,46.0094828 Z M65.0528313,46.0094828 C63.6569715,46.0094828 62.5291169,47.1287866 62.5291169,48.5048984 C62.5291169,49.8810102 63.6569715,51.0003139 65.0528313,51.0003139 C66.448691,51.0003139 67.5765456,49.8810102 67.5765456,48.5048984 C67.5765456,47.1287866 66.448691,46.0094828 65.0528313,46.0094828 Z M37.2371799,27.5690034 C39.7474891,27.5690034 41.7707323,29.5784331 41.7707323,32.0782555 C41.7707323,34.1620351 40.3658654,35.9054514 38.4448404,36.4287743 L38.4442435,42.5680486 C38.4442435,43.2356995 37.9030056,43.7769375 37.2353547,43.7769375 C36.6094319,43.7769375 36.0946143,43.30124 36.0327071,42.6916505 L36.0264658,42.5680486 L36.0262971,36.4269994 C34.1102498,35.9011922 32.6999771,34.1577326 32.6999771,32.0782555 C32.6999771,29.5823594 34.7356459,27.5690034 37.2371799,27.5690034 Z M5.17329671,33.2907671 C3.71225991,33.2907671 2.41836367,34.4745719 2.41777766,35.7898055 C2.41777766,37.1662287 3.54657181,38.2870324 4.94149201,38.2870324 C6.33967922,38.2870324 7.46885683,37.1666048 7.46885683,35.7898055 C7.46885683,34.3396114 6.5025979,33.2907671 5.17329671,33.2907671 Z M69.2463061,33.2907671 C67.9180914,33.2907671 66.9507459,34.3404034 66.9507459,35.7898055 C66.9507459,37.1664169 68.0797318,38.2870324 69.4762855,38.2870324 C70.87231,38.2870324 71.9999999,37.1669469 71.9999999,35.7898055 C71.9999999,34.4745418 70.7065391,33.2907671 69.2463061,33.2907671 Z M37.2371799,29.9867812 C36.0650191,29.9867812 35.1177548,30.9236625 35.1177548,32.0782555 C35.1177548,33.2350242 36.0644709,34.1715411 37.2371799,34.1715411 C38.4156939,34.1715411 39.3529545,33.2401495 39.3529545,32.0782555 C39.3529545,30.9174568 38.4158811,29.9867812 37.2371799,29.9867812 Z M65.0528313,18.1560851 C67.7808993,18.1560851 69.9961486,20.3545395 69.9961486,23.0710898 C69.9961486,25.7876401 67.7808993,27.9860945 65.0528313,27.9860945 C64.1529649,27.9860945 63.3088954,27.7468934 62.5817222,27.3287987 L60.0603543,30.195039 C59.8595347,30.4232789 59.5812833,30.5662608 59.2821007,30.5984401 L59.1527628,30.6053728 L54.9744977,30.6049739 L54.9753866,32.1878449 L52.5576088,32.1878449 L52.5576088,29.396484 C52.5576088,28.7705612 53.0333063,28.2557436 53.6428958,28.1938364 L53.7664977,28.1875951 L58.6054977,28.1869739 L60.8414354,25.646254 C60.3773441,24.8975993 60.1095139,24.0156642 60.1095139,23.0710898 C60.1095139,20.3545395 62.3247633,18.1560851 65.0528313,18.1560851 Z M9.36768411,18.1560851 C12.0957521,18.1560851 14.3110015,20.3545395 14.3110015,23.0710898 C14.3110015,24.0160872 14.0429314,24.8983892 13.5784564,25.6472597 L15.8138888,28.1869739 L20.6540177,28.1875951 C21.2799404,28.1875951 21.794758,28.6632925 21.8566652,29.2728821 L21.8629066,29.396484 L21.8629066,32.1878449 L19.4451288,32.1878449 L19.4448888,30.6049739 L15.2677526,30.6053728 C14.9637941,30.6053728 14.6726887,30.4909595 14.4509108,30.2876609 L14.3602724,30.1951654 L11.8377929,27.3293737 C11.110846,27.7471127 10.2671379,27.9860945 9.36768411,27.9860945 C6.63961613,27.9860945 4.42436675,25.7876401 4.42436675,23.0710898 C4.42436675,20.3545395 6.63961613,18.1560851 9.36768411,18.1560851 Z M50.9857539,19.6196929 C53.1143304,19.6196929 54.8662589,21.2950839 54.9704818,23.3914223 L54.9753866,23.589149 L54.9753866,25.714822 L52.5576088,25.714822 L52.5576088,23.589149 C52.5576088,22.7877634 51.9259088,22.1160474 51.1281617,22.0438857 L50.9857539,22.0374707 L23.4347615,22.0374707 C22.6190907,22.0374707 21.9420756,22.6646652 21.8693692,23.4491697 L21.8629066,23.589149 L21.8629066,25.714822 L19.4451288,25.714822 L19.4451288,23.589149 C19.4451288,21.4677264 21.1325549,19.7280499 23.2363497,19.624563 L23.4347615,19.6196929 L50.9857539,19.6196929 Z M9.36768411,20.5738628 C7.97081631,20.5738628 6.84214453,21.6939776 6.84214453,23.0710898 C6.84214453,24.448202 7.97081631,25.5683167 9.36768411,25.5683167 C10.7645519,25.5683167 11.8932237,24.448202 11.8932237,23.0710898 C11.8932237,21.6939776 10.7645519,20.5738628 9.36768411,20.5738628 Z M65.0528313,20.5738628 C63.6559635,20.5738628 62.5272917,21.6939776 62.5272917,23.0710898 C62.5272917,24.448202 63.6559635,25.5683167 65.0528313,25.5683167 C66.4496991,25.5683167 67.5783709,24.448202 67.5783709,23.0710898 C67.5783709,21.6939776 66.4496991,20.5738628 65.0528313,20.5738628 Z M38.0340816,0.000164116999 C44.7479362,-0.0341104639 50.2848702,5.30443537 50.484491,11.9452613 L50.4898744,12.2479998 L50.4898744,17.0436702 L48.0720966,17.0436702 L48.0721151,12.2546867 C48.0425612,6.91189256 43.6828056,2.54039337 38.3186194,2.42048546 L38.0402828,2.41809169 L36.3198721,2.41807548 C30.9304302,2.44598639 26.5211865,6.78257662 26.4018549,12.1002652 L26.3995252,12.376176 L26.3977,17.0432373 L23.9799224,17.0422917 L23.981766,12.3823911 C23.9448449,5.70874036 29.3284908,0.202217413 36.00907,0.00558059608 L36.3136116,0.000164116999 L38.0340816,0.000164116999 Z M37.5739355,5.06331613 C41.8485769,5.06331613 45.3577009,8.46611268 45.4885989,12.6865221 L45.4923841,12.930896 L45.4923841,17.0427645 L43.0746063,17.0427645 L43.0746063,12.930896 C43.0746063,10.0106412 40.718794,7.60124446 37.7943102,7.48545012 L37.5739355,7.48109391 L36.8949485,7.48109391 C33.9447016,7.48109391 31.5171537,9.81948368 31.4004918,12.7128786 L31.396103,12.930896 L31.396103,17.0427645 L28.9783252,17.0427645 L28.9783252,12.930896 C28.9783252,8.68032198 32.4064745,5.19700607 36.6492857,5.06707339 L36.8949485,5.06331613 L37.5739355,5.06331613 Z" id="Combined-Shape" fill="#000000" fill-rule="nonzero"></path>
    </g>
</svg>