<?xml version="1.0" encoding="UTF-8"?>
<svg width="235px" height="26px" viewBox="0 0 235 26" version="1.1" xmlns="http://www.w3.org/2000/svg" xmlns:xlink="http://www.w3.org/1999/xlink">
    <title>assessment</title>
    <g id="Page-1" stroke="none" stroke-width="1" fill="none" fill-rule="evenodd">
        <g id="Our-Works" transform="translate(-988.000000, -995.000000)">
            <g id="Group-13" transform="translate(81.000000, 832.000000)">
                <g id="assessment" transform="translate(909.000000, 163.000000)">
                    <path d="M24.6716684,20.6051717 C25.6770208,20.6051717 26.4967696,20.4680151 27.1309149,20.1937018 C27.7650602,19.9193885 28.3876052,19.4088609 28.9985501,18.6621192 L28.9985501,18.6621192 L29.0913519,18.6621192 L29.9613683,20.3765773 L33.1050276,20.3765773 L33.1050276,11.8842947 C33.1050276,10.4060508 32.6429522,9.25545886 31.7188014,8.43251896 C30.7946507,7.60957905 29.489626,7.1981091 27.8037276,7.1981091 C25.4682168,7.1981091 23.534847,7.58671961 22.0036181,8.36394063 L22.0036181,8.36394063 L23.3144428,11.3128086 C24.7915374,10.6727443 26.0095604,10.3527121 26.9685118,10.3527121 C28.0357319,10.3527121 28.569342,10.886099 28.569342,11.952873 L28.569342,11.952873 L28.569342,12.1357485 L26.3769006,12.2043269 C24.5285991,12.2881448 23.1172391,12.6672306 22.1428207,13.3415841 C21.1684023,14.0159376 20.6811931,15.0427076 20.6811931,16.4218939 C20.6811931,17.7477415 21.0369332,18.7764164 21.7484133,19.5079185 C22.4598934,20.2394207 23.4343118,20.6051717 24.6716684,20.6051717 Z M26.5973048,17.4505688 C25.7388886,17.4505688 25.3096805,17.0543384 25.3096805,16.2618778 C25.3096805,15.2332029 26.0559612,14.6921961 27.5485227,14.6388574 L27.5485227,14.6388574 L28.5925424,14.5931385 L28.5925424,15.598954 C28.5925424,16.1475806 28.3972721,16.5933397 28.0067314,16.9362313 C27.6161907,17.2791229 27.1463818,17.4505688 26.5973048,17.4505688 Z M40.7263714,26 L40.7263714,20.799477 C40.7263714,20.5785024 40.6567701,20.0146361 40.5175675,19.1078783 L40.5175675,19.1078783 L40.7263714,19.1078783 C41.2445145,19.6717445 41.7665244,20.06226 42.292401,20.2794247 C42.8182776,20.4965894 43.4137555,20.6051717 44.0788347,20.6051717 C45.5559292,20.6051717 46.725618,20.0051114 47.5879009,18.8049907 C48.4501839,17.60487 48.8813253,15.9608951 48.8813253,13.8730661 C48.8813253,11.8004767 48.4675842,10.1698365 47.6401019,8.98114556 C46.8126196,7.79245459 45.6719314,7.1981091 44.2180373,7.1981091 C42.7332093,7.1981091 41.5693207,7.82293384 40.7263714,9.07258333 L40.7263714,9.07258333 L40.5175675,9.07258333 L39.8795554,7.42670352 L36.1906858,7.42670352 L36.1906858,26 L40.7263714,26 Z M42.6056069,17.0048096 C41.9559946,17.0048096 41.4803857,16.7571657 41.17878,16.2618778 C40.8771743,15.7665899 40.7263714,14.9626995 40.7263714,13.8502067 L40.7263714,13.8502067 L40.7263714,13.4958853 C40.7495719,12.5738878 40.8945746,11.8785798 41.1613796,11.4099613 C41.4281847,10.9413427 41.8941268,10.7070334 42.559206,10.7070334 C43.1701509,10.7070334 43.6070925,10.9489625 43.8700308,11.4328207 C44.132969,11.9166789 44.2644382,12.7148544 44.2644382,13.8273472 C44.2644382,14.9626995 44.132969,15.7761146 43.8700308,16.2675926 C43.6070925,16.7590706 43.1856178,17.0048096 42.6056069,17.0048096 Z M56.0038597,26 L56.0038597,20.799477 C56.0038597,20.5785024 55.9342584,20.0146361 55.7950558,19.1078783 L55.7950558,19.1078783 L56.0038597,19.1078783 C56.5220029,19.6717445 57.0440127,20.06226 57.5698893,20.2794247 C58.0957659,20.4965894 58.6912438,20.6051717 59.356323,20.6051717 C60.8334176,20.6051717 62.0031063,20.0051114 62.8653892,18.8049907 C63.7276722,17.60487 64.1588136,15.9608951 64.1588136,13.8730661 C64.1588136,11.8004767 63.7450725,10.1698365 62.9175902,8.98114556 C62.0901079,7.79245459 60.9494197,7.1981091 59.4955256,7.1981091 C58.0106976,7.1981091 56.846809,7.82293384 56.0038597,9.07258333 L56.0038597,9.07258333 L55.7950558,9.07258333 L55.1570438,7.42670352 L51.4681741,7.42670352 L51.4681741,26 L56.0038597,26 Z M57.8830952,17.0048096 C57.2334829,17.0048096 56.757874,16.7571657 56.4562683,16.2618778 C56.1546626,15.7665899 56.0038597,14.9626995 56.0038597,13.8502067 L56.0038597,13.8502067 L56.0038597,13.4958853 C56.0270602,12.5738878 56.1720629,11.8785798 56.438868,11.4099613 C56.705673,10.9413427 57.1716151,10.7070334 57.8366943,10.7070334 C58.4476392,10.7070334 58.8845808,10.9489625 59.1475191,11.4328207 C59.4104574,11.9166789 59.5419265,12.7148544 59.5419265,13.8273472 C59.5419265,14.9626995 59.4104574,15.7761146 59.1475191,16.2675926 C58.8845808,16.7590706 58.4631062,17.0048096 57.8830952,17.0048096 Z M68.2188903,26 C69.7810531,26 71.0474103,25.6380588 72.017962,24.9141765 C72.9885136,24.1902942 73.806329,22.9520744 74.4714083,21.1995172 L74.4714083,21.1995172 L79.6683063,7.42670352 L75.039819,7.42670352 L72.7545759,14.8788816 C72.6308402,15.2751119 72.5380384,15.7361106 72.4761706,16.2618778 L72.4761706,16.2618778 L72.3833689,16.2618778 C72.3447015,15.7132512 72.2712334,15.2446326 72.1629647,14.8560221 L72.1629647,14.8560221 L69.9357227,7.42670352 L65.1564325,7.42670352 L70.3301301,20.1937018 C70.0749253,20.8261463 69.8351874,21.2814302 69.6109165,21.5595534 C69.3866456,21.8376766 69.1237073,22.0529364 68.8221016,22.2053327 C68.520496,22.3577289 68.1686226,22.4339271 67.7664817,22.4339271 C67.2406051,22.4339271 66.7727296,22.3882082 66.3628552,22.2967704 L66.3628552,22.2967704 L66.3628552,25.8056947 C66.9970005,25.9352316 67.6156789,26 68.2188903,26 Z M90.8741178,20.3765773 L91.732534,17.2448338 L97.242638,17.2448338 L98.0778538,20.3765773 L103.089148,20.3765773 L97.4862426,3.59774701 L91.3729272,3.59774701 L85.8396228,20.3765773 L90.8741178,20.3765773 Z M96.29142,13.5416042 L92.683752,13.5416042 C93.3874986,10.9203882 93.8418405,9.1640211 94.0467777,8.27250287 C94.2517149,7.38098463 94.3889841,6.74092026 94.4585855,6.35230975 C94.5359202,6.77139952 94.6963899,7.46480259 94.9399945,8.43251896 C95.1835991,9.40023533 95.3904697,10.1888861 95.5606063,10.7984712 L95.5606063,10.7984712 L96.29142,13.5416042 Z M109.237264,20.6051717 C111.031432,20.6051717 112.407991,20.2508504 113.366942,19.5422077 C114.325894,18.833565 114.805369,17.7858406 114.805369,16.3990344 C114.805369,15.7056314 114.699034,15.1170007 114.486363,14.6331426 C114.273693,14.1492844 113.941153,13.7282896 113.488745,13.3701584 C113.036336,13.0120271 112.34999,12.6462761 111.429706,12.2729052 C110.192349,11.7928569 109.444135,11.4747297 109.185063,11.3185235 C108.925992,11.1623173 108.796456,10.9737269 108.796456,10.7527523 C108.796456,10.394621 109.167663,10.2155554 109.910077,10.2155554 C110.335418,10.2155554 110.884495,10.3088981 111.557308,10.4955836 C112.230121,10.682269 112.868133,10.9089585 113.471344,11.175652 L113.471344,11.175652 L114.700967,8.29536231 C113.881219,7.93723105 113.09047,7.6648227 112.328723,7.47813726 C111.566975,7.29145182 110.753026,7.1981091 109.886877,7.1981091 C108.162311,7.1981091 106.828286,7.53338091 105.884801,8.20392454 C104.941317,8.87446817 104.469574,9.81170528 104.469574,11.0156359 C104.469574,11.9681126 104.709312,12.7548584 105.188788,13.3758733 C105.668264,13.9968881 106.511213,14.5512296 107.717636,15.0388976 C109.040061,15.557045 109.838542,15.9056515 110.113081,16.0847171 C110.387619,16.2637827 110.524889,16.4676128 110.524889,16.6962072 C110.524889,17.1381564 110.033813,17.359131 109.051661,17.359131 C108.394315,17.359131 107.646101,17.2600734 106.807018,17.0619582 C105.967936,16.8638431 105.196521,16.6123892 104.492775,16.3075967 L104.492775,16.3075967 L104.492775,19.8850993 C105.242922,20.1594126 105.977603,20.348003 106.696816,20.4508705 C107.41603,20.553738 108.262846,20.6051717 109.237264,20.6051717 Z M121.904703,20.6051717 C123.698871,20.6051717 125.07543,20.2508504 126.034381,19.5422077 C126.993333,18.833565 127.472808,17.7858406 127.472808,16.3990344 C127.472808,15.7056314 127.366473,15.1170007 127.153802,14.6331426 C126.941132,14.1492844 126.608592,13.7282896 126.156184,13.3701584 C125.703775,13.0120271 125.017429,12.6462761 124.097145,12.2729052 C122.859788,11.7928569 122.111574,11.4747297 121.852502,11.3185235 C121.593431,11.1623173 121.463895,10.9737269 121.463895,10.7527523 C121.463895,10.394621 121.835102,10.2155554 122.577516,10.2155554 C123.002857,10.2155554 123.551935,10.3088981 124.224747,10.4955836 C124.89756,10.682269 125.535572,10.9089585 126.138783,11.175652 L126.138783,11.175652 L127.368407,8.29536231 C126.548658,7.93723105 125.757909,7.6648227 124.996162,7.47813726 C124.234414,7.29145182 123.420465,7.1981091 122.554316,7.1981091 C120.82975,7.1981091 119.495725,7.53338091 118.55224,8.20392454 C117.608756,8.87446817 117.137013,9.81170528 117.137013,11.0156359 C117.137013,11.9681126 117.376751,12.7548584 117.856227,13.3758733 C118.335703,13.9968881 119.178652,14.5512296 120.385075,15.0388976 C121.7075,15.557045 122.505981,15.9056515 122.78052,16.0847171 C123.055058,16.2637827 123.192328,16.4676128 123.192328,16.6962072 C123.192328,17.1381564 122.701252,17.359131 121.7191,17.359131 C121.061754,17.359131 120.31354,17.2600734 119.474458,17.0619582 C118.635375,16.8638431 117.86396,16.6123892 117.160214,16.3075967 L117.160214,16.3075967 L117.160214,19.8850993 C117.910361,20.1594126 118.645042,20.348003 119.364255,20.4508705 C120.083469,20.553738 120.930285,20.6051717 121.904703,20.6051717 Z M136.335376,20.6051717 C137.387129,20.6051717 138.291946,20.5365934 139.049827,20.3994368 C139.807708,20.2622801 140.542388,20.0146361 141.253869,19.6565049 L141.253869,19.6565049 L141.253869,16.4447533 C140.472787,16.8028846 139.747773,17.0562434 139.078828,17.2048298 C138.409882,17.3534161 137.677134,17.4277093 136.880586,17.4277093 C136.006703,17.4277093 135.31649,17.2219743 134.809947,16.8105044 C134.303404,16.3990344 134.034666,15.8313583 134.003732,15.107476 L134.003732,15.107476 L142.112285,15.107476 L142.112285,13.1187045 C142.112285,11.2061312 141.572875,9.741222 140.494054,8.72397684 C139.415234,7.70673168 137.885938,7.1981091 135.906168,7.1981091 C133.825862,7.1981091 132.225032,7.78292982 131.103677,8.95257126 C129.982323,10.1222127 129.421645,11.8004767 129.421645,13.9873633 C129.421645,16.1056716 130.02679,17.7382167 131.23708,18.8849987 C132.447369,20.0317807 134.146801,20.6051717 136.335376,20.6051717 Z M137.994207,12.2957646 L134.096534,12.2957646 C134.158401,11.5871219 134.369139,11.0670696 134.728745,10.7356077 C135.088352,10.4041458 135.534961,10.2384149 136.068571,10.2384149 C136.648582,10.2384149 137.110657,10.4251003 137.454797,10.7984712 C137.798937,11.1718421 137.97874,11.6709399 137.994207,12.2957646 L137.994207,12.2957646 Z M149.25802,20.6051717 C151.052187,20.6051717 152.428746,20.2508504 153.387698,19.5422077 C154.346649,18.833565 154.826125,17.7858406 154.826125,16.3990344 C154.826125,15.7056314 154.719789,15.1170007 154.507119,14.6331426 C154.294448,14.1492844 153.961908,13.7282896 153.5095,13.3701584 C153.057091,13.0120271 152.370745,12.6462761 151.450461,12.2729052 C150.213104,11.7928569 149.46489,11.4747297 149.205819,11.3185235 C148.946747,11.1623173 148.817211,10.9737269 148.817211,10.7527523 C148.817211,10.394621 149.188418,10.2155554 149.930832,10.2155554 C150.356174,10.2155554 150.905251,10.3088981 151.578063,10.4955836 C152.250876,10.682269 152.888888,10.9089585 153.4921,11.175652 L153.4921,11.175652 L154.721723,8.29536231 C153.901974,7.93723105 153.111226,7.6648227 152.349478,7.47813726 C151.58773,7.29145182 150.773782,7.1981091 149.907632,7.1981091 C148.183066,7.1981091 146.849041,7.53338091 145.905556,8.20392454 C144.962072,8.87446817 144.49033,9.81170528 144.49033,11.0156359 C144.49033,11.9681126 144.730068,12.7548584 145.209543,13.3758733 C145.689019,13.9968881 146.531968,14.5512296 147.738391,15.0388976 C149.060816,15.557045 149.859298,15.9056515 150.133836,16.0847171 C150.408375,16.2637827 150.545644,16.4676128 150.545644,16.6962072 C150.545644,17.1381564 150.054568,17.359131 149.072416,17.359131 C148.41507,17.359131 147.666856,17.2600734 146.827774,17.0619582 C145.988691,16.8638431 145.217277,16.6123892 144.51353,16.3075967 L144.51353,16.3075967 L144.51353,19.8850993 C145.263678,20.1594126 145.998358,20.348003 146.717572,20.4508705 C147.436785,20.553738 148.283601,20.6051717 149.25802,20.6051717 Z M161.925459,20.6051717 C163.719626,20.6051717 165.096185,20.2508504 166.055137,19.5422077 C167.014088,18.833565 167.493564,17.7858406 167.493564,16.3990344 C167.493564,15.7056314 167.387228,15.1170007 167.174558,14.6331426 C166.961887,14.1492844 166.629347,13.7282896 166.176939,13.3701584 C165.72453,13.0120271 165.038184,12.6462761 164.1179,12.2729052 C162.880543,11.7928569 162.132329,11.4747297 161.873258,11.3185235 C161.614186,11.1623173 161.48465,10.9737269 161.48465,10.7527523 C161.48465,10.394621 161.855857,10.2155554 162.598271,10.2155554 C163.023613,10.2155554 163.57269,10.3088981 164.245502,10.4955836 C164.918315,10.682269 165.556327,10.9089585 166.159539,11.175652 L166.159539,11.175652 L167.389162,8.29536231 C166.569413,7.93723105 165.778665,7.6648227 165.016917,7.47813726 C164.255169,7.29145182 163.441221,7.1981091 162.575071,7.1981091 C160.850505,7.1981091 159.51648,7.53338091 158.572995,8.20392454 C157.629511,8.87446817 157.157769,9.81170528 157.157769,11.0156359 C157.157769,11.9681126 157.397507,12.7548584 157.876982,13.3758733 C158.356458,13.9968881 159.199407,14.5512296 160.40583,15.0388976 C161.728255,15.557045 162.526737,15.9056515 162.801275,16.0847171 C163.075814,16.2637827 163.213083,16.4676128 163.213083,16.6962072 C163.213083,17.1381564 162.722007,17.359131 161.739855,17.359131 C161.082509,17.359131 160.334295,17.2600734 159.495213,17.0619582 C158.65613,16.8638431 157.884716,16.6123892 157.180969,16.3075967 L157.180969,16.3075967 L157.180969,19.8850993 C157.931117,20.1594126 158.665797,20.348003 159.385011,20.4508705 C160.104224,20.553738 160.95104,20.6051717 161.925459,20.6051717 Z M174.546497,20.3765773 L174.546497,14.7074357 C174.546497,13.2901503 174.7089,12.2690953 175.033706,11.6442705 C175.358512,11.0194458 175.876655,10.7070334 176.588135,10.7070334 C177.106279,10.7070334 177.481352,10.9261031 177.713357,11.3642424 C177.945361,11.8023817 178.061363,12.4595906 178.061363,13.3358692 L178.061363,13.3358692 L178.061363,20.3765773 L182.608649,20.3765773 L182.608649,14.3416847 C182.608649,13.0920352 182.771052,12.1738476 183.095858,11.5871219 C183.420664,11.0003963 183.931074,10.7070334 184.627087,10.7070334 C185.152964,10.7070334 185.537704,10.9261031 185.781309,11.3642424 C186.024913,11.8023817 186.146716,12.4595906 186.146716,13.3358692 L186.146716,13.3358692 L186.146716,20.3765773 L190.682401,20.3765773 L190.682401,11.952873 C190.682401,10.3527121 190.311194,9.16021119 189.56878,8.37537035 C188.826366,7.59052952 187.677945,7.1981091 186.123515,7.1981091 C185.326967,7.1981091 184.598087,7.34860043 183.936874,7.64958308 C183.275662,7.95056573 182.759452,8.36775054 182.388245,8.90113752 L182.388245,8.90113752 L182.028638,8.90113752 C181.263024,7.76578524 179.932865,7.1981091 178.038163,7.1981091 C177.195214,7.1981091 176.443133,7.35431529 175.78192,7.66672766 C175.120708,7.97914003 174.616098,8.43251896 174.268092,9.02686445 L174.268092,9.02686445 L174.001287,9.02686445 L173.432876,7.42670352 L170.010811,7.42670352 L170.010811,20.3765773 L174.546497,20.3765773 Z M200.113379,20.6051717 C201.165133,20.6051717 202.06995,20.5365934 202.827831,20.3994368 C203.585712,20.2622801 204.320392,20.0146361 205.031872,19.6565049 L205.031872,19.6565049 L205.031872,16.4447533 C204.250791,16.8028846 203.525777,17.0562434 202.856831,17.2048298 C202.187885,17.3534161 201.455138,17.4277093 200.65859,17.4277093 C199.784706,17.4277093 199.094493,17.2219743 198.587951,16.8105044 C198.081408,16.3990344 197.812669,15.8313583 197.781735,15.107476 L197.781735,15.107476 L205.890288,15.107476 L205.890288,13.1187045 C205.890288,11.2061312 205.350878,9.741222 204.272058,8.72397684 C203.193237,7.70673168 201.663942,7.1981091 199.684171,7.1981091 C197.603865,7.1981091 196.003035,7.78292982 194.881681,8.95257126 C193.760326,10.1222127 193.199649,11.8004767 193.199649,13.9873633 C193.199649,16.1056716 193.804794,17.7382167 195.015083,18.8849987 C196.225373,20.0317807 197.924805,20.6051717 200.113379,20.6051717 Z M201.772211,12.2957646 L197.874537,12.2957646 C197.936405,11.5871219 198.147142,11.0670696 198.506749,10.7356077 C198.866356,10.4041458 199.312964,10.2384149 199.846574,10.2384149 C200.426585,10.2384149 200.888661,10.4251003 201.2328,10.7984712 C201.57694,11.1718421 201.756744,11.6709399 201.772211,12.2957646 L201.772211,12.2957646 Z M212.989622,20.3765773 L212.989622,14.7074357 C212.989622,13.2444315 213.159759,12.2119467 213.500032,11.6099814 C213.840305,11.0080161 214.393249,10.7070334 215.158863,10.7070334 C215.715674,10.7070334 216.119748,10.9261031 216.371086,11.3642424 C216.622424,11.8023817 216.748093,12.4519708 216.748093,13.3130098 L216.748093,13.3130098 L216.748093,20.3765773 L221.283779,20.3765773 L221.283779,11.952873 C221.283779,10.4441498 220.879705,9.2745084 220.071556,8.44394868 C219.263407,7.61338896 218.132386,7.1981091 216.678492,7.1981091 C215.789142,7.1981091 215.00226,7.35050538 214.317847,7.65529794 C213.633435,7.96009049 213.097891,8.41727933 212.711217,9.02686445 L212.711217,9.02686445 L212.444412,9.02686445 L211.876001,7.42670352 L208.453937,7.42670352 L208.453937,20.3765773 L212.989622,20.3765773 Z M229.31113,20.6051717 C230.053544,20.6051717 230.701223,20.5499281 231.254167,20.4394408 C231.807111,20.3289535 232.389055,20.144173 233,19.8850993 L233,19.8850993 L233,16.6276289 C232.149317,16.9248016 231.418503,17.073388 230.807559,17.073388 C229.98781,17.073388 229.577935,16.6542982 229.577935,15.8161187 L229.577935,15.8161187 L229.577935,10.7756117 L232.802796,10.7756117 L232.802796,7.42670352 L229.577935,7.42670352 L229.577935,4.83215687 L226.608279,4.83215687 L225.436657,7.55243045 L223.418219,8.95828612 L223.418219,10.7756117 L225.007449,10.7756117 L225.007449,16.1132914 C225.007449,17.6372542 225.343856,18.7668916 226.016668,19.5022037 C226.689481,20.2375157 227.787635,20.6051717 229.31113,20.6051717 Z" id="appyAssessment" fill-opacity="0.85" fill="#000000" fill-rule="nonzero"></path>
                    <polyline id="Path" fill-opacity="0.85" fill="#000000" points="5.9092357 12.0393779 5.9092357 19.8066919 1.1815122 19.8066919 1.1815122 10.48575"></polyline>
                    <polyline id="Path" fill-opacity="0.85" fill="#000000" points="1.1815122 7.95140484 1.1815122 0 5.9092357 0 5.9092357 9.32094186"></polyline>
                    <polyline id="Path" fill-opacity="0.85" fill="#000000" points="16.5461949 10.48575 16.5461949 19.8075174 11.8184714 19.8075174 11.8184714 12.0294717"></polyline>
                    <polyline id="Path" fill-opacity="0.85" fill="#000000" points="11.8184714 9.32094186 11.8184714 0 16.5461949 0 16.5461949 7.85894664"></polyline>
                    <path d="M0,10.48575 C2.3779276,12.748053 5.55974286,14.0026669 8.86427224,13.981 C12.1685124,14.0024508 15.3499872,12.7478525 17.7277071,10.48575" id="Path" stroke-opacity="0.85" stroke="#000000" stroke-width="3.35745415"></path>
                </g>
            </g>
        </g>
    </g>
</svg>