<?xml version="1.0" encoding="UTF-8"?>
<svg width="114px" height="22px" viewBox="0 0 114 22" version="1.1" xmlns="http://www.w3.org/2000/svg" xmlns:xlink="http://www.w3.org/1999/xlink">
    <title>Group 3</title>
    <g id="Page-1" stroke="none" stroke-width="1" fill="none" fill-rule="evenodd">
        <g id="About-Us" transform="translate(-383.000000, -7556.000000)" fill="#000000" fill-rule="nonzero">
            <g id="Group-26" transform="translate(31.000000, 2700.000000)">
                <g id="Group-3" transform="translate(352.000000, 4856.000000)">
                    <path d="M40.7313215,17.7045417 C42.8390704,17.7045417 44.419882,17.0674994 45.4316015,15.9632929 C46.4643984,14.8378516 46.8227157,13.4151239 46.8227157,11.355354 L46.8227157,2.81898792 L43.3870851,2.81898792 L43.3870851,11.355354 C43.3870851,12.3958563 43.3027751,13.2027765 42.8179929,13.7973492 C42.3542882,14.3494525 41.6798085,14.7104431 40.7313215,14.7104431 C39.7828346,14.7104431 39.1083549,14.3494525 38.6446502,13.7973492 C38.159868,13.2027765 38.075558,12.3958563 38.075558,11.355354 L38.075558,2.81898792 L34.6399274,2.81898792 L34.6399274,11.355354 C34.6399274,13.4151239 34.9982447,14.8378516 36.0099641,15.9632929 C37.0427611,17.0674994 38.6024952,17.7045417 40.7313215,17.7045417 Z M56.8267575,17.4709595 L56.8267575,5.53703482 L60.5785504,5.53703482 L60.5785504,2.81898792 L49.6604114,2.81898792 L49.6604114,5.53703482 L53.4122043,5.53703482 L53.4122043,17.4709595 L56.8267575,17.4709595 Z M66.9361866,17.4709595 L66.9361866,11.3341192 L72.7746509,11.3341192 L72.7746509,17.4709595 L76.1892041,17.4709595 L76.1892041,2.81898792 L72.7746509,2.81898792 L72.7746509,8.48866388 L66.9361866,8.48866388 L66.9361866,2.81898792 L63.5216335,2.81898792 L63.5216335,17.4709595 L66.9361866,17.4709595 Z M82.5046853,17.4709595 L83.5374822,14.5193304 L88.7225444,14.5193304 L89.7553414,17.4709595 L93.4649793,17.4709595 L87.9848323,2.79775318 L84.4438143,2.79775318 L78.9636672,17.4709595 L82.5046853,17.4709595 Z M87.9426773,11.843753 L84.3173493,11.843753 L86.1300133,6.57753715 L87.9426773,11.843753 Z M102.415147,17.4709595 L107.810984,2.81898792 L104.206733,2.81898792 L100.813258,12.9054901 L97.3987044,2.81898792 L93.7733763,2.81898792 L99.1692134,17.4709595 L102.415147,17.4709595 Z M114,17.4709595 L114,2.81898792 L110.585447,2.81898792 L110.585447,17.4709595 L114,17.4709595 Z" id="UTHAVI" fill-opacity="0.85"></path>
                    <g id="logo">
                        <path d="M25.4538237,1.94657516 C24.9444287,1.20643251 23.6792199,0.0577311264 21.9538024,0.0492594548 C18.5448488,0.0315794195 16.5613249,2.85399004 13.2653537,6.41753017 C9.96889565,2.85399004 7.98683265,0.0315794195 4.57787908,0.0492594548 C2.85294858,0.0577311264 1.58773981,1.20643251 1.07834475,1.94657516 C0.724394282,2.46112105 0.453030128,3.02917325 0.274318699,3.62965953 C1.24197452,2.46122101 2.58120628,1.67222895 4.48048041,2.07980083 C6.65100984,2.42224017 8.26393187,4.38707218 11.4780881,7.64419324 C11.559903,7.72708922 11.6417179,7.80801148 11.7215848,7.88597318 C8.22984234,10.5603553 6.02619735,7.61162697 5.95899227,7.53563899 C6.0076916,7.67823981 7.78180844,13.4074373 13.2673017,9.23796707 C18.749386,13.4099045 20.5269118,7.67823981 20.5736632,7.53563899 C20.5059711,7.61162697 18.3023261,10.5603553 14.8105837,7.88597318 C14.8909376,7.80801148 14.9727525,7.72708922 15.0540804,7.64419324 C18.2682366,4.3875656 19.8816456,2.42224017 22.0516881,2.07980083 C23.9509622,1.67222895 25.288733,2.46122101 26.2559018,3.62965953 C26.0780155,3.02920652 25.8072955,2.46112652 25.4538237,1.94657516 Z" id="Path" fill-opacity="0.85"></path>
                        <path d="M4.48048041,2.07980083 C4.0882903,2.31638968 3.76198812,2.6502299 3.53230432,3.04988113 C2.54224681,2.96402458 1.35544397,3.07455255 0.243638117,3.7367335 C0.253377984,3.70071323 0.262630858,3.66518638 0.273831706,3.62965953 C1.24197452,2.46122101 2.58120628,1.67222895 4.48048041,2.07980083 Z" id="Path"></path>
                        <path d="M20.9130976,15.1413448 C18.5073503,17.1214731 13.2673017,22 13.2673017,22 C13.2673017,22 8.02481813,17.1234468 5.62150586,15.1413448 C0.833387084,11.2008254 -0.643176804,6.89911631 0.243638117,3.7367335 C1.35544397,3.07455255 2.54224681,2.96402458 3.53230432,3.04988113 C2.46724983,4.83855919 2.66886508,8.33894047 6.57844783,12.1383394 C7.80859307,13.3329296 13.2653537,18.0209931 13.2653537,18.0209931 C13.2653537,18.0209931 18.7221144,13.333423 19.9517727,12.1383394 C23.8613554,8.33894047 24.0619967,4.83905262 22.9984032,3.05086799 C23.9865127,2.96303772 25.1733155,3.07208541 26.2846344,3.73081236 C27.1743713,6.89467546 25.7002424,11.2008254 20.9130976,15.1413448 Z" id="Path" fill-opacity="0.85"></path>
                        <path d="M26.2846344,3.73179922 C25.1733155,3.07307226 23.9865127,2.96402458 22.9984032,3.05185484 C22.7700979,2.65111463 22.4441341,2.31642636 22.0516881,2.07980083 C23.9509622,1.67222895 25.288733,2.46122101 26.2559018,3.62965953 C26.2656417,3.6637061 26.2753815,3.69775266 26.2846344,3.73179922 Z" id="Path"></path>
                        <path d="M15.1066759,1.86515947 C15.1070696,2.61998997 14.6586298,3.30072619 13.9704841,3.58991001 C13.2823383,3.87909384 12.490022,3.71976838 11.9630281,3.1862343 C11.4360343,2.65270023 11.2781581,1.85004103 11.5630245,1.15257302 C11.8478909,0.45510501 12.5193933,0.000199690566 13.2643798,0 C14.2812814,0 15.1058692,0.834820933 15.1066759,1.86515947 L15.1066759,1.86515947 Z" id="Path" fill-opacity="0.85"></path>
                    </g>
                </g>
            </g>
        </g>
    </g>
</svg>