<?xml version="1.0" encoding="UTF-8"?>
<svg width="83px" height="40px" viewBox="0 0 83 40" version="1.1" xmlns="http://www.w3.org/2000/svg" xmlns:xlink="http://www.w3.org/1999/xlink">
    <title>8348</title>
    <defs>
        <path d="M22.1086733,9.84967788 C22.1086733,11.4722105 21.6913537,12.9611004 20.8567021,14.3163923 C20.0220504,15.6716842 18.8080299,16.7788074 17.214604,17.6377953 C15.6211782,18.4967831 13.7242711,19.0026239 11.5238258,19.1553329 L10.3003085,26.0558339 C9.82607465,28.7091519 8.53617782,30.035791 6.43057936,30.035791 C5.27344868,30.035791 4.20643844,29.692201 3.22951663,29.0050107 C2.25259482,28.3178205 1.47012064,27.2679622 0.882070621,25.8554044 C0.2940206,24.4428467 0,22.7058084 0,20.6442377 C0,16.7692481 0.621237074,13.4812829 1.86372986,10.7802434 C3.10622264,8.07920387 4.77550089,6.05584066 6.87161467,4.71009306 C8.96772846,3.36434545 11.2772128,2.69148175 13.8001371,2.69148175 C15.5832565,2.69148175 17.09604,3.00643923 18.3385327,3.63636364 C19.5810255,4.26628805 20.5199945,5.12049091 21.1554679,6.19899785 C21.7909414,7.2775048 22.1086733,8.49438597 22.1086733,9.84967788 Z M12.0359959,16.206156 C15.9247138,15.709852 17.8690435,13.6769446 17.8690435,10.1073729 C17.8690435,8.84752412 17.4564662,7.82152627 16.6312993,7.0293486 C15.8061323,6.23717094 14.5304623,5.84108805 12.8042509,5.84108805 C10.8504073,5.84108805 9.14793321,6.46145884 7.69677751,7.70221904 C6.24562182,8.94297924 5.12644663,10.6657012 4.33921838,12.8704366 C3.55199012,15.0751721 3.1583819,17.5900598 3.1583819,20.4151754 C3.1583819,21.5986697 3.27693859,22.648528 3.51405554,23.5647817 C3.75117248,24.4810354 4.05467762,25.1920757 4.42458005,25.6979241 C4.79448248,26.2037725 5.15015256,26.4566929 5.49160096,26.4566929 C5.96583485,26.4566929 6.3262472,25.7981455 6.57284882,24.4810308 L7.51182722,19.0694345 C6.77202236,18.9549028 6.44954815,18.907182 6.54439493,18.9262706 C5.97531426,18.8308275 5.60541738,18.6542604 5.43469318,18.3965641 C5.26396898,18.1388677 5.17860816,17.809594 5.17860816,17.408733 C5.17860816,16.9887834 5.29716485,16.6547376 5.5342818,16.4065855 C5.77139874,16.1584335 6.09861521,16.0343593 6.51594104,16.0343593 C6.70563459,16.0343593 6.84790262,16.0439035 6.9427494,16.0629921 C7.39801393,16.1393466 7.74894174,16.1870674 7.99554337,16.206156 C8.24214499,14.7172438 8.5930728,12.7225131 9.04833733,10.2219041 C9.16215347,9.57289105 9.42297819,9.109999 9.83081933,8.83321403 C10.2386605,8.55642906 10.7176295,8.41803865 11.2677408,8.41803865 C11.8937296,8.41803865 12.344245,8.53734073 12.6193007,8.77594846 C12.8943563,9.01455619 13.0318821,9.39155075 13.0318821,9.90694345 C13.0318821,10.2123613 13.012913,10.4605097 12.9749743,10.6513958 L12.0359959,16.206156 Z M33.891244,22.5231569 C33.891244,23.1087295 34.3711726,24.0919866 34.795719,24.7931088 C34.5716319,25.0307201 34.2158103,25.2445681 32.9353788,25.9699356 C31.6549473,26.6953031 30.2844319,27.0579814 28.8237916,27.0579814 C26.8320092,27.0579814 25.28603,26.5139639 24.1858073,25.4259127 C23.0855847,24.3378614 22.5354817,22.8489715 22.5354817,20.9591983 C22.5354817,19.6420836 22.8105332,18.4156583 23.3606445,17.2798855 C23.9107558,16.1441127 24.6742609,15.242189 25.6511827,14.5740873 C26.6281045,13.9059857 27.7330529,13.5719399 28.966061,13.5719399 C30.0662836,13.5719399 30.9483454,13.9012136 31.6122729,14.5597709 C32.2762003,15.2183283 32.6081591,16.1107078 32.6081591,17.2369363 C32.6081591,18.554051 32.1386746,19.6850346 31.1996915,20.6299213 C30.2607084,21.5748079 28.6720487,22.3240249 26.4336647,22.8775948 C26.9078986,23.7556713 27.8089295,24.1947029 29.1367844,24.1947029 C29.9904054,24.1947029 30.9625703,23.8940617 32.0533082,23.2927702 C33.1440461,22.6914787 33.891244,22.5231569 33.891244,22.5231569 Z M28.4823449,16.3779528 C27.7804787,16.3779528 27.1876953,16.7883519 26.7039767,17.6091625 C26.2202581,18.4299731 25.9784025,19.4225664 25.9784025,20.5869721 L25.9784025,20.6442377 C27.0975944,20.376997 27.9796562,19.976142 28.6246143,19.4416607 C29.2695724,18.9071794 29.5920466,18.2868086 29.5920466,17.5805297 C29.5920466,17.217846 29.492459,16.9267489 29.2932808,16.7072298 C29.0941025,16.4877107 28.8237933,16.3779528 28.4823449,16.3779528 Z M42.9668432,26.4962635 C42.2825137,26.8094163 41.4668111,27.0579814 40.0061707,27.0579814 C38.0143884,27.0579814 36.4684091,26.5139639 35.3681865,25.4259127 C34.2679639,24.3378614 33.7178608,22.8489715 33.7178608,20.9591983 C33.7178608,19.6420836 33.9929123,18.4156583 34.5430237,17.2798855 C35.093135,16.1441127 35.8566401,15.242189 36.8335619,14.5740873 C37.8104837,13.9059857 38.9154321,13.5719399 40.1484402,13.5719399 C41.2486628,13.5719399 42.1307246,13.9012136 42.794652,14.5597709 C43.4585795,15.2183283 43.7905382,16.1107078 43.7905382,17.2369363 C43.7905382,18.554051 43.3210537,19.6850346 42.3820706,20.6299213 C41.4430875,21.5748079 39.8544278,22.3240249 37.6160439,22.8775948 C38.0902778,23.7556713 38.9913086,24.1947029 40.3191635,24.1947029 C41.1727845,24.1947029 42.1449494,23.8940617 43.2356874,23.2927702 C44.3264253,22.6914787 44.6910135,22.6064553 45.4312328,21.6855852 C45.5331407,21.5659451 44.9558162,22.4423436 44.4101479,23.4955203 C43.745709,24.7779322 43.0243272,26.2569259 42.9668432,26.4962635 Z M39.664724,16.3779528 C38.9628579,16.3779528 38.3700744,16.7883519 37.8863558,17.6091625 C37.4026373,18.4299731 37.1607816,19.4225664 37.1607816,20.5869721 L37.1607816,20.6442377 C38.2799736,20.376997 39.1620354,19.976142 39.8069935,19.4416607 C40.4519516,18.9071794 40.7744258,18.2868086 40.7744258,17.5805297 C40.7744258,17.217846 40.6748382,16.9267489 40.4756599,16.7072298 C40.2764817,16.4877107 40.0061724,16.3779528 39.664724,16.3779528 Z M59.3702884,24.9833082 C59.046664,25.2647646 59.0845093,25.4354537 58.1455262,26.0844667 C57.2065431,26.7334797 56.1395329,27.0579814 54.9444635,27.0579814 C53.9390876,27.0579814 53.1234176,26.6953031 52.4974289,25.9699356 C51.4161756,26.6762145 50.2875159,27.0388928 49.1114158,27.0579814 C48.8648142,30.7420848 48.3052266,33.8200783 47.4326363,36.2920544 C46.5600459,38.7640305 45.2796336,40 43.591361,40 C42.5670158,40 41.808253,39.6277775 41.3150497,38.8833214 C40.8218465,38.1388653 40.5752485,37.1080953 40.5752485,35.7909807 C40.5752485,33.9202961 41.0020526,31.7394541 41.8556736,29.2483894 C42.7092946,26.7573247 44.0276451,24.013377 45.8107645,21.0164639 C45.8107645,18.2295256 45.7917954,16.2920598 45.7538567,15.2040086 C45.7348873,14.6504387 45.9530317,14.211407 46.4082962,13.8869005 C46.8635607,13.562394 47.4326329,13.4001432 48.1155297,13.4001432 C48.5138861,13.4001432 48.8031645,13.4812686 48.9833733,13.6435218 C49.1635822,13.8057751 49.2631698,14.1255047 49.2821392,14.6027201 C49.2821392,15.0799356 49.2916237,15.4330697 49.3105931,15.6621331 C49.9176125,14.8985884 50.5151382,14.3497989 51.1031882,14.015748 C51.6912382,13.6816972 52.3172176,13.5146743 52.981145,13.5146743 C54.0434289,13.5146743 54.9112639,13.9441618 55.584676,14.8031496 C56.2580882,15.6621374 56.5947892,16.788349 56.5947892,18.1818182 C56.5947892,19.193515 56.4335521,20.1765641 56.111073,21.130995 C55.788594,22.0854259 55.3428208,22.953945 54.7737401,23.7365784 C55.1720966,23.8511101 55.5040554,23.9083751 55.7696263,23.9083751 C56.3956151,23.9083751 56.9931408,23.6793151 57.5622215,23.2211883 C58.1313021,22.7630614 58.1551043,22.7677431 59.046664,21.6987805 C58.959553,22.909453 59.000666,24.1273617 59.3702884,24.9833082 Z M49.2536853,24.3092341 C49.9365821,24.1565251 50.5673037,23.7795306 51.145869,23.1782391 C51.7244344,22.5769476 52.1844344,21.8325026 52.5258828,20.9448819 C52.8673312,20.0572611 53.0380528,19.1267049 53.0380528,18.1531854 C53.0380528,17.5805268 52.9242384,17.1462673 52.6966061,16.8503937 C52.4689738,16.5545201 52.1654687,16.4065855 51.7860816,16.4065855 C51.1031848,16.4065855 50.2780302,17.1319422 49.3105931,18.5826772 C49.2916237,19.4225764 49.2821392,20.6537738 49.2821392,22.2763064 C49.2821392,23.1543828 49.2726546,23.8320186 49.2536853,24.3092341 Z M43.8189921,37.1939871 C44.3311647,37.1939871 44.7579688,36.0725476 45.0994172,33.8296349 C45.4408656,31.5867223 45.6590099,28.7950537 45.7538567,25.4545455 C44.9381744,27.3634073 44.293226,29.186343 43.8189921,30.9234073 C43.3447582,32.6604716 43.1076448,34.120729 43.1076448,35.3042233 C43.1076448,35.9150591 43.1787789,36.3827233 43.321049,36.7072298 C43.4633192,37.0317363 43.6292986,37.1939871 43.8189921,37.1939871 Z M61.9156668,27.0579814 C61.0620458,27.0579814 60.3649324,26.6618985 59.8243058,25.8697208 C59.2836792,25.0775432 59.0133699,24.089722 59.0133699,22.9062276 C59.0133699,21.4745812 59.1082153,20.1622584 59.2979088,18.9692198 C59.4876024,17.7761811 59.800592,16.5115791 60.2368872,15.1753758 C60.4265808,14.6027173 60.6921478,14.1923181 61.0335962,13.9441661 C61.3750446,13.696014 61.9156631,13.5719399 62.6554679,13.5719399 C63.0727938,13.5719399 63.3620721,13.638749 63.5233116,13.7723694 C63.6845511,13.9059897 63.7651697,14.1064172 63.7651697,14.3736578 C63.7651697,14.5263668 63.6608398,15.0417518 63.4521769,15.9198282 C63.2624833,16.6261071 63.1107308,17.2655662 62.9969146,17.8382248 C62.6175275,19.8425297 62.4278368,21.178713 62.4278368,21.8468146 C62.4278368,22.2476756 62.4752595,22.5292285 62.5701063,22.6914817 C62.6649531,22.853735 62.8167056,22.9348604 63.0253685,22.9348604 C63.3099089,22.9348604 63.6655789,22.6485354 64.0923894,22.0758769 C64.5191999,21.5032183 64.9744576,20.6346992 65.4581762,19.4702935 C65.9418948,18.3058878 66.4113793,16.8742628 66.8666438,15.1753758 C67.0183987,14.6027173 67.2507698,14.1923181 67.5637641,13.9441661 C67.8767585,13.696014 68.346243,13.5719399 68.9722317,13.5719399 C69.4085269,13.5719399 69.7120321,13.6244328 69.8827563,13.7294202 C70.0534805,13.8344076 70.1388413,14.030063 70.1388413,14.3163923 C70.1388413,14.7936077 69.9017279,16.1011585 69.427494,18.2390838 C68.896352,20.6824269 68.6307851,22.1904052 68.6307851,22.7630637 C68.6307851,23.1257475 68.7066613,23.4073004 68.8584162,23.6077309 C69.010171,23.8081613 69.2093463,23.9083751 69.4559479,23.9083751 C69.835335,23.9083751 70.2858504,23.674543 70.8075077,23.2068719 C71.329165,22.7392007 71.689812,22.4909969 72.5624023,21.4411228 C72.7537215,22.8041485 73.0201082,23.4338575 73.312628,24.2184506 C72.4969457,25.2301474 72.230207,25.4354537 71.2912239,26.0844667 C70.3522408,26.7334797 69.2852305,27.0579814 68.0901611,27.0579814 C67.1796321,27.0579814 66.5109723,26.7048472 66.0841618,25.9985684 C65.6573513,25.2922895 65.4439493,24.2996962 65.4439493,23.0207588 C65.1214702,24.3187848 64.6377589,25.3161502 63.9928008,26.0128848 C63.3478427,26.7096193 62.6554716,27.0579814 61.9156668,27.0579814 Z M80.382242,22.8775948 C80.5909049,22.6867087 80.7995647,22.591267 81.0082276,22.591267 C81.2358599,22.591267 81.4208083,22.7201132 81.5630785,22.9778096 C81.7053487,23.2355059 81.7764827,23.5456913 81.7764827,23.9083751 C81.7764827,24.7100971 81.4919466,25.3495562 80.922866,25.8267717 C79.9364595,26.6475822 78.8172843,27.0579814 77.5653068,27.0579814 C75.763218,27.0579814 74.4448676,26.2992202 73.610216,24.781675 C72.7755643,23.2641298 72.3582448,21.2837154 72.3582448,18.8403722 C72.3582448,16.5115608 72.6570076,13.8582826 73.2545423,10.8804581 C73.852077,7.90263364 74.7341388,5.34479714 75.9007542,3.20687187 C77.0673696,1.0689466 78.456854,0 80.0692492,0 C80.9797783,0 81.6958607,0.42471539 82.217518,1.27415891 C82.7391753,2.12360243 83,3.34048361 83,4.92483894 C83,7.19638454 82.3787629,9.83057437 81.1362701,12.8274875 C79.8937774,15.8244006 78.2007878,18.7830921 76.0572506,21.7036507 C76.1900361,22.486284 76.4271495,23.0493898 76.7685979,23.392985 C77.1100463,23.7365801 77.5747885,23.9083751 78.1628385,23.9083751 C78.4853176,23.9083751 78.8504722,23.8129334 79.2583133,23.6220472 C79.6661545,23.4311611 80.0407936,23.1830127 80.382242,22.8775948 Z M79.4432636,2.83464567 C79.0069685,2.83464567 78.5137726,3.62681145 77.9636613,5.21116679 C77.41355,6.79552212 76.9298387,8.76162033 76.5125129,11.1095204 C76.095187,13.4574205 75.8675582,15.7098437 75.8296195,17.8668576 C77.1764437,15.6334892 78.2481962,13.3953822 79.0449092,11.1524696 C79.8416221,8.90955691 80.2399726,6.86233329 80.2399726,5.01073729 C80.2399726,3.56000229 79.9744056,2.83464567 79.4432636,2.83464567 Z" id="path-1"></path>
    </defs>
    <g id="Page-1" stroke="none" stroke-width="1" fill="none" fill-rule="evenodd">
        <g id="Our-Works" transform="translate(-113.000000, -2573.000000)">
            <g id="Group-9" transform="translate(81.000000, 2450.000000)">
                <g id="8348" transform="translate(32.000000, 123.000000)">
                    <mask id="mask-2" fill="white">
                        <use xlink:href="#path-1"></use>
                    </mask>
                    <use id="Mask" fill-opacity="0.85" fill="#000000" xlink:href="#path-1"></use>
                </g>
            </g>
        </g>
    </g>
</svg>