<?xml version="1.0" encoding="UTF-8"?>
<svg width="178px" height="26px" viewBox="0 0 178 26" version="1.1" xmlns="http://www.w3.org/2000/svg" xmlns:xlink="http://www.w3.org/1999/xlink">
    <title>Group 22</title>
    <g id="Page-1" stroke="none" stroke-width="1" fill="none" fill-rule="evenodd">
        <g id="Our-Works" transform="translate(-551.000000, -997.000000)">
            <g id="Group-13" transform="translate(81.000000, 832.000000)">
                <g id="Group-22" transform="translate(472.000000, 165.000000)">
                    <path d="M24.7824846,20.582236 C25.7886664,20.582236 26.6090915,20.4444962 27.2437601,20.1690167 C27.8784286,19.8935372 28.5014873,19.3808392 29.1129363,18.6309227 L29.1129363,18.6309227 L29.2058146,18.6309227 L30.0765488,20.3526697 L33.2228019,20.3526697 L33.2228019,11.8242827 C33.2228019,10.3397542 32.7603453,9.18427058 31.835432,8.357832 C30.9105188,7.53139342 29.6044174,7.11817413 27.9171279,7.11817413 C25.5796902,7.11817413 23.6447251,7.5084368 22.1122329,8.28896212 L22.1122329,8.28896212 L23.4241391,11.250367 C24.9024524,10.6075815 26.1214804,10.2861887 27.081223,10.2861887 C28.1493237,10.2861887 28.683374,10.8218433 28.683374,11.8931526 L28.683374,11.8931526 L28.683374,12.0768056 L26.4891237,12.1456755 C24.6392972,12.2298498 23.2267727,12.6105472 22.2515503,13.2877677 C21.276328,13.9649882 20.7887168,14.9961234 20.7887168,16.3811732 C20.7887168,17.7126576 21.1447504,18.7457058 21.8568175,19.4803179 C22.5688846,20.2149299 23.544107,20.582236 24.7824846,20.582236 Z M26.7097097,17.4142214 C25.8505853,17.4142214 25.421023,17.0163066 25.421023,16.2204768 C25.421023,15.1874286 26.1679195,14.6441217 27.6617125,14.5905563 L27.6617125,14.5905563 L28.7065936,14.544643 L28.7065936,15.5547346 C28.7065936,16.1056937 28.5111621,16.5533479 28.1202992,16.8976973 C27.7294363,17.2420467 27.2592398,17.4142214 26.7097097,17.4142214 Z M40.850434,26 L40.850434,20.7773673 C40.850434,20.5554533 40.7807753,19.9891898 40.6414578,19.0785769 L40.6414578,19.0785769 L40.850434,19.0785769 C41.3690046,19.6448404 41.8914452,20.0370161 42.4177557,20.255104 C42.9440661,20.473192 43.5400354,20.582236 44.2056633,20.582236 C45.6839766,20.582236 46.8546304,19.9796245 47.7176248,18.7744016 C48.5806192,17.5691787 49.0121164,15.9182146 49.0121164,13.8215093 C49.0121164,11.7401084 48.5980339,10.1025357 47.7698689,8.90879106 C46.9417038,7.71504644 45.8000745,7.11817413 44.3449808,7.11817413 C42.8589277,7.11817413 41.6940787,7.74565528 40.850434,9.00061756 L40.850434,9.00061756 L40.6414578,9.00061756 L40.0029193,7.34774041 L36.3110061,7.34774041 L36.3110061,26 L40.850434,26 Z M42.73122,16.9665672 C42.0810717,16.9665672 41.6050704,16.7178704 41.3032158,16.2204768 C41.0013613,15.7230832 40.850434,14.9157752 40.850434,13.7985526 L40.850434,13.7985526 L40.850434,13.4427249 C40.8736536,12.5168076 41.018776,11.8185436 41.2858011,11.3479327 C41.5528263,10.8773218 42.0191529,10.6420164 42.6847808,10.6420164 C43.2962298,10.6420164 43.7335319,10.884974 43.9966871,11.3708893 C44.2598423,11.8568046 44.39142,12.6583735 44.39142,13.775596 C44.39142,14.9157752 44.2598423,15.7326485 43.9966871,16.226216 C43.7335319,16.7197835 43.3117095,16.9665672 42.73122,16.9665672 Z M56.1405275,26 L56.1405275,20.7773673 C56.1405275,20.5554533 56.0708688,19.9891898 55.9315513,19.0785769 L55.9315513,19.0785769 L56.1405275,19.0785769 C56.6590981,19.6448404 57.1815387,20.0370161 57.7078492,20.255104 C58.2341596,20.473192 58.8301289,20.582236 59.4957568,20.582236 C60.9740701,20.582236 62.1447239,19.9796245 63.0077183,18.7744016 C63.8707127,17.5691787 64.3022099,15.9182146 64.3022099,13.8215093 C64.3022099,11.7401084 63.8881274,10.1025357 63.0599624,8.90879106 C62.2317973,7.71504644 61.090168,7.11817413 59.6350743,7.11817413 C58.1490212,7.11817413 56.9841722,7.74565528 56.1405275,9.00061756 L56.1405275,9.00061756 L55.9315513,9.00061756 L55.2930128,7.34774041 L51.6010996,7.34774041 L51.6010996,26 L56.1405275,26 Z M58.0213135,16.9665672 C57.3711652,16.9665672 56.8951639,16.7178704 56.5933093,16.2204768 C56.2914548,15.7230832 56.1405275,14.9157752 56.1405275,13.7985526 L56.1405275,13.7985526 L56.1405275,13.4427249 C56.1637471,12.5168076 56.3088695,11.8185436 56.5758946,11.3479327 C56.8429198,10.8773218 57.3092464,10.6420164 57.9748743,10.6420164 C58.5863233,10.6420164 59.0236254,10.884974 59.2867806,11.3708893 C59.5499358,11.8568046 59.6815135,12.6583735 59.6815135,13.775596 C59.6815135,14.9157752 59.5499358,15.7326485 59.2867806,16.226216 C59.0236254,16.7197835 58.601803,16.9665672 58.0213135,16.9665672 Z M68.3656364,26 C69.9290882,26 71.1964902,25.6365201 72.1678427,24.9095602 C73.1391951,24.1826003 73.9576853,22.9391164 74.6233133,21.1791083 L74.6233133,21.1791083 L79.8244992,7.34774041 L75.192193,7.34774041 L72.9050643,14.8316009 C72.7812266,15.2295157 72.6883483,15.6924744 72.6264294,16.2204768 L72.6264294,16.2204768 L72.5335511,16.2204768 C72.4948518,15.6695178 72.4213231,15.1989069 72.312965,14.8086442 L72.312965,14.8086442 L70.0838854,7.34774041 L65.3006519,7.34774041 L70.4786182,20.1690167 C70.2232028,20.80415 69.9832672,21.2613695 69.7588112,21.5406752 C69.5343553,21.8199808 69.2712001,22.0361557 68.9693455,22.1891999 C68.667491,22.3422441 68.3153273,22.4187662 67.9128546,22.4187662 C67.3865441,22.4187662 66.9182826,22.3728529 66.50807,22.2810264 L66.50807,22.2810264 L66.50807,25.8048687 C67.1427385,25.9349562 67.7619273,26 68.3656364,26 Z M95.3235689,20.3526697 L95.3235689,7.27887052 L99.4566542,7.27887052 L99.4566542,3.57137523 L86.5930068,3.57137523 L86.5930068,7.27887052 L90.7377019,7.27887052 L90.7377019,20.3526697 L95.3235689,20.3526697 Z M107.96663,20.582236 C109.019251,20.582236 109.924815,20.5133661 110.683321,20.3756263 C111.441827,20.2378866 112.177114,19.9891898 112.889181,19.629536 L112.889181,19.629536 L112.889181,16.4041298 C112.107455,16.7637837 111.381844,17.0182196 110.712346,17.1674377 C110.042848,17.3166558 109.309496,17.3912648 108.51229,17.3912648 C107.637686,17.3912648 106.946904,17.1846552 106.439943,16.7714359 C105.932982,16.3582166 105.664022,15.788127 105.633062,15.0611671 L105.633062,15.0611671 L113.748306,15.0611671 L113.748306,13.0639406 C113.748306,11.1432361 113.208451,9.67209891 112.12874,8.650529 C111.04903,7.62895909 109.518472,7.11817413 107.537068,7.11817413 C105.455046,7.11817413 103.852895,7.70548118 102.730615,8.88009527 C101.608335,10.0547094 101.047195,11.7401084 101.047195,13.9362924 C101.047195,16.0636065 101.652839,17.7030923 102.864128,18.8547498 C104.075416,20.0064073 105.77625,20.582236 107.96663,20.582236 Z M109.62683,12.237502 L105.725941,12.237502 C105.78786,11.5258466 105.998771,11.0035833 106.358674,10.6707122 C106.718578,10.3378411 107.165555,10.1714056 107.699605,10.1714056 C108.280095,10.1714056 108.742551,10.3588847 109.086975,10.7338429 C109.431399,11.1088012 109.611351,11.6100209 109.62683,12.237502 L109.62683,12.237502 Z M120.899936,20.582236 C122.695584,20.582236 124.073279,20.2264083 125.033022,19.5147528 C125.992764,18.8030974 126.472636,17.7509186 126.472636,16.3582166 C126.472636,15.6618656 126.366213,15.0707324 126.153366,14.5848171 C125.94052,14.0989019 125.607706,13.6761173 125.154924,13.3164635 C124.702143,12.9568097 124.01523,12.5895036 123.094187,12.2145454 C121.855809,11.7324562 121.106978,11.4129765 120.847692,11.2561062 C120.588407,11.0992359 120.458764,10.9098437 120.458764,10.6879297 C120.458764,10.3282758 120.830278,10.1484489 121.573304,10.1484489 C121.998997,10.1484489 122.548527,10.2421885 123.221894,10.4296676 C123.895262,10.6171467 124.533801,10.8447999 125.13751,11.1126273 L125.13751,11.1126273 L126.368148,8.22009224 C125.547722,7.86043841 124.756322,7.58687194 123.993945,7.39939282 C123.231569,7.2119137 122.416949,7.11817413 121.550085,7.11817413 C119.824096,7.11817413 118.48897,7.45487133 117.544707,8.12826573 C116.600444,8.80166013 116.128313,9.74288184 116.128313,10.9519309 C116.128313,11.908457 116.368248,12.6985476 116.84812,13.3222026 C117.327991,13.9458577 118.171636,14.5025559 119.379054,14.9922973 C120.70257,15.5126475 121.501711,15.862736 121.776476,16.042563 C122.051241,16.2223899 122.188623,16.4270865 122.188623,16.6566527 C122.188623,17.1004809 121.697142,17.3223949 120.71418,17.3223949 C120.056292,17.3223949 119.30746,17.2229162 118.467685,17.0239588 C117.627911,16.8250013 116.85586,16.5724784 116.151532,16.2663901 L116.151532,16.2663901 L116.151532,19.8591022 C116.902299,20.1345818 117.637585,20.3239739 118.357392,20.4272787 C119.077199,20.5305836 119.924714,20.582236 120.899936,20.582236 Z M133.937731,20.582236 C134.680757,20.582236 135.32897,20.5267575 135.88237,20.4158004 C136.43577,20.3048434 137.018195,20.1192773 137.629644,19.8591022 L137.629644,19.8591022 L137.629644,16.5877829 C136.778259,16.886219 136.046843,17.0354371 135.435394,17.0354371 C134.614968,17.0354371 134.204756,16.6145656 134.204756,15.7728226 L134.204756,15.7728226 L134.204756,10.7108863 L137.432277,10.7108863 L137.432277,7.34774041 L134.204756,7.34774041 L134.204756,4.74216322 L131.23265,4.74216322 L130.060061,7.47400186 L128.039957,8.88583443 L128.039957,10.7108863 L129.630499,10.7108863 L129.630499,16.0712587 C129.630499,17.6017006 129.967182,18.7361405 130.64055,19.4745787 C131.313918,20.2130169 132.412978,20.582236 133.937731,20.582236 Z M142.238731,6.08512591 C143.856361,6.08512591 144.665177,5.42703593 144.665177,4.11085597 C144.665177,3.45276599 144.47168,2.9553724 144.084687,2.6186752 C143.697694,2.28197801 143.082375,2.11362941 142.238731,2.11362941 C141.395086,2.11362941 140.783637,2.2781519 140.404384,2.60719689 C140.025131,2.93624188 139.835504,3.43746157 139.835504,4.11085597 C139.835504,5.42703593 140.63658,6.08512591 142.238731,6.08512591 Z M144.49103,20.3526697 L144.49103,7.34774041 L139.951602,7.34774041 L139.951602,20.3526697 L144.49103,20.3526697 Z M152.19993,20.3526697 L152.19993,14.6594262 C152.19993,13.190202 152.370207,12.1533277 152.710761,11.5488032 C153.051315,10.9442787 153.604715,10.6420164 154.370961,10.6420164 C154.928231,10.6420164 155.332639,10.8620174 155.584184,11.3020194 C155.83573,11.7420215 155.961502,12.3943723 155.961502,13.2590719 L155.961502,13.2590719 L155.961502,20.3526697 L160.50093,20.3526697 L160.50093,11.8931526 C160.50093,10.3780152 160.096523,9.2034011 159.287707,8.36931032 C158.478892,7.53521953 157.346937,7.11817413 155.891844,7.11817413 C155.00176,7.11817413 154.214229,7.27121832 153.529251,7.57730668 C152.844274,7.88339504 152.308288,8.34252758 151.921295,8.95470431 L151.921295,8.95470431 L151.65427,8.95470431 L151.085391,7.34774041 L147.660502,7.34774041 L147.660502,20.3526697 L152.19993,20.3526697 Z M168.082123,26 C170.551139,26 172.468689,25.559998 173.834774,24.6799939 C175.200859,23.7999899 175.883902,22.5679842 175.883902,20.983977 C175.883902,18.5276178 174.409459,17.2994383 171.460572,17.2994383 L171.460572,17.2994383 L169.277932,17.2994383 C168.689702,17.2994383 168.213701,17.2401337 167.849927,17.1215244 C167.486154,17.0029152 167.304267,16.8326535 167.304267,16.6107395 C167.304267,16.4347387 167.358446,16.2472595 167.466804,16.0483021 C167.753179,16.1095198 168.140172,16.1401286 168.627783,16.1401286 C170.601448,16.1401286 172.085566,15.7536921 173.080138,14.9808189 C174.07471,14.2079458 174.571996,13.1213321 174.571996,11.7209779 C174.571996,11.1317578 174.448158,10.6152337 174.200483,10.1714056 L174.200483,10.1714056 L176,9.51714168 L176,7.34774041 L171.414133,7.34774041 C171.135498,7.30182715 170.702066,7.25208779 170.113836,7.19852233 C169.525607,7.14495687 169.111525,7.11817413 168.871589,7.11817413 C167.060462,7.11817413 165.667287,7.5084368 164.692064,8.28896212 C163.716842,9.06948745 163.229231,10.1675794 163.229231,11.5832381 C163.229231,12.493851 163.424662,13.2667241 163.815525,13.9018575 C164.206388,14.5369908 164.742374,15.0037756 165.423481,15.3022117 C164.711414,15.7307354 164.243153,16.0999545 164.018697,16.409869 C163.794241,16.7197835 163.682013,17.0775242 163.682013,17.4830913 C163.682013,17.8503973 163.831005,18.2215295 164.12899,18.5964877 C164.426974,18.971446 164.777203,19.2430994 165.179676,19.411448 C163.229231,19.8629283 162.254009,20.8653677 162.254009,22.4187662 C162.254009,23.5742497 162.759034,24.4599929 163.769086,25.0759958 C164.779138,25.6919986 166.216817,26 168.082123,26 Z M168.918028,13.6034213 C167.981505,13.6034213 167.513243,12.9376791 167.513243,11.6061948 C167.513243,10.2747104 167.981505,9.60896818 168.918028,9.60896818 C169.823592,9.60896818 170.276374,10.2823626 170.276374,11.6291514 C170.276374,12.2872414 170.158341,12.7808088 169.922275,13.1098538 C169.686209,13.4388988 169.35146,13.6034213 168.918028,13.6034213 Z M168.302709,23.1992915 C167.629341,23.1992915 167.091421,23.0864214 166.688948,22.8606812 C166.286476,22.6349411 166.085239,22.338418 166.085239,21.9711119 C166.085239,21.6420669 166.253581,21.3646744 166.590265,21.1389342 C166.926949,20.913194 167.339097,20.8003239 167.826708,20.8003239 L167.826708,20.8003239 L169.603006,20.8003239 C170.353772,20.8003239 170.930392,20.8711069 171.332864,21.0126727 C171.735337,21.1542386 171.936573,21.3971962 171.936573,21.7415457 C171.936573,22.1700694 171.605694,22.5201579 170.943936,22.7918113 C170.282178,23.0634648 169.401769,23.1992915 168.302709,23.1992915 Z" id="appyTesting" fill-opacity="0.85" fill="#000000" fill-rule="nonzero"></path>
                    <g id="Group">
                        <polyline id="Path" fill-opacity="0.85" fill="#000000" points="5.94107773 12.0905625 5.94107773 19.8908987 1.1878788 19.8908987 1.1878788 10.5303295"></polyline>
                        <polyline id="Path" fill-opacity="0.85" fill="#000000" points="1.1878788 7.9852097 1.1878788 0 5.94107773 0 5.94107773 9.36056922"></polyline>
                        <polyline id="Path" fill-opacity="0.85" fill="#000000" points="16.6353544 10.5303295 16.6353544 19.8917277 11.8821555 19.8917277 11.8821555 12.0806142"></polyline>
                        <polyline id="Path" fill-opacity="0.85" fill="#000000" points="11.8821555 9.36056922 11.8821555 0 16.6353544 0 16.6353544 7.89235842"></polyline>
                        <path d="M0,10.5303295 C2.39074111,12.8022504 5.58970163,14.0621983 8.91203753,14.0404393 C12.2340827,14.0619812 15.4327009,12.8020492 17.8232332,10.5303295" id="Path" stroke-opacity="0.85" stroke="#000000" stroke-width="3.35853407"></path>
                    </g>
                </g>
            </g>
        </g>
    </g>
</svg>