<?xml version="1.0" encoding="UTF-8"?>
<svg width="136px" height="35px" viewBox="0 0 136 35" version="1.1" xmlns="http://www.w3.org/2000/svg" xmlns:xlink="http://www.w3.org/1999/xlink">
    <title>partner</title>
    <defs>
        <path d="M8.1205931,2.83771654 L26.0481384,2.83646237 C28.9588283,2.83552129 31.3185737,5.19493659 31.3187774,8.10562648 C31.3187774,8.10587231 31.3187774,8.10611815 31.3180399,8.10636393 L31.3167827,26.0725616 C31.3165803,28.964903 28.9853986,31.3166504 26.0931705,31.3422565 L21.91205,31.3792738 C20.326788,31.3933088 18.9761434,30.2313288 18.7532916,28.6617462 L17.7011786,21.2515367 L17.7011786,21.2515367 L12.1708369,29.7799612 C11.5948038,30.6682706 10.6124366,31.2093626 9.55377632,31.2214492 L7.04848057,31.2500518 C4.75529147,31.2762329 2.87507047,29.4384597 2.84888943,27.1452706 C2.84870792,27.1293724 2.84861772,27.1134733 2.84861884,27.097574 L2.84995266,8.10835549 C2.85089602,5.1979542 5.21019181,2.83865908 8.1205931,2.83771654 Z" id="path-1"></path>
        <path d="M3.92418405,13.0381041 C0.587557548,11.5515403 -0.912379787,7.63829308 0.573980243,4.29762192 C2.06034027,0.956950772 5.97014336,-0.546100142 9.30676986,0.940463745 C12.6433964,2.42702763 14.1433337,6.34027482 12.6569737,9.68094597 C11.1706136,13.0216171 7.26081055,14.524668 3.92418405,13.0381041 Z" id="path-3"></path>
        <filter x="-11.3%" y="-11.3%" width="122.7%" height="122.7%" filterUnits="objectBoundingBox" id="filter-4">
            <feOffset dx="0" dy="0" in="SourceAlpha" result="shadowOffsetOuter1"></feOffset>
            <feGaussianBlur stdDeviation="0.5" in="shadowOffsetOuter1" result="shadowBlurOuter1"></feGaussianBlur>
            <feColorMatrix values="0 0 0 0 0.121485661   0 0 0 0 0.0582347375   0 0 0 0 0.165098852  0 0 0 0.123980978 0" type="matrix" in="shadowBlurOuter1"></feColorMatrix>
        </filter>
        <path d="M5.28126313,11.1178475 C2.80538291,10.014771 1.69238294,7.1110204 2.79530813,4.63213892 C3.89823332,2.15325744 6.79942832,1.0379471 9.27530855,2.14102355 C11.7511888,3.24410001 12.8641887,6.14785064 11.7612636,8.62673212 C10.6583384,11.1056136 7.75714336,12.2209239 5.28126313,11.1178475 Z" id="path-5"></path>
        <filter x="-15.3%" y="-15.3%" width="130.6%" height="130.5%" filterUnits="objectBoundingBox" id="filter-6">
            <feOffset dx="0" dy="0" in="SourceAlpha" result="shadowOffsetOuter1"></feOffset>
            <feGaussianBlur stdDeviation="0.5" in="shadowOffsetOuter1" result="shadowBlurOuter1"></feGaussianBlur>
            <feComposite in="shadowBlurOuter1" in2="SourceAlpha" operator="out" result="shadowBlurOuter1"></feComposite>
            <feColorMatrix values="0 0 0 0 0.192123724   0 0 0 0 0.108356889   0 0 0 0 0.0555357641  0 0 0 0.264322917 0" type="matrix" in="shadowBlurOuter1"></feColorMatrix>
        </filter>
        <linearGradient x1="50%" y1="0.876083815%" x2="50%" y2="100%" id="linearGradient-7">
            <stop stop-color="#56238F" offset="0%"></stop>
            <stop stop-color="#651E5F" offset="100%"></stop>
        </linearGradient>
        <linearGradient x1="77.5157969%" y1="-28.5773762%" x2="33.8193507%" y2="122.401599%" id="linearGradient-8">
            <stop stop-color="#FF20D7" offset="0%"></stop>
            <stop stop-color="#FF6A32" offset="100%"></stop>
        </linearGradient>
    </defs>
    <g id="Page-1" stroke="none" stroke-width="1" fill="none" fill-rule="evenodd">
        <g id="Our-Works" transform="translate(-112.000000, -6024.000000)">
            <g id="partner" transform="translate(112.204684, 6024.168980)">
                <path d="M42.7913434,30.8705377 L42.7913434,27.6790391 L44.7851937,27.6790391 C46.7388993,27.6790391 48.0703631,26.3810292 48.0703631,24.4540866 L48.0703631,24.4407051 C48.0703631,22.5070717 46.7388993,21.2157526 44.7851937,21.2157526 L41.065124,21.2157526 L41.065124,30.8705377 L42.7913434,30.8705377 Z M44.3569842,26.2873584 L42.7913434,26.2873584 L42.7913434,22.6275056 L44.3569842,22.6275056 C45.5947772,22.6275056 46.3173806,23.2898922 46.3173806,24.4473958 L46.3173806,24.4607774 C46.3173806,25.6182811 45.5947772,26.2873584 44.3569842,26.2873584 Z M50.5496662,30.9909716 C51.4863744,30.9909716 52.2758855,30.5226176 52.6840227,29.7799418 L52.7241673,29.7799418 L52.7241673,30.8705377 L54.3901697,30.8705377 L54.3901697,25.9929644 C54.3901697,24.5678298 53.2460476,23.6311216 51.4729928,23.6311216 C49.6731749,23.6311216 48.582579,24.5745205 48.4822174,25.8323858 L48.4755266,25.9126751 L50.0210951,25.9126751 L50.0344767,25.8524581 C50.141529,25.3305779 50.6232647,24.9625854 51.4127759,24.9625854 C52.2558132,24.9625854 52.7241673,25.3974856 52.7241673,26.1133983 L52.7241673,26.6018247 L50.8708233,26.7155678 C49.1512946,26.8226202 48.1744418,27.5786775 48.1744418,28.8365428 L48.1744418,28.8499244 C48.1744418,30.1144804 49.1312223,30.9909716 50.5496662,30.9909716 Z M51.0447833,29.7197248 C50.3154891,29.7197248 49.8337535,29.3651139 49.8337535,28.7830166 L49.8337535,28.7763259 C49.8337535,28.2143009 50.2820352,27.85969 51.1050003,27.8061638 L52.7241673,27.7058022 L52.7241673,28.241064 C52.7241673,29.0841014 52.0015639,29.7197248 51.0447833,29.7197248 Z M57.2040114,30.8705377 L57.2040114,26.7557125 C57.2040114,25.7052611 57.7727271,25.1097824 58.7161261,25.1097824 C58.9971385,25.1097824 59.2513879,25.149927 59.3918941,25.2034532 L59.3918941,23.6980293 C59.2647695,23.6645754 59.070737,23.6311216 58.8633231,23.6311216 C58.0470488,23.6311216 57.4582608,24.1463111 57.2374653,25.00273 L57.2040114,25.00273 L57.2040114,23.7783186 L55.538009,23.7783186 L55.538009,30.8705377 L57.2040114,30.8705377 Z M62.6941622,31.011044 C63.0287009,31.011044 63.3230949,30.9775901 63.5171273,30.950827 L63.5171273,29.6996525 C63.4033841,29.7063433 63.2762595,29.7264156 63.1156809,29.7264156 C62.5068206,29.7264156 62.199045,29.5056201 62.199045,28.8097797 L62.199045,25.0629469 L63.5171273,25.0629469 L63.5171273,23.7783186 L62.199045,23.7783186 L62.199045,21.9785007 L60.5062795,21.9785007 L60.5062795,23.7783186 L59.5026636,23.7783186 L59.5026636,25.0629469 L60.5062795,25.0629469 L60.5062795,28.9502859 C60.5062795,30.4088744 61.2088107,31.011044 62.6941622,31.011044 Z M66.1302458,30.8705377 L66.1302458,26.7557125 C66.1302458,25.7320242 66.7391061,25.0361839 67.6958866,25.0361839 C68.6459763,25.0361839 69.1143304,25.6048995 69.1143304,26.6152062 L69.1143304,30.8705377 L70.7803329,30.8705377 L70.7803329,26.2806676 C70.7803329,24.6347375 69.8904601,23.6311216 68.33151,23.6311216 C67.2542956,23.6311216 66.5316921,24.1262388 66.1636996,24.8889869 L66.1302458,24.8889869 L66.1302458,23.7783186 L64.4642433,23.7783186 L64.4642433,30.8705377 L66.1302458,30.8705377 Z M75.0393815,31.011044 C76.8927255,31.011044 77.9364861,29.9137572 78.1572816,28.8231613 L78.1773539,28.7495628 L76.6184039,28.7495628 L76.6050223,28.7963982 C76.4444438,29.271443 75.9024912,29.713034 75.0728353,29.713034 C73.9889301,29.713034 73.3064713,28.977049 73.2797082,27.7325653 L78.2442616,27.7325653 L78.2442616,27.1973035 C78.2442616,25.0562562 76.9863964,23.6311216 74.9590922,23.6311216 C72.931788,23.6311216 71.6270873,25.1030916 71.6270873,27.3378097 L71.6270873,27.3445005 C71.6270873,29.5992909 72.9117157,31.011044 75.0393815,31.011044 Z M76.6250946,26.621897 L73.2997805,26.621897 C73.433596,25.531301 74.0959825,24.9358223 74.9791645,24.9358223 C75.8623465,24.9358223 76.5046607,25.4978472 76.6250946,26.621897 Z M80.7904724,30.8705377 L80.7904724,26.7557125 C80.7904724,25.7052611 81.3591881,25.1097824 82.3025871,25.1097824 C82.5835995,25.1097824 82.8378489,25.149927 82.9783551,25.2034532 L82.9783551,23.6980293 C82.8512304,23.6645754 82.657198,23.6311216 82.4497841,23.6311216 C81.6335098,23.6311216 81.0447218,24.1463111 80.8239263,25.00273 L80.7904724,25.00273 L80.7904724,23.7783186 L79.12447,23.7783186 L79.12447,30.8705377 L80.7904724,30.8705377 Z M88.090849,30.8705377 L88.090849,27.6790391 L90.0846993,27.6790391 C92.0384049,27.6790391 93.3698687,26.3810292 93.3698687,24.4540866 L93.3698687,24.4407051 C93.3698687,22.5070717 92.0384049,21.2157526 90.0846993,21.2157526 L86.3646296,21.2157526 L86.3646296,30.8705377 L88.090849,30.8705377 Z M89.6564898,26.2873584 L88.090849,26.2873584 L88.090849,22.6275056 L89.6564898,22.6275056 C90.8942828,22.6275056 91.6168862,23.2898922 91.6168862,24.4473958 L91.6168862,24.4607774 C91.6168862,25.6182811 90.8942828,26.2873584 89.6564898,26.2873584 Z M95.9361518,30.8705377 L95.9361518,26.7557125 C95.9361518,25.7052611 96.5048675,25.1097824 97.4482664,25.1097824 C97.7292789,25.1097824 97.9835283,25.149927 98.1240345,25.2034532 L98.1240345,23.6980293 C97.9969098,23.6645754 97.8028774,23.6311216 97.5954635,23.6311216 C96.7791892,23.6311216 96.1904012,24.1463111 95.9696057,25.00273 L95.9361518,25.00273 L95.9361518,23.7783186 L94.2701494,23.7783186 L94.2701494,30.8705377 L95.9361518,30.8705377 Z M101.66048,31.011044 C103.74131,31.011044 105.092846,29.626054 105.092846,27.3244282 L105.092846,27.3110466 C105.092846,25.0228023 103.721238,23.6311216 101.653789,23.6311216 C99.5930308,23.6311216 98.2281132,25.0361839 98.2281132,27.3110466 L98.2281132,27.3244282 C98.2281132,29.6193632 99.5729585,31.011044 101.66048,31.011044 Z M101.66717,29.6661986 C100.603338,29.6661986 99.9275695,28.8164705 99.9275695,27.3244282 L99.9275695,27.3110466 C99.9275695,25.8390766 100.616719,24.9826577 101.653789,24.9826577 C102.710931,24.9826577 103.39339,25.8323858 103.39339,27.3110466 L103.39339,27.3244282 C103.39339,28.8097797 102.717622,29.6661986 101.66717,29.6661986 Z M109.171244,33.3528144 C111.225311,33.3528144 112.51663,32.2756 112.51663,30.6698146 L112.51663,23.7783186 L110.850628,23.7783186 L110.850628,24.9826577 L110.810483,24.9826577 C110.409037,24.1663834 109.632907,23.6311216 108.629291,23.6311216 C106.836164,23.6311216 105.67866,25.0094208 105.67866,27.2508297 L105.67866,27.2575204 C105.67866,29.4654755 106.822783,30.8303931 108.602528,30.8303931 C109.619526,30.8303931 110.422418,30.3486575 110.817174,29.5926001 L110.850628,29.5926001 L110.850628,30.6162884 C110.850628,31.5195427 110.255149,32.0949492 109.171244,32.0949492 C108.301443,32.0949492 107.732728,31.7871736 107.552077,31.3790365 L107.532004,31.3255103 L105.892765,31.3255103 L105.906147,31.3857272 C106.10687,32.4963955 107.291137,33.3528144 109.171244,33.3528144 Z M109.124408,29.5457647 C108.053885,29.5457647 107.378117,28.682655 107.378117,27.2842835 L107.378117,27.2775927 C107.378117,25.8992935 108.053885,25.0361839 109.124408,25.0361839 C110.154787,25.0361839 110.857319,25.9126751 110.857319,27.2842835 L110.857319,27.2909743 C110.857319,28.6692735 110.161478,29.5457647 109.124408,29.5457647 Z M115.357235,30.8705377 L115.357235,26.7557125 C115.357235,25.7052611 115.925951,25.1097824 116.86935,25.1097824 C117.150362,25.1097824 117.404611,25.149927 117.545118,25.2034532 L117.545118,23.6980293 C117.417993,23.6645754 117.223961,23.6311216 117.016547,23.6311216 C116.200272,23.6311216 115.611484,24.1463111 115.390689,25.00273 L115.357235,25.00273 L115.357235,23.7783186 L113.691233,23.7783186 L113.691233,30.8705377 L115.357235,30.8705377 Z M120.151545,30.9909716 C121.088254,30.9909716 121.877765,30.5226176 122.285902,29.7799418 L122.326047,29.7799418 L122.326047,30.8705377 L123.992049,30.8705377 L123.992049,25.9929644 C123.992049,24.5678298 122.847927,23.6311216 121.074872,23.6311216 C119.275054,23.6311216 118.184458,24.5745205 118.084097,25.8323858 L118.077406,25.9126751 L119.622974,25.9126751 L119.636356,25.8524581 C119.743408,25.3305779 120.225144,24.9625854 121.014655,24.9625854 C121.857692,24.9625854 122.326047,25.3974856 122.326047,26.1133983 L122.326047,26.6018247 L120.472703,26.7155678 C118.753174,26.8226202 117.776321,27.5786775 117.776321,28.8365428 L117.776321,28.8499244 C117.776321,30.1144804 118.733102,30.9909716 120.151545,30.9909716 Z M120.646663,29.7197248 C119.917368,29.7197248 119.435633,29.3651139 119.435633,28.7830166 L119.435633,28.7763259 C119.435633,28.2143009 119.883915,27.85969 120.70688,27.8061638 L122.326047,27.7058022 L122.326047,28.241064 C122.326047,29.0841014 121.603443,29.7197248 120.646663,29.7197248 Z M126.805891,30.8705377 L126.805891,26.5282262 C126.805891,25.6651165 127.367916,25.0361839 128.170808,25.0361839 C128.946938,25.0361839 129.428674,25.531301 129.428674,26.327503 L129.428674,30.8705377 L131.047841,30.8705377 L131.047841,26.4880816 C131.047841,25.6316626 131.596484,25.0361839 132.399377,25.0361839 C133.215651,25.0361839 133.670624,25.5379918 133.670624,26.4144831 L133.670624,30.8705377 L135.336626,30.8705377 L135.336626,25.9996551 C135.336626,24.5812113 134.41999,23.6311216 133.021619,23.6311216 C131.99793,23.6311216 131.154893,24.1797649 130.813664,25.0629469 L130.773519,25.0629469 C130.512579,24.1530018 129.796666,23.6311216 128.806432,23.6311216 C127.869724,23.6311216 127.140429,24.1396203 126.839345,24.9157499 L126.805891,24.9157499 L126.805891,23.7783186 L125.139888,23.7783186 L125.139888,30.8705377 L126.805891,30.8705377 Z" id="PartnerProgram" fill-opacity="0.85" fill="#000000" fill-rule="nonzero"></path>
                <path d="M42.6292098,17.7681364 L42.6292098,11.0127036 L45.4254538,17.7681364 L47.0017678,17.7681364 L49.7980118,10.9578928 L49.7980118,17.7681364 L51.6621744,17.7681364 L51.6621744,8.05291965 L49.0852437,8.05291965 L46.2341714,15.0687038 L43.3145637,8.05291965 L40.8198755,8.05291965 L40.8198755,17.7681364 L42.6292098,17.7681364 Z M55.1860601,17.9599742 C56.0815892,17.9599742 56.744098,17.6265418 57.1735865,16.9596769 C57.1735865,17.2976769 57.1964316,17.5671634 57.2421219,17.7681364 L57.2421219,17.7681364 L58.9143854,17.7681364 C58.8595571,17.4575418 58.832143,17.1012715 58.832143,16.6993255 L58.832143,16.6993255 L58.832143,13.3832713 C58.832143,12.6341902 58.5945536,12.0198523 58.1193749,11.5402577 C57.6441961,11.0606631 56.9040139,10.8208657 55.8988282,10.8208657 C55.0581274,10.8208657 54.3819115,11.0446766 53.8701806,11.4922982 C53.3584497,11.9399199 53.070601,12.456055 53.0066347,13.0407037 L53.0066347,13.0407037 L54.6240699,13.3832713 C54.6514841,13.0726767 54.7771323,12.8123253 55.0010146,12.6022172 C55.2248968,12.3921091 55.5287371,12.287055 55.9125353,12.287055 C56.2780574,12.287055 56.5590525,12.3692712 56.7555206,12.5337037 C56.9519887,12.6981361 57.0502228,12.9082442 57.0502228,13.164028 C57.0502228,13.4380821 56.8811688,13.597947 56.5430609,13.6436227 L56.5430609,13.6436227 L54.8845044,13.8902713 C54.290531,13.9816227 53.8062142,14.2008659 53.4315541,14.5480011 C53.056894,14.8951363 52.8695639,15.3564606 52.8695639,15.9319741 C52.8695639,16.4800823 53.0820236,16.9551093 53.5069431,17.3570553 C53.9318625,17.7590013 54.4915681,17.9599742 55.1860601,17.9599742 Z M55.5698583,16.6034066 C55.2957168,16.6034066 55.0809725,16.5280417 54.9256257,16.377312 C54.7702787,16.2265823 54.6926053,16.0415958 54.6926053,15.8223525 C54.6926053,15.3381903 54.9713159,15.0550011 55.5287371,14.9727849 L55.5287371,14.9727849 L57.0502228,14.7398389 L57.0502228,15.0412984 C57.0502228,15.5985417 56.9108674,15.9982039 56.6321569,16.240285 C56.3534463,16.482366 55.9993467,16.6034066 55.5698583,16.6034066 Z M63.2469888,17.973677 C64.0876895,17.973677 64.7821816,17.7498661 65.3304647,17.3022445 C65.8787478,16.8546229 66.2351319,16.3202174 66.3996168,15.6990282 L66.3996168,15.6990282 L64.7958886,15.1646227 C64.7045081,15.4752173 64.5308851,15.7424201 64.2750197,15.9662309 C64.0191541,16.1900417 63.6764772,16.3019471 63.2469888,16.3019471 C62.762672,16.3019471 62.3537441,16.1306633 62.0202053,15.7880958 C61.6866663,15.4455282 61.5198969,14.98192 61.5198969,14.3972714 C61.5198969,13.8126227 61.6843819,13.3512983 62.0133517,13.0132983 C62.3423216,12.6752983 62.7489649,12.5062983 63.2332817,12.5062983 C64.0100161,12.5062983 64.50804,12.8854064 64.7273532,13.6436227 L64.7273532,13.6436227 L66.3584956,13.0955145 C66.2031486,12.4651902 65.8513337,11.9285009 65.3030505,11.4854469 C64.7547674,11.0423928 64.0511374,10.8208657 63.1921605,10.8208657 C62.2052508,10.8208657 61.3759726,11.1588658 60.7043258,11.8348658 C60.0326789,12.5108658 59.6968555,13.365001 59.6968555,14.3972714 C59.6968555,15.4204065 60.0372479,16.272258 60.7180328,16.9528255 C61.3988177,17.6333931 62.241803,17.973677 63.2469888,17.973677 Z M68.4705522,17.7681364 L69.2792698,15.5482984 L73.2269084,15.5482984 L74.035626,17.7681364 L76.0916878,17.7681364 L72.3907766,8.05291965 L70.1976441,8.05291965 L66.4693188,17.7681364 L68.4705522,17.7681364 Z M72.5963828,13.8217578 L69.9097954,13.8217578 L71.2530891,10.1494333 L72.5963828,13.8217578 Z M78.5601286,20.3716501 L78.5601286,17.1104066 C78.9622024,17.6585148 79.6110044,17.9325688 80.5065337,17.9325688 C81.4477529,17.9325688 82.213065,17.5991364 82.8024693,16.9322715 C83.3918737,16.2654066 83.6865759,15.415839 83.6865759,14.3835686 C83.6865759,13.3512983 83.407865,12.5085821 82.8504441,11.8554199 C82.2930225,11.2022577 81.5345646,10.8756766 80.5750691,10.8756766 C80.0907521,10.8756766 79.6658327,10.9693117 79.3003108,11.156582 C78.9347883,11.3438523 78.6697852,11.5745144 78.5053003,11.8485685 L78.5053003,11.8485685 L78.5053003,11.0264063 L76.7370872,11.0264063 L76.7370872,20.3716501 L78.5601286,20.3716501 Z M80.2186851,16.3019471 C79.7343681,16.3019471 79.3322935,16.1283796 79.0124622,15.7812444 C78.6926301,15.4341092 78.5327144,14.9727849 78.5327144,14.3972714 C78.5327144,13.8217578 78.6926301,13.3627172 79.0124622,13.0201497 C79.3322935,12.6775821 79.7343681,12.5062983 80.2186851,12.5062983 C80.7030014,12.5062983 81.1027916,12.6752983 81.4180544,13.0132983 C81.7333172,13.3512983 81.8909486,13.8126227 81.8909486,14.3972714 C81.8909486,14.98192 81.7310322,15.4478119 81.4112009,15.7949471 C81.1005066,16.1329471 80.7030014,16.3019471 80.2186851,16.3019471 Z M86.5114005,20.3716501 L86.5114005,17.1104066 C86.913475,17.6585148 87.5622762,17.9325688 88.4578056,17.9325688 C89.3990247,17.9325688 90.1643368,17.5991364 90.7537412,16.9322715 C91.3431456,16.2654066 91.6378478,15.415839 91.6378478,14.3835686 C91.6378478,13.3512983 91.3591369,12.5085821 90.801716,11.8554199 C90.244295,11.2022577 89.4858365,10.8756766 88.526341,10.8756766 C88.042024,10.8756766 87.6171046,10.9693117 87.2515827,11.156582 C86.8860608,11.3438523 86.6210571,11.5745144 86.4565722,11.8485685 L86.4565722,11.8485685 L86.4565722,11.0264063 L84.6883591,11.0264063 L84.6883591,20.3716501 L86.5114005,20.3716501 Z M88.1699569,16.3019471 C87.6856399,16.3019471 87.2835661,16.1283796 86.9637341,15.7812444 C86.643902,15.4341092 86.4839863,14.9727849 86.4839863,14.3972714 C86.4839863,13.8217578 86.643902,13.3627172 86.9637341,13.0201497 C87.2835661,12.6775821 87.6856399,12.5062983 88.1699569,12.5062983 C88.6542739,12.5062983 89.0540635,12.6752983 89.3693263,13.0132983 C89.6845891,13.3512983 89.8422205,13.8126227 89.8422205,14.3972714 C89.8422205,14.98192 89.6823048,15.4478119 89.3624728,15.7949471 C89.0517792,16.1329471 88.6542739,16.3019471 88.1699569,16.3019471 Z M95.9430368,17.973677 C97.0121889,17.973677 97.8643127,17.6745012 98.4994069,17.0761499 C99.1345018,16.4777985 99.4520488,15.7766768 99.4520488,14.9727849 C99.4520488,14.2693794 99.2144599,13.6573254 98.7392808,13.1366226 C98.2641023,12.6159199 97.5970247,12.2733523 96.7380473,12.1089199 L96.7380473,12.1089199 L95.3810466,11.8485685 C94.677417,11.7115415 94.3256016,11.346136 94.3256016,10.7523522 C94.3256016,10.4143522 94.4672416,10.1243117 94.750521,9.88223056 C95.0338011,9.64014947 95.3993229,9.51910892 95.8470873,9.51910892 C96.3953704,9.51910892 96.811152,9.66070352 97.0944314,9.94389273 C97.3777115,10.2270819 97.5513342,10.5422441 97.6153004,10.8893793 L97.6153004,10.8893793 L99.3149781,10.3686765 C99.2510119,10.0672171 99.1459246,9.77946029 98.9997153,9.50540622 C98.8535067,9.23135215 98.6479005,8.96414943 98.3828967,8.70379806 C98.1178937,8.4434467 97.7660782,8.23562236 97.3274517,8.08032506 C96.8888252,7.92502775 96.3908018,7.8473791 95.8333802,7.8473791 C94.9012989,7.8473791 94.104004,8.13970344 93.441495,8.72435212 C92.7789867,9.3090008 92.4477318,10.0306765 92.4477318,10.8893793 C92.4477318,11.611055 92.6761836,12.2139739 93.1330858,12.6981361 C93.5899886,13.1822983 94.2113764,13.5065956 94.9972484,13.6710281 L94.9972484,13.6710281 L96.3542492,13.9450821 C96.7289095,14.0181632 97.0190425,14.157474 97.2246486,14.3630146 C97.4302548,14.5685551 97.5330579,14.81292 97.5330579,15.0961092 C97.5330579,15.4523795 97.3937028,15.7401363 97.114992,15.9593795 C96.8362819,16.1786228 96.4501987,16.2882444 95.9567439,16.2882444 C95.3079426,16.2882444 94.803065,16.1146769 94.4421117,15.7675417 C94.0811591,15.4204065 93.8778372,14.9864876 93.8321467,14.4657849 L93.8321467,14.4657849 L92.0776407,14.9316768 C92.1141934,15.2970822 92.2169965,15.6510687 92.38605,15.9936363 C92.5551042,16.3362039 92.7904088,16.6605012 93.0919645,16.9665282 C93.3935202,17.2725553 93.7910255,17.5169201 94.2844803,17.6996229 C94.7779352,17.8823256 95.3307875,17.973677 95.9430368,17.973677 Z M103.126712,17.8640553 C103.547063,17.8640553 103.88974,17.8092445 104.154743,17.6996229 L104.154743,17.6996229 L104.154743,16.1923255 C104.026811,16.228866 103.83948,16.2471363 103.592753,16.2471363 C103.318611,16.2471363 103.117574,16.1877579 102.989642,16.0690012 C102.861709,15.9502444 102.797742,15.7492714 102.797742,15.4660822 L102.797742,15.4660822 L102.797742,12.6433253 L104.154743,12.6433253 L104.154743,11.0264063 L102.797742,11.0264063 L102.797742,9.01210889 L101.152893,9.01210889 L101.152893,9.95759543 C101.152893,10.2773252 101.063797,10.5353928 100.885605,10.7317982 C100.707413,10.9282036 100.449263,11.0264063 100.111155,11.0264063 L100.111155,11.0264063 L99.7684781,11.0264063 L99.7684781,12.6433253 L100.988408,12.6433253 L100.988408,15.7812444 C100.988408,16.4298391 101.180307,16.9391228 101.564105,17.3090958 C101.947904,17.6790688 102.468773,17.8640553 103.126712,17.8640553 Z M107.801993,17.9462715 C108.185791,17.9462715 108.549029,17.8709067 108.891706,17.7201769 C109.234383,17.5694472 109.492532,17.3433526 109.666156,17.0418931 C109.666156,17.3433526 109.684431,17.5854337 109.720984,17.7681364 L109.720984,17.7681364 L111.461783,17.7681364 C111.416093,17.3844607 111.393248,16.9779472 111.393248,16.5485958 L111.393248,16.5485958 L111.393248,11.0264063 L109.570206,11.0264063 L109.570206,14.9453795 C109.570206,15.3473255 109.45598,15.669339 109.227529,15.9114201 C108.999078,16.1535012 108.688384,16.2745417 108.295448,16.2745417 C107.893373,16.2745417 107.587248,16.1489336 107.377074,15.8977174 C107.166898,15.6465011 107.061811,15.3199201 107.061811,14.9179741 L107.061811,14.9179741 L107.061811,11.0264063 L105.23877,11.0264063 L105.23877,15.2879471 C105.23877,16.0461634 105.467221,16.6787715 105.924123,17.1857715 C106.381026,17.6927715 107.006983,17.9462715 107.801993,17.9462715 Z M115.657315,17.9325688 C116.095942,17.9325688 116.482024,17.845785 116.815564,17.6722175 C117.149102,17.4986499 117.393545,17.2702715 117.548892,16.9870823 C117.548892,17.2794067 117.571737,17.539758 117.617428,17.7681364 L117.617428,17.7681364 L119.358227,17.7681364 C119.321674,17.402731 119.303398,16.9962174 119.303398,16.5485958 L119.303398,16.5485958 L119.303398,7.8473791 L117.507771,7.8473791 L117.507771,11.6978388 C117.206215,11.1405955 116.57112,10.8619739 115.602487,10.8619739 C114.661267,10.8619739 113.886817,11.1999739 113.279137,11.8759739 C112.671457,12.551974 112.367617,13.3878389 112.367617,14.3835686 C112.367617,15.4067038 112.676026,16.2539877 113.292844,16.9254201 C113.909663,17.5968526 114.69782,17.9325688 115.657315,17.9325688 Z M115.876629,16.3019471 C115.383174,16.3019471 114.981099,16.1306633 114.670406,15.7880958 C114.359712,15.4455282 114.204365,14.9773525 114.204365,14.3835686 C114.204365,13.79892 114.361997,13.3375956 114.677259,12.9995956 C114.992522,12.6615956 115.392312,12.4925956 115.876629,12.4925956 C116.360945,12.4925956 116.75845,12.6593118 117.069145,12.9927442 C117.379838,13.3261767 117.535185,13.7852173 117.535185,14.3698659 C117.535185,14.9636498 117.379838,15.4341092 117.069145,15.7812444 C116.75845,16.1283796 116.360945,16.3019471 115.876629,16.3019471 Z M121.744425,9.93019002 C122.055118,9.93019002 122.320122,9.8205684 122.539435,9.60132514 C122.758749,9.38208189 122.868405,9.12173052 122.868405,8.82027104 C122.868405,8.50054129 122.758749,8.23105479 122.539435,8.01181154 C122.320122,7.79256828 122.055118,7.68294666 121.744425,7.68294666 C121.433731,7.68294666 121.168727,7.79485207 120.949414,8.01866289 C120.730101,8.24247372 120.620444,8.50967643 120.620444,8.82027104 C120.620444,9.12173052 120.730101,9.38208189 120.949414,9.60132514 C121.168727,9.8205684 121.433731,9.93019002 121.744425,9.93019002 Z M122.662799,17.7681364 L122.662799,11.0264063 L120.839758,11.0264063 L120.839758,17.7681364 L122.662799,17.7681364 Z M127.201008,17.973677 C128.215332,17.973677 129.058317,17.635677 129.729964,16.9596769 C130.401611,16.2836768 130.737435,15.4295417 130.737435,14.3972714 C130.737435,13.365001 130.401611,12.5108658 129.729964,11.8348658 C129.058317,11.1588658 128.215332,10.8208657 127.201008,10.8208657 C126.186685,10.8208657 125.341415,11.1588658 124.665199,11.8348658 C123.998121,12.5108658 123.664582,13.365001 123.664582,14.3972714 C123.664582,15.4295417 124.000406,16.2836768 124.672052,16.9596769 C125.343699,17.635677 126.186685,17.973677 127.201008,17.973677 Z M127.201008,16.3156498 C126.72583,16.3156498 126.319187,16.1466498 125.981078,15.8086498 C125.652109,15.4706498 125.487624,15.0001903 125.487624,14.3972714 C125.487624,13.7943524 125.654393,13.3238929 125.987932,12.9858929 C126.321471,12.6478929 126.72583,12.4788929 127.201008,12.4788929 C127.676188,12.4788929 128.080546,12.6478929 128.414085,12.9858929 C128.747624,13.3238929 128.914393,13.7943524 128.914393,14.3972714 C128.914393,15.0001903 128.747624,15.4706498 128.414085,15.8086498 C128.080546,16.1466498 127.676188,16.3156498 127.201008,16.3156498 Z" id="MacAppStudio" fill-opacity="0.85" fill="#000000" fill-rule="nonzero"></path>
                <g id="Rectangle" transform="translate(0.000000, 0.120000)">
                    <mask id="mask-2" fill="white">
                        <use xlink:href="#path-1"></use>
                    </mask>
                    <use id="Mask" fill-opacity="0.85" fill="#000000" fill-rule="nonzero" transform="translate(17.083366, 17.119943) rotate(13.000000) translate(-17.083366, -17.119943) " xlink:href="#path-1"></use>
                    <path d="M8.1324915,-0.323089975 L16.8027895,-0.323696529 L16.8027895,-0.323696529 L31.3303071,-0.324712841 C21.0585064,0.383357815 13.7583617,2.72509288 9.42987304,6.70049235 C5.10138437,10.6758918 2.91150075,17.8214609 2.8602222,28.1371997 L2.86185106,4.94754898 C2.86279442,2.03714769 5.22209021,-0.322147435 8.1324915,-0.323089975 Z" fill-opacity="0.85" fill="#000000" fill-rule="nonzero" mask="url(#mask-2)" transform="translate(17.095265, 13.906243) rotate(13.000000) translate(-17.095265, -13.906243) "></path>
                    <path d="M39.83957,37.8819072 L4.69250039,37.9223499 C2.37815055,37.9250129 0.499840489,36.0510205 0.497177438,33.7366707 C0.495981223,32.6970886 0.881244823,31.6941743 1.57812658,30.9227548 L14.2619812,16.8822477 C15.813401,15.1648896 18.463269,15.03037 20.1806271,16.5817898 C20.2209454,16.6182123 20.2605515,16.6554156 20.2994229,16.6933784 L22.4696423,18.8128717 C23.967001,20.2752316 26.3500525,20.3001812 27.8777002,18.8694918 C29.3124486,17.5258057 31.5648149,17.5996261 32.9085011,19.0343745 C32.9490558,19.0776777 32.9885215,19.1219881 33.0268611,19.1672642 L43.0327081,30.9833858 C44.5283065,32.7495703 44.3089531,35.3937678 42.5427685,36.8893661 C41.7872384,37.5291462 40.8295917,37.880768 39.83957,37.8819072 Z" id="Path-6" fill-opacity="0.85" fill="#000000" fill-rule="nonzero" mask="url(#mask-2)"></path>
                </g>
                <g id="Trading" transform="translate(9.187339, 10.337055)" fill-rule="nonzero">
                    <polygon id="Boundary" points="0 0 21.3160735 0 21.3160735 21.2838738 0 21.2838738"></polygon>
                    <g id="Group-4" transform="translate(4.095206, 4.770523)">
                        <g id="Oval-Copy-5">
                            <use fill="black" fill-opacity="1" filter="url(#filter-4)" xlink:href="#path-3"></use>
                            <use fill="#B6B6B6" xlink:href="#path-3"></use>
                        </g>
                        <path d="M4.60671842,12.6711408 C1.27009192,11.1845769 -0.229845414,7.27132973 1.25651462,3.93065858 C2.74287465,0.589987431 6.65267774,-0.913063484 9.98930424,0.573500403 C13.3259307,2.06006429 14.8258681,5.97331148 13.339508,9.31398263 C11.853148,12.6546538 7.94334492,14.1577047 4.60671842,12.6711408 Z" id="Oval" fill-opacity="0.85" fill="#000000"></path>
                        <g id="Oval-Copy">
                            <use fill="black" fill-opacity="1" filter="url(#filter-6)" xlink:href="#path-5"></use>
                            <use fill-opacity="0.85" fill="#FFFFFF" xlink:href="#path-5"></use>
                        </g>
                    </g>
                </g>
                <g id="Group-15" transform="translate(1.984067, 0.000000)" fill-rule="nonzero">
                    <path d="M20.5897296,14.4234032 C21.8321773,15.3370091 22.6386402,16.8100941 22.6386402,18.4717548 C22.6386402,19.0480286 22.5416434,19.6016216 22.3631031,20.1170627 C22.1178715,18.826482 21.5506403,16.9921951 20.661206,14.6149393 Z" id="Combined-Shape" fill="url(#linearGradient-7)" opacity="0.300000012"></path>
                    <path d="M16.6444951,6.91249522 C16.9106989,6.80296997 17.1906229,6.78600099 17.2820156,6.86158836 C17.387046,6.94845506 17.4772617,7.18244972 17.2829935,7.49612849 C17.0448028,7.88072763 16.8129631,8.35917375 17.0019502,8.77021117 L17.1281789,9.04475233 L4.49018612,23.3214898 C4.03634165,23.8340714 3.25537037,23.887624 2.73585733,23.4417872 L2.41997082,23.170699 C1.88689627,22.698726 1.8387545,21.9062738 2.29763846,21.3877995 L15.360158,6.62898945 C15.6820366,7.0072967 16.1813974,7.10302937 16.6444951,6.91249522 Z" id="Combined-Shape" fill="url(#linearGradient-8)"></path>
                    <path d="M15.7396146,6.88733028 L1.68235445,20.6961548 C1.18704908,21.1827065 1.17995289,21.978659 1.66650466,22.4739644 C1.67099498,22.4785355 1.67552018,22.4830722 1.68007986,22.4875741 L1.97130881,22.775113 C2.45997545,23.2575878 3.2453838,23.2586618 3.73536805,22.7775251 L17.3336991,9.42473726 L17.3336991,9.42473726 L18.5012252,10.5669884 C18.6549739,10.7174036 18.8447418,10.8258588 19.052381,10.8819781 C19.677725,11.0509918 20.0625618,11.3855324 20.2068912,11.8855998 C20.9574478,13.2901972 21.5820511,16.130322 22.0807012,20.4059742 C22.0976829,20.5517595 22.2296461,20.6561571 22.3754291,20.6391551 C22.4034711,20.6358847 22.4308128,20.6281668 22.4564259,20.6162917 C22.6639052,20.5200976 22.8035637,20.3196919 22.8219578,20.0917388 C23.6534986,9.79624377 19.8999673,3.34737338 11.5613638,0.745127609 C11.378725,1.02306471 12.0150747,1.66538018 13.4704129,2.67207404 C13.8777819,2.95387368 14.0817098,3.44861506 13.9912256,3.93561932 L13.9434971,4.19250405 C13.8711906,4.58167272 13.9863954,4.98216874 14.2544329,5.27343562 L15.7396146,6.88733028 L15.7396146,6.88733028 Z" id="Path-5" fill="#8F8F8F" transform="translate(11.853384, 12.194961) rotate(-4.000000) translate(-11.853384, -12.194961) "></path>
                    <path d="M16.6444951,6.91249522 C16.9106989,6.80296997 17.1906229,6.78600099 17.2820156,6.86158836 C17.387046,6.94845506 17.4772617,7.18244972 17.2829935,7.49612849 C17.0448028,7.88072763 16.8129631,8.35917375 17.0019502,8.77021117 L17.1281789,9.04475233 L4.49018612,23.3214898 C4.03634165,23.8340714 3.25537037,23.887624 2.73585733,23.4417872 L2.41997082,23.170699 C1.88689627,22.698726 1.8387545,21.9062738 2.29763846,21.3877995 L15.360158,6.62898945 C15.6820366,7.0072967 16.1813974,7.10302937 16.6444951,6.91249522 Z" id="Combined-Shape-Copy-8" fill-opacity="0.85" fill="#8B8B8B"></path>
                    <path d="M15.360158,6.62898945 C15.6820366,7.0072967 16.1813974,7.10302937 16.6444951,6.91249522 C16.9106989,6.80296997 17.1906229,6.78600099 17.2820156,6.86158836 C17.387046,6.94845506 17.4772617,7.18244972 17.2829935,7.49612849 C17.0448028,7.88072763 16.8129631,8.35917375 17.0019502,8.77021117 L17.1281789,9.04475233 L15.3752147,11.0229894 L13.6522147,8.55798945 L15.360158,6.62898945 Z" id="Combined-Shape" fill="#727272" opacity="0.200000003"></path>
                    <path d="M15.360158,6.62898945 C15.6820366,7.0072967 16.1813974,7.10302937 16.6444951,6.91249522 C16.9106989,6.80296997 17.1906229,6.78600099 17.2820156,6.86158836 C17.387046,6.94845506 17.4772617,7.18244972 17.2829935,7.49612849 C17.0448028,7.88072763 16.8129631,8.35917375 17.0019502,8.77021117 L17.1281789,9.04475233 L16.5432167,9.70402811 C16.1440969,8.91540916 16.3012242,8.27050906 15.9207632,8.27050906 C15.6767358,8.27050906 15.3000125,7.93887493 14.7905931,7.27560667 L15.360158,6.62898945 Z" id="Combined-Shape" fill="#252525" opacity="0.200000003"></path>
                </g>
            </g>
        </g>
    </g>
</svg>