<?xml version="1.0" encoding="UTF-8"?>
<svg width="83px" height="40px" viewBox="0 0 83 40" version="1.1" xmlns="http://www.w3.org/2000/svg" xmlns:xlink="http://www.w3.org/1999/xlink">
    <title>8348</title>
    <defs>
        <path d="M22.1090686,9.78831351 C22.1090686,11.4007376 21.6917416,12.8803515 20.857075,14.2271999 C20.0224084,15.5740482 18.8083662,16.674274 17.2149118,17.5279102 C15.6214575,18.3815465 13.7245165,18.8842359 11.5240319,19.0359934 L10.3004927,25.8935038 C9.82625034,28.5302913 8.53633045,29.8486653 6.43069434,29.8486653 C5.27354297,29.8486653 4.20651365,29.5072159 3.22957437,28.8243069 C2.25263509,28.1413979 1.47014693,27.0980804 0.882086392,25.694323 C0.294025857,24.2905656 0,22.5643492 0,20.5156222 C0,16.6647742 0.621248182,13.3972933 1.86376318,10.7130815 C3.10627818,8.0288697 4.77558628,6.01811223 6.87173754,4.68074876 C8.9678888,3.34338528 11.2774145,2.67471358 13.8003839,2.67471358 C15.5835352,2.67471358 17.0963456,2.98770884 18.3388606,3.61370877 C19.5813756,4.23970869 20.5203614,5.08858979 21.1558462,6.16037754 C21.791331,7.23216529 22.1090686,8.44146519 22.1090686,9.78831351 Z M12.0362111,16.1051903 C15.9249985,15.6119782 17.869363,13.591736 17.869363,10.0444031 C17.869363,8.79240326 17.4567784,7.77279746 16.6315966,6.98555514 C15.8064149,6.19831281 14.5307221,5.80469755 12.8044799,5.80469755 C10.8506013,5.80469755 9.14809677,6.42120338 7.69691513,7.65423353 C6.24573349,8.88726368 5.12653829,10.5992529 4.33929596,12.7902527 C3.55205363,14.9812524 3.15843837,17.4804722 3.15843837,20.287987 C3.15843837,21.4641081 3.27699718,22.5074256 3.51411837,23.417971 C3.75123955,24.3285163 4.05475011,25.0351269 4.42465916,25.5378238 C4.79456821,26.0405207 5.15024465,26.2918654 5.49169915,26.2918654 C5.96594152,26.2918654 6.32636031,25.6374207 6.57296634,24.3285118 L7.51196153,18.9506302 C6.77214344,18.8368121 6.44966347,18.7893885 6.54451194,18.8083582 C5.9754211,18.7135098 5.6055176,18.5380427 5.43479035,18.2819518 C5.2640631,18.025861 5.17870075,17.6986386 5.17870075,17.300275 C5.17870075,16.8829418 5.29725957,16.5509771 5.53438075,16.304371 C5.77150193,16.057765 6.09872426,15.9344639 6.51605754,15.9344639 C6.70575449,15.9344639 6.84802506,15.9439486 6.94287354,15.9629183 C7.39814621,16.038797 7.7490803,16.0862206 7.99568633,16.1051903 C8.24229236,14.6255541 8.59322644,12.6432507 9.04849912,10.1582207 C9.16231728,9.51325109 9.42314667,9.05324289 9.83099511,8.77818232 C10.2388435,8.50312175 10.7178212,8.36559352 11.2679423,8.36559352 C11.8939422,8.36559352 12.3444657,8.48415234 12.6195263,8.72127352 C12.8945869,8.9583947 13.0321151,9.33304055 13.0321151,9.84522231 C13.0321151,10.1487374 13.0131457,10.3953398 12.9752063,10.5850367 L12.0362111,16.1051903 Z M33.89185,22.3828356 C33.89185,22.9647601 34.3717871,23.9418914 34.7963411,24.6386456 C34.57225,24.8747764 34.2164221,25.0872922 32.9359677,25.8081406 C31.6555133,26.528989 30.2849734,26.8894078 28.8243069,26.8894078 C26.832489,26.8894078 25.2864821,26.3487796 24.1862398,25.267507 C23.0859975,24.1862344 22.5358846,22.7066204 22.5358846,20.8286206 C22.5358846,19.5197117 22.810941,18.3009271 23.3610622,17.1722302 C23.9111833,16.0435334 24.6747021,15.1472288 25.6516414,14.4832895 C26.6285806,13.8193502 27.7335488,13.4873855 28.9665789,13.4873855 C30.0668212,13.4873855 30.9488988,13.8146078 31.6128381,14.4690623 C32.2767774,15.1235167 32.6087421,16.0103367 32.6087421,17.1295486 C32.6087421,18.4384576 32.1392492,19.5623951 31.2002493,20.501395 C30.2612494,21.4403949 28.6725613,22.1849442 26.4341374,22.7350654 C26.9083797,23.6076713 27.8094267,24.0439678 29.1373053,24.0439678 C29.9909416,24.0439678 30.9631239,23.7451996 32.0538813,23.1476542 C33.1446387,22.5501088 33.89185,22.3828356 33.89185,22.3828356 Z M28.4828541,16.2759166 C27.7809754,16.2759166 27.1881814,16.683759 26.7044542,17.4994558 C26.2207269,18.3151527 25.978867,19.301562 25.978867,20.4587134 L25.978867,20.5156222 C27.0980789,20.2500465 27.9801565,19.8516889 28.6251261,19.3205374 C29.2700958,18.789386 29.5925757,18.1728801 29.5925757,17.4710014 C29.5925757,17.1105772 29.4929863,16.8212937 29.2938045,16.6031422 C29.0946227,16.3849908 28.8243086,16.2759166 28.4828541,16.2759166 Z M42.9676115,26.3311894 C42.2832697,26.6423913 41.4675525,26.8894078 40.006886,26.8894078 C38.0150681,26.8894078 36.4690612,26.3487796 35.3688189,25.267507 C34.2685766,24.1862344 33.7184637,22.7066204 33.7184637,20.8286206 C33.7184637,19.5197117 33.9935201,18.3009271 34.5436413,17.1722302 C35.0937624,16.0435334 35.8572812,15.1472288 36.8342205,14.4832895 C37.8111597,13.8193502 38.9161279,13.4873855 40.149158,13.4873855 C41.2494003,13.4873855 42.1314779,13.8146078 42.7954172,14.4690623 C43.4593565,15.1235167 43.7913212,16.0103367 43.7913212,17.1295486 C43.7913212,18.4384576 43.3218283,19.5623951 42.3828284,20.501395 C41.4438285,21.4403949 39.8551404,22.1849442 37.6167165,22.7350654 C38.0909588,23.6076713 38.9920058,24.0439678 40.3198844,24.0439678 C41.1735207,24.0439678 42.145703,23.7451996 43.2364604,23.1476542 C44.3272178,22.5501088 44.6918126,22.465615 45.4320451,21.5504821 C45.5339548,21.4315874 44.9566201,22.3025258 44.4109419,23.3491411 C43.7464911,24.6235635 43.0250965,26.0933429 42.9676115,26.3311894 Z M39.6654332,16.2759166 C38.9635545,16.2759166 38.3707605,16.683759 37.8870333,17.4994558 C37.403306,18.3151527 37.1614461,19.301562 37.1614461,20.4587134 L37.1614461,20.5156222 C38.280658,20.2500465 39.1627356,19.8516889 39.8077052,19.3205374 C40.4526749,18.789386 40.7751548,18.1728801 40.7751548,17.4710014 C40.7751548,17.1105772 40.6755654,16.8212937 40.4763836,16.6031422 C40.2772018,16.3849908 40.0068877,16.2759166 39.6654332,16.2759166 Z M59.3713499,24.82766 C59.0477198,25.1073628 59.0855657,25.2769885 58.1465659,25.9219582 C57.207566,26.5669278 56.1405367,26.8894078 54.9454459,26.8894078 C53.9400521,26.8894078 53.1243674,26.528989 52.4983675,25.8081406 C51.4170949,26.5100193 50.288415,26.8704381 49.1122939,26.8894078 C48.8656879,30.5505588 48.3060903,33.6093762 47.4334844,36.0659517 C46.5608784,38.5225271 45.2804432,39.7507964 43.5921404,39.7507964 C42.5677769,39.7507964 41.8090005,39.3808929 41.3157884,38.6410748 C40.8225764,37.9012568 40.575974,36.8769086 40.575974,35.5679997 C40.575974,33.7089696 41.0027858,31.5417145 41.856422,29.0661693 C42.7100583,26.5906242 44.0284323,23.8637715 45.8115836,20.8855294 C45.8115836,18.115954 45.7926142,16.1905589 45.7546748,15.1092863 C45.7357051,14.5591651 45.9538533,14.1228687 46.409126,13.8003839 C46.8643986,13.4778991 47.4334809,13.3166591 48.11639,13.3166591 C48.5147535,13.3166591 48.804037,13.3972791 48.9842491,13.5585215 C49.1644612,13.7197639 49.2640507,14.0375015 49.2830203,14.5117439 C49.2830203,14.9859862 49.292505,15.3369203 49.3114747,15.5645567 C49.918505,14.8057689 50.5160414,14.2603983 51.1041019,13.9284287 C51.6921625,13.596459 52.318153,13.4304767 52.9820923,13.4304767 C54.0443952,13.4304767 54.9122457,13.8572884 55.5856699,14.7109247 C56.259094,15.5645609 56.5958011,16.6837561 56.5958011,18.0685438 C56.5958011,19.0739377 56.4345611,20.0508623 56.1120763,20.999347 C55.7895915,21.9478317 55.3438103,22.8109399 54.7747195,23.5886974 C55.1730831,23.7025156 55.5050478,23.7594238 55.7706235,23.7594238 C56.3966234,23.7594238 56.9941598,23.5317909 57.5632507,23.0765182 C58.1323415,22.6212455 58.1561441,22.6258981 59.0477198,21.5635952 C58.9606072,22.7667251 59.0017209,23.9770461 59.3713499,24.82766 Z M49.2545659,24.1577854 C49.937475,24.0060278 50.5682078,23.631382 51.1467835,23.0338366 C51.7253592,22.4362912 52.1853674,21.6964842 52.5268219,20.8143934 C52.8682764,19.9323026 53.0390011,19.0075439 53.0390011,18.0400894 C53.0390011,17.4709986 52.9251846,17.0394445 52.6975483,16.7454142 C52.469912,16.451384 52.1664014,16.304371 51.7870075,16.304371 C51.1040985,16.304371 50.2789292,17.0252086 49.3114747,18.4669054 C49.292505,19.301572 49.2830203,20.5250989 49.2830203,22.137523 C49.2830203,23.010129 49.2735356,23.683543 49.2545659,24.1577854 Z M43.8197756,36.9622653 C44.3319574,36.9622653 44.7587691,35.8478124 45.1002236,33.6188733 C45.4416781,31.3899342 45.6598263,28.6156579 45.7546748,25.2959614 C44.9389779,27.1929308 44.294018,29.0045095 43.8197756,30.7307517 C43.3455332,32.4569939 43.1084156,33.9081538 43.1084156,35.0842749 C43.1084156,35.6913051 43.1795509,36.1560557 43.3218236,36.4785405 C43.4640963,36.8010253 43.6300786,36.9622653 43.8197756,36.9622653 Z M61.9167738,26.8894078 C61.0631376,26.8894078 60.3660117,26.4957925 59.8253754,25.7085502 C59.2847391,24.9213078 59.0144251,23.9396409 59.0144251,22.7635198 C59.0144251,21.3407927 59.1092721,20.0366457 59.2989691,18.8510398 C59.488666,17.6654339 59.8016613,16.4087105 60.2379642,15.0808319 C60.4276612,14.511741 60.6932329,14.1038987 61.0346874,13.8572927 C61.3761419,13.6106866 61.9167701,13.4873855 62.6565882,13.4873855 C63.0739215,13.4873855 63.363205,13.5537784 63.5244474,13.6865663 C63.6856898,13.8193541 63.7663098,14.0185329 63.7663098,14.2841087 C63.7663098,14.4358662 63.6619781,14.9480403 63.4533114,15.8206463 C63.2636145,16.522525 63.1118592,17.1580002 62.998041,17.727091 C62.6186471,19.718909 62.428953,21.0467677 62.428953,21.710707 C62.428953,22.1090706 62.4763765,22.3888694 62.571225,22.5501118 C62.6660735,22.7113542 62.8178288,22.7919742 63.0264954,22.7919742 C63.3110408,22.7919742 63.6667173,22.507433 64.0935354,21.9383422 C64.5203535,21.3692514 64.9756194,20.5061432 65.4593466,19.3489918 C65.9430738,18.1918404 66.4125667,16.7691347 66.8678394,15.0808319 C67.0195969,14.511741 67.2519722,14.1038987 67.5649722,13.8572927 C67.8779721,13.6106866 68.347465,13.4873855 68.973465,13.4873855 C69.4097679,13.4873855 69.7132785,13.5395514 69.8840058,13.6438847 C70.054733,13.748218 70.1400954,13.9426544 70.1400954,14.2271999 C70.1400954,14.7014422 69.9029777,16.0008468 69.4287354,18.1254526 C68.8975839,20.5535736 68.6320122,22.052157 68.6320122,22.6212478 C68.6320122,22.981672 68.7078898,23.2614708 68.8596474,23.4606526 C69.0114049,23.6598344 69.2105837,23.7594238 69.4571898,23.7594238 C69.8365837,23.7594238 70.2871071,23.5270485 70.8087737,23.062291 C71.3304403,22.5975335 71.6910938,22.3508759 72.5636998,21.3075427 C72.7550223,22.6620766 73.0214137,23.2878625 73.3139389,24.0675675 C72.498242,25.0729613 72.2314984,25.2769885 71.2924985,25.9219582 C70.3534987,26.5669278 69.2864693,26.8894078 68.0913786,26.8894078 C67.1808332,26.8894078 66.5121615,26.5384737 66.0853434,25.836595 C65.6585253,25.1347163 65.4451194,24.1483069 65.4451194,22.8773374 C65.1226346,24.1672766 64.6389146,25.1584283 63.993945,25.8508222 C63.3489754,26.543216 62.6565919,26.8894078 61.9167738,26.8894078 Z M80.3836793,22.7350654 C80.5923459,22.5453684 80.8010094,22.4505214 81.0096761,22.4505214 C81.2373124,22.4505214 81.4222641,22.5785649 81.5645368,22.8346558 C81.7068096,23.0907467 81.7779448,23.3989996 81.7779448,23.7594238 C81.7779448,24.556151 81.4934037,25.1916262 80.9243129,25.6658686 C79.9378887,26.4815654 78.8186935,26.8894078 77.5666937,26.8894078 C75.7645727,26.8894078 74.4461987,26.1353737 73.6115321,24.627283 C72.7768656,23.1191922 72.3595385,21.1511159 72.3595385,18.722995 C72.3595385,16.4086923 72.6583067,13.7719443 73.2558521,10.8126719 C73.8533975,7.85339953 74.7354751,5.31149857 75.9021113,3.18689277 C77.0687475,1.06228697 78.4582568,0 80.0706809,0 C80.9812262,0 81.6973214,0.422069375 82.218988,1.26622079 C82.7406546,2.1103722 83.001484,3.3196721 83.001484,4.89415675 C83.001484,7.15155042 82.3802359,9.76932902 81.1377209,12.7475711 C79.8952058,15.7258131 78.202186,18.6660717 76.0586105,21.568435 C76.1913984,22.3461925 76.428516,22.9057901 76.7699705,23.2472446 C77.111425,23.5886991 77.5761755,23.7594238 78.1642361,23.7594238 C78.4867209,23.7594238 78.851882,23.6645767 79.2597305,23.4748798 C79.6675789,23.2851828 80.0422248,23.0385805 80.3836793,22.7350654 Z M79.4446841,2.81698557 C79.0083811,2.81698557 78.5151764,3.60421609 77.9650553,5.17870075 C77.4149341,6.75318541 76.9312142,8.70703465 76.5138809,11.0403071 C76.0965476,13.3735795 75.8689147,15.6119699 75.8309753,17.7555454 C77.1778236,15.5360912 78.2495953,13.3119278 79.0463225,11.0829887 C79.8430496,8.85404957 80.2414073,6.81958034 80.2414073,4.97951995 C80.2414073,3.53782316 79.9758355,2.81698557 79.4446841,2.81698557 Z" id="path-1"></path>
    </defs>
    <g id="Page-1" stroke="none" stroke-width="1" fill="none" fill-rule="evenodd">
        <g id="Our-Works" transform="translate(-113.000000, -2573.000000)">
            <g id="Group-9" transform="translate(81.000000, 2450.000000)">
                <g id="8348" transform="translate(32.000000, 123.000000)">
                    <mask id="mask-2" fill="white">
                        <use xlink:href="#path-1"></use>
                    </mask>
                    <use id="Mask" fill-opacity="0.85" fill="#000000" xlink:href="#path-1"></use>
                </g>
            </g>
        </g>
    </g>
</svg>