<?xml version="1.0" encoding="UTF-8"?>
<svg width="51px" height="52px" viewBox="0 0 51 52" version="1.1" xmlns="http://www.w3.org/2000/svg" xmlns:xlink="http://www.w3.org/1999/xlink">
    <title>iconfinder_rocket_1_195416</title>
    <g id="Page-1" stroke="none" stroke-width="1" fill="none" fill-rule="evenodd" stroke-opacity="0.85">
        <g id="About-Us" transform="translate(-326.000000, -6146.000000)" stroke="#000000" stroke-width="1.8">
            <g id="iconfinder_rocket_1_195416" transform="translate(351.500000, 6172.500000) rotate(135.000000) translate(-351.500000, -6172.500000) translate(335.000000, 6156.000000)">
                <path d="M26.2418173,18.7713749 C25.8858104,19.1248087 25.5288255,19.461736 25.1708625,19.7821568 L25.4799234,22.9038321 C25.6804218,24.926367 24.8040971,26.7634462 23.1003497,27.8917158 L15.3796943,33 L14.7224508,24.5195297 C12.9160091,24.4612714 11.3501655,23.8311105 10.1706481,22.6601181 C8.99895499,21.4968935 8.36322835,19.9549899 8.29769961,18.1781109 L-4.54747351e-13,17.6489311 L4.91172176,9.95106432 C6.03353476,8.1906919 7.93582445,7.27312327 10.0239419,7.48479519 L13.0529348,7.7906514 C13.3805785,7.42847881 13.725827,7.06727719 14.0886802,6.70704654 C20.3207573,0.521954268 30.1393106,-0.60631531 32.7438337,0.253965969 C33.6113561,2.84063564 32.4738944,12.5862826 26.2418173,18.7713749 Z M25.7987648,7.14980981 C24.3600665,5.72150986 22.0284168,5.72150986 20.5897185,7.14980981 C19.1519983,8.5771388 19.1519983,10.8919363 20.5897185,12.3192653 C22.0284168,13.7465943 24.3600665,13.7465943 25.7987648,12.3192653 C27.236485,10.8909653 27.236485,8.57616783 25.7987648,7.14980981 Z M12.3868889,27.2634968 L7.567103,32.0465054 L7.567103,28.6014964 L2.35805678,30.3230299 L4.09407951,25.1535745 L0.622034058,25.1535745 L5.44181997,20.3695949" id="Shape"></path>
            </g>
        </g>
    </g>
</svg>