<?xml version="1.0" encoding="UTF-8"?>
<svg width="60px" height="60px" viewBox="0 0 60 60" version="1.1" xmlns="http://www.w3.org/2000/svg" xmlns:xlink="http://www.w3.org/1999/xlink">
    <title>11</title>
    <g id="11" stroke="none" stroke-width="1" fill="none" fill-rule="evenodd" stroke-opacity="0.85">
        <g id="iconfinder_restaurant_meal_dinner_fork_knife_2849619" transform="translate(3.000000, 6.000000)" stroke="#000000" stroke-width="2.2">
            <path d="M31.7906504,25.4039789 L35.0441145,22.1541307 L36.7114486,23.8169462 C38.1060425,25.2109972 40.3903521,25.2109972 41.7867113,23.8178274 L54,11.6229658" id="Path" stroke-linecap="round" stroke-linejoin="round"></path>
            <path d="M20.08224,29.0468403 L5.92093312,43.1838563 C4.89087546,44.2122112 4.89087546,45.894413 5.92093312,46.9227679 L6.20514784,47.2065128 C7.2352055,48.2348677 8.92019272,48.2348677 9.95025038,47.2065128 L24.0603633,33.1206061" id="Path" stroke-linejoin="round"></path>
            <path d="M42.3560234,0 L30.1427347,12.1930992 C28.7463755,13.5880313 28.7463755,15.8676835 30.1427347,17.2608533 L31.0147972,18.1323554 L27.7878128,21.3557678" id="Path" stroke-linecap="round" stroke-linejoin="round"></path>
            <line x1="37.1342401" y1="12.9068674" x2="46.0993606" y2="3.95744804" id="Path" stroke-linecap="round"></line>
            <line x1="41.0302765" y1="16.794701" x2="49.9953971" y2="7.84616284" id="Path" stroke-linecap="round"></line>
            <path d="M4.2553643,4.03323083 C2.83605606,2.61979359 1.52619695,1.12704877 0.800655051,2.72465583 C0.800655051,2.72465583 -1.12882743,6.68739104 1.0027829,10.2712123 L14.2523078,26.924922 L17.4916494,26.058707 L38.2552111,47.1880077 C39.2879168,48.2480856 40.9993836,48.2736402 42.0612168,47.2444042 L42.2889417,47.0258677 C43.3507749,45.9957504 43.3763719,44.2862316 42.3454315,43.2243913 L4.2553643,4.03323083 Z" id="Path" stroke-linecap="round" stroke-linejoin="round"></path>
        </g>
    </g>
</svg>