<?xml version="1.0" encoding="UTF-8"?>
<svg width="60px" height="60px" viewBox="0 0 60 60" version="1.1" xmlns="http://www.w3.org/2000/svg" xmlns:xlink="http://www.w3.org/1999/xlink">
    <title>6</title>
    <g id="6" stroke="none" stroke-width="1" fill="none" fill-rule="evenodd" opacity="0.85">
        <g id="iconfinder_heart_charity_hand_love_gift_care_valentine_2916912" transform="translate(0.000000, 8.000000)" fill="#000000" fill-rule="nonzero" stroke="#000000" stroke-width="0.4">
            <path d="M52.0200513,5.01772551 C51.6652189,4.80938799 51.2057776,4.93005202 50.9970086,5.28963384 C50.7888383,5.64861309 50.9099093,6.10987808 51.2671362,6.31942073 C51.4413348,6.42185711 51.6090982,6.53483841 51.772821,6.65248961 C51.9043679,6.74784582 52.0564175,6.79318899 52.2071203,6.79318899 C52.4404326,6.79318899 52.6707519,6.68367244 52.8162168,6.47774519 C53.0564133,6.13940386 52.9787423,5.66925101 52.6426168,5.42732038 C52.4414802,5.28255368 52.2351058,5.143662 52.0200513,5.01772551 Z" id="Path"></path>
            <path d="M55.3229407,8.99331151 L55.2784931,8.86616988 C55.0785538,8.34479884 54.8196504,7.84225802 54.5085173,7.37270773 C54.2787966,7.02608111 53.8139677,6.93434029 53.4708084,7.16376765 C53.1270505,7.39500271 53.0341147,7.86229337 53.2632367,8.20831743 C53.5134601,8.5861269 53.7216305,8.98984675 53.8729318,9.38467873 L53.9127401,9.4982626 C53.9547932,9.61651636 54.0151042,9.78598831 54.0320153,9.8390142 C54.044287,9.8855625 54.0583546,9.93015245 54.0641911,9.94491534 C54.6219559,11.6803081 54.4097449,13.6992086 53.4333946,15.946482 C53.2680257,16.3277562 53.4404284,16.7715468 53.8192056,16.9386085 C53.9167808,16.9815414 54.0185463,17.0015767 54.118516,17.0015767 C54.4073504,17.0015767 54.6815187,16.8333099 54.8048345,16.5502541 C55.9318875,13.9557515 56.1429013,11.5179163 55.4694531,9.42188724 C55.4416172,9.32924257 55.3720276,9.13099805 55.3229407,8.99331151 Z" id="Path"></path>
            <path d="M59.4531238,7.96171691 C59.4016424,7.77522245 59.1783569,7.15849519 59.1749149,7.14900476 C57.5614826,2.87273786 53.428456,0 48.8895647,0 C46.8324048,0 44.8271753,0.575451423 43.1383168,1.63521602 C40.9787929,2.80675678 39.5542254,4.15017977 38.7679372,5.0252576 C37.9856897,4.15259003 36.5733939,2.81684978 34.4454472,1.66353667 C32.7081004,0.575451423 30.7028709,0 28.6451125,0 C24.1051735,0 19.972147,2.87273786 18.3575174,7.15668749 C18.3575174,7.15668749 18.1318375,7.77687951 18.0921788,7.92631611 C17.751414,8.98487557 17.5812561,10.0942013 17.5601548,11.2298893 L13.7170102,12.6050977 C13.6299109,12.6362806 11.5568877,13.392954 9.11511405,15.5225762 C5.52683227,18.6536646 5.09313162,22.2538514 4.67394751,25.7350312 C4.56754269,26.6123687 4.45245788,27.515014 4.29277582,28.4036495 L0.29533683,32.0455641 C-0.0723658994,32.3810432 -0.10050107,32.9524273 0.232182352,33.3225541 C0.409374062,33.5197441 0.653611284,33.6197702 0.897998161,33.6197702 C1.11320228,33.6197702 1.32885537,33.5426417 1.50065949,33.3861249 L5.73021363,29.5324081 C5.73021363,29.5324081 5.72557433,29.5289433 5.7249757,29.5283407 C5.864155,29.4018017 5.97055982,29.2353426 6.0090212,29.0352903 C6.21075636,27.9925483 6.33586807,26.9556812 6.45619082,25.9530098 C6.86953837,22.5247052 7.22616662,19.5636913 10.2911043,16.889198 C12.4587096,14.9984936 14.3026109,14.3141282 14.3189233,14.3082532 L30.1741393,8.6344829 C31.0533633,11.9174182 29.6819234,13.5710125 26.9185409,15.3568703 L18.2355485,21.0630285 C17.8205547,21.336142 17.7035244,21.8956254 17.9748492,22.3141081 C18.2455754,22.7318376 18.8025919,22.8490369 19.2177353,22.576526 L21.7876137,20.8876815 C21.6765696,22.9425854 20.9329331,26.6414425 17.2909251,29.174182 C16.8828155,29.4578404 16.780601,30.0209392 17.0624017,30.4317392 C17.2366003,30.6860225 17.5172037,30.8219013 17.8018478,30.8219013 C17.9778423,30.8219013 18.1560816,30.7700805 18.3115733,30.6617691 C19.8747215,29.5742865 20.9826186,28.3138671 21.7665123,27.0334123 C22.3552557,26.2631812 23.0683626,25.7764577 23.6898805,25.7306626 C24.1020308,25.6948099 24.4936783,25.8701569 24.8760473,26.2473638 C26.2229437,27.7278707 27.6434705,29.1130215 29.037209,30.3717838 C29.8339731,31.739912 29.2997042,33.2333742 28.7974614,34.1402374 C27.9848339,35.0659309 27.2880395,35.7572258 26.5345258,36.3980557 C23.5022129,38.9765903 16.6484555,39.6473979 16.5794645,39.6538755 C16.386559,39.6721032 16.2146052,39.7514914 16.0778204,39.8698958 L16.0772218,39.8680881 L11.9834049,43.4105791 C11.6068725,43.7359652 11.5642208,44.3067467 11.8874759,44.6851588 C12.0652662,44.8934963 12.3165372,45 12.5691552,45 C12.7761282,45 12.9841489,44.9281439 13.1537082,44.7817201 L17.0354638,41.4228614 C18.4525485,41.2622773 24.5761383,40.4301324 27.693156,37.7786872 C29.0605552,36.6158837 30.2220289,35.3507944 32.0834398,32.9775845 C35.423743,35.6867255 38.0736869,37.3891277 38.2864965,37.5251572 C38.4331586,37.6187057 38.6004731,37.665254 38.7670393,37.665254 C38.9336055,37.665254 39.1007703,37.6187057 39.247582,37.5251572 C40.2546116,36.8826702 63.8562779,21.6494768 59.4531238,7.96171691 Z M38.7667399,35.6797959 C36.7166139,34.3057927 28.5931821,28.6296121 23.5246612,21.7855063 C23.6216377,20.9045534 23.6152025,20.1766525 23.5902101,19.7030349 L27.8951905,16.8744351 C30.9122385,14.9243778 33.4493424,12.3987185 31.5967612,7.16512343 C31.430195,6.69557314 30.9180751,6.44837006 30.4498041,6.61723944 L20.8929752,10.0372587 C20.5387414,10.0496113 20.2627773,9.97549561 20.0956125,9.81009099 C19.8343146,9.55113785 19.7524532,9.02449435 19.841947,8.34901681 C19.9079449,8.14595175 20.0394918,7.7905879 20.0394918,7.7905879 C21.3887827,4.21224416 24.8465652,1.80785145 28.6452621,1.80785145 C30.3668951,1.80785145 32.0446791,2.28854922 33.5446728,3.2265953 C36.6061684,4.88772169 38.0079883,6.94262558 38.02026,6.96085323 C38.1862276,7.21152108 38.4657834,7.36095768 38.7650937,7.36216281 L38.7680868,7.36216281 C39.0667985,7.36216281 39.3462047,7.21212365 39.5133695,6.9632635 C39.5268385,6.94262558 40.9286584,4.88787234 44.0392409,3.19842529 C45.4907463,2.28869986 47.1679317,1.80785145 48.8895647,1.80785145 C52.6870643,1.80785145 56.1460441,4.2123948 57.4923419,7.78124812 C57.4923419,7.78124812 57.6806081,8.29312873 57.7343343,8.4832386 C61.3992395,19.8777793 42.0913293,33.4466829 38.7667399,35.6797959 Z" id="Shape"></path>
        </g>
    </g>
</svg>