<?xml version="1.0" encoding="UTF-8"?>
<svg width="90px" height="90px" viewBox="0 0 90 90" version="1.1" xmlns="http://www.w3.org/2000/svg" xmlns:xlink="http://www.w3.org/1999/xlink">
    <title>firebase</title>
    <defs>
        <linearGradient x1="-3.20179808%" y1="17.02%" x2="100.55613%" y2="92.9%" id="linearGradient-1">
            <stop stop-color="#FFFFFF" stop-opacity="0.1" offset="0%"></stop>
            <stop stop-color="#FFFFFF" stop-opacity="0.08" offset="14%"></stop>
            <stop stop-color="#FFFFFF" stop-opacity="0.02" offset="61%"></stop>
            <stop stop-color="#FFFFFF" stop-opacity="0" offset="100%"></stop>
        </linearGradient>
    </defs>
    <g id="firebase" stroke="none" stroke-width="1" fill="none" fill-rule="evenodd">
        <rect id="Rectangle" x="0" y="0" width="90" height="90"></rect>
        <g id="Firebase_Logo" transform="translate(23.000000, 14.000000)" fill-rule="nonzero">
            <path d="M0.024532082,50.0242026 L7.6352331,1.19246913 C7.72826631,0.593591744 8.19277184,0.12149093 8.78871273,0.0199750639 C9.38465361,-0.0815408024 9.9785187,0.210518358 10.2634683,0.745014059 L18.1342565,15.4649566 L21.2715324,9.47547317 C21.5144944,9.01236025 21.9934833,8.72238249 22.5154033,8.72238249 C23.0373234,8.72238249 23.5162651,9.01236025 23.7592742,9.47547317 L44.9996698,50.0242026 L0.024532082,50.0242026 L0.024532082,50.0242026 Z" id="Path" fill="#FFA000"></path>
            <polygon id="Path" fill="#F57C00" points="26.317593 31.0023715 18.1306711 15.4579555 0.0245792591 50.0242026"></polygon>
            <path d="M45,50.0242026 L39.1707999,13.8548941 C39.0827203,13.3354886 38.7130407,12.9088003 38.2123975,12.7479644 C37.7117543,12.5871284 37.1638397,12.7210007 36.7920371,13.0933832 L0.0245792591,50.0236822 L20.3689405,61.4635648 C21.6464958,62.1788117 23.202396,62.1788117 24.4799513,61.4635648 L45,50.0236822 L45,50.0242026 Z" id="Path" fill="#FFCA28"></path>
            <path d="M39.1707527,13.8548941 C39.0826731,13.3354886 38.7129935,12.9088003 38.2123503,12.7479644 C37.7117071,12.5871284 37.1637925,12.7210007 36.79199,13.0933832 L29.4944976,20.4292054 L23.7561134,9.47523665 C23.5131514,9.01212372 23.0341625,8.72214597 22.5122425,8.72214597 C21.9903224,8.72214597 21.5113807,9.01212372 21.2683715,9.47523665 L18.1310957,15.4647201 L10.25993,0.745014059 C9.97450865,0.210376444 9.3799359,-0.0812096696 8.78328736,0.0210630718 C8.18663882,0.123335813 7.72369013,0.596619244 7.63169482,1.19596968 L0.024532082,50.0242026 L0,50.0242026 L0.024532082,50.0523962 L0.22479879,50.1510265 L36.7813751,13.45323 C37.152989,13.0788134 37.7022717,12.9442315 38.2042359,13.1045944 C38.7062,13.2649573 39.0765401,13.6933013 39.1637233,14.2142206 L44.9437649,50.05935 L45,50.024108 L39.1707999,13.8547995 L39.1707527,13.8548941 Z M0.0912876512,49.9572664 L7.6352331,1.54129392 C7.72713406,0.941943486 8.19116782,0.468660056 8.78729741,0.366387314 C9.38342701,0.264114573 9.97804693,0.555606077 10.26394,1.0903383 L18.1342565,15.8102808 L21.2715324,9.82079741 C21.5144944,9.35768449 21.9934833,9.06770674 22.5154033,9.06770674 C23.0373234,9.06770674 23.5162651,9.35768449 23.7592742,9.82079741 L29.3812254,20.5419325 L0.0909574117,49.9572664 L0.0912876512,49.9572664 Z" id="Shape" fill-opacity="0.2" fill="#FFFFFF"></path>
            <path d="M24.4799513,61.1188082 C23.202396,61.8340551 21.6464958,61.8340551 20.3689405,61.1188082 L0.0737377772,49.7107144 L0.024532082,50.0243445 L20.3688933,61.4607265 C21.6464487,62.1759734 23.2023488,62.1759734 24.4799041,61.4607265 L44.9999528,50.0243445 L44.947256,49.7002128 L24.4799513,61.1189501 L24.4799513,61.1188082 Z" id="Path" fill="#A52714" opacity="0.2"></path>
            <g id="b-link" transform="translate(0.103176, 0.014312)" fill="url(#linearGradient-1)">
                <path d="M39.0093128,13.8480562 C38.9215634,13.3287926 38.5531104,12.9019624 38.0542599,12.7420725 C37.5554095,12.5821827 37.0093819,12.7151089 36.6388532,13.0873968 L29.366459,20.4195292 L23.6485968,9.47062203 C23.4064368,9.00769832 22.9291463,8.71781518 22.4091134,8.71781518 C21.8890804,8.71781518 21.4117899,9.00769832 21.1696299,9.47062203 L18.0428745,15.4575037 L10.1996849,0.743899986 C9.91520706,0.209498895 9.32275728,-0.0820399142 8.72870348,0.0202801318 C8.13464968,0.122600178 7.67221993,0.595505171 7.58064922,1.19471369 L0,50.0015176 L20.2732654,61.4328853 C21.5463389,62.1478011 23.0968137,62.1478011 24.3699344,61.4328853 L44.8182267,50.0015176 L39.0093128,13.8479616 L39.0093128,13.8480562 Z" id="b"></path>
            </g>
        </g>
    </g>
</svg>