<?xml version="1.0" encoding="UTF-8"?>
<svg width="32px" height="32px" viewBox="0 0 32 32" version="1.1" xmlns="http://www.w3.org/2000/svg" xmlns:xlink="http://www.w3.org/1999/xlink">
    <title>3</title>
    <g id="3" stroke="none" stroke-width="1" fill="none" fill-rule="evenodd" fill-opacity="0.85">
        <g id="iconfinder_2824269_lock_secure_security_icon" transform="translate(5.000000, 2.000000)" fill="#000000" fill-rule="nonzero">
            <path d="M18.375,12.25 L17.5,12.25 L17.5,7 C17.5,3.15 14.35,0 10.5,0 C6.65,0 3.5,3.15 3.5,7 L3.5,12.25 L2.625,12.25 C1.225,12.25 0,13.475 0,14.875 L0,25.375 C0,26.775 1.225,28 2.625,28 L18.375,28 C19.775,28 21,26.775 21,25.375 L21,14.875 C21,13.475 19.775,12.25 18.375,12.25 Z M5.25,7 C5.25,4.025 7.525,1.75 10.5,1.75 C13.475,1.75 15.75,4.025 15.75,7 L15.75,12.25 L5.25,12.25 L5.25,7 Z M19.25,25.375 C19.25,25.9 18.9,26.25 18.375,26.25 L2.625,26.25 C2.1,26.25 1.75,25.9 1.75,25.375 L1.75,14.875 C1.75,14.35 2.1,14 2.625,14 L18.375,14 C18.9,14 19.25,14.35 19.25,14.875 L19.25,25.375 Z" id="Shape"></path>
        </g>
    </g>
</svg>