<?xml version="1.0" encoding="UTF-8"?>
<svg width="32px" height="32px" viewBox="0 0 32 32" version="1.1" xmlns="http://www.w3.org/2000/svg" xmlns:xlink="http://www.w3.org/1999/xlink">
    <title>1</title>
    <g id="1" stroke="none" stroke-width="1" fill="none" fill-rule="evenodd" stroke-opacity="0.85">
        <g id="iconfinder_1616813_scooter_bicycle_bike_motorbike_motorcycle_icon" transform="translate(6.000000, 1.000000)" fill="#000000" fill-rule="nonzero" stroke="#000000" stroke-width="0.5">
            <path d="M10,30 C8.62125,30 7.5,28.87875 7.5,27.5 L7.5,18.75 C7.5,17.37125 8.62125,16.25 10,16.25 C11.37875,16.25 12.5,17.37125 12.5,18.75 L12.5,27.5 C12.5,28.87875 11.37875,30 10,30 Z M10,17.5 C9.31,17.5 8.75,18.06125 8.75,18.75 L8.75,27.5 C8.75,28.18875 9.31,28.75 10,28.75 C10.69,28.75 11.25,28.18875 11.25,27.5 L11.25,18.75 C11.25,18.06125 10.69,17.5 10,17.5 Z" id="Shape"></path>
            <path d="M11.875,21.25 L8.125,21.25 C7.78,21.25 7.5,20.97 7.5,20.625 C7.5,20.28 7.78,20 8.125,20 L11.875,20 C12.22,20 12.5,20.28 12.5,20.625 C12.5,20.97 12.22,21.25 11.875,21.25 Z" id="Path"></path>
            <path d="M14.375,25 L11.875,25 L11.875,23.75 L14.375,23.75 C15.40875,23.75 16.25,22.90875 16.25,21.875 L16.25,11.25 C16.25,8.38125 14.30375,5.89 11.5175,5.19375 L11.82,3.98125 C15.165,4.8175 17.5,7.80625 17.5,11.25 L17.5,21.875 C17.5,23.5975 16.09875,25 14.375,25 Z" id="Path"></path>
            <path d="M8.125,25 L5.625,25 C3.90125,25 2.5,23.5975 2.5,21.875 L2.5,11.25 C2.5,7.80625 4.835,4.8175 8.18,3.98125 L8.4825,5.19375 C5.69625,5.89 3.75,8.38125 3.75,11.25 L3.75,21.875 C3.75,22.90875 4.59125,23.75 5.625,23.75 L8.125,23.75 L8.125,25 Z" id="Path"></path>
            <path d="M10,7.5 C8.62125,7.5 7.5,6.37875 7.5,5 C7.5,3.62125 8.62125,2.5 10,2.5 C11.37875,2.5 12.5,3.62125 12.5,5 C12.5,6.37875 11.37875,7.5 10,7.5 Z M10,3.75 C9.31,3.75 8.75,4.31125 8.75,5 C8.75,5.68875 9.31,6.25 10,6.25 C10.69,6.25 11.25,5.68875 11.25,5 C11.25,4.31125 10.69,3.75 10,3.75 Z" id="Shape"></path>
            <path d="M12.355,4.775 L11.395,3.975 L13.77,1.125 C14.365,0.41 15.24,0 16.17125,0 L20,0 L20,1.25 L16.17125,1.25 C15.61375,1.25 15.08875,1.49625 14.73125,1.925 L12.355,4.775 Z" id="Path"></path>
            <path d="M7.645,4.775 L5.27,1.925 C4.9125,1.49625 4.3875,1.25 3.82875,1.25 L0,1.25 L0,0 L3.82875,0 C4.75875,0 5.63375,0.41 6.22875,1.125 L8.60375,3.975 L7.645,4.775 Z" id="Path"></path>
        </g>
    </g>
</svg>