<?xml version="1.0" encoding="UTF-8"?>
<svg width="32px" height="32px" viewBox="0 0 32 32" version="1.1" xmlns="http://www.w3.org/2000/svg" xmlns:xlink="http://www.w3.org/1999/xlink">
    <title>4</title>
    <g id="4" stroke="none" stroke-width="1" fill="none" fill-rule="evenodd" fill-opacity="0.85">
        <g id="iconfinder_4129325_bulb_eco_ecolight_friendly_light_icon" transform="translate(7.000000, 0.000000)" fill="#000000" fill-rule="nonzero" stroke="#E2F2FB" stroke-width="0.3">
            <path d="M12.9139388,8.35311493 C15.7606915,12.966608 16.5675775,17.122153 15.1876677,20.0544785 C14.4873053,21.5412914 13.1967775,22.6879837 11.3907731,23.4496109 L11.5560684,25.6931922 C14.8129983,24.5319233 16.3863648,22.5738004 17.1467233,20.9630864 C18.8413064,17.3565932 17.9952392,12.4819361 14.7566755,7.23314637 C13.3681948,5.0126447 11.9442063,2.8042902 10.6328635,0.538844031 C10.2692138,-0.0903790887 9.391312,-0.187556404 8.89787487,0.348133549 C6.61679953,2.81400794 4.8524251,5.06487751 3.50434998,7.2282875 C0.192321638,12.5353837 -0.814143167,17.4124702 0.664943796,20.9667305 C1.71426294,23.4872671 3.98554301,25.2984094 7.25594142,26.2373852 C7.42246114,27.990221 7.66122104,29.6592414 7.95630379,31.1363366 C8.0591542,31.6465175 8.50973699,32 9.01541821,32 L9.22724109,31.9805645 C9.81250895,31.862737 10.1933004,31.2991086 10.0782059,30.7184741 C8.94685126,25.0712574 8.68115435,16.098147 10.2239106,11.4469977 C10.4087965,10.8833693 10.1002452,10.2784405 9.53334353,10.0925889 C8.96766623,9.91159613 8.35546136,10.2152752 8.1717999,10.7764742 C7.08329964,14.0598528 6.81025627,19.1240057 7.08207523,23.9282092 C4.86834243,23.1435024 3.38435782,21.8741237 2.6644049,20.1467969 C1.45836131,17.2484835 2.40850326,13.0589264 5.34463781,8.3579738 C6.4245672,6.62700286 7.79223288,4.82557837 9.51130415,2.88203206 C10.6157217,4.72111276 11.7740133,6.5334697 12.9139388,8.35311493 Z" id="Shape"></path>
        </g>
    </g>
</svg>