<svg width="22" height="22" viewBox="0 0 22 22" fill="none" xmlns="http://www.w3.org/2000/svg">
<g clip-path="url(#clip0_3116_18711)">
<path d="M5.30566 6.77637H16.7228V7.72791H5.30566V6.77637Z" fill="#6E11B0"/>
<path d="M3.87832 15.815C2.82748 15.815 1.97559 14.9631 1.97559 13.9121V8.67928C1.97559 7.62826 2.82748 6.77637 3.87832 6.77637C4.92934 6.77637 5.78123 7.62826 5.78123 8.67928V13.9121C5.78123 14.9631 4.92934 15.815 3.87832 15.815ZM3.87832 7.72791C3.3529 7.72791 2.92695 8.15385 2.92695 8.67928V13.9121C2.92695 14.4375 3.3529 14.8636 3.87832 14.8636C4.40391 14.8636 4.82986 14.4375 4.82986 13.9121V8.67928C4.82986 8.15385 4.40391 7.72791 3.87832 7.72791Z" fill="#6E11B0"/>
<path d="M18.1498 15.815C17.099 15.815 16.2471 14.9631 16.2471 13.9121V8.67928C16.2471 7.62826 17.099 6.77637 18.1498 6.77637C19.2008 6.77637 20.0527 7.62826 20.0527 8.67928V13.9121C20.0527 14.9631 19.2008 15.815 18.1498 15.815ZM18.1498 7.72791C17.6244 7.72791 17.1984 8.15385 17.1984 8.67928V13.9121C17.1984 14.4375 17.6244 14.8636 18.1498 14.8636C18.6754 14.8636 19.1013 14.4375 19.1013 13.9121V8.67928C19.1013 8.15385 18.6754 7.72791 18.1498 7.72791Z" fill="#6E11B0"/>
<path d="M13.3929 21.9998C12.3419 21.9998 11.49 21.1478 11.49 20.0969V17.7184H10.5386V20.0969C10.5386 21.1478 9.68674 21.9998 8.63572 21.9998C7.58488 21.9998 6.73281 21.1478 6.73281 20.0969V17.7184H6.25722C5.46891 17.7184 4.83008 17.0794 4.83008 16.2913V7.25268C4.83008 3.83727 7.59882 1.06836 11.0142 1.06836C14.4298 1.06836 17.1985 3.83727 17.1985 7.25268V16.2913C17.1985 17.0794 16.5595 17.7184 15.7714 17.7184H15.2956V20.0969C15.2956 21.1478 14.4437 21.9998 13.3929 21.9998ZM9.58709 16.7669H12.4414V20.0969C12.4414 20.6223 12.8675 21.0483 13.3929 21.0483C13.9183 21.0483 14.3443 20.6223 14.3443 20.0969V16.7669H15.7714C16.0341 16.7669 16.2472 16.554 16.2472 16.2913V7.25268C16.2472 4.36269 13.9044 2.0199 11.0142 2.0199C8.12424 2.0199 5.78145 4.36269 5.78145 7.25268V16.2913C5.78145 16.554 5.99451 16.7669 6.25722 16.7669H7.68435V20.0969C7.68435 20.6223 8.1103 21.0483 8.63572 21.0483C9.16114 21.0483 9.58709 20.6223 9.58709 20.0969V16.7669Z" fill="#6E11B0"/>
<path d="M9.11121 4.39844H8.15967V5.3498H9.11121V4.39844Z" fill="#6E11B0"/>
<path d="M13.8684 4.39844H12.917V5.3498H13.8684V4.39844Z" fill="#6E11B0"/>
<path d="M6.57861 0.544319L7.36814 0.0136719L8.68587 1.97459L7.89617 2.50524L6.57861 0.544319Z" fill="#6E11B0"/>
<path d="M13.332 1.95935L14.6487 0L15.4388 0.530996L14.1221 2.49035L13.332 1.95935Z" fill="#6E11B0"/>
</g>
<defs>
<clipPath id="clip0_3116_18711">
<rect width="22" height="22" fill="white"/>
</clipPath>
</defs>
</svg>
