<svg width="22" height="22" viewBox="0 0 22 22" fill="none" xmlns="http://www.w3.org/2000/svg">
<path d="M19.2403 2.4209H2.75974C2.3926 2.42129 2.04061 2.56731 1.78101 2.82691C1.52141 3.08651 1.37539 3.4385 1.375 3.80563V14.4824C1.37539 14.8495 1.52141 15.2015 1.78101 15.4611C2.04062 15.7207 2.3926 15.8667 2.75974 15.8671H9.49053C9.53273 16.6817 8.16654 18.1225 7.07741 18.9637C7.02066 19.0076 6.97905 19.0681 6.95841 19.1368C6.93776 19.2054 6.93912 19.2789 6.96228 19.3467C6.98544 19.4146 7.02925 19.4736 7.08758 19.5153C7.14591 19.557 7.21583 19.5795 7.28755 19.5795H14.7124C14.7847 19.5782 14.8546 19.5542 14.9126 19.5111C14.9705 19.4679 15.0135 19.4077 15.0354 19.3389C15.0574 19.27 15.0572 19.1961 15.035 19.1273C15.0128 19.0586 14.9696 18.9985 14.9115 18.9556C14.8886 18.9393 12.7624 17.4072 12.5878 15.8671H19.2403C19.6074 15.8667 19.9594 15.7207 20.219 15.4611C20.4786 15.2015 20.6246 14.8495 20.625 14.4824V3.80563C20.6246 3.4385 20.4786 3.08651 20.219 2.82691C19.9594 2.56731 19.6074 2.42129 19.2403 2.4209ZM2.75974 3.1084H19.2403C19.4251 3.10861 19.6023 3.18213 19.7331 3.31285C19.8638 3.44356 19.9373 3.62078 19.9375 3.80563V12.8593H2.0625V3.80563C2.06271 3.62078 2.13624 3.44356 2.26695 3.31285C2.39766 3.18213 2.57488 3.10861 2.75974 3.1084ZM13.754 18.892H8.22684C9.03538 18.1562 10.194 16.915 10.1776 15.8671H11.9004C12.0048 17.0838 13.0187 18.22 13.754 18.892ZM19.2403 15.1796H2.75974C2.57488 15.1794 2.39766 15.1059 2.26695 14.9751C2.13624 14.8444 2.06271 14.6672 2.0625 14.4824V13.5468H19.9375V14.4824C19.9373 14.6672 19.8638 14.8444 19.733 14.9751C19.6023 15.1059 19.4251 15.1794 19.2403 15.1796Z" fill="#6E11B0"/>
<path d="M11.7617 13.9219H10.135C10.0449 13.9236 9.95922 13.9606 9.89619 14.0249C9.83316 14.0892 9.79785 14.1756 9.79785 14.2656C9.79785 14.3557 9.83317 14.4421 9.8962 14.5064C9.95924 14.5706 10.045 14.6076 10.135 14.6094H11.7617C11.8517 14.6076 11.9375 14.5706 12.0005 14.5064C12.0635 14.4421 12.0988 14.3556 12.0988 14.2656C12.0988 14.1756 12.0635 14.0892 12.0005 14.0249C11.9375 13.9606 11.8517 13.9236 11.7617 13.9219Z" fill="#6E11B0"/>
<path d="M5.31462 10.0954C5.50482 10.1134 5.69669 10.0917 5.87806 10.0316C6.05942 9.97154 6.22632 9.87442 6.36817 9.74643C6.51001 9.61844 6.62371 9.46236 6.70204 9.28811C6.78038 9.11385 6.82164 8.92521 6.82322 8.73416V6.5332C6.82322 6.44203 6.787 6.3546 6.72253 6.29013C6.65807 6.22567 6.57063 6.18945 6.47947 6.18945C6.3883 6.18945 6.30086 6.22567 6.2364 6.29013C6.17193 6.3546 6.13572 6.44203 6.13572 6.5332V8.73416C6.13553 8.91279 6.06448 9.08405 5.93817 9.21037C5.81186 9.33668 5.6406 9.40772 5.46196 9.40791C5.36301 9.42513 5.2615 9.42081 5.16436 9.39525C5.06723 9.3697 4.97674 9.3235 4.89907 9.25981C4.8214 9.19613 4.75837 9.11644 4.71428 9.0262C4.67018 8.93595 4.64606 8.83726 4.64355 8.73684V6.54681C4.64355 6.45564 4.60734 6.36821 4.54287 6.30374C4.47841 6.23928 4.39097 6.20306 4.2998 6.20306C4.20864 6.20306 4.1212 6.23928 4.05674 6.30374C3.99227 6.36821 3.95605 6.45564 3.95605 6.54681V8.73687C3.95644 9.09707 4.0997 9.4424 4.35439 9.69709C4.60909 9.95178 4.95442 10.095 5.31462 10.0954Z" fill="#6E11B0"/>
<path d="M7.3876 10.0301C7.46141 10.0836 7.55345 10.1056 7.64347 10.0913C7.73349 10.0769 7.81412 10.0274 7.86764 9.95361L8.70681 8.79647L9.48434 9.94455C9.53627 10.018 9.61495 10.0682 9.70348 10.0844C9.79201 10.1005 9.88334 10.0813 9.95787 10.0308C10.0324 9.9804 10.0842 9.90275 10.1021 9.81456C10.12 9.72637 10.1026 9.63467 10.0537 9.55915L9.13618 8.20443L10.2017 6.73517C10.2549 6.66134 10.2767 6.56943 10.2623 6.47958C10.2478 6.38974 10.1983 6.30928 10.1246 6.25587C10.051 6.20246 9.95911 6.18044 9.86922 6.19465C9.77933 6.20885 9.69875 6.25813 9.64514 6.33166L8.72611 7.59889L7.87402 6.34071C7.82212 6.26713 7.74343 6.21685 7.65485 6.20066C7.56628 6.18448 7.47489 6.20369 7.40033 6.25416C7.32576 6.30464 7.27397 6.38235 7.25609 6.47059C7.23821 6.55884 7.25565 6.65058 7.30468 6.7261L8.29675 8.19095L7.31106 9.5501C7.28456 9.58665 7.26552 9.62805 7.25502 9.67196C7.24453 9.71586 7.24278 9.7614 7.24989 9.80598C7.257 9.85056 7.27282 9.8933 7.29645 9.93176C7.32007 9.97022 7.35105 10.0037 7.3876 10.0301Z" fill="#6E11B0"/>
<path d="M10.4721 11.1108C10.5544 11.1499 10.6489 11.1548 10.7348 11.1244C10.8207 11.094 10.891 11.0308 10.9303 10.9486L13.446 5.67924C13.4853 5.59697 13.4903 5.50248 13.4599 5.41655C13.4295 5.33061 13.3662 5.26028 13.2839 5.22102C13.2016 5.18175 13.1071 5.17678 13.0212 5.20719C12.9353 5.23759 12.8649 5.30089 12.8257 5.38316L10.31 10.6525C10.2905 10.6933 10.2792 10.7374 10.2768 10.7825C10.2745 10.8276 10.281 10.8727 10.296 10.9153C10.3111 10.9578 10.3344 10.997 10.3646 11.0305C10.3948 11.0641 10.4314 11.0913 10.4721 11.1108Z" fill="#6E11B0"/>
<path d="M15.2184 10.0954C15.4086 10.1134 15.6005 10.0917 15.7819 10.0316C15.9633 9.97155 16.1302 9.87444 16.2721 9.74646C16.414 9.61847 16.5277 9.4624 16.6061 9.28814C16.6844 9.11387 16.7257 8.92523 16.7273 8.73416V6.5332C16.7273 6.44203 16.6911 6.3546 16.6267 6.29013C16.5622 6.22567 16.4748 6.18945 16.3836 6.18945C16.2924 6.18945 16.205 6.22567 16.1405 6.29013C16.0761 6.3546 16.0398 6.44203 16.0398 6.5332V8.73416C16.0396 8.91283 15.9685 9.08409 15.8421 9.2104C15.7157 9.3367 15.5444 9.40773 15.3658 9.40791C15.2668 9.42513 15.1653 9.42081 15.0682 9.39525C14.971 9.3697 14.8806 9.3235 14.8029 9.25981C14.7252 9.19613 14.6622 9.11644 14.6181 9.0262C14.574 8.93595 14.5499 8.83726 14.5474 8.73684V6.54681C14.5474 6.45564 14.5111 6.36821 14.4467 6.30374C14.3822 6.23928 14.2948 6.20306 14.2036 6.20306C14.1124 6.20306 14.025 6.23928 13.9605 6.30374C13.8961 6.36821 13.8599 6.45564 13.8599 6.54681V8.73687C13.8602 9.09706 14.0035 9.44239 14.2582 9.69708C14.5129 9.95178 14.8582 10.095 15.2184 10.0954Z" fill="#6E11B0"/>
<path d="M17.7002 10.0954C17.7453 10.0954 17.79 10.0865 17.8318 10.0693C17.8735 10.052 17.9114 10.0267 17.9433 9.99476C17.9752 9.96284 18.0005 9.92494 18.0178 9.88323C18.0351 9.84152 18.044 9.79681 18.0439 9.75167V6.5332C18.0439 6.44203 18.0077 6.3546 17.9433 6.29013C17.8788 6.22567 17.7914 6.18945 17.7002 6.18945C17.609 6.18945 17.5216 6.22567 17.4571 6.29013C17.3927 6.3546 17.3564 6.44203 17.3564 6.5332V9.75167C17.3564 9.79681 17.3653 9.84152 17.3826 9.88323C17.3999 9.92494 17.4252 9.96284 17.4571 9.99476C17.489 10.0267 17.5269 10.052 17.5686 10.0693C17.6103 10.0865 17.6551 10.0954 17.7002 10.0954Z" fill="#6E11B0"/>
</svg>
