<svg width="22" height="22" viewBox="0 0 22 22" fill="none" xmlns="http://www.w3.org/2000/svg">
<g clip-path="url(#clip0_3116_18761)">
<path d="M14.0772 8.01025H13.5123V5.97893H12.4706V8.01025H11.9058V5.6965C11.9058 5.5405 12.0322 5.41406 12.1882 5.41406H13.7948C13.9508 5.41406 14.0772 5.5405 14.0772 5.6965V8.01025Z" fill="#6E11B0"/>
<path d="M17.2496 8.01037H16.6847V3.85295H15.643V8.01037H15.0781V3.57052C15.0781 3.41452 15.2046 3.28809 15.3606 3.28809H16.9671C17.1231 3.28809 17.2496 3.41452 17.2496 3.57052V8.01037Z" fill="#6E11B0"/>
<path d="M20.4219 8.89267H19.8571V1.82463H18.8154V8.01105H18.2505V1.5422C18.2505 1.3862 18.3769 1.25977 18.5329 1.25977H20.1395C20.2955 1.25977 20.4219 1.3862 20.4219 1.5422V8.89267Z" fill="#6E11B0"/>
<path d="M7.90121 9.6356C7.1318 9.6356 6.22095 9.25068 5.2375 8.49582C5.11371 8.40083 5.09033 8.22354 5.18543 8.09975C5.28053 7.97619 5.45793 7.95291 5.58128 8.04768C6.85444 9.02484 7.98064 9.31676 8.66974 8.84677C9.5561 8.24329 9.70085 6.45292 9.04728 4.17458C9.00425 4.02464 9.09097 3.8682 9.24079 3.82517C9.39083 3.78303 9.54705 3.86875 9.59008 4.0188C10.3242 6.57759 10.0989 8.55706 8.9877 9.31367C8.67151 9.52903 8.30589 9.6356 7.90121 9.6356Z" fill="#6E11B0"/>
<path d="M4.21367 7.00549C4.16469 7.00549 4.11526 6.99291 4.07025 6.96621C2.92131 6.28738 2.51862 5.31088 2.38314 4.6113C2.17948 3.56056 2.44625 2.39563 3.07908 1.57105C4.04554 0.31157 5.57664 0.583854 7.19777 0.871364C7.33788 0.896297 7.4791 0.921341 7.62142 0.945724C9.04573 1.18954 10.344 0.583413 10.3568 0.577124C10.4294 0.542813 10.5135 0.540607 10.5874 0.571718C10.6616 0.60272 10.7189 0.66373 10.7452 0.739635C11.1188 1.81763 11.1113 2.64949 10.7222 3.28254C10.0896 4.31243 8.62605 4.51201 7.33479 4.68798C6.53692 4.79687 5.71212 4.90929 5.48683 5.21004C5.45263 5.25572 5.40961 5.33416 5.43277 5.48696C5.45594 5.6412 5.34981 5.78506 5.19557 5.80823C5.04134 5.83195 4.89725 5.72549 4.87408 5.57103C4.8337 5.30294 4.88776 5.06761 5.03472 4.87145C5.40166 4.38149 6.26221 4.26422 7.25845 4.1283C8.42548 3.96921 9.74828 3.78882 10.241 2.98686C10.5 2.5652 10.5203 1.96811 10.3021 1.2094C9.79749 1.39552 8.71718 1.70642 7.5261 1.50243C7.38268 1.47794 7.24036 1.45267 7.09892 1.42763C5.58922 1.15954 4.2845 0.927961 3.527 1.91494C2.98994 2.61507 2.76399 3.60712 2.93764 4.50396C3.05106 5.08968 3.38954 5.90785 4.35754 6.47989C4.49191 6.55922 4.53649 6.73243 4.45705 6.8667C4.40432 6.95595 4.31032 7.00549 4.21367 7.00549Z" fill="#6E11B0"/>
<path d="M3.51807 6.4375H4.08303V9.6957H3.51807V6.4375Z" fill="#6E11B0"/>
<path d="M6.50146 9.09668H7.06642V10.6065H6.50146V9.09668Z" fill="#6E11B0"/>
<path d="M9.58313 21.4499C9.4322 21.4499 9.30709 21.3305 9.30114 21.1784C9.27709 20.5562 9.24752 19.9905 9.21111 19.4489C9.20052 19.2933 9.31835 19.1586 9.47391 19.1481C9.62858 19.1373 9.76429 19.2554 9.77466 19.4109C9.81151 19.9579 9.84129 20.529 9.86556 21.1565C9.87152 21.3124 9.75016 21.4436 9.59416 21.4497C9.59063 21.4498 9.58688 21.4499 9.58313 21.4499Z" fill="#6E11B0"/>
<path d="M1.86056 21.4499C1.86034 21.4499 1.86012 21.4499 1.8599 21.4499C1.70412 21.4495 1.5779 21.3229 1.57813 21.1669C1.58474 17.8884 1.96934 14.4217 2.7542 10.569C2.79612 10.2207 2.99206 9.91717 3.29303 9.73469C3.59974 9.54901 3.96712 9.51702 4.30207 9.64764L7.73255 10.9991C7.79102 11.0222 7.84001 11.0639 7.872 11.1178C8.71467 12.5382 9.2738 14.5267 9.58183 17.1968C9.59971 17.3517 9.4885 17.4918 9.3336 17.5097C9.17804 17.5269 9.03859 17.4164 9.02049 17.2615C8.72813 14.7244 8.20894 12.8346 7.43445 11.4889L4.09576 10.1736C3.92697 10.1077 3.7414 10.1237 3.58584 10.2177C3.43248 10.3107 3.33341 10.466 3.31421 10.644C3.31311 10.6526 3.31179 10.6613 3.31002 10.6698C2.53134 14.4901 2.14939 17.9241 2.14299 21.168C2.14277 21.3238 2.01634 21.4499 1.86056 21.4499Z" fill="#6E11B0"/>
<path d="M6.93681 19.7132C5.2689 19.7132 3.91211 18.3563 3.91211 16.6885V12.7317C3.91211 12.5757 4.03854 12.4492 4.19454 12.4492C4.35055 12.4492 4.47698 12.5757 4.47698 12.7317V16.6885C4.47698 18.0448 5.58046 19.1483 6.93681 19.1483L15.8262 19.1449C15.9445 19.1449 16.0407 19.0517 16.0407 18.937V18.5394C16.0407 18.4224 15.9445 18.3271 15.8262 18.3271H14.728C14.572 18.3271 14.4456 18.2006 14.4456 18.0446C14.4456 17.8886 14.572 17.7622 14.728 17.7622H15.8262C16.256 17.7622 16.6056 18.1108 16.6056 18.5394V18.937C16.6056 19.3631 16.256 19.7098 15.8262 19.7098L6.93681 19.7132Z" fill="#6E11B0"/>
<path d="M14.1655 18.7012H13.5823C13.4263 18.7012 13.2998 18.5748 13.2998 18.4188C13.2998 18.2628 13.4263 18.1364 13.5823 18.1364H14.1655C14.3376 18.1364 14.4775 17.9964 14.4775 17.8244C14.4775 17.6522 14.3376 17.5122 14.1655 17.5122H8.10018C7.32282 17.5122 6.69043 16.8748 6.69043 16.0912V13.3205C6.69043 13.1645 6.81686 13.0381 6.97286 13.0381C7.12886 13.0381 7.2553 13.1645 7.2553 13.3205V16.0912C7.2553 16.5633 7.63438 16.9474 8.10018 16.9474H14.1655C14.6489 16.9474 15.0423 17.3408 15.0423 17.8244C15.0423 18.3079 14.6489 18.7012 14.1655 18.7012Z" fill="#6E11B0"/>
<path d="M12.5172 15.2835C12.4808 15.2835 12.4442 15.2765 12.4091 15.262C12.3036 15.2183 12.2348 15.1153 12.2348 15.0011V13.6157H11.76C11.2147 13.6157 10.771 13.172 10.771 12.6266V8.71661C10.771 8.17127 11.2147 7.72754 11.76 7.72754H19.4327C19.9779 7.72754 20.4217 8.17127 20.4217 8.71661V12.6266C20.4217 13.172 19.9779 13.6157 19.4327 13.6157H14.3019L12.7169 15.2008C12.6629 15.2549 12.5907 15.2835 12.5172 15.2835ZM11.76 8.29241C11.5261 8.29241 11.3359 8.48272 11.3359 8.71661V12.6266C11.3359 12.8606 11.5261 13.0509 11.76 13.0509H12.5172C12.6732 13.0509 12.7997 13.1773 12.7997 13.3333V14.3192L13.9852 13.1336C14.0382 13.0807 14.1101 13.0509 14.1849 13.0509H19.4327C19.6666 13.0509 19.8568 12.8606 19.8568 12.6266V8.71661C19.8568 8.48272 19.6666 8.29241 19.4327 8.29241H11.76Z" fill="#6E11B0"/>
<path d="M13.4054 11.7875H13.2009C13.0449 11.7875 12.9185 11.6611 12.9185 11.5051C12.9185 11.3491 13.0449 11.2227 13.2009 11.2227H13.4054C13.5614 11.2227 13.6879 11.3491 13.6879 11.5051C13.6879 11.6611 13.5614 11.7875 13.4054 11.7875Z" fill="#6E11B0"/>
<path d="M15.6989 11.7875H15.4943C15.3383 11.7875 15.2119 11.6611 15.2119 11.5051C15.2119 11.3491 15.3383 11.2227 15.4943 11.2227H15.6989C15.8549 11.2227 15.9813 11.3491 15.9813 11.5051C15.9813 11.6611 15.8549 11.7875 15.6989 11.7875Z" fill="#6E11B0"/>
<path d="M17.9923 11.7875H17.7878C17.6318 11.7875 17.5054 11.6611 17.5054 11.5051C17.5054 11.3491 17.6318 11.2227 17.7878 11.2227H17.9923C18.1484 11.2227 18.2748 11.3491 18.2748 11.5051C18.2748 11.6611 18.1484 11.7875 17.9923 11.7875Z" fill="#6E11B0"/>
<path d="M11.6562 17.2295H12.2212V19.431H11.6562V17.2295Z" fill="#6E11B0"/>
</g>
<defs>
<clipPath id="clip0_3116_18761">
<rect width="22" height="22" fill="white"/>
</clipPath>
</defs>
</svg>
