<?xml version="1.0" encoding="UTF-8"?>
<svg width="90px" height="90px" viewBox="0 0 90 90" version="1.1" xmlns="http://www.w3.org/2000/svg" xmlns:xlink="http://www.w3.org/1999/xlink">
    <title>salesforce</title>
    <defs>
        <polygon id="path-1" points="-5.94091769e-16 0 71 0 71 50 0 50"></polygon>
    </defs>
    <g id="salesforce" stroke="none" stroke-width="1" fill="none" fill-rule="evenodd">
        <g id="Salesforce.com-logo" transform="translate(10.000000, 20.000000)">
            <g id="Clipped">
                <mask id="mask-2" fill="white">
                    <use xlink:href="#path-1"></use>
                </mask>
                <g id="a"></g>
                <path d="M29.4806618,5.47368421 C31.7725,3.06842105 34.9622794,1.57894737 38.4861765,1.57894737 C43.1847059,1.57894737 47.2567647,4.21052632 49.4494118,8.13157895 C51.3957295,7.25440757 53.5038649,6.80154286 55.6358088,6.80263158 C64.0931618,6.80263158 70.9582353,13.7763158 70.9582353,22.3815789 C70.9582353,30.9868421 64.0931618,37.9605263 55.6358088,37.9605263 C54.6021324,37.9605263 53.5945588,37.8557895 52.6078676,37.6578947 C50.6893015,41.1052632 47.0218382,43.4473684 42.8453676,43.4473684 C41.144983,43.4507586 39.4663695,43.0618894 37.9380147,42.3105263 C35.9933456,46.9157895 31.4644853,50.1526316 26.1916912,50.1526316 C20.6839706,50.1526316 16.0115441,46.6526316 14.2104412,41.7315789 C13.4088123,41.9021368 12.5917127,41.9878645 11.7724265,41.9873684 C5.22058824,41.9873684 -0.0783088235,36.5663158 -0.0783088235,29.9084211 C-0.0783088235,25.4347368 2.3075,21.54 5.84705882,19.4347368 C5.09614034,17.6907915 4.70961523,15.8095926 4.71158088,13.9084211 C4.71158088,6.22421053 10.8979779,0.0136842105 18.5200368,0.0136842105 C22.9836397,0.0136842105 26.9773897,2.15842105 29.4832721,5.48736842" id="Path" fill="#00A1E0" fill-rule="nonzero" mask="url(#mask-2)"></path>
            </g>
            <path d="M9.48308939,25.229328 C9.43768236,25.3533292 9.49928722,25.379186 9.51389182,25.4011503 C9.64958184,25.5040212 9.78739617,25.5785332 9.92547604,25.66222 C10.6636722,26.0709235 11.3593823,26.1904762 12.086957,26.1904762 C13.5686602,26.1904762 14.4900778,25.3647284 14.4900778,24.0357472 L14.4900778,24.0096124 C14.4900778,22.7807218 13.449168,22.3330942 12.4772982,22.0133602 L12.3501054,21.9702657 C11.6145646,21.7205951 10.9799282,21.503176 10.9799282,20.9971622 L10.9799282,20.9713055 C10.9799282,20.5375794 11.3516817,20.2178454 11.9252443,20.2178454 C12.5625359,20.2178454 13.3219752,20.439991 13.8079101,20.7210789 C13.8079101,20.7210789 13.9518318,20.8183892 14.0041429,20.6729798 C14.0325554,20.5942974 14.2803026,19.9000576 14.3068564,19.8222094 C14.3350035,19.7407467 14.2856134,19.6793022 14.2348956,19.6476068 C13.6772653,19.291729 12.9072045,19.0498433 12.1105899,19.0498433 L11.9626851,19.0503993 C10.6057849,19.0503993 9.65781353,19.9095106 9.65781353,21.1384013 L9.65781353,21.1648141 C9.65781353,22.4604318 10.7040341,22.8830367 11.6812146,23.1749677 L11.8384133,23.2261251 C12.5500556,23.4552215 13.1661043,23.6542906 13.1661043,24.1769862 L13.1661043,24.203121 C13.1661043,24.6841121 12.7651416,25.0427702 12.1225391,25.0427702 C11.8726677,25.0427702 11.0763186,25.0383217 10.2133195,24.467249 C10.1089629,24.4035803 10.0494824,24.3577054 9.9690243,24.3062699 C9.92653819,24.2793011 9.82032291,24.2306459 9.77411926,24.3763334 L9.48202724,25.2271038 M31.1764985,25.2271038 C31.1310915,25.351105 31.1926964,25.3769617 31.207832,25.3989261 C31.342991,25.501797 31.4813364,25.5763089 31.6194162,25.6599958 C32.3576125,26.0686992 33.0533225,26.188252 33.7808972,26.188252 C35.2626004,26.188252 36.184018,25.3625042 36.184018,24.0335229 L36.184018,24.0073882 C36.184018,22.7784976 35.1457636,22.33087 34.1712384,22.011136 L34.0440456,21.9680414 C33.3085048,21.7183709 32.6738685,21.5009518 32.6738685,20.994938 L32.6738685,20.9690813 C32.6738685,20.5353552 33.0456219,20.2156212 33.6191845,20.2156212 C34.2564762,20.2156212 35.01326,20.4377668 35.5018503,20.7188547 C35.5018503,20.7188547 35.645772,20.816165 35.6983486,20.6707556 C35.7264957,20.5920732 35.9745083,19.8978334 35.9984068,19.8199851 C36.0268194,19.7385225 35.9771637,19.6770779 35.9267115,19.6453826 C35.3690812,19.2895048 34.5990204,19.047619 33.8024058,19.047619 L33.6542355,19.0481751 C32.2973353,19.0481751 31.3493639,19.9072864 31.3493639,21.136177 L31.3493639,21.1625898 C31.3493639,22.4582075 32.3955844,22.8808124 33.372765,23.1727435 L33.5296981,23.2239009 C34.2439959,23.4529973 34.8573891,23.6520664 34.8573891,24.174762 L34.8573891,24.2008967 C34.8573891,24.6818879 34.4564264,25.040546 33.813824,25.040546 C33.5634214,25.040546 32.7649481,25.0360975 31.9046043,24.4650248 C31.8002478,24.401356 31.739174,24.3574274 31.6600436,24.3040457 C31.6332242,24.2862518 31.5081557,24.2350944 31.4654041,24.3741091 L31.1733121,25.2248796 M45.9903439,22.622523 C45.9903439,23.3732028 45.8565126,23.9654057 45.5946919,24.3852303 C45.3334023,24.7994944 44.9388126,25.0024559 44.3891485,25.0024559 C43.8394844,25.0024559 43.4464879,24.8011625 43.1889158,24.3880106 C42.929485,23.9709663 42.7985746,23.3759831 42.7985746,22.6253033 C42.7985746,21.8746235 42.9302816,21.2852009 43.1889158,20.8709368 C43.4459568,20.4594531 43.836829,20.2620521 44.3891485,20.2620521 C44.941468,20.2620521 45.3344645,20.4613993 45.5946919,20.8709368 C45.8581058,21.2852009 45.9903439,21.8746235 45.9903439,22.6253033 M47.2277519,21.2323752 C47.1058699,20.8014294 46.9170722,20.4233093 46.6648109,20.1063556 C46.4122841,19.7894019 46.0939038,19.5336147 45.7141841,19.3501152 C45.3371199,19.1652255 44.8910157,19.0720856 44.3864931,19.0720856 C43.8819705,19.0720856 43.4385217,19.1657816 43.0588021,19.3501152 C42.6817378,19.5347268 42.3604366,19.7894019 42.1081753,20.1063556 C41.8564451,20.4233093 41.6673819,20.8014294 41.5452343,21.2323752 C41.4244144,21.6605407 41.3630751,22.1276304 41.3630751,22.6253033 C41.3630751,23.1229762 41.4244144,23.5900658 41.5452343,24.0182313 C41.6665853,24.4491771 41.855914,24.8272973 42.1081753,25.144251 C42.3607021,25.4612047 42.6817378,25.7142116 43.0588021,25.8949308 C43.4385217,26.0750939 43.8846259,26.1668437 44.3864931,26.1668437 C44.8883603,26.1668437 45.3344645,26.0750939 45.7115287,25.8949308 C46.088593,25.7147676 46.4098942,25.4612047 46.6621555,25.144251 C46.9141513,24.8272973 47.1029489,24.4491771 47.2250965,24.0182313 C47.3456509,23.5900658 47.4069902,23.1229762 47.4069902,22.6253033 C47.4069902,22.1304107 47.3456509,21.6605407 47.2250965,21.2323752 M57.3952097,24.7911535 C57.3545824,24.6652061 57.2372145,24.7127491 57.2372145,24.7127491 C57.0574451,24.7847588 56.865461,24.8514859 56.6609966,24.8848494 C56.454939,24.918769 56.2255139,24.9357288 55.9838742,24.9357288 C55.3864132,24.9357288 54.9084444,24.749171 54.5685555,24.3796697 C54.2260113,24.0098904 54.0348238,23.4149072 54.0374791,22.6086215 C54.0393379,21.8746235 54.2087513,21.324125 54.5127925,20.9015201 C54.8128507,20.4844758 55.2748872,20.2676127 55.885625,20.2676127 C56.3954584,20.2676127 56.7857996,20.3296133 57.1947284,20.4636235 C57.1947284,20.4636235 57.2916498,20.5078302 57.338119,20.374098 C57.4467241,20.0599246 57.5269167,19.8347207 57.643488,19.4899641 C57.6764147,19.3912636 57.5956911,19.3495591 57.5662163,19.3376039 C57.4058313,19.2719889 57.0271738,19.1643915 56.7403925,19.1190726 C56.4721989,19.0762561 56.1615192,19.0540137 55.8110088,19.0540137 C55.2905539,19.0540137 54.8285174,19.1471536 54.4328655,19.3317652 C54.0372136,19.5160988 53.7026355,19.7710519 53.4370973,20.0880056 C53.1715591,20.4049593 52.96975,20.7830795 52.8343255,21.2140253 C52.7002287,21.6421908 52.6325165,22.1120607 52.6325165,22.6097336 C52.6325165,23.6829277 52.9086762,24.5531602 53.4556849,25.1898478 C54.0026936,25.8293158 54.8258621,26.1518301 55.8986364,26.1518301 C56.5332727,26.1518301 57.1838413,26.0175418 57.6511886,25.8237552 C57.6511886,25.8237552 57.7404094,25.7787144 57.7016408,25.6697268 L57.3962719,24.7911535 M59.5604082,21.8996462 C59.6196233,21.4826018 59.7287595,21.1350649 59.9002971,20.8653762 C60.1570726,20.4538925 60.5482104,20.2286886 61.0978745,20.2286886 C61.6475385,20.2286886 62.0113259,20.4550046 62.2715533,20.8653762 C62.4441531,21.136455 62.519566,21.4965033 62.547713,21.8996462 L59.5471313,21.8990901 L59.5604082,21.8996462 Z M63.7293581,20.9821486 C63.6239394,20.5678846 63.3629153,20.14806 63.1929709,19.9562196 C62.9221219,19.6531674 62.6592391,19.4390847 62.3963563,19.3223122 C62.0168263,19.1533384 61.6085392,19.0666102 61.1961236,19.0673543 C60.6730133,19.0673543 60.1976999,19.159943 59.8126695,19.348169 C59.4276391,19.5377851 59.1036825,19.7957966 58.8487659,20.1183108 C58.5941147,20.4408251 58.4026617,20.8217256 58.2805141,21.258232 C58.1583665,21.6891778 58.0967617,22.161828 58.0967617,22.6567206 C58.0967617,23.1627344 58.1607564,23.6326043 58.2866215,24.0579895 C58.4138143,24.4861551 58.6185442,24.8614949 58.894704,25.172888 C59.1708637,25.4870614 59.5240295,25.7317274 59.9488906,25.9041058 C60.3710964,26.0750939 60.8835851,26.1637854 61.4704246,26.1618705 C62.6812788,26.1576687 63.3185705,25.8754687 63.5787979,25.7225525 C63.6252671,25.6953056 63.6690809,25.6483186 63.61438,25.5129182 L63.3408757,24.7094128 C63.2989206,24.589582 63.183146,24.6329547 63.183146,24.6329547 C62.8830878,24.7502831 62.4582267,24.9610295 61.4624584,24.9582492 C60.8118898,24.9571371 60.3312657,24.7561217 60.0285521,24.4411143 C59.7205278,24.1186 59.5665156,23.6487301 59.5426172,22.9814591 L63.7381208,22.9847955 C63.7381208,22.9847955 63.8485847,22.9836834 63.8600029,22.8708034 C63.864517,22.8240944 64.003659,21.9699876 63.7349344,20.9829827 L63.7293581,20.9821486 Z M26.0229331,21.8996462 C26.0821481,21.4826018 26.1915498,21.1350649 26.362822,20.8653762 C26.6198629,20.4538925 27.0107352,20.2286886 27.5603993,20.2286886 C28.1100633,20.2286886 28.4738507,20.4550046 28.7340781,20.8653762 C28.9064124,21.136455 28.9818253,21.4965033 29.0102379,21.8996462 L26.0096561,21.8990901 L26.0229331,21.8996462 Z M30.1918829,20.9821486 C30.0867297,20.5678846 29.8254401,20.14806 29.6554957,19.9562196 C29.3846467,19.6531674 29.1217639,19.4390847 28.8588811,19.3223122 C28.4793511,19.1533384 28.071064,19.0666102 27.6586484,19.0673543 C27.1355381,19.0673543 26.6602247,19.159943 26.2751943,19.348169 C25.890164,19.5377851 25.5662073,19.7957966 25.3112907,20.1183108 C25.0571706,20.4408251 24.8651865,20.8217256 24.7430389,21.258232 C24.6211569,21.6891778 24.5598175,22.161828 24.5598175,22.6567206 C24.5598175,23.1627344 24.6232812,23.6326043 24.7499429,24.0579895 C24.8768702,24.4861551 25.0818657,24.8614949 25.35537,25.172888 C25.6315297,25.4870614 25.9846956,25.7317274 26.4095567,25.9041058 C26.8317624,26.0750939 27.3415958,26.1637854 27.9310906,26.1618705 C29.1419448,26.1576687 29.7792365,25.8754687 30.0394639,25.7225525 C30.0856676,25.6953056 30.1297469,25.6483186 30.0747805,25.5129182 L29.8012762,24.7094128 C29.7590556,24.589582 29.6432809,24.6329547 29.6432809,24.6329547 C29.3432228,24.7502831 28.9183616,24.9610295 27.9225934,24.9582492 C27.2746801,24.9571371 26.7914006,24.7561217 26.4886871,24.4411143 C26.1806627,24.1186 26.0266506,23.6487301 26.0027522,22.9814591 L30.1982558,22.9847955 C30.1982558,22.9847955 30.3087197,22.9836834 30.3201378,22.8708034 C30.324652,22.8240944 30.463794,21.9699876 30.1948038,20.9829827 L30.1918829,20.9821486 Z M16.9680803,24.7633505 C16.8037121,24.6260039 16.7808759,24.5923623 16.7264405,24.5031149 C16.6433271,24.3688266 16.600841,24.1778203 16.600841,23.9331543 C16.600841,23.5494735 16.7229885,23.271444 16.9752498,23.0851642 C16.9725944,23.0857202 17.3363818,22.7570893 18.1914148,22.7682105 C18.5719925,22.7753465 18.9516822,22.8092498 19.3279183,22.8696913 L19.3279183,24.8631631 L19.3284494,24.8631631 C19.3284494,24.8631631 18.797373,24.9829939 18.1972566,25.0208059 C17.344879,25.0744656 16.9678148,24.7639066 16.9704701,24.7647407 L16.9680803,24.7633505 Z M18.6356602,21.6772225 C18.4657158,21.6641551 18.2453191,21.6577605 17.9824362,21.6577605 C17.6239597,21.6577605 17.2761046,21.7044694 16.952148,21.7962192 C16.625536,21.888525 16.3307886,22.0314322 16.0785273,22.2216044 C15.8255732,22.4105524 15.6175156,22.6578874 15.4704448,22.9444812 C15.322009,23.2336319 15.2463306,23.572828 15.2463306,23.9565088 C15.2463306,24.3457501 15.3108564,24.6821659 15.4383147,24.9574151 C15.5632112,25.2304335 15.751233,25.4664824 15.9853234,25.6441481 C16.2182004,25.821531 16.5057783,25.9527609 16.837701,26.0306092 C17.1669684,26.1092916 17.5387219,26.1490498 17.9476507,26.1490498 C18.3778226,26.1490498 18.8053391,26.1112378 19.2195787,26.038116 C19.5723877,25.9744022 19.9238627,25.9028397 20.2737654,25.8234772 C20.4134385,25.7898356 20.5685128,25.7456289 20.5685128,25.7456289 C20.6720727,25.718104 20.6641066,25.6021657 20.6641066,25.6021657 L20.6617167,21.5985402 C20.6617167,20.7199668 20.4376025,20.0665973 19.9952158,19.6634545 C19.5544224,19.2603117 18.9091646,19.0573501 18.0727192,19.0573501 C17.7593841,19.0573501 17.2522062,19.1018348 16.9494926,19.1655036 C16.9494926,19.1655036 16.0360412,19.3512273 15.6589769,19.6603962 C15.6589769,19.6603962 15.576129,19.7137778 15.6212705,19.8347207 L15.9186733,20.6688093 C15.9555831,20.7769628 16.0562221,20.7399849 16.0562221,20.7399849 C16.0562221,20.7399849 16.0878211,20.7269175 16.1249965,20.7038411 C16.9295773,20.2450923 17.949244,20.2589938 17.949244,20.2589938 C18.4006589,20.2589938 18.7511693,20.354914 18.984843,20.5425839 C19.2134713,20.7263615 19.3300426,21.004113 19.3300426,21.587975 L19.3300426,21.7734207 C18.971566,21.718927 18.6396433,21.6875096 18.6396433,21.6875096 L18.6356602,21.6772225 Z M52.3590121,19.4168423 C52.3712106,19.3872185 52.3713992,19.3536786 52.3595348,19.3239065 C52.3476704,19.2941344 52.3247698,19.2706817 52.2960796,19.2589215 C52.2246498,19.2305625 51.8685631,19.1518801 51.5950587,19.1340862 C51.0692931,19.0996106 50.7772011,19.1924724 50.5143182,19.3159176 C50.2546219,19.4385286 49.9673095,19.6356515 49.8079866,19.8636358 L49.8074555,19.329819 C49.8074555,19.2564192 49.7577999,19.1971989 49.6871667,19.1971989 L48.6143924,19.1971989 C48.5448214,19.1971989 48.4943691,19.2564192 48.4943691,19.329819 L48.4943691,25.8635134 C48.4945152,25.9370012 48.5513759,25.9965367 48.6215619,25.9966896 L49.7208901,25.9966896 C49.791033,25.9965363 49.8478175,25.9369562 49.8478174,25.8635134 L49.8478174,22.5827648 C49.8478174,22.1434781 49.894021,21.7069717 49.9861628,21.4317224 C50.0769768,21.1595315 50.2004521,20.9423904 50.3526055,20.7866939 C50.4977637,20.6363139 50.6753684,20.5247382 50.870405,20.4613993 C51.0534373,20.4063987 51.2429249,20.3785102 51.433346,20.3785465 C51.652415,20.3785465 51.8927271,20.4374888 51.8927271,20.4374888 C51.9734507,20.4469418 52.0183266,20.3952283 52.0456771,20.3190482 C52.1176379,20.1185889 52.3218368,19.5183231 52.3616675,19.3987704" id="Shape" fill="#FFFFFE" fill-rule="nonzero"></path>
            <path d="M42.5203173,16.804251 C42.3926339,16.7646071 42.2627335,16.7329336 42.1313276,16.709404 C41.9545735,16.6790927 41.7755621,16.6648532 41.5963732,16.6668511 C40.8845145,16.6668511 40.3233613,16.8734637 39.9293813,17.281562 C39.538146,17.6865843 39.2719163,18.3036023 39.1384272,19.1154412 L39.0902713,19.389472 L38.1967677,19.389472 C38.1967677,19.389472 38.0877308,19.3848579 38.0647756,19.5071336 L37.9180624,20.3479392 C37.9078324,20.428431 37.9415166,20.4786742 38.0463117,20.4781615 L38.9161117,20.4781615 L38.0335866,25.539145 C37.9644717,25.9467307 37.8853763,26.2820276 37.7977975,26.5360637 C37.7114662,26.7867673 37.627131,26.9746669 37.5233339,27.1110414 C37.4227804,27.2430582 37.3274667,27.3402123 37.1630381,27.3968641 C37.0273034,27.4437749 36.8711087,27.4653077 36.6999432,27.4653077 C36.6046295,27.4653077 36.4778772,27.4489018 36.3843101,27.429676 C36.290743,27.4107066 36.2420881,27.3891738 36.1719751,27.3589253 C36.1719751,27.3589253 36.0699246,27.3189358 36.0297531,27.4240365 C35.997067,27.5099114 35.76527,28.1648683 35.7378237,28.2458727 C35.7098783,28.3258518 35.7490517,28.3889122 35.7984552,28.4071126 C35.9142289,28.4496656 36.0003106,28.4768379 36.1580024,28.5150331 C36.3770743,28.5680961 36.5617134,28.5714286 36.7346254,28.5714286 C37.0969173,28.5714286 37.4270221,28.5191346 37.7007372,28.4176227 C37.9761988,28.3153417 38.2159801,28.1371832 38.4280656,27.8959643 C38.6573674,27.6357759 38.8015856,27.3632831 38.9395659,26.9915855 C39.0760491,26.6232204 39.1923219,26.1659041 39.28539,25.6329666 L40.1721568,20.4781615 L41.4686228,20.4781615 C41.4686228,20.4781615 41.5779092,20.482263 41.6006149,20.3605 L41.7473281,19.5196944 C41.7575581,19.4392026 41.7241235,19.3889594 41.6188293,19.389472 L40.3605386,19.389472 C40.3667764,19.3602489 40.4239147,18.9054961 40.5683824,18.477403 C40.6300119,18.2946303 40.7460351,18.147233 40.844343,18.0459774 C40.9361288,17.9495417 41.0491916,17.8772616 41.1739488,17.8352633 C41.3107022,17.7918263 41.4532464,17.77072 41.5963732,17.7727156 C41.7148915,17.7727156 41.8311643,17.7873271 41.9197411,17.8062965 C42.0417527,17.8329562 42.08916,17.8470551 42.1210976,17.8567961 C42.2493469,17.897042 42.2665633,17.8580779 42.291764,17.7942484 L42.5926759,16.9452398 C42.6236154,16.8539816 42.5482627,16.8155301 42.5203173,16.804251 M23.1611854,25.5499115 C23.1611854,25.6175861 23.1142771,25.6726998 23.0484058,25.6726998 L22.0046958,25.6726998 C21.938575,25.6726998 21.8916667,25.6175861 21.8916667,25.5499115 L21.8916667,16.9193491 C21.8916667,16.8519309 21.938575,16.7973298 22.0046958,16.7973298 L23.0484058,16.7973298 C23.1142771,16.7973298 23.1611854,16.8519309 23.1611854,16.9193491 L23.1611854,25.5499115" id="Shape" fill="#FFFFFE" fill-rule="nonzero"></path>
        </g>
        <rect id="Rectangle" x="0" y="0" width="90" height="90"></rect>
    </g>
</svg>