<?xml version="1.0" encoding="UTF-8"?>
<svg width="24px" height="24px" viewBox="0 0 24 24" version="1.1" xmlns="http://www.w3.org/2000/svg" xmlns:xlink="http://www.w3.org/1999/xlink">
    <title>2</title>
    <g id="2" stroke="none" stroke-width="1" fill="none" fill-rule="evenodd">
        <rect id="Rectangle" stroke="#979797" fill="#D8D8D8" opacity="0" x="0.5" y="0.5" width="23" height="23"></rect>
        <g id="iconfinder_target-arrow-objective_2301263" transform="translate(1.000000, 1.000000)" stroke="#000000" stroke-linecap="round" stroke-linejoin="round" stroke-opacity="0.85" stroke-width="1.3">
            <path d="M18.647619,8.21052632 C19.1714286,9.47368421 19.4857143,10.8421053 19.4857143,12.2105263 C19.4857143,17.5789474 15.0857143,22 9.74285714,22 C4.4,22 0,17.5789474 0,12.2105263 C0,6.84210526 4.4,2.42105263 9.74285714,2.42105263 C11.2095238,2.42105263 12.6761905,2.73684211 13.9333333,3.36842105" id="Path"></path>
            <path d="M15.4,9.78947368 C15.7142857,10.5263158 15.9238095,11.3684211 15.9238095,12.2105263 C15.9238095,15.5789474 13.2,18.3157895 9.84761905,18.3157895 C6.4952381,18.3157895 3.77142857,15.5789474 3.77142857,12.2105263 C3.77142857,8.84210526 6.4952381,6.10526316 9.84761905,6.10526316 C10.7904762,6.10526316 11.6285714,6.31578947 12.3619048,6.63157895" id="Path"></path>
            <path d="M12.2571429,12.2105263 C12.2571429,13.5789474 11.2095238,14.6315789 9.84761905,14.6315789 C8.48571429,14.6315789 7.43809524,13.5789474 7.43809524,12.2105263 C7.43809524,10.8421053 8.48571429,9.78947368 9.84761905,9.78947368" id="Path"></path>
            <line x1="9.84761905" y1="12.2105263" x2="15.8190476" y2="6.21052632" id="Path"></line>
            <polygon id="Path" points="22 2.42105263 19.5904762 2.42105263 19.5904762 0 15.9238095 3.68421053 15.9238095 6.10526316 18.3333333 6.10526316"></polygon>
        </g>
    </g>
</svg>