<?xml version="1.0" encoding="UTF-8"?>
<svg width="32px" height="32px" viewBox="0 0 32 32" version="1.1" xmlns="http://www.w3.org/2000/svg" xmlns:xlink="http://www.w3.org/1999/xlink">
    <title>calendar</title>
    <g id="calendar" stroke="none" stroke-width="1" fill="none" fill-rule="evenodd" opacity="0.85">
        <g id="iconfinder_calendar_week_1697911" transform="translate(5.000000, 3.000000)" fill="#000000" fill-rule="nonzero" stroke="#000000" stroke-width="0.8">
            <path d="M20.8878107,1.96590909 L18.1223669,1.96590909 L18.1223669,0.5 C18.1223669,0.223857625 17.9078874,0 17.6433136,0 C17.3787398,0 17.1642604,0.223857625 17.1642604,0.5 L17.1642604,1.96590909 L5.83573964,1.96590909 L5.83573964,0.5 C5.83573963,0.223857633 5.62126019,0 5.35668639,0 C5.09211259,0 4.87763315,0.223857633 4.87763314,0.5 L4.87763314,1.96590909 L2.11218935,1.96590909 C0.945659383,1.96590909 0,2.95291771 0,4.17045455 L0,23.7954545 C0,25.0129914 0.945659383,26 2.11218935,26 L20.8878107,26 C22.0543406,26 23,25.0129914 23,23.7954545 L23,4.17045455 C23,3.58577274 22.7774664,3.02503798 22.3813541,2.61160551 C21.9852417,2.19817303 21.4479981,1.96590909 20.8878107,1.96590909 Z M2.11218935,2.96590909 L4.87763314,2.96590909 L4.87763314,4.63636364 C4.87763315,4.912506 5.09211259,5.13636362 5.35668639,5.13636362 C5.62126019,5.13636362 5.83573963,4.912506 5.83573964,4.63636364 L5.83573964,2.96590909 L17.1588166,2.96590909 L17.1588166,4.63636364 C17.1588166,4.91250601 17.373296,5.13636364 17.6378698,5.13636364 C17.9024436,5.13636364 18.1169231,4.91250601 18.1169231,4.63636364 L18.1169231,2.96590909 L20.8878107,2.96590909 C21.1938925,2.96590909 21.4874379,3.09281619 21.7038705,3.31871229 C21.920303,3.54460838 22.0418935,3.85098923 22.0418935,4.17045455 L22.0418935,6.94886364 L0.958106509,6.94886364 L0.958106509,4.17045455 C0.958106509,3.50520246 1.474807,2.96590909 2.11218935,2.96590909 Z M20.8878107,24.971591 L2.11218935,24.971591 C1.4852871,24.9717729 0.972891916,24.4495863 0.958106509,23.7954545 L0.958106509,7.94886364 L22.0418935,7.94886364 L22.0418935,23.7954545 C22.0271081,24.4495863 21.5147129,24.9717729 20.8878107,24.971591 L20.8878107,24.971591 Z" id="Shape"></path>
        </g>
    </g>
</svg>