<?xml version="1.0" encoding="UTF-8"?>
<svg width="32px" height="32px" viewBox="0 0 32 32" version="1.1" xmlns="http://www.w3.org/2000/svg" xmlns:xlink="http://www.w3.org/1999/xlink">
    <title>ticket</title>
    <g id="ticket" stroke="none" stroke-width="1" fill="none" fill-rule="evenodd" stroke-opacity="0.85">
        <g id="iconfinder_ecommerce_ticket_441477" transform="translate(2.000000, 2.000000)" stroke="#000000" stroke-width="1.7">
            <g id="Group">
                <path d="M25.2903226,7.67741935 C24.6129032,8.35483871 24.0709677,8.58064516 23.0322581,8.58064516 C20.9548387,8.58064516 19.4193548,7.04516129 19.4193548,4.96774194 C19.4193548,3.92903226 19.6451613,3.38709677 20.3225806,2.70967742 L17.6129032,0 L0,17.6129032 L2.70967742,20.3225806 C3.38709677,19.6451613 3.92903226,19.4193548 4.96774194,19.4193548 C7.04516129,19.4193548 8.58064516,20.9548387 8.58064516,23.0322581 C8.58064516,24.0709677 8.35483871,24.6129032 7.67741935,25.2903226 L10.3870968,28 L28,10.3870968 L25.2903226,7.67741935 Z" id="Path"></path>
                <line x1="11.2903226" y1="6.32258065" x2="13.0967742" y2="8.12903226" id="Path"></line>
                <line x1="19.8709677" y1="14.9032258" x2="21.6774194" y2="16.7096774" id="Path"></line>
            </g>
            <line x1="14" y1="9.03225806" x2="15.8064516" y2="10.8387097" id="Path"></line>
            <line x1="17.1612903" y1="12.1935484" x2="18.9677419" y2="14" id="Path"></line>
        </g>
    </g>
</svg>