<?xml version="1.0" encoding="UTF-8"?>
<svg width="32px" height="32px" viewBox="0 0 32 32" version="1.1" xmlns="http://www.w3.org/2000/svg" xmlns:xlink="http://www.w3.org/1999/xlink">
    <title>2</title>
    <g id="2" stroke="none" stroke-width="1" fill="none" fill-rule="evenodd" stroke-linecap="round" stroke-linejoin="round" stroke-opacity="0.85">
        <g id="iconfinder_location-map_4217919" transform="translate(3.000000, 3.000000)" stroke="#000000" stroke-width="1.7">
            <path d="M6.0666363,18.7777778 L5.34444941,18.7777778 C4.98335597,18.7777778 4.65403874,18.9467778 4.49226888,19.2154444 L0.133148821,24.362 C-0.313162676,25.103 0.424912324,26 1.42008586,26 L24.5806194,26 C25.5743485,26 26.3124235,25.103 25.8675564,24.362 L21.5084364,19.2154444 C21.3466665,18.9467778 21.0173493,18.7777778 20.6562558,18.7777778 L19.9340689,18.7777778" id="Path"></path>
            <path d="M12.9996304,0 C8.21297573,0 4.33338777,3.89277778 4.33338777,8.69411111 C4.33338777,13.5402222 12.6356482,21.9555556 12.9996304,21.9555556 C13.3636126,21.9555556 21.6528737,13.5387778 21.6658731,8.69411111 C21.6658731,3.89277778 17.7862851,0 12.9996304,0 Z M12.9996304,12.155 C10.9529528,12.155 9.29481169,10.5271111 9.29481169,8.51933333 C9.29481169,6.51155556 10.9529528,4.88366667 12.9996304,4.88366667 C15.0463081,4.88366667 16.7044492,6.51155556 16.7044492,8.51933333 C16.7044492,10.5271111 15.0463081,12.155 12.9996304,12.155 Z" id="Shape"></path>
        </g>
    </g>
</svg>