<?xml version="1.0" encoding="UTF-8"?>
<svg width="90px" height="90px" viewBox="0 0 90 90" version="1.1" xmlns="http://www.w3.org/2000/svg" xmlns:xlink="http://www.w3.org/1999/xlink">
    <title>php</title>
    <defs>
        <path d="M0,19.3020895 C0,8.64193827 16.3330069,0 36.48,0 L36.48,0 C56.6269931,0 72.9601319,8.64193827 72.9601319,19.3020895 L72.9601319,19.3020895 C72.9601319,29.962108 56.6269931,38.604179 36.48,38.604179 L36.48,38.604179 C16.3330069,38.604179 0,29.962108 0,19.3020895" id="path-1"></path>
        <radialGradient cx="30.020204%" cy="82.421541%" fx="30.020204%" fy="82.421541%" r="124.088824%" gradientTransform="translate(0.300202,0.824215),scale(0.529113,1.000000),translate(-0.300202,-0.824215)" id="radialGradient-3">
            <stop stop-color="#AEB2D5" offset="0%"></stop>
            <stop stop-color="#AEB2D5" offset="30%"></stop>
            <stop stop-color="#484C89" offset="75%"></stop>
            <stop stop-color="#484C89" offset="100%"></stop>
        </radialGradient>
        <polygon id="path-4" points="0 43 76 43 76 0 0 0"></polygon>
        <polygon id="path-6" points="0 43 76 43 76 0 0 0"></polygon>
    </defs>
    <g id="php" stroke="none" stroke-width="1" fill="none" fill-rule="evenodd">
        <g id="Official-PHP-Logo" transform="translate(7.000000, 24.000000)">
            <g id="g3438" transform="translate(38.000000, 21.500000) scale(-1, 1) rotate(-180.000000) translate(-38.000000, -21.500000) ">
                <g id="g3442-Clipped" transform="translate(1.520000, 2.197910)">
                    <mask id="mask-2" fill="white">
                        <use xlink:href="#path-1"></use>
                    </mask>
                    <g id="path3446"></g>
                    <g id="g3442" mask="url(#mask-2)" fill="url(#radialGradient-3)" fill-rule="nonzero">
                        <g id="g3450">
                            <path d="M0,19.3020895 C0,8.64193827 16.3330069,0 36.48,0 L36.48,0 C56.6269931,0 72.9601319,8.64193827 72.9601319,19.3020895 L72.9601319,19.3020895 C72.9601319,29.962108 56.6269931,38.604179 36.48,38.604179 L36.48,38.604179 C16.3330069,38.604179 0,29.962108 0,19.3020895" id="path3462"></path>
                        </g>
                    </g>
                </g>
                <g id="g3466-Clipped">
                    <mask id="mask-5" fill="white">
                        <use xlink:href="#path-4"></use>
                    </mask>
                    <g id="path3470"></g>
                    <g id="g3466" mask="url(#mask-5)">
                        <g transform="translate(2.945000, 3.631031)" id="g3472">
                            <g transform="translate(0.000000, 0.000000)">
                                <path d="M35.055,0 C54.4150764,0 70.11,8.00025617 70.11,17.8690216 C70.11,27.7376543 54.4150764,35.7380432 35.055,35.7380432 C15.6949236,35.7380432 0,27.7376543 0,17.8690216 C0,8.00025617 15.6949236,0 35.055,0" id="path3474" fill="#777BB3" fill-rule="nonzero"></path>
                            </g>
                        </g>
                    </g>
                </g>
                <g id="g3478-Clipped">
                    <mask id="mask-7" fill="white">
                        <use xlink:href="#path-6"></use>
                    </mask>
                    <g id="path3482"></g>
                    <g id="g3478" mask="url(#mask-7)">
                        <g transform="translate(12.227587, 9.894924)">
                            <g id="g3484" transform="translate(0.395831, 0.398082)">
                                <path d="M8.7165371,8.99151235 C10.3084468,8.99151235 11.4968704,9.28680556 12.2488218,9.86889815 C12.9927246,10.4450185 13.5065163,11.4431759 13.7758149,12.8355 C14.0269052,14.1369136 13.9312454,15.0456204 13.4916065,15.5360062 C13.0420718,16.0368765 12.070169,16.2908951 10.6029468,16.2908951 L8.05892599,16.2908951 L6.64857182,8.99151235 L8.7165371,8.99151235 Z M0.395724599,0 C0.277634321,0 0.165481543,0.0530864198 0.0904051542,0.144925926 C0.0151968208,0.236632716 -0.0152823458,0.357404321 0.00728015416,0.474061728 L3.74500238,19.8175586 C3.78115515,20.0045556 3.94410654,20.1396605 4.13357877,20.1396605 L12.1893149,20.1396605 C14.7210649,20.1396605 16.6054954,19.4482099 17.7899607,18.084287 C18.9807593,16.7131975 19.3484885,14.7966451 18.8828565,12.3879815 C18.6933843,11.406679 18.3674815,10.4953179 17.9142524,9.67937963 C17.4604954,8.86251235 16.8608079,8.10669444 16.131551,7.43249691 C15.2586065,6.61071914 14.2706065,6.01482407 13.1976343,5.66418827 C12.1416829,5.31819753 10.7855579,5.14274691 9.16699543,5.14274691 L5.90506488,5.14274691 L4.9735371,0.322234568 C4.93738432,0.135104938 4.77456488,0 4.58509265,0 L0.395724599,0 Z" id="path3486" fill="#000000" fill-rule="nonzero"></path>
                            </g>
                            <g id="g3488">
                                <path d="M8.78108248,16.2908951 L10.9988047,16.2908951 C12.7696311,16.2908951 13.3847561,15.9000463 13.5937561,15.6671296 C13.9405061,15.2803951 14.0059505,14.4649877 13.7830964,13.3091636 C13.5326658,12.0151821 13.0684853,11.097716 12.4032214,10.5825123 C11.7221241,10.0550988 10.6148464,9.78780864 9.11239498,9.78780864 L7.52457553,9.78780864 L8.78108248,16.2908951 Z M12.5851728,20.9359568 L4.5293047,20.9359568 C4.15036026,20.9359568 3.82458942,20.6657469 3.75228387,20.2916204 L0.0145616449,0.948123457 C-0.0305633551,0.714675926 0.0303949782,0.473265432 0.1806797,0.289719136 C0.331096367,0.10617284 0.555138034,0 0.791582478,0 L4.98081859,0 C5.35989498,0 5.68566581,0.270209877 5.75797137,0.64433642 L6.62722137,5.14274691 L9.56285331,5.14274691 C11.2229783,5.14274691 12.6205339,5.32483333 13.7163325,5.68383025 C14.84327,6.05211728 15.8800894,6.6765463 16.797763,7.53973148 C17.5567075,8.24206481 18.1818603,9.03039815 18.6555408,9.88309877 C19.1293533,10.7360648 19.46977,11.6872407 19.6672908,12.710216 C20.1574644,15.2456235 19.7592561,17.2759136 18.4838811,18.744284 C17.2209089,20.1985864 15.2362005,20.9359568 12.5851728,20.9359568 M6.56415192,8.99151235 L9.11239498,8.99151235 C10.8014158,8.99151235 12.0595061,9.31149074 12.886138,9.95158025 C13.7129019,10.5918025 14.2704991,11.6602994 14.5602491,13.1576019 C14.8374644,14.5951821 14.7111936,15.6096636 14.1814366,16.2006481 C13.65102,16.7916327 12.5903186,17.0871914 10.9988047,17.0871914 L8.12848526,17.0871914 L6.56415192,8.99151235 M12.5851728,20.1396605 C15.0085964,20.1396605 16.77652,19.4999691 17.8877561,18.2204537 C18.9988603,16.9409383 19.3334714,15.1549784 18.890138,12.8620432 C18.7076589,11.9175031 18.3990408,11.0539198 17.9645478,10.2715586 C17.5295269,9.48866667 16.9615061,8.7727963 16.2595616,8.1236821 C15.4230339,7.33627778 14.4937491,6.77515432 13.4711797,6.44097531 C12.4486103,6.10586728 11.1461866,5.93904321 9.56285331,5.93904321 L5.9744922,5.93904321 L4.98081859,0.796296296 L0.791582478,0.796296296 L4.5293047,20.1396605 L12.5851728,20.1396605" id="path3490" fill="#FFFFFF" fill-rule="nonzero"></path>
                            </g>
                            <g id="g3492" transform="translate(18.229522, 5.540829)">
                                <path d="M10.6545371,0 C10.5363149,0 10.424294,0.0530864198 10.3492177,0.144925926 C10.2738774,0.236632716 10.2433982,0.357271605 10.2659607,0.474061728 L11.9193565,9.03278704 C12.0766343,9.84673457 12.0378427,10.4309506 11.8102385,10.6778025 C11.6709052,10.8287006 11.2523774,11.0817901 10.0148704,11.0817901 L7.01946765,11.0817901 L4.94068293,0.322234568 C4.90453015,0.135104938 4.74157877,0 4.55210654,0 L0.395856543,0 C0.277634321,0 0.165613487,0.0530864198 0.0904051542,0.144925926 C0.0151968208,0.236632716 -0.0152823458,0.357404321 0.00728015416,0.474061728 L3.74500238,19.8175586 C3.78115515,20.0045556 3.94410654,20.1396605 4.13357877,20.1396605 L8.28982877,20.1396605 C8.40805099,20.1396605 8.52007182,20.0865741 8.59528015,19.9948673 C8.67048849,19.9030278 8.70096765,19.7823889 8.67840515,19.6655988 L7.77643293,14.9969136 L10.9987802,14.9969136 C13.4536065,14.9969136 15.1182177,14.5616049 16.0877454,13.666037 C17.0760093,12.7524198 17.3843635,11.2916142 17.0043635,9.32370062 L15.2653357,0.322234568 C15.2291829,0.135104938 15.0663635,0 14.8767593,0 L10.6545371,0 Z" id="path3494" fill="#000000" fill-rule="nonzero"></path>
                            </g>
                            <g id="g3496" transform="translate(17.833678, 5.142747)">
                                <path d="M8.68568531,20.9359568 L4.52943531,20.9359568 C4.15035892,20.9359568 3.82458809,20.6657469 3.75228253,20.2916204 L0.0145603083,0.948123457 C-0.0305646917,0.714675926 0.0303936417,0.473265432 0.180810308,0.289719136 C0.331226975,0.10617284 0.555268642,0 0.791713086,0 L4.94796309,0 C5.32690753,0 5.65281031,0.270209877 5.72511586,0.64433642 L7.74162281,11.0817901 L10.410727,11.0817901 C11.6461228,11.0817901 11.9053936,10.816358 11.9158173,10.8049444 C11.9907617,10.7238549 12.0893242,10.3482685 11.9266367,9.50684877 L10.2732409,0.948123457 C10.2281159,0.714675926 10.2890742,0.473265432 10.4394909,0.289719136 C10.5899075,0.10617284 10.8139492,0 11.0503936,0 L15.2726159,0 C15.6515603,0 15.9774631,0.270209877 16.0497686,0.64433642 L17.7886645,9.64580247 C18.1967686,11.7587747 17.8476436,13.3438025 16.7514492,14.3572222 C15.7053936,15.3235278 13.9531714,15.7932099 11.3946367,15.7932099 L8.65230336,15.7932099 L9.46283809,19.9877006 C9.50783114,20.2211481 9.44700475,20.4626914 9.29658809,20.6461049 C9.14617142,20.8296512 8.92212975,20.9359568 8.68568531,20.9359568 M8.68568531,20.1396605 L7.6920117,14.9969136 L11.3946367,14.9969136 C13.7243798,14.9969136 15.3313311,14.5878827 16.2157548,13.7708827 C17.1001784,12.9533519 17.3651228,11.628713 17.0116436,9.79762963 L15.2726159,0.796296296 L11.0503936,0.796296296 L12.7037895,9.35488889 C12.8919423,10.3284938 12.8228034,10.9926049 12.4961089,11.3466914 C12.1692825,11.7007778 11.4740673,11.8780864 10.410727,11.8780864 L7.08889364,11.8780864 L4.94796309,0.796296296 L0.791713086,0.796296296 L4.52943531,20.1396605 L8.68568531,20.1396605" id="path3498" fill="#FFFFFF" fill-rule="nonzero"></path>
                            </g>
                            <g id="g3500" transform="translate(33.093713, 0.398082)">
                                <path d="M8.71652127,8.99151235 C10.308431,8.99151235 11.4968546,9.28680556 12.248806,9.86889815 C12.9927088,10.4448858 13.5065004,11.4430432 13.775931,12.8355 C14.0270213,14.1369136 13.9313615,15.0456204 13.4915907,15.5360062 C13.042056,16.0368765 12.0701532,16.2908951 10.602931,16.2908951 L8.05891016,16.2908951 L6.64855599,8.99151235 L8.71652127,8.99151235 Z M0.395840716,0 C0.277750438,0 0.165597661,0.0530864198 0.0905212717,0.144925926 C0.0153129384,0.236632716 -0.0152981727,0.357404321 0.00726432726,0.474061728 L3.74498655,19.8175586 C3.78127127,20.0045556 3.94409072,20.1396605 4.13369488,20.1396605 L12.189299,20.1396605 C14.721181,20.1396605 16.6054796,19.4482099 17.7900768,18.084287 C18.9808754,16.7133302 19.3484727,14.7967778 18.8829727,12.3879815 C18.6932365,11.406679 18.3674657,10.4953179 17.9142365,9.67937963 C17.4604796,8.86251235 16.8607921,8.10669444 16.1315352,7.43249691 C15.2585907,6.61071914 14.2705907,6.01482407 13.1976185,5.66418827 C12.1416671,5.31819753 10.7855421,5.14274691 9.16697961,5.14274691 L5.90491711,5.14274691 L4.97378516,0.322234568 C4.93750044,0.135104938 4.77468099,0 4.58507683,0 L0.395840716,0 Z" id="path3502" fill="#000000" fill-rule="nonzero"></path>
                            </g>
                            <g id="g3504" transform="translate(32.698010, 0.000000)">
                                <path d="M8.78095053,16.2908951 L10.9986728,16.2908951 C12.7694991,16.2908951 13.3846241,15.9000463 13.5936241,15.6671296 C13.9405061,15.2803951 14.0059505,14.4649877 13.7829644,13.3092963 C13.5325339,12.0151821 13.0682214,11.097716 12.4030894,10.5825123 C11.7219922,10.0550988 10.6147144,9.78780864 9.11226303,9.78780864 L7.52457553,9.78780864 L8.78095053,16.2908951 Z M12.5850408,20.9359568 L4.5293047,20.9359568 C4.15036026,20.9359568 3.82458942,20.6657469 3.75228387,20.2916204 L0.0145616449,0.948123457 C-0.0305633551,0.714675926 0.0303949782,0.473265432 0.1806797,0.289719136 C0.331096367,0.10617284 0.555138034,0 0.791582478,0 L4.98081859,0 C5.35976303,0 5.68566581,0.270209877 5.75797137,0.64433642 L6.62708942,5.14274691 L9.56272137,5.14274691 C11.2228464,5.14274691 12.6204019,5.32483333 13.7162005,5.68383025 C14.843138,6.05211728 15.8802214,6.67667901 16.797895,7.53999691 C17.5568394,8.24219753 18.1817283,9.03039815 18.6554089,9.88309877 C19.1292214,10.7360648 19.469638,11.6872407 19.6671589,12.710216 C20.1573325,15.2457562 19.7591241,17.2760463 18.4837491,18.7444167 C17.2207769,20.1985864 15.2362005,20.9359568 12.5850408,20.9359568 M6.56415192,8.99151235 L9.11226303,8.99151235 C10.8012839,8.99151235 12.0593741,9.31149074 12.8860061,9.95158025 C13.7129019,10.5918025 14.2703672,11.6602994 14.5601172,13.1576019 C14.8374644,14.5951821 14.7111936,15.6096636 14.1813047,16.2006481 C13.650888,16.7916327 12.5901866,17.0871914 10.9986728,17.0871914 L8.12835331,17.0871914 L6.56415192,8.99151235 M12.5850408,20.1396605 C15.0084644,20.1396605 16.776388,19.4999691 17.8876241,18.2204537 C18.9988603,16.9409383 19.3333394,15.1549784 18.8900061,12.8620432 C18.7075269,11.9175031 18.3989089,11.0539198 17.9644158,10.2715586 C17.529395,9.48866667 16.9613741,8.7727963 16.2594297,8.1236821 C15.4229019,7.33627778 14.4936172,6.77515432 13.4710478,6.44097531 C12.4484783,6.10586728 11.1460547,5.93904321 9.56272137,5.93904321 L5.97436026,5.93904321 L4.98081859,0.796296296 L0.791582478,0.796296296 L4.5293047,20.1396605 L12.5850408,20.1396605" id="path3506" fill="#FFFFFF" fill-rule="nonzero"></path>
                            </g>
                        </g>
                    </g>
                </g>
            </g>
        </g>
        <rect id="Rectangle" x="0" y="0" width="90" height="90"></rect>
    </g>
</svg>