<?xml version="1.0" encoding="UTF-8"?>
<svg width="32px" height="32px" viewBox="0 0 32 32" version="1.1" xmlns="http://www.w3.org/2000/svg" xmlns:xlink="http://www.w3.org/1999/xlink">
    <title>4</title>
    <g id="4" stroke="none" stroke-width="1" fill="none" fill-rule="evenodd" opacity="0.85">
        <g id="iconfinder_2138902_service_repair_car-service_car_car-repair_icon" transform="translate(1.000000, 3.000000)" fill="#000000" fill-rule="nonzero" stroke="#000000" stroke-width="0.5">
            <g id="Group">
                <path d="M4.93277234,0.161600111 L3.96190829,0.38099012 L8.05598295,4.41529066 L7.29989888,7.19574957 L4.47824336,7.9407947 L0.3841687,3.90649416 L0.161528103,4.86318345 C0.054330779,5.323986 0,5.79769832 0,6.27118281 C0,7.94527515 0.66121714,9.51882322 1.86196589,10.7019649 C3.37713957,12.1950928 5.49550049,12.8261523 7.58295838,12.4215452 L19.3019147,23.969403 C19.9148122,24.573352 20.7323941,24.9058923 21.6040755,24.9058923 C22.4758341,24.9058923 23.293416,24.573352 23.9062363,23.969403 L24.3221558,23.5597079 C24.9350532,22.9557589 25.2725976,22.1501138 25.2725976,21.291083 C25.2725976,20.4320523 24.9351303,19.6264832 24.3222329,19.0226101 L12.6029682,7.4743726 C12.6813433,7.07796698 12.7210317,6.67389144 12.7210317,6.26920838 C12.7210317,6.2690565 12.7210317,6.2690565 12.7210317,6.26882868 C12.7210317,4.59481228 12.0593522,3.02080857 10.858064,1.83705936 C9.29988806,0.301708995 7.08481064,-0.324718207 4.93277234,0.161600111 Z M10.0785522,2.60519018 C11.071688,3.583902 11.6186178,4.88497816 11.6186178,6.26890462 C11.6186178,6.26898056 11.6186178,6.26913244 11.6186178,6.26913244 C11.6186178,6.69014255 11.5667531,7.11024138 11.4646421,7.51781015 L11.3901203,7.81534219 L23.5427981,19.7905131 C23.947389,20.1892729 24.1701837,20.7221423 24.1701837,21.2910071 C24.1701837,21.8599479 23.9472349,22.3928173 23.542721,22.7915771 L23.1267245,23.201424 C22.7221336,23.6001078 22.181369,23.8196497 21.6039985,23.8196497 C21.026705,23.8196497 20.4860175,23.6000319 20.0812724,23.201424 L7.92874874,11.2261772 L7.62673126,11.2996109 C5.81940442,11.739606 3.9557431,11.2290629 2.64132357,9.93391003 C1.64888134,8.95588167 1.10225976,7.65510927 1.10225976,6.27118281 C1.10225976,6.23131443 1.10272215,6.19144605 1.10364693,6.15157767 L4.14886783,9.15233787 L8.19986318,8.08257426 L9.28547692,4.09072406 L6.23863766,1.08836912 C7.66341417,1.05290525 9.04580497,1.58744532 10.0785522,2.60519018 Z" id="Shape"></path>
            </g>
            <g id="Group" transform="translate(3.125248, 0.510053)">
                <path d="M21.5489402,5.14647346 L20.6517502,4.26238261 C20.3431822,3.95831975 20.2528621,3.4547631 20.4369703,3.0648883 L21.0529503,1.75940763 C21.1913589,1.46597634 21.5078646,1.15257289 21.8057976,1.01459032 L23.7907592,0.0949596454 C24.1864876,-0.0882070914 24.6981217,-7.90600078e-06 25.0071521,0.304477484 L25.5656417,0.854813032 C25.8748262,1.15948341 25.9642215,1.66364757 25.778418,2.05352238 L24.8451616,4.00950316 C24.7052117,4.30263069 24.387473,4.61459128 24.0894629,4.75120694 L22.7643313,5.35842138 C22.3682175,5.53953774 21.8573541,5.45038444 21.5489402,5.14647346 Z M21.4469833,3.50981944 L22.3127308,4.36292687 C22.3150427,4.36338251 22.3172776,4.36391409 22.3195896,4.3641419 L23.624376,3.76619212 C23.6909601,3.73581621 23.8161906,3.61294565 23.8474019,3.54740963 L24.770871,1.61185665 C24.7707169,1.61026191 24.7703316,1.60859124 24.7701004,1.60707244 L24.2437469,1.08840378 C24.2422056,1.08817596 24.2405872,1.08779626 24.2388918,1.08764438 L22.2746607,1.9976307 C22.2080766,2.02853819 22.0836167,2.15163657 22.0526366,2.21717259 L21.4458273,3.50321268 C21.4460585,3.50549087 21.446598,3.50769312 21.4469833,3.50981944 Z" id="Shape"></path>
                <g transform="translate(0.000000, 7.883842)" id="Path">
                    <path d="M1.10738921,13.9156929 C2.50881505,11.3246278 4.24293021,9.13323371 5.99084,7.33027157 C6.13102111,7.18568224 6.12963395,6.95528097 5.98613904,6.81388111 L5.72774031,6.55925504 C5.5842454,6.41785518 5.3528194,6.41899428 5.21256122,6.56343173 C3.38735531,8.44248552 1.57494217,10.7314622 0.114253401,13.4420565 C-0.0924347539,13.8262358 -0.0119789621,14.3487774 0.301289998,14.6573967 L2.99239752,17.3092136 C3.30597474,17.6182126 3.83656681,17.6972659 4.22613006,17.4930638 C6.97673171,16.0537013 9.29946884,14.2678256 11.2062865,12.4694958 C11.352864,12.3312095 11.35402,12.1032383 11.2105251,11.9618384 L10.9522805,11.7073643 C10.8087856,11.5659644 10.5749706,11.5645975 10.4282389,11.7027319 C8.59856326,13.425122 6.37470044,15.1339188 3.7451678,16.5148836 L1.10738921,13.9156929 Z"></path>
                    <path d="M16.7586609,3.69123757 C16.6879153,3.81965173 16.5919695,3.98968088 16.4708234,4.19562955 C16.3690977,4.36862036 16.4006173,4.62225921 16.5441122,4.76365907 L16.8266322,5.04205428 C16.9701271,5.18345414 17.1724226,5.16006469 17.276229,4.98821298 C17.4913943,4.63175168 17.6494545,4.35198955 17.7498701,4.16844311 C17.9601033,3.78479537 17.8805723,3.2605831 17.5649143,2.94953379 L14.8738068,0.29771685 C14.5581488,-0.013332467 14.0264778,-0.0917023146 13.6371458,0.115157632 C13.4508798,0.214183098 13.1668955,0.369935576 12.8050757,0.582035367 C12.6306777,0.684250304 12.6068646,0.883668153 12.7503596,1.02506801 L13.0329567,1.30353917 C13.1764516,1.44493903 13.4337714,1.47607434 13.6093253,1.37575789 C13.8183254,1.25638057 13.9908738,1.16183555 14.1211906,1.09212283 L16.7586609,3.69123757 Z"></path>
                </g>
                <polygon id="Rectangle" transform="translate(18.583960, 7.177110) rotate(45.000000) translate(-18.583960, -7.177110) " points="18.0652563 3.31432076 19.1595355 3.3062737 19.1026643 11.0398991 18.0083851 11.0479461"></polygon>
            </g>
        </g>
    </g>
</svg>