<?xml version="1.0" encoding="UTF-8"?>
<svg width="139px" height="29px" viewBox="0 0 139 29" version="1.1" xmlns="http://www.w3.org/2000/svg" xmlns:xlink="http://www.w3.org/1999/xlink">
    <title>Artboard</title>
    <defs>
        <linearGradient x1="63.7337662%" y1="43.7992428%" x2="17.4837662%" y2="85.3211897%" id="linearGradient-1">
            <stop stop-color="#F1F2F2" offset="0%"></stop>
            <stop stop-color="#F1F2F2" offset="100%"></stop>
        </linearGradient>
        <linearGradient x1="83.1244859%" y1="21.8887164%" x2="28.2249769%" y2="78.6738709%" id="linearGradient-2">
            <stop stop-color="#F1F2F2" offset="0%"></stop>
            <stop stop-color="#F1F2F2" offset="100%"></stop>
        </linearGradient>
        <linearGradient x1="117.176569%" y1="21.6465822%" x2="22.7678993%" y2="69.561597%" id="linearGradient-3">
            <stop stop-color="#F1F2F2" offset="0%"></stop>
            <stop stop-color="#F1F2F2" offset="100%"></stop>
        </linearGradient>
        <linearGradient x1="117.306482%" y1="21.2285065%" x2="22.1837634%" y2="69.8581546%" id="linearGradient-4">
            <stop stop-color="#F1F2F2" offset="0%"></stop>
            <stop stop-color="#F1F2F2" offset="100%"></stop>
        </linearGradient>
        <linearGradient x1="72.6561648%" y1="22.6737824%" x2="34.0980528%" y2="79.468999%" id="linearGradient-5">
            <stop stop-color="#F1F2F2" offset="0%"></stop>
            <stop stop-color="#F1F2F2" offset="100%"></stop>
        </linearGradient>
        <linearGradient x1="33.3011583%" y1="-8.80314016%" x2="69.015444%" y2="127.889989%" id="linearGradient-6">
            <stop stop-color="#F1F2F2" offset="0%"></stop>
            <stop stop-color="#F1F2F2" offset="100%"></stop>
        </linearGradient>
        <linearGradient x1="16.9903261%" y1="38.1798941%" x2="80.3874811%" y2="69.5096987%" id="linearGradient-7">
            <stop stop-color="#F1F2F2" offset="0%"></stop>
            <stop stop-color="#F1F2F2" offset="100%"></stop>
        </linearGradient>
        <linearGradient x1="16.9956338%" y1="38.1653015%" x2="80.4125941%" y2="69.479614%" id="linearGradient-8">
            <stop stop-color="#F1F2F2" offset="0%"></stop>
            <stop stop-color="#F1F2F2" offset="100%"></stop>
        </linearGradient>
    </defs>
    <g id="Page-1" stroke="none" stroke-width="1" fill="none" fill-rule="evenodd">
        <g id="Our-Works" transform="translate(-114.000000, -4287.000000)" fill-rule="nonzero">
            <g id="Artboard" transform="translate(114.000000, 4287.000000)">
                <path d="M39.1092948,12.8431269 L39.1092948,5.09685369 L42.2794731,12.8431269 L44.0665834,12.8431269 L47.2367617,5.03400361 L47.2367617,12.8431269 L49.3502139,12.8431269 L49.3502139,1.70294902 L46.428677,1.70294902 L43.1963383,9.74776009 L39.8862992,1.70294902 L37.0580029,1.70294902 L37.0580029,12.8431269 L39.1092948,12.8431269 Z M53.3453396,13.0631022 C54.3606254,13.0631022 55.1117297,12.6807641 55.5986526,11.9160881 C55.5986526,12.3036636 55.6245527,12.6126766 55.676353,12.8431269 L55.676353,12.8431269 L57.572244,12.8431269 C57.5100836,12.4869764 57.4790034,12.0784508 57.4790034,11.6175502 L57.4790034,11.6175502 L57.4790034,7.81511993 C57.4790034,6.95616875 57.2096418,6.25172403 56.6709187,5.70178577 C56.1321956,5.15184752 55.2930307,4.87687839 54.1534242,4.87687839 C53.2002987,4.87687839 52.4336542,5.13351624 51.8534909,5.64679195 C51.2733276,6.16006765 50.9469857,6.75190597 50.8744653,7.42230689 L50.8744653,7.42230689 L52.7081959,7.81511993 C52.7392761,7.45896947 52.8817268,7.16043153 53.1355483,6.9195062 C53.3893698,6.67858087 53.7338418,6.5581182 54.1689643,6.5581182 C54.5833667,6.5581182 54.9019385,6.65239333 55.1246798,6.84094359 C55.3474211,7.02949385 55.4587918,7.27041919 55.4587918,7.56371959 C55.4587918,7.87797002 55.2671306,8.06128274 54.8838084,8.11365784 L54.8838084,8.11365784 L53.0034576,8.39648323 C52.3300537,8.50123335 51.7809705,8.7526337 51.3562081,9.15068427 C50.9314456,9.54873484 50.7190644,10.077723 50.7190644,10.737649 C50.7190644,11.3661498 50.9599358,11.9108505 51.4416786,12.3717512 C51.9234213,12.8326519 52.557975,13.0631022 53.3453396,13.0631022 Z M53.7804621,11.5075625 C53.4696603,11.5075625 53.2261988,11.4211436 53.0500778,11.2483059 C52.8739568,11.0754682 52.7858963,10.8633491 52.7858963,10.6119488 C52.7858963,10.056773 53.1018781,9.73204757 53.7338418,9.63777244 L53.7338418,9.63777244 L55.4587918,9.37065957 L55.4587918,9.71633505 C55.4587918,10.3553109 55.3008008,10.8135928 54.984819,11.0911807 C54.6688372,11.3687685 54.2673848,11.5075625 53.7804621,11.5075625 Z M62.4842349,13.0788147 C63.4373604,13.0788147 64.224725,12.8221768 64.8463286,12.3089011 C65.4679321,11.7956254 65.8719745,11.1828371 66.0584556,10.4705361 L66.0584556,10.4705361 L64.2402651,9.85774774 C64.1366644,10.2138982 63.9398233,10.5202924 63.6497417,10.7769303 C63.3596599,11.0335681 62.9711577,11.161887 62.4842349,11.161887 C61.9351517,11.161887 61.471539,10.9654805 61.0933969,10.5726675 C60.7152547,10.1798544 60.5261836,9.64824743 60.5261836,8.97784653 C60.5261836,8.30744564 60.7126647,7.77845736 61.0856268,7.39088185 C61.458589,7.00330632 61.9196116,6.80951855 62.4686948,6.80951855 C63.3492999,6.80951855 63.9139232,7.24423164 64.1625646,8.11365784 L64.1625646,8.11365784 L66.0118353,7.48515698 C65.8357142,6.76238098 65.436852,6.14697389 64.8152484,5.63893569 C64.1936448,5.13089749 63.3959202,4.87687839 62.4220746,4.87687839 C61.3031881,4.87687839 60.3630127,5.26445392 59.6015483,6.03960499 C58.8400839,6.81475606 58.4593517,7.79416988 58.4593517,8.97784653 C58.4593517,10.1510481 58.8452639,11.1278433 59.6170884,11.9082318 C60.3889128,12.6886204 61.3446283,13.0788147 62.4842349,13.0788147 Z M68.4063317,12.8431269 L69.323197,10.2976983 L73.7987429,10.2976983 L74.7156081,12.8431269 L77.0466216,12.8431269 L72.8507974,1.70294902 L70.364383,1.70294902 L66.1374786,12.8431269 L68.4063317,12.8431269 Z M73.0838987,8.31792062 L70.0380411,8.31792062 L71.5609699,4.10696483 L73.0838987,8.31792062 Z M79.8451605,15.828506 L79.8451605,12.0889258 C80.3010026,12.7174267 81.0365671,13.0316771 82.0518533,13.0316771 C83.1189392,13.0316771 83.9865944,12.6493391 84.6548183,11.884663 C85.3230422,11.119987 85.6571541,10.1458107 85.6571541,8.96213401 C85.6571541,7.77845736 85.341172,6.8121373 84.7092086,6.06317377 C84.0772444,5.31421024 83.21736,4.93972848 82.1295537,4.93972848 C81.5804703,4.93972848 81.0987275,5.04709738 80.6843254,5.26183517 C80.2699225,5.47657296 79.9694812,5.74106708 79.7830002,6.05531751 L79.7830002,6.05531751 L79.7830002,5.11256621 L77.7783286,5.11256621 L77.7783286,15.828506 L79.8451605,15.828506 Z M81.7255114,11.161887 C81.176428,11.161887 80.7205851,10.9628618 80.3579835,10.5648112 C79.9953811,10.1667606 79.8140803,9.63777244 79.8140803,8.97784653 C79.8140803,8.31792062 79.9953811,7.79155115 80.3579835,7.39873811 C80.7205851,7.00592507 81.176428,6.80951855 81.7255114,6.80951855 C82.274594,6.80951855 82.7278472,7.00330632 83.0852692,7.39088185 C83.4426913,7.77845736 83.6214023,8.30744564 83.6214023,8.97784653 C83.6214023,9.64824743 83.4401008,10.1824732 83.0774992,10.5805237 C82.7252566,10.9680992 82.274594,11.161887 81.7255114,11.161887 Z M88.859735,15.828506 L88.859735,12.0889258 C89.3155779,12.7174267 90.0511416,13.0316771 91.0664278,13.0316771 C92.1335137,13.0316771 93.0011689,12.6493391 93.6693928,11.884663 C94.3376166,11.119987 94.6717286,10.1458107 94.6717286,8.96213401 C94.6717286,7.77845736 94.3557465,6.8121373 93.7237831,6.06317377 C93.0918197,5.31421024 92.2319345,4.93972848 91.1441282,4.93972848 C90.5950448,4.93972848 90.113302,5.04709738 89.6988999,5.26183517 C89.2844977,5.47657296 88.9840557,5.74106708 88.7975747,6.05531751 L88.7975747,6.05531751 L88.7975747,5.11256621 L86.7929031,5.11256621 L86.7929031,15.828506 L88.859735,15.828506 Z M90.7400859,11.161887 C90.1910025,11.161887 89.7351603,10.9628618 89.372558,10.5648112 C89.0099556,10.1667606 88.8286548,9.63777244 88.8286548,8.97784653 C88.8286548,8.31792062 89.0099556,7.79155115 89.372558,7.39873811 C89.7351603,7.00592507 90.1910025,6.80951855 90.7400859,6.80951855 C91.2891693,6.80951855 91.7424217,7.00330632 92.0998437,7.39088185 C92.4572658,7.77845736 92.6359768,8.30744564 92.6359768,8.97784653 C92.6359768,9.64824743 92.454676,10.1824732 92.0920737,10.5805237 C91.7398319,10.9680992 91.2891693,11.161887 90.7400859,11.161887 Z M99.5526392,13.0788147 C100.764766,13.0788147 101.730842,12.7357579 102.450866,12.0496445 C103.17089,11.3635311 103.530902,10.5595737 103.530902,9.63777244 C103.530902,8.8311963 103.261541,8.12937036 102.722818,7.53229454 C102.184095,6.93521872 101.427811,6.54240568 100.453964,6.35385542 L100.453964,6.35385542 L98.9154955,6.05531751 C98.1177714,5.89819229 97.7189086,5.47919172 97.7189086,4.79831578 C97.7189086,4.41074025 97.8794898,4.07815854 98.2006514,3.80057066 C98.5218138,3.52298278 98.9362159,3.38418883 99.4438586,3.38418883 C100.065462,3.38418883 100.536845,3.54655156 100.858007,3.87127701 C101.179169,4.19600245 101.37601,4.55739045 101.44853,4.955441 L101.44853,4.955441 L103.375501,4.35836518 C103.302981,4.0126897 103.183841,3.68272675 103.018079,3.36847631 C102.852319,3.05422588 102.619217,2.74783171 102.318775,2.4492938 C102.018334,2.15075589 101.619471,1.91244931 101.122188,1.73437406 C100.624905,1.55629882 100.060283,1.4672612 99.4283185,1.4672612 C98.3715924,1.4672612 97.4676774,1.80246166 96.7165728,2.47286258 C95.965469,3.1432635 95.5899163,3.97078964 95.5899163,4.955441 C95.5899163,5.78296713 95.8489183,6.47431808 96.3669208,7.02949385 C96.8849241,7.58466964 97.5894084,7.95653263 98.480373,8.14508289 L98.480373,8.14508289 L100.018842,8.45933332 C100.443605,8.54313346 100.772536,8.7028774 101.005638,8.93856523 C101.238739,9.17425305 101.35529,9.45445971 101.35529,9.77918514 C101.35529,10.1877107 101.197299,10.5176737 100.881317,10.769074 C100.565336,11.0204743 100.127623,11.1461745 99.5681793,11.1461745 C98.8326156,11.1461745 98.260222,10.9471493 97.8509994,10.5490987 C97.4417775,10.1510481 97.211266,9.65348496 97.1594654,9.05640914 L97.1594654,9.05640914 L95.1703339,9.59063488 C95.2117747,10.0096354 95.3283253,10.4155423 95.5199859,10.8083553 C95.7116473,11.2011683 95.9784186,11.5730313 96.3203005,11.9239443 C96.6621825,12.2748573 97.1128451,12.5550639 97.6722884,12.7645642 C98.2317316,12.9740646 98.8585155,13.0788147 99.5526392,13.0788147 Z M107.696969,12.9531145 C108.173532,12.9531145 108.562034,12.8902644 108.862475,12.7645642 L108.862475,12.7645642 L108.862475,11.0361869 C108.717435,11.0780869 108.505053,11.099037 108.225332,11.099037 C107.91453,11.099037 107.686609,11.0309493 107.541568,10.8947742 C107.396527,10.758599 107.324007,10.5281486 107.324007,10.2034232 L107.324007,10.2034232 L107.324007,6.96664376 L108.862475,6.96664376 L108.862475,5.11256621 L107.324007,5.11256621 L107.324007,2.80282553 L105.459196,2.80282553 L105.459196,3.88698953 C105.459196,4.25361503 105.358185,4.54953419 105.156164,4.774747 C104.954143,4.99995981 104.661472,5.11256621 104.278149,5.11256621 L104.278149,5.11256621 L103.889647,5.11256621 L103.889647,6.96664376 L105.272715,6.96664376 L105.272715,10.5648112 C105.272715,11.3085373 105.490276,11.8925193 105.925398,12.3167574 C106.360521,12.7409955 106.951044,12.9531145 107.696969,12.9531145 Z M112.997463,13.0473896 C113.432585,13.0473896 113.844397,12.9609708 114.2329,12.788133 C114.621402,12.6152953 114.914073,12.3560387 115.110915,12.0103632 C115.110915,12.3560387 115.131634,12.6336265 115.173075,12.8431269 L115.173075,12.8431269 L117.146666,12.8431269 C117.094866,12.4031762 117.068966,11.9370381 117.068966,11.4447124 L117.068966,11.4447124 L117.068966,5.11256621 L115.002134,5.11256621 L115.002134,9.6063474 C115.002134,10.0672481 114.872633,10.4364923 114.613632,10.7140802 C114.35463,10.991668 114.002388,11.130462 113.556906,11.130462 C113.101063,11.130462 112.754001,10.9864306 112.51572,10.6983677 C112.277438,10.4103047 112.158298,10.035823 112.158298,9.57492235 L112.158298,9.57492235 L112.158298,5.11256621 L110.091466,5.11256621 L110.091466,9.99916044 C110.091466,10.8685867 110.350467,11.5939814 110.86847,12.1753447 C111.386473,12.756708 112.096137,13.0473896 112.997463,13.0473896 Z M121.903256,13.0316771 C122.400539,13.0316771 122.838252,12.9321644 123.216394,12.7331392 C123.594536,12.534114 123.871667,12.2722385 124.047789,11.9475131 C124.047789,12.2827136 124.073689,12.5812515 124.125489,12.8431269 L124.125489,12.8431269 L126.099081,12.8431269 C126.05764,12.4241263 126.03692,11.9579881 126.03692,11.4447124 L126.03692,11.4447124 L126.03692,1.4672612 L124.001168,1.4672612 L124.001168,5.88247977 C123.659287,5.2435039 122.939262,4.92401595 121.841096,4.92401595 C120.774009,4.92401595 119.895994,5.31159148 119.207051,6.08674255 C118.518107,6.86189362 118.173635,7.82035747 118.173635,8.96213401 C118.173635,10.1353356 118.523287,11.1068932 119.222591,11.8768068 C119.921895,12.6467203 120.81545,13.0316771 121.903256,13.0316771 Z M122.151898,11.161887 C121.592455,11.161887 121.136612,10.9654805 120.78437,10.5726675 C120.432127,10.1798544 120.256007,9.64300997 120.256007,8.96213401 C120.256007,8.29173311 120.434718,7.76274483 120.79214,7.37516933 C121.149562,6.9875938 121.602814,6.79380603 122.151898,6.79380603 C122.70098,6.79380603 123.151643,6.98497504 123.503886,7.36731307 C123.856127,7.74965112 124.032249,8.27602059 124.032249,8.94642149 C124.032249,9.62729745 123.856127,10.1667606 123.503886,10.5648112 C123.151643,10.9628618 122.70098,11.161887 122.151898,11.161887 Z M128.804379,3.85556448 C129.15662,3.85556448 129.457062,3.72986431 129.705704,3.47846396 C129.954345,3.22706362 130.078666,2.92852571 130.078666,2.58285023 C130.078666,2.21622473 129.954345,1.9072118 129.705704,1.65581146 C129.457062,1.40441111 129.15662,1.27871094 128.804379,1.27871094 C128.452137,1.27871094 128.151695,1.40702986 127.903053,1.66366772 C127.654412,1.92030557 127.530091,2.22669974 127.530091,2.58285023 C127.530091,2.92852571 127.654412,3.22706362 127.903053,3.47846396 C128.151695,3.72986431 128.452137,3.85556448 128.804379,3.85556448 Z M129.845565,12.8431269 L129.845565,5.11256621 L127.778733,5.11256621 L127.778733,12.8431269 L129.845565,12.8431269 Z M134.990657,13.0788147 C136.140623,13.0788147 137.096339,12.6912392 137.857803,11.9160881 C138.619268,11.140937 139,10.1615232 139,8.97784653 C139,7.79416988 138.619268,6.81475606 137.857803,6.03960499 C137.096339,5.26445392 136.140623,4.87687839 134.990657,4.87687839 C133.84069,4.87687839 132.882385,5.26445392 132.11574,6.03960499 C131.359456,6.81475606 130.981314,7.79416988 130.981314,8.97784653 C130.981314,10.1615232 131.362046,11.140937 132.12351,11.9160881 C132.884975,12.6912392 133.84069,13.0788147 134.990657,13.0788147 Z M134.990657,11.1775996 C134.451934,11.1775996 133.990912,10.9838118 133.607589,10.5962363 C133.234627,10.2086608 133.048146,9.66919748 133.048146,8.97784653 C133.048146,8.28649558 133.237217,7.74703231 133.615359,7.35945681 C133.993501,6.97188127 134.451934,6.77809351 134.990657,6.77809351 C135.52938,6.77809351 135.987813,6.97188127 136.365955,7.35945681 C136.744097,7.74703231 136.933168,8.28649558 136.933168,8.97784653 C136.933168,9.66919748 136.744097,10.2086608 136.365955,10.5962363 C135.987813,10.9838118 135.52938,11.1775996 134.990657,11.1775996 Z" id="MacAppStudio" fill-opacity="0.85" fill="#000000"></path>
                <path d="M38.1613493,26.916081 L39.0315943,24.1349647 L43.2740388,24.1349647 L44.1598239,26.916081 L46.3043563,26.916081 L42.6368951,15.6816281 L39.9329195,15.6816281 L36.2188381,26.916081 L38.1613493,26.916081 Z M42.792296,22.6108501 L39.5133371,22.6108501 L41.1605866,17.3942929 L42.792296,22.6108501 Z M50.6724441,27.0732062 C52.8791369,27.0732062 54.293285,25.7376419 54.4331458,23.8521393 L52.7081959,23.8521393 C52.5994152,25.0148659 51.7447103,25.6119417 50.7501446,25.6119417 C49.3670766,25.6119417 48.4968316,24.6691904 48.4968316,22.877963 L48.4968316,22.7522628 C48.4968316,21.0553105 49.4136969,20.0497091 50.7035243,20.0497091 C51.69809,20.0497091 52.4129342,20.5053722 52.5683351,21.6052487 L54.3865256,21.6052487 C54.1689643,19.3426456 52.4750945,18.5255945 50.6724441,18.5255945 C48.403591,18.5255945 46.5698604,20.1754092 46.5698604,22.7836878 L46.5698604,22.909388 C46.5698604,25.5333791 48.3414307,27.0732062 50.6724441,27.0732062 Z M59.1120355,27.0732062 C61.3187282,27.0732062 62.7328764,25.7376419 62.8727372,23.8521393 L61.1477872,23.8521393 C61.0390066,25.0148659 60.1843016,25.6119417 59.1897359,25.6119417 C57.8066679,25.6119417 56.9364229,24.6691904 56.9364229,22.877963 L56.9364229,22.7522628 C56.9364229,21.0553105 57.8532882,20.0497091 59.1431156,20.0497091 C60.1376814,20.0497091 60.8525255,20.5053722 61.0079264,21.6052487 L62.8261169,21.6052487 C62.6085556,19.3426456 60.9146859,18.5255945 59.1120355,18.5255945 C56.8431824,18.5255945 55.0094518,20.1754092 55.0094518,22.7836878 L55.0094518,22.909388 C55.0094518,25.5333791 56.781022,27.0732062 59.1120355,27.0732062 Z M67.5671669,27.0732062 C69.6495389,27.0732062 71.0326069,26.1304549 71.2967884,24.4020776 L69.4785979,24.4020776 C69.3387371,25.2034162 68.7482137,25.6590793 67.6137871,25.6590793 C66.2151791,25.6590793 65.4381746,24.7791781 65.3760142,23.2236384 L71.3278686,23.2236384 L71.3278686,22.6737002 C71.3278686,19.7354586 69.5096781,18.5255945 67.4894664,18.5255945 C65.1739931,18.5255945 63.4490431,20.2225468 63.4490431,22.7679753 L63.4490431,22.8936755 C63.4490431,25.4862415 65.1739931,27.0732062 67.5671669,27.0732062 Z M69.4630578,21.9509242 L65.4070944,21.9509242 C65.5935755,20.6782099 66.3550399,19.9082964 67.4894664,19.9082964 C68.6549732,19.9082964 69.3698173,20.5367972 69.4630578,21.9509242 Z M74.4372091,26.916081 L74.4372091,14.896002 L72.5568583,14.896002 L72.5568583,26.916081 L74.4372091,26.916081 Z M79.7998627,27.0732062 C81.8822347,27.0732062 83.2653027,26.1304549 83.5294843,24.4020776 L81.7112938,24.4020776 C81.5714329,25.2034162 80.9809095,25.6590793 79.846483,25.6590793 C78.4478749,25.6590793 77.6708704,24.7791781 77.6087101,23.2236384 L83.5605644,23.2236384 L83.5605644,22.6737002 C83.5605644,19.7354586 81.7423739,18.5255945 79.7221623,18.5255945 C77.4066889,18.5255945 75.6817389,20.2225468 75.6817389,22.7679753 L75.6817389,22.8936755 C75.6817389,25.4862415 77.4066889,27.0732062 79.7998627,27.0732062 Z M81.6957537,21.9509242 L77.6397902,21.9509242 C77.8262713,20.6782099 78.5877357,19.9082964 79.7221623,19.9082964 C80.887669,19.9082964 81.6025131,20.5367972 81.6957537,21.9509242 Z M86.6232846,26.916081 L86.6232846,22.6422751 C86.6232846,20.8981852 87.6178503,20.3639595 89.2650998,20.348247 L89.2650998,18.572732 C87.8975719,18.5884446 87.1361075,19.2012329 86.6232846,20.2382593 L86.6232846,18.6984322 L84.7429337,18.6984322 L84.7429337,26.916081 L86.6232846,26.916081 Z M92.3899803,27.0732062 C93.6331875,27.0732062 94.3480316,26.6175431 94.8763947,25.9104796 L94.8763947,26.916081 L96.7256653,26.916081 L96.7256653,21.5266861 C96.7256653,19.2797955 95.2959771,18.5255945 93.4777866,18.5255945 C91.6595961,18.5255945 90.1522074,19.3269331 89.9968065,21.2438607 L91.814997,21.2438607 C91.9082375,20.4268096 92.3899803,19.9554339 93.369006,19.9554339 C94.4723523,19.9554339 94.8453145,20.5053722 94.8453145,21.6052487 L94.8453145,22.0294868 L93.8352087,22.0294868 C91.5041952,22.0294868 89.6704646,22.7208377 89.6704646,24.6377654 C89.6704646,26.3504302 90.8981317,27.0732062 92.3899803,27.0732062 Z M92.8406429,25.7062169 C91.9082375,25.7062169 91.5352754,25.2505537 91.5352754,24.5592028 C91.5352754,23.5536014 92.4521407,23.2236384 93.8818289,23.2236384 L94.8453145,23.2236384 L94.8453145,24.0406896 C94.8453145,25.0934285 93.9906096,25.7062169 92.8406429,25.7062169 Z M101.155914,27.0574937 C101.730897,27.0574937 102.13494,26.9632186 102.430202,26.8532309 L102.430202,25.3448289 C102.16602,25.4548165 101.886298,25.5019541 101.513336,25.5019541 C100.922813,25.5019541 100.580931,25.1719911 100.580931,24.4492151 L100.580931,20.1282717 L102.368041,20.1282717 L102.368041,18.6984322 L100.580931,18.6984322 L100.580931,16.8914922 L98.70058,16.8914922 L98.70058,18.6984322 L97.6127737,18.6984322 L97.6127737,20.1282717 L98.70058,20.1282717 L98.70058,24.6220529 C98.70058,26.1775925 99.5397448,27.0574937 101.155914,27.0574937 Z M107.248952,27.0732062 C109.642126,27.0732062 111.429236,25.4076789 111.429236,22.8465379 L111.429236,22.7208377 C111.429236,20.2068343 109.642126,18.5255945 107.264492,18.5255945 C104.871318,18.5255945 103.084208,20.2225468 103.084208,22.7679753 L103.084208,22.8936755 C103.084208,25.3919664 104.855778,27.0732062 107.248952,27.0732062 Z M107.264492,25.5962292 C105.834804,25.5962292 105.011179,24.5434903 105.011179,22.8622504 L105.011179,22.7365503 C105.011179,21.0395979 105.865884,20.018284 107.264492,20.018284 C108.6631,20.018284 109.502265,21.0553105 109.502265,22.7522628 L109.502265,22.8622504 C109.502265,24.5434903 108.6631,25.5962292 107.264492,25.5962292 Z M114.507496,26.916081 L114.507496,22.6422751 C114.507496,20.8981852 115.502062,20.3639595 117.149311,20.348247 L117.149311,18.572732 C115.781783,18.5884446 115.020319,19.2012329 114.507496,20.2382593 L114.507496,18.6984322 L112.627145,18.6984322 L112.627145,26.916081 L114.507496,26.916081 Z" id="Accelerator" fill-opacity="0.85" fill="#000000"></path>
                <g id="jhl">
                    <path d="M31.2155445,23.3498849 L19.210973,2.32939358 C17.4378498,-0.776464527 14.5352304,-0.776464527 12.7609076,2.32939358 L0.756935878,23.3498849 C-1.0167871,26.456956 0.434822506,28.9975633 3.98226847,28.9975633 L16.3677376,28.7725519 L27.9896121,28.9975633 C31.537058,28.9993808 32.9910669,26.4587755 31.2155445,23.3498849 Z" id="Path" fill-opacity="0.85" fill="#000000"></path>
                    <path d="M27.7586741,17.2976768 C25.3383251,17.8138036 24.5483375,22.6821345 22.3889183,20.9663617 C17.533824,17.109057 17.3880632,21.6147043 12.3116284,21.6335056 C8.77258017,21.6468485 7.38215412,18.2171223 3.59897155,18.3742044 L0.756935878,23.3498849 C-1.0167871,26.456956 0.434822506,28.9975613 3.98226847,28.9975613 L27.9896121,28.9975613 C31.537058,28.9975613 32.9886676,26.456956 31.2155445,23.3498849 L27.7586741,17.2976768 Z" id="Path" fill-opacity="0.85" fill="#000000"></path>
                    <path d="M17.701179,19.3354981 L19.2679576,21.9840594 L20.1485208,17.9745246 L18.5349547,16.4710248 C20.0033598,11.1732957 15.9850405,8.13657801 15.9850405,8.13657801 C15.9850405,8.13657801 11.9661213,11.1732957 13.4345264,16.4710248 L11.8227599,17.9745246 L12.7027233,21.9840594 L14.2695019,19.3354981 L14.2695019,19.3354981 C16.2339735,23.9248417 12.8898729,28.9993808 12.8898729,28.9993808 L19.0820076,28.9993808 C19.0820076,28.9993808 15.7367073,23.9248417 17.7023787,19.3354981 L17.701179,19.3354981 Z M15.9862402,13.2851092 C16.6779564,13.2851092 17.2387033,13.8520783 17.2387033,14.5514698 C17.2387033,15.2508614 16.6779564,15.8178302 15.9862402,15.8178302 C15.2945239,15.8178302 14.7337767,15.2508614 14.7337767,14.5514698 C14.7336178,14.2155609 14.8655222,13.8933636 15.1004391,13.6558401 C15.3353561,13.4183165 15.6540175,13.2849484 15.9862402,13.2851092 L15.9862402,13.2851092 Z" id="Shape" fill="#FFFFFF"></path>
                    <g id="Group" style="mix-blend-mode: screen;" transform="translate(16.236967, 22.681737)" fill="#000000" fill-opacity="0.85">
                        <g id="Path">
                            <path d="M2.59110609,0.404021191 C4.12106022,-0.0156839839 5.73936425,0.653509891 6.53997018,2.03693789 C7.34057611,3.42036587 7.12477487,5.17466343 6.01338818,6.31764317 L1.00713455,6.31764317 C0.360930682,5.65502592 -0.00092918322,4.76158478 0,3.8310159 C-0.000720157513,2.22816046 1.06115197,0.823726364 2.59110609,0.404021191 Z"></path>
                            <path d="M15.6683916,2.47186183 C15.1978009,1.44898955 14.2742998,0.713237674 13.1806434,0.489876875 C12.0869869,0.266516077 10.9534447,0.582151685 10.1270818,1.34014317 C9.3961615,0.0613249951 7.78003514,-0.379012385 6.51257576,0.35531783 C5.24511636,1.08964804 4.80368032,2.722079 5.52529324,4.00628965 C6.24690616,5.29050031 7.85979084,5.74282529 9.13254936,5.01792556 C9.28012971,5.49816908 9.5266796,5.94134351 9.85595476,6.31824967 L11.7532445,6.31824967 C14.5820838,6.31824967 16.0780814,4.70194194 15.6683916,2.47186183 Z"></path>
                            <path d="M11.7532445,6.31826274 L2.79945253,6.31826274 C3.29001579,4.00595502 5.30635115,2.35069315 7.64527047,2.34019233 C9.98418979,2.32969151 12.0149839,3.96678338 12.5258367,6.27458207 C12.2693413,6.30403417 12.0113884,6.31861389 11.7532445,6.31826274 Z"></path>
                        </g>
                    </g>
                    <g id="Group" transform="translate(0.000160, 22.681737)" fill="#000000" fill-opacity="0.85">
                        <path d="M0.0669617171,2.47186183 C0.537406177,1.44900817 1.46080316,0.71323877 2.55437814,0.489870424 C3.64795313,0.266502078 4.78141914,0.582146567 5.60767162,1.34014317 C6.33859201,0.0613249951 7.9547183,-0.379012385 9.22217773,0.35531783 C10.4896372,1.08964804 10.9310731,2.722079 10.2094602,4.00628965 C9.4878473,5.29050031 7.87496267,5.74282529 6.60220416,5.01792556 C6.4546981,5.49833048 6.20791309,5.94155999 5.87819887,6.31824967 L3.98210879,6.31824967 C1.15266973,6.31824967 -0.343327942,4.70194194 0.0669617171,2.47186183 Z" id="Path"></path>
                        <path d="M3.98210879,6.3182627 L12.9359008,6.3182627 C12.4458708,4.00529622 10.4292326,2.34931026 8.08978794,2.33880773 C5.75034331,2.3283052 3.71924088,3.96611953 3.20891673,6.27458207 C3.46561301,6.30403348 3.72376542,6.31861317 3.98210879,6.3182627 Z" id="Path"></path>
                    </g>
                    <path d="M12.6499375,11.8980566 C12.6499375,12.3917842 12.2540845,12.7920294 11.7657752,12.7920294 L9.6273503,12.7920294 C9.25631472,12.7920294 8.955531,12.4879082 8.955531,12.1127557 C8.955531,11.7376031 9.25631472,11.4334818 9.6273503,11.4334818 C9.67514081,11.4333156 9.72280771,11.4383995 9.76951205,11.4486442 C9.76892051,11.4436078 9.76892051,11.4385183 9.76951205,11.4334818 C9.77014266,11.0137256 10.0595237,10.6509444 10.4651244,10.5614307 C10.8707251,10.471917 11.2832953,10.6797815 11.4568583,11.0610943 C11.7282556,10.9588487 12.0319634,10.9973817 12.2699614,11.1642567 C12.5079593,11.3311319 12.6501109,11.6052186 12.6505373,11.8980566 L12.6499375,11.8980566 Z" id="Path" fill="url(#linearGradient-1)" opacity="0" style="mix-blend-mode: soft-light;"></path>
                    <path d="M11.2649099,15.2604618 C11.2645793,15.5560909 11.0276371,15.7956622 10.7352523,15.7959965 L9.4533971,15.7959965 C9.29844243,15.7973161 9.15645784,15.7087059 9.08816621,15.5680622 C9.01987451,15.4274185 9.03736753,15.2596436 9.13316394,15.1364903 C9.22896036,15.013337 9.38609841,14.9566107 9.5373745,14.9905719 C9.53707784,14.9875468 9.53707784,14.9844995 9.5373745,14.9814744 C9.53744785,14.7296589 9.71102342,14.511911 9.95437688,14.4583512 C10.1977303,14.4047915 10.445116,14.52989 10.5487026,14.758891 C10.7113777,14.6972204 10.8936222,14.7201345 11.0364045,14.8202108 C11.1791867,14.9202872 11.2643505,15.0848003 11.2643101,15.2604618 L11.2649099,15.2604618 Z" id="Path" fill="url(#linearGradient-2)" opacity="0" style="mix-blend-mode: soft-light;"></path>
                    <path d="M12.2174537,15.0257485 C12.2174537,15.2803163 12.0133505,15.4866843 11.7615763,15.4866843 L10.658473,15.4866843 C10.5312753,15.4920372 10.4114071,15.4264752 10.3462306,15.3159032 C10.2810541,15.2053311 10.2810541,15.0675364 10.3462306,14.9569644 C10.4114071,14.8463922 10.5312753,14.7808303 10.658473,14.7861832 C10.6830466,14.7861102 10.7075647,14.7885485 10.7316533,14.7934611 C10.7313584,14.7910443 10.7313584,14.7886001 10.7316533,14.7861832 C10.7308647,14.5688679 10.8803052,14.3805162 11.090291,14.3341634 C11.3002769,14.2878107 11.5137584,14.3960504 11.6026191,14.5939245 C11.7425968,14.5410439 11.8993189,14.5608819 12.0220836,14.6470207 C12.1448482,14.7331594 12.2180536,14.8746613 12.2180536,15.0257485 L12.2174537,15.0257485 Z" id="Path" fill="url(#linearGradient-3)" opacity="0" style="mix-blend-mode: soft-light;"></path>
                    <path d="M8.01858294,16.836741 C8.01858294,17.0913088 7.81447971,17.2976768 7.56270556,17.2976768 L6.45960223,17.2976768 C6.26812137,17.2976768 6.11289547,17.1407285 6.11289547,16.947123 C6.11289547,16.7535174 6.26812137,16.5965691 6.45960223,16.5965691 C6.4841962,16.5966957 6.50871444,16.5993373 6.53278255,16.6044536 C6.53246255,16.6018354 6.53246255,16.5991873 6.53278255,16.5965691 C6.53227892,16.3793683 6.68181047,16.191284 6.89171493,16.1450954 C7.10161938,16.0989068 7.31493294,16.2071487 7.40374831,16.4049169 C7.54372607,16.3520363 7.70044814,16.3718744 7.82321278,16.4580131 C7.94597747,16.5441518 8.01918279,16.6856537 8.01918279,16.836741 L8.01858294,16.836741 Z" id="Path" fill="url(#linearGradient-4)" opacity="0" style="mix-blend-mode: soft-light;"></path>
                    <path d="M21.6439186,11.1156788 C21.6439186,11.5032248 21.3331982,11.8174103 20.9499053,11.8174103 L19.2703569,11.8174103 C19.0675864,11.8185659 18.8820749,11.7021929 18.7930599,11.5179803 C18.7040449,11.3337677 18.727263,11.1142819 18.8527972,10.9532717 C18.9783313,10.7922615 19.1839887,10.7181914 19.3819269,10.762699 C19.3816281,10.7586613 19.3816281,10.7546068 19.3819269,10.7505691 C19.381816,10.4205783 19.6091218,10.1350954 19.9279888,10.0647471 C20.2468558,9.99439884 20.5711178,10.1581952 20.7069706,10.4582388 C20.7849113,10.4290011 20.8673731,10.4140097 20.9505051,10.4139646 C21.3335638,10.4142994 21.6439186,10.7283695 21.6439186,11.1156788 Z" id="Path" fill="url(#linearGradient-5)" opacity="0" style="mix-blend-mode: soft-light;"></path>
                    <path d="M24.1734384,13.1771535 C24.1731072,13.5919291 23.8404622,13.9279936 23.4302382,13.9279936 L21.6307222,13.9279936 C21.3189861,13.9279936 21.066274,13.6724774 21.066274,13.3572823 C21.066274,13.0420871 21.3189861,12.786571 21.6307222,12.786571 C21.6710128,12.7865303 21.711205,12.7905941 21.7506899,12.7987009 C21.7503911,12.7946632 21.7503911,12.7906086 21.7506899,12.786571 C21.75135,12.4336213 21.9946755,12.1286221 22.3357057,12.0532759 C22.6767359,11.9779298 23.0237055,12.1525111 23.1699083,12.4730134 C23.3981553,12.3870129 23.6535857,12.4194588 23.8537005,12.559872 C24.0538152,12.700285 24.1732531,12.9308704 24.1734384,13.1771535 L24.1734384,13.1771535 Z" id="Path" fill="url(#linearGradient-6)" opacity="0" style="mix-blend-mode: soft-light;"></path>
                    <path d="M22.7440228,15.7608198 C22.7440228,16.0153876 22.5399195,16.2217556 22.2881454,16.2217556 L21.1850421,16.2217556 C21.0578443,16.2271085 20.9379762,16.1615465 20.8727997,16.0509744 C20.8076232,15.9404024 20.8076232,15.8026077 20.8727997,15.6920356 C20.9379762,15.5814636 21.0578443,15.5159016 21.1850421,15.5212545 C21.2096502,15.5211097 21.2341969,15.5237544 21.2582224,15.5291389 C21.257925,15.5265194 21.257925,15.523874 21.2582224,15.5212545 C21.2587305,15.3046976 21.4080816,15.1176192 21.6173337,15.0714284 C21.8265859,15.0252377 22.0394613,15.1323575 22.1291881,15.3289958 C22.2691659,15.2761152 22.4258879,15.2959532 22.5486526,15.3820919 C22.6714173,15.4682306 22.7446226,15.6097326 22.7446226,15.7608198 L22.7440228,15.7608198 Z" id="Path" fill="url(#linearGradient-7)" opacity="0" style="mix-blend-mode: soft-light;"></path>
                    <path d="M25.3383251,17.3528677 C25.3383251,17.6074355 25.1342218,17.8138036 24.8824477,17.8138036 L23.7793443,17.8138036 C23.6521466,17.8191564 23.5322784,17.7535945 23.467102,17.6430224 C23.4019254,17.5324503 23.4019254,17.3946556 23.467102,17.2840836 C23.5322784,17.1735115 23.6521466,17.1079496 23.7793443,17.1133024 C23.8039525,17.1131577 23.8284992,17.1158024 23.8525246,17.1211869 C23.8522273,17.1185673 23.8522273,17.1159219 23.8525246,17.1133024 C23.8536329,16.897259 24.0028154,16.7109012 24.2115672,16.6647892 C24.4203188,16.6186771 24.6327744,16.7251512 24.7228906,16.9210437 C24.8628683,16.8681631 25.0195904,16.8880012 25.142355,16.9741399 C25.2651197,17.0602786 25.3383251,17.2017805 25.3383251,17.3528677 L25.3383251,17.3528677 Z" id="Path" fill="url(#linearGradient-8)" opacity="0" style="mix-blend-mode: soft-light;"></path>
                    <path d="M14.265303,19.6963623 C15.1008783,20.442957 14.5274325,28.4711241 10.0454378,28.9993808 L15.1410674,28.9993808 C16.6754548,24.3487813 14.748773,19.9765628 14.265303,19.6963623 Z" id="Path" fill="#F9F9F9"></path>
                    <path d="M14.265303,19.6963623 C15.1008783,20.442957 14.5274325,28.4711241 10.0454378,28.9993808 L12.8904727,28.9993808 C15.5087686,25.687921 14.9623155,20.3440984 14.265303,19.6963623 Z" id="Path" fill="#E3E3E3"></path>
                    <path d="M17.7065775,19.6963623 C16.8710022,20.442957 17.4450478,28.4711241 21.9264426,28.9993808 L16.9801729,28.9993808 C15.443986,24.3487813 17.2231075,19.9765628 17.7065775,19.6963623 Z" id="Path" fill="#F9F9F9"></path>
                    <path d="M17.7065775,19.6963623 C16.8710022,20.442957 17.4450478,28.4711241 21.9264426,28.9993808 L19.0820076,28.9993808 C16.4631119,25.687921 17.0095649,20.3440984 17.7065775,19.6963623 Z" id="Path" fill="#E3E3E3"></path>
                    <path d="M14.6306046,14.2706629 C14.6305705,14.4906924 14.6830415,14.707482 14.7835636,14.9026301 C14.6348105,14.3853777 14.8261346,13.8296012 15.2603818,13.5175233 C15.6946291,13.2054453 16.2766515,13.2054453 16.7108988,13.5175233 C17.1451461,13.8296012 17.3364702,14.3853777 17.1877171,14.9026301 C17.4484673,14.3981151 17.3736681,13.7831568 16.9997849,13.3575569 C16.6259018,12.931957 16.0307632,12.7843091 15.5045085,12.9865942 C14.9782538,13.1888792 14.6304292,13.6989889 14.6306046,14.2682369 L14.6306046,14.2706629 Z" id="Path" fill="#E1E1E1"></path>
                    <path d="M20.1485208,17.9745246 L18.5349547,16.4710248 C20.0033598,11.1732957 15.9850405,8.13657801 15.9850405,8.13657801 C18.3687994,10.4412569 18.7814884,14.8765509 17.3406759,16.7591097 L19.4185171,18.9042805 L19.2667579,21.9840594 L20.1485208,17.9745246 Z" id="Path" fill="#E3E3E3"></path>
                    <path d="M11.8239595,17.9745246 L13.4363259,16.4710248 C11.9679208,11.1732957 15.9862402,8.13657801 15.9862402,8.13657801 C13.6024812,10.4412569 13.1897922,14.8765509 14.6306047,16.7591097 L12.5527636,18.9042805 L12.7045227,21.9840594 L11.8239595,17.9745246 Z" id="Path" fill="#E3E3E3"></path>
                    <path d="M19.210973,2.32939358 C17.4378498,-0.776464527 14.5352304,-0.776464527 12.7609076,2.32939358 L8.07256844,10.539509 C12.4016042,4.89425864 18.0676804,2.36699624 23.899312,10.539509 L19.210973,2.32939358 Z" id="Path" fill-opacity="0.85" fill="#000000"></path>
                </g>
            </g>
        </g>
    </g>
</svg>