<?xml version="1.0" encoding="UTF-8"?>
<svg width="32px" height="32px" viewBox="0 0 32 32" version="1.1" xmlns="http://www.w3.org/2000/svg" xmlns:xlink="http://www.w3.org/1999/xlink">
    <title>4</title>
    <g id="4" stroke="none" stroke-width="1" fill="none" fill-rule="evenodd" fill-opacity="0.85" stroke-opacity="0.85">
        <g id="iconfinder_fee-03_5613315" transform="translate(1.000000, 3.000000)" fill="#000000" fill-rule="nonzero" stroke="#000000" stroke-width="0.5">
            <path d="M17.4159846,26 C17.4077712,26 17.3995613,26 17.3907613,25.9988166 C15.9912347,25.9503058 12.8789584,24.7481539 9.53968203,23.4134875 C8.56188879,23.0230277 7.71724554,22.6858091 7.35533891,22.5734063 C7.04974228,22.4787483 6.87788229,22.1509972 6.97231562,21.8433611 C7.06557894,21.535725 7.38818558,21.3606068 7.69554221,21.4564483 C8.10144217,21.5830524 8.92438209,21.9119869 9.96669532,22.3284789 C12.2665884,23.2478401 16.116758,24.7872039 17.4206746,24.8321677 C17.4265412,24.8321677 17.4324046,24.8321677 17.4382712,24.8321677 C19.2231677,24.8321677 27.2068069,20.3548783 28.5746635,17.8831355 C28.8814334,17.3376726 28.8386134,17.1566406 28.8380268,17.1542737 C28.1464769,16.6277424 22.816424,18.7906624 21.9465541,19.4520818 C21.6925775,19.6473117 21.3289075,19.5988009 21.1353475,19.3455928 C20.9411976,19.0923846 20.9810809,18.7338709 21.2297809,18.5350908 C21.4843475,18.3327603 28.0256435,14.9262783 29.61111,16.2988112 C29.9753633,16.6123645 30.26571,17.2430179 29.5841267,18.455814 C27.9752035,21.3617936 19.5968077,26 17.4159846,26 Z" id="Path"></path>
            <path d="M19.2929711,21.27897 C18.9662578,21.27897 18.6260545,21.2470239 18.2793978,21.1807616 L17.2693446,20.9736974 C15.8404881,20.6838095 14.4908182,20.4093029 12.9704617,19.9277354 C12.6654517,19.8307105 12.4959351,19.5029594 12.5921317,19.1953234 C12.6877417,18.8876873 13.0138684,18.7208565 13.317705,18.8131443 C14.7794082,19.276967 16.099748,19.5455564 17.4975179,19.8283437 L18.5052245,20.0354079 C19.9909743,20.3181985 20.9499976,19.7632682 21.0420876,19.3822725 C21.1083675,19.1101328 20.6837009,18.5481052 19.2425277,18.1091313 C16.7871946,17.3412229 15.3577548,16.2810631 14.2098582,15.4291476 C13.4678616,14.8789509 12.8818917,14.4447108 12.2149751,14.2246321 C10.4934253,13.6850864 6.47022567,14.5346351 4.56391252,16.1745741 C4.32107588,16.3840018 3.95565258,16.3544226 3.74800927,16.1083151 C3.54036596,15.8633877 3.56969596,15.4942231 3.81311593,15.2847953 C6.06667237,13.3466878 10.5086786,12.4675566 12.5663217,13.1124112 C13.418005,13.3928317 14.1025182,13.9004313 14.8955448,14.4884912 C16.0299481,15.3297558 17.3162713,16.28343 19.5815577,16.9933601 C22.3753341,17.8429088 22.2668208,19.2497547 22.1665208,19.6603328 C21.9254408,20.6518635 20.7435276,21.27897 19.2929711,21.27897 Z" id="Path"></path>
            <path d="M2.58779605,24.8321677 C2.32032608,24.8321677 2.08042277,24.6440351 2.02235278,24.3695285 L1.68156281,22.7556217 C1.61469615,22.4397016 1.81412613,22.129702 2.12675943,22.0622563 C2.44174273,21.9971774 2.74733937,22.195961 2.81361936,22.5118811 L3.03416601,23.5566596 L5.1369758,23.1094051 L3.36674264,14.6695232 L1.26569285,15.1155943 L2.30272608,20.0389582 C2.36959274,20.3548783 2.1695761,20.6648779 1.85694279,20.7323236 C1.54665282,20.7938488 1.23636285,20.5974355 1.17066953,20.2826988 L0.0128029757,14.7866598 C-0.0194570211,14.6340268 0.00986964269,14.4766568 0.0937496344,14.3465025 C0.177626293,14.2163481 0.30901628,14.1252404 0.459762931,14.0932943 L3.69462928,13.4070295 C4.00609258,13.3407706 4.31344922,13.5430977 4.38031588,13.8578344 L6.38986234,23.439523 C6.42153567,23.5909725 6.39220901,23.749526 6.30833235,23.8784936 C6.22445569,24.0086479 6.09306571,24.0997556 5.94231905,24.1317017 L2.70745271,24.8191533 C2.66756938,24.827434 2.62709605,24.8321677 2.58779605,24.8321677 Z" id="Path"></path>
            <path d="M27.9218235,14.8032245 C27.8092069,14.8032245 27.6960002,14.770095 27.5956969,14.7002858 C27.3317469,14.5192538 27.2642903,14.1560063 27.4443669,13.8897804 C28.3588102,12.5397293 28.8421368,10.9672361 28.8421368,9.34149833 C28.8421368,8.17957987 28.6022335,7.06617217 28.1077635,5.93619974 C27.9787235,5.6415781 28.1112835,5.29726226 28.4039768,5.16710789 C28.6972568,5.03458665 29.0380468,5.16947476 29.1670867,5.46527984 C29.7272534,6.74670175 30,8.0139258 30,9.34149833 C30,11.202696 29.4468767,13.003552 28.4004568,14.5476495 C28.2884235,14.7133002 28.1065902,14.8032245 27.9218235,14.8032245 Z M12.2923984,11.8156013 C12.0266885,11.8156013 11.7879585,11.6298356 11.7281285,11.3576958 C11.5809018,10.6891792 11.5093418,10.0301267 11.5093418,9.34149497 C11.5093418,4.18976838 15.6492681,0 20.7376609,0 C22.0662141,0 23.3877307,0.292254769 24.5590872,0.844818274 C24.8482605,0.982069892 24.9731972,1.32875261 24.8377038,1.62100738 C24.7016205,1.91326215 24.3590706,2.04104964 24.0675506,1.90261123 C23.0492874,1.42104376 21.8978741,1.16664884 20.7376609,1.16664884 C16.2874447,1.16664884 12.6672084,4.83461968 12.6672084,9.34149161 C12.6672084,9.94374932 12.7293817,10.5199748 12.8578384,11.1044843 C12.9276384,11.419221 12.730555,11.7315875 12.4185051,11.8014001 C12.3762784,11.8108676 12.3340451,11.8156013 12.2923984,11.8156013 Z" id="Shape"></path>
            <path d="M27.2414169,4.12114593 C27.0801136,4.12114593 26.919397,4.05370356 26.805017,3.92118232 C26.6560303,3.74961443 26.4923837,3.59224777 26.334597,3.44079493 L26.0829637,3.19468406 C25.8571404,2.96632472 25.8571404,2.59716009 26.0829637,2.36880075 C26.309377,2.14162485 26.6753903,2.14162485 26.901797,2.36880075 L27.1340736,2.59597666 C27.3170803,2.77227492 27.5053669,2.95449036 27.6778136,3.15445398 C27.8878035,3.39701454 27.8625802,3.76617581 27.6215036,3.97797377 C27.5118202,4.07381524 27.3763236,4.12114593 27.2414169,4.12114593 Z" id="Path"></path>
            <path d="M18.4213445,13.6697018 C18.3169378,13.6697018 18.2107678,13.6401226 18.1157478,13.5809609 C17.8441712,13.409393 17.7614679,13.0496959 17.9309845,12.7763727 L22.5624474,5.28897821 C22.7319607,5.01683848 23.0903474,4.93401145 23.3595807,5.10202903 C23.6311573,5.27359691 23.7138606,5.63329405 23.5443473,5.90661722 L18.9128811,13.3940117 C18.8031944,13.5714934 18.6143211,13.6697018 18.4213445,13.6697018 Z" id="Path"></path>
            <path d="M18.1497678,8.99717913 C17.1185979,8.99717913 16.310908,8.06243993 16.310908,6.86857207 C16.310908,5.67470421 17.1185979,4.73996501 18.1497678,4.73996501 C19.1615811,4.73996501 19.9546077,5.67470421 19.9546077,6.86857207 C19.9546077,8.06243993 19.1615811,8.99717913 18.1497678,8.99717913 Z M18.1497678,5.90661722 C17.7679179,5.90661722 17.4687746,6.32902635 17.4687746,6.86857207 C17.4687746,7.40811778 17.7679179,7.83052692 18.1497678,7.83052692 C18.5005278,7.83052692 18.7967411,7.38918618 18.7967411,6.86857207 C18.7967411,6.34795796 18.5005278,5.90661722 18.1497678,5.90661722 Z" id="Shape"></path>
            <path d="M23.3595773,13.908712 C22.3284074,13.908712 21.5207175,12.9739728 21.5207175,11.780105 C21.5207175,10.6051721 22.3284074,9.68581081 23.3595773,9.68581081 C24.3737339,9.68581081 25.1984371,10.6252838 25.1984371,11.780105 C25.1984371,12.9538578 24.3737339,13.908712 23.3595773,13.908712 Z M23.3595773,10.852463 C22.9841807,10.852463 22.6785841,11.268955 22.6785841,11.780105 C22.6785841,12.3196507 22.9777307,12.7420598 23.3595773,12.7420598 C23.6815973,12.7420598 24.0405706,12.3468663 24.0405706,11.780105 C24.0405706,11.2500234 23.6810106,10.852463 23.3595773,10.852463 Z" id="Shape"></path>
        </g>
    </g>
</svg>